  0
SECTION
  2
HEADER
  9
$ANGBASE
  50
0.0
  9
$ANGDIR
  70
1
  9
$MEASUREMENT
  70
0
  0
ENDSEC
  0
SECTION
  2
TABLES
  0
TABLE
  2
LTYPE
  70
4
  0
LTYPE
  5
40F
  2
CONTINUOUS
  70
0
  3
Solid line
  72
65
  73
0
  40
0.0
  0
LTYPE
  5
410
  2
DASHDOT
 70
0
  3
Dash Dot ____ _ ____ _
 72
65
 73
4
 40
2.0
 49
1.25
 49
-0.25
 49
0.25
 49
-0.25
  0
LTYPE
  5
411
  2
DASHED
 70
0
  3
Dashed __ __ __ __ __
 72
65
 73
2
 40
0.75
 49
0.5
 49
-0.25
  0
LTYPE
  5
43B
  2
DOTTED
 70
0
  3
Dotted .  .  .  .
 72
65
 73
2
 40
0.2
 49
0.0
 49
-0.2
  0
ENDTAB
  0
TABLE
  2
STYLE
  70
4
  0
STYLE
  2
KICAD
  70
0
  40
0
  41
1
  42
1
  50
0
  71
0
  3
isocp.shx
  0
STYLE
  2
KICADB
  70
0
  40
0
  41
1
  42
1
  50
0
  71
0
  3
isocp.shx
  0
STYLE
  2
KICADI
  70
0
  40
0
  41
1
  42
1
  50
15
  71
0
  3
isocp.shx
  0
STYLE
  2
KICADBI
  70
0
  40
0
  41
1
  42
1
  50
15
  71
0
  3
isocp.shx
  0
ENDTAB
  0
TABLE
  2
LAYER
  70
1
  0
LAYER
  2
BLACK
  70
0
  62
7
  6
CONTINUOUS
  0
ENDTAB
  0
ENDSEC
  0
SECTION
  2
ENTITIES
0
LINE
8
BLACK
6
CONTINUOUS
10
4.90518
20
-4.70728
11
4.90518
21
-4.70728
0
LINE
8
BLACK
6
CONTINUOUS
10
4.90518
20
-4.70728
11
4.88224
21
-4.70503
0
LINE
8
BLACK
6
CONTINUOUS
10
4.88224
20
-4.70503
11
4.88222
21
-4.70503
0
LINE
8
BLACK
6
CONTINUOUS
10
4.88222
20
-4.70503
11
4.88214
21
-4.70501
0
LINE
8
BLACK
6
CONTINUOUS
10
4.88214
20
-4.70501
11
4.88205
21
-4.70499
0
LINE
8
BLACK
6
CONTINUOUS
10
4.88205
20
-4.70499
11
4.85998
21
-4.69833
0
LINE
8
BLACK
6
CONTINUOUS
10
4.85998
20
-4.69833
11
4.85997
21
-4.69833
0
LINE
8
BLACK
6
CONTINUOUS
10
4.85997
20
-4.69833
11
4.85989
21
-4.69829
0
LINE
8
BLACK
6
CONTINUOUS
10
4.85989
20
-4.69829
11
4.85981
21
-4.69826
0
LINE
8
BLACK
6
CONTINUOUS
10
4.85981
20
-4.69826
11
4.83945
21
-4.68743
0
LINE
8
BLACK
6
CONTINUOUS
10
4.83945
20
-4.68743
11
4.83944
21
-4.68743
0
LINE
8
BLACK
6
CONTINUOUS
10
4.83944
20
-4.68743
11
4.83937
21
-4.68738
0
LINE
8
BLACK
6
CONTINUOUS
10
4.83937
20
-4.68738
11
4.83929
21
-4.68733
0
LINE
8
BLACK
6
CONTINUOUS
10
4.83929
20
-4.68733
11
4.82143
21
-4.67276
0
LINE
8
BLACK
6
CONTINUOUS
10
4.82143
20
-4.67276
11
4.82142
21
-4.67275
0
LINE
8
BLACK
6
CONTINUOUS
10
4.82142
20
-4.67275
11
4.82136
21
-4.67269
0
LINE
8
BLACK
6
CONTINUOUS
10
4.82136
20
-4.67269
11
4.82129
21
-4.67262
0
LINE
8
BLACK
6
CONTINUOUS
10
4.82129
20
-4.67262
11
4.8066
21
-4.65486
0
LINE
8
BLACK
6
CONTINUOUS
10
4.8066
20
-4.65486
11
4.80659
21
-4.65485
0
LINE
8
BLACK
6
CONTINUOUS
10
4.80659
20
-4.65485
11
4.80654
21
-4.65478
0
LINE
8
BLACK
6
CONTINUOUS
10
4.80654
20
-4.65478
11
4.80649
21
-4.6547
0
LINE
8
BLACK
6
CONTINUOUS
10
4.80649
20
-4.6547
11
4.79553
21
-4.63443
0
LINE
8
BLACK
6
CONTINUOUS
10
4.79553
20
-4.63443
11
4.79552
21
-4.63441
0
LINE
8
BLACK
6
CONTINUOUS
10
4.79552
20
-4.63441
11
4.79549
21
-4.63433
0
LINE
8
BLACK
6
CONTINUOUS
10
4.79549
20
-4.63433
11
4.79545
21
-4.63425
0
LINE
8
BLACK
6
CONTINUOUS
10
4.79545
20
-4.63425
11
4.78864
21
-4.61223
0
LINE
8
BLACK
6
CONTINUOUS
10
4.78864
20
-4.61223
11
4.78863
21
-4.61222
0
LINE
8
BLACK
6
CONTINUOUS
10
4.78863
20
-4.61222
11
4.78862
21
-4.61213
0
LINE
8
BLACK
6
CONTINUOUS
10
4.78862
20
-4.61213
11
4.7886
21
-4.61204
0
LINE
8
BLACK
6
CONTINUOUS
10
4.7886
20
-4.61204
11
4.78619
21
-4.58912
0
LINE
8
BLACK
6
CONTINUOUS
10
4.78619
20
-4.58912
11
4.78619
21
-4.5891
0
LINE
8
BLACK
6
CONTINUOUS
10
4.78619
20
-4.5891
11
4.78619
21
-4.58906
0
LINE
8
BLACK
6
CONTINUOUS
10
4.78619
20
-4.58906
11
4.78618
21
-4.58902
0
LINE
8
BLACK
6
CONTINUOUS
10
4.78618
20
-4.58902
11
4.78618
21
-4.58824
0
LINE
8
BLACK
6
CONTINUOUS
10
4.78618
20
-4.58824
11
4.78618
21
-4.58824
0
LINE
8
BLACK
6
CONTINUOUS
10
4.78618
20
-4.58824
11
4.78618
21
-2.61964
0
LINE
8
BLACK
6
CONTINUOUS
10
4.78618
20
-2.61964
11
4.78619
21
-2.61959
0
LINE
8
BLACK
6
CONTINUOUS
10
4.78619
20
-2.61959
11
4.78619
21
-2.61959
0
LINE
8
BLACK
6
CONTINUOUS
10
4.78619
20
-2.61959
11
4.78844
21
-2.59665
0
LINE
8
BLACK
6
CONTINUOUS
10
4.78844
20
-2.59665
11
4.78844
21
-2.59663
0
LINE
8
BLACK
6
CONTINUOUS
10
4.78844
20
-2.59663
11
4.78846
21
-2.59655
0
LINE
8
BLACK
6
CONTINUOUS
10
4.78846
20
-2.59655
11
4.78847
21
-2.59646
0
LINE
8
BLACK
6
CONTINUOUS
10
4.78847
20
-2.59646
11
4.79514
21
-2.57439
0
LINE
8
BLACK
6
CONTINUOUS
10
4.79514
20
-2.57439
11
4.79514
21
-2.57438
0
LINE
8
BLACK
6
CONTINUOUS
10
4.79514
20
-2.57438
11
4.79517
21
-2.5743
0
LINE
8
BLACK
6
CONTINUOUS
10
4.79517
20
-2.5743
11
4.79521
21
-2.57421
0
LINE
8
BLACK
6
CONTINUOUS
10
4.79521
20
-2.57421
11
4.80603
21
-2.55386
0
LINE
8
BLACK
6
CONTINUOUS
10
4.80603
20
-2.55386
11
4.80604
21
-2.55385
0
LINE
8
BLACK
6
CONTINUOUS
10
4.80604
20
-2.55385
11
4.80609
21
-2.55378
0
LINE
8
BLACK
6
CONTINUOUS
10
4.80609
20
-2.55378
11
4.80614
21
-2.5537
0
LINE
8
BLACK
6
CONTINUOUS
10
4.80614
20
-2.5537
11
4.82071
21
-2.53584
0
LINE
8
BLACK
6
CONTINUOUS
10
4.82071
20
-2.53584
11
4.82071
21
-2.53584
0
LINE
8
BLACK
6
CONTINUOUS
10
4.82071
20
-2.53584
11
4.82071
21
-2.53584
0
LINE
8
BLACK
6
CONTINUOUS
10
4.82071
20
-2.53584
11
4.82071
21
-2.53583
0
LINE
8
BLACK
6
CONTINUOUS
10
4.82071
20
-2.53583
11
4.82078
21
-2.53577
0
LINE
8
BLACK
6
CONTINUOUS
10
4.82078
20
-2.53577
11
4.82084
21
-2.5357
0
LINE
8
BLACK
6
CONTINUOUS
10
4.82084
20
-2.5357
11
4.8386
21
-2.52101
0
LINE
8
BLACK
6
CONTINUOUS
10
4.8386
20
-2.52101
11
4.83861
21
-2.521
0
LINE
8
BLACK
6
CONTINUOUS
10
4.83861
20
-2.521
11
4.83869
21
-2.52095
0
LINE
8
BLACK
6
CONTINUOUS
10
4.83869
20
-2.52095
11
4.83876
21
-2.5209
0
LINE
8
BLACK
6
CONTINUOUS
10
4.83876
20
-2.5209
11
4.85904
21
-2.50994
0
LINE
8
BLACK
6
CONTINUOUS
10
4.85904
20
-2.50994
11
4.85905
21
-2.50993
0
LINE
8
BLACK
6
CONTINUOUS
10
4.85905
20
-2.50993
11
4.85913
21
-2.5099
0
LINE
8
BLACK
6
CONTINUOUS
10
4.85913
20
-2.5099
11
4.85921
21
-2.50986
0
LINE
8
BLACK
6
CONTINUOUS
10
4.85921
20
-2.50986
11
4.88124
21
-2.50305
0
LINE
8
BLACK
6
CONTINUOUS
10
4.88124
20
-2.50305
11
4.88124
21
-2.50305
0
LINE
8
BLACK
6
CONTINUOUS
10
4.88124
20
-2.50305
11
4.88125
21
-2.50304
0
LINE
8
BLACK
6
CONTINUOUS
10
4.88125
20
-2.50304
11
4.88134
21
-2.50303
0
LINE
8
BLACK
6
CONTINUOUS
10
4.88134
20
-2.50303
11
4.88142
21
-2.50301
0
LINE
8
BLACK
6
CONTINUOUS
10
4.88142
20
-2.50301
11
4.90435
21
-2.5006
0
LINE
8
BLACK
6
CONTINUOUS
10
4.90435
20
-2.5006
11
4.90436
21
-2.5006
0
LINE
8
BLACK
6
CONTINUOUS
10
4.90436
20
-2.5006
11
4.9044
21
-2.5006
0
LINE
8
BLACK
6
CONTINUOUS
10
4.9044
20
-2.5006
11
4.90445
21
-2.50059
0
LINE
8
BLACK
6
CONTINUOUS
10
4.90445
20
-2.50059
11
4.90523
21
-2.50059
0
LINE
8
BLACK
6
CONTINUOUS
10
4.90523
20
-2.50059
11
4.90523
21
-2.50059
0
LINE
8
BLACK
6
CONTINUOUS
10
4.90523
20
-2.50059
11
7.22816
21
-2.50059
0
LINE
8
BLACK
6
CONTINUOUS
10
7.22816
20
-2.50059
11
7.22821
21
-2.5006
0
LINE
8
BLACK
6
CONTINUOUS
10
7.22821
20
-2.5006
11
7.22821
21
-2.5006
0
LINE
8
BLACK
6
CONTINUOUS
10
7.22821
20
-2.5006
11
7.25115
21
-2.50284
0
LINE
8
BLACK
6
CONTINUOUS
10
7.25115
20
-2.50284
11
7.25116
21
-2.50285
0
LINE
8
BLACK
6
CONTINUOUS
10
7.25116
20
-2.50285
11
7.25125
21
-2.50286
0
LINE
8
BLACK
6
CONTINUOUS
10
7.25125
20
-2.50286
11
7.25134
21
-2.50288
0
LINE
8
BLACK
6
CONTINUOUS
10
7.25134
20
-2.50288
11
7.2734
21
-2.50954
0
LINE
8
BLACK
6
CONTINUOUS
10
7.2734
20
-2.50954
11
7.27342
21
-2.50955
0
LINE
8
BLACK
6
CONTINUOUS
10
7.27342
20
-2.50955
11
7.2735
21
-2.50958
0
LINE
8
BLACK
6
CONTINUOUS
10
7.2735
20
-2.50958
11
7.27358
21
-2.50962
0
LINE
8
BLACK
6
CONTINUOUS
10
7.27358
20
-2.50962
11
7.29393
21
-2.52044
0
LINE
8
BLACK
6
CONTINUOUS
10
7.29393
20
-2.52044
11
7.29395
21
-2.52045
0
LINE
8
BLACK
6
CONTINUOUS
10
7.29395
20
-2.52045
11
7.29402
21
-2.5205
0
LINE
8
BLACK
6
CONTINUOUS
10
7.29402
20
-2.5205
11
7.29409
21
-2.52055
0
LINE
8
BLACK
6
CONTINUOUS
10
7.29409
20
-2.52055
11
7.31196
21
-2.53511
0
LINE
8
BLACK
6
CONTINUOUS
10
7.31196
20
-2.53511
11
7.31196
21
-2.53511
0
LINE
8
BLACK
6
CONTINUOUS
10
7.31196
20
-2.53511
11
7.31196
21
-2.53511
0
LINE
8
BLACK
6
CONTINUOUS
10
7.31196
20
-2.53511
11
7.31197
21
-2.53512
0
LINE
8
BLACK
6
CONTINUOUS
10
7.31197
20
-2.53512
11
7.31203
21
-2.53519
0
LINE
8
BLACK
6
CONTINUOUS
10
7.31203
20
-2.53519
11
7.31209
21
-2.53525
0
LINE
8
BLACK
6
CONTINUOUS
10
7.31209
20
-2.53525
11
7.32679
21
-2.55301
0
LINE
8
BLACK
6
CONTINUOUS
10
7.32679
20
-2.55301
11
7.3268
21
-2.55302
0
LINE
8
BLACK
6
CONTINUOUS
10
7.3268
20
-2.55302
11
7.32684
21
-2.5531
0
LINE
8
BLACK
6
CONTINUOUS
10
7.32684
20
-2.5531
11
7.32689
21
-2.55317
0
LINE
8
BLACK
6
CONTINUOUS
10
7.32689
20
-2.55317
11
7.33786
21
-2.57345
0
LINE
8
BLACK
6
CONTINUOUS
10
7.33786
20
-2.57345
11
7.33786
21
-2.57346
0
LINE
8
BLACK
6
CONTINUOUS
10
7.33786
20
-2.57346
11
7.3379
21
-2.57354
0
LINE
8
BLACK
6
CONTINUOUS
10
7.3379
20
-2.57354
11
7.33793
21
-2.57362
0
LINE
8
BLACK
6
CONTINUOUS
10
7.33793
20
-2.57362
11
7.34475
21
-2.59564
0
LINE
8
BLACK
6
CONTINUOUS
10
7.34475
20
-2.59564
11
7.34475
21
-2.59566
0
LINE
8
BLACK
6
CONTINUOUS
10
7.34475
20
-2.59566
11
7.34477
21
-2.59575
0
LINE
8
BLACK
6
CONTINUOUS
10
7.34477
20
-2.59575
11
7.34479
21
-2.59583
0
LINE
8
BLACK
6
CONTINUOUS
10
7.34479
20
-2.59583
11
7.3472
21
-2.61876
0
LINE
8
BLACK
6
CONTINUOUS
10
7.3472
20
-2.61876
11
7.3472
21
-2.61877
0
LINE
8
BLACK
6
CONTINUOUS
10
7.3472
20
-2.61877
11
7.3472
21
-2.61881
0
LINE
8
BLACK
6
CONTINUOUS
10
7.3472
20
-2.61881
11
7.3472
21
-2.61886
0
LINE
8
BLACK
6
CONTINUOUS
10
7.3472
20
-2.61886
11
7.3472
21
-2.61964
0
LINE
8
BLACK
6
CONTINUOUS
10
7.3472
20
-2.61964
11
7.3472
21
-2.61964
0
LINE
8
BLACK
6
CONTINUOUS
10
7.3472
20
-2.61964
11
7.3472
21
-4.58824
0
LINE
8
BLACK
6
CONTINUOUS
10
7.3472
20
-4.58824
11
7.3472
21
-4.58828
0
LINE
8
BLACK
6
CONTINUOUS
10
7.3472
20
-4.58828
11
7.3472
21
-4.58829
0
LINE
8
BLACK
6
CONTINUOUS
10
7.3472
20
-4.58829
11
7.34495
21
-4.61123
0
LINE
8
BLACK
6
CONTINUOUS
10
7.34495
20
-4.61123
11
7.34495
21
-4.61124
0
LINE
8
BLACK
6
CONTINUOUS
10
7.34495
20
-4.61124
11
7.34493
21
-4.61133
0
LINE
8
BLACK
6
CONTINUOUS
10
7.34493
20
-4.61133
11
7.34491
21
-4.61141
0
LINE
8
BLACK
6
CONTINUOUS
10
7.34491
20
-4.61141
11
7.33825
21
-4.63348
0
LINE
8
BLACK
6
CONTINUOUS
10
7.33825
20
-4.63348
11
7.33825
21
-4.63349
0
LINE
8
BLACK
6
CONTINUOUS
10
7.33825
20
-4.63349
11
7.33821
21
-4.63358
0
LINE
8
BLACK
6
CONTINUOUS
10
7.33821
20
-4.63358
11
7.33818
21
-4.63366
0
LINE
8
BLACK
6
CONTINUOUS
10
7.33818
20
-4.63366
11
7.32736
21
-4.65401
0
LINE
8
BLACK
6
CONTINUOUS
10
7.32736
20
-4.65401
11
7.32735
21
-4.65402
0
LINE
8
BLACK
6
CONTINUOUS
10
7.32735
20
-4.65402
11
7.3273
21
-4.6541
0
LINE
8
BLACK
6
CONTINUOUS
10
7.3273
20
-4.6541
11
7.32725
21
-4.65417
0
LINE
8
BLACK
6
CONTINUOUS
10
7.32725
20
-4.65417
11
7.31268
21
-4.67204
0
LINE
8
BLACK
6
CONTINUOUS
10
7.31268
20
-4.67204
11
7.31267
21
-4.67205
0
LINE
8
BLACK
6
CONTINUOUS
10
7.31267
20
-4.67205
11
7.31261
21
-4.67211
0
LINE
8
BLACK
6
CONTINUOUS
10
7.31261
20
-4.67211
11
7.31255
21
-4.67217
0
LINE
8
BLACK
6
CONTINUOUS
10
7.31255
20
-4.67217
11
7.29478
21
-4.68687
0
LINE
8
BLACK
6
CONTINUOUS
10
7.29478
20
-4.68687
11
7.29477
21
-4.68687
0
LINE
8
BLACK
6
CONTINUOUS
10
7.29477
20
-4.68687
11
7.2947
21
-4.68692
0
LINE
8
BLACK
6
CONTINUOUS
10
7.2947
20
-4.68692
11
7.29462
21
-4.68697
0
LINE
8
BLACK
6
CONTINUOUS
10
7.29462
20
-4.68697
11
7.27435
21
-4.69794
0
LINE
8
BLACK
6
CONTINUOUS
10
7.27435
20
-4.69794
11
7.27434
21
-4.69794
0
LINE
8
BLACK
6
CONTINUOUS
10
7.27434
20
-4.69794
11
7.27425
21
-4.69798
0
LINE
8
BLACK
6
CONTINUOUS
10
7.27425
20
-4.69798
11
7.27417
21
-4.69801
0
LINE
8
BLACK
6
CONTINUOUS
10
7.27417
20
-4.69801
11
7.25215
21
-4.70483
0
LINE
8
BLACK
6
CONTINUOUS
10
7.25215
20
-4.70483
11
7.25214
21
-4.70483
0
LINE
8
BLACK
6
CONTINUOUS
10
7.25214
20
-4.70483
11
7.25205
21
-4.70485
0
LINE
8
BLACK
6
CONTINUOUS
10
7.25205
20
-4.70485
11
7.25196
21
-4.70487
0
LINE
8
BLACK
6
CONTINUOUS
10
7.25196
20
-4.70487
11
7.22904
21
-4.70728
0
LINE
8
BLACK
6
CONTINUOUS
10
7.22904
20
-4.70728
11
7.22902
21
-4.70728
0
LINE
8
BLACK
6
CONTINUOUS
10
7.22902
20
-4.70728
11
7.22898
21
-4.70728
0
LINE
8
BLACK
6
CONTINUOUS
10
7.22898
20
-4.70728
11
7.22894
21
-4.70728
0
LINE
8
BLACK
6
CONTINUOUS
10
7.22894
20
-4.70728
11
7.22816
21
-4.70728
0
LINE
8
BLACK
6
CONTINUOUS
10
7.22816
20
-4.70728
11
7.22816
21
-4.70728
0
LINE
8
BLACK
6
CONTINUOUS
10
7.22816
20
-4.70728
11
4.90523
21
-4.70728
0
LINE
8
BLACK
6
CONTINUOUS
10
4.90523
20
-4.70728
11
4.90518
21
-4.70728
0
LINE
8
BLACK
6
CONTINUOUS
10
7.22888
20
-4.70531
11
7.25166
21
-4.70292
0
LINE
8
BLACK
6
CONTINUOUS
10
7.25166
20
-4.70292
11
7.2735
21
-4.69616
0
LINE
8
BLACK
6
CONTINUOUS
10
7.2735
20
-4.69616
11
7.2936
21
-4.68529
0
LINE
8
BLACK
6
CONTINUOUS
10
7.2936
20
-4.68529
11
7.31122
21
-4.67072
0
LINE
8
BLACK
6
CONTINUOUS
10
7.31122
20
-4.67072
11
7.32566
21
-4.653
0
LINE
8
BLACK
6
CONTINUOUS
10
7.32566
20
-4.653
11
7.33639
21
-4.63282
0
LINE
8
BLACK
6
CONTINUOUS
10
7.33639
20
-4.63282
11
7.343
21
-4.61094
0
LINE
8
BLACK
6
CONTINUOUS
10
7.343
20
-4.61094
11
7.34524
21
-4.58814
0
LINE
8
BLACK
6
CONTINUOUS
10
7.34524
20
-4.58814
11
7.34524
21
-2.61969
0
LINE
8
BLACK
6
CONTINUOUS
10
7.34524
20
-2.61969
11
7.34523
21
-2.61891
0
LINE
8
BLACK
6
CONTINUOUS
10
7.34523
20
-2.61891
11
7.34284
21
-2.59613
0
LINE
8
BLACK
6
CONTINUOUS
10
7.34284
20
-2.59613
11
7.33608
21
-2.5743
0
LINE
8
BLACK
6
CONTINUOUS
10
7.33608
20
-2.5743
11
7.32521
21
-2.55419
0
LINE
8
BLACK
6
CONTINUOUS
10
7.32521
20
-2.55419
11
7.31064
21
-2.53658
0
LINE
8
BLACK
6
CONTINUOUS
10
7.31064
20
-2.53658
11
7.29292
21
-2.52213
0
LINE
8
BLACK
6
CONTINUOUS
10
7.29292
20
-2.52213
11
7.27274
21
-2.5114
0
LINE
8
BLACK
6
CONTINUOUS
10
7.27274
20
-2.5114
11
7.25086
21
-2.50479
0
LINE
8
BLACK
6
CONTINUOUS
10
7.25086
20
-2.50479
11
7.22806
21
-2.50256
0
LINE
8
BLACK
6
CONTINUOUS
10
7.22806
20
-2.50256
11
4.90528
21
-2.50256
0
LINE
8
BLACK
6
CONTINUOUS
10
4.90528
20
-2.50256
11
4.9045
21
-2.50256
0
LINE
8
BLACK
6
CONTINUOUS
10
4.9045
20
-2.50256
11
4.88173
21
-2.50496
0
LINE
8
BLACK
6
CONTINUOUS
10
4.88173
20
-2.50496
11
4.85989
21
-2.51172
0
LINE
8
BLACK
6
CONTINUOUS
10
4.85989
20
-2.51172
11
4.83978
21
-2.52259
0
LINE
8
BLACK
6
CONTINUOUS
10
4.83978
20
-2.52259
11
4.82217
21
-2.53716
0
LINE
8
BLACK
6
CONTINUOUS
10
4.82217
20
-2.53716
11
4.80772
21
-2.55487
0
LINE
8
BLACK
6
CONTINUOUS
10
4.80772
20
-2.55487
11
4.79699
21
-2.57505
0
LINE
8
BLACK
6
CONTINUOUS
10
4.79699
20
-2.57505
11
4.79038
21
-2.59694
0
LINE
8
BLACK
6
CONTINUOUS
10
4.79038
20
-2.59694
11
4.78815
21
-2.61973
0
LINE
8
BLACK
6
CONTINUOUS
10
4.78815
20
-2.61973
11
4.78815
21
-4.58819
0
LINE
8
BLACK
6
CONTINUOUS
10
4.78815
20
-4.58819
11
4.78815
21
-4.58896
0
LINE
8
BLACK
6
CONTINUOUS
10
4.78815
20
-4.58896
11
4.79055
21
-4.61174
0
LINE
8
BLACK
6
CONTINUOUS
10
4.79055
20
-4.61174
11
4.79731
21
-4.63358
0
LINE
8
BLACK
6
CONTINUOUS
10
4.79731
20
-4.63358
11
4.80818
21
-4.65368
0
LINE
8
BLACK
6
CONTINUOUS
10
4.80818
20
-4.65368
11
4.82275
21
-4.67129
0
LINE
8
BLACK
6
CONTINUOUS
10
4.82275
20
-4.67129
11
4.84046
21
-4.68574
0
LINE
8
BLACK
6
CONTINUOUS
10
4.84046
20
-4.68574
11
4.86064
21
-4.69647
0
LINE
8
BLACK
6
CONTINUOUS
10
4.86064
20
-4.69647
11
4.88253
21
-4.70308
0
LINE
8
BLACK
6
CONTINUOUS
10
4.88253
20
-4.70308
11
4.90532
21
-4.70531
0
LINE
8
BLACK
6
CONTINUOUS
10
4.90532
20
-4.70531
11
7.22811
21
-4.70531
0
LINE
8
BLACK
6
CONTINUOUS
10
7.22811
20
-4.70531
11
7.22888
21
-4.70531
  0
ENDSEC
  0
EOF
