  0
SECTION
  2
HEADER
  9
$ANGBASE
  50
0.0
  9
$ANGDIR
  70
1
  9
$MEASUREMENT
  70
0
  0
ENDSEC
  0
SECTION
  2
TABLES
  0
TABLE
  2
LTYPE
  70
4
  0
LTYPE
  5
40F
  2
CONTINUOUS
  70
0
  3
Solid line
  72
65
  73
0
  40
0.0
  0
LTYPE
  5
410
  2
DASHDOT
 70
0
  3
Dash Dot ____ _ ____ _
 72
65
 73
4
 40
2.0
 49
1.25
 49
-0.25
 49
0.25
 49
-0.25
  0
LTYPE
  5
411
  2
DASHED
 70
0
  3
Dashed __ __ __ __ __
 72
65
 73
2
 40
0.75
 49
0.5
 49
-0.25
  0
LTYPE
  5
43B
  2
DOTTED
 70
0
  3
Dotted .  .  .  .
 72
65
 73
2
 40
0.2
 49
0.0
 49
-0.2
  0
ENDTAB
  0
TABLE
  2
STYLE
  70
4
  0
STYLE
  2
KICAD
  70
0
  40
0
  41
1
  42
1
  50
0
  71
0
  3
isocp.shx
  0
STYLE
  2
KICADB
  70
0
  40
0
  41
1
  42
1
  50
0
  71
0
  3
isocp.shx
  0
STYLE
  2
KICADI
  70
0
  40
0
  41
1
  42
1
  50
15
  71
0
  3
isocp.shx
  0
STYLE
  2
KICADBI
  70
0
  40
0
  41
1
  42
1
  50
15
  71
0
  3
isocp.shx
  0
ENDTAB
  0
TABLE
  2
LAYER
  70
1
  0
LAYER
  2
BLACK
  70
0
  62
7
  6
CONTINUOUS
  0
ENDTAB
  0
ENDSEC
  0
SECTION
  2
ENTITIES
0
LINE
8
BLACK
6
CONTINUOUS
10
5.44983
20
-4.29481
11
5.45163
21
-4.29536
0
LINE
8
BLACK
6
CONTINUOUS
10
5.45163
20
-4.29536
11
5.45329
21
-4.29624
0
LINE
8
BLACK
6
CONTINUOUS
10
5.45329
20
-4.29624
11
5.45475
21
-4.29744
0
LINE
8
BLACK
6
CONTINUOUS
10
5.45475
20
-4.29744
11
5.45594
21
-4.29889
0
LINE
8
BLACK
6
CONTINUOUS
10
5.45594
20
-4.29889
11
5.45683
21
-4.30055
0
LINE
8
BLACK
6
CONTINUOUS
10
5.45683
20
-4.30055
11
5.45737
21
-4.30235
0
LINE
8
BLACK
6
CONTINUOUS
10
5.45737
20
-4.30235
11
5.45756
21
-4.30422
0
LINE
8
BLACK
6
CONTINUOUS
10
5.45756
20
-4.30422
11
5.45756
21
-4.32342
0
LINE
8
BLACK
6
CONTINUOUS
10
5.45756
20
-4.32342
11
5.45737
21
-4.32529
0
LINE
8
BLACK
6
CONTINUOUS
10
5.45737
20
-4.32529
11
5.45683
21
-4.32709
0
LINE
8
BLACK
6
CONTINUOUS
10
5.45683
20
-4.32709
11
5.45594
21
-4.32875
0
LINE
8
BLACK
6
CONTINUOUS
10
5.45594
20
-4.32875
11
5.45475
21
-4.3302
0
LINE
8
BLACK
6
CONTINUOUS
10
5.45475
20
-4.3302
11
5.45329
21
-4.33139
0
LINE
8
BLACK
6
CONTINUOUS
10
5.45329
20
-4.33139
11
5.45163
21
-4.33228
0
LINE
8
BLACK
6
CONTINUOUS
10
5.45163
20
-4.33228
11
5.44983
21
-4.33283
0
LINE
8
BLACK
6
CONTINUOUS
10
5.44983
20
-4.33283
11
5.44796
21
-4.33301
0
LINE
8
BLACK
6
CONTINUOUS
10
5.44796
20
-4.33301
11
5.41204
21
-4.33301
0
LINE
8
BLACK
6
CONTINUOUS
10
5.41204
20
-4.33301
11
5.41017
21
-4.33283
0
LINE
8
BLACK
6
CONTINUOUS
10
5.41017
20
-4.33283
11
5.40836
21
-4.33228
0
LINE
8
BLACK
6
CONTINUOUS
10
5.40836
20
-4.33228
11
5.40671
21
-4.33139
0
LINE
8
BLACK
6
CONTINUOUS
10
5.40671
20
-4.33139
11
5.40525
21
-4.3302
0
LINE
8
BLACK
6
CONTINUOUS
10
5.40525
20
-4.3302
11
5.40406
21
-4.32875
0
LINE
8
BLACK
6
CONTINUOUS
10
5.40406
20
-4.32875
11
5.40317
21
-4.32709
0
LINE
8
BLACK
6
CONTINUOUS
10
5.40317
20
-4.32709
11
5.40263
21
-4.32529
0
LINE
8
BLACK
6
CONTINUOUS
10
5.40263
20
-4.32529
11
5.40244
21
-4.32342
0
LINE
8
BLACK
6
CONTINUOUS
10
5.40244
20
-4.32342
11
5.40244
21
-4.30422
0
LINE
8
BLACK
6
CONTINUOUS
10
5.40244
20
-4.30422
11
5.40263
21
-4.30235
0
LINE
8
BLACK
6
CONTINUOUS
10
5.40263
20
-4.30235
11
5.40317
21
-4.30055
0
LINE
8
BLACK
6
CONTINUOUS
10
5.40317
20
-4.30055
11
5.40406
21
-4.29889
0
LINE
8
BLACK
6
CONTINUOUS
10
5.40406
20
-4.29889
11
5.40525
21
-4.29744
0
LINE
8
BLACK
6
CONTINUOUS
10
5.40525
20
-4.29744
11
5.40671
21
-4.29624
0
LINE
8
BLACK
6
CONTINUOUS
10
5.40671
20
-4.29624
11
5.40836
21
-4.29536
0
LINE
8
BLACK
6
CONTINUOUS
10
5.40836
20
-4.29536
11
5.41017
21
-4.29481
0
LINE
8
BLACK
6
CONTINUOUS
10
5.41017
20
-4.29481
11
5.41204
21
-4.29463
0
LINE
8
BLACK
6
CONTINUOUS
10
5.41204
20
-4.29463
11
5.44796
21
-4.29463
0
LINE
8
BLACK
6
CONTINUOUS
10
5.44796
20
-4.29463
11
5.44983
21
-4.29481
0
LINE
8
BLACK
6
CONTINUOUS
10
5.44983
20
-4.22099
11
5.45163
21
-4.22154
0
LINE
8
BLACK
6
CONTINUOUS
10
5.45163
20
-4.22154
11
5.45329
21
-4.22242
0
LINE
8
BLACK
6
CONTINUOUS
10
5.45329
20
-4.22242
11
5.45475
21
-4.22362
0
LINE
8
BLACK
6
CONTINUOUS
10
5.45475
20
-4.22362
11
5.45594
21
-4.22507
0
LINE
8
BLACK
6
CONTINUOUS
10
5.45594
20
-4.22507
11
5.45683
21
-4.22673
0
LINE
8
BLACK
6
CONTINUOUS
10
5.45683
20
-4.22673
11
5.45737
21
-4.22853
0
LINE
8
BLACK
6
CONTINUOUS
10
5.45737
20
-4.22853
11
5.45756
21
-4.2304
0
LINE
8
BLACK
6
CONTINUOUS
10
5.45756
20
-4.2304
11
5.45756
21
-4.2496
0
LINE
8
BLACK
6
CONTINUOUS
10
5.45756
20
-4.2496
11
5.45737
21
-4.25147
0
LINE
8
BLACK
6
CONTINUOUS
10
5.45737
20
-4.25147
11
5.45683
21
-4.25327
0
LINE
8
BLACK
6
CONTINUOUS
10
5.45683
20
-4.25327
11
5.45594
21
-4.25493
0
LINE
8
BLACK
6
CONTINUOUS
10
5.45594
20
-4.25493
11
5.45475
21
-4.25638
0
LINE
8
BLACK
6
CONTINUOUS
10
5.45475
20
-4.25638
11
5.45329
21
-4.25758
0
LINE
8
BLACK
6
CONTINUOUS
10
5.45329
20
-4.25758
11
5.45163
21
-4.25846
0
LINE
8
BLACK
6
CONTINUOUS
10
5.45163
20
-4.25846
11
5.44983
21
-4.25901
0
LINE
8
BLACK
6
CONTINUOUS
10
5.44983
20
-4.25901
11
5.44796
21
-4.25919
0
LINE
8
BLACK
6
CONTINUOUS
10
5.44796
20
-4.25919
11
5.41204
21
-4.25919
0
LINE
8
BLACK
6
CONTINUOUS
10
5.41204
20
-4.25919
11
5.41017
21
-4.25901
0
LINE
8
BLACK
6
CONTINUOUS
10
5.41017
20
-4.25901
11
5.40836
21
-4.25846
0
LINE
8
BLACK
6
CONTINUOUS
10
5.40836
20
-4.25846
11
5.40671
21
-4.25758
0
LINE
8
BLACK
6
CONTINUOUS
10
5.40671
20
-4.25758
11
5.40525
21
-4.25638
0
LINE
8
BLACK
6
CONTINUOUS
10
5.40525
20
-4.25638
11
5.40406
21
-4.25493
0
LINE
8
BLACK
6
CONTINUOUS
10
5.40406
20
-4.25493
11
5.40317
21
-4.25327
0
LINE
8
BLACK
6
CONTINUOUS
10
5.40317
20
-4.25327
11
5.40263
21
-4.25147
0
LINE
8
BLACK
6
CONTINUOUS
10
5.40263
20
-4.25147
11
5.40244
21
-4.2496
0
LINE
8
BLACK
6
CONTINUOUS
10
5.40244
20
-4.2496
11
5.40244
21
-4.2304
0
LINE
8
BLACK
6
CONTINUOUS
10
5.40244
20
-4.2304
11
5.40263
21
-4.22853
0
LINE
8
BLACK
6
CONTINUOUS
10
5.40263
20
-4.22853
11
5.40317
21
-4.22673
0
LINE
8
BLACK
6
CONTINUOUS
10
5.40317
20
-4.22673
11
5.40406
21
-4.22507
0
LINE
8
BLACK
6
CONTINUOUS
10
5.40406
20
-4.22507
11
5.40525
21
-4.22362
0
LINE
8
BLACK
6
CONTINUOUS
10
5.40525
20
-4.22362
11
5.40671
21
-4.22242
0
LINE
8
BLACK
6
CONTINUOUS
10
5.40671
20
-4.22242
11
5.40836
21
-4.22154
0
LINE
8
BLACK
6
CONTINUOUS
10
5.40836
20
-4.22154
11
5.41017
21
-4.22099
0
LINE
8
BLACK
6
CONTINUOUS
10
5.41017
20
-4.22099
11
5.41204
21
-4.22081
0
LINE
8
BLACK
6
CONTINUOUS
10
5.41204
20
-4.22081
11
5.44796
21
-4.22081
0
LINE
8
BLACK
6
CONTINUOUS
10
5.44796
20
-4.22081
11
5.44983
21
-4.22099
0
LINE
8
BLACK
6
CONTINUOUS
10
5.60653
20
-4.07361
11
5.60837
21
-4.07417
0
LINE
8
BLACK
6
CONTINUOUS
10
5.60837
20
-4.07417
11
5.61007
21
-4.07508
0
LINE
8
BLACK
6
CONTINUOUS
10
5.61007
20
-4.07508
11
5.61157
21
-4.07631
0
LINE
8
BLACK
6
CONTINUOUS
10
5.61157
20
-4.07631
11
5.61279
21
-4.0778
0
LINE
8
BLACK
6
CONTINUOUS
10
5.61279
20
-4.0778
11
5.6137
21
-4.0795
0
LINE
8
BLACK
6
CONTINUOUS
10
5.6137
20
-4.0795
11
5.61426
21
-4.08135
0
LINE
8
BLACK
6
CONTINUOUS
10
5.61426
20
-4.08135
11
5.61445
21
-4.08327
0
LINE
8
BLACK
6
CONTINUOUS
10
5.61445
20
-4.08327
11
5.61445
21
-4.1128
0
LINE
8
BLACK
6
CONTINUOUS
10
5.61445
20
-4.1128
11
5.61426
21
-4.11472
0
LINE
8
BLACK
6
CONTINUOUS
10
5.61426
20
-4.11472
11
5.6137
21
-4.11656
0
LINE
8
BLACK
6
CONTINUOUS
10
5.6137
20
-4.11656
11
5.61279
21
-4.11826
0
LINE
8
BLACK
6
CONTINUOUS
10
5.61279
20
-4.11826
11
5.61157
21
-4.11975
0
LINE
8
BLACK
6
CONTINUOUS
10
5.61157
20
-4.11975
11
5.61007
21
-4.12098
0
LINE
8
BLACK
6
CONTINUOUS
10
5.61007
20
-4.12098
11
5.60837
21
-4.12189
0
LINE
8
BLACK
6
CONTINUOUS
10
5.60837
20
-4.12189
11
5.60653
21
-4.12245
0
LINE
8
BLACK
6
CONTINUOUS
10
5.60653
20
-4.12245
11
5.60461
21
-4.12264
0
LINE
8
BLACK
6
CONTINUOUS
10
5.60461
20
-4.12264
11
5.55539
21
-4.12264
0
LINE
8
BLACK
6
CONTINUOUS
10
5.55539
20
-4.12264
11
5.55347
21
-4.12245
0
LINE
8
BLACK
6
CONTINUOUS
10
5.55347
20
-4.12245
11
5.55163
21
-4.12189
0
LINE
8
BLACK
6
CONTINUOUS
10
5.55163
20
-4.12189
11
5.54993
21
-4.12098
0
LINE
8
BLACK
6
CONTINUOUS
10
5.54993
20
-4.12098
11
5.54843
21
-4.11975
0
LINE
8
BLACK
6
CONTINUOUS
10
5.54843
20
-4.11975
11
5.54721
21
-4.11826
0
LINE
8
BLACK
6
CONTINUOUS
10
5.54721
20
-4.11826
11
5.5463
21
-4.11656
0
LINE
8
BLACK
6
CONTINUOUS
10
5.5463
20
-4.11656
11
5.54574
21
-4.11472
0
LINE
8
BLACK
6
CONTINUOUS
10
5.54574
20
-4.11472
11
5.54555
21
-4.1128
0
LINE
8
BLACK
6
CONTINUOUS
10
5.54555
20
-4.1128
11
5.54555
21
-4.08327
0
LINE
8
BLACK
6
CONTINUOUS
10
5.54555
20
-4.08327
11
5.54574
21
-4.08135
0
LINE
8
BLACK
6
CONTINUOUS
10
5.54574
20
-4.08135
11
5.5463
21
-4.0795
0
LINE
8
BLACK
6
CONTINUOUS
10
5.5463
20
-4.0795
11
5.54721
21
-4.0778
0
LINE
8
BLACK
6
CONTINUOUS
10
5.54721
20
-4.0778
11
5.54843
21
-4.07631
0
LINE
8
BLACK
6
CONTINUOUS
10
5.54843
20
-4.07631
11
5.54993
21
-4.07508
0
LINE
8
BLACK
6
CONTINUOUS
10
5.54993
20
-4.07508
11
5.55163
21
-4.07417
0
LINE
8
BLACK
6
CONTINUOUS
10
5.55163
20
-4.07417
11
5.55347
21
-4.07361
0
LINE
8
BLACK
6
CONTINUOUS
10
5.55347
20
-4.07361
11
5.55539
21
-4.07343
0
LINE
8
BLACK
6
CONTINUOUS
10
5.55539
20
-4.07343
11
5.60461
21
-4.07343
0
LINE
8
BLACK
6
CONTINUOUS
10
5.60461
20
-4.07343
11
5.60653
21
-4.07361
0
LINE
8
BLACK
6
CONTINUOUS
10
6.27653
20
-4.01582
11
6.27837
21
-4.01638
0
LINE
8
BLACK
6
CONTINUOUS
10
6.27837
20
-4.01638
11
6.28007
21
-4.01729
0
LINE
8
BLACK
6
CONTINUOUS
10
6.28007
20
-4.01729
11
6.28157
21
-4.01851
0
LINE
8
BLACK
6
CONTINUOUS
10
6.28157
20
-4.01851
11
6.28279
21
-4.02
0
LINE
8
BLACK
6
CONTINUOUS
10
6.28279
20
-4.02
11
6.2837
21
-4.02171
0
LINE
8
BLACK
6
CONTINUOUS
10
6.2837
20
-4.02171
11
6.28426
21
-4.02355
0
LINE
8
BLACK
6
CONTINUOUS
10
6.28426
20
-4.02355
11
6.28445
21
-4.02547
0
LINE
8
BLACK
6
CONTINUOUS
10
6.28445
20
-4.02547
11
6.28445
21
-4.055
0
LINE
8
BLACK
6
CONTINUOUS
10
6.28445
20
-4.055
11
6.28426
21
-4.05692
0
LINE
8
BLACK
6
CONTINUOUS
10
6.28426
20
-4.05692
11
6.2837
21
-4.05877
0
LINE
8
BLACK
6
CONTINUOUS
10
6.2837
20
-4.05877
11
6.28279
21
-4.06047
0
LINE
8
BLACK
6
CONTINUOUS
10
6.28279
20
-4.06047
11
6.28157
21
-4.06196
0
LINE
8
BLACK
6
CONTINUOUS
10
6.28157
20
-4.06196
11
6.28007
21
-4.06318
0
LINE
8
BLACK
6
CONTINUOUS
10
6.28007
20
-4.06318
11
6.27837
21
-4.06409
0
LINE
8
BLACK
6
CONTINUOUS
10
6.27837
20
-4.06409
11
6.27653
21
-4.06465
0
LINE
8
BLACK
6
CONTINUOUS
10
6.27653
20
-4.06465
11
6.27461
21
-4.06484
0
LINE
8
BLACK
6
CONTINUOUS
10
6.27461
20
-4.06484
11
6.22539
21
-4.06484
0
LINE
8
BLACK
6
CONTINUOUS
10
6.22539
20
-4.06484
11
6.22347
21
-4.06465
0
LINE
8
BLACK
6
CONTINUOUS
10
6.22347
20
-4.06465
11
6.22163
21
-4.06409
0
LINE
8
BLACK
6
CONTINUOUS
10
6.22163
20
-4.06409
11
6.21993
21
-4.06318
0
LINE
8
BLACK
6
CONTINUOUS
10
6.21993
20
-4.06318
11
6.21843
21
-4.06196
0
LINE
8
BLACK
6
CONTINUOUS
10
6.21843
20
-4.06196
11
6.21721
21
-4.06047
0
LINE
8
BLACK
6
CONTINUOUS
10
6.21721
20
-4.06047
11
6.2163
21
-4.05877
0
LINE
8
BLACK
6
CONTINUOUS
10
6.2163
20
-4.05877
11
6.21574
21
-4.05692
0
LINE
8
BLACK
6
CONTINUOUS
10
6.21574
20
-4.05692
11
6.21555
21
-4.055
0
LINE
8
BLACK
6
CONTINUOUS
10
6.21555
20
-4.055
11
6.21555
21
-4.02547
0
LINE
8
BLACK
6
CONTINUOUS
10
6.21555
20
-4.02547
11
6.21574
21
-4.02355
0
LINE
8
BLACK
6
CONTINUOUS
10
6.21574
20
-4.02355
11
6.2163
21
-4.02171
0
LINE
8
BLACK
6
CONTINUOUS
10
6.2163
20
-4.02171
11
6.21721
21
-4.02
0
LINE
8
BLACK
6
CONTINUOUS
10
6.21721
20
-4.02
11
6.21843
21
-4.01851
0
LINE
8
BLACK
6
CONTINUOUS
10
6.21843
20
-4.01851
11
6.21993
21
-4.01729
0
LINE
8
BLACK
6
CONTINUOUS
10
6.21993
20
-4.01729
11
6.22163
21
-4.01638
0
LINE
8
BLACK
6
CONTINUOUS
10
6.22163
20
-4.01638
11
6.22347
21
-4.01582
0
LINE
8
BLACK
6
CONTINUOUS
10
6.22347
20
-4.01582
11
6.22539
21
-4.01563
0
LINE
8
BLACK
6
CONTINUOUS
10
6.22539
20
-4.01563
11
6.27461
21
-4.01563
0
LINE
8
BLACK
6
CONTINUOUS
10
6.27461
20
-4.01563
11
6.27653
21
-4.01582
0
LINE
8
BLACK
6
CONTINUOUS
10
6.35983
20
-4.02481
11
6.36163
21
-4.02536
0
LINE
8
BLACK
6
CONTINUOUS
10
6.36163
20
-4.02536
11
6.36329
21
-4.02624
0
LINE
8
BLACK
6
CONTINUOUS
10
6.36329
20
-4.02624
11
6.36475
21
-4.02744
0
LINE
8
BLACK
6
CONTINUOUS
10
6.36475
20
-4.02744
11
6.36594
21
-4.02889
0
LINE
8
BLACK
6
CONTINUOUS
10
6.36594
20
-4.02889
11
6.36683
21
-4.03055
0
LINE
8
BLACK
6
CONTINUOUS
10
6.36683
20
-4.03055
11
6.36737
21
-4.03235
0
LINE
8
BLACK
6
CONTINUOUS
10
6.36737
20
-4.03235
11
6.36756
21
-4.03422
0
LINE
8
BLACK
6
CONTINUOUS
10
6.36756
20
-4.03422
11
6.36756
21
-4.05342
0
LINE
8
BLACK
6
CONTINUOUS
10
6.36756
20
-4.05342
11
6.36737
21
-4.05529
0
LINE
8
BLACK
6
CONTINUOUS
10
6.36737
20
-4.05529
11
6.36683
21
-4.05709
0
LINE
8
BLACK
6
CONTINUOUS
10
6.36683
20
-4.05709
11
6.36594
21
-4.05875
0
LINE
8
BLACK
6
CONTINUOUS
10
6.36594
20
-4.05875
11
6.36475
21
-4.0602
0
LINE
8
BLACK
6
CONTINUOUS
10
6.36475
20
-4.0602
11
6.36329
21
-4.06139
0
LINE
8
BLACK
6
CONTINUOUS
10
6.36329
20
-4.06139
11
6.36163
21
-4.06228
0
LINE
8
BLACK
6
CONTINUOUS
10
6.36163
20
-4.06228
11
6.35983
21
-4.06283
0
LINE
8
BLACK
6
CONTINUOUS
10
6.35983
20
-4.06283
11
6.35796
21
-4.06301
0
LINE
8
BLACK
6
CONTINUOUS
10
6.35796
20
-4.06301
11
6.32204
21
-4.06301
0
LINE
8
BLACK
6
CONTINUOUS
10
6.32204
20
-4.06301
11
6.32017
21
-4.06283
0
LINE
8
BLACK
6
CONTINUOUS
10
6.32017
20
-4.06283
11
6.31837
21
-4.06228
0
LINE
8
BLACK
6
CONTINUOUS
10
6.31837
20
-4.06228
11
6.31671
21
-4.06139
0
LINE
8
BLACK
6
CONTINUOUS
10
6.31671
20
-4.06139
11
6.31525
21
-4.0602
0
LINE
8
BLACK
6
CONTINUOUS
10
6.31525
20
-4.0602
11
6.31406
21
-4.05875
0
LINE
8
BLACK
6
CONTINUOUS
10
6.31406
20
-4.05875
11
6.31317
21
-4.05709
0
LINE
8
BLACK
6
CONTINUOUS
10
6.31317
20
-4.05709
11
6.31263
21
-4.05529
0
LINE
8
BLACK
6
CONTINUOUS
10
6.31263
20
-4.05529
11
6.31244
21
-4.05342
0
LINE
8
BLACK
6
CONTINUOUS
10
6.31244
20
-4.05342
11
6.31244
21
-4.03422
0
LINE
8
BLACK
6
CONTINUOUS
10
6.31244
20
-4.03422
11
6.31263
21
-4.03235
0
LINE
8
BLACK
6
CONTINUOUS
10
6.31263
20
-4.03235
11
6.31317
21
-4.03055
0
LINE
8
BLACK
6
CONTINUOUS
10
6.31317
20
-4.03055
11
6.31406
21
-4.02889
0
LINE
8
BLACK
6
CONTINUOUS
10
6.31406
20
-4.02889
11
6.31525
21
-4.02744
0
LINE
8
BLACK
6
CONTINUOUS
10
6.31525
20
-4.02744
11
6.31671
21
-4.02624
0
LINE
8
BLACK
6
CONTINUOUS
10
6.31671
20
-4.02624
11
6.31837
21
-4.02536
0
LINE
8
BLACK
6
CONTINUOUS
10
6.31837
20
-4.02536
11
6.32017
21
-4.02481
0
LINE
8
BLACK
6
CONTINUOUS
10
6.32017
20
-4.02481
11
6.32204
21
-4.02463
0
LINE
8
BLACK
6
CONTINUOUS
10
6.32204
20
-4.02463
11
6.35796
21
-4.02463
0
LINE
8
BLACK
6
CONTINUOUS
10
6.35796
20
-4.02463
11
6.35983
21
-4.02481
0
LINE
8
BLACK
6
CONTINUOUS
10
5.60653
20
-3.96338
11
5.60837
21
-3.96394
0
LINE
8
BLACK
6
CONTINUOUS
10
5.60837
20
-3.96394
11
5.61007
21
-3.96485
0
LINE
8
BLACK
6
CONTINUOUS
10
5.61007
20
-3.96485
11
5.61157
21
-3.96607
0
LINE
8
BLACK
6
CONTINUOUS
10
5.61157
20
-3.96607
11
5.61279
21
-3.96756
0
LINE
8
BLACK
6
CONTINUOUS
10
5.61279
20
-3.96756
11
5.6137
21
-3.96926
0
LINE
8
BLACK
6
CONTINUOUS
10
5.6137
20
-3.96926
11
5.61426
21
-3.97111
0
LINE
8
BLACK
6
CONTINUOUS
10
5.61426
20
-3.97111
11
5.61445
21
-3.97303
0
LINE
8
BLACK
6
CONTINUOUS
10
5.61445
20
-3.97303
11
5.61445
21
-4.00256
0
LINE
8
BLACK
6
CONTINUOUS
10
5.61445
20
-4.00256
11
5.61426
21
-4.00448
0
LINE
8
BLACK
6
CONTINUOUS
10
5.61426
20
-4.00448
11
5.6137
21
-4.00633
0
LINE
8
BLACK
6
CONTINUOUS
10
5.6137
20
-4.00633
11
5.61279
21
-4.00803
0
LINE
8
BLACK
6
CONTINUOUS
10
5.61279
20
-4.00803
11
5.61157
21
-4.00952
0
LINE
8
BLACK
6
CONTINUOUS
10
5.61157
20
-4.00952
11
5.61007
21
-4.01074
0
LINE
8
BLACK
6
CONTINUOUS
10
5.61007
20
-4.01074
11
5.60837
21
-4.01165
0
LINE
8
BLACK
6
CONTINUOUS
10
5.60837
20
-4.01165
11
5.60653
21
-4.01221
0
LINE
8
BLACK
6
CONTINUOUS
10
5.60653
20
-4.01221
11
5.60461
21
-4.0124
0
LINE
8
BLACK
6
CONTINUOUS
10
5.60461
20
-4.0124
11
5.55539
21
-4.0124
0
LINE
8
BLACK
6
CONTINUOUS
10
5.55539
20
-4.0124
11
5.55347
21
-4.01221
0
LINE
8
BLACK
6
CONTINUOUS
10
5.55347
20
-4.01221
11
5.55163
21
-4.01165
0
LINE
8
BLACK
6
CONTINUOUS
10
5.55163
20
-4.01165
11
5.54993
21
-4.01074
0
LINE
8
BLACK
6
CONTINUOUS
10
5.54993
20
-4.01074
11
5.54843
21
-4.00952
0
LINE
8
BLACK
6
CONTINUOUS
10
5.54843
20
-4.00952
11
5.54721
21
-4.00803
0
LINE
8
BLACK
6
CONTINUOUS
10
5.54721
20
-4.00803
11
5.5463
21
-4.00633
0
LINE
8
BLACK
6
CONTINUOUS
10
5.5463
20
-4.00633
11
5.54574
21
-4.00448
0
LINE
8
BLACK
6
CONTINUOUS
10
5.54574
20
-4.00448
11
5.54555
21
-4.00256
0
LINE
8
BLACK
6
CONTINUOUS
10
5.54555
20
-4.00256
11
5.54555
21
-3.97303
0
LINE
8
BLACK
6
CONTINUOUS
10
5.54555
20
-3.97303
11
5.54574
21
-3.97111
0
LINE
8
BLACK
6
CONTINUOUS
10
5.54574
20
-3.97111
11
5.5463
21
-3.96926
0
LINE
8
BLACK
6
CONTINUOUS
10
5.5463
20
-3.96926
11
5.54721
21
-3.96756
0
LINE
8
BLACK
6
CONTINUOUS
10
5.54721
20
-3.96756
11
5.54843
21
-3.96607
0
LINE
8
BLACK
6
CONTINUOUS
10
5.54843
20
-3.96607
11
5.54993
21
-3.96485
0
LINE
8
BLACK
6
CONTINUOUS
10
5.54993
20
-3.96485
11
5.55163
21
-3.96394
0
LINE
8
BLACK
6
CONTINUOUS
10
5.55163
20
-3.96394
11
5.55347
21
-3.96338
0
LINE
8
BLACK
6
CONTINUOUS
10
5.55347
20
-3.96338
11
5.55539
21
-3.96319
0
LINE
8
BLACK
6
CONTINUOUS
10
5.55539
20
-3.96319
11
5.60461
21
-3.96319
0
LINE
8
BLACK
6
CONTINUOUS
10
5.60461
20
-3.96319
11
5.60653
21
-3.96338
0
LINE
8
BLACK
6
CONTINUOUS
10
6.35983
20
-3.95099
11
6.36163
21
-3.95154
0
LINE
8
BLACK
6
CONTINUOUS
10
6.36163
20
-3.95154
11
6.36329
21
-3.95242
0
LINE
8
BLACK
6
CONTINUOUS
10
6.36329
20
-3.95242
11
6.36475
21
-3.95362
0
LINE
8
BLACK
6
CONTINUOUS
10
6.36475
20
-3.95362
11
6.36594
21
-3.95507
0
LINE
8
BLACK
6
CONTINUOUS
10
6.36594
20
-3.95507
11
6.36683
21
-3.95673
0
LINE
8
BLACK
6
CONTINUOUS
10
6.36683
20
-3.95673
11
6.36737
21
-3.95853
0
LINE
8
BLACK
6
CONTINUOUS
10
6.36737
20
-3.95853
11
6.36756
21
-3.9604
0
LINE
8
BLACK
6
CONTINUOUS
10
6.36756
20
-3.9604
11
6.36756
21
-3.9796
0
LINE
8
BLACK
6
CONTINUOUS
10
6.36756
20
-3.9796
11
6.36737
21
-3.98147
0
LINE
8
BLACK
6
CONTINUOUS
10
6.36737
20
-3.98147
11
6.36683
21
-3.98327
0
LINE
8
BLACK
6
CONTINUOUS
10
6.36683
20
-3.98327
11
6.36594
21
-3.98493
0
LINE
8
BLACK
6
CONTINUOUS
10
6.36594
20
-3.98493
11
6.36475
21
-3.98638
0
LINE
8
BLACK
6
CONTINUOUS
10
6.36475
20
-3.98638
11
6.36329
21
-3.98758
0
LINE
8
BLACK
6
CONTINUOUS
10
6.36329
20
-3.98758
11
6.36163
21
-3.98846
0
LINE
8
BLACK
6
CONTINUOUS
10
6.36163
20
-3.98846
11
6.35983
21
-3.98901
0
LINE
8
BLACK
6
CONTINUOUS
10
6.35983
20
-3.98901
11
6.35796
21
-3.98919
0
LINE
8
BLACK
6
CONTINUOUS
10
6.35796
20
-3.98919
11
6.32204
21
-3.98919
0
LINE
8
BLACK
6
CONTINUOUS
10
6.32204
20
-3.98919
11
6.32017
21
-3.98901
0
LINE
8
BLACK
6
CONTINUOUS
10
6.32017
20
-3.98901
11
6.31837
21
-3.98846
0
LINE
8
BLACK
6
CONTINUOUS
10
6.31837
20
-3.98846
11
6.31671
21
-3.98758
0
LINE
8
BLACK
6
CONTINUOUS
10
6.31671
20
-3.98758
11
6.31525
21
-3.98638
0
LINE
8
BLACK
6
CONTINUOUS
10
6.31525
20
-3.98638
11
6.31406
21
-3.98493
0
LINE
8
BLACK
6
CONTINUOUS
10
6.31406
20
-3.98493
11
6.31317
21
-3.98327
0
LINE
8
BLACK
6
CONTINUOUS
10
6.31317
20
-3.98327
11
6.31263
21
-3.98147
0
LINE
8
BLACK
6
CONTINUOUS
10
6.31263
20
-3.98147
11
6.31244
21
-3.9796
0
LINE
8
BLACK
6
CONTINUOUS
10
6.31244
20
-3.9796
11
6.31244
21
-3.9604
0
LINE
8
BLACK
6
CONTINUOUS
10
6.31244
20
-3.9604
11
6.31263
21
-3.95853
0
LINE
8
BLACK
6
CONTINUOUS
10
6.31263
20
-3.95853
11
6.31317
21
-3.95673
0
LINE
8
BLACK
6
CONTINUOUS
10
6.31317
20
-3.95673
11
6.31406
21
-3.95507
0
LINE
8
BLACK
6
CONTINUOUS
10
6.31406
20
-3.95507
11
6.31525
21
-3.95362
0
LINE
8
BLACK
6
CONTINUOUS
10
6.31525
20
-3.95362
11
6.31671
21
-3.95242
0
LINE
8
BLACK
6
CONTINUOUS
10
6.31671
20
-3.95242
11
6.31837
21
-3.95154
0
LINE
8
BLACK
6
CONTINUOUS
10
6.31837
20
-3.95154
11
6.32017
21
-3.95099
0
LINE
8
BLACK
6
CONTINUOUS
10
6.32017
20
-3.95099
11
6.32204
21
-3.95081
0
LINE
8
BLACK
6
CONTINUOUS
10
6.32204
20
-3.95081
11
6.35796
21
-3.95081
0
LINE
8
BLACK
6
CONTINUOUS
10
6.35796
20
-3.95081
11
6.35983
21
-3.95099
0
LINE
8
BLACK
6
CONTINUOUS
10
6.1485
20
-3.9557
11
6.0925
21
-3.9557
0
LINE
8
BLACK
6
CONTINUOUS
10
6.0925
20
-3.9557
11
6.0925
21
-3.9447
0
LINE
8
BLACK
6
CONTINUOUS
10
6.0925
20
-3.9447
11
6.1485
21
-3.9447
0
LINE
8
BLACK
6
CONTINUOUS
10
6.1485
20
-3.9447
11
6.1485
21
-3.9557
0
LINE
8
BLACK
6
CONTINUOUS
10
5.9775
20
-3.9557
11
5.9215
21
-3.9557
0
LINE
8
BLACK
6
CONTINUOUS
10
5.9215
20
-3.9557
11
5.9215
21
-3.9447
0
LINE
8
BLACK
6
CONTINUOUS
10
5.9215
20
-3.9447
11
5.9775
21
-3.9447
0
LINE
8
BLACK
6
CONTINUOUS
10
5.9775
20
-3.9447
11
5.9775
21
-3.9557
0
LINE
8
BLACK
6
CONTINUOUS
10
6.9735
20
-3.9557
11
6.9175
21
-3.9557
0
LINE
8
BLACK
6
CONTINUOUS
10
6.9175
20
-3.9557
11
6.9175
21
-3.9447
0
LINE
8
BLACK
6
CONTINUOUS
10
6.9175
20
-3.9447
11
6.9735
21
-3.9447
0
LINE
8
BLACK
6
CONTINUOUS
10
6.9735
20
-3.9447
11
6.9735
21
-3.9557
0
LINE
8
BLACK
6
CONTINUOUS
10
6.8025
20
-3.9557
11
6.7465
21
-3.9557
0
LINE
8
BLACK
6
CONTINUOUS
10
6.7465
20
-3.9557
11
6.7465
21
-3.9447
0
LINE
8
BLACK
6
CONTINUOUS
10
6.7465
20
-3.9447
11
6.8025
21
-3.9447
0
LINE
8
BLACK
6
CONTINUOUS
10
6.8025
20
-3.9447
11
6.8025
21
-3.9557
0
LINE
8
BLACK
6
CONTINUOUS
10
6.27653
20
-3.90558
11
6.27837
21
-3.90614
0
LINE
8
BLACK
6
CONTINUOUS
10
6.27837
20
-3.90614
11
6.28007
21
-3.90705
0
LINE
8
BLACK
6
CONTINUOUS
10
6.28007
20
-3.90705
11
6.28157
21
-3.90828
0
LINE
8
BLACK
6
CONTINUOUS
10
6.28157
20
-3.90828
11
6.28279
21
-3.90977
0
LINE
8
BLACK
6
CONTINUOUS
10
6.28279
20
-3.90977
11
6.2837
21
-3.91147
0
LINE
8
BLACK
6
CONTINUOUS
10
6.2837
20
-3.91147
11
6.28426
21
-3.91332
0
LINE
8
BLACK
6
CONTINUOUS
10
6.28426
20
-3.91332
11
6.28445
21
-3.91524
0
LINE
8
BLACK
6
CONTINUOUS
10
6.28445
20
-3.91524
11
6.28445
21
-3.94476
0
LINE
8
BLACK
6
CONTINUOUS
10
6.28445
20
-3.94476
11
6.28426
21
-3.94668
0
LINE
8
BLACK
6
CONTINUOUS
10
6.28426
20
-3.94668
11
6.2837
21
-3.94853
0
LINE
8
BLACK
6
CONTINUOUS
10
6.2837
20
-3.94853
11
6.28279
21
-3.95023
0
LINE
8
BLACK
6
CONTINUOUS
10
6.28279
20
-3.95023
11
6.28157
21
-3.95172
0
LINE
8
BLACK
6
CONTINUOUS
10
6.28157
20
-3.95172
11
6.28007
21
-3.95295
0
LINE
8
BLACK
6
CONTINUOUS
10
6.28007
20
-3.95295
11
6.27837
21
-3.95386
0
LINE
8
BLACK
6
CONTINUOUS
10
6.27837
20
-3.95386
11
6.27653
21
-3.95442
0
LINE
8
BLACK
6
CONTINUOUS
10
6.27653
20
-3.95442
11
6.27461
21
-3.95461
0
LINE
8
BLACK
6
CONTINUOUS
10
6.27461
20
-3.95461
11
6.22539
21
-3.95461
0
LINE
8
BLACK
6
CONTINUOUS
10
6.22539
20
-3.95461
11
6.22347
21
-3.95442
0
LINE
8
BLACK
6
CONTINUOUS
10
6.22347
20
-3.95442
11
6.22163
21
-3.95386
0
LINE
8
BLACK
6
CONTINUOUS
10
6.22163
20
-3.95386
11
6.21993
21
-3.95295
0
LINE
8
BLACK
6
CONTINUOUS
10
6.21993
20
-3.95295
11
6.21843
21
-3.95172
0
LINE
8
BLACK
6
CONTINUOUS
10
6.21843
20
-3.95172
11
6.21721
21
-3.95023
0
LINE
8
BLACK
6
CONTINUOUS
10
6.21721
20
-3.95023
11
6.2163
21
-3.94853
0
LINE
8
BLACK
6
CONTINUOUS
10
6.2163
20
-3.94853
11
6.21574
21
-3.94668
0
LINE
8
BLACK
6
CONTINUOUS
10
6.21574
20
-3.94668
11
6.21555
21
-3.94476
0
LINE
8
BLACK
6
CONTINUOUS
10
6.21555
20
-3.94476
11
6.21555
21
-3.91524
0
LINE
8
BLACK
6
CONTINUOUS
10
6.21555
20
-3.91524
11
6.21574
21
-3.91332
0
LINE
8
BLACK
6
CONTINUOUS
10
6.21574
20
-3.91332
11
6.2163
21
-3.91147
0
LINE
8
BLACK
6
CONTINUOUS
10
6.2163
20
-3.91147
11
6.21721
21
-3.90977
0
LINE
8
BLACK
6
CONTINUOUS
10
6.21721
20
-3.90977
11
6.21843
21
-3.90828
0
LINE
8
BLACK
6
CONTINUOUS
10
6.21843
20
-3.90828
11
6.21993
21
-3.90705
0
LINE
8
BLACK
6
CONTINUOUS
10
6.21993
20
-3.90705
11
6.22163
21
-3.90614
0
LINE
8
BLACK
6
CONTINUOUS
10
6.22163
20
-3.90614
11
6.22347
21
-3.90558
0
LINE
8
BLACK
6
CONTINUOUS
10
6.22347
20
-3.90558
11
6.22539
21
-3.90539
0
LINE
8
BLACK
6
CONTINUOUS
10
6.22539
20
-3.90539
11
6.27461
21
-3.90539
0
LINE
8
BLACK
6
CONTINUOUS
10
6.27461
20
-3.90539
11
6.27653
21
-3.90558
0
LINE
8
BLACK
6
CONTINUOUS
10
6.1485
20
-3.93601
11
6.0925
21
-3.93601
0
LINE
8
BLACK
6
CONTINUOUS
10
6.0925
20
-3.93601
11
6.0925
21
-3.92501
0
LINE
8
BLACK
6
CONTINUOUS
10
6.0925
20
-3.92501
11
6.1485
21
-3.92501
0
LINE
8
BLACK
6
CONTINUOUS
10
6.1485
20
-3.92501
11
6.1485
21
-3.93601
0
LINE
8
BLACK
6
CONTINUOUS
10
6.9735
20
-3.93601
11
6.9175
21
-3.93601
0
LINE
8
BLACK
6
CONTINUOUS
10
6.9175
20
-3.93601
11
6.9175
21
-3.92501
0
LINE
8
BLACK
6
CONTINUOUS
10
6.9175
20
-3.92501
11
6.9735
21
-3.92501
0
LINE
8
BLACK
6
CONTINUOUS
10
6.9735
20
-3.92501
11
6.9735
21
-3.93601
0
LINE
8
BLACK
6
CONTINUOUS
10
6.8025
20
-3.93601
11
6.7465
21
-3.93601
0
LINE
8
BLACK
6
CONTINUOUS
10
6.7465
20
-3.93601
11
6.7465
21
-3.92501
0
LINE
8
BLACK
6
CONTINUOUS
10
6.7465
20
-3.92501
11
6.8025
21
-3.92501
0
LINE
8
BLACK
6
CONTINUOUS
10
6.8025
20
-3.92501
11
6.8025
21
-3.93601
0
LINE
8
BLACK
6
CONTINUOUS
10
5.9775
20
-3.93601
11
5.9215
21
-3.93601
0
LINE
8
BLACK
6
CONTINUOUS
10
5.9215
20
-3.93601
11
5.9215
21
-3.92501
0
LINE
8
BLACK
6
CONTINUOUS
10
5.9215
20
-3.92501
11
5.9775
21
-3.92501
0
LINE
8
BLACK
6
CONTINUOUS
10
5.9775
20
-3.92501
11
5.9775
21
-3.93601
0
LINE
8
BLACK
6
CONTINUOUS
10
6.36653
20
-3.87558
11
6.36837
21
-3.87614
0
LINE
8
BLACK
6
CONTINUOUS
10
6.36837
20
-3.87614
11
6.37007
21
-3.87705
0
LINE
8
BLACK
6
CONTINUOUS
10
6.37007
20
-3.87705
11
6.37157
21
-3.87828
0
LINE
8
BLACK
6
CONTINUOUS
10
6.37157
20
-3.87828
11
6.37279
21
-3.87977
0
LINE
8
BLACK
6
CONTINUOUS
10
6.37279
20
-3.87977
11
6.3737
21
-3.88147
0
LINE
8
BLACK
6
CONTINUOUS
10
6.3737
20
-3.88147
11
6.37426
21
-3.88332
0
LINE
8
BLACK
6
CONTINUOUS
10
6.37426
20
-3.88332
11
6.37445
21
-3.88524
0
LINE
8
BLACK
6
CONTINUOUS
10
6.37445
20
-3.88524
11
6.37445
21
-3.91476
0
LINE
8
BLACK
6
CONTINUOUS
10
6.37445
20
-3.91476
11
6.37426
21
-3.91668
0
LINE
8
BLACK
6
CONTINUOUS
10
6.37426
20
-3.91668
11
6.3737
21
-3.91853
0
LINE
8
BLACK
6
CONTINUOUS
10
6.3737
20
-3.91853
11
6.37279
21
-3.92023
0
LINE
8
BLACK
6
CONTINUOUS
10
6.37279
20
-3.92023
11
6.37157
21
-3.92172
0
LINE
8
BLACK
6
CONTINUOUS
10
6.37157
20
-3.92172
11
6.37007
21
-3.92295
0
LINE
8
BLACK
6
CONTINUOUS
10
6.37007
20
-3.92295
11
6.36837
21
-3.92386
0
LINE
8
BLACK
6
CONTINUOUS
10
6.36837
20
-3.92386
11
6.36653
21
-3.92442
0
LINE
8
BLACK
6
CONTINUOUS
10
6.36653
20
-3.92442
11
6.36461
21
-3.92461
0
LINE
8
BLACK
6
CONTINUOUS
10
6.36461
20
-3.92461
11
6.31539
21
-3.92461
0
LINE
8
BLACK
6
CONTINUOUS
10
6.31539
20
-3.92461
11
6.31347
21
-3.92442
0
LINE
8
BLACK
6
CONTINUOUS
10
6.31347
20
-3.92442
11
6.31163
21
-3.92386
0
LINE
8
BLACK
6
CONTINUOUS
10
6.31163
20
-3.92386
11
6.30993
21
-3.92295
0
LINE
8
BLACK
6
CONTINUOUS
10
6.30993
20
-3.92295
11
6.30843
21
-3.92172
0
LINE
8
BLACK
6
CONTINUOUS
10
6.30843
20
-3.92172
11
6.30721
21
-3.92023
0
LINE
8
BLACK
6
CONTINUOUS
10
6.30721
20
-3.92023
11
6.3063
21
-3.91853
0
LINE
8
BLACK
6
CONTINUOUS
10
6.3063
20
-3.91853
11
6.30574
21
-3.91668
0
LINE
8
BLACK
6
CONTINUOUS
10
6.30574
20
-3.91668
11
6.30555
21
-3.91476
0
LINE
8
BLACK
6
CONTINUOUS
10
6.30555
20
-3.91476
11
6.30555
21
-3.88524
0
LINE
8
BLACK
6
CONTINUOUS
10
6.30555
20
-3.88524
11
6.30574
21
-3.88332
0
LINE
8
BLACK
6
CONTINUOUS
10
6.30574
20
-3.88332
11
6.3063
21
-3.88147
0
LINE
8
BLACK
6
CONTINUOUS
10
6.3063
20
-3.88147
11
6.30721
21
-3.87977
0
LINE
8
BLACK
6
CONTINUOUS
10
6.30721
20
-3.87977
11
6.30843
21
-3.87828
0
LINE
8
BLACK
6
CONTINUOUS
10
6.30843
20
-3.87828
11
6.30993
21
-3.87705
0
LINE
8
BLACK
6
CONTINUOUS
10
6.30993
20
-3.87705
11
6.31163
21
-3.87614
0
LINE
8
BLACK
6
CONTINUOUS
10
6.31163
20
-3.87614
11
6.31347
21
-3.87558
0
LINE
8
BLACK
6
CONTINUOUS
10
6.31347
20
-3.87558
11
6.31539
21
-3.87539
0
LINE
8
BLACK
6
CONTINUOUS
10
6.31539
20
-3.87539
11
6.36461
21
-3.87539
0
LINE
8
BLACK
6
CONTINUOUS
10
6.36461
20
-3.87539
11
6.36653
21
-3.87558
0
LINE
8
BLACK
6
CONTINUOUS
10
6.1485
20
-3.91633
11
6.0925
21
-3.91633
0
LINE
8
BLACK
6
CONTINUOUS
10
6.0925
20
-3.91633
11
6.0925
21
-3.90533
0
LINE
8
BLACK
6
CONTINUOUS
10
6.0925
20
-3.90533
11
6.1485
21
-3.90533
0
LINE
8
BLACK
6
CONTINUOUS
10
6.1485
20
-3.90533
11
6.1485
21
-3.91633
0
LINE
8
BLACK
6
CONTINUOUS
10
5.9775
20
-3.91633
11
5.9215
21
-3.91633
0
LINE
8
BLACK
6
CONTINUOUS
10
5.9215
20
-3.91633
11
5.9215
21
-3.90533
0
LINE
8
BLACK
6
CONTINUOUS
10
5.9215
20
-3.90533
11
5.9775
21
-3.90533
0
LINE
8
BLACK
6
CONTINUOUS
10
5.9775
20
-3.90533
11
5.9775
21
-3.91633
0
LINE
8
BLACK
6
CONTINUOUS
10
6.8025
20
-3.91633
11
6.7465
21
-3.91633
0
LINE
8
BLACK
6
CONTINUOUS
10
6.7465
20
-3.91633
11
6.7465
21
-3.90533
0
LINE
8
BLACK
6
CONTINUOUS
10
6.7465
20
-3.90533
11
6.8025
21
-3.90533
0
LINE
8
BLACK
6
CONTINUOUS
10
6.8025
20
-3.90533
11
6.8025
21
-3.91633
0
LINE
8
BLACK
6
CONTINUOUS
10
6.9735
20
-3.91633
11
6.9175
21
-3.91633
0
LINE
8
BLACK
6
CONTINUOUS
10
6.9175
20
-3.91633
11
6.9175
21
-3.90533
0
LINE
8
BLACK
6
CONTINUOUS
10
6.9175
20
-3.90533
11
6.9735
21
-3.90533
0
LINE
8
BLACK
6
CONTINUOUS
10
6.9735
20
-3.90533
11
6.9735
21
-3.91633
0
LINE
8
BLACK
6
CONTINUOUS
10
5.87147
20
-3.85263
11
5.87327
21
-3.85317
0
LINE
8
BLACK
6
CONTINUOUS
10
5.87327
20
-3.85317
11
5.87493
21
-3.85406
0
LINE
8
BLACK
6
CONTINUOUS
10
5.87493
20
-3.85406
11
5.87638
21
-3.85525
0
LINE
8
BLACK
6
CONTINUOUS
10
5.87638
20
-3.85525
11
5.87758
21
-3.85671
0
LINE
8
BLACK
6
CONTINUOUS
10
5.87758
20
-3.85671
11
5.87846
21
-3.85837
0
LINE
8
BLACK
6
CONTINUOUS
10
5.87846
20
-3.85837
11
5.87901
21
-3.86017
0
LINE
8
BLACK
6
CONTINUOUS
10
5.87901
20
-3.86017
11
5.87919
21
-3.86204
0
LINE
8
BLACK
6
CONTINUOUS
10
5.87919
20
-3.86204
11
5.87919
21
-3.89796
0
LINE
8
BLACK
6
CONTINUOUS
10
5.87919
20
-3.89796
11
5.87901
21
-3.89983
0
LINE
8
BLACK
6
CONTINUOUS
10
5.87901
20
-3.89983
11
5.87846
21
-3.90163
0
LINE
8
BLACK
6
CONTINUOUS
10
5.87846
20
-3.90163
11
5.87758
21
-3.90329
0
LINE
8
BLACK
6
CONTINUOUS
10
5.87758
20
-3.90329
11
5.87638
21
-3.90475
0
LINE
8
BLACK
6
CONTINUOUS
10
5.87638
20
-3.90475
11
5.87493
21
-3.90594
0
LINE
8
BLACK
6
CONTINUOUS
10
5.87493
20
-3.90594
11
5.87327
21
-3.90683
0
LINE
8
BLACK
6
CONTINUOUS
10
5.87327
20
-3.90683
11
5.87147
21
-3.90737
0
LINE
8
BLACK
6
CONTINUOUS
10
5.87147
20
-3.90737
11
5.8696
21
-3.90756
0
LINE
8
BLACK
6
CONTINUOUS
10
5.8696
20
-3.90756
11
5.8504
21
-3.90756
0
LINE
8
BLACK
6
CONTINUOUS
10
5.8504
20
-3.90756
11
5.84853
21
-3.90737
0
LINE
8
BLACK
6
CONTINUOUS
10
5.84853
20
-3.90737
11
5.84673
21
-3.90683
0
LINE
8
BLACK
6
CONTINUOUS
10
5.84673
20
-3.90683
11
5.84507
21
-3.90594
0
LINE
8
BLACK
6
CONTINUOUS
10
5.84507
20
-3.90594
11
5.84362
21
-3.90475
0
LINE
8
BLACK
6
CONTINUOUS
10
5.84362
20
-3.90475
11
5.84242
21
-3.90329
0
LINE
8
BLACK
6
CONTINUOUS
10
5.84242
20
-3.90329
11
5.84154
21
-3.90163
0
LINE
8
BLACK
6
CONTINUOUS
10
5.84154
20
-3.90163
11
5.84099
21
-3.89983
0
LINE
8
BLACK
6
CONTINUOUS
10
5.84099
20
-3.89983
11
5.84081
21
-3.89796
0
LINE
8
BLACK
6
CONTINUOUS
10
5.84081
20
-3.89796
11
5.84081
21
-3.86204
0
LINE
8
BLACK
6
CONTINUOUS
10
5.84081
20
-3.86204
11
5.84099
21
-3.86017
0
LINE
8
BLACK
6
CONTINUOUS
10
5.84099
20
-3.86017
11
5.84154
21
-3.85837
0
LINE
8
BLACK
6
CONTINUOUS
10
5.84154
20
-3.85837
11
5.84242
21
-3.85671
0
LINE
8
BLACK
6
CONTINUOUS
10
5.84242
20
-3.85671
11
5.84362
21
-3.85525
0
LINE
8
BLACK
6
CONTINUOUS
10
5.84362
20
-3.85525
11
5.84507
21
-3.85406
0
LINE
8
BLACK
6
CONTINUOUS
10
5.84507
20
-3.85406
11
5.84673
21
-3.85317
0
LINE
8
BLACK
6
CONTINUOUS
10
5.84673
20
-3.85317
11
5.84853
21
-3.85263
0
LINE
8
BLACK
6
CONTINUOUS
10
5.84853
20
-3.85263
11
5.8504
21
-3.85244
0
LINE
8
BLACK
6
CONTINUOUS
10
5.8504
20
-3.85244
11
5.8696
21
-3.85244
0
LINE
8
BLACK
6
CONTINUOUS
10
5.8696
20
-3.85244
11
5.87147
21
-3.85263
0
LINE
8
BLACK
6
CONTINUOUS
10
5.79765
20
-3.85263
11
5.79945
21
-3.85317
0
LINE
8
BLACK
6
CONTINUOUS
10
5.79945
20
-3.85317
11
5.80111
21
-3.85406
0
LINE
8
BLACK
6
CONTINUOUS
10
5.80111
20
-3.85406
11
5.80256
21
-3.85525
0
LINE
8
BLACK
6
CONTINUOUS
10
5.80256
20
-3.85525
11
5.80376
21
-3.85671
0
LINE
8
BLACK
6
CONTINUOUS
10
5.80376
20
-3.85671
11
5.80464
21
-3.85837
0
LINE
8
BLACK
6
CONTINUOUS
10
5.80464
20
-3.85837
11
5.80519
21
-3.86017
0
LINE
8
BLACK
6
CONTINUOUS
10
5.80519
20
-3.86017
11
5.80537
21
-3.86204
0
LINE
8
BLACK
6
CONTINUOUS
10
5.80537
20
-3.86204
11
5.80537
21
-3.89796
0
LINE
8
BLACK
6
CONTINUOUS
10
5.80537
20
-3.89796
11
5.80519
21
-3.89983
0
LINE
8
BLACK
6
CONTINUOUS
10
5.80519
20
-3.89983
11
5.80464
21
-3.90163
0
LINE
8
BLACK
6
CONTINUOUS
10
5.80464
20
-3.90163
11
5.80376
21
-3.90329
0
LINE
8
BLACK
6
CONTINUOUS
10
5.80376
20
-3.90329
11
5.80256
21
-3.90475
0
LINE
8
BLACK
6
CONTINUOUS
10
5.80256
20
-3.90475
11
5.80111
21
-3.90594
0
LINE
8
BLACK
6
CONTINUOUS
10
5.80111
20
-3.90594
11
5.79945
21
-3.90683
0
LINE
8
BLACK
6
CONTINUOUS
10
5.79945
20
-3.90683
11
5.79765
21
-3.90737
0
LINE
8
BLACK
6
CONTINUOUS
10
5.79765
20
-3.90737
11
5.79578
21
-3.90756
0
LINE
8
BLACK
6
CONTINUOUS
10
5.79578
20
-3.90756
11
5.77658
21
-3.90756
0
LINE
8
BLACK
6
CONTINUOUS
10
5.77658
20
-3.90756
11
5.77471
21
-3.90737
0
LINE
8
BLACK
6
CONTINUOUS
10
5.77471
20
-3.90737
11
5.77291
21
-3.90683
0
LINE
8
BLACK
6
CONTINUOUS
10
5.77291
20
-3.90683
11
5.77125
21
-3.90594
0
LINE
8
BLACK
6
CONTINUOUS
10
5.77125
20
-3.90594
11
5.7698
21
-3.90475
0
LINE
8
BLACK
6
CONTINUOUS
10
5.7698
20
-3.90475
11
5.76861
21
-3.90329
0
LINE
8
BLACK
6
CONTINUOUS
10
5.76861
20
-3.90329
11
5.76772
21
-3.90163
0
LINE
8
BLACK
6
CONTINUOUS
10
5.76772
20
-3.90163
11
5.76717
21
-3.89983
0
LINE
8
BLACK
6
CONTINUOUS
10
5.76717
20
-3.89983
11
5.76699
21
-3.89796
0
LINE
8
BLACK
6
CONTINUOUS
10
5.76699
20
-3.89796
11
5.76699
21
-3.86204
0
LINE
8
BLACK
6
CONTINUOUS
10
5.76699
20
-3.86204
11
5.76717
21
-3.86017
0
LINE
8
BLACK
6
CONTINUOUS
10
5.76717
20
-3.86017
11
5.76772
21
-3.85837
0
LINE
8
BLACK
6
CONTINUOUS
10
5.76772
20
-3.85837
11
5.76861
21
-3.85671
0
LINE
8
BLACK
6
CONTINUOUS
10
5.76861
20
-3.85671
11
5.7698
21
-3.85525
0
LINE
8
BLACK
6
CONTINUOUS
10
5.7698
20
-3.85525
11
5.77125
21
-3.85406
0
LINE
8
BLACK
6
CONTINUOUS
10
5.77125
20
-3.85406
11
5.77291
21
-3.85317
0
LINE
8
BLACK
6
CONTINUOUS
10
5.77291
20
-3.85317
11
5.77471
21
-3.85263
0
LINE
8
BLACK
6
CONTINUOUS
10
5.77471
20
-3.85263
11
5.77658
21
-3.85244
0
LINE
8
BLACK
6
CONTINUOUS
10
5.77658
20
-3.85244
11
5.79578
21
-3.85244
0
LINE
8
BLACK
6
CONTINUOUS
10
5.79578
20
-3.85244
11
5.79765
21
-3.85263
0
LINE
8
BLACK
6
CONTINUOUS
10
5.9775
20
-3.89664
11
5.9215
21
-3.89664
0
LINE
8
BLACK
6
CONTINUOUS
10
5.9215
20
-3.89664
11
5.9215
21
-3.88564
0
LINE
8
BLACK
6
CONTINUOUS
10
5.9215
20
-3.88564
11
5.9775
21
-3.88564
0
LINE
8
BLACK
6
CONTINUOUS
10
5.9775
20
-3.88564
11
5.9775
21
-3.89664
0
LINE
8
BLACK
6
CONTINUOUS
10
6.1485
20
-3.89664
11
6.0925
21
-3.89664
0
LINE
8
BLACK
6
CONTINUOUS
10
6.0925
20
-3.89664
11
6.0925
21
-3.88564
0
LINE
8
BLACK
6
CONTINUOUS
10
6.0925
20
-3.88564
11
6.1485
21
-3.88564
0
LINE
8
BLACK
6
CONTINUOUS
10
6.1485
20
-3.88564
11
6.1485
21
-3.89664
0
LINE
8
BLACK
6
CONTINUOUS
10
6.9735
20
-3.89664
11
6.9175
21
-3.89664
0
LINE
8
BLACK
6
CONTINUOUS
10
6.9175
20
-3.89664
11
6.9175
21
-3.88564
0
LINE
8
BLACK
6
CONTINUOUS
10
6.9175
20
-3.88564
11
6.9735
21
-3.88564
0
LINE
8
BLACK
6
CONTINUOUS
10
6.9735
20
-3.88564
11
6.9735
21
-3.89664
0
LINE
8
BLACK
6
CONTINUOUS
10
6.8025
20
-3.89664
11
6.7465
21
-3.89664
0
LINE
8
BLACK
6
CONTINUOUS
10
6.7465
20
-3.89664
11
6.7465
21
-3.88564
0
LINE
8
BLACK
6
CONTINUOUS
10
6.7465
20
-3.88564
11
6.8025
21
-3.88564
0
LINE
8
BLACK
6
CONTINUOUS
10
6.8025
20
-3.88564
11
6.8025
21
-3.89664
0
LINE
8
BLACK
6
CONTINUOUS
10
5.9775
20
-3.87696
11
5.9215
21
-3.87696
0
LINE
8
BLACK
6
CONTINUOUS
10
5.9215
20
-3.87696
11
5.9215
21
-3.86596
0
LINE
8
BLACK
6
CONTINUOUS
10
5.9215
20
-3.86596
11
5.9775
21
-3.86596
0
LINE
8
BLACK
6
CONTINUOUS
10
5.9775
20
-3.86596
11
5.9775
21
-3.87696
0
LINE
8
BLACK
6
CONTINUOUS
10
6.1485
20
-3.87696
11
6.0925
21
-3.87696
0
LINE
8
BLACK
6
CONTINUOUS
10
6.0925
20
-3.87696
11
6.0925
21
-3.86596
0
LINE
8
BLACK
6
CONTINUOUS
10
6.0925
20
-3.86596
11
6.1485
21
-3.86596
0
LINE
8
BLACK
6
CONTINUOUS
10
6.1485
20
-3.86596
11
6.1485
21
-3.87696
0
LINE
8
BLACK
6
CONTINUOUS
10
6.9735
20
-3.87696
11
6.9175
21
-3.87696
0
LINE
8
BLACK
6
CONTINUOUS
10
6.9175
20
-3.87696
11
6.9175
21
-3.86596
0
LINE
8
BLACK
6
CONTINUOUS
10
6.9175
20
-3.86596
11
6.9735
21
-3.86596
0
LINE
8
BLACK
6
CONTINUOUS
10
6.9735
20
-3.86596
11
6.9735
21
-3.87696
0
LINE
8
BLACK
6
CONTINUOUS
10
6.8025
20
-3.87696
11
6.7465
21
-3.87696
0
LINE
8
BLACK
6
CONTINUOUS
10
6.7465
20
-3.87696
11
6.7465
21
-3.86596
0
LINE
8
BLACK
6
CONTINUOUS
10
6.7465
20
-3.86596
11
6.8025
21
-3.86596
0
LINE
8
BLACK
6
CONTINUOUS
10
6.8025
20
-3.86596
11
6.8025
21
-3.87696
0
LINE
8
BLACK
6
CONTINUOUS
10
6.68983
20
-3.80099
11
6.69163
21
-3.80154
0
LINE
8
BLACK
6
CONTINUOUS
10
6.69163
20
-3.80154
11
6.69329
21
-3.80242
0
LINE
8
BLACK
6
CONTINUOUS
10
6.69329
20
-3.80242
11
6.69475
21
-3.80362
0
LINE
8
BLACK
6
CONTINUOUS
10
6.69475
20
-3.80362
11
6.69594
21
-3.80507
0
LINE
8
BLACK
6
CONTINUOUS
10
6.69594
20
-3.80507
11
6.69683
21
-3.80673
0
LINE
8
BLACK
6
CONTINUOUS
10
6.69683
20
-3.80673
11
6.69737
21
-3.80853
0
LINE
8
BLACK
6
CONTINUOUS
10
6.69737
20
-3.80853
11
6.69756
21
-3.8104
0
LINE
8
BLACK
6
CONTINUOUS
10
6.69756
20
-3.8104
11
6.69756
21
-3.8296
0
LINE
8
BLACK
6
CONTINUOUS
10
6.69756
20
-3.8296
11
6.69737
21
-3.83147
0
LINE
8
BLACK
6
CONTINUOUS
10
6.69737
20
-3.83147
11
6.69683
21
-3.83327
0
LINE
8
BLACK
6
CONTINUOUS
10
6.69683
20
-3.83327
11
6.69594
21
-3.83493
0
LINE
8
BLACK
6
CONTINUOUS
10
6.69594
20
-3.83493
11
6.69475
21
-3.83638
0
LINE
8
BLACK
6
CONTINUOUS
10
6.69475
20
-3.83638
11
6.69329
21
-3.83758
0
LINE
8
BLACK
6
CONTINUOUS
10
6.69329
20
-3.83758
11
6.69163
21
-3.83846
0
LINE
8
BLACK
6
CONTINUOUS
10
6.69163
20
-3.83846
11
6.68983
21
-3.83901
0
LINE
8
BLACK
6
CONTINUOUS
10
6.68983
20
-3.83901
11
6.68796
21
-3.83919
0
LINE
8
BLACK
6
CONTINUOUS
10
6.68796
20
-3.83919
11
6.65204
21
-3.83919
0
LINE
8
BLACK
6
CONTINUOUS
10
6.65204
20
-3.83919
11
6.65017
21
-3.83901
0
LINE
8
BLACK
6
CONTINUOUS
10
6.65017
20
-3.83901
11
6.64837
21
-3.83846
0
LINE
8
BLACK
6
CONTINUOUS
10
6.64837
20
-3.83846
11
6.64671
21
-3.83758
0
LINE
8
BLACK
6
CONTINUOUS
10
6.64671
20
-3.83758
11
6.64525
21
-3.83638
0
LINE
8
BLACK
6
CONTINUOUS
10
6.64525
20
-3.83638
11
6.64406
21
-3.83493
0
LINE
8
BLACK
6
CONTINUOUS
10
6.64406
20
-3.83493
11
6.64317
21
-3.83327
0
LINE
8
BLACK
6
CONTINUOUS
10
6.64317
20
-3.83327
11
6.64263
21
-3.83147
0
LINE
8
BLACK
6
CONTINUOUS
10
6.64263
20
-3.83147
11
6.64244
21
-3.8296
0
LINE
8
BLACK
6
CONTINUOUS
10
6.64244
20
-3.8296
11
6.64244
21
-3.8104
0
LINE
8
BLACK
6
CONTINUOUS
10
6.64244
20
-3.8104
11
6.64263
21
-3.80853
0
LINE
8
BLACK
6
CONTINUOUS
10
6.64263
20
-3.80853
11
6.64317
21
-3.80673
0
LINE
8
BLACK
6
CONTINUOUS
10
6.64317
20
-3.80673
11
6.64406
21
-3.80507
0
LINE
8
BLACK
6
CONTINUOUS
10
6.64406
20
-3.80507
11
6.64525
21
-3.80362
0
LINE
8
BLACK
6
CONTINUOUS
10
6.64525
20
-3.80362
11
6.64671
21
-3.80242
0
LINE
8
BLACK
6
CONTINUOUS
10
6.64671
20
-3.80242
11
6.64837
21
-3.80154
0
LINE
8
BLACK
6
CONTINUOUS
10
6.64837
20
-3.80154
11
6.65017
21
-3.80099
0
LINE
8
BLACK
6
CONTINUOUS
10
6.65017
20
-3.80099
11
6.65204
21
-3.80081
0
LINE
8
BLACK
6
CONTINUOUS
10
6.65204
20
-3.80081
11
6.68796
21
-3.80081
0
LINE
8
BLACK
6
CONTINUOUS
10
6.68796
20
-3.80081
11
6.68983
21
-3.80099
0
LINE
8
BLACK
6
CONTINUOUS
10
6.36653
20
-3.76535
11
6.36837
21
-3.76591
0
LINE
8
BLACK
6
CONTINUOUS
10
6.36837
20
-3.76591
11
6.37007
21
-3.76682
0
LINE
8
BLACK
6
CONTINUOUS
10
6.37007
20
-3.76682
11
6.37157
21
-3.76804
0
LINE
8
BLACK
6
CONTINUOUS
10
6.37157
20
-3.76804
11
6.37279
21
-3.76953
0
LINE
8
BLACK
6
CONTINUOUS
10
6.37279
20
-3.76953
11
6.3737
21
-3.77123
0
LINE
8
BLACK
6
CONTINUOUS
10
6.3737
20
-3.77123
11
6.37426
21
-3.77308
0
LINE
8
BLACK
6
CONTINUOUS
10
6.37426
20
-3.77308
11
6.37445
21
-3.775
0
LINE
8
BLACK
6
CONTINUOUS
10
6.37445
20
-3.775
11
6.37445
21
-3.80453
0
LINE
8
BLACK
6
CONTINUOUS
10
6.37445
20
-3.80453
11
6.37426
21
-3.80645
0
LINE
8
BLACK
6
CONTINUOUS
10
6.37426
20
-3.80645
11
6.3737
21
-3.80829
0
LINE
8
BLACK
6
CONTINUOUS
10
6.3737
20
-3.80829
11
6.37279
21
-3.81
0
LINE
8
BLACK
6
CONTINUOUS
10
6.37279
20
-3.81
11
6.37157
21
-3.81149
0
LINE
8
BLACK
6
CONTINUOUS
10
6.37157
20
-3.81149
11
6.37007
21
-3.81271
0
LINE
8
BLACK
6
CONTINUOUS
10
6.37007
20
-3.81271
11
6.36837
21
-3.81362
0
LINE
8
BLACK
6
CONTINUOUS
10
6.36837
20
-3.81362
11
6.36653
21
-3.81418
0
LINE
8
BLACK
6
CONTINUOUS
10
6.36653
20
-3.81418
11
6.36461
21
-3.81437
0
LINE
8
BLACK
6
CONTINUOUS
10
6.36461
20
-3.81437
11
6.31539
21
-3.81437
0
LINE
8
BLACK
6
CONTINUOUS
10
6.31539
20
-3.81437
11
6.31347
21
-3.81418
0
LINE
8
BLACK
6
CONTINUOUS
10
6.31347
20
-3.81418
11
6.31163
21
-3.81362
0
LINE
8
BLACK
6
CONTINUOUS
10
6.31163
20
-3.81362
11
6.30993
21
-3.81271
0
LINE
8
BLACK
6
CONTINUOUS
10
6.30993
20
-3.81271
11
6.30843
21
-3.81149
0
LINE
8
BLACK
6
CONTINUOUS
10
6.30843
20
-3.81149
11
6.30721
21
-3.81
0
LINE
8
BLACK
6
CONTINUOUS
10
6.30721
20
-3.81
11
6.3063
21
-3.80829
0
LINE
8
BLACK
6
CONTINUOUS
10
6.3063
20
-3.80829
11
6.30574
21
-3.80645
0
LINE
8
BLACK
6
CONTINUOUS
10
6.30574
20
-3.80645
11
6.30555
21
-3.80453
0
LINE
8
BLACK
6
CONTINUOUS
10
6.30555
20
-3.80453
11
6.30555
21
-3.775
0
LINE
8
BLACK
6
CONTINUOUS
10
6.30555
20
-3.775
11
6.30574
21
-3.77308
0
LINE
8
BLACK
6
CONTINUOUS
10
6.30574
20
-3.77308
11
6.3063
21
-3.77123
0
LINE
8
BLACK
6
CONTINUOUS
10
6.3063
20
-3.77123
11
6.30721
21
-3.76953
0
LINE
8
BLACK
6
CONTINUOUS
10
6.30721
20
-3.76953
11
6.30843
21
-3.76804
0
LINE
8
BLACK
6
CONTINUOUS
10
6.30843
20
-3.76804
11
6.30993
21
-3.76682
0
LINE
8
BLACK
6
CONTINUOUS
10
6.30993
20
-3.76682
11
6.31163
21
-3.76591
0
LINE
8
BLACK
6
CONTINUOUS
10
6.31163
20
-3.76591
11
6.31347
21
-3.76535
0
LINE
8
BLACK
6
CONTINUOUS
10
6.31347
20
-3.76535
11
6.31539
21
-3.76516
0
LINE
8
BLACK
6
CONTINUOUS
10
6.31539
20
-3.76516
11
6.36461
21
-3.76516
0
LINE
8
BLACK
6
CONTINUOUS
10
6.36461
20
-3.76516
11
6.36653
21
-3.76535
0
LINE
8
BLACK
6
CONTINUOUS
10
6.68983
20
-3.72717
11
6.69163
21
-3.72772
0
LINE
8
BLACK
6
CONTINUOUS
10
6.69163
20
-3.72772
11
6.69329
21
-3.72861
0
LINE
8
BLACK
6
CONTINUOUS
10
6.69329
20
-3.72861
11
6.69475
21
-3.7298
0
LINE
8
BLACK
6
CONTINUOUS
10
6.69475
20
-3.7298
11
6.69594
21
-3.73125
0
LINE
8
BLACK
6
CONTINUOUS
10
6.69594
20
-3.73125
11
6.69683
21
-3.73291
0
LINE
8
BLACK
6
CONTINUOUS
10
6.69683
20
-3.73291
11
6.69737
21
-3.73471
0
LINE
8
BLACK
6
CONTINUOUS
10
6.69737
20
-3.73471
11
6.69756
21
-3.73658
0
LINE
8
BLACK
6
CONTINUOUS
10
6.69756
20
-3.73658
11
6.69756
21
-3.75578
0
LINE
8
BLACK
6
CONTINUOUS
10
6.69756
20
-3.75578
11
6.69737
21
-3.75765
0
LINE
8
BLACK
6
CONTINUOUS
10
6.69737
20
-3.75765
11
6.69683
21
-3.75945
0
LINE
8
BLACK
6
CONTINUOUS
10
6.69683
20
-3.75945
11
6.69594
21
-3.76111
0
LINE
8
BLACK
6
CONTINUOUS
10
6.69594
20
-3.76111
11
6.69475
21
-3.76256
0
LINE
8
BLACK
6
CONTINUOUS
10
6.69475
20
-3.76256
11
6.69329
21
-3.76376
0
LINE
8
BLACK
6
CONTINUOUS
10
6.69329
20
-3.76376
11
6.69163
21
-3.76464
0
LINE
8
BLACK
6
CONTINUOUS
10
6.69163
20
-3.76464
11
6.68983
21
-3.76519
0
LINE
8
BLACK
6
CONTINUOUS
10
6.68983
20
-3.76519
11
6.68796
21
-3.76537
0
LINE
8
BLACK
6
CONTINUOUS
10
6.68796
20
-3.76537
11
6.65204
21
-3.76537
0
LINE
8
BLACK
6
CONTINUOUS
10
6.65204
20
-3.76537
11
6.65017
21
-3.76519
0
LINE
8
BLACK
6
CONTINUOUS
10
6.65017
20
-3.76519
11
6.64837
21
-3.76464
0
LINE
8
BLACK
6
CONTINUOUS
10
6.64837
20
-3.76464
11
6.64671
21
-3.76376
0
LINE
8
BLACK
6
CONTINUOUS
10
6.64671
20
-3.76376
11
6.64525
21
-3.76256
0
LINE
8
BLACK
6
CONTINUOUS
10
6.64525
20
-3.76256
11
6.64406
21
-3.76111
0
LINE
8
BLACK
6
CONTINUOUS
10
6.64406
20
-3.76111
11
6.64317
21
-3.75945
0
LINE
8
BLACK
6
CONTINUOUS
10
6.64317
20
-3.75945
11
6.64263
21
-3.75765
0
LINE
8
BLACK
6
CONTINUOUS
10
6.64263
20
-3.75765
11
6.64244
21
-3.75578
0
LINE
8
BLACK
6
CONTINUOUS
10
6.64244
20
-3.75578
11
6.64244
21
-3.73658
0
LINE
8
BLACK
6
CONTINUOUS
10
6.64244
20
-3.73658
11
6.64263
21
-3.73471
0
LINE
8
BLACK
6
CONTINUOUS
10
6.64263
20
-3.73471
11
6.64317
21
-3.73291
0
LINE
8
BLACK
6
CONTINUOUS
10
6.64317
20
-3.73291
11
6.64406
21
-3.73125
0
LINE
8
BLACK
6
CONTINUOUS
10
6.64406
20
-3.73125
11
6.64525
21
-3.7298
0
LINE
8
BLACK
6
CONTINUOUS
10
6.64525
20
-3.7298
11
6.64671
21
-3.72861
0
LINE
8
BLACK
6
CONTINUOUS
10
6.64671
20
-3.72861
11
6.64837
21
-3.72772
0
LINE
8
BLACK
6
CONTINUOUS
10
6.64837
20
-3.72772
11
6.65017
21
-3.72717
0
LINE
8
BLACK
6
CONTINUOUS
10
6.65017
20
-3.72717
11
6.65204
21
-3.72699
0
LINE
8
BLACK
6
CONTINUOUS
10
6.65204
20
-3.72699
11
6.68796
21
-3.72699
0
LINE
8
BLACK
6
CONTINUOUS
10
6.68796
20
-3.72699
11
6.68983
21
-3.72717
0
LINE
8
BLACK
6
CONTINUOUS
10
5.50862
20
-3.66161
11
5.42791
21
-3.66161
0
LINE
8
BLACK
6
CONTINUOUS
10
5.42791
20
-3.66161
11
5.42791
21
-3.63839
0
LINE
8
BLACK
6
CONTINUOUS
10
5.42791
20
-3.63839
11
5.50862
21
-3.63839
0
LINE
8
BLACK
6
CONTINUOUS
10
5.50862
20
-3.63839
11
5.50862
21
-3.66161
0
LINE
8
BLACK
6
CONTINUOUS
10
5.14209
20
-3.66161
11
5.06138
21
-3.66161
0
LINE
8
BLACK
6
CONTINUOUS
10
5.06138
20
-3.66161
11
5.06138
21
-3.63839
0
LINE
8
BLACK
6
CONTINUOUS
10
5.06138
20
-3.63839
11
5.14209
21
-3.63839
0
LINE
8
BLACK
6
CONTINUOUS
10
5.14209
20
-3.63839
11
5.14209
21
-3.66161
0
LINE
8
BLACK
6
CONTINUOUS
10
7.26653
20
-3.6007
11
7.26837
21
-3.60126
0
LINE
8
BLACK
6
CONTINUOUS
10
7.26837
20
-3.60126
11
7.27007
21
-3.60217
0
LINE
8
BLACK
6
CONTINUOUS
10
7.27007
20
-3.60217
11
7.27157
21
-3.60339
0
LINE
8
BLACK
6
CONTINUOUS
10
7.27157
20
-3.60339
11
7.27279
21
-3.60489
0
LINE
8
BLACK
6
CONTINUOUS
10
7.27279
20
-3.60489
11
7.2737
21
-3.60659
0
LINE
8
BLACK
6
CONTINUOUS
10
7.2737
20
-3.60659
11
7.27426
21
-3.60843
0
LINE
8
BLACK
6
CONTINUOUS
10
7.27426
20
-3.60843
11
7.27445
21
-3.61035
0
LINE
8
BLACK
6
CONTINUOUS
10
7.27445
20
-3.61035
11
7.27445
21
-3.63988
0
LINE
8
BLACK
6
CONTINUOUS
10
7.27445
20
-3.63988
11
7.27426
21
-3.6418
0
LINE
8
BLACK
6
CONTINUOUS
10
7.27426
20
-3.6418
11
7.2737
21
-3.64365
0
LINE
8
BLACK
6
CONTINUOUS
10
7.2737
20
-3.64365
11
7.27279
21
-3.64535
0
LINE
8
BLACK
6
CONTINUOUS
10
7.27279
20
-3.64535
11
7.27157
21
-3.64684
0
LINE
8
BLACK
6
CONTINUOUS
10
7.27157
20
-3.64684
11
7.27007
21
-3.64807
0
LINE
8
BLACK
6
CONTINUOUS
10
7.27007
20
-3.64807
11
7.26837
21
-3.64898
0
LINE
8
BLACK
6
CONTINUOUS
10
7.26837
20
-3.64898
11
7.26653
21
-3.64954
0
LINE
8
BLACK
6
CONTINUOUS
10
7.26653
20
-3.64954
11
7.26461
21
-3.64972
0
LINE
8
BLACK
6
CONTINUOUS
10
7.26461
20
-3.64972
11
7.21539
21
-3.64972
0
LINE
8
BLACK
6
CONTINUOUS
10
7.21539
20
-3.64972
11
7.21347
21
-3.64954
0
LINE
8
BLACK
6
CONTINUOUS
10
7.21347
20
-3.64954
11
7.21163
21
-3.64898
0
LINE
8
BLACK
6
CONTINUOUS
10
7.21163
20
-3.64898
11
7.20993
21
-3.64807
0
LINE
8
BLACK
6
CONTINUOUS
10
7.20993
20
-3.64807
11
7.20843
21
-3.64684
0
LINE
8
BLACK
6
CONTINUOUS
10
7.20843
20
-3.64684
11
7.20721
21
-3.64535
0
LINE
8
BLACK
6
CONTINUOUS
10
7.20721
20
-3.64535
11
7.2063
21
-3.64365
0
LINE
8
BLACK
6
CONTINUOUS
10
7.2063
20
-3.64365
11
7.20574
21
-3.6418
0
LINE
8
BLACK
6
CONTINUOUS
10
7.20574
20
-3.6418
11
7.20555
21
-3.63988
0
LINE
8
BLACK
6
CONTINUOUS
10
7.20555
20
-3.63988
11
7.20555
21
-3.61035
0
LINE
8
BLACK
6
CONTINUOUS
10
7.20555
20
-3.61035
11
7.20574
21
-3.60843
0
LINE
8
BLACK
6
CONTINUOUS
10
7.20574
20
-3.60843
11
7.2063
21
-3.60659
0
LINE
8
BLACK
6
CONTINUOUS
10
7.2063
20
-3.60659
11
7.20721
21
-3.60489
0
LINE
8
BLACK
6
CONTINUOUS
10
7.20721
20
-3.60489
11
7.20843
21
-3.60339
0
LINE
8
BLACK
6
CONTINUOUS
10
7.20843
20
-3.60339
11
7.20993
21
-3.60217
0
LINE
8
BLACK
6
CONTINUOUS
10
7.20993
20
-3.60217
11
7.21163
21
-3.60126
0
LINE
8
BLACK
6
CONTINUOUS
10
7.21163
20
-3.60126
11
7.21347
21
-3.6007
0
LINE
8
BLACK
6
CONTINUOUS
10
7.21347
20
-3.6007
11
7.21539
21
-3.60051
0
LINE
8
BLACK
6
CONTINUOUS
10
7.21539
20
-3.60051
11
7.26461
21
-3.60051
0
LINE
8
BLACK
6
CONTINUOUS
10
7.26461
20
-3.60051
11
7.26653
21
-3.6007
0
LINE
8
BLACK
6
CONTINUOUS
10
5.50862
20
-3.61161
11
5.42791
21
-3.61161
0
LINE
8
BLACK
6
CONTINUOUS
10
5.42791
20
-3.61161
11
5.42791
21
-3.58839
0
LINE
8
BLACK
6
CONTINUOUS
10
5.42791
20
-3.58839
11
5.50862
21
-3.58839
0
LINE
8
BLACK
6
CONTINUOUS
10
5.50862
20
-3.58839
11
5.50862
21
-3.61161
0
LINE
8
BLACK
6
CONTINUOUS
10
5.14209
20
-3.61161
11
5.06138
21
-3.61161
0
LINE
8
BLACK
6
CONTINUOUS
10
5.06138
20
-3.61161
11
5.06138
21
-3.58839
0
LINE
8
BLACK
6
CONTINUOUS
10
5.06138
20
-3.58839
11
5.14209
21
-3.58839
0
LINE
8
BLACK
6
CONTINUOUS
10
5.14209
20
-3.58839
11
5.14209
21
-3.61161
0
LINE
8
BLACK
6
CONTINUOUS
10
5.50862
20
-3.56161
11
5.42791
21
-3.56161
0
LINE
8
BLACK
6
CONTINUOUS
10
5.42791
20
-3.56161
11
5.42791
21
-3.53839
0
LINE
8
BLACK
6
CONTINUOUS
10
5.42791
20
-3.53839
11
5.50862
21
-3.53839
0
LINE
8
BLACK
6
CONTINUOUS
10
5.50862
20
-3.53839
11
5.50862
21
-3.56161
0
LINE
8
BLACK
6
CONTINUOUS
10
5.14209
20
-3.56161
11
5.06138
21
-3.56161
0
LINE
8
BLACK
6
CONTINUOUS
10
5.06138
20
-3.56161
11
5.06138
21
-3.53839
0
LINE
8
BLACK
6
CONTINUOUS
10
5.06138
20
-3.53839
11
5.14209
21
-3.53839
0
LINE
8
BLACK
6
CONTINUOUS
10
5.14209
20
-3.53839
11
5.14209
21
-3.56161
0
LINE
8
BLACK
6
CONTINUOUS
10
6.56653
20
-3.50558
11
6.56837
21
-3.50614
0
LINE
8
BLACK
6
CONTINUOUS
10
6.56837
20
-3.50614
11
6.57007
21
-3.50705
0
LINE
8
BLACK
6
CONTINUOUS
10
6.57007
20
-3.50705
11
6.57157
21
-3.50828
0
LINE
8
BLACK
6
CONTINUOUS
10
6.57157
20
-3.50828
11
6.57279
21
-3.50977
0
LINE
8
BLACK
6
CONTINUOUS
10
6.57279
20
-3.50977
11
6.5737
21
-3.51147
0
LINE
8
BLACK
6
CONTINUOUS
10
6.5737
20
-3.51147
11
6.57426
21
-3.51332
0
LINE
8
BLACK
6
CONTINUOUS
10
6.57426
20
-3.51332
11
6.57445
21
-3.51524
0
LINE
8
BLACK
6
CONTINUOUS
10
6.57445
20
-3.51524
11
6.57445
21
-3.54476
0
LINE
8
BLACK
6
CONTINUOUS
10
6.57445
20
-3.54476
11
6.57426
21
-3.54668
0
LINE
8
BLACK
6
CONTINUOUS
10
6.57426
20
-3.54668
11
6.5737
21
-3.54853
0
LINE
8
BLACK
6
CONTINUOUS
10
6.5737
20
-3.54853
11
6.57279
21
-3.55023
0
LINE
8
BLACK
6
CONTINUOUS
10
6.57279
20
-3.55023
11
6.57157
21
-3.55172
0
LINE
8
BLACK
6
CONTINUOUS
10
6.57157
20
-3.55172
11
6.57007
21
-3.55295
0
LINE
8
BLACK
6
CONTINUOUS
10
6.57007
20
-3.55295
11
6.56837
21
-3.55386
0
LINE
8
BLACK
6
CONTINUOUS
10
6.56837
20
-3.55386
11
6.56653
21
-3.55442
0
LINE
8
BLACK
6
CONTINUOUS
10
6.56653
20
-3.55442
11
6.56461
21
-3.55461
0
LINE
8
BLACK
6
CONTINUOUS
10
6.56461
20
-3.55461
11
6.51539
21
-3.55461
0
LINE
8
BLACK
6
CONTINUOUS
10
6.51539
20
-3.55461
11
6.51347
21
-3.55442
0
LINE
8
BLACK
6
CONTINUOUS
10
6.51347
20
-3.55442
11
6.51163
21
-3.55386
0
LINE
8
BLACK
6
CONTINUOUS
10
6.51163
20
-3.55386
11
6.50993
21
-3.55295
0
LINE
8
BLACK
6
CONTINUOUS
10
6.50993
20
-3.55295
11
6.50843
21
-3.55172
0
LINE
8
BLACK
6
CONTINUOUS
10
6.50843
20
-3.55172
11
6.50721
21
-3.55023
0
LINE
8
BLACK
6
CONTINUOUS
10
6.50721
20
-3.55023
11
6.5063
21
-3.54853
0
LINE
8
BLACK
6
CONTINUOUS
10
6.5063
20
-3.54853
11
6.50574
21
-3.54668
0
LINE
8
BLACK
6
CONTINUOUS
10
6.50574
20
-3.54668
11
6.50555
21
-3.54476
0
LINE
8
BLACK
6
CONTINUOUS
10
6.50555
20
-3.54476
11
6.50555
21
-3.51524
0
LINE
8
BLACK
6
CONTINUOUS
10
6.50555
20
-3.51524
11
6.50574
21
-3.51332
0
LINE
8
BLACK
6
CONTINUOUS
10
6.50574
20
-3.51332
11
6.5063
21
-3.51147
0
LINE
8
BLACK
6
CONTINUOUS
10
6.5063
20
-3.51147
11
6.50721
21
-3.50977
0
LINE
8
BLACK
6
CONTINUOUS
10
6.50721
20
-3.50977
11
6.50843
21
-3.50828
0
LINE
8
BLACK
6
CONTINUOUS
10
6.50843
20
-3.50828
11
6.50993
21
-3.50705
0
LINE
8
BLACK
6
CONTINUOUS
10
6.50993
20
-3.50705
11
6.51163
21
-3.50614
0
LINE
8
BLACK
6
CONTINUOUS
10
6.51163
20
-3.50614
11
6.51347
21
-3.50558
0
LINE
8
BLACK
6
CONTINUOUS
10
6.51347
20
-3.50558
11
6.51539
21
-3.50539
0
LINE
8
BLACK
6
CONTINUOUS
10
6.51539
20
-3.50539
11
6.56461
21
-3.50539
0
LINE
8
BLACK
6
CONTINUOUS
10
6.56461
20
-3.50539
11
6.56653
21
-3.50558
0
LINE
8
BLACK
6
CONTINUOUS
10
6.16653
20
-3.49582
11
6.16837
21
-3.49638
0
LINE
8
BLACK
6
CONTINUOUS
10
6.16837
20
-3.49638
11
6.17007
21
-3.49729
0
LINE
8
BLACK
6
CONTINUOUS
10
6.17007
20
-3.49729
11
6.17157
21
-3.49851
0
LINE
8
BLACK
6
CONTINUOUS
10
6.17157
20
-3.49851
11
6.17279
21
-3.5
0
LINE
8
BLACK
6
CONTINUOUS
10
6.17279
20
-3.5
11
6.1737
21
-3.50171
0
LINE
8
BLACK
6
CONTINUOUS
10
6.1737
20
-3.50171
11
6.17426
21
-3.50355
0
LINE
8
BLACK
6
CONTINUOUS
10
6.17426
20
-3.50355
11
6.17445
21
-3.50547
0
LINE
8
BLACK
6
CONTINUOUS
10
6.17445
20
-3.50547
11
6.17445
21
-3.535
0
LINE
8
BLACK
6
CONTINUOUS
10
6.17445
20
-3.535
11
6.17426
21
-3.53692
0
LINE
8
BLACK
6
CONTINUOUS
10
6.17426
20
-3.53692
11
6.1737
21
-3.53877
0
LINE
8
BLACK
6
CONTINUOUS
10
6.1737
20
-3.53877
11
6.17279
21
-3.54047
0
LINE
8
BLACK
6
CONTINUOUS
10
6.17279
20
-3.54047
11
6.17157
21
-3.54196
0
LINE
8
BLACK
6
CONTINUOUS
10
6.17157
20
-3.54196
11
6.17007
21
-3.54318
0
LINE
8
BLACK
6
CONTINUOUS
10
6.17007
20
-3.54318
11
6.16837
21
-3.54409
0
LINE
8
BLACK
6
CONTINUOUS
10
6.16837
20
-3.54409
11
6.16653
21
-3.54465
0
LINE
8
BLACK
6
CONTINUOUS
10
6.16653
20
-3.54465
11
6.16461
21
-3.54484
0
LINE
8
BLACK
6
CONTINUOUS
10
6.16461
20
-3.54484
11
6.11539
21
-3.54484
0
LINE
8
BLACK
6
CONTINUOUS
10
6.11539
20
-3.54484
11
6.11347
21
-3.54465
0
LINE
8
BLACK
6
CONTINUOUS
10
6.11347
20
-3.54465
11
6.11163
21
-3.54409
0
LINE
8
BLACK
6
CONTINUOUS
10
6.11163
20
-3.54409
11
6.10993
21
-3.54318
0
LINE
8
BLACK
6
CONTINUOUS
10
6.10993
20
-3.54318
11
6.10843
21
-3.54196
0
LINE
8
BLACK
6
CONTINUOUS
10
6.10843
20
-3.54196
11
6.10721
21
-3.54047
0
LINE
8
BLACK
6
CONTINUOUS
10
6.10721
20
-3.54047
11
6.1063
21
-3.53877
0
LINE
8
BLACK
6
CONTINUOUS
10
6.1063
20
-3.53877
11
6.10574
21
-3.53692
0
LINE
8
BLACK
6
CONTINUOUS
10
6.10574
20
-3.53692
11
6.10555
21
-3.535
0
LINE
8
BLACK
6
CONTINUOUS
10
6.10555
20
-3.535
11
6.10555
21
-3.50547
0
LINE
8
BLACK
6
CONTINUOUS
10
6.10555
20
-3.50547
11
6.10574
21
-3.50355
0
LINE
8
BLACK
6
CONTINUOUS
10
6.10574
20
-3.50355
11
6.1063
21
-3.50171
0
LINE
8
BLACK
6
CONTINUOUS
10
6.1063
20
-3.50171
11
6.10721
21
-3.5
0
LINE
8
BLACK
6
CONTINUOUS
10
6.10721
20
-3.5
11
6.10843
21
-3.49851
0
LINE
8
BLACK
6
CONTINUOUS
10
6.10843
20
-3.49851
11
6.10993
21
-3.49729
0
LINE
8
BLACK
6
CONTINUOUS
10
6.10993
20
-3.49729
11
6.11163
21
-3.49638
0
LINE
8
BLACK
6
CONTINUOUS
10
6.11163
20
-3.49638
11
6.11347
21
-3.49582
0
LINE
8
BLACK
6
CONTINUOUS
10
6.11347
20
-3.49582
11
6.11539
21
-3.49563
0
LINE
8
BLACK
6
CONTINUOUS
10
6.11539
20
-3.49563
11
6.16461
21
-3.49563
0
LINE
8
BLACK
6
CONTINUOUS
10
6.16461
20
-3.49563
11
6.16653
21
-3.49582
0
LINE
8
BLACK
6
CONTINUOUS
10
7.26653
20
-3.49046
11
7.26837
21
-3.49102
0
LINE
8
BLACK
6
CONTINUOUS
10
7.26837
20
-3.49102
11
7.27007
21
-3.49193
0
LINE
8
BLACK
6
CONTINUOUS
10
7.27007
20
-3.49193
11
7.27157
21
-3.49316
0
LINE
8
BLACK
6
CONTINUOUS
10
7.27157
20
-3.49316
11
7.27279
21
-3.49465
0
LINE
8
BLACK
6
CONTINUOUS
10
7.27279
20
-3.49465
11
7.2737
21
-3.49635
0
LINE
8
BLACK
6
CONTINUOUS
10
7.2737
20
-3.49635
11
7.27426
21
-3.4982
0
LINE
8
BLACK
6
CONTINUOUS
10
7.27426
20
-3.4982
11
7.27445
21
-3.50012
0
LINE
8
BLACK
6
CONTINUOUS
10
7.27445
20
-3.50012
11
7.27445
21
-3.52965
0
LINE
8
BLACK
6
CONTINUOUS
10
7.27445
20
-3.52965
11
7.27426
21
-3.53157
0
LINE
8
BLACK
6
CONTINUOUS
10
7.27426
20
-3.53157
11
7.2737
21
-3.53341
0
LINE
8
BLACK
6
CONTINUOUS
10
7.2737
20
-3.53341
11
7.27279
21
-3.53511
0
LINE
8
BLACK
6
CONTINUOUS
10
7.27279
20
-3.53511
11
7.27157
21
-3.53661
0
LINE
8
BLACK
6
CONTINUOUS
10
7.27157
20
-3.53661
11
7.27007
21
-3.53783
0
LINE
8
BLACK
6
CONTINUOUS
10
7.27007
20
-3.53783
11
7.26837
21
-3.53874
0
LINE
8
BLACK
6
CONTINUOUS
10
7.26837
20
-3.53874
11
7.26653
21
-3.5393
0
LINE
8
BLACK
6
CONTINUOUS
10
7.26653
20
-3.5393
11
7.26461
21
-3.53949
0
LINE
8
BLACK
6
CONTINUOUS
10
7.26461
20
-3.53949
11
7.21539
21
-3.53949
0
LINE
8
BLACK
6
CONTINUOUS
10
7.21539
20
-3.53949
11
7.21347
21
-3.5393
0
LINE
8
BLACK
6
CONTINUOUS
10
7.21347
20
-3.5393
11
7.21163
21
-3.53874
0
LINE
8
BLACK
6
CONTINUOUS
10
7.21163
20
-3.53874
11
7.20993
21
-3.53783
0
LINE
8
BLACK
6
CONTINUOUS
10
7.20993
20
-3.53783
11
7.20843
21
-3.53661
0
LINE
8
BLACK
6
CONTINUOUS
10
7.20843
20
-3.53661
11
7.20721
21
-3.53511
0
LINE
8
BLACK
6
CONTINUOUS
10
7.20721
20
-3.53511
11
7.2063
21
-3.53341
0
LINE
8
BLACK
6
CONTINUOUS
10
7.2063
20
-3.53341
11
7.20574
21
-3.53157
0
LINE
8
BLACK
6
CONTINUOUS
10
7.20574
20
-3.53157
11
7.20555
21
-3.52965
0
LINE
8
BLACK
6
CONTINUOUS
10
7.20555
20
-3.52965
11
7.20555
21
-3.50012
0
LINE
8
BLACK
6
CONTINUOUS
10
7.20555
20
-3.50012
11
7.20574
21
-3.4982
0
LINE
8
BLACK
6
CONTINUOUS
10
7.20574
20
-3.4982
11
7.2063
21
-3.49635
0
LINE
8
BLACK
6
CONTINUOUS
10
7.2063
20
-3.49635
11
7.20721
21
-3.49465
0
LINE
8
BLACK
6
CONTINUOUS
10
7.20721
20
-3.49465
11
7.20843
21
-3.49316
0
LINE
8
BLACK
6
CONTINUOUS
10
7.20843
20
-3.49316
11
7.20993
21
-3.49193
0
LINE
8
BLACK
6
CONTINUOUS
10
7.20993
20
-3.49193
11
7.21163
21
-3.49102
0
LINE
8
BLACK
6
CONTINUOUS
10
7.21163
20
-3.49102
11
7.21347
21
-3.49046
0
LINE
8
BLACK
6
CONTINUOUS
10
7.21347
20
-3.49046
11
7.21539
21
-3.49028
0
LINE
8
BLACK
6
CONTINUOUS
10
7.21539
20
-3.49028
11
7.26461
21
-3.49028
0
LINE
8
BLACK
6
CONTINUOUS
10
7.26461
20
-3.49028
11
7.26653
21
-3.49046
0
LINE
8
BLACK
6
CONTINUOUS
10
7.05653
20
-3.48582
11
7.05837
21
-3.48638
0
LINE
8
BLACK
6
CONTINUOUS
10
7.05837
20
-3.48638
11
7.06007
21
-3.48729
0
LINE
8
BLACK
6
CONTINUOUS
10
7.06007
20
-3.48729
11
7.06157
21
-3.48851
0
LINE
8
BLACK
6
CONTINUOUS
10
7.06157
20
-3.48851
11
7.06279
21
-3.49
0
LINE
8
BLACK
6
CONTINUOUS
10
7.06279
20
-3.49
11
7.0637
21
-3.49171
0
LINE
8
BLACK
6
CONTINUOUS
10
7.0637
20
-3.49171
11
7.06426
21
-3.49355
0
LINE
8
BLACK
6
CONTINUOUS
10
7.06426
20
-3.49355
11
7.06445
21
-3.49547
0
LINE
8
BLACK
6
CONTINUOUS
10
7.06445
20
-3.49547
11
7.06445
21
-3.525
0
LINE
8
BLACK
6
CONTINUOUS
10
7.06445
20
-3.525
11
7.06426
21
-3.52692
0
LINE
8
BLACK
6
CONTINUOUS
10
7.06426
20
-3.52692
11
7.0637
21
-3.52877
0
LINE
8
BLACK
6
CONTINUOUS
10
7.0637
20
-3.52877
11
7.06279
21
-3.53047
0
LINE
8
BLACK
6
CONTINUOUS
10
7.06279
20
-3.53047
11
7.06157
21
-3.53196
0
LINE
8
BLACK
6
CONTINUOUS
10
7.06157
20
-3.53196
11
7.06007
21
-3.53318
0
LINE
8
BLACK
6
CONTINUOUS
10
7.06007
20
-3.53318
11
7.05837
21
-3.53409
0
LINE
8
BLACK
6
CONTINUOUS
10
7.05837
20
-3.53409
11
7.05653
21
-3.53465
0
LINE
8
BLACK
6
CONTINUOUS
10
7.05653
20
-3.53465
11
7.05461
21
-3.53484
0
LINE
8
BLACK
6
CONTINUOUS
10
7.05461
20
-3.53484
11
7.00539
21
-3.53484
0
LINE
8
BLACK
6
CONTINUOUS
10
7.00539
20
-3.53484
11
7.00347
21
-3.53465
0
LINE
8
BLACK
6
CONTINUOUS
10
7.00347
20
-3.53465
11
7.00163
21
-3.53409
0
LINE
8
BLACK
6
CONTINUOUS
10
7.00163
20
-3.53409
11
6.99993
21
-3.53318
0
LINE
8
BLACK
6
CONTINUOUS
10
6.99993
20
-3.53318
11
6.99843
21
-3.53196
0
LINE
8
BLACK
6
CONTINUOUS
10
6.99843
20
-3.53196
11
6.99721
21
-3.53047
0
LINE
8
BLACK
6
CONTINUOUS
10
6.99721
20
-3.53047
11
6.9963
21
-3.52877
0
LINE
8
BLACK
6
CONTINUOUS
10
6.9963
20
-3.52877
11
6.99574
21
-3.52692
0
LINE
8
BLACK
6
CONTINUOUS
10
6.99574
20
-3.52692
11
6.99555
21
-3.525
0
LINE
8
BLACK
6
CONTINUOUS
10
6.99555
20
-3.525
11
6.99555
21
-3.49547
0
LINE
8
BLACK
6
CONTINUOUS
10
6.99555
20
-3.49547
11
6.99574
21
-3.49355
0
LINE
8
BLACK
6
CONTINUOUS
10
6.99574
20
-3.49355
11
6.9963
21
-3.49171
0
LINE
8
BLACK
6
CONTINUOUS
10
6.9963
20
-3.49171
11
6.99721
21
-3.49
0
LINE
8
BLACK
6
CONTINUOUS
10
6.99721
20
-3.49
11
6.99843
21
-3.48851
0
LINE
8
BLACK
6
CONTINUOUS
10
6.99843
20
-3.48851
11
6.99993
21
-3.48729
0
LINE
8
BLACK
6
CONTINUOUS
10
6.99993
20
-3.48729
11
7.00163
21
-3.48638
0
LINE
8
BLACK
6
CONTINUOUS
10
7.00163
20
-3.48638
11
7.00347
21
-3.48582
0
LINE
8
BLACK
6
CONTINUOUS
10
7.00347
20
-3.48582
11
7.00539
21
-3.48563
0
LINE
8
BLACK
6
CONTINUOUS
10
7.00539
20
-3.48563
11
7.05461
21
-3.48563
0
LINE
8
BLACK
6
CONTINUOUS
10
7.05461
20
-3.48563
11
7.05653
21
-3.48582
0
LINE
8
BLACK
6
CONTINUOUS
10
5.50862
20
-3.51161
11
5.42791
21
-3.51161
0
LINE
8
BLACK
6
CONTINUOUS
10
5.42791
20
-3.51161
11
5.42791
21
-3.48839
0
LINE
8
BLACK
6
CONTINUOUS
10
5.42791
20
-3.48839
11
5.50862
21
-3.48839
0
LINE
8
BLACK
6
CONTINUOUS
10
5.50862
20
-3.48839
11
5.50862
21
-3.51161
0
LINE
8
BLACK
6
CONTINUOUS
10
5.14209
20
-3.51161
11
5.06138
21
-3.51161
0
LINE
8
BLACK
6
CONTINUOUS
10
5.06138
20
-3.51161
11
5.06138
21
-3.48839
0
LINE
8
BLACK
6
CONTINUOUS
10
5.06138
20
-3.48839
11
5.14209
21
-3.48839
0
LINE
8
BLACK
6
CONTINUOUS
10
5.14209
20
-3.48839
11
5.14209
21
-3.51161
0
LINE
8
BLACK
6
CONTINUOUS
10
5.50862
20
-3.46161
11
5.42791
21
-3.46161
0
LINE
8
BLACK
6
CONTINUOUS
10
5.42791
20
-3.46161
11
5.42791
21
-3.43839
0
LINE
8
BLACK
6
CONTINUOUS
10
5.42791
20
-3.43839
11
5.50862
21
-3.43839
0
LINE
8
BLACK
6
CONTINUOUS
10
5.50862
20
-3.43839
11
5.50862
21
-3.46161
0
LINE
8
BLACK
6
CONTINUOUS
10
5.14209
20
-3.46161
11
5.06138
21
-3.46161
0
LINE
8
BLACK
6
CONTINUOUS
10
5.06138
20
-3.46161
11
5.06138
21
-3.43839
0
LINE
8
BLACK
6
CONTINUOUS
10
5.06138
20
-3.43839
11
5.14209
21
-3.43839
0
LINE
8
BLACK
6
CONTINUOUS
10
5.14209
20
-3.43839
11
5.14209
21
-3.46161
0
LINE
8
BLACK
6
CONTINUOUS
10
5.59983
20
-3.4079
11
5.60163
21
-3.40845
0
LINE
8
BLACK
6
CONTINUOUS
10
5.60163
20
-3.40845
11
5.60329
21
-3.40933
0
LINE
8
BLACK
6
CONTINUOUS
10
5.60329
20
-3.40933
11
5.60475
21
-3.41053
0
LINE
8
BLACK
6
CONTINUOUS
10
5.60475
20
-3.41053
11
5.60594
21
-3.41198
0
LINE
8
BLACK
6
CONTINUOUS
10
5.60594
20
-3.41198
11
5.60683
21
-3.41364
0
LINE
8
BLACK
6
CONTINUOUS
10
5.60683
20
-3.41364
11
5.60737
21
-3.41544
0
LINE
8
BLACK
6
CONTINUOUS
10
5.60737
20
-3.41544
11
5.60756
21
-3.41731
0
LINE
8
BLACK
6
CONTINUOUS
10
5.60756
20
-3.41731
11
5.60756
21
-3.43651
0
LINE
8
BLACK
6
CONTINUOUS
10
5.60756
20
-3.43651
11
5.60737
21
-3.43838
0
LINE
8
BLACK
6
CONTINUOUS
10
5.60737
20
-3.43838
11
5.60683
21
-3.44018
0
LINE
8
BLACK
6
CONTINUOUS
10
5.60683
20
-3.44018
11
5.60594
21
-3.44184
0
LINE
8
BLACK
6
CONTINUOUS
10
5.60594
20
-3.44184
11
5.60475
21
-3.44329
0
LINE
8
BLACK
6
CONTINUOUS
10
5.60475
20
-3.44329
11
5.60329
21
-3.44449
0
LINE
8
BLACK
6
CONTINUOUS
10
5.60329
20
-3.44449
11
5.60163
21
-3.44537
0
LINE
8
BLACK
6
CONTINUOUS
10
5.60163
20
-3.44537
11
5.59983
21
-3.44592
0
LINE
8
BLACK
6
CONTINUOUS
10
5.59983
20
-3.44592
11
5.59796
21
-3.4461
0
LINE
8
BLACK
6
CONTINUOUS
10
5.59796
20
-3.4461
11
5.56204
21
-3.4461
0
LINE
8
BLACK
6
CONTINUOUS
10
5.56204
20
-3.4461
11
5.56017
21
-3.44592
0
LINE
8
BLACK
6
CONTINUOUS
10
5.56017
20
-3.44592
11
5.55837
21
-3.44537
0
LINE
8
BLACK
6
CONTINUOUS
10
5.55837
20
-3.44537
11
5.55671
21
-3.44449
0
LINE
8
BLACK
6
CONTINUOUS
10
5.55671
20
-3.44449
11
5.55525
21
-3.44329
0
LINE
8
BLACK
6
CONTINUOUS
10
5.55525
20
-3.44329
11
5.55406
21
-3.44184
0
LINE
8
BLACK
6
CONTINUOUS
10
5.55406
20
-3.44184
11
5.55317
21
-3.44018
0
LINE
8
BLACK
6
CONTINUOUS
10
5.55317
20
-3.44018
11
5.55263
21
-3.43838
0
LINE
8
BLACK
6
CONTINUOUS
10
5.55263
20
-3.43838
11
5.55244
21
-3.43651
0
LINE
8
BLACK
6
CONTINUOUS
10
5.55244
20
-3.43651
11
5.55244
21
-3.41731
0
LINE
8
BLACK
6
CONTINUOUS
10
5.55244
20
-3.41731
11
5.55263
21
-3.41544
0
LINE
8
BLACK
6
CONTINUOUS
10
5.55263
20
-3.41544
11
5.55317
21
-3.41364
0
LINE
8
BLACK
6
CONTINUOUS
10
5.55317
20
-3.41364
11
5.55406
21
-3.41198
0
LINE
8
BLACK
6
CONTINUOUS
10
5.55406
20
-3.41198
11
5.55525
21
-3.41053
0
LINE
8
BLACK
6
CONTINUOUS
10
5.55525
20
-3.41053
11
5.55671
21
-3.40933
0
LINE
8
BLACK
6
CONTINUOUS
10
5.55671
20
-3.40933
11
5.55837
21
-3.40845
0
LINE
8
BLACK
6
CONTINUOUS
10
5.55837
20
-3.40845
11
5.56017
21
-3.4079
0
LINE
8
BLACK
6
CONTINUOUS
10
5.56017
20
-3.4079
11
5.56204
21
-3.40772
0
LINE
8
BLACK
6
CONTINUOUS
10
5.56204
20
-3.40772
11
5.59796
21
-3.40772
0
LINE
8
BLACK
6
CONTINUOUS
10
5.59796
20
-3.40772
11
5.59983
21
-3.4079
0
LINE
8
BLACK
6
CONTINUOUS
10
6.56653
20
-3.39535
11
6.56837
21
-3.39591
0
LINE
8
BLACK
6
CONTINUOUS
10
6.56837
20
-3.39591
11
6.57007
21
-3.39682
0
LINE
8
BLACK
6
CONTINUOUS
10
6.57007
20
-3.39682
11
6.57157
21
-3.39804
0
LINE
8
BLACK
6
CONTINUOUS
10
6.57157
20
-3.39804
11
6.57279
21
-3.39953
0
LINE
8
BLACK
6
CONTINUOUS
10
6.57279
20
-3.39953
11
6.5737
21
-3.40123
0
LINE
8
BLACK
6
CONTINUOUS
10
6.5737
20
-3.40123
11
6.57426
21
-3.40308
0
LINE
8
BLACK
6
CONTINUOUS
10
6.57426
20
-3.40308
11
6.57445
21
-3.405
0
LINE
8
BLACK
6
CONTINUOUS
10
6.57445
20
-3.405
11
6.57445
21
-3.43453
0
LINE
8
BLACK
6
CONTINUOUS
10
6.57445
20
-3.43453
11
6.57426
21
-3.43645
0
LINE
8
BLACK
6
CONTINUOUS
10
6.57426
20
-3.43645
11
6.5737
21
-3.43829
0
LINE
8
BLACK
6
CONTINUOUS
10
6.5737
20
-3.43829
11
6.57279
21
-3.44
0
LINE
8
BLACK
6
CONTINUOUS
10
6.57279
20
-3.44
11
6.57157
21
-3.44149
0
LINE
8
BLACK
6
CONTINUOUS
10
6.57157
20
-3.44149
11
6.57007
21
-3.44271
0
LINE
8
BLACK
6
CONTINUOUS
10
6.57007
20
-3.44271
11
6.56837
21
-3.44362
0
LINE
8
BLACK
6
CONTINUOUS
10
6.56837
20
-3.44362
11
6.56653
21
-3.44418
0
LINE
8
BLACK
6
CONTINUOUS
10
6.56653
20
-3.44418
11
6.56461
21
-3.44437
0
LINE
8
BLACK
6
CONTINUOUS
10
6.56461
20
-3.44437
11
6.51539
21
-3.44437
0
LINE
8
BLACK
6
CONTINUOUS
10
6.51539
20
-3.44437
11
6.51347
21
-3.44418
0
LINE
8
BLACK
6
CONTINUOUS
10
6.51347
20
-3.44418
11
6.51163
21
-3.44362
0
LINE
8
BLACK
6
CONTINUOUS
10
6.51163
20
-3.44362
11
6.50993
21
-3.44271
0
LINE
8
BLACK
6
CONTINUOUS
10
6.50993
20
-3.44271
11
6.50843
21
-3.44149
0
LINE
8
BLACK
6
CONTINUOUS
10
6.50843
20
-3.44149
11
6.50721
21
-3.44
0
LINE
8
BLACK
6
CONTINUOUS
10
6.50721
20
-3.44
11
6.5063
21
-3.43829
0
LINE
8
BLACK
6
CONTINUOUS
10
6.5063
20
-3.43829
11
6.50574
21
-3.43645
0
LINE
8
BLACK
6
CONTINUOUS
10
6.50574
20
-3.43645
11
6.50555
21
-3.43453
0
LINE
8
BLACK
6
CONTINUOUS
10
6.50555
20
-3.43453
11
6.50555
21
-3.405
0
LINE
8
BLACK
6
CONTINUOUS
10
6.50555
20
-3.405
11
6.50574
21
-3.40308
0
LINE
8
BLACK
6
CONTINUOUS
10
6.50574
20
-3.40308
11
6.5063
21
-3.40123
0
LINE
8
BLACK
6
CONTINUOUS
10
6.5063
20
-3.40123
11
6.50721
21
-3.39953
0
LINE
8
BLACK
6
CONTINUOUS
10
6.50721
20
-3.39953
11
6.50843
21
-3.39804
0
LINE
8
BLACK
6
CONTINUOUS
10
6.50843
20
-3.39804
11
6.50993
21
-3.39682
0
LINE
8
BLACK
6
CONTINUOUS
10
6.50993
20
-3.39682
11
6.51163
21
-3.39591
0
LINE
8
BLACK
6
CONTINUOUS
10
6.51163
20
-3.39591
11
6.51347
21
-3.39535
0
LINE
8
BLACK
6
CONTINUOUS
10
6.51347
20
-3.39535
11
6.51539
21
-3.39516
0
LINE
8
BLACK
6
CONTINUOUS
10
6.51539
20
-3.39516
11
6.56461
21
-3.39516
0
LINE
8
BLACK
6
CONTINUOUS
10
6.56461
20
-3.39516
11
6.56653
21
-3.39535
0
LINE
8
BLACK
6
CONTINUOUS
10
6.16653
20
-3.38558
11
6.16837
21
-3.38614
0
LINE
8
BLACK
6
CONTINUOUS
10
6.16837
20
-3.38614
11
6.17007
21
-3.38705
0
LINE
8
BLACK
6
CONTINUOUS
10
6.17007
20
-3.38705
11
6.17157
21
-3.38828
0
LINE
8
BLACK
6
CONTINUOUS
10
6.17157
20
-3.38828
11
6.17279
21
-3.38977
0
LINE
8
BLACK
6
CONTINUOUS
10
6.17279
20
-3.38977
11
6.1737
21
-3.39147
0
LINE
8
BLACK
6
CONTINUOUS
10
6.1737
20
-3.39147
11
6.17426
21
-3.39332
0
LINE
8
BLACK
6
CONTINUOUS
10
6.17426
20
-3.39332
11
6.17445
21
-3.39524
0
LINE
8
BLACK
6
CONTINUOUS
10
6.17445
20
-3.39524
11
6.17445
21
-3.42476
0
LINE
8
BLACK
6
CONTINUOUS
10
6.17445
20
-3.42476
11
6.17426
21
-3.42668
0
LINE
8
BLACK
6
CONTINUOUS
10
6.17426
20
-3.42668
11
6.1737
21
-3.42853
0
LINE
8
BLACK
6
CONTINUOUS
10
6.1737
20
-3.42853
11
6.17279
21
-3.43023
0
LINE
8
BLACK
6
CONTINUOUS
10
6.17279
20
-3.43023
11
6.17157
21
-3.43172
0
LINE
8
BLACK
6
CONTINUOUS
10
6.17157
20
-3.43172
11
6.17007
21
-3.43295
0
LINE
8
BLACK
6
CONTINUOUS
10
6.17007
20
-3.43295
11
6.16837
21
-3.43386
0
LINE
8
BLACK
6
CONTINUOUS
10
6.16837
20
-3.43386
11
6.16653
21
-3.43442
0
LINE
8
BLACK
6
CONTINUOUS
10
6.16653
20
-3.43442
11
6.16461
21
-3.43461
0
LINE
8
BLACK
6
CONTINUOUS
10
6.16461
20
-3.43461
11
6.11539
21
-3.43461
0
LINE
8
BLACK
6
CONTINUOUS
10
6.11539
20
-3.43461
11
6.11347
21
-3.43442
0
LINE
8
BLACK
6
CONTINUOUS
10
6.11347
20
-3.43442
11
6.11163
21
-3.43386
0
LINE
8
BLACK
6
CONTINUOUS
10
6.11163
20
-3.43386
11
6.10993
21
-3.43295
0
LINE
8
BLACK
6
CONTINUOUS
10
6.10993
20
-3.43295
11
6.10843
21
-3.43172
0
LINE
8
BLACK
6
CONTINUOUS
10
6.10843
20
-3.43172
11
6.10721
21
-3.43023
0
LINE
8
BLACK
6
CONTINUOUS
10
6.10721
20
-3.43023
11
6.1063
21
-3.42853
0
LINE
8
BLACK
6
CONTINUOUS
10
6.1063
20
-3.42853
11
6.10574
21
-3.42668
0
LINE
8
BLACK
6
CONTINUOUS
10
6.10574
20
-3.42668
11
6.10555
21
-3.42476
0
LINE
8
BLACK
6
CONTINUOUS
10
6.10555
20
-3.42476
11
6.10555
21
-3.39524
0
LINE
8
BLACK
6
CONTINUOUS
10
6.10555
20
-3.39524
11
6.10574
21
-3.39332
0
LINE
8
BLACK
6
CONTINUOUS
10
6.10574
20
-3.39332
11
6.1063
21
-3.39147
0
LINE
8
BLACK
6
CONTINUOUS
10
6.1063
20
-3.39147
11
6.10721
21
-3.38977
0
LINE
8
BLACK
6
CONTINUOUS
10
6.10721
20
-3.38977
11
6.10843
21
-3.38828
0
LINE
8
BLACK
6
CONTINUOUS
10
6.10843
20
-3.38828
11
6.10993
21
-3.38705
0
LINE
8
BLACK
6
CONTINUOUS
10
6.10993
20
-3.38705
11
6.11163
21
-3.38614
0
LINE
8
BLACK
6
CONTINUOUS
10
6.11163
20
-3.38614
11
6.11347
21
-3.38558
0
LINE
8
BLACK
6
CONTINUOUS
10
6.11347
20
-3.38558
11
6.11539
21
-3.38539
0
LINE
8
BLACK
6
CONTINUOUS
10
6.11539
20
-3.38539
11
6.16461
21
-3.38539
0
LINE
8
BLACK
6
CONTINUOUS
10
6.16461
20
-3.38539
11
6.16653
21
-3.38558
0
LINE
8
BLACK
6
CONTINUOUS
10
7.05653
20
-3.37558
11
7.05837
21
-3.37614
0
LINE
8
BLACK
6
CONTINUOUS
10
7.05837
20
-3.37614
11
7.06007
21
-3.37705
0
LINE
8
BLACK
6
CONTINUOUS
10
7.06007
20
-3.37705
11
7.06157
21
-3.37828
0
LINE
8
BLACK
6
CONTINUOUS
10
7.06157
20
-3.37828
11
7.06279
21
-3.37977
0
LINE
8
BLACK
6
CONTINUOUS
10
7.06279
20
-3.37977
11
7.0637
21
-3.38147
0
LINE
8
BLACK
6
CONTINUOUS
10
7.0637
20
-3.38147
11
7.06426
21
-3.38332
0
LINE
8
BLACK
6
CONTINUOUS
10
7.06426
20
-3.38332
11
7.06445
21
-3.38524
0
LINE
8
BLACK
6
CONTINUOUS
10
7.06445
20
-3.38524
11
7.06445
21
-3.41476
0
LINE
8
BLACK
6
CONTINUOUS
10
7.06445
20
-3.41476
11
7.06426
21
-3.41668
0
LINE
8
BLACK
6
CONTINUOUS
10
7.06426
20
-3.41668
11
7.0637
21
-3.41853
0
LINE
8
BLACK
6
CONTINUOUS
10
7.0637
20
-3.41853
11
7.06279
21
-3.42023
0
LINE
8
BLACK
6
CONTINUOUS
10
7.06279
20
-3.42023
11
7.06157
21
-3.42172
0
LINE
8
BLACK
6
CONTINUOUS
10
7.06157
20
-3.42172
11
7.06007
21
-3.42295
0
LINE
8
BLACK
6
CONTINUOUS
10
7.06007
20
-3.42295
11
7.05837
21
-3.42386
0
LINE
8
BLACK
6
CONTINUOUS
10
7.05837
20
-3.42386
11
7.05653
21
-3.42442
0
LINE
8
BLACK
6
CONTINUOUS
10
7.05653
20
-3.42442
11
7.05461
21
-3.42461
0
LINE
8
BLACK
6
CONTINUOUS
10
7.05461
20
-3.42461
11
7.00539
21
-3.42461
0
LINE
8
BLACK
6
CONTINUOUS
10
7.00539
20
-3.42461
11
7.00347
21
-3.42442
0
LINE
8
BLACK
6
CONTINUOUS
10
7.00347
20
-3.42442
11
7.00163
21
-3.42386
0
LINE
8
BLACK
6
CONTINUOUS
10
7.00163
20
-3.42386
11
6.99993
21
-3.42295
0
LINE
8
BLACK
6
CONTINUOUS
10
6.99993
20
-3.42295
11
6.99843
21
-3.42172
0
LINE
8
BLACK
6
CONTINUOUS
10
6.99843
20
-3.42172
11
6.99721
21
-3.42023
0
LINE
8
BLACK
6
CONTINUOUS
10
6.99721
20
-3.42023
11
6.9963
21
-3.41853
0
LINE
8
BLACK
6
CONTINUOUS
10
6.9963
20
-3.41853
11
6.99574
21
-3.41668
0
LINE
8
BLACK
6
CONTINUOUS
10
6.99574
20
-3.41668
11
6.99555
21
-3.41476
0
LINE
8
BLACK
6
CONTINUOUS
10
6.99555
20
-3.41476
11
6.99555
21
-3.38524
0
LINE
8
BLACK
6
CONTINUOUS
10
6.99555
20
-3.38524
11
6.99574
21
-3.38332
0
LINE
8
BLACK
6
CONTINUOUS
10
6.99574
20
-3.38332
11
6.9963
21
-3.38147
0
LINE
8
BLACK
6
CONTINUOUS
10
6.9963
20
-3.38147
11
6.99721
21
-3.37977
0
LINE
8
BLACK
6
CONTINUOUS
10
6.99721
20
-3.37977
11
6.99843
21
-3.37828
0
LINE
8
BLACK
6
CONTINUOUS
10
6.99843
20
-3.37828
11
6.99993
21
-3.37705
0
LINE
8
BLACK
6
CONTINUOUS
10
6.99993
20
-3.37705
11
7.00163
21
-3.37614
0
LINE
8
BLACK
6
CONTINUOUS
10
7.00163
20
-3.37614
11
7.00347
21
-3.37558
0
LINE
8
BLACK
6
CONTINUOUS
10
7.00347
20
-3.37558
11
7.00539
21
-3.37539
0
LINE
8
BLACK
6
CONTINUOUS
10
7.00539
20
-3.37539
11
7.05461
21
-3.37539
0
LINE
8
BLACK
6
CONTINUOUS
10
7.05461
20
-3.37539
11
7.05653
21
-3.37558
0
LINE
8
BLACK
6
CONTINUOUS
10
5.14209
20
-3.41161
11
5.06138
21
-3.41161
0
LINE
8
BLACK
6
CONTINUOUS
10
5.06138
20
-3.41161
11
5.06138
21
-3.38839
0
LINE
8
BLACK
6
CONTINUOUS
10
5.06138
20
-3.38839
11
5.14209
21
-3.38839
0
LINE
8
BLACK
6
CONTINUOUS
10
5.14209
20
-3.38839
11
5.14209
21
-3.41161
0
LINE
8
BLACK
6
CONTINUOUS
10
5.50862
20
-3.41161
11
5.42791
21
-3.41161
0
LINE
8
BLACK
6
CONTINUOUS
10
5.42791
20
-3.41161
11
5.42791
21
-3.38839
0
LINE
8
BLACK
6
CONTINUOUS
10
5.42791
20
-3.38839
11
5.50862
21
-3.38839
0
LINE
8
BLACK
6
CONTINUOUS
10
5.50862
20
-3.38839
11
5.50862
21
-3.41161
0
LINE
8
BLACK
6
CONTINUOUS
10
5.59983
20
-3.33408
11
5.60163
21
-3.33463
0
LINE
8
BLACK
6
CONTINUOUS
10
5.60163
20
-3.33463
11
5.60329
21
-3.33551
0
LINE
8
BLACK
6
CONTINUOUS
10
5.60329
20
-3.33551
11
5.60475
21
-3.33671
0
LINE
8
BLACK
6
CONTINUOUS
10
5.60475
20
-3.33671
11
5.60594
21
-3.33816
0
LINE
8
BLACK
6
CONTINUOUS
10
5.60594
20
-3.33816
11
5.60683
21
-3.33982
0
LINE
8
BLACK
6
CONTINUOUS
10
5.60683
20
-3.33982
11
5.60737
21
-3.34162
0
LINE
8
BLACK
6
CONTINUOUS
10
5.60737
20
-3.34162
11
5.60756
21
-3.34349
0
LINE
8
BLACK
6
CONTINUOUS
10
5.60756
20
-3.34349
11
5.60756
21
-3.36269
0
LINE
8
BLACK
6
CONTINUOUS
10
5.60756
20
-3.36269
11
5.60737
21
-3.36456
0
LINE
8
BLACK
6
CONTINUOUS
10
5.60737
20
-3.36456
11
5.60683
21
-3.36636
0
LINE
8
BLACK
6
CONTINUOUS
10
5.60683
20
-3.36636
11
5.60594
21
-3.36802
0
LINE
8
BLACK
6
CONTINUOUS
10
5.60594
20
-3.36802
11
5.60475
21
-3.36947
0
LINE
8
BLACK
6
CONTINUOUS
10
5.60475
20
-3.36947
11
5.60329
21
-3.37067
0
LINE
8
BLACK
6
CONTINUOUS
10
5.60329
20
-3.37067
11
5.60163
21
-3.37155
0
LINE
8
BLACK
6
CONTINUOUS
10
5.60163
20
-3.37155
11
5.59983
21
-3.3721
0
LINE
8
BLACK
6
CONTINUOUS
10
5.59983
20
-3.3721
11
5.59796
21
-3.37228
0
LINE
8
BLACK
6
CONTINUOUS
10
5.59796
20
-3.37228
11
5.56204
21
-3.37228
0
LINE
8
BLACK
6
CONTINUOUS
10
5.56204
20
-3.37228
11
5.56017
21
-3.3721
0
LINE
8
BLACK
6
CONTINUOUS
10
5.56017
20
-3.3721
11
5.55837
21
-3.37155
0
LINE
8
BLACK
6
CONTINUOUS
10
5.55837
20
-3.37155
11
5.55671
21
-3.37067
0
LINE
8
BLACK
6
CONTINUOUS
10
5.55671
20
-3.37067
11
5.55525
21
-3.36947
0
LINE
8
BLACK
6
CONTINUOUS
10
5.55525
20
-3.36947
11
5.55406
21
-3.36802
0
LINE
8
BLACK
6
CONTINUOUS
10
5.55406
20
-3.36802
11
5.55317
21
-3.36636
0
LINE
8
BLACK
6
CONTINUOUS
10
5.55317
20
-3.36636
11
5.55263
21
-3.36456
0
LINE
8
BLACK
6
CONTINUOUS
10
5.55263
20
-3.36456
11
5.55244
21
-3.36269
0
LINE
8
BLACK
6
CONTINUOUS
10
5.55244
20
-3.36269
11
5.55244
21
-3.34349
0
LINE
8
BLACK
6
CONTINUOUS
10
5.55244
20
-3.34349
11
5.55263
21
-3.34162
0
LINE
8
BLACK
6
CONTINUOUS
10
5.55263
20
-3.34162
11
5.55317
21
-3.33982
0
LINE
8
BLACK
6
CONTINUOUS
10
5.55317
20
-3.33982
11
5.55406
21
-3.33816
0
LINE
8
BLACK
6
CONTINUOUS
10
5.55406
20
-3.33816
11
5.55525
21
-3.33671
0
LINE
8
BLACK
6
CONTINUOUS
10
5.55525
20
-3.33671
11
5.55671
21
-3.33551
0
LINE
8
BLACK
6
CONTINUOUS
10
5.55671
20
-3.33551
11
5.55837
21
-3.33463
0
LINE
8
BLACK
6
CONTINUOUS
10
5.55837
20
-3.33463
11
5.56017
21
-3.33408
0
LINE
8
BLACK
6
CONTINUOUS
10
5.56017
20
-3.33408
11
5.56204
21
-3.3339
0
LINE
8
BLACK
6
CONTINUOUS
10
5.56204
20
-3.3339
11
5.59796
21
-3.3339
0
LINE
8
BLACK
6
CONTINUOUS
10
5.59796
20
-3.3339
11
5.59983
21
-3.33408
0
LINE
8
BLACK
6
CONTINUOUS
10
5.50862
20
-3.36161
11
5.42791
21
-3.36161
0
LINE
8
BLACK
6
CONTINUOUS
10
5.42791
20
-3.36161
11
5.42791
21
-3.33839
0
LINE
8
BLACK
6
CONTINUOUS
10
5.42791
20
-3.33839
11
5.50862
21
-3.33839
0
LINE
8
BLACK
6
CONTINUOUS
10
5.50862
20
-3.33839
11
5.50862
21
-3.36161
0
LINE
8
BLACK
6
CONTINUOUS
10
5.14209
20
-3.36161
11
5.06138
21
-3.36161
0
LINE
8
BLACK
6
CONTINUOUS
10
5.06138
20
-3.36161
11
5.06138
21
-3.33839
0
LINE
8
BLACK
6
CONTINUOUS
10
5.06138
20
-3.33839
11
5.14209
21
-3.33839
0
LINE
8
BLACK
6
CONTINUOUS
10
5.14209
20
-3.33839
11
5.14209
21
-3.36161
0
LINE
8
BLACK
6
CONTINUOUS
10
5.14209
20
-3.31161
11
5.06138
21
-3.31161
0
LINE
8
BLACK
6
CONTINUOUS
10
5.06138
20
-3.31161
11
5.06138
21
-3.28839
0
LINE
8
BLACK
6
CONTINUOUS
10
5.06138
20
-3.28839
11
5.14209
21
-3.28839
0
LINE
8
BLACK
6
CONTINUOUS
10
5.14209
20
-3.28839
11
5.14209
21
-3.31161
0
LINE
8
BLACK
6
CONTINUOUS
10
5.50862
20
-3.31161
11
5.42791
21
-3.31161
0
LINE
8
BLACK
6
CONTINUOUS
10
5.42791
20
-3.31161
11
5.42791
21
-3.28839
0
LINE
8
BLACK
6
CONTINUOUS
10
5.42791
20
-3.28839
11
5.50862
21
-3.28839
0
LINE
8
BLACK
6
CONTINUOUS
10
5.50862
20
-3.28839
11
5.50862
21
-3.31161
0
LINE
8
BLACK
6
CONTINUOUS
10
6.56653
20
-3.21582
11
6.56837
21
-3.21638
0
LINE
8
BLACK
6
CONTINUOUS
10
6.56837
20
-3.21638
11
6.57007
21
-3.21729
0
LINE
8
BLACK
6
CONTINUOUS
10
6.57007
20
-3.21729
11
6.57157
21
-3.21851
0
LINE
8
BLACK
6
CONTINUOUS
10
6.57157
20
-3.21851
11
6.57279
21
-3.22
0
LINE
8
BLACK
6
CONTINUOUS
10
6.57279
20
-3.22
11
6.5737
21
-3.22171
0
LINE
8
BLACK
6
CONTINUOUS
10
6.5737
20
-3.22171
11
6.57426
21
-3.22355
0
LINE
8
BLACK
6
CONTINUOUS
10
6.57426
20
-3.22355
11
6.57445
21
-3.22547
0
LINE
8
BLACK
6
CONTINUOUS
10
6.57445
20
-3.22547
11
6.57445
21
-3.255
0
LINE
8
BLACK
6
CONTINUOUS
10
6.57445
20
-3.255
11
6.57426
21
-3.25692
0
LINE
8
BLACK
6
CONTINUOUS
10
6.57426
20
-3.25692
11
6.5737
21
-3.25877
0
LINE
8
BLACK
6
CONTINUOUS
10
6.5737
20
-3.25877
11
6.57279
21
-3.26047
0
LINE
8
BLACK
6
CONTINUOUS
10
6.57279
20
-3.26047
11
6.57157
21
-3.26196
0
LINE
8
BLACK
6
CONTINUOUS
10
6.57157
20
-3.26196
11
6.57007
21
-3.26318
0
LINE
8
BLACK
6
CONTINUOUS
10
6.57007
20
-3.26318
11
6.56837
21
-3.26409
0
LINE
8
BLACK
6
CONTINUOUS
10
6.56837
20
-3.26409
11
6.56653
21
-3.26465
0
LINE
8
BLACK
6
CONTINUOUS
10
6.56653
20
-3.26465
11
6.56461
21
-3.26484
0
LINE
8
BLACK
6
CONTINUOUS
10
6.56461
20
-3.26484
11
6.51539
21
-3.26484
0
LINE
8
BLACK
6
CONTINUOUS
10
6.51539
20
-3.26484
11
6.51347
21
-3.26465
0
LINE
8
BLACK
6
CONTINUOUS
10
6.51347
20
-3.26465
11
6.51163
21
-3.26409
0
LINE
8
BLACK
6
CONTINUOUS
10
6.51163
20
-3.26409
11
6.50993
21
-3.26318
0
LINE
8
BLACK
6
CONTINUOUS
10
6.50993
20
-3.26318
11
6.50843
21
-3.26196
0
LINE
8
BLACK
6
CONTINUOUS
10
6.50843
20
-3.26196
11
6.50721
21
-3.26047
0
LINE
8
BLACK
6
CONTINUOUS
10
6.50721
20
-3.26047
11
6.5063
21
-3.25877
0
LINE
8
BLACK
6
CONTINUOUS
10
6.5063
20
-3.25877
11
6.50574
21
-3.25692
0
LINE
8
BLACK
6
CONTINUOUS
10
6.50574
20
-3.25692
11
6.50555
21
-3.255
0
LINE
8
BLACK
6
CONTINUOUS
10
6.50555
20
-3.255
11
6.50555
21
-3.22547
0
LINE
8
BLACK
6
CONTINUOUS
10
6.50555
20
-3.22547
11
6.50574
21
-3.22355
0
LINE
8
BLACK
6
CONTINUOUS
10
6.50574
20
-3.22355
11
6.5063
21
-3.22171
0
LINE
8
BLACK
6
CONTINUOUS
10
6.5063
20
-3.22171
11
6.50721
21
-3.22
0
LINE
8
BLACK
6
CONTINUOUS
10
6.50721
20
-3.22
11
6.50843
21
-3.21851
0
LINE
8
BLACK
6
CONTINUOUS
10
6.50843
20
-3.21851
11
6.50993
21
-3.21729
0
LINE
8
BLACK
6
CONTINUOUS
10
6.50993
20
-3.21729
11
6.51163
21
-3.21638
0
LINE
8
BLACK
6
CONTINUOUS
10
6.51163
20
-3.21638
11
6.51347
21
-3.21582
0
LINE
8
BLACK
6
CONTINUOUS
10
6.51347
20
-3.21582
11
6.51539
21
-3.21563
0
LINE
8
BLACK
6
CONTINUOUS
10
6.51539
20
-3.21563
11
6.56461
21
-3.21563
0
LINE
8
BLACK
6
CONTINUOUS
10
6.56461
20
-3.21563
11
6.56653
21
-3.21582
0
LINE
8
BLACK
6
CONTINUOUS
10
5.46472
20
-3.14574
11
5.46656
21
-3.1463
0
LINE
8
BLACK
6
CONTINUOUS
10
5.46656
20
-3.1463
11
5.46826
21
-3.14721
0
LINE
8
BLACK
6
CONTINUOUS
10
5.46826
20
-3.14721
11
5.46976
21
-3.14843
0
LINE
8
BLACK
6
CONTINUOUS
10
5.46976
20
-3.14843
11
5.47098
21
-3.14993
0
LINE
8
BLACK
6
CONTINUOUS
10
5.47098
20
-3.14993
11
5.47189
21
-3.15163
0
LINE
8
BLACK
6
CONTINUOUS
10
5.47189
20
-3.15163
11
5.47245
21
-3.15347
0
LINE
8
BLACK
6
CONTINUOUS
10
5.47245
20
-3.15347
11
5.47264
21
-3.15539
0
LINE
8
BLACK
6
CONTINUOUS
10
5.47264
20
-3.15539
11
5.47264
21
-3.20461
0
LINE
8
BLACK
6
CONTINUOUS
10
5.47264
20
-3.20461
11
5.47245
21
-3.20653
0
LINE
8
BLACK
6
CONTINUOUS
10
5.47245
20
-3.20653
11
5.47189
21
-3.20837
0
LINE
8
BLACK
6
CONTINUOUS
10
5.47189
20
-3.20837
11
5.47098
21
-3.21007
0
LINE
8
BLACK
6
CONTINUOUS
10
5.47098
20
-3.21007
11
5.46976
21
-3.21157
0
LINE
8
BLACK
6
CONTINUOUS
10
5.46976
20
-3.21157
11
5.46826
21
-3.21279
0
LINE
8
BLACK
6
CONTINUOUS
10
5.46826
20
-3.21279
11
5.46656
21
-3.2137
0
LINE
8
BLACK
6
CONTINUOUS
10
5.46656
20
-3.2137
11
5.46472
21
-3.21426
0
LINE
8
BLACK
6
CONTINUOUS
10
5.46472
20
-3.21426
11
5.4628
21
-3.21445
0
LINE
8
BLACK
6
CONTINUOUS
10
5.4628
20
-3.21445
11
5.43327
21
-3.21445
0
LINE
8
BLACK
6
CONTINUOUS
10
5.43327
20
-3.21445
11
5.43135
21
-3.21426
0
LINE
8
BLACK
6
CONTINUOUS
10
5.43135
20
-3.21426
11
5.4295
21
-3.2137
0
LINE
8
BLACK
6
CONTINUOUS
10
5.4295
20
-3.2137
11
5.4278
21
-3.21279
0
LINE
8
BLACK
6
CONTINUOUS
10
5.4278
20
-3.21279
11
5.42631
21
-3.21157
0
LINE
8
BLACK
6
CONTINUOUS
10
5.42631
20
-3.21157
11
5.42508
21
-3.21007
0
LINE
8
BLACK
6
CONTINUOUS
10
5.42508
20
-3.21007
11
5.42417
21
-3.20837
0
LINE
8
BLACK
6
CONTINUOUS
10
5.42417
20
-3.20837
11
5.42361
21
-3.20653
0
LINE
8
BLACK
6
CONTINUOUS
10
5.42361
20
-3.20653
11
5.42343
21
-3.20461
0
LINE
8
BLACK
6
CONTINUOUS
10
5.42343
20
-3.20461
11
5.42343
21
-3.15539
0
LINE
8
BLACK
6
CONTINUOUS
10
5.42343
20
-3.15539
11
5.42361
21
-3.15347
0
LINE
8
BLACK
6
CONTINUOUS
10
5.42361
20
-3.15347
11
5.42417
21
-3.15163
0
LINE
8
BLACK
6
CONTINUOUS
10
5.42417
20
-3.15163
11
5.42508
21
-3.14993
0
LINE
8
BLACK
6
CONTINUOUS
10
5.42508
20
-3.14993
11
5.42631
21
-3.14843
0
LINE
8
BLACK
6
CONTINUOUS
10
5.42631
20
-3.14843
11
5.4278
21
-3.14721
0
LINE
8
BLACK
6
CONTINUOUS
10
5.4278
20
-3.14721
11
5.4295
21
-3.1463
0
LINE
8
BLACK
6
CONTINUOUS
10
5.4295
20
-3.1463
11
5.43135
21
-3.14574
0
LINE
8
BLACK
6
CONTINUOUS
10
5.43135
20
-3.14574
11
5.43327
21
-3.14555
0
LINE
8
BLACK
6
CONTINUOUS
10
5.43327
20
-3.14555
11
5.4628
21
-3.14555
0
LINE
8
BLACK
6
CONTINUOUS
10
5.4628
20
-3.14555
11
5.46472
21
-3.14574
0
LINE
8
BLACK
6
CONTINUOUS
10
5.35448
20
-3.14574
11
5.35633
21
-3.1463
0
LINE
8
BLACK
6
CONTINUOUS
10
5.35633
20
-3.1463
11
5.35803
21
-3.14721
0
LINE
8
BLACK
6
CONTINUOUS
10
5.35803
20
-3.14721
11
5.35952
21
-3.14843
0
LINE
8
BLACK
6
CONTINUOUS
10
5.35952
20
-3.14843
11
5.36074
21
-3.14993
0
LINE
8
BLACK
6
CONTINUOUS
10
5.36074
20
-3.14993
11
5.36165
21
-3.15163
0
LINE
8
BLACK
6
CONTINUOUS
10
5.36165
20
-3.15163
11
5.36221
21
-3.15347
0
LINE
8
BLACK
6
CONTINUOUS
10
5.36221
20
-3.15347
11
5.3624
21
-3.15539
0
LINE
8
BLACK
6
CONTINUOUS
10
5.3624
20
-3.15539
11
5.3624
21
-3.20461
0
LINE
8
BLACK
6
CONTINUOUS
10
5.3624
20
-3.20461
11
5.36221
21
-3.20653
0
LINE
8
BLACK
6
CONTINUOUS
10
5.36221
20
-3.20653
11
5.36165
21
-3.20837
0
LINE
8
BLACK
6
CONTINUOUS
10
5.36165
20
-3.20837
11
5.36074
21
-3.21007
0
LINE
8
BLACK
6
CONTINUOUS
10
5.36074
20
-3.21007
11
5.35952
21
-3.21157
0
LINE
8
BLACK
6
CONTINUOUS
10
5.35952
20
-3.21157
11
5.35803
21
-3.21279
0
LINE
8
BLACK
6
CONTINUOUS
10
5.35803
20
-3.21279
11
5.35633
21
-3.2137
0
LINE
8
BLACK
6
CONTINUOUS
10
5.35633
20
-3.2137
11
5.35448
21
-3.21426
0
LINE
8
BLACK
6
CONTINUOUS
10
5.35448
20
-3.21426
11
5.35256
21
-3.21445
0
LINE
8
BLACK
6
CONTINUOUS
10
5.35256
20
-3.21445
11
5.32303
21
-3.21445
0
LINE
8
BLACK
6
CONTINUOUS
10
5.32303
20
-3.21445
11
5.32111
21
-3.21426
0
LINE
8
BLACK
6
CONTINUOUS
10
5.32111
20
-3.21426
11
5.31926
21
-3.2137
0
LINE
8
BLACK
6
CONTINUOUS
10
5.31926
20
-3.2137
11
5.31756
21
-3.21279
0
LINE
8
BLACK
6
CONTINUOUS
10
5.31756
20
-3.21279
11
5.31607
21
-3.21157
0
LINE
8
BLACK
6
CONTINUOUS
10
5.31607
20
-3.21157
11
5.31485
21
-3.21007
0
LINE
8
BLACK
6
CONTINUOUS
10
5.31485
20
-3.21007
11
5.31394
21
-3.20837
0
LINE
8
BLACK
6
CONTINUOUS
10
5.31394
20
-3.20837
11
5.31338
21
-3.20653
0
LINE
8
BLACK
6
CONTINUOUS
10
5.31338
20
-3.20653
11
5.31319
21
-3.20461
0
LINE
8
BLACK
6
CONTINUOUS
10
5.31319
20
-3.20461
11
5.31319
21
-3.15539
0
LINE
8
BLACK
6
CONTINUOUS
10
5.31319
20
-3.15539
11
5.31338
21
-3.15347
0
LINE
8
BLACK
6
CONTINUOUS
10
5.31338
20
-3.15347
11
5.31394
21
-3.15163
0
LINE
8
BLACK
6
CONTINUOUS
10
5.31394
20
-3.15163
11
5.31485
21
-3.14993
0
LINE
8
BLACK
6
CONTINUOUS
10
5.31485
20
-3.14993
11
5.31607
21
-3.14843
0
LINE
8
BLACK
6
CONTINUOUS
10
5.31607
20
-3.14843
11
5.31756
21
-3.14721
0
LINE
8
BLACK
6
CONTINUOUS
10
5.31756
20
-3.14721
11
5.31926
21
-3.1463
0
LINE
8
BLACK
6
CONTINUOUS
10
5.31926
20
-3.1463
11
5.32111
21
-3.14574
0
LINE
8
BLACK
6
CONTINUOUS
10
5.32111
20
-3.14574
11
5.32303
21
-3.14555
0
LINE
8
BLACK
6
CONTINUOUS
10
5.32303
20
-3.14555
11
5.35256
21
-3.14555
0
LINE
8
BLACK
6
CONTINUOUS
10
5.35256
20
-3.14555
11
5.35448
21
-3.14574
0
LINE
8
BLACK
6
CONTINUOUS
10
6.56653
20
-3.10558
11
6.56837
21
-3.10614
0
LINE
8
BLACK
6
CONTINUOUS
10
6.56837
20
-3.10614
11
6.57007
21
-3.10705
0
LINE
8
BLACK
6
CONTINUOUS
10
6.57007
20
-3.10705
11
6.57157
21
-3.10828
0
LINE
8
BLACK
6
CONTINUOUS
10
6.57157
20
-3.10828
11
6.57279
21
-3.10977
0
LINE
8
BLACK
6
CONTINUOUS
10
6.57279
20
-3.10977
11
6.5737
21
-3.11147
0
LINE
8
BLACK
6
CONTINUOUS
10
6.5737
20
-3.11147
11
6.57426
21
-3.11332
0
LINE
8
BLACK
6
CONTINUOUS
10
6.57426
20
-3.11332
11
6.57445
21
-3.11524
0
LINE
8
BLACK
6
CONTINUOUS
10
6.57445
20
-3.11524
11
6.57445
21
-3.14476
0
LINE
8
BLACK
6
CONTINUOUS
10
6.57445
20
-3.14476
11
6.57426
21
-3.14668
0
LINE
8
BLACK
6
CONTINUOUS
10
6.57426
20
-3.14668
11
6.5737
21
-3.14853
0
LINE
8
BLACK
6
CONTINUOUS
10
6.5737
20
-3.14853
11
6.57279
21
-3.15023
0
LINE
8
BLACK
6
CONTINUOUS
10
6.57279
20
-3.15023
11
6.57157
21
-3.15172
0
LINE
8
BLACK
6
CONTINUOUS
10
6.57157
20
-3.15172
11
6.57007
21
-3.15295
0
LINE
8
BLACK
6
CONTINUOUS
10
6.57007
20
-3.15295
11
6.56837
21
-3.15386
0
LINE
8
BLACK
6
CONTINUOUS
10
6.56837
20
-3.15386
11
6.56653
21
-3.15442
0
LINE
8
BLACK
6
CONTINUOUS
10
6.56653
20
-3.15442
11
6.56461
21
-3.15461
0
LINE
8
BLACK
6
CONTINUOUS
10
6.56461
20
-3.15461
11
6.51539
21
-3.15461
0
LINE
8
BLACK
6
CONTINUOUS
10
6.51539
20
-3.15461
11
6.51347
21
-3.15442
0
LINE
8
BLACK
6
CONTINUOUS
10
6.51347
20
-3.15442
11
6.51163
21
-3.15386
0
LINE
8
BLACK
6
CONTINUOUS
10
6.51163
20
-3.15386
11
6.50993
21
-3.15295
0
LINE
8
BLACK
6
CONTINUOUS
10
6.50993
20
-3.15295
11
6.50843
21
-3.15172
0
LINE
8
BLACK
6
CONTINUOUS
10
6.50843
20
-3.15172
11
6.50721
21
-3.15023
0
LINE
8
BLACK
6
CONTINUOUS
10
6.50721
20
-3.15023
11
6.5063
21
-3.14853
0
LINE
8
BLACK
6
CONTINUOUS
10
6.5063
20
-3.14853
11
6.50574
21
-3.14668
0
LINE
8
BLACK
6
CONTINUOUS
10
6.50574
20
-3.14668
11
6.50555
21
-3.14476
0
LINE
8
BLACK
6
CONTINUOUS
10
6.50555
20
-3.14476
11
6.50555
21
-3.11524
0
LINE
8
BLACK
6
CONTINUOUS
10
6.50555
20
-3.11524
11
6.50574
21
-3.11332
0
LINE
8
BLACK
6
CONTINUOUS
10
6.50574
20
-3.11332
11
6.5063
21
-3.11147
0
LINE
8
BLACK
6
CONTINUOUS
10
6.5063
20
-3.11147
11
6.50721
21
-3.10977
0
LINE
8
BLACK
6
CONTINUOUS
10
6.50721
20
-3.10977
11
6.50843
21
-3.10828
0
LINE
8
BLACK
6
CONTINUOUS
10
6.50843
20
-3.10828
11
6.50993
21
-3.10705
0
LINE
8
BLACK
6
CONTINUOUS
10
6.50993
20
-3.10705
11
6.51163
21
-3.10614
0
LINE
8
BLACK
6
CONTINUOUS
10
6.51163
20
-3.10614
11
6.51347
21
-3.10558
0
LINE
8
BLACK
6
CONTINUOUS
10
6.51347
20
-3.10558
11
6.51539
21
-3.10539
0
LINE
8
BLACK
6
CONTINUOUS
10
6.51539
20
-3.10539
11
6.56461
21
-3.10539
0
LINE
8
BLACK
6
CONTINUOUS
10
6.56461
20
-3.10539
11
6.56653
21
-3.10558
0
LINE
8
BLACK
6
CONTINUOUS
10
6.99692
20
-2.93574
11
6.99877
21
-2.9363
0
LINE
8
BLACK
6
CONTINUOUS
10
6.99877
20
-2.9363
11
7.00047
21
-2.93721
0
LINE
8
BLACK
6
CONTINUOUS
10
7.00047
20
-2.93721
11
7.00196
21
-2.93843
0
LINE
8
BLACK
6
CONTINUOUS
10
7.00196
20
-2.93843
11
7.00318
21
-2.93993
0
LINE
8
BLACK
6
CONTINUOUS
10
7.00318
20
-2.93993
11
7.00409
21
-2.94163
0
LINE
8
BLACK
6
CONTINUOUS
10
7.00409
20
-2.94163
11
7.00465
21
-2.94347
0
LINE
8
BLACK
6
CONTINUOUS
10
7.00465
20
-2.94347
11
7.00484
21
-2.94539
0
LINE
8
BLACK
6
CONTINUOUS
10
7.00484
20
-2.94539
11
7.00484
21
-2.99461
0
LINE
8
BLACK
6
CONTINUOUS
10
7.00484
20
-2.99461
11
7.00465
21
-2.99653
0
LINE
8
BLACK
6
CONTINUOUS
10
7.00465
20
-2.99653
11
7.00409
21
-2.99837
0
LINE
8
BLACK
6
CONTINUOUS
10
7.00409
20
-2.99837
11
7.00318
21
-3.00007
0
LINE
8
BLACK
6
CONTINUOUS
10
7.00318
20
-3.00007
11
7.00196
21
-3.00157
0
LINE
8
BLACK
6
CONTINUOUS
10
7.00196
20
-3.00157
11
7.00047
21
-3.00279
0
LINE
8
BLACK
6
CONTINUOUS
10
7.00047
20
-3.00279
11
6.99877
21
-3.0037
0
LINE
8
BLACK
6
CONTINUOUS
10
6.99877
20
-3.0037
11
6.99692
21
-3.00426
0
LINE
8
BLACK
6
CONTINUOUS
10
6.99692
20
-3.00426
11
6.995
21
-3.00445
0
LINE
8
BLACK
6
CONTINUOUS
10
6.995
20
-3.00445
11
6.96547
21
-3.00445
0
LINE
8
BLACK
6
CONTINUOUS
10
6.96547
20
-3.00445
11
6.96355
21
-3.00426
0
LINE
8
BLACK
6
CONTINUOUS
10
6.96355
20
-3.00426
11
6.96171
21
-3.0037
0
LINE
8
BLACK
6
CONTINUOUS
10
6.96171
20
-3.0037
11
6.96
21
-3.00279
0
LINE
8
BLACK
6
CONTINUOUS
10
6.96
20
-3.00279
11
6.95851
21
-3.00157
0
LINE
8
BLACK
6
CONTINUOUS
10
6.95851
20
-3.00157
11
6.95729
21
-3.00007
0
LINE
8
BLACK
6
CONTINUOUS
10
6.95729
20
-3.00007
11
6.95638
21
-2.99837
0
LINE
8
BLACK
6
CONTINUOUS
10
6.95638
20
-2.99837
11
6.95582
21
-2.99653
0
LINE
8
BLACK
6
CONTINUOUS
10
6.95582
20
-2.99653
11
6.95563
21
-2.99461
0
LINE
8
BLACK
6
CONTINUOUS
10
6.95563
20
-2.99461
11
6.95563
21
-2.94539
0
LINE
8
BLACK
6
CONTINUOUS
10
6.95563
20
-2.94539
11
6.95582
21
-2.94347
0
LINE
8
BLACK
6
CONTINUOUS
10
6.95582
20
-2.94347
11
6.95638
21
-2.94163
0
LINE
8
BLACK
6
CONTINUOUS
10
6.95638
20
-2.94163
11
6.95729
21
-2.93993
0
LINE
8
BLACK
6
CONTINUOUS
10
6.95729
20
-2.93993
11
6.95851
21
-2.93843
0
LINE
8
BLACK
6
CONTINUOUS
10
6.95851
20
-2.93843
11
6.96
21
-2.93721
0
LINE
8
BLACK
6
CONTINUOUS
10
6.96
20
-2.93721
11
6.96171
21
-2.9363
0
LINE
8
BLACK
6
CONTINUOUS
10
6.96171
20
-2.9363
11
6.96355
21
-2.93574
0
LINE
8
BLACK
6
CONTINUOUS
10
6.96355
20
-2.93574
11
6.96547
21
-2.93555
0
LINE
8
BLACK
6
CONTINUOUS
10
6.96547
20
-2.93555
11
6.995
21
-2.93555
0
LINE
8
BLACK
6
CONTINUOUS
10
6.995
20
-2.93555
11
6.99692
21
-2.93574
0
LINE
8
BLACK
6
CONTINUOUS
10
6.04692
20
-2.93574
11
6.04877
21
-2.9363
0
LINE
8
BLACK
6
CONTINUOUS
10
6.04877
20
-2.9363
11
6.05047
21
-2.93721
0
LINE
8
BLACK
6
CONTINUOUS
10
6.05047
20
-2.93721
11
6.05196
21
-2.93843
0
LINE
8
BLACK
6
CONTINUOUS
10
6.05196
20
-2.93843
11
6.05318
21
-2.93993
0
LINE
8
BLACK
6
CONTINUOUS
10
6.05318
20
-2.93993
11
6.05409
21
-2.94163
0
LINE
8
BLACK
6
CONTINUOUS
10
6.05409
20
-2.94163
11
6.05465
21
-2.94347
0
LINE
8
BLACK
6
CONTINUOUS
10
6.05465
20
-2.94347
11
6.05484
21
-2.94539
0
LINE
8
BLACK
6
CONTINUOUS
10
6.05484
20
-2.94539
11
6.05484
21
-2.99461
0
LINE
8
BLACK
6
CONTINUOUS
10
6.05484
20
-2.99461
11
6.05465
21
-2.99653
0
LINE
8
BLACK
6
CONTINUOUS
10
6.05465
20
-2.99653
11
6.05409
21
-2.99837
0
LINE
8
BLACK
6
CONTINUOUS
10
6.05409
20
-2.99837
11
6.05318
21
-3.00007
0
LINE
8
BLACK
6
CONTINUOUS
10
6.05318
20
-3.00007
11
6.05196
21
-3.00157
0
LINE
8
BLACK
6
CONTINUOUS
10
6.05196
20
-3.00157
11
6.05047
21
-3.00279
0
LINE
8
BLACK
6
CONTINUOUS
10
6.05047
20
-3.00279
11
6.04877
21
-3.0037
0
LINE
8
BLACK
6
CONTINUOUS
10
6.04877
20
-3.0037
11
6.04692
21
-3.00426
0
LINE
8
BLACK
6
CONTINUOUS
10
6.04692
20
-3.00426
11
6.045
21
-3.00445
0
LINE
8
BLACK
6
CONTINUOUS
10
6.045
20
-3.00445
11
6.01547
21
-3.00445
0
LINE
8
BLACK
6
CONTINUOUS
10
6.01547
20
-3.00445
11
6.01355
21
-3.00426
0
LINE
8
BLACK
6
CONTINUOUS
10
6.01355
20
-3.00426
11
6.01171
21
-3.0037
0
LINE
8
BLACK
6
CONTINUOUS
10
6.01171
20
-3.0037
11
6.01
21
-3.00279
0
LINE
8
BLACK
6
CONTINUOUS
10
6.01
20
-3.00279
11
6.00851
21
-3.00157
0
LINE
8
BLACK
6
CONTINUOUS
10
6.00851
20
-3.00157
11
6.00729
21
-3.00007
0
LINE
8
BLACK
6
CONTINUOUS
10
6.00729
20
-3.00007
11
6.00638
21
-2.99837
0
LINE
8
BLACK
6
CONTINUOUS
10
6.00638
20
-2.99837
11
6.00582
21
-2.99653
0
LINE
8
BLACK
6
CONTINUOUS
10
6.00582
20
-2.99653
11
6.00563
21
-2.99461
0
LINE
8
BLACK
6
CONTINUOUS
10
6.00563
20
-2.99461
11
6.00563
21
-2.94539
0
LINE
8
BLACK
6
CONTINUOUS
10
6.00563
20
-2.94539
11
6.00582
21
-2.94347
0
LINE
8
BLACK
6
CONTINUOUS
10
6.00582
20
-2.94347
11
6.00638
21
-2.94163
0
LINE
8
BLACK
6
CONTINUOUS
10
6.00638
20
-2.94163
11
6.00729
21
-2.93993
0
LINE
8
BLACK
6
CONTINUOUS
10
6.00729
20
-2.93993
11
6.00851
21
-2.93843
0
LINE
8
BLACK
6
CONTINUOUS
10
6.00851
20
-2.93843
11
6.01
21
-2.93721
0
LINE
8
BLACK
6
CONTINUOUS
10
6.01
20
-2.93721
11
6.01171
21
-2.9363
0
LINE
8
BLACK
6
CONTINUOUS
10
6.01171
20
-2.9363
11
6.01355
21
-2.93574
0
LINE
8
BLACK
6
CONTINUOUS
10
6.01355
20
-2.93574
11
6.01547
21
-2.93555
0
LINE
8
BLACK
6
CONTINUOUS
10
6.01547
20
-2.93555
11
6.045
21
-2.93555
0
LINE
8
BLACK
6
CONTINUOUS
10
6.045
20
-2.93555
11
6.04692
21
-2.93574
0
LINE
8
BLACK
6
CONTINUOUS
10
5.93668
20
-2.93574
11
5.93853
21
-2.9363
0
LINE
8
BLACK
6
CONTINUOUS
10
5.93853
20
-2.9363
11
5.94023
21
-2.93721
0
LINE
8
BLACK
6
CONTINUOUS
10
5.94023
20
-2.93721
11
5.94172
21
-2.93843
0
LINE
8
BLACK
6
CONTINUOUS
10
5.94172
20
-2.93843
11
5.94295
21
-2.93993
0
LINE
8
BLACK
6
CONTINUOUS
10
5.94295
20
-2.93993
11
5.94386
21
-2.94163
0
LINE
8
BLACK
6
CONTINUOUS
10
5.94386
20
-2.94163
11
5.94442
21
-2.94347
0
LINE
8
BLACK
6
CONTINUOUS
10
5.94442
20
-2.94347
11
5.94461
21
-2.94539
0
LINE
8
BLACK
6
CONTINUOUS
10
5.94461
20
-2.94539
11
5.94461
21
-2.99461
0
LINE
8
BLACK
6
CONTINUOUS
10
5.94461
20
-2.99461
11
5.94442
21
-2.99653
0
LINE
8
BLACK
6
CONTINUOUS
10
5.94442
20
-2.99653
11
5.94386
21
-2.99837
0
LINE
8
BLACK
6
CONTINUOUS
10
5.94386
20
-2.99837
11
5.94295
21
-3.00007
0
LINE
8
BLACK
6
CONTINUOUS
10
5.94295
20
-3.00007
11
5.94172
21
-3.00157
0
LINE
8
BLACK
6
CONTINUOUS
10
5.94172
20
-3.00157
11
5.94023
21
-3.00279
0
LINE
8
BLACK
6
CONTINUOUS
10
5.94023
20
-3.00279
11
5.93853
21
-3.0037
0
LINE
8
BLACK
6
CONTINUOUS
10
5.93853
20
-3.0037
11
5.93668
21
-3.00426
0
LINE
8
BLACK
6
CONTINUOUS
10
5.93668
20
-3.00426
11
5.93476
21
-3.00445
0
LINE
8
BLACK
6
CONTINUOUS
10
5.93476
20
-3.00445
11
5.90524
21
-3.00445
0
LINE
8
BLACK
6
CONTINUOUS
10
5.90524
20
-3.00445
11
5.90332
21
-3.00426
0
LINE
8
BLACK
6
CONTINUOUS
10
5.90332
20
-3.00426
11
5.90147
21
-3.0037
0
LINE
8
BLACK
6
CONTINUOUS
10
5.90147
20
-3.0037
11
5.89977
21
-3.00279
0
LINE
8
BLACK
6
CONTINUOUS
10
5.89977
20
-3.00279
11
5.89828
21
-3.00157
0
LINE
8
BLACK
6
CONTINUOUS
10
5.89828
20
-3.00157
11
5.89705
21
-3.00007
0
LINE
8
BLACK
6
CONTINUOUS
10
5.89705
20
-3.00007
11
5.89614
21
-2.99837
0
LINE
8
BLACK
6
CONTINUOUS
10
5.89614
20
-2.99837
11
5.89558
21
-2.99653
0
LINE
8
BLACK
6
CONTINUOUS
10
5.89558
20
-2.99653
11
5.89539
21
-2.99461
0
LINE
8
BLACK
6
CONTINUOUS
10
5.89539
20
-2.99461
11
5.89539
21
-2.94539
0
LINE
8
BLACK
6
CONTINUOUS
10
5.89539
20
-2.94539
11
5.89558
21
-2.94347
0
LINE
8
BLACK
6
CONTINUOUS
10
5.89558
20
-2.94347
11
5.89614
21
-2.94163
0
LINE
8
BLACK
6
CONTINUOUS
10
5.89614
20
-2.94163
11
5.89705
21
-2.93993
0
LINE
8
BLACK
6
CONTINUOUS
10
5.89705
20
-2.93993
11
5.89828
21
-2.93843
0
LINE
8
BLACK
6
CONTINUOUS
10
5.89828
20
-2.93843
11
5.89977
21
-2.93721
0
LINE
8
BLACK
6
CONTINUOUS
10
5.89977
20
-2.93721
11
5.90147
21
-2.9363
0
LINE
8
BLACK
6
CONTINUOUS
10
5.90147
20
-2.9363
11
5.90332
21
-2.93574
0
LINE
8
BLACK
6
CONTINUOUS
10
5.90332
20
-2.93574
11
5.90524
21
-2.93555
0
LINE
8
BLACK
6
CONTINUOUS
10
5.90524
20
-2.93555
11
5.93476
21
-2.93555
0
LINE
8
BLACK
6
CONTINUOUS
10
5.93476
20
-2.93555
11
5.93668
21
-2.93574
0
LINE
8
BLACK
6
CONTINUOUS
10
6.88668
20
-2.93574
11
6.88853
21
-2.9363
0
LINE
8
BLACK
6
CONTINUOUS
10
6.88853
20
-2.9363
11
6.89023
21
-2.93721
0
LINE
8
BLACK
6
CONTINUOUS
10
6.89023
20
-2.93721
11
6.89172
21
-2.93843
0
LINE
8
BLACK
6
CONTINUOUS
10
6.89172
20
-2.93843
11
6.89295
21
-2.93993
0
LINE
8
BLACK
6
CONTINUOUS
10
6.89295
20
-2.93993
11
6.89386
21
-2.94163
0
LINE
8
BLACK
6
CONTINUOUS
10
6.89386
20
-2.94163
11
6.89442
21
-2.94347
0
LINE
8
BLACK
6
CONTINUOUS
10
6.89442
20
-2.94347
11
6.89461
21
-2.94539
0
LINE
8
BLACK
6
CONTINUOUS
10
6.89461
20
-2.94539
11
6.89461
21
-2.99461
0
LINE
8
BLACK
6
CONTINUOUS
10
6.89461
20
-2.99461
11
6.89442
21
-2.99653
0
LINE
8
BLACK
6
CONTINUOUS
10
6.89442
20
-2.99653
11
6.89386
21
-2.99837
0
LINE
8
BLACK
6
CONTINUOUS
10
6.89386
20
-2.99837
11
6.89295
21
-3.00007
0
LINE
8
BLACK
6
CONTINUOUS
10
6.89295
20
-3.00007
11
6.89172
21
-3.00157
0
LINE
8
BLACK
6
CONTINUOUS
10
6.89172
20
-3.00157
11
6.89023
21
-3.00279
0
LINE
8
BLACK
6
CONTINUOUS
10
6.89023
20
-3.00279
11
6.88853
21
-3.0037
0
LINE
8
BLACK
6
CONTINUOUS
10
6.88853
20
-3.0037
11
6.88668
21
-3.00426
0
LINE
8
BLACK
6
CONTINUOUS
10
6.88668
20
-3.00426
11
6.88476
21
-3.00445
0
LINE
8
BLACK
6
CONTINUOUS
10
6.88476
20
-3.00445
11
6.85524
21
-3.00445
0
LINE
8
BLACK
6
CONTINUOUS
10
6.85524
20
-3.00445
11
6.85332
21
-3.00426
0
LINE
8
BLACK
6
CONTINUOUS
10
6.85332
20
-3.00426
11
6.85147
21
-3.0037
0
LINE
8
BLACK
6
CONTINUOUS
10
6.85147
20
-3.0037
11
6.84977
21
-3.00279
0
LINE
8
BLACK
6
CONTINUOUS
10
6.84977
20
-3.00279
11
6.84828
21
-3.00157
0
LINE
8
BLACK
6
CONTINUOUS
10
6.84828
20
-3.00157
11
6.84705
21
-3.00007
0
LINE
8
BLACK
6
CONTINUOUS
10
6.84705
20
-3.00007
11
6.84614
21
-2.99837
0
LINE
8
BLACK
6
CONTINUOUS
10
6.84614
20
-2.99837
11
6.84558
21
-2.99653
0
LINE
8
BLACK
6
CONTINUOUS
10
6.84558
20
-2.99653
11
6.84539
21
-2.99461
0
LINE
8
BLACK
6
CONTINUOUS
10
6.84539
20
-2.99461
11
6.84539
21
-2.94539
0
LINE
8
BLACK
6
CONTINUOUS
10
6.84539
20
-2.94539
11
6.84558
21
-2.94347
0
LINE
8
BLACK
6
CONTINUOUS
10
6.84558
20
-2.94347
11
6.84614
21
-2.94163
0
LINE
8
BLACK
6
CONTINUOUS
10
6.84614
20
-2.94163
11
6.84705
21
-2.93993
0
LINE
8
BLACK
6
CONTINUOUS
10
6.84705
20
-2.93993
11
6.84828
21
-2.93843
0
LINE
8
BLACK
6
CONTINUOUS
10
6.84828
20
-2.93843
11
6.84977
21
-2.93721
0
LINE
8
BLACK
6
CONTINUOUS
10
6.84977
20
-2.93721
11
6.85147
21
-2.9363
0
LINE
8
BLACK
6
CONTINUOUS
10
6.85147
20
-2.9363
11
6.85332
21
-2.93574
0
LINE
8
BLACK
6
CONTINUOUS
10
6.85332
20
-2.93574
11
6.85524
21
-2.93555
0
LINE
8
BLACK
6
CONTINUOUS
10
6.85524
20
-2.93555
11
6.88476
21
-2.93555
0
LINE
8
BLACK
6
CONTINUOUS
10
6.88476
20
-2.93555
11
6.88668
21
-2.93574
0
LINE
8
BLACK
6
CONTINUOUS
10
6.27653
20
-2.90558
11
6.27837
21
-2.90614
0
LINE
8
BLACK
6
CONTINUOUS
10
6.27837
20
-2.90614
11
6.28007
21
-2.90705
0
LINE
8
BLACK
6
CONTINUOUS
10
6.28007
20
-2.90705
11
6.28157
21
-2.90828
0
LINE
8
BLACK
6
CONTINUOUS
10
6.28157
20
-2.90828
11
6.28279
21
-2.90977
0
LINE
8
BLACK
6
CONTINUOUS
10
6.28279
20
-2.90977
11
6.2837
21
-2.91147
0
LINE
8
BLACK
6
CONTINUOUS
10
6.2837
20
-2.91147
11
6.28426
21
-2.91332
0
LINE
8
BLACK
6
CONTINUOUS
10
6.28426
20
-2.91332
11
6.28445
21
-2.91524
0
LINE
8
BLACK
6
CONTINUOUS
10
6.28445
20
-2.91524
11
6.28445
21
-2.94476
0
LINE
8
BLACK
6
CONTINUOUS
10
6.28445
20
-2.94476
11
6.28426
21
-2.94668
0
LINE
8
BLACK
6
CONTINUOUS
10
6.28426
20
-2.94668
11
6.2837
21
-2.94853
0
LINE
8
BLACK
6
CONTINUOUS
10
6.2837
20
-2.94853
11
6.28279
21
-2.95023
0
LINE
8
BLACK
6
CONTINUOUS
10
6.28279
20
-2.95023
11
6.28157
21
-2.95172
0
LINE
8
BLACK
6
CONTINUOUS
10
6.28157
20
-2.95172
11
6.28007
21
-2.95295
0
LINE
8
BLACK
6
CONTINUOUS
10
6.28007
20
-2.95295
11
6.27837
21
-2.95386
0
LINE
8
BLACK
6
CONTINUOUS
10
6.27837
20
-2.95386
11
6.27653
21
-2.95442
0
LINE
8
BLACK
6
CONTINUOUS
10
6.27653
20
-2.95442
11
6.27461
21
-2.95461
0
LINE
8
BLACK
6
CONTINUOUS
10
6.27461
20
-2.95461
11
6.22539
21
-2.95461
0
LINE
8
BLACK
6
CONTINUOUS
10
6.22539
20
-2.95461
11
6.22347
21
-2.95442
0
LINE
8
BLACK
6
CONTINUOUS
10
6.22347
20
-2.95442
11
6.22163
21
-2.95386
0
LINE
8
BLACK
6
CONTINUOUS
10
6.22163
20
-2.95386
11
6.21993
21
-2.95295
0
LINE
8
BLACK
6
CONTINUOUS
10
6.21993
20
-2.95295
11
6.21843
21
-2.95172
0
LINE
8
BLACK
6
CONTINUOUS
10
6.21843
20
-2.95172
11
6.21721
21
-2.95023
0
LINE
8
BLACK
6
CONTINUOUS
10
6.21721
20
-2.95023
11
6.2163
21
-2.94853
0
LINE
8
BLACK
6
CONTINUOUS
10
6.2163
20
-2.94853
11
6.21574
21
-2.94668
0
LINE
8
BLACK
6
CONTINUOUS
10
6.21574
20
-2.94668
11
6.21555
21
-2.94476
0
LINE
8
BLACK
6
CONTINUOUS
10
6.21555
20
-2.94476
11
6.21555
21
-2.91524
0
LINE
8
BLACK
6
CONTINUOUS
10
6.21555
20
-2.91524
11
6.21574
21
-2.91332
0
LINE
8
BLACK
6
CONTINUOUS
10
6.21574
20
-2.91332
11
6.2163
21
-2.91147
0
LINE
8
BLACK
6
CONTINUOUS
10
6.2163
20
-2.91147
11
6.21721
21
-2.90977
0
LINE
8
BLACK
6
CONTINUOUS
10
6.21721
20
-2.90977
11
6.21843
21
-2.90828
0
LINE
8
BLACK
6
CONTINUOUS
10
6.21843
20
-2.90828
11
6.21993
21
-2.90705
0
LINE
8
BLACK
6
CONTINUOUS
10
6.21993
20
-2.90705
11
6.22163
21
-2.90614
0
LINE
8
BLACK
6
CONTINUOUS
10
6.22163
20
-2.90614
11
6.22347
21
-2.90558
0
LINE
8
BLACK
6
CONTINUOUS
10
6.22347
20
-2.90558
11
6.22539
21
-2.90539
0
LINE
8
BLACK
6
CONTINUOUS
10
6.22539
20
-2.90539
11
6.27461
21
-2.90539
0
LINE
8
BLACK
6
CONTINUOUS
10
6.27461
20
-2.90539
11
6.27653
21
-2.90558
0
LINE
8
BLACK
6
CONTINUOUS
10
6.27653
20
-2.79535
11
6.27837
21
-2.79591
0
LINE
8
BLACK
6
CONTINUOUS
10
6.27837
20
-2.79591
11
6.28007
21
-2.79682
0
LINE
8
BLACK
6
CONTINUOUS
10
6.28007
20
-2.79682
11
6.28157
21
-2.79804
0
LINE
8
BLACK
6
CONTINUOUS
10
6.28157
20
-2.79804
11
6.28279
21
-2.79953
0
LINE
8
BLACK
6
CONTINUOUS
10
6.28279
20
-2.79953
11
6.2837
21
-2.80123
0
LINE
8
BLACK
6
CONTINUOUS
10
6.2837
20
-2.80123
11
6.28426
21
-2.80308
0
LINE
8
BLACK
6
CONTINUOUS
10
6.28426
20
-2.80308
11
6.28445
21
-2.805
0
LINE
8
BLACK
6
CONTINUOUS
10
6.28445
20
-2.805
11
6.28445
21
-2.83453
0
LINE
8
BLACK
6
CONTINUOUS
10
6.28445
20
-2.83453
11
6.28426
21
-2.83645
0
LINE
8
BLACK
6
CONTINUOUS
10
6.28426
20
-2.83645
11
6.2837
21
-2.83829
0
LINE
8
BLACK
6
CONTINUOUS
10
6.2837
20
-2.83829
11
6.28279
21
-2.84
0
LINE
8
BLACK
6
CONTINUOUS
10
6.28279
20
-2.84
11
6.28157
21
-2.84149
0
LINE
8
BLACK
6
CONTINUOUS
10
6.28157
20
-2.84149
11
6.28007
21
-2.84271
0
LINE
8
BLACK
6
CONTINUOUS
10
6.28007
20
-2.84271
11
6.27837
21
-2.84362
0
LINE
8
BLACK
6
CONTINUOUS
10
6.27837
20
-2.84362
11
6.27653
21
-2.84418
0
LINE
8
BLACK
6
CONTINUOUS
10
6.27653
20
-2.84418
11
6.27461
21
-2.84437
0
LINE
8
BLACK
6
CONTINUOUS
10
6.27461
20
-2.84437
11
6.22539
21
-2.84437
0
LINE
8
BLACK
6
CONTINUOUS
10
6.22539
20
-2.84437
11
6.22347
21
-2.84418
0
LINE
8
BLACK
6
CONTINUOUS
10
6.22347
20
-2.84418
11
6.22163
21
-2.84362
0
LINE
8
BLACK
6
CONTINUOUS
10
6.22163
20
-2.84362
11
6.21993
21
-2.84271
0
LINE
8
BLACK
6
CONTINUOUS
10
6.21993
20
-2.84271
11
6.21843
21
-2.84149
0
LINE
8
BLACK
6
CONTINUOUS
10
6.21843
20
-2.84149
11
6.21721
21
-2.84
0
LINE
8
BLACK
6
CONTINUOUS
10
6.21721
20
-2.84
11
6.2163
21
-2.83829
0
LINE
8
BLACK
6
CONTINUOUS
10
6.2163
20
-2.83829
11
6.21574
21
-2.83645
0
LINE
8
BLACK
6
CONTINUOUS
10
6.21574
20
-2.83645
11
6.21555
21
-2.83453
0
LINE
8
BLACK
6
CONTINUOUS
10
6.21555
20
-2.83453
11
6.21555
21
-2.805
0
LINE
8
BLACK
6
CONTINUOUS
10
6.21555
20
-2.805
11
6.21574
21
-2.80308
0
LINE
8
BLACK
6
CONTINUOUS
10
6.21574
20
-2.80308
11
6.2163
21
-2.80123
0
LINE
8
BLACK
6
CONTINUOUS
10
6.2163
20
-2.80123
11
6.21721
21
-2.79953
0
LINE
8
BLACK
6
CONTINUOUS
10
6.21721
20
-2.79953
11
6.21843
21
-2.79804
0
LINE
8
BLACK
6
CONTINUOUS
10
6.21843
20
-2.79804
11
6.21993
21
-2.79682
0
LINE
8
BLACK
6
CONTINUOUS
10
6.21993
20
-2.79682
11
6.22163
21
-2.79591
0
LINE
8
BLACK
6
CONTINUOUS
10
6.22163
20
-2.79591
11
6.22347
21
-2.79535
0
LINE
8
BLACK
6
CONTINUOUS
10
6.22347
20
-2.79535
11
6.22539
21
-2.79516
0
LINE
8
BLACK
6
CONTINUOUS
10
6.22539
20
-2.79516
11
6.27461
21
-2.79516
0
LINE
8
BLACK
6
CONTINUOUS
10
6.27461
20
-2.79516
11
6.27653
21
-2.79535
  0
ENDSEC
  0
EOF
