  0
SECTION
  2
HEADER
  9
$ANGBASE
  50
0.0
  9
$ANGDIR
  70
1
  9
$MEASUREMENT
  70
1
  0
ENDSEC
  0
SECTION
  2
TABLES
  0
TABLE
  2
LTYPE
  70
4
  0
LTYPE
  5
40F
  2
CONTINUOUS
  70
0
  3
Solid line
  72
65
  73
0
  40
0.0
  0
LTYPE
  5
410
  2
DASHDOT
 70
0
  3
Dash Dot ____ _ ____ _
 72
65
 73
4
 40
2.0
 49
1.25
 49
-0.25
 49
0.25
 49
-0.25
  0
LTYPE
  5
411
  2
DASHED
 70
0
  3
Dashed __ __ __ __ __
 72
65
 73
2
 40
0.75
 49
0.5
 49
-0.25
  0
LTYPE
  5
43B
  2
DOTTED
 70
0
  3
Dotted .  .  .  .
 72
65
 73
2
 40
0.2
 49
0.0
 49
-0.2
  0
ENDTAB
  0
TABLE
  2
STYLE
  70
4
  0
STYLE
  2
KICAD
  70
0
  40
0
  41
1
  42
1
  50
0
  71
0
  3
isocp.shx
  0
STYLE
  2
KICADB
  70
0
  40
0
  41
1
  42
1
  50
0
  71
0
  3
isocp.shx
  0
STYLE
  2
KICADI
  70
0
  40
0
  41
1
  42
1
  50
15
  71
0
  3
isocp.shx
  0
STYLE
  2
KICADBI
  70
0
  40
0
  41
1
  42
1
  50
15
  71
0
  3
isocp.shx
  0
ENDTAB
  0
TABLE
  2
LAYER
  70
1
  0
LAYER
  2
BLACK
  70
0
  62
7
  6
CONTINUOUS
  0
ENDTAB
  0
ENDSEC
  0
SECTION
  2
ENTITIES
0
LINE
8
BLACK
6
CONTINUOUS
10
139.498
20
-110.088
11
139.526
21
-110.096
0
LINE
8
BLACK
6
CONTINUOUS
10
139.526
20
-110.096
11
139.552
21
-110.11
0
LINE
8
BLACK
6
CONTINUOUS
10
139.552
20
-110.11
11
139.575
21
-110.129
0
LINE
8
BLACK
6
CONTINUOUS
10
139.575
20
-110.129
11
139.594
21
-110.152
0
LINE
8
BLACK
6
CONTINUOUS
10
139.594
20
-110.152
11
139.608
21
-110.178
0
LINE
8
BLACK
6
CONTINUOUS
10
139.608
20
-110.178
11
139.616
21
-110.206
0
LINE
8
BLACK
6
CONTINUOUS
10
139.616
20
-110.206
11
139.619
21
-110.235
0
LINE
8
BLACK
6
CONTINUOUS
10
139.619
20
-110.235
11
139.619
21
-111.885
0
LINE
8
BLACK
6
CONTINUOUS
10
139.619
20
-111.885
11
139.616
21
-111.914
0
LINE
8
BLACK
6
CONTINUOUS
10
139.616
20
-111.914
11
139.608
21
-111.942
0
LINE
8
BLACK
6
CONTINUOUS
10
139.608
20
-111.942
11
139.594
21
-111.968
0
LINE
8
BLACK
6
CONTINUOUS
10
139.594
20
-111.968
11
139.575
21
-111.991
0
LINE
8
BLACK
6
CONTINUOUS
10
139.575
20
-111.991
11
139.552
21
-112.01
0
LINE
8
BLACK
6
CONTINUOUS
10
139.552
20
-112.01
11
139.526
21
-112.024
0
LINE
8
BLACK
6
CONTINUOUS
10
139.526
20
-112.024
11
139.498
21
-112.032
0
LINE
8
BLACK
6
CONTINUOUS
10
139.498
20
-112.032
11
139.469
21
-112.035
0
LINE
8
BLACK
6
CONTINUOUS
10
139.469
20
-112.035
11
139.169
21
-112.035
0
LINE
8
BLACK
6
CONTINUOUS
10
139.169
20
-112.035
11
139.14
21
-112.032
0
LINE
8
BLACK
6
CONTINUOUS
10
139.14
20
-112.032
11
139.112
21
-112.024
0
LINE
8
BLACK
6
CONTINUOUS
10
139.112
20
-112.024
11
139.086
21
-112.01
0
LINE
8
BLACK
6
CONTINUOUS
10
139.086
20
-112.01
11
139.063
21
-111.991
0
LINE
8
BLACK
6
CONTINUOUS
10
139.063
20
-111.991
11
139.044
21
-111.968
0
LINE
8
BLACK
6
CONTINUOUS
10
139.044
20
-111.968
11
139.03
21
-111.942
0
LINE
8
BLACK
6
CONTINUOUS
10
139.03
20
-111.942
11
139.022
21
-111.914
0
LINE
8
BLACK
6
CONTINUOUS
10
139.022
20
-111.914
11
139.019
21
-111.885
0
LINE
8
BLACK
6
CONTINUOUS
10
139.019
20
-111.885
11
139.019
21
-110.235
0
LINE
8
BLACK
6
CONTINUOUS
10
139.019
20
-110.235
11
139.022
21
-110.206
0
LINE
8
BLACK
6
CONTINUOUS
10
139.022
20
-110.206
11
139.03
21
-110.178
0
LINE
8
BLACK
6
CONTINUOUS
10
139.03
20
-110.178
11
139.044
21
-110.152
0
LINE
8
BLACK
6
CONTINUOUS
10
139.044
20
-110.152
11
139.063
21
-110.129
0
LINE
8
BLACK
6
CONTINUOUS
10
139.063
20
-110.129
11
139.086
21
-110.11
0
LINE
8
BLACK
6
CONTINUOUS
10
139.086
20
-110.11
11
139.112
21
-110.096
0
LINE
8
BLACK
6
CONTINUOUS
10
139.112
20
-110.096
11
139.14
21
-110.088
0
LINE
8
BLACK
6
CONTINUOUS
10
139.14
20
-110.088
11
139.169
21
-110.085
0
LINE
8
BLACK
6
CONTINUOUS
10
139.169
20
-110.085
11
139.469
21
-110.085
0
LINE
8
BLACK
6
CONTINUOUS
10
139.469
20
-110.085
11
139.498
21
-110.088
0
LINE
8
BLACK
6
CONTINUOUS
10
130.608
20
-110.088
11
130.636
21
-110.096
0
LINE
8
BLACK
6
CONTINUOUS
10
130.636
20
-110.096
11
130.662
21
-110.11
0
LINE
8
BLACK
6
CONTINUOUS
10
130.662
20
-110.11
11
130.685
21
-110.129
0
LINE
8
BLACK
6
CONTINUOUS
10
130.685
20
-110.129
11
130.704
21
-110.152
0
LINE
8
BLACK
6
CONTINUOUS
10
130.704
20
-110.152
11
130.718
21
-110.178
0
LINE
8
BLACK
6
CONTINUOUS
10
130.718
20
-110.178
11
130.726
21
-110.206
0
LINE
8
BLACK
6
CONTINUOUS
10
130.726
20
-110.206
11
130.729
21
-110.235
0
LINE
8
BLACK
6
CONTINUOUS
10
130.729
20
-110.235
11
130.729
21
-111.885
0
LINE
8
BLACK
6
CONTINUOUS
10
130.729
20
-111.885
11
130.726
21
-111.914
0
LINE
8
BLACK
6
CONTINUOUS
10
130.726
20
-111.914
11
130.718
21
-111.942
0
LINE
8
BLACK
6
CONTINUOUS
10
130.718
20
-111.942
11
130.704
21
-111.968
0
LINE
8
BLACK
6
CONTINUOUS
10
130.704
20
-111.968
11
130.685
21
-111.991
0
LINE
8
BLACK
6
CONTINUOUS
10
130.685
20
-111.991
11
130.662
21
-112.01
0
LINE
8
BLACK
6
CONTINUOUS
10
130.662
20
-112.01
11
130.636
21
-112.024
0
LINE
8
BLACK
6
CONTINUOUS
10
130.636
20
-112.024
11
130.608
21
-112.032
0
LINE
8
BLACK
6
CONTINUOUS
10
130.608
20
-112.032
11
130.579
21
-112.035
0
LINE
8
BLACK
6
CONTINUOUS
10
130.579
20
-112.035
11
130.279
21
-112.035
0
LINE
8
BLACK
6
CONTINUOUS
10
130.279
20
-112.035
11
130.25
21
-112.032
0
LINE
8
BLACK
6
CONTINUOUS
10
130.25
20
-112.032
11
130.222
21
-112.024
0
LINE
8
BLACK
6
CONTINUOUS
10
130.222
20
-112.024
11
130.196
21
-112.01
0
LINE
8
BLACK
6
CONTINUOUS
10
130.196
20
-112.01
11
130.173
21
-111.991
0
LINE
8
BLACK
6
CONTINUOUS
10
130.173
20
-111.991
11
130.154
21
-111.968
0
LINE
8
BLACK
6
CONTINUOUS
10
130.154
20
-111.968
11
130.14
21
-111.942
0
LINE
8
BLACK
6
CONTINUOUS
10
130.14
20
-111.942
11
130.132
21
-111.914
0
LINE
8
BLACK
6
CONTINUOUS
10
130.132
20
-111.914
11
130.129
21
-111.885
0
LINE
8
BLACK
6
CONTINUOUS
10
130.129
20
-111.885
11
130.129
21
-110.235
0
LINE
8
BLACK
6
CONTINUOUS
10
130.129
20
-110.235
11
130.132
21
-110.206
0
LINE
8
BLACK
6
CONTINUOUS
10
130.132
20
-110.206
11
130.14
21
-110.178
0
LINE
8
BLACK
6
CONTINUOUS
10
130.14
20
-110.178
11
130.154
21
-110.152
0
LINE
8
BLACK
6
CONTINUOUS
10
130.154
20
-110.152
11
130.173
21
-110.129
0
LINE
8
BLACK
6
CONTINUOUS
10
130.173
20
-110.129
11
130.196
21
-110.11
0
LINE
8
BLACK
6
CONTINUOUS
10
130.196
20
-110.11
11
130.222
21
-110.096
0
LINE
8
BLACK
6
CONTINUOUS
10
130.222
20
-110.096
11
130.25
21
-110.088
0
LINE
8
BLACK
6
CONTINUOUS
10
130.25
20
-110.088
11
130.279
21
-110.085
0
LINE
8
BLACK
6
CONTINUOUS
10
130.279
20
-110.085
11
130.579
21
-110.085
0
LINE
8
BLACK
6
CONTINUOUS
10
130.579
20
-110.085
11
130.608
21
-110.088
0
LINE
8
BLACK
6
CONTINUOUS
10
131.878
20
-110.088
11
131.906
21
-110.096
0
LINE
8
BLACK
6
CONTINUOUS
10
131.906
20
-110.096
11
131.932
21
-110.11
0
LINE
8
BLACK
6
CONTINUOUS
10
131.932
20
-110.11
11
131.955
21
-110.129
0
LINE
8
BLACK
6
CONTINUOUS
10
131.955
20
-110.129
11
131.974
21
-110.152
0
LINE
8
BLACK
6
CONTINUOUS
10
131.974
20
-110.152
11
131.988
21
-110.178
0
LINE
8
BLACK
6
CONTINUOUS
10
131.988
20
-110.178
11
131.996
21
-110.206
0
LINE
8
BLACK
6
CONTINUOUS
10
131.996
20
-110.206
11
131.999
21
-110.235
0
LINE
8
BLACK
6
CONTINUOUS
10
131.999
20
-110.235
11
131.999
21
-111.885
0
LINE
8
BLACK
6
CONTINUOUS
10
131.999
20
-111.885
11
131.996
21
-111.914
0
LINE
8
BLACK
6
CONTINUOUS
10
131.996
20
-111.914
11
131.988
21
-111.942
0
LINE
8
BLACK
6
CONTINUOUS
10
131.988
20
-111.942
11
131.974
21
-111.968
0
LINE
8
BLACK
6
CONTINUOUS
10
131.974
20
-111.968
11
131.955
21
-111.991
0
LINE
8
BLACK
6
CONTINUOUS
10
131.955
20
-111.991
11
131.932
21
-112.01
0
LINE
8
BLACK
6
CONTINUOUS
10
131.932
20
-112.01
11
131.906
21
-112.024
0
LINE
8
BLACK
6
CONTINUOUS
10
131.906
20
-112.024
11
131.878
21
-112.032
0
LINE
8
BLACK
6
CONTINUOUS
10
131.878
20
-112.032
11
131.849
21
-112.035
0
LINE
8
BLACK
6
CONTINUOUS
10
131.849
20
-112.035
11
131.549
21
-112.035
0
LINE
8
BLACK
6
CONTINUOUS
10
131.549
20
-112.035
11
131.52
21
-112.032
0
LINE
8
BLACK
6
CONTINUOUS
10
131.52
20
-112.032
11
131.492
21
-112.024
0
LINE
8
BLACK
6
CONTINUOUS
10
131.492
20
-112.024
11
131.466
21
-112.01
0
LINE
8
BLACK
6
CONTINUOUS
10
131.466
20
-112.01
11
131.443
21
-111.991
0
LINE
8
BLACK
6
CONTINUOUS
10
131.443
20
-111.991
11
131.424
21
-111.968
0
LINE
8
BLACK
6
CONTINUOUS
10
131.424
20
-111.968
11
131.41
21
-111.942
0
LINE
8
BLACK
6
CONTINUOUS
10
131.41
20
-111.942
11
131.402
21
-111.914
0
LINE
8
BLACK
6
CONTINUOUS
10
131.402
20
-111.914
11
131.399
21
-111.885
0
LINE
8
BLACK
6
CONTINUOUS
10
131.399
20
-111.885
11
131.399
21
-110.235
0
LINE
8
BLACK
6
CONTINUOUS
10
131.399
20
-110.235
11
131.402
21
-110.206
0
LINE
8
BLACK
6
CONTINUOUS
10
131.402
20
-110.206
11
131.41
21
-110.178
0
LINE
8
BLACK
6
CONTINUOUS
10
131.41
20
-110.178
11
131.424
21
-110.152
0
LINE
8
BLACK
6
CONTINUOUS
10
131.424
20
-110.152
11
131.443
21
-110.129
0
LINE
8
BLACK
6
CONTINUOUS
10
131.443
20
-110.129
11
131.466
21
-110.11
0
LINE
8
BLACK
6
CONTINUOUS
10
131.466
20
-110.11
11
131.492
21
-110.096
0
LINE
8
BLACK
6
CONTINUOUS
10
131.492
20
-110.096
11
131.52
21
-110.088
0
LINE
8
BLACK
6
CONTINUOUS
10
131.52
20
-110.088
11
131.549
21
-110.085
0
LINE
8
BLACK
6
CONTINUOUS
10
131.549
20
-110.085
11
131.849
21
-110.085
0
LINE
8
BLACK
6
CONTINUOUS
10
131.849
20
-110.085
11
131.878
21
-110.088
0
LINE
8
BLACK
6
CONTINUOUS
10
133.148
20
-110.088
11
133.176
21
-110.096
0
LINE
8
BLACK
6
CONTINUOUS
10
133.176
20
-110.096
11
133.202
21
-110.11
0
LINE
8
BLACK
6
CONTINUOUS
10
133.202
20
-110.11
11
133.225
21
-110.129
0
LINE
8
BLACK
6
CONTINUOUS
10
133.225
20
-110.129
11
133.244
21
-110.152
0
LINE
8
BLACK
6
CONTINUOUS
10
133.244
20
-110.152
11
133.258
21
-110.178
0
LINE
8
BLACK
6
CONTINUOUS
10
133.258
20
-110.178
11
133.266
21
-110.206
0
LINE
8
BLACK
6
CONTINUOUS
10
133.266
20
-110.206
11
133.269
21
-110.235
0
LINE
8
BLACK
6
CONTINUOUS
10
133.269
20
-110.235
11
133.269
21
-111.885
0
LINE
8
BLACK
6
CONTINUOUS
10
133.269
20
-111.885
11
133.266
21
-111.914
0
LINE
8
BLACK
6
CONTINUOUS
10
133.266
20
-111.914
11
133.258
21
-111.942
0
LINE
8
BLACK
6
CONTINUOUS
10
133.258
20
-111.942
11
133.244
21
-111.968
0
LINE
8
BLACK
6
CONTINUOUS
10
133.244
20
-111.968
11
133.225
21
-111.991
0
LINE
8
BLACK
6
CONTINUOUS
10
133.225
20
-111.991
11
133.202
21
-112.01
0
LINE
8
BLACK
6
CONTINUOUS
10
133.202
20
-112.01
11
133.176
21
-112.024
0
LINE
8
BLACK
6
CONTINUOUS
10
133.176
20
-112.024
11
133.148
21
-112.032
0
LINE
8
BLACK
6
CONTINUOUS
10
133.148
20
-112.032
11
133.119
21
-112.035
0
LINE
8
BLACK
6
CONTINUOUS
10
133.119
20
-112.035
11
132.819
21
-112.035
0
LINE
8
BLACK
6
CONTINUOUS
10
132.819
20
-112.035
11
132.79
21
-112.032
0
LINE
8
BLACK
6
CONTINUOUS
10
132.79
20
-112.032
11
132.762
21
-112.024
0
LINE
8
BLACK
6
CONTINUOUS
10
132.762
20
-112.024
11
132.736
21
-112.01
0
LINE
8
BLACK
6
CONTINUOUS
10
132.736
20
-112.01
11
132.713
21
-111.991
0
LINE
8
BLACK
6
CONTINUOUS
10
132.713
20
-111.991
11
132.694
21
-111.968
0
LINE
8
BLACK
6
CONTINUOUS
10
132.694
20
-111.968
11
132.68
21
-111.942
0
LINE
8
BLACK
6
CONTINUOUS
10
132.68
20
-111.942
11
132.672
21
-111.914
0
LINE
8
BLACK
6
CONTINUOUS
10
132.672
20
-111.914
11
132.669
21
-111.885
0
LINE
8
BLACK
6
CONTINUOUS
10
132.669
20
-111.885
11
132.669
21
-110.235
0
LINE
8
BLACK
6
CONTINUOUS
10
132.669
20
-110.235
11
132.672
21
-110.206
0
LINE
8
BLACK
6
CONTINUOUS
10
132.672
20
-110.206
11
132.68
21
-110.178
0
LINE
8
BLACK
6
CONTINUOUS
10
132.68
20
-110.178
11
132.694
21
-110.152
0
LINE
8
BLACK
6
CONTINUOUS
10
132.694
20
-110.152
11
132.713
21
-110.129
0
LINE
8
BLACK
6
CONTINUOUS
10
132.713
20
-110.129
11
132.736
21
-110.11
0
LINE
8
BLACK
6
CONTINUOUS
10
132.736
20
-110.11
11
132.762
21
-110.096
0
LINE
8
BLACK
6
CONTINUOUS
10
132.762
20
-110.096
11
132.79
21
-110.088
0
LINE
8
BLACK
6
CONTINUOUS
10
132.79
20
-110.088
11
132.819
21
-110.085
0
LINE
8
BLACK
6
CONTINUOUS
10
132.819
20
-110.085
11
133.119
21
-110.085
0
LINE
8
BLACK
6
CONTINUOUS
10
133.119
20
-110.085
11
133.148
21
-110.088
0
LINE
8
BLACK
6
CONTINUOUS
10
134.418
20
-110.088
11
134.446
21
-110.096
0
LINE
8
BLACK
6
CONTINUOUS
10
134.446
20
-110.096
11
134.472
21
-110.11
0
LINE
8
BLACK
6
CONTINUOUS
10
134.472
20
-110.11
11
134.495
21
-110.129
0
LINE
8
BLACK
6
CONTINUOUS
10
134.495
20
-110.129
11
134.514
21
-110.152
0
LINE
8
BLACK
6
CONTINUOUS
10
134.514
20
-110.152
11
134.528
21
-110.178
0
LINE
8
BLACK
6
CONTINUOUS
10
134.528
20
-110.178
11
134.536
21
-110.206
0
LINE
8
BLACK
6
CONTINUOUS
10
134.536
20
-110.206
11
134.539
21
-110.235
0
LINE
8
BLACK
6
CONTINUOUS
10
134.539
20
-110.235
11
134.539
21
-111.885
0
LINE
8
BLACK
6
CONTINUOUS
10
134.539
20
-111.885
11
134.536
21
-111.914
0
LINE
8
BLACK
6
CONTINUOUS
10
134.536
20
-111.914
11
134.528
21
-111.942
0
LINE
8
BLACK
6
CONTINUOUS
10
134.528
20
-111.942
11
134.514
21
-111.968
0
LINE
8
BLACK
6
CONTINUOUS
10
134.514
20
-111.968
11
134.495
21
-111.991
0
LINE
8
BLACK
6
CONTINUOUS
10
134.495
20
-111.991
11
134.472
21
-112.01
0
LINE
8
BLACK
6
CONTINUOUS
10
134.472
20
-112.01
11
134.446
21
-112.024
0
LINE
8
BLACK
6
CONTINUOUS
10
134.446
20
-112.024
11
134.418
21
-112.032
0
LINE
8
BLACK
6
CONTINUOUS
10
134.418
20
-112.032
11
134.389
21
-112.035
0
LINE
8
BLACK
6
CONTINUOUS
10
134.389
20
-112.035
11
134.089
21
-112.035
0
LINE
8
BLACK
6
CONTINUOUS
10
134.089
20
-112.035
11
134.06
21
-112.032
0
LINE
8
BLACK
6
CONTINUOUS
10
134.06
20
-112.032
11
134.032
21
-112.024
0
LINE
8
BLACK
6
CONTINUOUS
10
134.032
20
-112.024
11
134.006
21
-112.01
0
LINE
8
BLACK
6
CONTINUOUS
10
134.006
20
-112.01
11
133.983
21
-111.991
0
LINE
8
BLACK
6
CONTINUOUS
10
133.983
20
-111.991
11
133.964
21
-111.968
0
LINE
8
BLACK
6
CONTINUOUS
10
133.964
20
-111.968
11
133.95
21
-111.942
0
LINE
8
BLACK
6
CONTINUOUS
10
133.95
20
-111.942
11
133.942
21
-111.914
0
LINE
8
BLACK
6
CONTINUOUS
10
133.942
20
-111.914
11
133.939
21
-111.885
0
LINE
8
BLACK
6
CONTINUOUS
10
133.939
20
-111.885
11
133.939
21
-110.235
0
LINE
8
BLACK
6
CONTINUOUS
10
133.939
20
-110.235
11
133.942
21
-110.206
0
LINE
8
BLACK
6
CONTINUOUS
10
133.942
20
-110.206
11
133.95
21
-110.178
0
LINE
8
BLACK
6
CONTINUOUS
10
133.95
20
-110.178
11
133.964
21
-110.152
0
LINE
8
BLACK
6
CONTINUOUS
10
133.964
20
-110.152
11
133.983
21
-110.129
0
LINE
8
BLACK
6
CONTINUOUS
10
133.983
20
-110.129
11
134.006
21
-110.11
0
LINE
8
BLACK
6
CONTINUOUS
10
134.006
20
-110.11
11
134.032
21
-110.096
0
LINE
8
BLACK
6
CONTINUOUS
10
134.032
20
-110.096
11
134.06
21
-110.088
0
LINE
8
BLACK
6
CONTINUOUS
10
134.06
20
-110.088
11
134.089
21
-110.085
0
LINE
8
BLACK
6
CONTINUOUS
10
134.089
20
-110.085
11
134.389
21
-110.085
0
LINE
8
BLACK
6
CONTINUOUS
10
134.389
20
-110.085
11
134.418
21
-110.088
0
LINE
8
BLACK
6
CONTINUOUS
10
135.688
20
-110.088
11
135.716
21
-110.096
0
LINE
8
BLACK
6
CONTINUOUS
10
135.716
20
-110.096
11
135.742
21
-110.11
0
LINE
8
BLACK
6
CONTINUOUS
10
135.742
20
-110.11
11
135.765
21
-110.129
0
LINE
8
BLACK
6
CONTINUOUS
10
135.765
20
-110.129
11
135.784
21
-110.152
0
LINE
8
BLACK
6
CONTINUOUS
10
135.784
20
-110.152
11
135.798
21
-110.178
0
LINE
8
BLACK
6
CONTINUOUS
10
135.798
20
-110.178
11
135.806
21
-110.206
0
LINE
8
BLACK
6
CONTINUOUS
10
135.806
20
-110.206
11
135.809
21
-110.235
0
LINE
8
BLACK
6
CONTINUOUS
10
135.809
20
-110.235
11
135.809
21
-111.885
0
LINE
8
BLACK
6
CONTINUOUS
10
135.809
20
-111.885
11
135.806
21
-111.914
0
LINE
8
BLACK
6
CONTINUOUS
10
135.806
20
-111.914
11
135.798
21
-111.942
0
LINE
8
BLACK
6
CONTINUOUS
10
135.798
20
-111.942
11
135.784
21
-111.968
0
LINE
8
BLACK
6
CONTINUOUS
10
135.784
20
-111.968
11
135.765
21
-111.991
0
LINE
8
BLACK
6
CONTINUOUS
10
135.765
20
-111.991
11
135.742
21
-112.01
0
LINE
8
BLACK
6
CONTINUOUS
10
135.742
20
-112.01
11
135.716
21
-112.024
0
LINE
8
BLACK
6
CONTINUOUS
10
135.716
20
-112.024
11
135.688
21
-112.032
0
LINE
8
BLACK
6
CONTINUOUS
10
135.688
20
-112.032
11
135.659
21
-112.035
0
LINE
8
BLACK
6
CONTINUOUS
10
135.659
20
-112.035
11
135.359
21
-112.035
0
LINE
8
BLACK
6
CONTINUOUS
10
135.359
20
-112.035
11
135.33
21
-112.032
0
LINE
8
BLACK
6
CONTINUOUS
10
135.33
20
-112.032
11
135.302
21
-112.024
0
LINE
8
BLACK
6
CONTINUOUS
10
135.302
20
-112.024
11
135.276
21
-112.01
0
LINE
8
BLACK
6
CONTINUOUS
10
135.276
20
-112.01
11
135.253
21
-111.991
0
LINE
8
BLACK
6
CONTINUOUS
10
135.253
20
-111.991
11
135.234
21
-111.968
0
LINE
8
BLACK
6
CONTINUOUS
10
135.234
20
-111.968
11
135.22
21
-111.942
0
LINE
8
BLACK
6
CONTINUOUS
10
135.22
20
-111.942
11
135.212
21
-111.914
0
LINE
8
BLACK
6
CONTINUOUS
10
135.212
20
-111.914
11
135.209
21
-111.885
0
LINE
8
BLACK
6
CONTINUOUS
10
135.209
20
-111.885
11
135.209
21
-110.235
0
LINE
8
BLACK
6
CONTINUOUS
10
135.209
20
-110.235
11
135.212
21
-110.206
0
LINE
8
BLACK
6
CONTINUOUS
10
135.212
20
-110.206
11
135.22
21
-110.178
0
LINE
8
BLACK
6
CONTINUOUS
10
135.22
20
-110.178
11
135.234
21
-110.152
0
LINE
8
BLACK
6
CONTINUOUS
10
135.234
20
-110.152
11
135.253
21
-110.129
0
LINE
8
BLACK
6
CONTINUOUS
10
135.253
20
-110.129
11
135.276
21
-110.11
0
LINE
8
BLACK
6
CONTINUOUS
10
135.276
20
-110.11
11
135.302
21
-110.096
0
LINE
8
BLACK
6
CONTINUOUS
10
135.302
20
-110.096
11
135.33
21
-110.088
0
LINE
8
BLACK
6
CONTINUOUS
10
135.33
20
-110.088
11
135.359
21
-110.085
0
LINE
8
BLACK
6
CONTINUOUS
10
135.359
20
-110.085
11
135.659
21
-110.085
0
LINE
8
BLACK
6
CONTINUOUS
10
135.659
20
-110.085
11
135.688
21
-110.088
0
LINE
8
BLACK
6
CONTINUOUS
10
136.958
20
-110.088
11
136.986
21
-110.096
0
LINE
8
BLACK
6
CONTINUOUS
10
136.986
20
-110.096
11
137.012
21
-110.11
0
LINE
8
BLACK
6
CONTINUOUS
10
137.012
20
-110.11
11
137.035
21
-110.129
0
LINE
8
BLACK
6
CONTINUOUS
10
137.035
20
-110.129
11
137.054
21
-110.152
0
LINE
8
BLACK
6
CONTINUOUS
10
137.054
20
-110.152
11
137.068
21
-110.178
0
LINE
8
BLACK
6
CONTINUOUS
10
137.068
20
-110.178
11
137.076
21
-110.206
0
LINE
8
BLACK
6
CONTINUOUS
10
137.076
20
-110.206
11
137.079
21
-110.235
0
LINE
8
BLACK
6
CONTINUOUS
10
137.079
20
-110.235
11
137.079
21
-111.885
0
LINE
8
BLACK
6
CONTINUOUS
10
137.079
20
-111.885
11
137.076
21
-111.914
0
LINE
8
BLACK
6
CONTINUOUS
10
137.076
20
-111.914
11
137.068
21
-111.942
0
LINE
8
BLACK
6
CONTINUOUS
10
137.068
20
-111.942
11
137.054
21
-111.968
0
LINE
8
BLACK
6
CONTINUOUS
10
137.054
20
-111.968
11
137.035
21
-111.991
0
LINE
8
BLACK
6
CONTINUOUS
10
137.035
20
-111.991
11
137.012
21
-112.01
0
LINE
8
BLACK
6
CONTINUOUS
10
137.012
20
-112.01
11
136.986
21
-112.024
0
LINE
8
BLACK
6
CONTINUOUS
10
136.986
20
-112.024
11
136.958
21
-112.032
0
LINE
8
BLACK
6
CONTINUOUS
10
136.958
20
-112.032
11
136.929
21
-112.035
0
LINE
8
BLACK
6
CONTINUOUS
10
136.929
20
-112.035
11
136.629
21
-112.035
0
LINE
8
BLACK
6
CONTINUOUS
10
136.629
20
-112.035
11
136.6
21
-112.032
0
LINE
8
BLACK
6
CONTINUOUS
10
136.6
20
-112.032
11
136.572
21
-112.024
0
LINE
8
BLACK
6
CONTINUOUS
10
136.572
20
-112.024
11
136.546
21
-112.01
0
LINE
8
BLACK
6
CONTINUOUS
10
136.546
20
-112.01
11
136.523
21
-111.991
0
LINE
8
BLACK
6
CONTINUOUS
10
136.523
20
-111.991
11
136.504
21
-111.968
0
LINE
8
BLACK
6
CONTINUOUS
10
136.504
20
-111.968
11
136.49
21
-111.942
0
LINE
8
BLACK
6
CONTINUOUS
10
136.49
20
-111.942
11
136.482
21
-111.914
0
LINE
8
BLACK
6
CONTINUOUS
10
136.482
20
-111.914
11
136.479
21
-111.885
0
LINE
8
BLACK
6
CONTINUOUS
10
136.479
20
-111.885
11
136.479
21
-110.235
0
LINE
8
BLACK
6
CONTINUOUS
10
136.479
20
-110.235
11
136.482
21
-110.206
0
LINE
8
BLACK
6
CONTINUOUS
10
136.482
20
-110.206
11
136.49
21
-110.178
0
LINE
8
BLACK
6
CONTINUOUS
10
136.49
20
-110.178
11
136.504
21
-110.152
0
LINE
8
BLACK
6
CONTINUOUS
10
136.504
20
-110.152
11
136.523
21
-110.129
0
LINE
8
BLACK
6
CONTINUOUS
10
136.523
20
-110.129
11
136.546
21
-110.11
0
LINE
8
BLACK
6
CONTINUOUS
10
136.546
20
-110.11
11
136.572
21
-110.096
0
LINE
8
BLACK
6
CONTINUOUS
10
136.572
20
-110.096
11
136.6
21
-110.088
0
LINE
8
BLACK
6
CONTINUOUS
10
136.6
20
-110.088
11
136.629
21
-110.085
0
LINE
8
BLACK
6
CONTINUOUS
10
136.629
20
-110.085
11
136.929
21
-110.085
0
LINE
8
BLACK
6
CONTINUOUS
10
136.929
20
-110.085
11
136.958
21
-110.088
0
LINE
8
BLACK
6
CONTINUOUS
10
138.228
20
-110.088
11
138.256
21
-110.096
0
LINE
8
BLACK
6
CONTINUOUS
10
138.256
20
-110.096
11
138.282
21
-110.11
0
LINE
8
BLACK
6
CONTINUOUS
10
138.282
20
-110.11
11
138.305
21
-110.129
0
LINE
8
BLACK
6
CONTINUOUS
10
138.305
20
-110.129
11
138.324
21
-110.152
0
LINE
8
BLACK
6
CONTINUOUS
10
138.324
20
-110.152
11
138.338
21
-110.178
0
LINE
8
BLACK
6
CONTINUOUS
10
138.338
20
-110.178
11
138.346
21
-110.206
0
LINE
8
BLACK
6
CONTINUOUS
10
138.346
20
-110.206
11
138.349
21
-110.235
0
LINE
8
BLACK
6
CONTINUOUS
10
138.349
20
-110.235
11
138.349
21
-111.885
0
LINE
8
BLACK
6
CONTINUOUS
10
138.349
20
-111.885
11
138.346
21
-111.914
0
LINE
8
BLACK
6
CONTINUOUS
10
138.346
20
-111.914
11
138.338
21
-111.942
0
LINE
8
BLACK
6
CONTINUOUS
10
138.338
20
-111.942
11
138.324
21
-111.968
0
LINE
8
BLACK
6
CONTINUOUS
10
138.324
20
-111.968
11
138.305
21
-111.991
0
LINE
8
BLACK
6
CONTINUOUS
10
138.305
20
-111.991
11
138.282
21
-112.01
0
LINE
8
BLACK
6
CONTINUOUS
10
138.282
20
-112.01
11
138.256
21
-112.024
0
LINE
8
BLACK
6
CONTINUOUS
10
138.256
20
-112.024
11
138.228
21
-112.032
0
LINE
8
BLACK
6
CONTINUOUS
10
138.228
20
-112.032
11
138.199
21
-112.035
0
LINE
8
BLACK
6
CONTINUOUS
10
138.199
20
-112.035
11
137.899
21
-112.035
0
LINE
8
BLACK
6
CONTINUOUS
10
137.899
20
-112.035
11
137.87
21
-112.032
0
LINE
8
BLACK
6
CONTINUOUS
10
137.87
20
-112.032
11
137.842
21
-112.024
0
LINE
8
BLACK
6
CONTINUOUS
10
137.842
20
-112.024
11
137.816
21
-112.01
0
LINE
8
BLACK
6
CONTINUOUS
10
137.816
20
-112.01
11
137.793
21
-111.991
0
LINE
8
BLACK
6
CONTINUOUS
10
137.793
20
-111.991
11
137.774
21
-111.968
0
LINE
8
BLACK
6
CONTINUOUS
10
137.774
20
-111.968
11
137.76
21
-111.942
0
LINE
8
BLACK
6
CONTINUOUS
10
137.76
20
-111.942
11
137.752
21
-111.914
0
LINE
8
BLACK
6
CONTINUOUS
10
137.752
20
-111.914
11
137.749
21
-111.885
0
LINE
8
BLACK
6
CONTINUOUS
10
137.749
20
-111.885
11
137.749
21
-110.235
0
LINE
8
BLACK
6
CONTINUOUS
10
137.749
20
-110.235
11
137.752
21
-110.206
0
LINE
8
BLACK
6
CONTINUOUS
10
137.752
20
-110.206
11
137.76
21
-110.178
0
LINE
8
BLACK
6
CONTINUOUS
10
137.76
20
-110.178
11
137.774
21
-110.152
0
LINE
8
BLACK
6
CONTINUOUS
10
137.774
20
-110.152
11
137.793
21
-110.129
0
LINE
8
BLACK
6
CONTINUOUS
10
137.793
20
-110.129
11
137.816
21
-110.11
0
LINE
8
BLACK
6
CONTINUOUS
10
137.816
20
-110.11
11
137.842
21
-110.096
0
LINE
8
BLACK
6
CONTINUOUS
10
137.842
20
-110.096
11
137.87
21
-110.088
0
LINE
8
BLACK
6
CONTINUOUS
10
137.87
20
-110.088
11
137.899
21
-110.085
0
LINE
8
BLACK
6
CONTINUOUS
10
137.899
20
-110.085
11
138.199
21
-110.085
0
LINE
8
BLACK
6
CONTINUOUS
10
138.199
20
-110.085
11
138.228
21
-110.088
0
LINE
8
BLACK
6
CONTINUOUS
10
141.728
20
-110.515
11
141.774
21
-110.529
0
LINE
8
BLACK
6
CONTINUOUS
10
141.774
20
-110.529
11
141.816
21
-110.552
0
LINE
8
BLACK
6
CONTINUOUS
10
141.816
20
-110.552
11
141.853
21
-110.582
0
LINE
8
BLACK
6
CONTINUOUS
10
141.853
20
-110.582
11
141.883
21
-110.619
0
LINE
8
BLACK
6
CONTINUOUS
10
141.883
20
-110.619
11
141.905
21
-110.661
0
LINE
8
BLACK
6
CONTINUOUS
10
141.905
20
-110.661
11
141.919
21
-110.707
0
LINE
8
BLACK
6
CONTINUOUS
10
141.919
20
-110.707
11
141.924
21
-110.754
0
LINE
8
BLACK
6
CONTINUOUS
10
141.924
20
-110.754
11
141.924
21
-111.242
0
LINE
8
BLACK
6
CONTINUOUS
10
141.924
20
-111.242
11
141.919
21
-111.289
0
LINE
8
BLACK
6
CONTINUOUS
10
141.919
20
-111.289
11
141.905
21
-111.335
0
LINE
8
BLACK
6
CONTINUOUS
10
141.905
20
-111.335
11
141.883
21
-111.377
0
LINE
8
BLACK
6
CONTINUOUS
10
141.883
20
-111.377
11
141.853
21
-111.414
0
LINE
8
BLACK
6
CONTINUOUS
10
141.853
20
-111.414
11
141.816
21
-111.444
0
LINE
8
BLACK
6
CONTINUOUS
10
141.816
20
-111.444
11
141.774
21
-111.467
0
LINE
8
BLACK
6
CONTINUOUS
10
141.774
20
-111.467
11
141.728
21
-111.481
0
LINE
8
BLACK
6
CONTINUOUS
10
141.728
20
-111.481
11
141.68
21
-111.486
0
LINE
8
BLACK
6
CONTINUOUS
10
141.68
20
-111.486
11
140.768
21
-111.486
0
LINE
8
BLACK
6
CONTINUOUS
10
140.768
20
-111.486
11
140.72
21
-111.481
0
LINE
8
BLACK
6
CONTINUOUS
10
140.72
20
-111.481
11
140.674
21
-111.467
0
LINE
8
BLACK
6
CONTINUOUS
10
140.674
20
-111.467
11
140.632
21
-111.444
0
LINE
8
BLACK
6
CONTINUOUS
10
140.632
20
-111.444
11
140.595
21
-111.414
0
LINE
8
BLACK
6
CONTINUOUS
10
140.595
20
-111.414
11
140.565
21
-111.377
0
LINE
8
BLACK
6
CONTINUOUS
10
140.565
20
-111.377
11
140.543
21
-111.335
0
LINE
8
BLACK
6
CONTINUOUS
10
140.543
20
-111.335
11
140.529
21
-111.289
0
LINE
8
BLACK
6
CONTINUOUS
10
140.529
20
-111.289
11
140.524
21
-111.242
0
LINE
8
BLACK
6
CONTINUOUS
10
140.524
20
-111.242
11
140.524
21
-110.754
0
LINE
8
BLACK
6
CONTINUOUS
10
140.524
20
-110.754
11
140.529
21
-110.707
0
LINE
8
BLACK
6
CONTINUOUS
10
140.529
20
-110.707
11
140.543
21
-110.661
0
LINE
8
BLACK
6
CONTINUOUS
10
140.543
20
-110.661
11
140.565
21
-110.619
0
LINE
8
BLACK
6
CONTINUOUS
10
140.565
20
-110.619
11
140.595
21
-110.582
0
LINE
8
BLACK
6
CONTINUOUS
10
140.595
20
-110.582
11
140.632
21
-110.552
0
LINE
8
BLACK
6
CONTINUOUS
10
140.632
20
-110.552
11
140.674
21
-110.529
0
LINE
8
BLACK
6
CONTINUOUS
10
140.674
20
-110.529
11
140.72
21
-110.515
0
LINE
8
BLACK
6
CONTINUOUS
10
140.72
20
-110.515
11
140.768
21
-110.51
0
LINE
8
BLACK
6
CONTINUOUS
10
140.768
20
-110.51
11
141.68
21
-110.51
0
LINE
8
BLACK
6
CONTINUOUS
10
141.68
20
-110.51
11
141.728
21
-110.515
0
LINE
8
BLACK
6
CONTINUOUS
10
141.728
20
-108.64
11
141.774
21
-108.654
0
LINE
8
BLACK
6
CONTINUOUS
10
141.774
20
-108.654
11
141.816
21
-108.677
0
LINE
8
BLACK
6
CONTINUOUS
10
141.816
20
-108.677
11
141.853
21
-108.707
0
LINE
8
BLACK
6
CONTINUOUS
10
141.853
20
-108.707
11
141.883
21
-108.744
0
LINE
8
BLACK
6
CONTINUOUS
10
141.883
20
-108.744
11
141.905
21
-108.786
0
LINE
8
BLACK
6
CONTINUOUS
10
141.905
20
-108.786
11
141.919
21
-108.832
0
LINE
8
BLACK
6
CONTINUOUS
10
141.919
20
-108.832
11
141.924
21
-108.879
0
LINE
8
BLACK
6
CONTINUOUS
10
141.924
20
-108.879
11
141.924
21
-109.367
0
LINE
8
BLACK
6
CONTINUOUS
10
141.924
20
-109.367
11
141.919
21
-109.414
0
LINE
8
BLACK
6
CONTINUOUS
10
141.919
20
-109.414
11
141.905
21
-109.46
0
LINE
8
BLACK
6
CONTINUOUS
10
141.905
20
-109.46
11
141.883
21
-109.502
0
LINE
8
BLACK
6
CONTINUOUS
10
141.883
20
-109.502
11
141.853
21
-109.539
0
LINE
8
BLACK
6
CONTINUOUS
10
141.853
20
-109.539
11
141.816
21
-109.569
0
LINE
8
BLACK
6
CONTINUOUS
10
141.816
20
-109.569
11
141.774
21
-109.592
0
LINE
8
BLACK
6
CONTINUOUS
10
141.774
20
-109.592
11
141.728
21
-109.606
0
LINE
8
BLACK
6
CONTINUOUS
10
141.728
20
-109.606
11
141.68
21
-109.611
0
LINE
8
BLACK
6
CONTINUOUS
10
141.68
20
-109.611
11
140.768
21
-109.611
0
LINE
8
BLACK
6
CONTINUOUS
10
140.768
20
-109.611
11
140.72
21
-109.606
0
LINE
8
BLACK
6
CONTINUOUS
10
140.72
20
-109.606
11
140.674
21
-109.592
0
LINE
8
BLACK
6
CONTINUOUS
10
140.674
20
-109.592
11
140.632
21
-109.569
0
LINE
8
BLACK
6
CONTINUOUS
10
140.632
20
-109.569
11
140.595
21
-109.539
0
LINE
8
BLACK
6
CONTINUOUS
10
140.595
20
-109.539
11
140.565
21
-109.502
0
LINE
8
BLACK
6
CONTINUOUS
10
140.565
20
-109.502
11
140.543
21
-109.46
0
LINE
8
BLACK
6
CONTINUOUS
10
140.543
20
-109.46
11
140.529
21
-109.414
0
LINE
8
BLACK
6
CONTINUOUS
10
140.529
20
-109.414
11
140.524
21
-109.367
0
LINE
8
BLACK
6
CONTINUOUS
10
140.524
20
-109.367
11
140.524
21
-108.879
0
LINE
8
BLACK
6
CONTINUOUS
10
140.524
20
-108.879
11
140.529
21
-108.832
0
LINE
8
BLACK
6
CONTINUOUS
10
140.529
20
-108.832
11
140.543
21
-108.786
0
LINE
8
BLACK
6
CONTINUOUS
10
140.543
20
-108.786
11
140.565
21
-108.744
0
LINE
8
BLACK
6
CONTINUOUS
10
140.565
20
-108.744
11
140.595
21
-108.707
0
LINE
8
BLACK
6
CONTINUOUS
10
140.595
20
-108.707
11
140.632
21
-108.677
0
LINE
8
BLACK
6
CONTINUOUS
10
140.632
20
-108.677
11
140.674
21
-108.654
0
LINE
8
BLACK
6
CONTINUOUS
10
140.674
20
-108.654
11
140.72
21
-108.64
0
LINE
8
BLACK
6
CONTINUOUS
10
140.72
20
-108.64
11
140.768
21
-108.635
0
LINE
8
BLACK
6
CONTINUOUS
10
140.768
20
-108.635
11
141.68
21
-108.635
0
LINE
8
BLACK
6
CONTINUOUS
10
141.68
20
-108.635
11
141.728
21
-108.64
0
LINE
8
BLACK
6
CONTINUOUS
10
139.498
20
-105.138
11
139.526
21
-105.146
0
LINE
8
BLACK
6
CONTINUOUS
10
139.526
20
-105.146
11
139.552
21
-105.16
0
LINE
8
BLACK
6
CONTINUOUS
10
139.552
20
-105.16
11
139.575
21
-105.179
0
LINE
8
BLACK
6
CONTINUOUS
10
139.575
20
-105.179
11
139.594
21
-105.202
0
LINE
8
BLACK
6
CONTINUOUS
10
139.594
20
-105.202
11
139.608
21
-105.228
0
LINE
8
BLACK
6
CONTINUOUS
10
139.608
20
-105.228
11
139.616
21
-105.256
0
LINE
8
BLACK
6
CONTINUOUS
10
139.616
20
-105.256
11
139.619
21
-105.285
0
LINE
8
BLACK
6
CONTINUOUS
10
139.619
20
-105.285
11
139.619
21
-106.935
0
LINE
8
BLACK
6
CONTINUOUS
10
139.619
20
-106.935
11
139.616
21
-106.964
0
LINE
8
BLACK
6
CONTINUOUS
10
139.616
20
-106.964
11
139.608
21
-106.992
0
LINE
8
BLACK
6
CONTINUOUS
10
139.608
20
-106.992
11
139.594
21
-107.018
0
LINE
8
BLACK
6
CONTINUOUS
10
139.594
20
-107.018
11
139.575
21
-107.041
0
LINE
8
BLACK
6
CONTINUOUS
10
139.575
20
-107.041
11
139.552
21
-107.06
0
LINE
8
BLACK
6
CONTINUOUS
10
139.552
20
-107.06
11
139.526
21
-107.074
0
LINE
8
BLACK
6
CONTINUOUS
10
139.526
20
-107.074
11
139.498
21
-107.082
0
LINE
8
BLACK
6
CONTINUOUS
10
139.498
20
-107.082
11
139.469
21
-107.085
0
LINE
8
BLACK
6
CONTINUOUS
10
139.469
20
-107.085
11
139.169
21
-107.085
0
LINE
8
BLACK
6
CONTINUOUS
10
139.169
20
-107.085
11
139.14
21
-107.082
0
LINE
8
BLACK
6
CONTINUOUS
10
139.14
20
-107.082
11
139.112
21
-107.074
0
LINE
8
BLACK
6
CONTINUOUS
10
139.112
20
-107.074
11
139.086
21
-107.06
0
LINE
8
BLACK
6
CONTINUOUS
10
139.086
20
-107.06
11
139.063
21
-107.041
0
LINE
8
BLACK
6
CONTINUOUS
10
139.063
20
-107.041
11
139.044
21
-107.018
0
LINE
8
BLACK
6
CONTINUOUS
10
139.044
20
-107.018
11
139.03
21
-106.992
0
LINE
8
BLACK
6
CONTINUOUS
10
139.03
20
-106.992
11
139.022
21
-106.964
0
LINE
8
BLACK
6
CONTINUOUS
10
139.022
20
-106.964
11
139.019
21
-106.935
0
LINE
8
BLACK
6
CONTINUOUS
10
139.019
20
-106.935
11
139.019
21
-105.285
0
LINE
8
BLACK
6
CONTINUOUS
10
139.019
20
-105.285
11
139.022
21
-105.256
0
LINE
8
BLACK
6
CONTINUOUS
10
139.022
20
-105.256
11
139.03
21
-105.228
0
LINE
8
BLACK
6
CONTINUOUS
10
139.03
20
-105.228
11
139.044
21
-105.202
0
LINE
8
BLACK
6
CONTINUOUS
10
139.044
20
-105.202
11
139.063
21
-105.179
0
LINE
8
BLACK
6
CONTINUOUS
10
139.063
20
-105.179
11
139.086
21
-105.16
0
LINE
8
BLACK
6
CONTINUOUS
10
139.086
20
-105.16
11
139.112
21
-105.146
0
LINE
8
BLACK
6
CONTINUOUS
10
139.112
20
-105.146
11
139.14
21
-105.138
0
LINE
8
BLACK
6
CONTINUOUS
10
139.14
20
-105.138
11
139.169
21
-105.135
0
LINE
8
BLACK
6
CONTINUOUS
10
139.169
20
-105.135
11
139.469
21
-105.135
0
LINE
8
BLACK
6
CONTINUOUS
10
139.469
20
-105.135
11
139.498
21
-105.138
0
LINE
8
BLACK
6
CONTINUOUS
10
138.228
20
-105.138
11
138.256
21
-105.146
0
LINE
8
BLACK
6
CONTINUOUS
10
138.256
20
-105.146
11
138.282
21
-105.16
0
LINE
8
BLACK
6
CONTINUOUS
10
138.282
20
-105.16
11
138.305
21
-105.179
0
LINE
8
BLACK
6
CONTINUOUS
10
138.305
20
-105.179
11
138.324
21
-105.202
0
LINE
8
BLACK
6
CONTINUOUS
10
138.324
20
-105.202
11
138.338
21
-105.228
0
LINE
8
BLACK
6
CONTINUOUS
10
138.338
20
-105.228
11
138.346
21
-105.256
0
LINE
8
BLACK
6
CONTINUOUS
10
138.346
20
-105.256
11
138.349
21
-105.285
0
LINE
8
BLACK
6
CONTINUOUS
10
138.349
20
-105.285
11
138.349
21
-106.935
0
LINE
8
BLACK
6
CONTINUOUS
10
138.349
20
-106.935
11
138.346
21
-106.964
0
LINE
8
BLACK
6
CONTINUOUS
10
138.346
20
-106.964
11
138.338
21
-106.992
0
LINE
8
BLACK
6
CONTINUOUS
10
138.338
20
-106.992
11
138.324
21
-107.018
0
LINE
8
BLACK
6
CONTINUOUS
10
138.324
20
-107.018
11
138.305
21
-107.041
0
LINE
8
BLACK
6
CONTINUOUS
10
138.305
20
-107.041
11
138.282
21
-107.06
0
LINE
8
BLACK
6
CONTINUOUS
10
138.282
20
-107.06
11
138.256
21
-107.074
0
LINE
8
BLACK
6
CONTINUOUS
10
138.256
20
-107.074
11
138.228
21
-107.082
0
LINE
8
BLACK
6
CONTINUOUS
10
138.228
20
-107.082
11
138.199
21
-107.085
0
LINE
8
BLACK
6
CONTINUOUS
10
138.199
20
-107.085
11
137.899
21
-107.085
0
LINE
8
BLACK
6
CONTINUOUS
10
137.899
20
-107.085
11
137.87
21
-107.082
0
LINE
8
BLACK
6
CONTINUOUS
10
137.87
20
-107.082
11
137.842
21
-107.074
0
LINE
8
BLACK
6
CONTINUOUS
10
137.842
20
-107.074
11
137.816
21
-107.06
0
LINE
8
BLACK
6
CONTINUOUS
10
137.816
20
-107.06
11
137.793
21
-107.041
0
LINE
8
BLACK
6
CONTINUOUS
10
137.793
20
-107.041
11
137.774
21
-107.018
0
LINE
8
BLACK
6
CONTINUOUS
10
137.774
20
-107.018
11
137.76
21
-106.992
0
LINE
8
BLACK
6
CONTINUOUS
10
137.76
20
-106.992
11
137.752
21
-106.964
0
LINE
8
BLACK
6
CONTINUOUS
10
137.752
20
-106.964
11
137.749
21
-106.935
0
LINE
8
BLACK
6
CONTINUOUS
10
137.749
20
-106.935
11
137.749
21
-105.285
0
LINE
8
BLACK
6
CONTINUOUS
10
137.749
20
-105.285
11
137.752
21
-105.256
0
LINE
8
BLACK
6
CONTINUOUS
10
137.752
20
-105.256
11
137.76
21
-105.228
0
LINE
8
BLACK
6
CONTINUOUS
10
137.76
20
-105.228
11
137.774
21
-105.202
0
LINE
8
BLACK
6
CONTINUOUS
10
137.774
20
-105.202
11
137.793
21
-105.179
0
LINE
8
BLACK
6
CONTINUOUS
10
137.793
20
-105.179
11
137.816
21
-105.16
0
LINE
8
BLACK
6
CONTINUOUS
10
137.816
20
-105.16
11
137.842
21
-105.146
0
LINE
8
BLACK
6
CONTINUOUS
10
137.842
20
-105.146
11
137.87
21
-105.138
0
LINE
8
BLACK
6
CONTINUOUS
10
137.87
20
-105.138
11
137.899
21
-105.135
0
LINE
8
BLACK
6
CONTINUOUS
10
137.899
20
-105.135
11
138.199
21
-105.135
0
LINE
8
BLACK
6
CONTINUOUS
10
138.199
20
-105.135
11
138.228
21
-105.138
0
LINE
8
BLACK
6
CONTINUOUS
10
136.958
20
-105.138
11
136.986
21
-105.146
0
LINE
8
BLACK
6
CONTINUOUS
10
136.986
20
-105.146
11
137.012
21
-105.16
0
LINE
8
BLACK
6
CONTINUOUS
10
137.012
20
-105.16
11
137.035
21
-105.179
0
LINE
8
BLACK
6
CONTINUOUS
10
137.035
20
-105.179
11
137.054
21
-105.202
0
LINE
8
BLACK
6
CONTINUOUS
10
137.054
20
-105.202
11
137.068
21
-105.228
0
LINE
8
BLACK
6
CONTINUOUS
10
137.068
20
-105.228
11
137.076
21
-105.256
0
LINE
8
BLACK
6
CONTINUOUS
10
137.076
20
-105.256
11
137.079
21
-105.285
0
LINE
8
BLACK
6
CONTINUOUS
10
137.079
20
-105.285
11
137.079
21
-106.935
0
LINE
8
BLACK
6
CONTINUOUS
10
137.079
20
-106.935
11
137.076
21
-106.964
0
LINE
8
BLACK
6
CONTINUOUS
10
137.076
20
-106.964
11
137.068
21
-106.992
0
LINE
8
BLACK
6
CONTINUOUS
10
137.068
20
-106.992
11
137.054
21
-107.018
0
LINE
8
BLACK
6
CONTINUOUS
10
137.054
20
-107.018
11
137.035
21
-107.041
0
LINE
8
BLACK
6
CONTINUOUS
10
137.035
20
-107.041
11
137.012
21
-107.06
0
LINE
8
BLACK
6
CONTINUOUS
10
137.012
20
-107.06
11
136.986
21
-107.074
0
LINE
8
BLACK
6
CONTINUOUS
10
136.986
20
-107.074
11
136.958
21
-107.082
0
LINE
8
BLACK
6
CONTINUOUS
10
136.958
20
-107.082
11
136.929
21
-107.085
0
LINE
8
BLACK
6
CONTINUOUS
10
136.929
20
-107.085
11
136.629
21
-107.085
0
LINE
8
BLACK
6
CONTINUOUS
10
136.629
20
-107.085
11
136.6
21
-107.082
0
LINE
8
BLACK
6
CONTINUOUS
10
136.6
20
-107.082
11
136.572
21
-107.074
0
LINE
8
BLACK
6
CONTINUOUS
10
136.572
20
-107.074
11
136.546
21
-107.06
0
LINE
8
BLACK
6
CONTINUOUS
10
136.546
20
-107.06
11
136.523
21
-107.041
0
LINE
8
BLACK
6
CONTINUOUS
10
136.523
20
-107.041
11
136.504
21
-107.018
0
LINE
8
BLACK
6
CONTINUOUS
10
136.504
20
-107.018
11
136.49
21
-106.992
0
LINE
8
BLACK
6
CONTINUOUS
10
136.49
20
-106.992
11
136.482
21
-106.964
0
LINE
8
BLACK
6
CONTINUOUS
10
136.482
20
-106.964
11
136.479
21
-106.935
0
LINE
8
BLACK
6
CONTINUOUS
10
136.479
20
-106.935
11
136.479
21
-105.285
0
LINE
8
BLACK
6
CONTINUOUS
10
136.479
20
-105.285
11
136.482
21
-105.256
0
LINE
8
BLACK
6
CONTINUOUS
10
136.482
20
-105.256
11
136.49
21
-105.228
0
LINE
8
BLACK
6
CONTINUOUS
10
136.49
20
-105.228
11
136.504
21
-105.202
0
LINE
8
BLACK
6
CONTINUOUS
10
136.504
20
-105.202
11
136.523
21
-105.179
0
LINE
8
BLACK
6
CONTINUOUS
10
136.523
20
-105.179
11
136.546
21
-105.16
0
LINE
8
BLACK
6
CONTINUOUS
10
136.546
20
-105.16
11
136.572
21
-105.146
0
LINE
8
BLACK
6
CONTINUOUS
10
136.572
20
-105.146
11
136.6
21
-105.138
0
LINE
8
BLACK
6
CONTINUOUS
10
136.6
20
-105.138
11
136.629
21
-105.135
0
LINE
8
BLACK
6
CONTINUOUS
10
136.629
20
-105.135
11
136.929
21
-105.135
0
LINE
8
BLACK
6
CONTINUOUS
10
136.929
20
-105.135
11
136.958
21
-105.138
0
LINE
8
BLACK
6
CONTINUOUS
10
135.688
20
-105.138
11
135.716
21
-105.146
0
LINE
8
BLACK
6
CONTINUOUS
10
135.716
20
-105.146
11
135.742
21
-105.16
0
LINE
8
BLACK
6
CONTINUOUS
10
135.742
20
-105.16
11
135.765
21
-105.179
0
LINE
8
BLACK
6
CONTINUOUS
10
135.765
20
-105.179
11
135.784
21
-105.202
0
LINE
8
BLACK
6
CONTINUOUS
10
135.784
20
-105.202
11
135.798
21
-105.228
0
LINE
8
BLACK
6
CONTINUOUS
10
135.798
20
-105.228
11
135.806
21
-105.256
0
LINE
8
BLACK
6
CONTINUOUS
10
135.806
20
-105.256
11
135.809
21
-105.285
0
LINE
8
BLACK
6
CONTINUOUS
10
135.809
20
-105.285
11
135.809
21
-106.935
0
LINE
8
BLACK
6
CONTINUOUS
10
135.809
20
-106.935
11
135.806
21
-106.964
0
LINE
8
BLACK
6
CONTINUOUS
10
135.806
20
-106.964
11
135.798
21
-106.992
0
LINE
8
BLACK
6
CONTINUOUS
10
135.798
20
-106.992
11
135.784
21
-107.018
0
LINE
8
BLACK
6
CONTINUOUS
10
135.784
20
-107.018
11
135.765
21
-107.041
0
LINE
8
BLACK
6
CONTINUOUS
10
135.765
20
-107.041
11
135.742
21
-107.06
0
LINE
8
BLACK
6
CONTINUOUS
10
135.742
20
-107.06
11
135.716
21
-107.074
0
LINE
8
BLACK
6
CONTINUOUS
10
135.716
20
-107.074
11
135.688
21
-107.082
0
LINE
8
BLACK
6
CONTINUOUS
10
135.688
20
-107.082
11
135.659
21
-107.085
0
LINE
8
BLACK
6
CONTINUOUS
10
135.659
20
-107.085
11
135.359
21
-107.085
0
LINE
8
BLACK
6
CONTINUOUS
10
135.359
20
-107.085
11
135.33
21
-107.082
0
LINE
8
BLACK
6
CONTINUOUS
10
135.33
20
-107.082
11
135.302
21
-107.074
0
LINE
8
BLACK
6
CONTINUOUS
10
135.302
20
-107.074
11
135.276
21
-107.06
0
LINE
8
BLACK
6
CONTINUOUS
10
135.276
20
-107.06
11
135.253
21
-107.041
0
LINE
8
BLACK
6
CONTINUOUS
10
135.253
20
-107.041
11
135.234
21
-107.018
0
LINE
8
BLACK
6
CONTINUOUS
10
135.234
20
-107.018
11
135.22
21
-106.992
0
LINE
8
BLACK
6
CONTINUOUS
10
135.22
20
-106.992
11
135.212
21
-106.964
0
LINE
8
BLACK
6
CONTINUOUS
10
135.212
20
-106.964
11
135.209
21
-106.935
0
LINE
8
BLACK
6
CONTINUOUS
10
135.209
20
-106.935
11
135.209
21
-105.285
0
LINE
8
BLACK
6
CONTINUOUS
10
135.209
20
-105.285
11
135.212
21
-105.256
0
LINE
8
BLACK
6
CONTINUOUS
10
135.212
20
-105.256
11
135.22
21
-105.228
0
LINE
8
BLACK
6
CONTINUOUS
10
135.22
20
-105.228
11
135.234
21
-105.202
0
LINE
8
BLACK
6
CONTINUOUS
10
135.234
20
-105.202
11
135.253
21
-105.179
0
LINE
8
BLACK
6
CONTINUOUS
10
135.253
20
-105.179
11
135.276
21
-105.16
0
LINE
8
BLACK
6
CONTINUOUS
10
135.276
20
-105.16
11
135.302
21
-105.146
0
LINE
8
BLACK
6
CONTINUOUS
10
135.302
20
-105.146
11
135.33
21
-105.138
0
LINE
8
BLACK
6
CONTINUOUS
10
135.33
20
-105.138
11
135.359
21
-105.135
0
LINE
8
BLACK
6
CONTINUOUS
10
135.359
20
-105.135
11
135.659
21
-105.135
0
LINE
8
BLACK
6
CONTINUOUS
10
135.659
20
-105.135
11
135.688
21
-105.138
0
LINE
8
BLACK
6
CONTINUOUS
10
130.608
20
-105.138
11
130.636
21
-105.146
0
LINE
8
BLACK
6
CONTINUOUS
10
130.636
20
-105.146
11
130.662
21
-105.16
0
LINE
8
BLACK
6
CONTINUOUS
10
130.662
20
-105.16
11
130.685
21
-105.179
0
LINE
8
BLACK
6
CONTINUOUS
10
130.685
20
-105.179
11
130.704
21
-105.202
0
LINE
8
BLACK
6
CONTINUOUS
10
130.704
20
-105.202
11
130.718
21
-105.228
0
LINE
8
BLACK
6
CONTINUOUS
10
130.718
20
-105.228
11
130.726
21
-105.256
0
LINE
8
BLACK
6
CONTINUOUS
10
130.726
20
-105.256
11
130.729
21
-105.285
0
LINE
8
BLACK
6
CONTINUOUS
10
130.729
20
-105.285
11
130.729
21
-106.935
0
LINE
8
BLACK
6
CONTINUOUS
10
130.729
20
-106.935
11
130.726
21
-106.964
0
LINE
8
BLACK
6
CONTINUOUS
10
130.726
20
-106.964
11
130.718
21
-106.992
0
LINE
8
BLACK
6
CONTINUOUS
10
130.718
20
-106.992
11
130.704
21
-107.018
0
LINE
8
BLACK
6
CONTINUOUS
10
130.704
20
-107.018
11
130.685
21
-107.041
0
LINE
8
BLACK
6
CONTINUOUS
10
130.685
20
-107.041
11
130.662
21
-107.06
0
LINE
8
BLACK
6
CONTINUOUS
10
130.662
20
-107.06
11
130.636
21
-107.074
0
LINE
8
BLACK
6
CONTINUOUS
10
130.636
20
-107.074
11
130.608
21
-107.082
0
LINE
8
BLACK
6
CONTINUOUS
10
130.608
20
-107.082
11
130.579
21
-107.085
0
LINE
8
BLACK
6
CONTINUOUS
10
130.579
20
-107.085
11
130.279
21
-107.085
0
LINE
8
BLACK
6
CONTINUOUS
10
130.279
20
-107.085
11
130.25
21
-107.082
0
LINE
8
BLACK
6
CONTINUOUS
10
130.25
20
-107.082
11
130.222
21
-107.074
0
LINE
8
BLACK
6
CONTINUOUS
10
130.222
20
-107.074
11
130.196
21
-107.06
0
LINE
8
BLACK
6
CONTINUOUS
10
130.196
20
-107.06
11
130.173
21
-107.041
0
LINE
8
BLACK
6
CONTINUOUS
10
130.173
20
-107.041
11
130.154
21
-107.018
0
LINE
8
BLACK
6
CONTINUOUS
10
130.154
20
-107.018
11
130.14
21
-106.992
0
LINE
8
BLACK
6
CONTINUOUS
10
130.14
20
-106.992
11
130.132
21
-106.964
0
LINE
8
BLACK
6
CONTINUOUS
10
130.132
20
-106.964
11
130.129
21
-106.935
0
LINE
8
BLACK
6
CONTINUOUS
10
130.129
20
-106.935
11
130.129
21
-105.285
0
LINE
8
BLACK
6
CONTINUOUS
10
130.129
20
-105.285
11
130.132
21
-105.256
0
LINE
8
BLACK
6
CONTINUOUS
10
130.132
20
-105.256
11
130.14
21
-105.228
0
LINE
8
BLACK
6
CONTINUOUS
10
130.14
20
-105.228
11
130.154
21
-105.202
0
LINE
8
BLACK
6
CONTINUOUS
10
130.154
20
-105.202
11
130.173
21
-105.179
0
LINE
8
BLACK
6
CONTINUOUS
10
130.173
20
-105.179
11
130.196
21
-105.16
0
LINE
8
BLACK
6
CONTINUOUS
10
130.196
20
-105.16
11
130.222
21
-105.146
0
LINE
8
BLACK
6
CONTINUOUS
10
130.222
20
-105.146
11
130.25
21
-105.138
0
LINE
8
BLACK
6
CONTINUOUS
10
130.25
20
-105.138
11
130.279
21
-105.135
0
LINE
8
BLACK
6
CONTINUOUS
10
130.279
20
-105.135
11
130.579
21
-105.135
0
LINE
8
BLACK
6
CONTINUOUS
10
130.579
20
-105.135
11
130.608
21
-105.138
0
LINE
8
BLACK
6
CONTINUOUS
10
134.418
20
-105.138
11
134.446
21
-105.146
0
LINE
8
BLACK
6
CONTINUOUS
10
134.446
20
-105.146
11
134.472
21
-105.16
0
LINE
8
BLACK
6
CONTINUOUS
10
134.472
20
-105.16
11
134.495
21
-105.179
0
LINE
8
BLACK
6
CONTINUOUS
10
134.495
20
-105.179
11
134.514
21
-105.202
0
LINE
8
BLACK
6
CONTINUOUS
10
134.514
20
-105.202
11
134.528
21
-105.228
0
LINE
8
BLACK
6
CONTINUOUS
10
134.528
20
-105.228
11
134.536
21
-105.256
0
LINE
8
BLACK
6
CONTINUOUS
10
134.536
20
-105.256
11
134.539
21
-105.285
0
LINE
8
BLACK
6
CONTINUOUS
10
134.539
20
-105.285
11
134.539
21
-106.935
0
LINE
8
BLACK
6
CONTINUOUS
10
134.539
20
-106.935
11
134.536
21
-106.964
0
LINE
8
BLACK
6
CONTINUOUS
10
134.536
20
-106.964
11
134.528
21
-106.992
0
LINE
8
BLACK
6
CONTINUOUS
10
134.528
20
-106.992
11
134.514
21
-107.018
0
LINE
8
BLACK
6
CONTINUOUS
10
134.514
20
-107.018
11
134.495
21
-107.041
0
LINE
8
BLACK
6
CONTINUOUS
10
134.495
20
-107.041
11
134.472
21
-107.06
0
LINE
8
BLACK
6
CONTINUOUS
10
134.472
20
-107.06
11
134.446
21
-107.074
0
LINE
8
BLACK
6
CONTINUOUS
10
134.446
20
-107.074
11
134.418
21
-107.082
0
LINE
8
BLACK
6
CONTINUOUS
10
134.418
20
-107.082
11
134.389
21
-107.085
0
LINE
8
BLACK
6
CONTINUOUS
10
134.389
20
-107.085
11
134.089
21
-107.085
0
LINE
8
BLACK
6
CONTINUOUS
10
134.089
20
-107.085
11
134.06
21
-107.082
0
LINE
8
BLACK
6
CONTINUOUS
10
134.06
20
-107.082
11
134.032
21
-107.074
0
LINE
8
BLACK
6
CONTINUOUS
10
134.032
20
-107.074
11
134.006
21
-107.06
0
LINE
8
BLACK
6
CONTINUOUS
10
134.006
20
-107.06
11
133.983
21
-107.041
0
LINE
8
BLACK
6
CONTINUOUS
10
133.983
20
-107.041
11
133.964
21
-107.018
0
LINE
8
BLACK
6
CONTINUOUS
10
133.964
20
-107.018
11
133.95
21
-106.992
0
LINE
8
BLACK
6
CONTINUOUS
10
133.95
20
-106.992
11
133.942
21
-106.964
0
LINE
8
BLACK
6
CONTINUOUS
10
133.942
20
-106.964
11
133.939
21
-106.935
0
LINE
8
BLACK
6
CONTINUOUS
10
133.939
20
-106.935
11
133.939
21
-105.285
0
LINE
8
BLACK
6
CONTINUOUS
10
133.939
20
-105.285
11
133.942
21
-105.256
0
LINE
8
BLACK
6
CONTINUOUS
10
133.942
20
-105.256
11
133.95
21
-105.228
0
LINE
8
BLACK
6
CONTINUOUS
10
133.95
20
-105.228
11
133.964
21
-105.202
0
LINE
8
BLACK
6
CONTINUOUS
10
133.964
20
-105.202
11
133.983
21
-105.179
0
LINE
8
BLACK
6
CONTINUOUS
10
133.983
20
-105.179
11
134.006
21
-105.16
0
LINE
8
BLACK
6
CONTINUOUS
10
134.006
20
-105.16
11
134.032
21
-105.146
0
LINE
8
BLACK
6
CONTINUOUS
10
134.032
20
-105.146
11
134.06
21
-105.138
0
LINE
8
BLACK
6
CONTINUOUS
10
134.06
20
-105.138
11
134.089
21
-105.135
0
LINE
8
BLACK
6
CONTINUOUS
10
134.089
20
-105.135
11
134.389
21
-105.135
0
LINE
8
BLACK
6
CONTINUOUS
10
134.389
20
-105.135
11
134.418
21
-105.138
0
LINE
8
BLACK
6
CONTINUOUS
10
133.148
20
-105.138
11
133.176
21
-105.146
0
LINE
8
BLACK
6
CONTINUOUS
10
133.176
20
-105.146
11
133.202
21
-105.16
0
LINE
8
BLACK
6
CONTINUOUS
10
133.202
20
-105.16
11
133.225
21
-105.179
0
LINE
8
BLACK
6
CONTINUOUS
10
133.225
20
-105.179
11
133.244
21
-105.202
0
LINE
8
BLACK
6
CONTINUOUS
10
133.244
20
-105.202
11
133.258
21
-105.228
0
LINE
8
BLACK
6
CONTINUOUS
10
133.258
20
-105.228
11
133.266
21
-105.256
0
LINE
8
BLACK
6
CONTINUOUS
10
133.266
20
-105.256
11
133.269
21
-105.285
0
LINE
8
BLACK
6
CONTINUOUS
10
133.269
20
-105.285
11
133.269
21
-106.935
0
LINE
8
BLACK
6
CONTINUOUS
10
133.269
20
-106.935
11
133.266
21
-106.964
0
LINE
8
BLACK
6
CONTINUOUS
10
133.266
20
-106.964
11
133.258
21
-106.992
0
LINE
8
BLACK
6
CONTINUOUS
10
133.258
20
-106.992
11
133.244
21
-107.018
0
LINE
8
BLACK
6
CONTINUOUS
10
133.244
20
-107.018
11
133.225
21
-107.041
0
LINE
8
BLACK
6
CONTINUOUS
10
133.225
20
-107.041
11
133.202
21
-107.06
0
LINE
8
BLACK
6
CONTINUOUS
10
133.202
20
-107.06
11
133.176
21
-107.074
0
LINE
8
BLACK
6
CONTINUOUS
10
133.176
20
-107.074
11
133.148
21
-107.082
0
LINE
8
BLACK
6
CONTINUOUS
10
133.148
20
-107.082
11
133.119
21
-107.085
0
LINE
8
BLACK
6
CONTINUOUS
10
133.119
20
-107.085
11
132.819
21
-107.085
0
LINE
8
BLACK
6
CONTINUOUS
10
132.819
20
-107.085
11
132.79
21
-107.082
0
LINE
8
BLACK
6
CONTINUOUS
10
132.79
20
-107.082
11
132.762
21
-107.074
0
LINE
8
BLACK
6
CONTINUOUS
10
132.762
20
-107.074
11
132.736
21
-107.06
0
LINE
8
BLACK
6
CONTINUOUS
10
132.736
20
-107.06
11
132.713
21
-107.041
0
LINE
8
BLACK
6
CONTINUOUS
10
132.713
20
-107.041
11
132.694
21
-107.018
0
LINE
8
BLACK
6
CONTINUOUS
10
132.694
20
-107.018
11
132.68
21
-106.992
0
LINE
8
BLACK
6
CONTINUOUS
10
132.68
20
-106.992
11
132.672
21
-106.964
0
LINE
8
BLACK
6
CONTINUOUS
10
132.672
20
-106.964
11
132.669
21
-106.935
0
LINE
8
BLACK
6
CONTINUOUS
10
132.669
20
-106.935
11
132.669
21
-105.285
0
LINE
8
BLACK
6
CONTINUOUS
10
132.669
20
-105.285
11
132.672
21
-105.256
0
LINE
8
BLACK
6
CONTINUOUS
10
132.672
20
-105.256
11
132.68
21
-105.228
0
LINE
8
BLACK
6
CONTINUOUS
10
132.68
20
-105.228
11
132.694
21
-105.202
0
LINE
8
BLACK
6
CONTINUOUS
10
132.694
20
-105.202
11
132.713
21
-105.179
0
LINE
8
BLACK
6
CONTINUOUS
10
132.713
20
-105.179
11
132.736
21
-105.16
0
LINE
8
BLACK
6
CONTINUOUS
10
132.736
20
-105.16
11
132.762
21
-105.146
0
LINE
8
BLACK
6
CONTINUOUS
10
132.762
20
-105.146
11
132.79
21
-105.138
0
LINE
8
BLACK
6
CONTINUOUS
10
132.79
20
-105.138
11
132.819
21
-105.135
0
LINE
8
BLACK
6
CONTINUOUS
10
132.819
20
-105.135
11
133.119
21
-105.135
0
LINE
8
BLACK
6
CONTINUOUS
10
133.119
20
-105.135
11
133.148
21
-105.138
0
LINE
8
BLACK
6
CONTINUOUS
10
131.878
20
-105.138
11
131.906
21
-105.146
0
LINE
8
BLACK
6
CONTINUOUS
10
131.906
20
-105.146
11
131.932
21
-105.16
0
LINE
8
BLACK
6
CONTINUOUS
10
131.932
20
-105.16
11
131.955
21
-105.179
0
LINE
8
BLACK
6
CONTINUOUS
10
131.955
20
-105.179
11
131.974
21
-105.202
0
LINE
8
BLACK
6
CONTINUOUS
10
131.974
20
-105.202
11
131.988
21
-105.228
0
LINE
8
BLACK
6
CONTINUOUS
10
131.988
20
-105.228
11
131.996
21
-105.256
0
LINE
8
BLACK
6
CONTINUOUS
10
131.996
20
-105.256
11
131.999
21
-105.285
0
LINE
8
BLACK
6
CONTINUOUS
10
131.999
20
-105.285
11
131.999
21
-106.935
0
LINE
8
BLACK
6
CONTINUOUS
10
131.999
20
-106.935
11
131.996
21
-106.964
0
LINE
8
BLACK
6
CONTINUOUS
10
131.996
20
-106.964
11
131.988
21
-106.992
0
LINE
8
BLACK
6
CONTINUOUS
10
131.988
20
-106.992
11
131.974
21
-107.018
0
LINE
8
BLACK
6
CONTINUOUS
10
131.974
20
-107.018
11
131.955
21
-107.041
0
LINE
8
BLACK
6
CONTINUOUS
10
131.955
20
-107.041
11
131.932
21
-107.06
0
LINE
8
BLACK
6
CONTINUOUS
10
131.932
20
-107.06
11
131.906
21
-107.074
0
LINE
8
BLACK
6
CONTINUOUS
10
131.906
20
-107.074
11
131.878
21
-107.082
0
LINE
8
BLACK
6
CONTINUOUS
10
131.878
20
-107.082
11
131.849
21
-107.085
0
LINE
8
BLACK
6
CONTINUOUS
10
131.849
20
-107.085
11
131.549
21
-107.085
0
LINE
8
BLACK
6
CONTINUOUS
10
131.549
20
-107.085
11
131.52
21
-107.082
0
LINE
8
BLACK
6
CONTINUOUS
10
131.52
20
-107.082
11
131.492
21
-107.074
0
LINE
8
BLACK
6
CONTINUOUS
10
131.492
20
-107.074
11
131.466
21
-107.06
0
LINE
8
BLACK
6
CONTINUOUS
10
131.466
20
-107.06
11
131.443
21
-107.041
0
LINE
8
BLACK
6
CONTINUOUS
10
131.443
20
-107.041
11
131.424
21
-107.018
0
LINE
8
BLACK
6
CONTINUOUS
10
131.424
20
-107.018
11
131.41
21
-106.992
0
LINE
8
BLACK
6
CONTINUOUS
10
131.41
20
-106.992
11
131.402
21
-106.964
0
LINE
8
BLACK
6
CONTINUOUS
10
131.402
20
-106.964
11
131.399
21
-106.935
0
LINE
8
BLACK
6
CONTINUOUS
10
131.399
20
-106.935
11
131.399
21
-105.285
0
LINE
8
BLACK
6
CONTINUOUS
10
131.399
20
-105.285
11
131.402
21
-105.256
0
LINE
8
BLACK
6
CONTINUOUS
10
131.402
20
-105.256
11
131.41
21
-105.228
0
LINE
8
BLACK
6
CONTINUOUS
10
131.41
20
-105.228
11
131.424
21
-105.202
0
LINE
8
BLACK
6
CONTINUOUS
10
131.424
20
-105.202
11
131.443
21
-105.179
0
LINE
8
BLACK
6
CONTINUOUS
10
131.443
20
-105.179
11
131.466
21
-105.16
0
LINE
8
BLACK
6
CONTINUOUS
10
131.466
20
-105.16
11
131.492
21
-105.146
0
LINE
8
BLACK
6
CONTINUOUS
10
131.492
20
-105.146
11
131.52
21
-105.138
0
LINE
8
BLACK
6
CONTINUOUS
10
131.52
20
-105.138
11
131.549
21
-105.135
0
LINE
8
BLACK
6
CONTINUOUS
10
131.549
20
-105.135
11
131.849
21
-105.135
0
LINE
8
BLACK
6
CONTINUOUS
10
131.849
20
-105.135
11
131.878
21
-105.138
0
LINE
8
BLACK
6
CONTINUOUS
10
182.792
20
-103.774
11
182.839
21
-103.788
0
LINE
8
BLACK
6
CONTINUOUS
10
182.839
20
-103.788
11
182.882
21
-103.811
0
LINE
8
BLACK
6
CONTINUOUS
10
182.882
20
-103.811
11
182.92
21
-103.842
0
LINE
8
BLACK
6
CONTINUOUS
10
182.92
20
-103.842
11
182.951
21
-103.88
0
LINE
8
BLACK
6
CONTINUOUS
10
182.951
20
-103.88
11
182.974
21
-103.923
0
LINE
8
BLACK
6
CONTINUOUS
10
182.974
20
-103.923
11
182.988
21
-103.97
0
LINE
8
BLACK
6
CONTINUOUS
10
182.988
20
-103.97
11
182.993
21
-104.019
0
LINE
8
BLACK
6
CONTINUOUS
10
182.993
20
-104.019
11
182.993
21
-104.769
0
LINE
8
BLACK
6
CONTINUOUS
10
182.993
20
-104.769
11
182.988
21
-104.818
0
LINE
8
BLACK
6
CONTINUOUS
10
182.988
20
-104.818
11
182.974
21
-104.865
0
LINE
8
BLACK
6
CONTINUOUS
10
182.974
20
-104.865
11
182.951
21
-104.908
0
LINE
8
BLACK
6
CONTINUOUS
10
182.951
20
-104.908
11
182.92
21
-104.946
0
LINE
8
BLACK
6
CONTINUOUS
10
182.92
20
-104.946
11
182.882
21
-104.977
0
LINE
8
BLACK
6
CONTINUOUS
10
182.882
20
-104.977
11
182.839
21
-105
0
LINE
8
BLACK
6
CONTINUOUS
10
182.839
20
-105
11
182.792
21
-105.014
0
LINE
8
BLACK
6
CONTINUOUS
10
182.792
20
-105.014
11
182.743
21
-105.019
0
LINE
8
BLACK
6
CONTINUOUS
10
182.743
20
-105.019
11
181.493
21
-105.019
0
LINE
8
BLACK
6
CONTINUOUS
10
181.493
20
-105.019
11
181.444
21
-105.014
0
LINE
8
BLACK
6
CONTINUOUS
10
181.444
20
-105.014
11
181.397
21
-105
0
LINE
8
BLACK
6
CONTINUOUS
10
181.397
20
-105
11
181.354
21
-104.977
0
LINE
8
BLACK
6
CONTINUOUS
10
181.354
20
-104.977
11
181.316
21
-104.946
0
LINE
8
BLACK
6
CONTINUOUS
10
181.316
20
-104.946
11
181.285
21
-104.908
0
LINE
8
BLACK
6
CONTINUOUS
10
181.285
20
-104.908
11
181.262
21
-104.865
0
LINE
8
BLACK
6
CONTINUOUS
10
181.262
20
-104.865
11
181.248
21
-104.818
0
LINE
8
BLACK
6
CONTINUOUS
10
181.248
20
-104.818
11
181.243
21
-104.769
0
LINE
8
BLACK
6
CONTINUOUS
10
181.243
20
-104.769
11
181.243
21
-104.019
0
LINE
8
BLACK
6
CONTINUOUS
10
181.243
20
-104.019
11
181.248
21
-103.97
0
LINE
8
BLACK
6
CONTINUOUS
10
181.248
20
-103.97
11
181.262
21
-103.923
0
LINE
8
BLACK
6
CONTINUOUS
10
181.262
20
-103.923
11
181.285
21
-103.88
0
LINE
8
BLACK
6
CONTINUOUS
10
181.285
20
-103.88
11
181.316
21
-103.842
0
LINE
8
BLACK
6
CONTINUOUS
10
181.316
20
-103.842
11
181.354
21
-103.811
0
LINE
8
BLACK
6
CONTINUOUS
10
181.354
20
-103.811
11
181.397
21
-103.788
0
LINE
8
BLACK
6
CONTINUOUS
10
181.397
20
-103.788
11
181.444
21
-103.774
0
LINE
8
BLACK
6
CONTINUOUS
10
181.444
20
-103.774
11
181.493
21
-103.769
0
LINE
8
BLACK
6
CONTINUOUS
10
181.493
20
-103.769
11
182.743
21
-103.769
0
LINE
8
BLACK
6
CONTINUOUS
10
182.743
20
-103.769
11
182.792
21
-103.774
0
LINE
8
BLACK
6
CONTINUOUS
10
185.162
20
-103.149
11
185.208
21
-103.163
0
LINE
8
BLACK
6
CONTINUOUS
10
185.208
20
-103.163
11
185.25
21
-103.186
0
LINE
8
BLACK
6
CONTINUOUS
10
185.25
20
-103.186
11
185.287
21
-103.216
0
LINE
8
BLACK
6
CONTINUOUS
10
185.287
20
-103.216
11
185.317
21
-103.253
0
LINE
8
BLACK
6
CONTINUOUS
10
185.317
20
-103.253
11
185.339
21
-103.295
0
LINE
8
BLACK
6
CONTINUOUS
10
185.339
20
-103.295
11
185.353
21
-103.341
0
LINE
8
BLACK
6
CONTINUOUS
10
185.353
20
-103.341
11
185.358
21
-103.388
0
LINE
8
BLACK
6
CONTINUOUS
10
185.358
20
-103.388
11
185.358
21
-103.876
0
LINE
8
BLACK
6
CONTINUOUS
10
185.358
20
-103.876
11
185.353
21
-103.923
0
LINE
8
BLACK
6
CONTINUOUS
10
185.353
20
-103.923
11
185.339
21
-103.969
0
LINE
8
BLACK
6
CONTINUOUS
10
185.339
20
-103.969
11
185.317
21
-104.011
0
LINE
8
BLACK
6
CONTINUOUS
10
185.317
20
-104.011
11
185.287
21
-104.048
0
LINE
8
BLACK
6
CONTINUOUS
10
185.287
20
-104.048
11
185.25
21
-104.078
0
LINE
8
BLACK
6
CONTINUOUS
10
185.25
20
-104.078
11
185.208
21
-104.101
0
LINE
8
BLACK
6
CONTINUOUS
10
185.208
20
-104.101
11
185.162
21
-104.115
0
LINE
8
BLACK
6
CONTINUOUS
10
185.162
20
-104.115
11
185.114
21
-104.12
0
LINE
8
BLACK
6
CONTINUOUS
10
185.114
20
-104.12
11
184.202
21
-104.12
0
LINE
8
BLACK
6
CONTINUOUS
10
184.202
20
-104.12
11
184.154
21
-104.115
0
LINE
8
BLACK
6
CONTINUOUS
10
184.154
20
-104.115
11
184.108
21
-104.101
0
LINE
8
BLACK
6
CONTINUOUS
10
184.108
20
-104.101
11
184.066
21
-104.078
0
LINE
8
BLACK
6
CONTINUOUS
10
184.066
20
-104.078
11
184.029
21
-104.048
0
LINE
8
BLACK
6
CONTINUOUS
10
184.029
20
-104.048
11
183.999
21
-104.011
0
LINE
8
BLACK
6
CONTINUOUS
10
183.999
20
-104.011
11
183.977
21
-103.969
0
LINE
8
BLACK
6
CONTINUOUS
10
183.977
20
-103.969
11
183.963
21
-103.923
0
LINE
8
BLACK
6
CONTINUOUS
10
183.963
20
-103.923
11
183.958
21
-103.876
0
LINE
8
BLACK
6
CONTINUOUS
10
183.958
20
-103.876
11
183.958
21
-103.388
0
LINE
8
BLACK
6
CONTINUOUS
10
183.958
20
-103.388
11
183.963
21
-103.341
0
LINE
8
BLACK
6
CONTINUOUS
10
183.963
20
-103.341
11
183.977
21
-103.295
0
LINE
8
BLACK
6
CONTINUOUS
10
183.977
20
-103.295
11
183.999
21
-103.253
0
LINE
8
BLACK
6
CONTINUOUS
10
183.999
20
-103.253
11
184.029
21
-103.216
0
LINE
8
BLACK
6
CONTINUOUS
10
184.029
20
-103.216
11
184.066
21
-103.186
0
LINE
8
BLACK
6
CONTINUOUS
10
184.066
20
-103.186
11
184.108
21
-103.163
0
LINE
8
BLACK
6
CONTINUOUS
10
184.108
20
-103.163
11
184.154
21
-103.149
0
LINE
8
BLACK
6
CONTINUOUS
10
184.154
20
-103.149
11
184.202
21
-103.144
0
LINE
8
BLACK
6
CONTINUOUS
10
184.202
20
-103.144
11
185.114
21
-103.144
0
LINE
8
BLACK
6
CONTINUOUS
10
185.114
20
-103.144
11
185.162
21
-103.149
0
LINE
8
BLACK
6
CONTINUOUS
10
132.371
20
-102.683
11
132.417
21
-102.697
0
LINE
8
BLACK
6
CONTINUOUS
10
132.417
20
-102.697
11
132.459
21
-102.719
0
LINE
8
BLACK
6
CONTINUOUS
10
132.459
20
-102.719
11
132.496
21
-102.749
0
LINE
8
BLACK
6
CONTINUOUS
10
132.496
20
-102.749
11
132.526
21
-102.786
0
LINE
8
BLACK
6
CONTINUOUS
10
132.526
20
-102.786
11
132.549
21
-102.828
0
LINE
8
BLACK
6
CONTINUOUS
10
132.549
20
-102.828
11
132.563
21
-102.874
0
LINE
8
BLACK
6
CONTINUOUS
10
132.563
20
-102.874
11
132.567
21
-102.922
0
LINE
8
BLACK
6
CONTINUOUS
10
132.567
20
-102.922
11
132.567
21
-103.834
0
LINE
8
BLACK
6
CONTINUOUS
10
132.567
20
-103.834
11
132.563
21
-103.882
0
LINE
8
BLACK
6
CONTINUOUS
10
132.563
20
-103.882
11
132.549
21
-103.928
0
LINE
8
BLACK
6
CONTINUOUS
10
132.549
20
-103.928
11
132.526
21
-103.97
0
LINE
8
BLACK
6
CONTINUOUS
10
132.526
20
-103.97
11
132.496
21
-104.007
0
LINE
8
BLACK
6
CONTINUOUS
10
132.496
20
-104.007
11
132.459
21
-104.037
0
LINE
8
BLACK
6
CONTINUOUS
10
132.459
20
-104.037
11
132.417
21
-104.059
0
LINE
8
BLACK
6
CONTINUOUS
10
132.417
20
-104.059
11
132.371
21
-104.073
0
LINE
8
BLACK
6
CONTINUOUS
10
132.371
20
-104.073
11
132.324
21
-104.078
0
LINE
8
BLACK
6
CONTINUOUS
10
132.324
20
-104.078
11
131.836
21
-104.078
0
LINE
8
BLACK
6
CONTINUOUS
10
131.836
20
-104.078
11
131.789
21
-104.073
0
LINE
8
BLACK
6
CONTINUOUS
10
131.789
20
-104.073
11
131.743
21
-104.059
0
LINE
8
BLACK
6
CONTINUOUS
10
131.743
20
-104.059
11
131.701
21
-104.037
0
LINE
8
BLACK
6
CONTINUOUS
10
131.701
20
-104.037
11
131.664
21
-104.007
0
LINE
8
BLACK
6
CONTINUOUS
10
131.664
20
-104.007
11
131.634
21
-103.97
0
LINE
8
BLACK
6
CONTINUOUS
10
131.634
20
-103.97
11
131.611
21
-103.928
0
LINE
8
BLACK
6
CONTINUOUS
10
131.611
20
-103.928
11
131.597
21
-103.882
0
LINE
8
BLACK
6
CONTINUOUS
10
131.597
20
-103.882
11
131.593
21
-103.834
0
LINE
8
BLACK
6
CONTINUOUS
10
131.593
20
-103.834
11
131.593
21
-102.922
0
LINE
8
BLACK
6
CONTINUOUS
10
131.593
20
-102.922
11
131.597
21
-102.874
0
LINE
8
BLACK
6
CONTINUOUS
10
131.597
20
-102.874
11
131.611
21
-102.828
0
LINE
8
BLACK
6
CONTINUOUS
10
131.611
20
-102.828
11
131.634
21
-102.786
0
LINE
8
BLACK
6
CONTINUOUS
10
131.634
20
-102.786
11
131.664
21
-102.749
0
LINE
8
BLACK
6
CONTINUOUS
10
131.664
20
-102.749
11
131.701
21
-102.719
0
LINE
8
BLACK
6
CONTINUOUS
10
131.701
20
-102.719
11
131.743
21
-102.697
0
LINE
8
BLACK
6
CONTINUOUS
10
131.743
20
-102.697
11
131.789
21
-102.683
0
LINE
8
BLACK
6
CONTINUOUS
10
131.789
20
-102.683
11
131.836
21
-102.678
0
LINE
8
BLACK
6
CONTINUOUS
10
131.836
20
-102.678
11
132.324
21
-102.678
0
LINE
8
BLACK
6
CONTINUOUS
10
132.324
20
-102.678
11
132.371
21
-102.683
0
LINE
8
BLACK
6
CONTINUOUS
10
130.496
20
-102.683
11
130.542
21
-102.697
0
LINE
8
BLACK
6
CONTINUOUS
10
130.542
20
-102.697
11
130.584
21
-102.719
0
LINE
8
BLACK
6
CONTINUOUS
10
130.584
20
-102.719
11
130.621
21
-102.749
0
LINE
8
BLACK
6
CONTINUOUS
10
130.621
20
-102.749
11
130.651
21
-102.786
0
LINE
8
BLACK
6
CONTINUOUS
10
130.651
20
-102.786
11
130.674
21
-102.828
0
LINE
8
BLACK
6
CONTINUOUS
10
130.674
20
-102.828
11
130.688
21
-102.874
0
LINE
8
BLACK
6
CONTINUOUS
10
130.688
20
-102.874
11
130.692
21
-102.922
0
LINE
8
BLACK
6
CONTINUOUS
10
130.692
20
-102.922
11
130.692
21
-103.834
0
LINE
8
BLACK
6
CONTINUOUS
10
130.692
20
-103.834
11
130.688
21
-103.882
0
LINE
8
BLACK
6
CONTINUOUS
10
130.688
20
-103.882
11
130.674
21
-103.928
0
LINE
8
BLACK
6
CONTINUOUS
10
130.674
20
-103.928
11
130.651
21
-103.97
0
LINE
8
BLACK
6
CONTINUOUS
10
130.651
20
-103.97
11
130.621
21
-104.007
0
LINE
8
BLACK
6
CONTINUOUS
10
130.621
20
-104.007
11
130.584
21
-104.037
0
LINE
8
BLACK
6
CONTINUOUS
10
130.584
20
-104.037
11
130.542
21
-104.059
0
LINE
8
BLACK
6
CONTINUOUS
10
130.542
20
-104.059
11
130.496
21
-104.073
0
LINE
8
BLACK
6
CONTINUOUS
10
130.496
20
-104.073
11
130.449
21
-104.078
0
LINE
8
BLACK
6
CONTINUOUS
10
130.449
20
-104.078
11
129.961
21
-104.078
0
LINE
8
BLACK
6
CONTINUOUS
10
129.961
20
-104.078
11
129.914
21
-104.073
0
LINE
8
BLACK
6
CONTINUOUS
10
129.914
20
-104.073
11
129.868
21
-104.059
0
LINE
8
BLACK
6
CONTINUOUS
10
129.868
20
-104.059
11
129.826
21
-104.037
0
LINE
8
BLACK
6
CONTINUOUS
10
129.826
20
-104.037
11
129.789
21
-104.007
0
LINE
8
BLACK
6
CONTINUOUS
10
129.789
20
-104.007
11
129.759
21
-103.97
0
LINE
8
BLACK
6
CONTINUOUS
10
129.759
20
-103.97
11
129.736
21
-103.928
0
LINE
8
BLACK
6
CONTINUOUS
10
129.736
20
-103.928
11
129.722
21
-103.882
0
LINE
8
BLACK
6
CONTINUOUS
10
129.722
20
-103.882
11
129.718
21
-103.834
0
LINE
8
BLACK
6
CONTINUOUS
10
129.718
20
-103.834
11
129.718
21
-102.922
0
LINE
8
BLACK
6
CONTINUOUS
10
129.718
20
-102.922
11
129.722
21
-102.874
0
LINE
8
BLACK
6
CONTINUOUS
10
129.722
20
-102.874
11
129.736
21
-102.828
0
LINE
8
BLACK
6
CONTINUOUS
10
129.736
20
-102.828
11
129.759
21
-102.786
0
LINE
8
BLACK
6
CONTINUOUS
10
129.759
20
-102.786
11
129.789
21
-102.749
0
LINE
8
BLACK
6
CONTINUOUS
10
129.789
20
-102.749
11
129.826
21
-102.719
0
LINE
8
BLACK
6
CONTINUOUS
10
129.826
20
-102.719
11
129.868
21
-102.697
0
LINE
8
BLACK
6
CONTINUOUS
10
129.868
20
-102.697
11
129.914
21
-102.683
0
LINE
8
BLACK
6
CONTINUOUS
10
129.914
20
-102.683
11
129.961
21
-102.678
0
LINE
8
BLACK
6
CONTINUOUS
10
129.961
20
-102.678
11
130.449
21
-102.678
0
LINE
8
BLACK
6
CONTINUOUS
10
130.449
20
-102.678
11
130.496
21
-102.683
0
LINE
8
BLACK
6
CONTINUOUS
10
133.974
20
-102.683
11
134.02
21
-102.697
0
LINE
8
BLACK
6
CONTINUOUS
10
134.02
20
-102.697
11
134.062
21
-102.719
0
LINE
8
BLACK
6
CONTINUOUS
10
134.062
20
-102.719
11
134.099
21
-102.749
0
LINE
8
BLACK
6
CONTINUOUS
10
134.099
20
-102.749
11
134.129
21
-102.786
0
LINE
8
BLACK
6
CONTINUOUS
10
134.129
20
-102.786
11
134.151
21
-102.828
0
LINE
8
BLACK
6
CONTINUOUS
10
134.151
20
-102.828
11
134.165
21
-102.874
0
LINE
8
BLACK
6
CONTINUOUS
10
134.165
20
-102.874
11
134.17
21
-102.922
0
LINE
8
BLACK
6
CONTINUOUS
10
134.17
20
-102.922
11
134.17
21
-103.834
0
LINE
8
BLACK
6
CONTINUOUS
10
134.17
20
-103.834
11
134.165
21
-103.882
0
LINE
8
BLACK
6
CONTINUOUS
10
134.165
20
-103.882
11
134.151
21
-103.928
0
LINE
8
BLACK
6
CONTINUOUS
10
134.151
20
-103.928
11
134.129
21
-103.97
0
LINE
8
BLACK
6
CONTINUOUS
10
134.129
20
-103.97
11
134.099
21
-104.007
0
LINE
8
BLACK
6
CONTINUOUS
10
134.099
20
-104.007
11
134.062
21
-104.037
0
LINE
8
BLACK
6
CONTINUOUS
10
134.062
20
-104.037
11
134.02
21
-104.059
0
LINE
8
BLACK
6
CONTINUOUS
10
134.02
20
-104.059
11
133.974
21
-104.073
0
LINE
8
BLACK
6
CONTINUOUS
10
133.974
20
-104.073
11
133.926
21
-104.078
0
LINE
8
BLACK
6
CONTINUOUS
10
133.926
20
-104.078
11
133.439
21
-104.078
0
LINE
8
BLACK
6
CONTINUOUS
10
133.439
20
-104.078
11
133.391
21
-104.073
0
LINE
8
BLACK
6
CONTINUOUS
10
133.391
20
-104.073
11
133.345
21
-104.059
0
LINE
8
BLACK
6
CONTINUOUS
10
133.345
20
-104.059
11
133.303
21
-104.037
0
LINE
8
BLACK
6
CONTINUOUS
10
133.303
20
-104.037
11
133.266
21
-104.007
0
LINE
8
BLACK
6
CONTINUOUS
10
133.266
20
-104.007
11
133.236
21
-103.97
0
LINE
8
BLACK
6
CONTINUOUS
10
133.236
20
-103.97
11
133.214
21
-103.928
0
LINE
8
BLACK
6
CONTINUOUS
10
133.214
20
-103.928
11
133.2
21
-103.882
0
LINE
8
BLACK
6
CONTINUOUS
10
133.2
20
-103.882
11
133.195
21
-103.834
0
LINE
8
BLACK
6
CONTINUOUS
10
133.195
20
-103.834
11
133.195
21
-102.922
0
LINE
8
BLACK
6
CONTINUOUS
10
133.195
20
-102.922
11
133.2
21
-102.874
0
LINE
8
BLACK
6
CONTINUOUS
10
133.2
20
-102.874
11
133.214
21
-102.828
0
LINE
8
BLACK
6
CONTINUOUS
10
133.214
20
-102.828
11
133.236
21
-102.786
0
LINE
8
BLACK
6
CONTINUOUS
10
133.236
20
-102.786
11
133.266
21
-102.749
0
LINE
8
BLACK
6
CONTINUOUS
10
133.266
20
-102.749
11
133.303
21
-102.719
0
LINE
8
BLACK
6
CONTINUOUS
10
133.303
20
-102.719
11
133.345
21
-102.697
0
LINE
8
BLACK
6
CONTINUOUS
10
133.345
20
-102.697
11
133.391
21
-102.683
0
LINE
8
BLACK
6
CONTINUOUS
10
133.391
20
-102.683
11
133.439
21
-102.678
0
LINE
8
BLACK
6
CONTINUOUS
10
133.439
20
-102.678
11
133.926
21
-102.678
0
LINE
8
BLACK
6
CONTINUOUS
10
133.926
20
-102.678
11
133.974
21
-102.683
0
LINE
8
BLACK
6
CONTINUOUS
10
135.849
20
-102.683
11
135.895
21
-102.697
0
LINE
8
BLACK
6
CONTINUOUS
10
135.895
20
-102.697
11
135.937
21
-102.719
0
LINE
8
BLACK
6
CONTINUOUS
10
135.937
20
-102.719
11
135.974
21
-102.749
0
LINE
8
BLACK
6
CONTINUOUS
10
135.974
20
-102.749
11
136.004
21
-102.786
0
LINE
8
BLACK
6
CONTINUOUS
10
136.004
20
-102.786
11
136.026
21
-102.828
0
LINE
8
BLACK
6
CONTINUOUS
10
136.026
20
-102.828
11
136.04
21
-102.874
0
LINE
8
BLACK
6
CONTINUOUS
10
136.04
20
-102.874
11
136.045
21
-102.922
0
LINE
8
BLACK
6
CONTINUOUS
10
136.045
20
-102.922
11
136.045
21
-103.834
0
LINE
8
BLACK
6
CONTINUOUS
10
136.045
20
-103.834
11
136.04
21
-103.882
0
LINE
8
BLACK
6
CONTINUOUS
10
136.04
20
-103.882
11
136.026
21
-103.928
0
LINE
8
BLACK
6
CONTINUOUS
10
136.026
20
-103.928
11
136.004
21
-103.97
0
LINE
8
BLACK
6
CONTINUOUS
10
136.004
20
-103.97
11
135.974
21
-104.007
0
LINE
8
BLACK
6
CONTINUOUS
10
135.974
20
-104.007
11
135.937
21
-104.037
0
LINE
8
BLACK
6
CONTINUOUS
10
135.937
20
-104.037
11
135.895
21
-104.059
0
LINE
8
BLACK
6
CONTINUOUS
10
135.895
20
-104.059
11
135.849
21
-104.073
0
LINE
8
BLACK
6
CONTINUOUS
10
135.849
20
-104.073
11
135.801
21
-104.078
0
LINE
8
BLACK
6
CONTINUOUS
10
135.801
20
-104.078
11
135.314
21
-104.078
0
LINE
8
BLACK
6
CONTINUOUS
10
135.314
20
-104.078
11
135.266
21
-104.073
0
LINE
8
BLACK
6
CONTINUOUS
10
135.266
20
-104.073
11
135.22
21
-104.059
0
LINE
8
BLACK
6
CONTINUOUS
10
135.22
20
-104.059
11
135.178
21
-104.037
0
LINE
8
BLACK
6
CONTINUOUS
10
135.178
20
-104.037
11
135.141
21
-104.007
0
LINE
8
BLACK
6
CONTINUOUS
10
135.141
20
-104.007
11
135.111
21
-103.97
0
LINE
8
BLACK
6
CONTINUOUS
10
135.111
20
-103.97
11
135.089
21
-103.928
0
LINE
8
BLACK
6
CONTINUOUS
10
135.089
20
-103.928
11
135.075
21
-103.882
0
LINE
8
BLACK
6
CONTINUOUS
10
135.075
20
-103.882
11
135.07
21
-103.834
0
LINE
8
BLACK
6
CONTINUOUS
10
135.07
20
-103.834
11
135.07
21
-102.922
0
LINE
8
BLACK
6
CONTINUOUS
10
135.07
20
-102.922
11
135.075
21
-102.874
0
LINE
8
BLACK
6
CONTINUOUS
10
135.075
20
-102.874
11
135.089
21
-102.828
0
LINE
8
BLACK
6
CONTINUOUS
10
135.089
20
-102.828
11
135.111
21
-102.786
0
LINE
8
BLACK
6
CONTINUOUS
10
135.111
20
-102.786
11
135.141
21
-102.749
0
LINE
8
BLACK
6
CONTINUOUS
10
135.141
20
-102.749
11
135.178
21
-102.719
0
LINE
8
BLACK
6
CONTINUOUS
10
135.178
20
-102.719
11
135.22
21
-102.697
0
LINE
8
BLACK
6
CONTINUOUS
10
135.22
20
-102.697
11
135.266
21
-102.683
0
LINE
8
BLACK
6
CONTINUOUS
10
135.266
20
-102.683
11
135.314
21
-102.678
0
LINE
8
BLACK
6
CONTINUOUS
10
135.314
20
-102.678
11
135.801
21
-102.678
0
LINE
8
BLACK
6
CONTINUOUS
10
135.801
20
-102.678
11
135.849
21
-102.683
0
LINE
8
BLACK
6
CONTINUOUS
10
139.326
20
-102.683
11
139.372
21
-102.697
0
LINE
8
BLACK
6
CONTINUOUS
10
139.372
20
-102.697
11
139.414
21
-102.719
0
LINE
8
BLACK
6
CONTINUOUS
10
139.414
20
-102.719
11
139.451
21
-102.749
0
LINE
8
BLACK
6
CONTINUOUS
10
139.451
20
-102.749
11
139.481
21
-102.786
0
LINE
8
BLACK
6
CONTINUOUS
10
139.481
20
-102.786
11
139.504
21
-102.828
0
LINE
8
BLACK
6
CONTINUOUS
10
139.504
20
-102.828
11
139.518
21
-102.874
0
LINE
8
BLACK
6
CONTINUOUS
10
139.518
20
-102.874
11
139.522
21
-102.922
0
LINE
8
BLACK
6
CONTINUOUS
10
139.522
20
-102.922
11
139.522
21
-103.834
0
LINE
8
BLACK
6
CONTINUOUS
10
139.522
20
-103.834
11
139.518
21
-103.882
0
LINE
8
BLACK
6
CONTINUOUS
10
139.518
20
-103.882
11
139.504
21
-103.928
0
LINE
8
BLACK
6
CONTINUOUS
10
139.504
20
-103.928
11
139.481
21
-103.97
0
LINE
8
BLACK
6
CONTINUOUS
10
139.481
20
-103.97
11
139.451
21
-104.007
0
LINE
8
BLACK
6
CONTINUOUS
10
139.451
20
-104.007
11
139.414
21
-104.037
0
LINE
8
BLACK
6
CONTINUOUS
10
139.414
20
-104.037
11
139.372
21
-104.059
0
LINE
8
BLACK
6
CONTINUOUS
10
139.372
20
-104.059
11
139.326
21
-104.073
0
LINE
8
BLACK
6
CONTINUOUS
10
139.326
20
-104.073
11
139.279
21
-104.078
0
LINE
8
BLACK
6
CONTINUOUS
10
139.279
20
-104.078
11
138.791
21
-104.078
0
LINE
8
BLACK
6
CONTINUOUS
10
138.791
20
-104.078
11
138.744
21
-104.073
0
LINE
8
BLACK
6
CONTINUOUS
10
138.744
20
-104.073
11
138.698
21
-104.059
0
LINE
8
BLACK
6
CONTINUOUS
10
138.698
20
-104.059
11
138.656
21
-104.037
0
LINE
8
BLACK
6
CONTINUOUS
10
138.656
20
-104.037
11
138.619
21
-104.007
0
LINE
8
BLACK
6
CONTINUOUS
10
138.619
20
-104.007
11
138.589
21
-103.97
0
LINE
8
BLACK
6
CONTINUOUS
10
138.589
20
-103.97
11
138.566
21
-103.928
0
LINE
8
BLACK
6
CONTINUOUS
10
138.566
20
-103.928
11
138.552
21
-103.882
0
LINE
8
BLACK
6
CONTINUOUS
10
138.552
20
-103.882
11
138.547
21
-103.834
0
LINE
8
BLACK
6
CONTINUOUS
10
138.547
20
-103.834
11
138.547
21
-102.922
0
LINE
8
BLACK
6
CONTINUOUS
10
138.547
20
-102.922
11
138.552
21
-102.874
0
LINE
8
BLACK
6
CONTINUOUS
10
138.552
20
-102.874
11
138.566
21
-102.828
0
LINE
8
BLACK
6
CONTINUOUS
10
138.566
20
-102.828
11
138.589
21
-102.786
0
LINE
8
BLACK
6
CONTINUOUS
10
138.589
20
-102.786
11
138.619
21
-102.749
0
LINE
8
BLACK
6
CONTINUOUS
10
138.619
20
-102.749
11
138.656
21
-102.719
0
LINE
8
BLACK
6
CONTINUOUS
10
138.656
20
-102.719
11
138.698
21
-102.697
0
LINE
8
BLACK
6
CONTINUOUS
10
138.698
20
-102.697
11
138.744
21
-102.683
0
LINE
8
BLACK
6
CONTINUOUS
10
138.744
20
-102.683
11
138.791
21
-102.678
0
LINE
8
BLACK
6
CONTINUOUS
10
138.791
20
-102.678
11
139.279
21
-102.678
0
LINE
8
BLACK
6
CONTINUOUS
10
139.279
20
-102.678
11
139.326
21
-102.683
0
LINE
8
BLACK
6
CONTINUOUS
10
137.451
20
-102.683
11
137.497
21
-102.697
0
LINE
8
BLACK
6
CONTINUOUS
10
137.497
20
-102.697
11
137.539
21
-102.719
0
LINE
8
BLACK
6
CONTINUOUS
10
137.539
20
-102.719
11
137.576
21
-102.749
0
LINE
8
BLACK
6
CONTINUOUS
10
137.576
20
-102.749
11
137.606
21
-102.786
0
LINE
8
BLACK
6
CONTINUOUS
10
137.606
20
-102.786
11
137.629
21
-102.828
0
LINE
8
BLACK
6
CONTINUOUS
10
137.629
20
-102.828
11
137.643
21
-102.874
0
LINE
8
BLACK
6
CONTINUOUS
10
137.643
20
-102.874
11
137.648
21
-102.922
0
LINE
8
BLACK
6
CONTINUOUS
10
137.648
20
-102.922
11
137.648
21
-103.834
0
LINE
8
BLACK
6
CONTINUOUS
10
137.648
20
-103.834
11
137.643
21
-103.882
0
LINE
8
BLACK
6
CONTINUOUS
10
137.643
20
-103.882
11
137.629
21
-103.928
0
LINE
8
BLACK
6
CONTINUOUS
10
137.629
20
-103.928
11
137.606
21
-103.97
0
LINE
8
BLACK
6
CONTINUOUS
10
137.606
20
-103.97
11
137.576
21
-104.007
0
LINE
8
BLACK
6
CONTINUOUS
10
137.576
20
-104.007
11
137.539
21
-104.037
0
LINE
8
BLACK
6
CONTINUOUS
10
137.539
20
-104.037
11
137.497
21
-104.059
0
LINE
8
BLACK
6
CONTINUOUS
10
137.497
20
-104.059
11
137.451
21
-104.073
0
LINE
8
BLACK
6
CONTINUOUS
10
137.451
20
-104.073
11
137.404
21
-104.078
0
LINE
8
BLACK
6
CONTINUOUS
10
137.404
20
-104.078
11
136.916
21
-104.078
0
LINE
8
BLACK
6
CONTINUOUS
10
136.916
20
-104.078
11
136.869
21
-104.073
0
LINE
8
BLACK
6
CONTINUOUS
10
136.869
20
-104.073
11
136.823
21
-104.059
0
LINE
8
BLACK
6
CONTINUOUS
10
136.823
20
-104.059
11
136.781
21
-104.037
0
LINE
8
BLACK
6
CONTINUOUS
10
136.781
20
-104.037
11
136.744
21
-104.007
0
LINE
8
BLACK
6
CONTINUOUS
10
136.744
20
-104.007
11
136.714
21
-103.97
0
LINE
8
BLACK
6
CONTINUOUS
10
136.714
20
-103.97
11
136.691
21
-103.928
0
LINE
8
BLACK
6
CONTINUOUS
10
136.691
20
-103.928
11
136.677
21
-103.882
0
LINE
8
BLACK
6
CONTINUOUS
10
136.677
20
-103.882
11
136.672
21
-103.834
0
LINE
8
BLACK
6
CONTINUOUS
10
136.672
20
-103.834
11
136.672
21
-102.922
0
LINE
8
BLACK
6
CONTINUOUS
10
136.672
20
-102.922
11
136.677
21
-102.874
0
LINE
8
BLACK
6
CONTINUOUS
10
136.677
20
-102.874
11
136.691
21
-102.828
0
LINE
8
BLACK
6
CONTINUOUS
10
136.691
20
-102.828
11
136.714
21
-102.786
0
LINE
8
BLACK
6
CONTINUOUS
10
136.714
20
-102.786
11
136.744
21
-102.749
0
LINE
8
BLACK
6
CONTINUOUS
10
136.744
20
-102.749
11
136.781
21
-102.719
0
LINE
8
BLACK
6
CONTINUOUS
10
136.781
20
-102.719
11
136.823
21
-102.697
0
LINE
8
BLACK
6
CONTINUOUS
10
136.823
20
-102.697
11
136.869
21
-102.683
0
LINE
8
BLACK
6
CONTINUOUS
10
136.869
20
-102.683
11
136.916
21
-102.678
0
LINE
8
BLACK
6
CONTINUOUS
10
136.916
20
-102.678
11
137.404
21
-102.678
0
LINE
8
BLACK
6
CONTINUOUS
10
137.404
20
-102.678
11
137.451
21
-102.683
0
LINE
8
BLACK
6
CONTINUOUS
10
154.763
20
-101.565
11
154.81
21
-101.579
0
LINE
8
BLACK
6
CONTINUOUS
10
154.81
20
-101.579
11
154.853
21
-101.602
0
LINE
8
BLACK
6
CONTINUOUS
10
154.853
20
-101.602
11
154.891
21
-101.633
0
LINE
8
BLACK
6
CONTINUOUS
10
154.891
20
-101.633
11
154.922
21
-101.671
0
LINE
8
BLACK
6
CONTINUOUS
10
154.922
20
-101.671
11
154.945
21
-101.714
0
LINE
8
BLACK
6
CONTINUOUS
10
154.945
20
-101.714
11
154.959
21
-101.761
0
LINE
8
BLACK
6
CONTINUOUS
10
154.959
20
-101.761
11
154.964
21
-101.81
0
LINE
8
BLACK
6
CONTINUOUS
10
154.964
20
-101.81
11
154.964
21
-102.66
0
LINE
8
BLACK
6
CONTINUOUS
10
154.964
20
-102.66
11
154.959
21
-102.709
0
LINE
8
BLACK
6
CONTINUOUS
10
154.959
20
-102.709
11
154.945
21
-102.756
0
LINE
8
BLACK
6
CONTINUOUS
10
154.945
20
-102.756
11
154.922
21
-102.799
0
LINE
8
BLACK
6
CONTINUOUS
10
154.922
20
-102.799
11
154.891
21
-102.837
0
LINE
8
BLACK
6
CONTINUOUS
10
154.891
20
-102.837
11
154.853
21
-102.868
0
LINE
8
BLACK
6
CONTINUOUS
10
154.853
20
-102.868
11
154.81
21
-102.891
0
LINE
8
BLACK
6
CONTINUOUS
10
154.81
20
-102.891
11
154.763
21
-102.905
0
LINE
8
BLACK
6
CONTINUOUS
10
154.763
20
-102.905
11
154.714
21
-102.91
0
LINE
8
BLACK
6
CONTINUOUS
10
154.714
20
-102.91
11
151.864
21
-102.91
0
LINE
8
BLACK
6
CONTINUOUS
10
151.864
20
-102.91
11
151.815
21
-102.905
0
LINE
8
BLACK
6
CONTINUOUS
10
151.815
20
-102.905
11
151.768
21
-102.891
0
LINE
8
BLACK
6
CONTINUOUS
10
151.768
20
-102.891
11
151.725
21
-102.868
0
LINE
8
BLACK
6
CONTINUOUS
10
151.725
20
-102.868
11
151.687
21
-102.837
0
LINE
8
BLACK
6
CONTINUOUS
10
151.687
20
-102.837
11
151.656
21
-102.799
0
LINE
8
BLACK
6
CONTINUOUS
10
151.656
20
-102.799
11
151.633
21
-102.756
0
LINE
8
BLACK
6
CONTINUOUS
10
151.633
20
-102.756
11
151.619
21
-102.709
0
LINE
8
BLACK
6
CONTINUOUS
10
151.619
20
-102.709
11
151.614
21
-102.66
0
LINE
8
BLACK
6
CONTINUOUS
10
151.614
20
-102.66
11
151.614
21
-101.81
0
LINE
8
BLACK
6
CONTINUOUS
10
151.614
20
-101.81
11
151.619
21
-101.761
0
LINE
8
BLACK
6
CONTINUOUS
10
151.619
20
-101.761
11
151.633
21
-101.714
0
LINE
8
BLACK
6
CONTINUOUS
10
151.633
20
-101.714
11
151.656
21
-101.671
0
LINE
8
BLACK
6
CONTINUOUS
10
151.656
20
-101.671
11
151.687
21
-101.633
0
LINE
8
BLACK
6
CONTINUOUS
10
151.687
20
-101.633
11
151.725
21
-101.602
0
LINE
8
BLACK
6
CONTINUOUS
10
151.725
20
-101.602
11
151.768
21
-101.579
0
LINE
8
BLACK
6
CONTINUOUS
10
151.768
20
-101.579
11
151.815
21
-101.565
0
LINE
8
BLACK
6
CONTINUOUS
10
151.815
20
-101.565
11
151.864
21
-101.56
0
LINE
8
BLACK
6
CONTINUOUS
10
151.864
20
-101.56
11
154.714
21
-101.56
0
LINE
8
BLACK
6
CONTINUOUS
10
154.714
20
-101.56
11
154.763
21
-101.565
0
LINE
8
BLACK
6
CONTINUOUS
10
175.718
20
-101.565
11
175.765
21
-101.579
0
LINE
8
BLACK
6
CONTINUOUS
10
175.765
20
-101.579
11
175.808
21
-101.602
0
LINE
8
BLACK
6
CONTINUOUS
10
175.808
20
-101.602
11
175.846
21
-101.633
0
LINE
8
BLACK
6
CONTINUOUS
10
175.846
20
-101.633
11
175.877
21
-101.671
0
LINE
8
BLACK
6
CONTINUOUS
10
175.877
20
-101.671
11
175.9
21
-101.714
0
LINE
8
BLACK
6
CONTINUOUS
10
175.9
20
-101.714
11
175.914
21
-101.761
0
LINE
8
BLACK
6
CONTINUOUS
10
175.914
20
-101.761
11
175.919
21
-101.81
0
LINE
8
BLACK
6
CONTINUOUS
10
175.919
20
-101.81
11
175.919
21
-102.66
0
LINE
8
BLACK
6
CONTINUOUS
10
175.919
20
-102.66
11
175.914
21
-102.709
0
LINE
8
BLACK
6
CONTINUOUS
10
175.914
20
-102.709
11
175.9
21
-102.756
0
LINE
8
BLACK
6
CONTINUOUS
10
175.9
20
-102.756
11
175.877
21
-102.799
0
LINE
8
BLACK
6
CONTINUOUS
10
175.877
20
-102.799
11
175.846
21
-102.837
0
LINE
8
BLACK
6
CONTINUOUS
10
175.846
20
-102.837
11
175.808
21
-102.868
0
LINE
8
BLACK
6
CONTINUOUS
10
175.808
20
-102.868
11
175.765
21
-102.891
0
LINE
8
BLACK
6
CONTINUOUS
10
175.765
20
-102.891
11
175.718
21
-102.905
0
LINE
8
BLACK
6
CONTINUOUS
10
175.718
20
-102.905
11
175.669
21
-102.91
0
LINE
8
BLACK
6
CONTINUOUS
10
175.669
20
-102.91
11
172.819
21
-102.91
0
LINE
8
BLACK
6
CONTINUOUS
10
172.819
20
-102.91
11
172.77
21
-102.905
0
LINE
8
BLACK
6
CONTINUOUS
10
172.77
20
-102.905
11
172.723
21
-102.891
0
LINE
8
BLACK
6
CONTINUOUS
10
172.723
20
-102.891
11
172.68
21
-102.868
0
LINE
8
BLACK
6
CONTINUOUS
10
172.68
20
-102.868
11
172.642
21
-102.837
0
LINE
8
BLACK
6
CONTINUOUS
10
172.642
20
-102.837
11
172.611
21
-102.799
0
LINE
8
BLACK
6
CONTINUOUS
10
172.611
20
-102.799
11
172.588
21
-102.756
0
LINE
8
BLACK
6
CONTINUOUS
10
172.588
20
-102.756
11
172.574
21
-102.709
0
LINE
8
BLACK
6
CONTINUOUS
10
172.574
20
-102.709
11
172.569
21
-102.66
0
LINE
8
BLACK
6
CONTINUOUS
10
172.569
20
-102.66
11
172.569
21
-101.81
0
LINE
8
BLACK
6
CONTINUOUS
10
172.569
20
-101.81
11
172.574
21
-101.761
0
LINE
8
BLACK
6
CONTINUOUS
10
172.574
20
-101.761
11
172.588
21
-101.714
0
LINE
8
BLACK
6
CONTINUOUS
10
172.588
20
-101.714
11
172.611
21
-101.671
0
LINE
8
BLACK
6
CONTINUOUS
10
172.611
20
-101.671
11
172.642
21
-101.633
0
LINE
8
BLACK
6
CONTINUOUS
10
172.642
20
-101.633
11
172.68
21
-101.602
0
LINE
8
BLACK
6
CONTINUOUS
10
172.68
20
-101.602
11
172.723
21
-101.579
0
LINE
8
BLACK
6
CONTINUOUS
10
172.723
20
-101.579
11
172.77
21
-101.565
0
LINE
8
BLACK
6
CONTINUOUS
10
172.77
20
-101.565
11
172.819
21
-101.56
0
LINE
8
BLACK
6
CONTINUOUS
10
172.819
20
-101.56
11
175.669
21
-101.56
0
LINE
8
BLACK
6
CONTINUOUS
10
175.669
20
-101.56
11
175.718
21
-101.565
0
LINE
8
BLACK
6
CONTINUOUS
10
185.162
20
-101.274
11
185.208
21
-101.288
0
LINE
8
BLACK
6
CONTINUOUS
10
185.208
20
-101.288
11
185.25
21
-101.311
0
LINE
8
BLACK
6
CONTINUOUS
10
185.25
20
-101.311
11
185.287
21
-101.341
0
LINE
8
BLACK
6
CONTINUOUS
10
185.287
20
-101.341
11
185.317
21
-101.378
0
LINE
8
BLACK
6
CONTINUOUS
10
185.317
20
-101.378
11
185.339
21
-101.42
0
LINE
8
BLACK
6
CONTINUOUS
10
185.339
20
-101.42
11
185.353
21
-101.466
0
LINE
8
BLACK
6
CONTINUOUS
10
185.353
20
-101.466
11
185.358
21
-101.513
0
LINE
8
BLACK
6
CONTINUOUS
10
185.358
20
-101.513
11
185.358
21
-102.001
0
LINE
8
BLACK
6
CONTINUOUS
10
185.358
20
-102.001
11
185.353
21
-102.048
0
LINE
8
BLACK
6
CONTINUOUS
10
185.353
20
-102.048
11
185.339
21
-102.094
0
LINE
8
BLACK
6
CONTINUOUS
10
185.339
20
-102.094
11
185.317
21
-102.136
0
LINE
8
BLACK
6
CONTINUOUS
10
185.317
20
-102.136
11
185.287
21
-102.173
0
LINE
8
BLACK
6
CONTINUOUS
10
185.287
20
-102.173
11
185.25
21
-102.203
0
LINE
8
BLACK
6
CONTINUOUS
10
185.25
20
-102.203
11
185.208
21
-102.226
0
LINE
8
BLACK
6
CONTINUOUS
10
185.208
20
-102.226
11
185.162
21
-102.24
0
LINE
8
BLACK
6
CONTINUOUS
10
185.162
20
-102.24
11
185.114
21
-102.245
0
LINE
8
BLACK
6
CONTINUOUS
10
185.114
20
-102.245
11
184.202
21
-102.245
0
LINE
8
BLACK
6
CONTINUOUS
10
184.202
20
-102.245
11
184.154
21
-102.24
0
LINE
8
BLACK
6
CONTINUOUS
10
184.154
20
-102.24
11
184.108
21
-102.226
0
LINE
8
BLACK
6
CONTINUOUS
10
184.108
20
-102.226
11
184.066
21
-102.203
0
LINE
8
BLACK
6
CONTINUOUS
10
184.066
20
-102.203
11
184.029
21
-102.173
0
LINE
8
BLACK
6
CONTINUOUS
10
184.029
20
-102.173
11
183.999
21
-102.136
0
LINE
8
BLACK
6
CONTINUOUS
10
183.999
20
-102.136
11
183.977
21
-102.094
0
LINE
8
BLACK
6
CONTINUOUS
10
183.977
20
-102.094
11
183.963
21
-102.048
0
LINE
8
BLACK
6
CONTINUOUS
10
183.963
20
-102.048
11
183.958
21
-102.001
0
LINE
8
BLACK
6
CONTINUOUS
10
183.958
20
-102.001
11
183.958
21
-101.513
0
LINE
8
BLACK
6
CONTINUOUS
10
183.958
20
-101.513
11
183.963
21
-101.466
0
LINE
8
BLACK
6
CONTINUOUS
10
183.963
20
-101.466
11
183.977
21
-101.42
0
LINE
8
BLACK
6
CONTINUOUS
10
183.977
20
-101.42
11
183.999
21
-101.378
0
LINE
8
BLACK
6
CONTINUOUS
10
183.999
20
-101.378
11
184.029
21
-101.341
0
LINE
8
BLACK
6
CONTINUOUS
10
184.029
20
-101.341
11
184.066
21
-101.311
0
LINE
8
BLACK
6
CONTINUOUS
10
184.066
20
-101.311
11
184.108
21
-101.288
0
LINE
8
BLACK
6
CONTINUOUS
10
184.108
20
-101.288
11
184.154
21
-101.274
0
LINE
8
BLACK
6
CONTINUOUS
10
184.154
20
-101.274
11
184.202
21
-101.269
0
LINE
8
BLACK
6
CONTINUOUS
10
184.202
20
-101.269
11
185.114
21
-101.269
0
LINE
8
BLACK
6
CONTINUOUS
10
185.114
20
-101.269
11
185.162
21
-101.274
0
LINE
8
BLACK
6
CONTINUOUS
10
182.792
20
-100.974
11
182.839
21
-100.988
0
LINE
8
BLACK
6
CONTINUOUS
10
182.839
20
-100.988
11
182.882
21
-101.011
0
LINE
8
BLACK
6
CONTINUOUS
10
182.882
20
-101.011
11
182.92
21
-101.042
0
LINE
8
BLACK
6
CONTINUOUS
10
182.92
20
-101.042
11
182.951
21
-101.08
0
LINE
8
BLACK
6
CONTINUOUS
10
182.951
20
-101.08
11
182.974
21
-101.123
0
LINE
8
BLACK
6
CONTINUOUS
10
182.974
20
-101.123
11
182.988
21
-101.17
0
LINE
8
BLACK
6
CONTINUOUS
10
182.988
20
-101.17
11
182.993
21
-101.219
0
LINE
8
BLACK
6
CONTINUOUS
10
182.993
20
-101.219
11
182.993
21
-101.969
0
LINE
8
BLACK
6
CONTINUOUS
10
182.993
20
-101.969
11
182.988
21
-102.018
0
LINE
8
BLACK
6
CONTINUOUS
10
182.988
20
-102.018
11
182.974
21
-102.065
0
LINE
8
BLACK
6
CONTINUOUS
10
182.974
20
-102.065
11
182.951
21
-102.108
0
LINE
8
BLACK
6
CONTINUOUS
10
182.951
20
-102.108
11
182.92
21
-102.146
0
LINE
8
BLACK
6
CONTINUOUS
10
182.92
20
-102.146
11
182.882
21
-102.177
0
LINE
8
BLACK
6
CONTINUOUS
10
182.882
20
-102.177
11
182.839
21
-102.2
0
LINE
8
BLACK
6
CONTINUOUS
10
182.839
20
-102.2
11
182.792
21
-102.214
0
LINE
8
BLACK
6
CONTINUOUS
10
182.792
20
-102.214
11
182.743
21
-102.219
0
LINE
8
BLACK
6
CONTINUOUS
10
182.743
20
-102.219
11
181.493
21
-102.219
0
LINE
8
BLACK
6
CONTINUOUS
10
181.493
20
-102.219
11
181.444
21
-102.214
0
LINE
8
BLACK
6
CONTINUOUS
10
181.444
20
-102.214
11
181.397
21
-102.2
0
LINE
8
BLACK
6
CONTINUOUS
10
181.397
20
-102.2
11
181.354
21
-102.177
0
LINE
8
BLACK
6
CONTINUOUS
10
181.354
20
-102.177
11
181.316
21
-102.146
0
LINE
8
BLACK
6
CONTINUOUS
10
181.316
20
-102.146
11
181.285
21
-102.108
0
LINE
8
BLACK
6
CONTINUOUS
10
181.285
20
-102.108
11
181.262
21
-102.065
0
LINE
8
BLACK
6
CONTINUOUS
10
181.262
20
-102.065
11
181.248
21
-102.018
0
LINE
8
BLACK
6
CONTINUOUS
10
181.248
20
-102.018
11
181.243
21
-101.969
0
LINE
8
BLACK
6
CONTINUOUS
10
181.243
20
-101.969
11
181.243
21
-101.219
0
LINE
8
BLACK
6
CONTINUOUS
10
181.243
20
-101.219
11
181.248
21
-101.17
0
LINE
8
BLACK
6
CONTINUOUS
10
181.248
20
-101.17
11
181.262
21
-101.123
0
LINE
8
BLACK
6
CONTINUOUS
10
181.262
20
-101.123
11
181.285
21
-101.08
0
LINE
8
BLACK
6
CONTINUOUS
10
181.285
20
-101.08
11
181.316
21
-101.042
0
LINE
8
BLACK
6
CONTINUOUS
10
181.316
20
-101.042
11
181.354
21
-101.011
0
LINE
8
BLACK
6
CONTINUOUS
10
181.354
20
-101.011
11
181.397
21
-100.988
0
LINE
8
BLACK
6
CONTINUOUS
10
181.397
20
-100.988
11
181.444
21
-100.974
0
LINE
8
BLACK
6
CONTINUOUS
10
181.444
20
-100.974
11
181.493
21
-100.969
0
LINE
8
BLACK
6
CONTINUOUS
10
181.493
20
-100.969
11
182.743
21
-100.969
0
LINE
8
BLACK
6
CONTINUOUS
10
182.743
20
-100.969
11
182.792
21
-100.974
0
LINE
8
BLACK
6
CONTINUOUS
10
182.792
20
-99.2018
11
182.839
21
-99.216
0
LINE
8
BLACK
6
CONTINUOUS
10
182.839
20
-99.216
11
182.882
21
-99.2391
0
LINE
8
BLACK
6
CONTINUOUS
10
182.882
20
-99.2391
11
182.92
21
-99.2702
0
LINE
8
BLACK
6
CONTINUOUS
10
182.92
20
-99.2702
11
182.951
21
-99.3081
0
LINE
8
BLACK
6
CONTINUOUS
10
182.951
20
-99.3081
11
182.974
21
-99.3513
0
LINE
8
BLACK
6
CONTINUOUS
10
182.974
20
-99.3513
11
182.988
21
-99.3982
0
LINE
8
BLACK
6
CONTINUOUS
10
182.988
20
-99.3982
11
182.993
21
-99.447
0
LINE
8
BLACK
6
CONTINUOUS
10
182.993
20
-99.447
11
182.993
21
-100.197
0
LINE
8
BLACK
6
CONTINUOUS
10
182.993
20
-100.197
11
182.988
21
-100.246
0
LINE
8
BLACK
6
CONTINUOUS
10
182.988
20
-100.246
11
182.974
21
-100.293
0
LINE
8
BLACK
6
CONTINUOUS
10
182.974
20
-100.293
11
182.951
21
-100.336
0
LINE
8
BLACK
6
CONTINUOUS
10
182.951
20
-100.336
11
182.92
21
-100.374
0
LINE
8
BLACK
6
CONTINUOUS
10
182.92
20
-100.374
11
182.882
21
-100.405
0
LINE
8
BLACK
6
CONTINUOUS
10
182.882
20
-100.405
11
182.839
21
-100.428
0
LINE
8
BLACK
6
CONTINUOUS
10
182.839
20
-100.428
11
182.792
21
-100.442
0
LINE
8
BLACK
6
CONTINUOUS
10
182.792
20
-100.442
11
182.743
21
-100.447
0
LINE
8
BLACK
6
CONTINUOUS
10
182.743
20
-100.447
11
181.493
21
-100.447
0
LINE
8
BLACK
6
CONTINUOUS
10
181.493
20
-100.447
11
181.444
21
-100.442
0
LINE
8
BLACK
6
CONTINUOUS
10
181.444
20
-100.442
11
181.397
21
-100.428
0
LINE
8
BLACK
6
CONTINUOUS
10
181.397
20
-100.428
11
181.354
21
-100.405
0
LINE
8
BLACK
6
CONTINUOUS
10
181.354
20
-100.405
11
181.316
21
-100.374
0
LINE
8
BLACK
6
CONTINUOUS
10
181.316
20
-100.374
11
181.285
21
-100.336
0
LINE
8
BLACK
6
CONTINUOUS
10
181.285
20
-100.336
11
181.262
21
-100.293
0
LINE
8
BLACK
6
CONTINUOUS
10
181.262
20
-100.293
11
181.248
21
-100.246
0
LINE
8
BLACK
6
CONTINUOUS
10
181.248
20
-100.246
11
181.243
21
-100.197
0
LINE
8
BLACK
6
CONTINUOUS
10
181.243
20
-100.197
11
181.243
21
-99.447
0
LINE
8
BLACK
6
CONTINUOUS
10
181.243
20
-99.447
11
181.248
21
-99.3982
0
LINE
8
BLACK
6
CONTINUOUS
10
181.248
20
-99.3982
11
181.262
21
-99.3513
0
LINE
8
BLACK
6
CONTINUOUS
10
181.262
20
-99.3513
11
181.285
21
-99.3081
0
LINE
8
BLACK
6
CONTINUOUS
10
181.285
20
-99.3081
11
181.316
21
-99.2702
0
LINE
8
BLACK
6
CONTINUOUS
10
181.316
20
-99.2702
11
181.354
21
-99.2391
0
LINE
8
BLACK
6
CONTINUOUS
10
181.354
20
-99.2391
11
181.397
21
-99.216
0
LINE
8
BLACK
6
CONTINUOUS
10
181.397
20
-99.216
11
181.444
21
-99.2018
0
LINE
8
BLACK
6
CONTINUOUS
10
181.444
20
-99.2018
11
181.493
21
-99.197
0
LINE
8
BLACK
6
CONTINUOUS
10
181.493
20
-99.197
11
182.743
21
-99.197
0
LINE
8
BLACK
6
CONTINUOUS
10
182.743
20
-99.197
11
182.792
21
-99.2018
0
LINE
8
BLACK
6
CONTINUOUS
10
182.792
20
-96.4018
11
182.839
21
-96.416
0
LINE
8
BLACK
6
CONTINUOUS
10
182.839
20
-96.416
11
182.882
21
-96.4391
0
LINE
8
BLACK
6
CONTINUOUS
10
182.882
20
-96.4391
11
182.92
21
-96.4702
0
LINE
8
BLACK
6
CONTINUOUS
10
182.92
20
-96.4702
11
182.951
21
-96.5081
0
LINE
8
BLACK
6
CONTINUOUS
10
182.951
20
-96.5081
11
182.974
21
-96.5513
0
LINE
8
BLACK
6
CONTINUOUS
10
182.974
20
-96.5513
11
182.988
21
-96.5982
0
LINE
8
BLACK
6
CONTINUOUS
10
182.988
20
-96.5982
11
182.993
21
-96.647
0
LINE
8
BLACK
6
CONTINUOUS
10
182.993
20
-96.647
11
182.993
21
-97.397
0
LINE
8
BLACK
6
CONTINUOUS
10
182.993
20
-97.397
11
182.988
21
-97.4458
0
LINE
8
BLACK
6
CONTINUOUS
10
182.988
20
-97.4458
11
182.974
21
-97.4927
0
LINE
8
BLACK
6
CONTINUOUS
10
182.974
20
-97.4927
11
182.951
21
-97.5359
0
LINE
8
BLACK
6
CONTINUOUS
10
182.951
20
-97.5359
11
182.92
21
-97.5738
0
LINE
8
BLACK
6
CONTINUOUS
10
182.92
20
-97.5738
11
182.882
21
-97.6049
0
LINE
8
BLACK
6
CONTINUOUS
10
182.882
20
-97.6049
11
182.839
21
-97.628
0
LINE
8
BLACK
6
CONTINUOUS
10
182.839
20
-97.628
11
182.792
21
-97.6422
0
LINE
8
BLACK
6
CONTINUOUS
10
182.792
20
-97.6422
11
182.743
21
-97.647
0
LINE
8
BLACK
6
CONTINUOUS
10
182.743
20
-97.647
11
181.493
21
-97.647
0
LINE
8
BLACK
6
CONTINUOUS
10
181.493
20
-97.647
11
181.444
21
-97.6422
0
LINE
8
BLACK
6
CONTINUOUS
10
181.444
20
-97.6422
11
181.397
21
-97.628
0
LINE
8
BLACK
6
CONTINUOUS
10
181.397
20
-97.628
11
181.354
21
-97.6049
0
LINE
8
BLACK
6
CONTINUOUS
10
181.354
20
-97.6049
11
181.316
21
-97.5738
0
LINE
8
BLACK
6
CONTINUOUS
10
181.316
20
-97.5738
11
181.285
21
-97.5359
0
LINE
8
BLACK
6
CONTINUOUS
10
181.285
20
-97.5359
11
181.262
21
-97.4927
0
LINE
8
BLACK
6
CONTINUOUS
10
181.262
20
-97.4927
11
181.248
21
-97.4458
0
LINE
8
BLACK
6
CONTINUOUS
10
181.248
20
-97.4458
11
181.243
21
-97.397
0
LINE
8
BLACK
6
CONTINUOUS
10
181.243
20
-97.397
11
181.243
21
-96.647
0
LINE
8
BLACK
6
CONTINUOUS
10
181.243
20
-96.647
11
181.248
21
-96.5982
0
LINE
8
BLACK
6
CONTINUOUS
10
181.248
20
-96.5982
11
181.262
21
-96.5513
0
LINE
8
BLACK
6
CONTINUOUS
10
181.262
20
-96.5513
11
181.285
21
-96.5081
0
LINE
8
BLACK
6
CONTINUOUS
10
181.285
20
-96.5081
11
181.316
21
-96.4702
0
LINE
8
BLACK
6
CONTINUOUS
10
181.316
20
-96.4702
11
181.354
21
-96.4391
0
LINE
8
BLACK
6
CONTINUOUS
10
181.354
20
-96.4391
11
181.397
21
-96.416
0
LINE
8
BLACK
6
CONTINUOUS
10
181.397
20
-96.416
11
181.444
21
-96.4018
0
LINE
8
BLACK
6
CONTINUOUS
10
181.444
20
-96.4018
11
181.493
21
-96.397
0
LINE
8
BLACK
6
CONTINUOUS
10
181.493
20
-96.397
11
182.743
21
-96.397
0
LINE
8
BLACK
6
CONTINUOUS
10
182.743
20
-96.397
11
182.792
21
-96.4018
0
LINE
8
BLACK
6
CONTINUOUS
10
175.718
20
-95.7648
11
175.765
21
-95.779
0
LINE
8
BLACK
6
CONTINUOUS
10
175.765
20
-95.779
11
175.808
21
-95.8021
0
LINE
8
BLACK
6
CONTINUOUS
10
175.808
20
-95.8021
11
175.846
21
-95.8332
0
LINE
8
BLACK
6
CONTINUOUS
10
175.846
20
-95.8332
11
175.877
21
-95.8711
0
LINE
8
BLACK
6
CONTINUOUS
10
175.877
20
-95.8711
11
175.9
21
-95.9143
0
LINE
8
BLACK
6
CONTINUOUS
10
175.9
20
-95.9143
11
175.914
21
-95.9612
0
LINE
8
BLACK
6
CONTINUOUS
10
175.914
20
-95.9612
11
175.919
21
-96.01
0
LINE
8
BLACK
6
CONTINUOUS
10
175.919
20
-96.01
11
175.919
21
-96.86
0
LINE
8
BLACK
6
CONTINUOUS
10
175.919
20
-96.86
11
175.914
21
-96.9088
0
LINE
8
BLACK
6
CONTINUOUS
10
175.914
20
-96.9088
11
175.9
21
-96.9557
0
LINE
8
BLACK
6
CONTINUOUS
10
175.9
20
-96.9557
11
175.877
21
-96.9989
0
LINE
8
BLACK
6
CONTINUOUS
10
175.877
20
-96.9989
11
175.846
21
-97.0368
0
LINE
8
BLACK
6
CONTINUOUS
10
175.846
20
-97.0368
11
175.808
21
-97.0679
0
LINE
8
BLACK
6
CONTINUOUS
10
175.808
20
-97.0679
11
175.765
21
-97.091
0
LINE
8
BLACK
6
CONTINUOUS
10
175.765
20
-97.091
11
175.718
21
-97.1052
0
LINE
8
BLACK
6
CONTINUOUS
10
175.718
20
-97.1052
11
175.669
21
-97.11
0
LINE
8
BLACK
6
CONTINUOUS
10
175.669
20
-97.11
11
172.819
21
-97.11
0
LINE
8
BLACK
6
CONTINUOUS
10
172.819
20
-97.11
11
172.77
21
-97.1052
0
LINE
8
BLACK
6
CONTINUOUS
10
172.77
20
-97.1052
11
172.723
21
-97.091
0
LINE
8
BLACK
6
CONTINUOUS
10
172.723
20
-97.091
11
172.68
21
-97.0679
0
LINE
8
BLACK
6
CONTINUOUS
10
172.68
20
-97.0679
11
172.642
21
-97.0368
0
LINE
8
BLACK
6
CONTINUOUS
10
172.642
20
-97.0368
11
172.611
21
-96.9989
0
LINE
8
BLACK
6
CONTINUOUS
10
172.611
20
-96.9989
11
172.588
21
-96.9557
0
LINE
8
BLACK
6
CONTINUOUS
10
172.588
20
-96.9557
11
172.574
21
-96.9088
0
LINE
8
BLACK
6
CONTINUOUS
10
172.574
20
-96.9088
11
172.569
21
-96.86
0
LINE
8
BLACK
6
CONTINUOUS
10
172.569
20
-96.86
11
172.569
21
-96.01
0
LINE
8
BLACK
6
CONTINUOUS
10
172.569
20
-96.01
11
172.574
21
-95.9612
0
LINE
8
BLACK
6
CONTINUOUS
10
172.574
20
-95.9612
11
172.588
21
-95.9143
0
LINE
8
BLACK
6
CONTINUOUS
10
172.588
20
-95.9143
11
172.611
21
-95.8711
0
LINE
8
BLACK
6
CONTINUOUS
10
172.611
20
-95.8711
11
172.642
21
-95.8332
0
LINE
8
BLACK
6
CONTINUOUS
10
172.642
20
-95.8332
11
172.68
21
-95.8021
0
LINE
8
BLACK
6
CONTINUOUS
10
172.68
20
-95.8021
11
172.723
21
-95.779
0
LINE
8
BLACK
6
CONTINUOUS
10
172.723
20
-95.779
11
172.77
21
-95.7648
0
LINE
8
BLACK
6
CONTINUOUS
10
172.77
20
-95.7648
11
172.819
21
-95.76
0
LINE
8
BLACK
6
CONTINUOUS
10
172.819
20
-95.76
11
175.669
21
-95.76
0
LINE
8
BLACK
6
CONTINUOUS
10
175.669
20
-95.76
11
175.718
21
-95.7648
0
LINE
8
BLACK
6
CONTINUOUS
10
154.763
20
-95.7648
11
154.81
21
-95.779
0
LINE
8
BLACK
6
CONTINUOUS
10
154.81
20
-95.779
11
154.853
21
-95.8021
0
LINE
8
BLACK
6
CONTINUOUS
10
154.853
20
-95.8021
11
154.891
21
-95.8332
0
LINE
8
BLACK
6
CONTINUOUS
10
154.891
20
-95.8332
11
154.922
21
-95.8711
0
LINE
8
BLACK
6
CONTINUOUS
10
154.922
20
-95.8711
11
154.945
21
-95.9143
0
LINE
8
BLACK
6
CONTINUOUS
10
154.945
20
-95.9143
11
154.959
21
-95.9612
0
LINE
8
BLACK
6
CONTINUOUS
10
154.959
20
-95.9612
11
154.964
21
-96.01
0
LINE
8
BLACK
6
CONTINUOUS
10
154.964
20
-96.01
11
154.964
21
-96.86
0
LINE
8
BLACK
6
CONTINUOUS
10
154.964
20
-96.86
11
154.959
21
-96.9088
0
LINE
8
BLACK
6
CONTINUOUS
10
154.959
20
-96.9088
11
154.945
21
-96.9557
0
LINE
8
BLACK
6
CONTINUOUS
10
154.945
20
-96.9557
11
154.922
21
-96.9989
0
LINE
8
BLACK
6
CONTINUOUS
10
154.922
20
-96.9989
11
154.891
21
-97.0368
0
LINE
8
BLACK
6
CONTINUOUS
10
154.891
20
-97.0368
11
154.853
21
-97.0679
0
LINE
8
BLACK
6
CONTINUOUS
10
154.853
20
-97.0679
11
154.81
21
-97.091
0
LINE
8
BLACK
6
CONTINUOUS
10
154.81
20
-97.091
11
154.763
21
-97.1052
0
LINE
8
BLACK
6
CONTINUOUS
10
154.763
20
-97.1052
11
154.714
21
-97.11
0
LINE
8
BLACK
6
CONTINUOUS
10
154.714
20
-97.11
11
151.864
21
-97.11
0
LINE
8
BLACK
6
CONTINUOUS
10
151.864
20
-97.11
11
151.815
21
-97.1052
0
LINE
8
BLACK
6
CONTINUOUS
10
151.815
20
-97.1052
11
151.768
21
-97.091
0
LINE
8
BLACK
6
CONTINUOUS
10
151.768
20
-97.091
11
151.725
21
-97.0679
0
LINE
8
BLACK
6
CONTINUOUS
10
151.725
20
-97.0679
11
151.687
21
-97.0368
0
LINE
8
BLACK
6
CONTINUOUS
10
151.687
20
-97.0368
11
151.656
21
-96.9989
0
LINE
8
BLACK
6
CONTINUOUS
10
151.656
20
-96.9989
11
151.633
21
-96.9557
0
LINE
8
BLACK
6
CONTINUOUS
10
151.633
20
-96.9557
11
151.619
21
-96.9088
0
LINE
8
BLACK
6
CONTINUOUS
10
151.619
20
-96.9088
11
151.614
21
-96.86
0
LINE
8
BLACK
6
CONTINUOUS
10
151.614
20
-96.86
11
151.614
21
-96.01
0
LINE
8
BLACK
6
CONTINUOUS
10
151.614
20
-96.01
11
151.619
21
-95.9612
0
LINE
8
BLACK
6
CONTINUOUS
10
151.619
20
-95.9612
11
151.633
21
-95.9143
0
LINE
8
BLACK
6
CONTINUOUS
10
151.633
20
-95.9143
11
151.656
21
-95.8711
0
LINE
8
BLACK
6
CONTINUOUS
10
151.656
20
-95.8711
11
151.687
21
-95.8332
0
LINE
8
BLACK
6
CONTINUOUS
10
151.687
20
-95.8332
11
151.725
21
-95.8021
0
LINE
8
BLACK
6
CONTINUOUS
10
151.725
20
-95.8021
11
151.768
21
-95.779
0
LINE
8
BLACK
6
CONTINUOUS
10
151.768
20
-95.779
11
151.815
21
-95.7648
0
LINE
8
BLACK
6
CONTINUOUS
10
151.815
20
-95.7648
11
151.864
21
-95.76
0
LINE
8
BLACK
6
CONTINUOUS
10
151.864
20
-95.76
11
154.714
21
-95.76
0
LINE
8
BLACK
6
CONTINUOUS
10
154.714
20
-95.76
11
154.763
21
-95.7648
0
LINE
8
BLACK
6
CONTINUOUS
10
158.689
20
-93.8
11
153.439
21
-93.8
0
LINE
8
BLACK
6
CONTINUOUS
10
153.439
20
-93.8
11
153.439
21
-89.25
0
LINE
8
BLACK
6
CONTINUOUS
10
153.439
20
-89.25
11
158.689
21
-89.25
0
LINE
8
BLACK
6
CONTINUOUS
10
158.689
20
-89.25
11
158.689
21
-93.8
0
LINE
8
BLACK
6
CONTINUOUS
10
153.139
20
-93.8
11
147.889
21
-93.8
0
LINE
8
BLACK
6
CONTINUOUS
10
147.889
20
-93.8
11
147.889
21
-89.25
0
LINE
8
BLACK
6
CONTINUOUS
10
147.889
20
-89.25
11
153.139
21
-89.25
0
LINE
8
BLACK
6
CONTINUOUS
10
153.139
20
-89.25
11
153.139
21
-93.8
0
LINE
8
BLACK
6
CONTINUOUS
10
175.891
20
-93.8
11
170.641
21
-93.8
0
LINE
8
BLACK
6
CONTINUOUS
10
170.641
20
-93.8
11
170.641
21
-89.25
0
LINE
8
BLACK
6
CONTINUOUS
10
170.641
20
-89.25
11
175.891
21
-89.25
0
LINE
8
BLACK
6
CONTINUOUS
10
175.891
20
-89.25
11
175.891
21
-93.8
0
LINE
8
BLACK
6
CONTINUOUS
10
181.441
20
-93.8
11
176.191
21
-93.8
0
LINE
8
BLACK
6
CONTINUOUS
10
176.191
20
-93.8
11
176.191
21
-89.25
0
LINE
8
BLACK
6
CONTINUOUS
10
176.191
20
-89.25
11
181.441
21
-89.25
0
LINE
8
BLACK
6
CONTINUOUS
10
181.441
20
-89.25
11
181.441
21
-93.8
0
LINE
8
BLACK
6
CONTINUOUS
10
153.139
20
-88.95
11
147.889
21
-88.95
0
LINE
8
BLACK
6
CONTINUOUS
10
147.889
20
-88.95
11
147.889
21
-84.4
0
LINE
8
BLACK
6
CONTINUOUS
10
147.889
20
-84.4
11
153.139
21
-84.4
0
LINE
8
BLACK
6
CONTINUOUS
10
153.139
20
-84.4
11
153.139
21
-88.95
0
LINE
8
BLACK
6
CONTINUOUS
10
158.689
20
-88.95
11
153.439
21
-88.95
0
LINE
8
BLACK
6
CONTINUOUS
10
153.439
20
-88.95
11
153.439
21
-84.4
0
LINE
8
BLACK
6
CONTINUOUS
10
153.439
20
-84.4
11
158.689
21
-84.4
0
LINE
8
BLACK
6
CONTINUOUS
10
158.689
20
-84.4
11
158.689
21
-88.95
0
LINE
8
BLACK
6
CONTINUOUS
10
181.441
20
-88.95
11
176.191
21
-88.95
0
LINE
8
BLACK
6
CONTINUOUS
10
176.191
20
-88.95
11
176.191
21
-84.4
0
LINE
8
BLACK
6
CONTINUOUS
10
176.191
20
-84.4
11
181.441
21
-84.4
0
LINE
8
BLACK
6
CONTINUOUS
10
181.441
20
-84.4
11
181.441
21
-88.95
0
LINE
8
BLACK
6
CONTINUOUS
10
175.891
20
-88.95
11
170.641
21
-88.95
0
LINE
8
BLACK
6
CONTINUOUS
10
170.641
20
-88.95
11
170.641
21
-84.4
0
LINE
8
BLACK
6
CONTINUOUS
10
170.641
20
-84.4
11
175.891
21
-84.4
0
LINE
8
BLACK
6
CONTINUOUS
10
175.891
20
-84.4
11
175.891
21
-88.95
0
LINE
8
BLACK
6
CONTINUOUS
10
151.299
20
-82.25
11
150.199
21
-82.25
0
LINE
8
BLACK
6
CONTINUOUS
10
150.199
20
-82.25
11
150.199
21
-77.65
0
LINE
8
BLACK
6
CONTINUOUS
10
150.199
20
-77.65
11
151.299
21
-77.65
0
LINE
8
BLACK
6
CONTINUOUS
10
151.299
20
-77.65
11
151.299
21
-82.25
0
LINE
8
BLACK
6
CONTINUOUS
10
156.379
20
-82.25
11
155.279
21
-82.25
0
LINE
8
BLACK
6
CONTINUOUS
10
155.279
20
-82.25
11
155.279
21
-77.65
0
LINE
8
BLACK
6
CONTINUOUS
10
155.279
20
-77.65
11
156.379
21
-77.65
0
LINE
8
BLACK
6
CONTINUOUS
10
156.379
20
-77.65
11
156.379
21
-82.25
0
LINE
8
BLACK
6
CONTINUOUS
10
179.131
20
-82.25
11
178.031
21
-82.25
0
LINE
8
BLACK
6
CONTINUOUS
10
178.031
20
-82.25
11
178.031
21
-77.65
0
LINE
8
BLACK
6
CONTINUOUS
10
178.031
20
-77.65
11
179.131
21
-77.65
0
LINE
8
BLACK
6
CONTINUOUS
10
179.131
20
-77.65
11
179.131
21
-82.25
0
LINE
8
BLACK
6
CONTINUOUS
10
174.051
20
-82.25
11
172.951
21
-82.25
0
LINE
8
BLACK
6
CONTINUOUS
10
172.951
20
-82.25
11
172.951
21
-77.65
0
LINE
8
BLACK
6
CONTINUOUS
10
172.951
20
-77.65
11
174.051
21
-77.65
0
LINE
8
BLACK
6
CONTINUOUS
10
174.051
20
-77.65
11
174.051
21
-82.25
0
LINE
8
BLACK
6
CONTINUOUS
10
141.136
20
-76.0938
11
141.183
21
-76.108
0
LINE
8
BLACK
6
CONTINUOUS
10
141.183
20
-76.108
11
141.226
21
-76.1311
0
LINE
8
BLACK
6
CONTINUOUS
10
141.226
20
-76.1311
11
141.264
21
-76.1622
0
LINE
8
BLACK
6
CONTINUOUS
10
141.264
20
-76.1622
11
141.295
21
-76.2001
0
LINE
8
BLACK
6
CONTINUOUS
10
141.295
20
-76.2001
11
141.318
21
-76.2433
0
LINE
8
BLACK
6
CONTINUOUS
10
141.318
20
-76.2433
11
141.332
21
-76.2902
0
LINE
8
BLACK
6
CONTINUOUS
10
141.332
20
-76.2902
11
141.337
21
-76.339
0
LINE
8
BLACK
6
CONTINUOUS
10
141.337
20
-76.339
11
141.337
21
-77.089
0
LINE
8
BLACK
6
CONTINUOUS
10
141.337
20
-77.089
11
141.332
21
-77.1378
0
LINE
8
BLACK
6
CONTINUOUS
10
141.332
20
-77.1378
11
141.318
21
-77.1847
0
LINE
8
BLACK
6
CONTINUOUS
10
141.318
20
-77.1847
11
141.295
21
-77.2279
0
LINE
8
BLACK
6
CONTINUOUS
10
141.295
20
-77.2279
11
141.264
21
-77.2658
0
LINE
8
BLACK
6
CONTINUOUS
10
141.264
20
-77.2658
11
141.226
21
-77.2969
0
LINE
8
BLACK
6
CONTINUOUS
10
141.226
20
-77.2969
11
141.183
21
-77.32
0
LINE
8
BLACK
6
CONTINUOUS
10
141.183
20
-77.32
11
141.136
21
-77.3342
0
LINE
8
BLACK
6
CONTINUOUS
10
141.136
20
-77.3342
11
141.087
21
-77.339
0
LINE
8
BLACK
6
CONTINUOUS
10
141.087
20
-77.339
11
139.837
21
-77.339
0
LINE
8
BLACK
6
CONTINUOUS
10
139.837
20
-77.339
11
139.788
21
-77.3342
0
LINE
8
BLACK
6
CONTINUOUS
10
139.788
20
-77.3342
11
139.741
21
-77.32
0
LINE
8
BLACK
6
CONTINUOUS
10
139.741
20
-77.32
11
139.698
21
-77.2969
0
LINE
8
BLACK
6
CONTINUOUS
10
139.698
20
-77.2969
11
139.66
21
-77.2658
0
LINE
8
BLACK
6
CONTINUOUS
10
139.66
20
-77.2658
11
139.629
21
-77.2279
0
LINE
8
BLACK
6
CONTINUOUS
10
139.629
20
-77.2279
11
139.606
21
-77.1847
0
LINE
8
BLACK
6
CONTINUOUS
10
139.606
20
-77.1847
11
139.592
21
-77.1378
0
LINE
8
BLACK
6
CONTINUOUS
10
139.592
20
-77.1378
11
139.587
21
-77.089
0
LINE
8
BLACK
6
CONTINUOUS
10
139.587
20
-77.089
11
139.587
21
-76.339
0
LINE
8
BLACK
6
CONTINUOUS
10
139.587
20
-76.339
11
139.592
21
-76.2902
0
LINE
8
BLACK
6
CONTINUOUS
10
139.592
20
-76.2902
11
139.606
21
-76.2433
0
LINE
8
BLACK
6
CONTINUOUS
10
139.606
20
-76.2433
11
139.629
21
-76.2001
0
LINE
8
BLACK
6
CONTINUOUS
10
139.629
20
-76.2001
11
139.66
21
-76.1622
0
LINE
8
BLACK
6
CONTINUOUS
10
139.66
20
-76.1622
11
139.698
21
-76.1311
0
LINE
8
BLACK
6
CONTINUOUS
10
139.698
20
-76.1311
11
139.741
21
-76.108
0
LINE
8
BLACK
6
CONTINUOUS
10
139.741
20
-76.108
11
139.788
21
-76.0938
0
LINE
8
BLACK
6
CONTINUOUS
10
139.788
20
-76.0938
11
139.837
21
-76.089
0
LINE
8
BLACK
6
CONTINUOUS
10
139.837
20
-76.089
11
141.087
21
-76.089
0
LINE
8
BLACK
6
CONTINUOUS
10
141.087
20
-76.089
11
141.136
21
-76.0938
0
LINE
8
BLACK
6
CONTINUOUS
10
124.202
20
-76.1467
11
124.248
21
-76.1606
0
LINE
8
BLACK
6
CONTINUOUS
10
124.248
20
-76.1606
11
124.29
21
-76.1831
0
LINE
8
BLACK
6
CONTINUOUS
10
124.29
20
-76.1831
11
124.327
21
-76.2134
0
LINE
8
BLACK
6
CONTINUOUS
10
124.327
20
-76.2134
11
124.357
21
-76.2503
0
LINE
8
BLACK
6
CONTINUOUS
10
124.357
20
-76.2503
11
124.379
21
-76.2925
0
LINE
8
BLACK
6
CONTINUOUS
10
124.379
20
-76.2925
11
124.393
21
-76.3382
0
LINE
8
BLACK
6
CONTINUOUS
10
124.393
20
-76.3382
11
124.398
21
-76.3858
0
LINE
8
BLACK
6
CONTINUOUS
10
124.398
20
-76.3858
11
124.398
21
-76.8732
0
LINE
8
BLACK
6
CONTINUOUS
10
124.398
20
-76.8732
11
124.393
21
-76.9208
0
LINE
8
BLACK
6
CONTINUOUS
10
124.393
20
-76.9208
11
124.379
21
-76.9665
0
LINE
8
BLACK
6
CONTINUOUS
10
124.379
20
-76.9665
11
124.357
21
-77.0087
0
LINE
8
BLACK
6
CONTINUOUS
10
124.357
20
-77.0087
11
124.327
21
-77.0456
0
LINE
8
BLACK
6
CONTINUOUS
10
124.327
20
-77.0456
11
124.29
21
-77.0759
0
LINE
8
BLACK
6
CONTINUOUS
10
124.29
20
-77.0759
11
124.248
21
-77.0984
0
LINE
8
BLACK
6
CONTINUOUS
10
124.248
20
-77.0984
11
124.202
21
-77.1123
0
LINE
8
BLACK
6
CONTINUOUS
10
124.202
20
-77.1123
11
124.154
21
-77.117
0
LINE
8
BLACK
6
CONTINUOUS
10
124.154
20
-77.117
11
123.242
21
-77.117
0
LINE
8
BLACK
6
CONTINUOUS
10
123.242
20
-77.117
11
123.194
21
-77.1123
0
LINE
8
BLACK
6
CONTINUOUS
10
123.194
20
-77.1123
11
123.148
21
-77.0984
0
LINE
8
BLACK
6
CONTINUOUS
10
123.148
20
-77.0984
11
123.106
21
-77.0759
0
LINE
8
BLACK
6
CONTINUOUS
10
123.106
20
-77.0759
11
123.069
21
-77.0456
0
LINE
8
BLACK
6
CONTINUOUS
10
123.069
20
-77.0456
11
123.039
21
-77.0087
0
LINE
8
BLACK
6
CONTINUOUS
10
123.039
20
-77.0087
11
123.017
21
-76.9665
0
LINE
8
BLACK
6
CONTINUOUS
10
123.017
20
-76.9665
11
123.003
21
-76.9208
0
LINE
8
BLACK
6
CONTINUOUS
10
123.003
20
-76.9208
11
122.998
21
-76.8732
0
LINE
8
BLACK
6
CONTINUOUS
10
122.998
20
-76.8732
11
122.998
21
-76.3858
0
LINE
8
BLACK
6
CONTINUOUS
10
122.998
20
-76.3858
11
123.003
21
-76.3382
0
LINE
8
BLACK
6
CONTINUOUS
10
123.003
20
-76.3382
11
123.017
21
-76.2925
0
LINE
8
BLACK
6
CONTINUOUS
10
123.017
20
-76.2925
11
123.039
21
-76.2503
0
LINE
8
BLACK
6
CONTINUOUS
10
123.039
20
-76.2503
11
123.069
21
-76.2134
0
LINE
8
BLACK
6
CONTINUOUS
10
123.069
20
-76.2134
11
123.106
21
-76.1831
0
LINE
8
BLACK
6
CONTINUOUS
10
123.106
20
-76.1831
11
123.148
21
-76.1606
0
LINE
8
BLACK
6
CONTINUOUS
10
123.148
20
-76.1606
11
123.194
21
-76.1467
0
LINE
8
BLACK
6
CONTINUOUS
10
123.194
20
-76.1467
11
123.242
21
-76.142
0
LINE
8
BLACK
6
CONTINUOUS
10
123.242
20
-76.142
11
124.154
21
-76.142
0
LINE
8
BLACK
6
CONTINUOUS
10
124.154
20
-76.142
11
124.202
21
-76.1467
0
LINE
8
BLACK
6
CONTINUOUS
10
129.21
20
-76.9214
11
127.889
21
-76.9214
0
LINE
8
BLACK
6
CONTINUOUS
10
127.889
20
-76.9214
11
127.889
21
-76.3626
0
LINE
8
BLACK
6
CONTINUOUS
10
127.889
20
-76.3626
11
129.21
21
-76.3626
0
LINE
8
BLACK
6
CONTINUOUS
10
129.21
20
-76.3626
11
129.21
21
-76.9214
0
LINE
8
BLACK
6
CONTINUOUS
10
126.619
20
-76.9214
11
125.298
21
-76.9214
0
LINE
8
BLACK
6
CONTINUOUS
10
125.298
20
-76.9214
11
125.298
21
-76.3626
0
LINE
8
BLACK
6
CONTINUOUS
10
125.298
20
-76.3626
11
126.619
21
-76.3626
0
LINE
8
BLACK
6
CONTINUOUS
10
126.619
20
-76.3626
11
126.619
21
-76.9214
0
LINE
8
BLACK
6
CONTINUOUS
10
143.413
20
-76.7842
11
142.855
21
-76.7842
0
LINE
8
BLACK
6
CONTINUOUS
10
142.855
20
-76.7842
11
142.855
21
-75.311
0
LINE
8
BLACK
6
CONTINUOUS
10
142.855
20
-75.311
11
143.413
21
-75.311
0
LINE
8
BLACK
6
CONTINUOUS
10
143.413
20
-75.311
11
143.413
21
-76.7842
0
LINE
8
BLACK
6
CONTINUOUS
10
145.313
20
-76.7842
11
144.755
21
-76.7842
0
LINE
8
BLACK
6
CONTINUOUS
10
144.755
20
-76.7842
11
144.755
21
-75.311
0
LINE
8
BLACK
6
CONTINUOUS
10
144.755
20
-75.311
11
145.313
21
-75.311
0
LINE
8
BLACK
6
CONTINUOUS
10
145.313
20
-75.311
11
145.313
21
-76.7842
0
LINE
8
BLACK
6
CONTINUOUS
10
129.21
20
-75.9714
11
127.889
21
-75.9714
0
LINE
8
BLACK
6
CONTINUOUS
10
127.889
20
-75.9714
11
127.889
21
-75.4126
0
LINE
8
BLACK
6
CONTINUOUS
10
127.889
20
-75.4126
11
129.21
21
-75.4126
0
LINE
8
BLACK
6
CONTINUOUS
10
129.21
20
-75.4126
11
129.21
21
-75.9714
0
LINE
8
BLACK
6
CONTINUOUS
10
124.202
20
-74.2717
11
124.248
21
-74.2856
0
LINE
8
BLACK
6
CONTINUOUS
10
124.248
20
-74.2856
11
124.29
21
-74.3081
0
LINE
8
BLACK
6
CONTINUOUS
10
124.29
20
-74.3081
11
124.327
21
-74.3384
0
LINE
8
BLACK
6
CONTINUOUS
10
124.327
20
-74.3384
11
124.357
21
-74.3753
0
LINE
8
BLACK
6
CONTINUOUS
10
124.357
20
-74.3753
11
124.379
21
-74.4175
0
LINE
8
BLACK
6
CONTINUOUS
10
124.379
20
-74.4175
11
124.393
21
-74.4632
0
LINE
8
BLACK
6
CONTINUOUS
10
124.393
20
-74.4632
11
124.398
21
-74.5108
0
LINE
8
BLACK
6
CONTINUOUS
10
124.398
20
-74.5108
11
124.398
21
-74.9982
0
LINE
8
BLACK
6
CONTINUOUS
10
124.398
20
-74.9982
11
124.393
21
-75.0458
0
LINE
8
BLACK
6
CONTINUOUS
10
124.393
20
-75.0458
11
124.379
21
-75.0915
0
LINE
8
BLACK
6
CONTINUOUS
10
124.379
20
-75.0915
11
124.357
21
-75.1337
0
LINE
8
BLACK
6
CONTINUOUS
10
124.357
20
-75.1337
11
124.327
21
-75.1706
0
LINE
8
BLACK
6
CONTINUOUS
10
124.327
20
-75.1706
11
124.29
21
-75.2009
0
LINE
8
BLACK
6
CONTINUOUS
10
124.29
20
-75.2009
11
124.248
21
-75.2234
0
LINE
8
BLACK
6
CONTINUOUS
10
124.248
20
-75.2234
11
124.202
21
-75.2373
0
LINE
8
BLACK
6
CONTINUOUS
10
124.202
20
-75.2373
11
124.154
21
-75.242
0
LINE
8
BLACK
6
CONTINUOUS
10
124.154
20
-75.242
11
123.242
21
-75.242
0
LINE
8
BLACK
6
CONTINUOUS
10
123.242
20
-75.242
11
123.194
21
-75.2373
0
LINE
8
BLACK
6
CONTINUOUS
10
123.194
20
-75.2373
11
123.148
21
-75.2234
0
LINE
8
BLACK
6
CONTINUOUS
10
123.148
20
-75.2234
11
123.106
21
-75.2009
0
LINE
8
BLACK
6
CONTINUOUS
10
123.106
20
-75.2009
11
123.069
21
-75.1706
0
LINE
8
BLACK
6
CONTINUOUS
10
123.069
20
-75.1706
11
123.039
21
-75.1337
0
LINE
8
BLACK
6
CONTINUOUS
10
123.039
20
-75.1337
11
123.017
21
-75.0915
0
LINE
8
BLACK
6
CONTINUOUS
10
123.017
20
-75.0915
11
123.003
21
-75.0458
0
LINE
8
BLACK
6
CONTINUOUS
10
123.003
20
-75.0458
11
122.998
21
-74.9982
0
LINE
8
BLACK
6
CONTINUOUS
10
122.998
20
-74.9982
11
122.998
21
-74.5108
0
LINE
8
BLACK
6
CONTINUOUS
10
122.998
20
-74.5108
11
123.003
21
-74.4632
0
LINE
8
BLACK
6
CONTINUOUS
10
123.003
20
-74.4632
11
123.017
21
-74.4175
0
LINE
8
BLACK
6
CONTINUOUS
10
123.017
20
-74.4175
11
123.039
21
-74.3753
0
LINE
8
BLACK
6
CONTINUOUS
10
123.039
20
-74.3753
11
123.069
21
-74.3384
0
LINE
8
BLACK
6
CONTINUOUS
10
123.069
20
-74.3384
11
123.106
21
-74.3081
0
LINE
8
BLACK
6
CONTINUOUS
10
123.106
20
-74.3081
11
123.148
21
-74.2856
0
LINE
8
BLACK
6
CONTINUOUS
10
123.148
20
-74.2856
11
123.194
21
-74.2717
0
LINE
8
BLACK
6
CONTINUOUS
10
123.194
20
-74.2717
11
123.242
21
-74.267
0
LINE
8
BLACK
6
CONTINUOUS
10
123.242
20
-74.267
11
124.154
21
-74.267
0
LINE
8
BLACK
6
CONTINUOUS
10
124.154
20
-74.267
11
124.202
21
-74.2717
0
LINE
8
BLACK
6
CONTINUOUS
10
126.619
20
-75.0214
11
125.298
21
-75.0214
0
LINE
8
BLACK
6
CONTINUOUS
10
125.298
20
-75.0214
11
125.298
21
-74.4626
0
LINE
8
BLACK
6
CONTINUOUS
10
125.298
20
-74.4626
11
126.619
21
-74.4626
0
LINE
8
BLACK
6
CONTINUOUS
10
126.619
20
-74.4626
11
126.619
21
-75.0214
0
LINE
8
BLACK
6
CONTINUOUS
10
129.21
20
-75.0214
11
127.889
21
-75.0214
0
LINE
8
BLACK
6
CONTINUOUS
10
127.889
20
-75.0214
11
127.889
21
-74.4626
0
LINE
8
BLACK
6
CONTINUOUS
10
127.889
20
-74.4626
11
129.21
21
-74.4626
0
LINE
8
BLACK
6
CONTINUOUS
10
129.21
20
-74.4626
11
129.21
21
-75.0214
0
LINE
8
BLACK
6
CONTINUOUS
10
145.313
20
-74.549
11
144.755
21
-74.549
0
LINE
8
BLACK
6
CONTINUOUS
10
144.755
20
-74.549
11
144.755
21
-73.0758
0
LINE
8
BLACK
6
CONTINUOUS
10
144.755
20
-73.0758
11
145.313
21
-73.0758
0
LINE
8
BLACK
6
CONTINUOUS
10
145.313
20
-73.0758
11
145.313
21
-74.549
0
LINE
8
BLACK
6
CONTINUOUS
10
143.413
20
-74.549
11
142.855
21
-74.549
0
LINE
8
BLACK
6
CONTINUOUS
10
142.855
20
-74.549
11
142.855
21
-73.0758
0
LINE
8
BLACK
6
CONTINUOUS
10
142.855
20
-73.0758
11
143.413
21
-73.0758
0
LINE
8
BLACK
6
CONTINUOUS
10
143.413
20
-73.0758
11
143.413
21
-74.549
0
LINE
8
BLACK
6
CONTINUOUS
10
144.363
20
-74.549
11
143.805
21
-74.549
0
LINE
8
BLACK
6
CONTINUOUS
10
143.805
20
-74.549
11
143.805
21
-73.0758
0
LINE
8
BLACK
6
CONTINUOUS
10
143.805
20
-73.0758
11
144.363
21
-73.0758
0
LINE
8
BLACK
6
CONTINUOUS
10
144.363
20
-73.0758
11
144.363
21
-74.549
0
LINE
8
BLACK
6
CONTINUOUS
10
141.136
20
-73.2938
11
141.183
21
-73.308
0
LINE
8
BLACK
6
CONTINUOUS
10
141.183
20
-73.308
11
141.226
21
-73.3311
0
LINE
8
BLACK
6
CONTINUOUS
10
141.226
20
-73.3311
11
141.264
21
-73.3622
0
LINE
8
BLACK
6
CONTINUOUS
10
141.264
20
-73.3622
11
141.295
21
-73.4001
0
LINE
8
BLACK
6
CONTINUOUS
10
141.295
20
-73.4001
11
141.318
21
-73.4433
0
LINE
8
BLACK
6
CONTINUOUS
10
141.318
20
-73.4433
11
141.332
21
-73.4902
0
LINE
8
BLACK
6
CONTINUOUS
10
141.332
20
-73.4902
11
141.337
21
-73.539
0
LINE
8
BLACK
6
CONTINUOUS
10
141.337
20
-73.539
11
141.337
21
-74.289
0
LINE
8
BLACK
6
CONTINUOUS
10
141.337
20
-74.289
11
141.332
21
-74.3378
0
LINE
8
BLACK
6
CONTINUOUS
10
141.332
20
-74.3378
11
141.318
21
-74.3847
0
LINE
8
BLACK
6
CONTINUOUS
10
141.318
20
-74.3847
11
141.295
21
-74.4279
0
LINE
8
BLACK
6
CONTINUOUS
10
141.295
20
-74.4279
11
141.264
21
-74.4658
0
LINE
8
BLACK
6
CONTINUOUS
10
141.264
20
-74.4658
11
141.226
21
-74.4969
0
LINE
8
BLACK
6
CONTINUOUS
10
141.226
20
-74.4969
11
141.183
21
-74.52
0
LINE
8
BLACK
6
CONTINUOUS
10
141.183
20
-74.52
11
141.136
21
-74.5342
0
LINE
8
BLACK
6
CONTINUOUS
10
141.136
20
-74.5342
11
141.087
21
-74.539
0
LINE
8
BLACK
6
CONTINUOUS
10
141.087
20
-74.539
11
139.837
21
-74.539
0
LINE
8
BLACK
6
CONTINUOUS
10
139.837
20
-74.539
11
139.788
21
-74.5342
0
LINE
8
BLACK
6
CONTINUOUS
10
139.788
20
-74.5342
11
139.741
21
-74.52
0
LINE
8
BLACK
6
CONTINUOUS
10
139.741
20
-74.52
11
139.698
21
-74.4969
0
LINE
8
BLACK
6
CONTINUOUS
10
139.698
20
-74.4969
11
139.66
21
-74.4658
0
LINE
8
BLACK
6
CONTINUOUS
10
139.66
20
-74.4658
11
139.629
21
-74.4279
0
LINE
8
BLACK
6
CONTINUOUS
10
139.629
20
-74.4279
11
139.606
21
-74.3847
0
LINE
8
BLACK
6
CONTINUOUS
10
139.606
20
-74.3847
11
139.592
21
-74.3378
0
LINE
8
BLACK
6
CONTINUOUS
10
139.592
20
-74.3378
11
139.587
21
-74.289
0
LINE
8
BLACK
6
CONTINUOUS
10
139.587
20
-74.289
11
139.587
21
-73.539
0
LINE
8
BLACK
6
CONTINUOUS
10
139.587
20
-73.539
11
139.592
21
-73.4902
0
LINE
8
BLACK
6
CONTINUOUS
10
139.592
20
-73.4902
11
139.606
21
-73.4433
0
LINE
8
BLACK
6
CONTINUOUS
10
139.606
20
-73.4433
11
139.629
21
-73.4001
0
LINE
8
BLACK
6
CONTINUOUS
10
139.629
20
-73.4001
11
139.66
21
-73.3622
0
LINE
8
BLACK
6
CONTINUOUS
10
139.66
20
-73.3622
11
139.698
21
-73.3311
0
LINE
8
BLACK
6
CONTINUOUS
10
139.698
20
-73.3311
11
139.741
21
-73.308
0
LINE
8
BLACK
6
CONTINUOUS
10
139.741
20
-73.308
11
139.788
21
-73.2938
0
LINE
8
BLACK
6
CONTINUOUS
10
139.788
20
-73.2938
11
139.837
21
-73.289
0
LINE
8
BLACK
6
CONTINUOUS
10
139.837
20
-73.289
11
141.087
21
-73.289
0
LINE
8
BLACK
6
CONTINUOUS
10
141.087
20
-73.289
11
141.136
21
-73.2938
  0
ENDSEC
  0
EOF
