  0
SECTION
  2
HEADER
  9
$ANGBASE
  50
0.0
  9
$ANGDIR
  70
1
  9
$MEASUREMENT
  70
1
  0
ENDSEC
  0
SECTION
  2
TABLES
  0
TABLE
  2
LTYPE
  70
4
  0
LTYPE
  5
40F
  2
CONTINUOUS
  70
0
  3
Solid line
  72
65
  73
0
  40
0.0
  0
LTYPE
  5
410
  2
DASHDOT
 70
0
  3
Dash Dot ____ _ ____ _
 72
65
 73
4
 40
2.0
 49
1.25
 49
-0.25
 49
0.25
 49
-0.25
  0
LTYPE
  5
411
  2
DASHED
 70
0
  3
Dashed __ __ __ __ __
 72
65
 73
2
 40
0.75
 49
0.5
 49
-0.25
  0
LTYPE
  5
43B
  2
DOTTED
 70
0
  3
Dotted .  .  .  .
 72
65
 73
2
 40
0.2
 49
0.0
 49
-0.2
  0
ENDTAB
  0
TABLE
  2
STYLE
  70
4
  0
STYLE
  2
KICAD
  70
0
  40
0
  41
1
  42
1
  50
0
  71
0
  3
isocp.shx
  0
STYLE
  2
KICADB
  70
0
  40
0
  41
1
  42
1
  50
0
  71
0
  3
isocp.shx
  0
STYLE
  2
KICADI
  70
0
  40
0
  41
1
  42
1
  50
15
  71
0
  3
isocp.shx
  0
STYLE
  2
KICADBI
  70
0
  40
0
  41
1
  42
1
  50
15
  71
0
  3
isocp.shx
  0
ENDTAB
  0
TABLE
  2
LAYER
  70
1
  0
LAYER
  2
BLACK
  70
0
  62
7
  6
CONTINUOUS
  0
ENDTAB
  0
ENDSEC
  0
SECTION
  2
ENTITIES
0
LINE
8
BLACK
6
CONTINUOUS
10
138.426
20
-109.088
11
138.472
21
-109.102
0
LINE
8
BLACK
6
CONTINUOUS
10
138.472
20
-109.102
11
138.514
21
-109.125
0
LINE
8
BLACK
6
CONTINUOUS
10
138.514
20
-109.125
11
138.551
21
-109.155
0
LINE
8
BLACK
6
CONTINUOUS
10
138.551
20
-109.155
11
138.581
21
-109.192
0
LINE
8
BLACK
6
CONTINUOUS
10
138.581
20
-109.192
11
138.603
21
-109.234
0
LINE
8
BLACK
6
CONTINUOUS
10
138.603
20
-109.234
11
138.617
21
-109.28
0
LINE
8
BLACK
6
CONTINUOUS
10
138.617
20
-109.28
11
138.622
21
-109.327
0
LINE
8
BLACK
6
CONTINUOUS
10
138.622
20
-109.327
11
138.622
21
-109.815
0
LINE
8
BLACK
6
CONTINUOUS
10
138.622
20
-109.815
11
138.617
21
-109.862
0
LINE
8
BLACK
6
CONTINUOUS
10
138.617
20
-109.862
11
138.603
21
-109.908
0
LINE
8
BLACK
6
CONTINUOUS
10
138.603
20
-109.908
11
138.581
21
-109.95
0
LINE
8
BLACK
6
CONTINUOUS
10
138.581
20
-109.95
11
138.551
21
-109.987
0
LINE
8
BLACK
6
CONTINUOUS
10
138.551
20
-109.987
11
138.514
21
-110.017
0
LINE
8
BLACK
6
CONTINUOUS
10
138.514
20
-110.017
11
138.472
21
-110.04
0
LINE
8
BLACK
6
CONTINUOUS
10
138.472
20
-110.04
11
138.426
21
-110.054
0
LINE
8
BLACK
6
CONTINUOUS
10
138.426
20
-110.054
11
138.378
21
-110.058
0
LINE
8
BLACK
6
CONTINUOUS
10
138.378
20
-110.058
11
137.466
21
-110.058
0
LINE
8
BLACK
6
CONTINUOUS
10
137.466
20
-110.058
11
137.418
21
-110.054
0
LINE
8
BLACK
6
CONTINUOUS
10
137.418
20
-110.054
11
137.372
21
-110.04
0
LINE
8
BLACK
6
CONTINUOUS
10
137.372
20
-110.04
11
137.33
21
-110.017
0
LINE
8
BLACK
6
CONTINUOUS
10
137.33
20
-110.017
11
137.293
21
-109.987
0
LINE
8
BLACK
6
CONTINUOUS
10
137.293
20
-109.987
11
137.263
21
-109.95
0
LINE
8
BLACK
6
CONTINUOUS
10
137.263
20
-109.95
11
137.241
21
-109.908
0
LINE
8
BLACK
6
CONTINUOUS
10
137.241
20
-109.908
11
137.227
21
-109.862
0
LINE
8
BLACK
6
CONTINUOUS
10
137.227
20
-109.862
11
137.222
21
-109.815
0
LINE
8
BLACK
6
CONTINUOUS
10
137.222
20
-109.815
11
137.222
21
-109.327
0
LINE
8
BLACK
6
CONTINUOUS
10
137.222
20
-109.327
11
137.227
21
-109.28
0
LINE
8
BLACK
6
CONTINUOUS
10
137.227
20
-109.28
11
137.241
21
-109.234
0
LINE
8
BLACK
6
CONTINUOUS
10
137.241
20
-109.234
11
137.263
21
-109.192
0
LINE
8
BLACK
6
CONTINUOUS
10
137.263
20
-109.192
11
137.293
21
-109.155
0
LINE
8
BLACK
6
CONTINUOUS
10
137.293
20
-109.155
11
137.33
21
-109.125
0
LINE
8
BLACK
6
CONTINUOUS
10
137.33
20
-109.125
11
137.372
21
-109.102
0
LINE
8
BLACK
6
CONTINUOUS
10
137.372
20
-109.102
11
137.418
21
-109.088
0
LINE
8
BLACK
6
CONTINUOUS
10
137.418
20
-109.088
11
137.466
21
-109.084
0
LINE
8
BLACK
6
CONTINUOUS
10
137.466
20
-109.084
11
138.378
21
-109.084
0
LINE
8
BLACK
6
CONTINUOUS
10
138.378
20
-109.084
11
138.426
21
-109.088
0
LINE
8
BLACK
6
CONTINUOUS
10
138.426
20
-107.213
11
138.472
21
-107.227
0
LINE
8
BLACK
6
CONTINUOUS
10
138.472
20
-107.227
11
138.514
21
-107.25
0
LINE
8
BLACK
6
CONTINUOUS
10
138.514
20
-107.25
11
138.551
21
-107.28
0
LINE
8
BLACK
6
CONTINUOUS
10
138.551
20
-107.28
11
138.581
21
-107.317
0
LINE
8
BLACK
6
CONTINUOUS
10
138.581
20
-107.317
11
138.603
21
-107.359
0
LINE
8
BLACK
6
CONTINUOUS
10
138.603
20
-107.359
11
138.617
21
-107.405
0
LINE
8
BLACK
6
CONTINUOUS
10
138.617
20
-107.405
11
138.622
21
-107.452
0
LINE
8
BLACK
6
CONTINUOUS
10
138.622
20
-107.452
11
138.622
21
-107.94
0
LINE
8
BLACK
6
CONTINUOUS
10
138.622
20
-107.94
11
138.617
21
-107.987
0
LINE
8
BLACK
6
CONTINUOUS
10
138.617
20
-107.987
11
138.603
21
-108.033
0
LINE
8
BLACK
6
CONTINUOUS
10
138.603
20
-108.033
11
138.581
21
-108.075
0
LINE
8
BLACK
6
CONTINUOUS
10
138.581
20
-108.075
11
138.551
21
-108.112
0
LINE
8
BLACK
6
CONTINUOUS
10
138.551
20
-108.112
11
138.514
21
-108.142
0
LINE
8
BLACK
6
CONTINUOUS
10
138.514
20
-108.142
11
138.472
21
-108.165
0
LINE
8
BLACK
6
CONTINUOUS
10
138.472
20
-108.165
11
138.426
21
-108.179
0
LINE
8
BLACK
6
CONTINUOUS
10
138.426
20
-108.179
11
138.378
21
-108.183
0
LINE
8
BLACK
6
CONTINUOUS
10
138.378
20
-108.183
11
137.466
21
-108.183
0
LINE
8
BLACK
6
CONTINUOUS
10
137.466
20
-108.183
11
137.418
21
-108.179
0
LINE
8
BLACK
6
CONTINUOUS
10
137.418
20
-108.179
11
137.372
21
-108.165
0
LINE
8
BLACK
6
CONTINUOUS
10
137.372
20
-108.165
11
137.33
21
-108.142
0
LINE
8
BLACK
6
CONTINUOUS
10
137.33
20
-108.142
11
137.293
21
-108.112
0
LINE
8
BLACK
6
CONTINUOUS
10
137.293
20
-108.112
11
137.263
21
-108.075
0
LINE
8
BLACK
6
CONTINUOUS
10
137.263
20
-108.075
11
137.241
21
-108.033
0
LINE
8
BLACK
6
CONTINUOUS
10
137.241
20
-108.033
11
137.227
21
-107.987
0
LINE
8
BLACK
6
CONTINUOUS
10
137.227
20
-107.987
11
137.222
21
-107.94
0
LINE
8
BLACK
6
CONTINUOUS
10
137.222
20
-107.94
11
137.222
21
-107.452
0
LINE
8
BLACK
6
CONTINUOUS
10
137.222
20
-107.452
11
137.227
21
-107.405
0
LINE
8
BLACK
6
CONTINUOUS
10
137.227
20
-107.405
11
137.241
21
-107.359
0
LINE
8
BLACK
6
CONTINUOUS
10
137.241
20
-107.359
11
137.263
21
-107.317
0
LINE
8
BLACK
6
CONTINUOUS
10
137.263
20
-107.317
11
137.293
21
-107.28
0
LINE
8
BLACK
6
CONTINUOUS
10
137.293
20
-107.28
11
137.33
21
-107.25
0
LINE
8
BLACK
6
CONTINUOUS
10
137.33
20
-107.25
11
137.372
21
-107.227
0
LINE
8
BLACK
6
CONTINUOUS
10
137.372
20
-107.227
11
137.418
21
-107.213
0
LINE
8
BLACK
6
CONTINUOUS
10
137.418
20
-107.213
11
137.466
21
-107.209
0
LINE
8
BLACK
6
CONTINUOUS
10
137.466
20
-107.209
11
138.378
21
-107.209
0
LINE
8
BLACK
6
CONTINUOUS
10
138.378
20
-107.209
11
138.426
21
-107.213
0
LINE
8
BLACK
6
CONTINUOUS
10
142.406
20
-103.47
11
142.453
21
-103.484
0
LINE
8
BLACK
6
CONTINUOUS
10
142.453
20
-103.484
11
142.496
21
-103.507
0
LINE
8
BLACK
6
CONTINUOUS
10
142.496
20
-103.507
11
142.534
21
-103.538
0
LINE
8
BLACK
6
CONTINUOUS
10
142.534
20
-103.538
11
142.565
21
-103.576
0
LINE
8
BLACK
6
CONTINUOUS
10
142.565
20
-103.576
11
142.588
21
-103.619
0
LINE
8
BLACK
6
CONTINUOUS
10
142.588
20
-103.619
11
142.602
21
-103.666
0
LINE
8
BLACK
6
CONTINUOUS
10
142.602
20
-103.666
11
142.607
21
-103.715
0
LINE
8
BLACK
6
CONTINUOUS
10
142.607
20
-103.715
11
142.607
21
-104.465
0
LINE
8
BLACK
6
CONTINUOUS
10
142.607
20
-104.465
11
142.602
21
-104.514
0
LINE
8
BLACK
6
CONTINUOUS
10
142.602
20
-104.514
11
142.588
21
-104.561
0
LINE
8
BLACK
6
CONTINUOUS
10
142.588
20
-104.561
11
142.565
21
-104.604
0
LINE
8
BLACK
6
CONTINUOUS
10
142.565
20
-104.604
11
142.534
21
-104.642
0
LINE
8
BLACK
6
CONTINUOUS
10
142.534
20
-104.642
11
142.496
21
-104.673
0
LINE
8
BLACK
6
CONTINUOUS
10
142.496
20
-104.673
11
142.453
21
-104.696
0
LINE
8
BLACK
6
CONTINUOUS
10
142.453
20
-104.696
11
142.406
21
-104.71
0
LINE
8
BLACK
6
CONTINUOUS
10
142.406
20
-104.71
11
142.357
21
-104.715
0
LINE
8
BLACK
6
CONTINUOUS
10
142.357
20
-104.715
11
141.107
21
-104.715
0
LINE
8
BLACK
6
CONTINUOUS
10
141.107
20
-104.715
11
141.058
21
-104.71
0
LINE
8
BLACK
6
CONTINUOUS
10
141.058
20
-104.71
11
141.011
21
-104.696
0
LINE
8
BLACK
6
CONTINUOUS
10
141.011
20
-104.696
11
140.968
21
-104.673
0
LINE
8
BLACK
6
CONTINUOUS
10
140.968
20
-104.673
11
140.93
21
-104.642
0
LINE
8
BLACK
6
CONTINUOUS
10
140.93
20
-104.642
11
140.899
21
-104.604
0
LINE
8
BLACK
6
CONTINUOUS
10
140.899
20
-104.604
11
140.876
21
-104.561
0
LINE
8
BLACK
6
CONTINUOUS
10
140.876
20
-104.561
11
140.862
21
-104.514
0
LINE
8
BLACK
6
CONTINUOUS
10
140.862
20
-104.514
11
140.857
21
-104.465
0
LINE
8
BLACK
6
CONTINUOUS
10
140.857
20
-104.465
11
140.857
21
-103.715
0
LINE
8
BLACK
6
CONTINUOUS
10
140.857
20
-103.715
11
140.862
21
-103.666
0
LINE
8
BLACK
6
CONTINUOUS
10
140.862
20
-103.666
11
140.876
21
-103.619
0
LINE
8
BLACK
6
CONTINUOUS
10
140.876
20
-103.619
11
140.899
21
-103.576
0
LINE
8
BLACK
6
CONTINUOUS
10
140.899
20
-103.576
11
140.93
21
-103.538
0
LINE
8
BLACK
6
CONTINUOUS
10
140.93
20
-103.538
11
140.968
21
-103.507
0
LINE
8
BLACK
6
CONTINUOUS
10
140.968
20
-103.507
11
141.011
21
-103.484
0
LINE
8
BLACK
6
CONTINUOUS
10
141.011
20
-103.484
11
141.058
21
-103.47
0
LINE
8
BLACK
6
CONTINUOUS
10
141.058
20
-103.47
11
141.107
21
-103.465
0
LINE
8
BLACK
6
CONTINUOUS
10
141.107
20
-103.465
11
142.357
21
-103.465
0
LINE
8
BLACK
6
CONTINUOUS
10
142.357
20
-103.465
11
142.406
21
-103.47
0
LINE
8
BLACK
6
CONTINUOUS
10
159.424
20
-102.002
11
159.471
21
-102.016
0
LINE
8
BLACK
6
CONTINUOUS
10
159.471
20
-102.016
11
159.514
21
-102.039
0
LINE
8
BLACK
6
CONTINUOUS
10
159.514
20
-102.039
11
159.552
21
-102.07
0
LINE
8
BLACK
6
CONTINUOUS
10
159.552
20
-102.07
11
159.583
21
-102.108
0
LINE
8
BLACK
6
CONTINUOUS
10
159.583
20
-102.108
11
159.606
21
-102.151
0
LINE
8
BLACK
6
CONTINUOUS
10
159.606
20
-102.151
11
159.62
21
-102.198
0
LINE
8
BLACK
6
CONTINUOUS
10
159.62
20
-102.198
11
159.625
21
-102.247
0
LINE
8
BLACK
6
CONTINUOUS
10
159.625
20
-102.247
11
159.625
21
-102.997
0
LINE
8
BLACK
6
CONTINUOUS
10
159.625
20
-102.997
11
159.62
21
-103.046
0
LINE
8
BLACK
6
CONTINUOUS
10
159.62
20
-103.046
11
159.606
21
-103.093
0
LINE
8
BLACK
6
CONTINUOUS
10
159.606
20
-103.093
11
159.583
21
-103.136
0
LINE
8
BLACK
6
CONTINUOUS
10
159.583
20
-103.136
11
159.552
21
-103.174
0
LINE
8
BLACK
6
CONTINUOUS
10
159.552
20
-103.174
11
159.514
21
-103.205
0
LINE
8
BLACK
6
CONTINUOUS
10
159.514
20
-103.205
11
159.471
21
-103.228
0
LINE
8
BLACK
6
CONTINUOUS
10
159.471
20
-103.228
11
159.424
21
-103.242
0
LINE
8
BLACK
6
CONTINUOUS
10
159.424
20
-103.242
11
159.375
21
-103.247
0
LINE
8
BLACK
6
CONTINUOUS
10
159.375
20
-103.247
11
158.125
21
-103.247
0
LINE
8
BLACK
6
CONTINUOUS
10
158.125
20
-103.247
11
158.076
21
-103.242
0
LINE
8
BLACK
6
CONTINUOUS
10
158.076
20
-103.242
11
158.029
21
-103.228
0
LINE
8
BLACK
6
CONTINUOUS
10
158.029
20
-103.228
11
157.986
21
-103.205
0
LINE
8
BLACK
6
CONTINUOUS
10
157.986
20
-103.205
11
157.948
21
-103.174
0
LINE
8
BLACK
6
CONTINUOUS
10
157.948
20
-103.174
11
157.917
21
-103.136
0
LINE
8
BLACK
6
CONTINUOUS
10
157.917
20
-103.136
11
157.894
21
-103.093
0
LINE
8
BLACK
6
CONTINUOUS
10
157.894
20
-103.093
11
157.88
21
-103.046
0
LINE
8
BLACK
6
CONTINUOUS
10
157.88
20
-103.046
11
157.875
21
-102.997
0
LINE
8
BLACK
6
CONTINUOUS
10
157.875
20
-102.997
11
157.875
21
-102.247
0
LINE
8
BLACK
6
CONTINUOUS
10
157.875
20
-102.247
11
157.88
21
-102.198
0
LINE
8
BLACK
6
CONTINUOUS
10
157.88
20
-102.198
11
157.894
21
-102.151
0
LINE
8
BLACK
6
CONTINUOUS
10
157.894
20
-102.151
11
157.917
21
-102.108
0
LINE
8
BLACK
6
CONTINUOUS
10
157.917
20
-102.108
11
157.948
21
-102.07
0
LINE
8
BLACK
6
CONTINUOUS
10
157.948
20
-102.07
11
157.986
21
-102.039
0
LINE
8
BLACK
6
CONTINUOUS
10
157.986
20
-102.039
11
158.029
21
-102.016
0
LINE
8
BLACK
6
CONTINUOUS
10
158.029
20
-102.016
11
158.076
21
-102.002
0
LINE
8
BLACK
6
CONTINUOUS
10
158.076
20
-102.002
11
158.125
21
-101.997
0
LINE
8
BLACK
6
CONTINUOUS
10
158.125
20
-101.997
11
159.375
21
-101.997
0
LINE
8
BLACK
6
CONTINUOUS
10
159.375
20
-101.997
11
159.424
21
-102.002
0
LINE
8
BLACK
6
CONTINUOUS
10
161.54
20
-102.23
11
161.586
21
-102.244
0
LINE
8
BLACK
6
CONTINUOUS
10
161.586
20
-102.244
11
161.628
21
-102.267
0
LINE
8
BLACK
6
CONTINUOUS
10
161.628
20
-102.267
11
161.665
21
-102.297
0
LINE
8
BLACK
6
CONTINUOUS
10
161.665
20
-102.297
11
161.695
21
-102.334
0
LINE
8
BLACK
6
CONTINUOUS
10
161.695
20
-102.334
11
161.717
21
-102.376
0
LINE
8
BLACK
6
CONTINUOUS
10
161.717
20
-102.376
11
161.731
21
-102.422
0
LINE
8
BLACK
6
CONTINUOUS
10
161.731
20
-102.422
11
161.736
21
-102.469
0
LINE
8
BLACK
6
CONTINUOUS
10
161.736
20
-102.469
11
161.736
21
-102.957
0
LINE
8
BLACK
6
CONTINUOUS
10
161.736
20
-102.957
11
161.731
21
-103.004
0
LINE
8
BLACK
6
CONTINUOUS
10
161.731
20
-103.004
11
161.717
21
-103.05
0
LINE
8
BLACK
6
CONTINUOUS
10
161.717
20
-103.05
11
161.695
21
-103.092
0
LINE
8
BLACK
6
CONTINUOUS
10
161.695
20
-103.092
11
161.665
21
-103.129
0
LINE
8
BLACK
6
CONTINUOUS
10
161.665
20
-103.129
11
161.628
21
-103.159
0
LINE
8
BLACK
6
CONTINUOUS
10
161.628
20
-103.159
11
161.586
21
-103.182
0
LINE
8
BLACK
6
CONTINUOUS
10
161.586
20
-103.182
11
161.54
21
-103.196
0
LINE
8
BLACK
6
CONTINUOUS
10
161.54
20
-103.196
11
161.492
21
-103.2
0
LINE
8
BLACK
6
CONTINUOUS
10
161.492
20
-103.2
11
160.58
21
-103.2
0
LINE
8
BLACK
6
CONTINUOUS
10
160.58
20
-103.2
11
160.532
21
-103.196
0
LINE
8
BLACK
6
CONTINUOUS
10
160.532
20
-103.196
11
160.486
21
-103.182
0
LINE
8
BLACK
6
CONTINUOUS
10
160.486
20
-103.182
11
160.444
21
-103.159
0
LINE
8
BLACK
6
CONTINUOUS
10
160.444
20
-103.159
11
160.407
21
-103.129
0
LINE
8
BLACK
6
CONTINUOUS
10
160.407
20
-103.129
11
160.377
21
-103.092
0
LINE
8
BLACK
6
CONTINUOUS
10
160.377
20
-103.092
11
160.355
21
-103.05
0
LINE
8
BLACK
6
CONTINUOUS
10
160.355
20
-103.05
11
160.341
21
-103.004
0
LINE
8
BLACK
6
CONTINUOUS
10
160.341
20
-103.004
11
160.336
21
-102.957
0
LINE
8
BLACK
6
CONTINUOUS
10
160.336
20
-102.957
11
160.336
21
-102.469
0
LINE
8
BLACK
6
CONTINUOUS
10
160.336
20
-102.469
11
160.341
21
-102.422
0
LINE
8
BLACK
6
CONTINUOUS
10
160.341
20
-102.422
11
160.355
21
-102.376
0
LINE
8
BLACK
6
CONTINUOUS
10
160.355
20
-102.376
11
160.377
21
-102.334
0
LINE
8
BLACK
6
CONTINUOUS
10
160.377
20
-102.334
11
160.407
21
-102.297
0
LINE
8
BLACK
6
CONTINUOUS
10
160.407
20
-102.297
11
160.444
21
-102.267
0
LINE
8
BLACK
6
CONTINUOUS
10
160.444
20
-102.267
11
160.486
21
-102.244
0
LINE
8
BLACK
6
CONTINUOUS
10
160.486
20
-102.244
11
160.532
21
-102.23
0
LINE
8
BLACK
6
CONTINUOUS
10
160.532
20
-102.23
11
160.58
21
-102.225
0
LINE
8
BLACK
6
CONTINUOUS
10
160.58
20
-102.225
11
161.492
21
-102.225
0
LINE
8
BLACK
6
CONTINUOUS
10
161.492
20
-102.225
11
161.54
21
-102.23
0
LINE
8
BLACK
6
CONTINUOUS
10
142.406
20
-100.67
11
142.453
21
-100.684
0
LINE
8
BLACK
6
CONTINUOUS
10
142.453
20
-100.684
11
142.496
21
-100.707
0
LINE
8
BLACK
6
CONTINUOUS
10
142.496
20
-100.707
11
142.534
21
-100.738
0
LINE
8
BLACK
6
CONTINUOUS
10
142.534
20
-100.738
11
142.565
21
-100.776
0
LINE
8
BLACK
6
CONTINUOUS
10
142.565
20
-100.776
11
142.588
21
-100.819
0
LINE
8
BLACK
6
CONTINUOUS
10
142.588
20
-100.819
11
142.602
21
-100.866
0
LINE
8
BLACK
6
CONTINUOUS
10
142.602
20
-100.866
11
142.607
21
-100.915
0
LINE
8
BLACK
6
CONTINUOUS
10
142.607
20
-100.915
11
142.607
21
-101.665
0
LINE
8
BLACK
6
CONTINUOUS
10
142.607
20
-101.665
11
142.602
21
-101.714
0
LINE
8
BLACK
6
CONTINUOUS
10
142.602
20
-101.714
11
142.588
21
-101.761
0
LINE
8
BLACK
6
CONTINUOUS
10
142.588
20
-101.761
11
142.565
21
-101.804
0
LINE
8
BLACK
6
CONTINUOUS
10
142.565
20
-101.804
11
142.534
21
-101.842
0
LINE
8
BLACK
6
CONTINUOUS
10
142.534
20
-101.842
11
142.496
21
-101.873
0
LINE
8
BLACK
6
CONTINUOUS
10
142.496
20
-101.873
11
142.453
21
-101.896
0
LINE
8
BLACK
6
CONTINUOUS
10
142.453
20
-101.896
11
142.406
21
-101.91
0
LINE
8
BLACK
6
CONTINUOUS
10
142.406
20
-101.91
11
142.357
21
-101.915
0
LINE
8
BLACK
6
CONTINUOUS
10
142.357
20
-101.915
11
141.107
21
-101.915
0
LINE
8
BLACK
6
CONTINUOUS
10
141.107
20
-101.915
11
141.058
21
-101.91
0
LINE
8
BLACK
6
CONTINUOUS
10
141.058
20
-101.91
11
141.011
21
-101.896
0
LINE
8
BLACK
6
CONTINUOUS
10
141.011
20
-101.896
11
140.968
21
-101.873
0
LINE
8
BLACK
6
CONTINUOUS
10
140.968
20
-101.873
11
140.93
21
-101.842
0
LINE
8
BLACK
6
CONTINUOUS
10
140.93
20
-101.842
11
140.899
21
-101.804
0
LINE
8
BLACK
6
CONTINUOUS
10
140.899
20
-101.804
11
140.876
21
-101.761
0
LINE
8
BLACK
6
CONTINUOUS
10
140.876
20
-101.761
11
140.862
21
-101.714
0
LINE
8
BLACK
6
CONTINUOUS
10
140.862
20
-101.714
11
140.857
21
-101.665
0
LINE
8
BLACK
6
CONTINUOUS
10
140.857
20
-101.665
11
140.857
21
-100.915
0
LINE
8
BLACK
6
CONTINUOUS
10
140.857
20
-100.915
11
140.862
21
-100.866
0
LINE
8
BLACK
6
CONTINUOUS
10
140.862
20
-100.866
11
140.876
21
-100.819
0
LINE
8
BLACK
6
CONTINUOUS
10
140.876
20
-100.819
11
140.899
21
-100.776
0
LINE
8
BLACK
6
CONTINUOUS
10
140.899
20
-100.776
11
140.93
21
-100.738
0
LINE
8
BLACK
6
CONTINUOUS
10
140.93
20
-100.738
11
140.968
21
-100.707
0
LINE
8
BLACK
6
CONTINUOUS
10
140.968
20
-100.707
11
141.011
21
-100.684
0
LINE
8
BLACK
6
CONTINUOUS
10
141.011
20
-100.684
11
141.058
21
-100.67
0
LINE
8
BLACK
6
CONTINUOUS
10
141.058
20
-100.67
11
141.107
21
-100.665
0
LINE
8
BLACK
6
CONTINUOUS
10
141.107
20
-100.665
11
142.357
21
-100.665
0
LINE
8
BLACK
6
CONTINUOUS
10
142.357
20
-100.665
11
142.406
21
-100.67
0
LINE
8
BLACK
6
CONTINUOUS
10
161.54
20
-100.355
11
161.586
21
-100.369
0
LINE
8
BLACK
6
CONTINUOUS
10
161.586
20
-100.369
11
161.628
21
-100.392
0
LINE
8
BLACK
6
CONTINUOUS
10
161.628
20
-100.392
11
161.665
21
-100.422
0
LINE
8
BLACK
6
CONTINUOUS
10
161.665
20
-100.422
11
161.695
21
-100.459
0
LINE
8
BLACK
6
CONTINUOUS
10
161.695
20
-100.459
11
161.717
21
-100.501
0
LINE
8
BLACK
6
CONTINUOUS
10
161.717
20
-100.501
11
161.731
21
-100.547
0
LINE
8
BLACK
6
CONTINUOUS
10
161.731
20
-100.547
11
161.736
21
-100.594
0
LINE
8
BLACK
6
CONTINUOUS
10
161.736
20
-100.594
11
161.736
21
-101.082
0
LINE
8
BLACK
6
CONTINUOUS
10
161.736
20
-101.082
11
161.731
21
-101.129
0
LINE
8
BLACK
6
CONTINUOUS
10
161.731
20
-101.129
11
161.717
21
-101.175
0
LINE
8
BLACK
6
CONTINUOUS
10
161.717
20
-101.175
11
161.695
21
-101.217
0
LINE
8
BLACK
6
CONTINUOUS
10
161.695
20
-101.217
11
161.665
21
-101.254
0
LINE
8
BLACK
6
CONTINUOUS
10
161.665
20
-101.254
11
161.628
21
-101.284
0
LINE
8
BLACK
6
CONTINUOUS
10
161.628
20
-101.284
11
161.586
21
-101.307
0
LINE
8
BLACK
6
CONTINUOUS
10
161.586
20
-101.307
11
161.54
21
-101.321
0
LINE
8
BLACK
6
CONTINUOUS
10
161.54
20
-101.321
11
161.492
21
-101.325
0
LINE
8
BLACK
6
CONTINUOUS
10
161.492
20
-101.325
11
160.58
21
-101.325
0
LINE
8
BLACK
6
CONTINUOUS
10
160.58
20
-101.325
11
160.532
21
-101.321
0
LINE
8
BLACK
6
CONTINUOUS
10
160.532
20
-101.321
11
160.486
21
-101.307
0
LINE
8
BLACK
6
CONTINUOUS
10
160.486
20
-101.307
11
160.444
21
-101.284
0
LINE
8
BLACK
6
CONTINUOUS
10
160.444
20
-101.284
11
160.407
21
-101.254
0
LINE
8
BLACK
6
CONTINUOUS
10
160.407
20
-101.254
11
160.377
21
-101.217
0
LINE
8
BLACK
6
CONTINUOUS
10
160.377
20
-101.217
11
160.355
21
-101.175
0
LINE
8
BLACK
6
CONTINUOUS
10
160.355
20
-101.175
11
160.341
21
-101.129
0
LINE
8
BLACK
6
CONTINUOUS
10
160.341
20
-101.129
11
160.336
21
-101.082
0
LINE
8
BLACK
6
CONTINUOUS
10
160.336
20
-101.082
11
160.336
21
-100.594
0
LINE
8
BLACK
6
CONTINUOUS
10
160.336
20
-100.594
11
160.341
21
-100.547
0
LINE
8
BLACK
6
CONTINUOUS
10
160.341
20
-100.547
11
160.355
21
-100.501
0
LINE
8
BLACK
6
CONTINUOUS
10
160.355
20
-100.501
11
160.377
21
-100.459
0
LINE
8
BLACK
6
CONTINUOUS
10
160.377
20
-100.459
11
160.407
21
-100.422
0
LINE
8
BLACK
6
CONTINUOUS
10
160.407
20
-100.422
11
160.444
21
-100.392
0
LINE
8
BLACK
6
CONTINUOUS
10
160.444
20
-100.392
11
160.486
21
-100.369
0
LINE
8
BLACK
6
CONTINUOUS
10
160.486
20
-100.369
11
160.532
21
-100.355
0
LINE
8
BLACK
6
CONTINUOUS
10
160.532
20
-100.355
11
160.58
21
-100.35
0
LINE
8
BLACK
6
CONTINUOUS
10
160.58
20
-100.35
11
161.492
21
-100.35
0
LINE
8
BLACK
6
CONTINUOUS
10
161.492
20
-100.35
11
161.54
21
-100.355
0
LINE
8
BLACK
6
CONTINUOUS
10
156.172
20
-100.475
11
154.749
21
-100.475
0
LINE
8
BLACK
6
CONTINUOUS
10
154.749
20
-100.475
11
154.749
21
-100.195
0
LINE
8
BLACK
6
CONTINUOUS
10
154.749
20
-100.195
11
156.172
21
-100.195
0
LINE
8
BLACK
6
CONTINUOUS
10
156.172
20
-100.195
11
156.172
21
-100.475
0
LINE
8
BLACK
6
CONTINUOUS
10
151.828
20
-100.475
11
150.406
21
-100.475
0
LINE
8
BLACK
6
CONTINUOUS
10
150.406
20
-100.475
11
150.406
21
-100.195
0
LINE
8
BLACK
6
CONTINUOUS
10
150.406
20
-100.195
11
151.828
21
-100.195
0
LINE
8
BLACK
6
CONTINUOUS
10
151.828
20
-100.195
11
151.828
21
-100.475
0
LINE
8
BLACK
6
CONTINUOUS
10
177.127
20
-100.475
11
175.704
21
-100.475
0
LINE
8
BLACK
6
CONTINUOUS
10
175.704
20
-100.475
11
175.704
21
-100.195
0
LINE
8
BLACK
6
CONTINUOUS
10
175.704
20
-100.195
11
177.127
21
-100.195
0
LINE
8
BLACK
6
CONTINUOUS
10
177.127
20
-100.195
11
177.127
21
-100.475
0
LINE
8
BLACK
6
CONTINUOUS
10
172.784
20
-100.475
11
171.361
21
-100.475
0
LINE
8
BLACK
6
CONTINUOUS
10
171.361
20
-100.475
11
171.361
21
-100.195
0
LINE
8
BLACK
6
CONTINUOUS
10
171.361
20
-100.195
11
172.784
21
-100.195
0
LINE
8
BLACK
6
CONTINUOUS
10
172.784
20
-100.195
11
172.784
21
-100.475
0
LINE
8
BLACK
6
CONTINUOUS
10
159.424
20
-99.2018
11
159.471
21
-99.216
0
LINE
8
BLACK
6
CONTINUOUS
10
159.471
20
-99.216
11
159.514
21
-99.2391
0
LINE
8
BLACK
6
CONTINUOUS
10
159.514
20
-99.2391
11
159.552
21
-99.2702
0
LINE
8
BLACK
6
CONTINUOUS
10
159.552
20
-99.2702
11
159.583
21
-99.3081
0
LINE
8
BLACK
6
CONTINUOUS
10
159.583
20
-99.3081
11
159.606
21
-99.3513
0
LINE
8
BLACK
6
CONTINUOUS
10
159.606
20
-99.3513
11
159.62
21
-99.3982
0
LINE
8
BLACK
6
CONTINUOUS
10
159.62
20
-99.3982
11
159.625
21
-99.447
0
LINE
8
BLACK
6
CONTINUOUS
10
159.625
20
-99.447
11
159.625
21
-100.197
0
LINE
8
BLACK
6
CONTINUOUS
10
159.625
20
-100.197
11
159.62
21
-100.246
0
LINE
8
BLACK
6
CONTINUOUS
10
159.62
20
-100.246
11
159.606
21
-100.293
0
LINE
8
BLACK
6
CONTINUOUS
10
159.606
20
-100.293
11
159.583
21
-100.336
0
LINE
8
BLACK
6
CONTINUOUS
10
159.583
20
-100.336
11
159.552
21
-100.374
0
LINE
8
BLACK
6
CONTINUOUS
10
159.552
20
-100.374
11
159.514
21
-100.405
0
LINE
8
BLACK
6
CONTINUOUS
10
159.514
20
-100.405
11
159.471
21
-100.428
0
LINE
8
BLACK
6
CONTINUOUS
10
159.471
20
-100.428
11
159.424
21
-100.442
0
LINE
8
BLACK
6
CONTINUOUS
10
159.424
20
-100.442
11
159.375
21
-100.447
0
LINE
8
BLACK
6
CONTINUOUS
10
159.375
20
-100.447
11
158.125
21
-100.447
0
LINE
8
BLACK
6
CONTINUOUS
10
158.125
20
-100.447
11
158.076
21
-100.442
0
LINE
8
BLACK
6
CONTINUOUS
10
158.076
20
-100.442
11
158.029
21
-100.428
0
LINE
8
BLACK
6
CONTINUOUS
10
158.029
20
-100.428
11
157.986
21
-100.405
0
LINE
8
BLACK
6
CONTINUOUS
10
157.986
20
-100.405
11
157.948
21
-100.374
0
LINE
8
BLACK
6
CONTINUOUS
10
157.948
20
-100.374
11
157.917
21
-100.336
0
LINE
8
BLACK
6
CONTINUOUS
10
157.917
20
-100.336
11
157.894
21
-100.293
0
LINE
8
BLACK
6
CONTINUOUS
10
157.894
20
-100.293
11
157.88
21
-100.246
0
LINE
8
BLACK
6
CONTINUOUS
10
157.88
20
-100.246
11
157.875
21
-100.197
0
LINE
8
BLACK
6
CONTINUOUS
10
157.875
20
-100.197
11
157.875
21
-99.447
0
LINE
8
BLACK
6
CONTINUOUS
10
157.875
20
-99.447
11
157.88
21
-99.3982
0
LINE
8
BLACK
6
CONTINUOUS
10
157.88
20
-99.3982
11
157.894
21
-99.3513
0
LINE
8
BLACK
6
CONTINUOUS
10
157.894
20
-99.3513
11
157.917
21
-99.3081
0
LINE
8
BLACK
6
CONTINUOUS
10
157.917
20
-99.3081
11
157.948
21
-99.2702
0
LINE
8
BLACK
6
CONTINUOUS
10
157.948
20
-99.2702
11
157.986
21
-99.2391
0
LINE
8
BLACK
6
CONTINUOUS
10
157.986
20
-99.2391
11
158.029
21
-99.216
0
LINE
8
BLACK
6
CONTINUOUS
10
158.029
20
-99.216
11
158.076
21
-99.2018
0
LINE
8
BLACK
6
CONTINUOUS
10
158.076
20
-99.2018
11
158.125
21
-99.197
0
LINE
8
BLACK
6
CONTINUOUS
10
158.125
20
-99.197
11
159.375
21
-99.197
0
LINE
8
BLACK
6
CONTINUOUS
10
159.375
20
-99.197
11
159.424
21
-99.2018
0
LINE
8
BLACK
6
CONTINUOUS
10
156.172
20
-99.9747
11
154.749
21
-99.9747
0
LINE
8
BLACK
6
CONTINUOUS
10
154.749
20
-99.9747
11
154.749
21
-99.6953
0
LINE
8
BLACK
6
CONTINUOUS
10
154.749
20
-99.6953
11
156.172
21
-99.6953
0
LINE
8
BLACK
6
CONTINUOUS
10
156.172
20
-99.6953
11
156.172
21
-99.9747
0
LINE
8
BLACK
6
CONTINUOUS
10
177.127
20
-99.9747
11
175.704
21
-99.9747
0
LINE
8
BLACK
6
CONTINUOUS
10
175.704
20
-99.9747
11
175.704
21
-99.6953
0
LINE
8
BLACK
6
CONTINUOUS
10
175.704
20
-99.6953
11
177.127
21
-99.6953
0
LINE
8
BLACK
6
CONTINUOUS
10
177.127
20
-99.6953
11
177.127
21
-99.9747
0
LINE
8
BLACK
6
CONTINUOUS
10
172.784
20
-99.9747
11
171.361
21
-99.9747
0
LINE
8
BLACK
6
CONTINUOUS
10
171.361
20
-99.9747
11
171.361
21
-99.6953
0
LINE
8
BLACK
6
CONTINUOUS
10
171.361
20
-99.6953
11
172.784
21
-99.6953
0
LINE
8
BLACK
6
CONTINUOUS
10
172.784
20
-99.6953
11
172.784
21
-99.9747
0
LINE
8
BLACK
6
CONTINUOUS
10
151.828
20
-99.9747
11
150.406
21
-99.9747
0
LINE
8
BLACK
6
CONTINUOUS
10
150.406
20
-99.9747
11
150.406
21
-99.6953
0
LINE
8
BLACK
6
CONTINUOUS
10
150.406
20
-99.6953
11
151.828
21
-99.6953
0
LINE
8
BLACK
6
CONTINUOUS
10
151.828
20
-99.6953
11
151.828
21
-99.9747
0
LINE
8
BLACK
6
CONTINUOUS
10
161.71
20
-98.4398
11
161.757
21
-98.454
0
LINE
8
BLACK
6
CONTINUOUS
10
161.757
20
-98.454
11
161.8
21
-98.4771
0
LINE
8
BLACK
6
CONTINUOUS
10
161.8
20
-98.4771
11
161.838
21
-98.5082
0
LINE
8
BLACK
6
CONTINUOUS
10
161.838
20
-98.5082
11
161.869
21
-98.5461
0
LINE
8
BLACK
6
CONTINUOUS
10
161.869
20
-98.5461
11
161.892
21
-98.5893
0
LINE
8
BLACK
6
CONTINUOUS
10
161.892
20
-98.5893
11
161.906
21
-98.6362
0
LINE
8
BLACK
6
CONTINUOUS
10
161.906
20
-98.6362
11
161.911
21
-98.685
0
LINE
8
BLACK
6
CONTINUOUS
10
161.911
20
-98.685
11
161.911
21
-99.435
0
LINE
8
BLACK
6
CONTINUOUS
10
161.911
20
-99.435
11
161.906
21
-99.4838
0
LINE
8
BLACK
6
CONTINUOUS
10
161.906
20
-99.4838
11
161.892
21
-99.5307
0
LINE
8
BLACK
6
CONTINUOUS
10
161.892
20
-99.5307
11
161.869
21
-99.5739
0
LINE
8
BLACK
6
CONTINUOUS
10
161.869
20
-99.5739
11
161.838
21
-99.6118
0
LINE
8
BLACK
6
CONTINUOUS
10
161.838
20
-99.6118
11
161.8
21
-99.6429
0
LINE
8
BLACK
6
CONTINUOUS
10
161.8
20
-99.6429
11
161.757
21
-99.666
0
LINE
8
BLACK
6
CONTINUOUS
10
161.757
20
-99.666
11
161.71
21
-99.6802
0
LINE
8
BLACK
6
CONTINUOUS
10
161.71
20
-99.6802
11
161.661
21
-99.685
0
LINE
8
BLACK
6
CONTINUOUS
10
161.661
20
-99.685
11
160.411
21
-99.685
0
LINE
8
BLACK
6
CONTINUOUS
10
160.411
20
-99.685
11
160.362
21
-99.6802
0
LINE
8
BLACK
6
CONTINUOUS
10
160.362
20
-99.6802
11
160.315
21
-99.666
0
LINE
8
BLACK
6
CONTINUOUS
10
160.315
20
-99.666
11
160.272
21
-99.6429
0
LINE
8
BLACK
6
CONTINUOUS
10
160.272
20
-99.6429
11
160.234
21
-99.6118
0
LINE
8
BLACK
6
CONTINUOUS
10
160.234
20
-99.6118
11
160.203
21
-99.5739
0
LINE
8
BLACK
6
CONTINUOUS
10
160.203
20
-99.5739
11
160.18
21
-99.5307
0
LINE
8
BLACK
6
CONTINUOUS
10
160.18
20
-99.5307
11
160.166
21
-99.4838
0
LINE
8
BLACK
6
CONTINUOUS
10
160.166
20
-99.4838
11
160.161
21
-99.435
0
LINE
8
BLACK
6
CONTINUOUS
10
160.161
20
-99.435
11
160.161
21
-98.685
0
LINE
8
BLACK
6
CONTINUOUS
10
160.161
20
-98.685
11
160.166
21
-98.6362
0
LINE
8
BLACK
6
CONTINUOUS
10
160.166
20
-98.6362
11
160.18
21
-98.5893
0
LINE
8
BLACK
6
CONTINUOUS
10
160.18
20
-98.5893
11
160.203
21
-98.5461
0
LINE
8
BLACK
6
CONTINUOUS
10
160.203
20
-98.5461
11
160.234
21
-98.5082
0
LINE
8
BLACK
6
CONTINUOUS
10
160.234
20
-98.5082
11
160.272
21
-98.4771
0
LINE
8
BLACK
6
CONTINUOUS
10
160.272
20
-98.4771
11
160.315
21
-98.454
0
LINE
8
BLACK
6
CONTINUOUS
10
160.315
20
-98.454
11
160.362
21
-98.4398
0
LINE
8
BLACK
6
CONTINUOUS
10
160.362
20
-98.4398
11
160.411
21
-98.435
0
LINE
8
BLACK
6
CONTINUOUS
10
160.411
20
-98.435
11
161.661
21
-98.435
0
LINE
8
BLACK
6
CONTINUOUS
10
161.661
20
-98.435
11
161.71
21
-98.4398
0
LINE
8
BLACK
6
CONTINUOUS
10
156.172
20
-99.4747
11
154.749
21
-99.4747
0
LINE
8
BLACK
6
CONTINUOUS
10
154.749
20
-99.4747
11
154.749
21
-99.1953
0
LINE
8
BLACK
6
CONTINUOUS
10
154.749
20
-99.1953
11
156.172
21
-99.1953
0
LINE
8
BLACK
6
CONTINUOUS
10
156.172
20
-99.1953
11
156.172
21
-99.4747
0
LINE
8
BLACK
6
CONTINUOUS
10
151.828
20
-99.4747
11
150.406
21
-99.4747
0
LINE
8
BLACK
6
CONTINUOUS
10
150.406
20
-99.4747
11
150.406
21
-99.1953
0
LINE
8
BLACK
6
CONTINUOUS
10
150.406
20
-99.1953
11
151.828
21
-99.1953
0
LINE
8
BLACK
6
CONTINUOUS
10
151.828
20
-99.1953
11
151.828
21
-99.4747
0
LINE
8
BLACK
6
CONTINUOUS
10
172.784
20
-99.4747
11
171.361
21
-99.4747
0
LINE
8
BLACK
6
CONTINUOUS
10
171.361
20
-99.4747
11
171.361
21
-99.1953
0
LINE
8
BLACK
6
CONTINUOUS
10
171.361
20
-99.1953
11
172.784
21
-99.1953
0
LINE
8
BLACK
6
CONTINUOUS
10
172.784
20
-99.1953
11
172.784
21
-99.4747
0
LINE
8
BLACK
6
CONTINUOUS
10
177.127
20
-99.4747
11
175.704
21
-99.4747
0
LINE
8
BLACK
6
CONTINUOUS
10
175.704
20
-99.4747
11
175.704
21
-99.1953
0
LINE
8
BLACK
6
CONTINUOUS
10
175.704
20
-99.1953
11
177.127
21
-99.1953
0
LINE
8
BLACK
6
CONTINUOUS
10
177.127
20
-99.1953
11
177.127
21
-99.4747
0
LINE
8
BLACK
6
CONTINUOUS
10
149.135
20
-97.8567
11
149.181
21
-97.8706
0
LINE
8
BLACK
6
CONTINUOUS
10
149.181
20
-97.8706
11
149.223
21
-97.8931
0
LINE
8
BLACK
6
CONTINUOUS
10
149.223
20
-97.8931
11
149.26
21
-97.9234
0
LINE
8
BLACK
6
CONTINUOUS
10
149.26
20
-97.9234
11
149.29
21
-97.9603
0
LINE
8
BLACK
6
CONTINUOUS
10
149.29
20
-97.9603
11
149.313
21
-98.0025
0
LINE
8
BLACK
6
CONTINUOUS
10
149.313
20
-98.0025
11
149.327
21
-98.0482
0
LINE
8
BLACK
6
CONTINUOUS
10
149.327
20
-98.0482
11
149.332
21
-98.0957
0
LINE
8
BLACK
6
CONTINUOUS
10
149.332
20
-98.0957
11
149.332
21
-99.0082
0
LINE
8
BLACK
6
CONTINUOUS
10
149.332
20
-99.0082
11
149.327
21
-99.0558
0
LINE
8
BLACK
6
CONTINUOUS
10
149.327
20
-99.0558
11
149.313
21
-99.1015
0
LINE
8
BLACK
6
CONTINUOUS
10
149.313
20
-99.1015
11
149.29
21
-99.1437
0
LINE
8
BLACK
6
CONTINUOUS
10
149.29
20
-99.1437
11
149.26
21
-99.1806
0
LINE
8
BLACK
6
CONTINUOUS
10
149.26
20
-99.1806
11
149.223
21
-99.2109
0
LINE
8
BLACK
6
CONTINUOUS
10
149.223
20
-99.2109
11
149.181
21
-99.2334
0
LINE
8
BLACK
6
CONTINUOUS
10
149.181
20
-99.2334
11
149.135
21
-99.2473
0
LINE
8
BLACK
6
CONTINUOUS
10
149.135
20
-99.2473
11
149.088
21
-99.252
0
LINE
8
BLACK
6
CONTINUOUS
10
149.088
20
-99.252
11
148.6
21
-99.252
0
LINE
8
BLACK
6
CONTINUOUS
10
148.6
20
-99.252
11
148.553
21
-99.2473
0
LINE
8
BLACK
6
CONTINUOUS
10
148.553
20
-99.2473
11
148.507
21
-99.2334
0
LINE
8
BLACK
6
CONTINUOUS
10
148.507
20
-99.2334
11
148.465
21
-99.2109
0
LINE
8
BLACK
6
CONTINUOUS
10
148.465
20
-99.2109
11
148.428
21
-99.1806
0
LINE
8
BLACK
6
CONTINUOUS
10
148.428
20
-99.1806
11
148.398
21
-99.1437
0
LINE
8
BLACK
6
CONTINUOUS
10
148.398
20
-99.1437
11
148.375
21
-99.1015
0
LINE
8
BLACK
6
CONTINUOUS
10
148.375
20
-99.1015
11
148.361
21
-99.0558
0
LINE
8
BLACK
6
CONTINUOUS
10
148.361
20
-99.0558
11
148.356
21
-99.0082
0
LINE
8
BLACK
6
CONTINUOUS
10
148.356
20
-99.0082
11
148.356
21
-98.0957
0
LINE
8
BLACK
6
CONTINUOUS
10
148.356
20
-98.0957
11
148.361
21
-98.0482
0
LINE
8
BLACK
6
CONTINUOUS
10
148.361
20
-98.0482
11
148.375
21
-98.0025
0
LINE
8
BLACK
6
CONTINUOUS
10
148.375
20
-98.0025
11
148.398
21
-97.9603
0
LINE
8
BLACK
6
CONTINUOUS
10
148.398
20
-97.9603
11
148.428
21
-97.9234
0
LINE
8
BLACK
6
CONTINUOUS
10
148.428
20
-97.9234
11
148.465
21
-97.8931
0
LINE
8
BLACK
6
CONTINUOUS
10
148.465
20
-97.8931
11
148.507
21
-97.8706
0
LINE
8
BLACK
6
CONTINUOUS
10
148.507
20
-97.8706
11
148.553
21
-97.8567
0
LINE
8
BLACK
6
CONTINUOUS
10
148.553
20
-97.8567
11
148.6
21
-97.852
0
LINE
8
BLACK
6
CONTINUOUS
10
148.6
20
-97.852
11
149.088
21
-97.852
0
LINE
8
BLACK
6
CONTINUOUS
10
149.088
20
-97.852
11
149.135
21
-97.8567
0
LINE
8
BLACK
6
CONTINUOUS
10
147.26
20
-97.8567
11
147.306
21
-97.8706
0
LINE
8
BLACK
6
CONTINUOUS
10
147.306
20
-97.8706
11
147.348
21
-97.8931
0
LINE
8
BLACK
6
CONTINUOUS
10
147.348
20
-97.8931
11
147.385
21
-97.9234
0
LINE
8
BLACK
6
CONTINUOUS
10
147.385
20
-97.9234
11
147.415
21
-97.9603
0
LINE
8
BLACK
6
CONTINUOUS
10
147.415
20
-97.9603
11
147.438
21
-98.0025
0
LINE
8
BLACK
6
CONTINUOUS
10
147.438
20
-98.0025
11
147.452
21
-98.0482
0
LINE
8
BLACK
6
CONTINUOUS
10
147.452
20
-98.0482
11
147.457
21
-98.0957
0
LINE
8
BLACK
6
CONTINUOUS
10
147.457
20
-98.0957
11
147.457
21
-99.0082
0
LINE
8
BLACK
6
CONTINUOUS
10
147.457
20
-99.0082
11
147.452
21
-99.0558
0
LINE
8
BLACK
6
CONTINUOUS
10
147.452
20
-99.0558
11
147.438
21
-99.1015
0
LINE
8
BLACK
6
CONTINUOUS
10
147.438
20
-99.1015
11
147.415
21
-99.1437
0
LINE
8
BLACK
6
CONTINUOUS
10
147.415
20
-99.1437
11
147.385
21
-99.1806
0
LINE
8
BLACK
6
CONTINUOUS
10
147.385
20
-99.1806
11
147.348
21
-99.2109
0
LINE
8
BLACK
6
CONTINUOUS
10
147.348
20
-99.2109
11
147.306
21
-99.2334
0
LINE
8
BLACK
6
CONTINUOUS
10
147.306
20
-99.2334
11
147.26
21
-99.2473
0
LINE
8
BLACK
6
CONTINUOUS
10
147.26
20
-99.2473
11
147.213
21
-99.252
0
LINE
8
BLACK
6
CONTINUOUS
10
147.213
20
-99.252
11
146.725
21
-99.252
0
LINE
8
BLACK
6
CONTINUOUS
10
146.725
20
-99.252
11
146.678
21
-99.2473
0
LINE
8
BLACK
6
CONTINUOUS
10
146.678
20
-99.2473
11
146.632
21
-99.2334
0
LINE
8
BLACK
6
CONTINUOUS
10
146.632
20
-99.2334
11
146.59
21
-99.2109
0
LINE
8
BLACK
6
CONTINUOUS
10
146.59
20
-99.2109
11
146.553
21
-99.1806
0
LINE
8
BLACK
6
CONTINUOUS
10
146.553
20
-99.1806
11
146.523
21
-99.1437
0
LINE
8
BLACK
6
CONTINUOUS
10
146.523
20
-99.1437
11
146.5
21
-99.1015
0
LINE
8
BLACK
6
CONTINUOUS
10
146.5
20
-99.1015
11
146.486
21
-99.0558
0
LINE
8
BLACK
6
CONTINUOUS
10
146.486
20
-99.0558
11
146.481
21
-99.0082
0
LINE
8
BLACK
6
CONTINUOUS
10
146.481
20
-99.0082
11
146.481
21
-98.0957
0
LINE
8
BLACK
6
CONTINUOUS
10
146.481
20
-98.0957
11
146.486
21
-98.0482
0
LINE
8
BLACK
6
CONTINUOUS
10
146.486
20
-98.0482
11
146.5
21
-98.0025
0
LINE
8
BLACK
6
CONTINUOUS
10
146.5
20
-98.0025
11
146.523
21
-97.9603
0
LINE
8
BLACK
6
CONTINUOUS
10
146.523
20
-97.9603
11
146.553
21
-97.9234
0
LINE
8
BLACK
6
CONTINUOUS
10
146.553
20
-97.9234
11
146.59
21
-97.8931
0
LINE
8
BLACK
6
CONTINUOUS
10
146.59
20
-97.8931
11
146.632
21
-97.8706
0
LINE
8
BLACK
6
CONTINUOUS
10
146.632
20
-97.8706
11
146.678
21
-97.8567
0
LINE
8
BLACK
6
CONTINUOUS
10
146.678
20
-97.8567
11
146.725
21
-97.852
0
LINE
8
BLACK
6
CONTINUOUS
10
146.725
20
-97.852
11
147.213
21
-97.852
0
LINE
8
BLACK
6
CONTINUOUS
10
147.213
20
-97.852
11
147.26
21
-97.8567
0
LINE
8
BLACK
6
CONTINUOUS
10
151.828
20
-98.9747
11
150.406
21
-98.9747
0
LINE
8
BLACK
6
CONTINUOUS
10
150.406
20
-98.9747
11
150.406
21
-98.6953
0
LINE
8
BLACK
6
CONTINUOUS
10
150.406
20
-98.6953
11
151.828
21
-98.6953
0
LINE
8
BLACK
6
CONTINUOUS
10
151.828
20
-98.6953
11
151.828
21
-98.9747
0
LINE
8
BLACK
6
CONTINUOUS
10
156.172
20
-98.9747
11
154.749
21
-98.9747
0
LINE
8
BLACK
6
CONTINUOUS
10
154.749
20
-98.9747
11
154.749
21
-98.6953
0
LINE
8
BLACK
6
CONTINUOUS
10
154.749
20
-98.6953
11
156.172
21
-98.6953
0
LINE
8
BLACK
6
CONTINUOUS
10
156.172
20
-98.6953
11
156.172
21
-98.9747
0
LINE
8
BLACK
6
CONTINUOUS
10
177.127
20
-98.9747
11
175.704
21
-98.9747
0
LINE
8
BLACK
6
CONTINUOUS
10
175.704
20
-98.9747
11
175.704
21
-98.6953
0
LINE
8
BLACK
6
CONTINUOUS
10
175.704
20
-98.6953
11
177.127
21
-98.6953
0
LINE
8
BLACK
6
CONTINUOUS
10
177.127
20
-98.6953
11
177.127
21
-98.9747
0
LINE
8
BLACK
6
CONTINUOUS
10
172.784
20
-98.9747
11
171.361
21
-98.9747
0
LINE
8
BLACK
6
CONTINUOUS
10
171.361
20
-98.9747
11
171.361
21
-98.6953
0
LINE
8
BLACK
6
CONTINUOUS
10
171.361
20
-98.6953
11
172.784
21
-98.6953
0
LINE
8
BLACK
6
CONTINUOUS
10
172.784
20
-98.6953
11
172.784
21
-98.9747
0
LINE
8
BLACK
6
CONTINUOUS
10
151.828
20
-98.4747
11
150.406
21
-98.4747
0
LINE
8
BLACK
6
CONTINUOUS
10
150.406
20
-98.4747
11
150.406
21
-98.1953
0
LINE
8
BLACK
6
CONTINUOUS
10
150.406
20
-98.1953
11
151.828
21
-98.1953
0
LINE
8
BLACK
6
CONTINUOUS
10
151.828
20
-98.1953
11
151.828
21
-98.4747
0
LINE
8
BLACK
6
CONTINUOUS
10
156.172
20
-98.4747
11
154.749
21
-98.4747
0
LINE
8
BLACK
6
CONTINUOUS
10
154.749
20
-98.4747
11
154.749
21
-98.1953
0
LINE
8
BLACK
6
CONTINUOUS
10
154.749
20
-98.1953
11
156.172
21
-98.1953
0
LINE
8
BLACK
6
CONTINUOUS
10
156.172
20
-98.1953
11
156.172
21
-98.4747
0
LINE
8
BLACK
6
CONTINUOUS
10
177.127
20
-98.4747
11
175.704
21
-98.4747
0
LINE
8
BLACK
6
CONTINUOUS
10
175.704
20
-98.4747
11
175.704
21
-98.1953
0
LINE
8
BLACK
6
CONTINUOUS
10
175.704
20
-98.1953
11
177.127
21
-98.1953
0
LINE
8
BLACK
6
CONTINUOUS
10
177.127
20
-98.1953
11
177.127
21
-98.4747
0
LINE
8
BLACK
6
CONTINUOUS
10
172.784
20
-98.4747
11
171.361
21
-98.4747
0
LINE
8
BLACK
6
CONTINUOUS
10
171.361
20
-98.4747
11
171.361
21
-98.1953
0
LINE
8
BLACK
6
CONTINUOUS
10
171.361
20
-98.1953
11
172.784
21
-98.1953
0
LINE
8
BLACK
6
CONTINUOUS
10
172.784
20
-98.1953
11
172.784
21
-98.4747
0
LINE
8
BLACK
6
CONTINUOUS
10
169.922
20
-96.5452
11
169.968
21
-96.5591
0
LINE
8
BLACK
6
CONTINUOUS
10
169.968
20
-96.5591
11
170.01
21
-96.5816
0
LINE
8
BLACK
6
CONTINUOUS
10
170.01
20
-96.5816
11
170.047
21
-96.6119
0
LINE
8
BLACK
6
CONTINUOUS
10
170.047
20
-96.6119
11
170.077
21
-96.6488
0
LINE
8
BLACK
6
CONTINUOUS
10
170.077
20
-96.6488
11
170.099
21
-96.691
0
LINE
8
BLACK
6
CONTINUOUS
10
170.099
20
-96.691
11
170.113
21
-96.7367
0
LINE
8
BLACK
6
CONTINUOUS
10
170.113
20
-96.7367
11
170.118
21
-96.7843
0
LINE
8
BLACK
6
CONTINUOUS
10
170.118
20
-96.7843
11
170.118
21
-97.2717
0
LINE
8
BLACK
6
CONTINUOUS
10
170.118
20
-97.2717
11
170.113
21
-97.3193
0
LINE
8
BLACK
6
CONTINUOUS
10
170.113
20
-97.3193
11
170.099
21
-97.365
0
LINE
8
BLACK
6
CONTINUOUS
10
170.099
20
-97.365
11
170.077
21
-97.4072
0
LINE
8
BLACK
6
CONTINUOUS
10
170.077
20
-97.4072
11
170.047
21
-97.4441
0
LINE
8
BLACK
6
CONTINUOUS
10
170.047
20
-97.4441
11
170.01
21
-97.4744
0
LINE
8
BLACK
6
CONTINUOUS
10
170.01
20
-97.4744
11
169.968
21
-97.4969
0
LINE
8
BLACK
6
CONTINUOUS
10
169.968
20
-97.4969
11
169.922
21
-97.5108
0
LINE
8
BLACK
6
CONTINUOUS
10
169.922
20
-97.5108
11
169.874
21
-97.5155
0
LINE
8
BLACK
6
CONTINUOUS
10
169.874
20
-97.5155
11
168.962
21
-97.5155
0
LINE
8
BLACK
6
CONTINUOUS
10
168.962
20
-97.5155
11
168.914
21
-97.5108
0
LINE
8
BLACK
6
CONTINUOUS
10
168.914
20
-97.5108
11
168.868
21
-97.4969
0
LINE
8
BLACK
6
CONTINUOUS
10
168.868
20
-97.4969
11
168.826
21
-97.4744
0
LINE
8
BLACK
6
CONTINUOUS
10
168.826
20
-97.4744
11
168.789
21
-97.4441
0
LINE
8
BLACK
6
CONTINUOUS
10
168.789
20
-97.4441
11
168.759
21
-97.4072
0
LINE
8
BLACK
6
CONTINUOUS
10
168.759
20
-97.4072
11
168.737
21
-97.365
0
LINE
8
BLACK
6
CONTINUOUS
10
168.737
20
-97.365
11
168.723
21
-97.3193
0
LINE
8
BLACK
6
CONTINUOUS
10
168.723
20
-97.3193
11
168.718
21
-97.2717
0
LINE
8
BLACK
6
CONTINUOUS
10
168.718
20
-97.2717
11
168.718
21
-96.7843
0
LINE
8
BLACK
6
CONTINUOUS
10
168.718
20
-96.7843
11
168.723
21
-96.7367
0
LINE
8
BLACK
6
CONTINUOUS
10
168.723
20
-96.7367
11
168.737
21
-96.691
0
LINE
8
BLACK
6
CONTINUOUS
10
168.737
20
-96.691
11
168.759
21
-96.6488
0
LINE
8
BLACK
6
CONTINUOUS
10
168.759
20
-96.6488
11
168.789
21
-96.6119
0
LINE
8
BLACK
6
CONTINUOUS
10
168.789
20
-96.6119
11
168.826
21
-96.5816
0
LINE
8
BLACK
6
CONTINUOUS
10
168.826
20
-96.5816
11
168.868
21
-96.5591
0
LINE
8
BLACK
6
CONTINUOUS
10
168.868
20
-96.5591
11
168.914
21
-96.5452
0
LINE
8
BLACK
6
CONTINUOUS
10
168.914
20
-96.5452
11
168.962
21
-96.5405
0
LINE
8
BLACK
6
CONTINUOUS
10
168.962
20
-96.5405
11
169.874
21
-96.5405
0
LINE
8
BLACK
6
CONTINUOUS
10
169.874
20
-96.5405
11
169.922
21
-96.5452
0
LINE
8
BLACK
6
CONTINUOUS
10
161.71
20
-95.6398
11
161.757
21
-95.654
0
LINE
8
BLACK
6
CONTINUOUS
10
161.757
20
-95.654
11
161.8
21
-95.6771
0
LINE
8
BLACK
6
CONTINUOUS
10
161.8
20
-95.6771
11
161.838
21
-95.7082
0
LINE
8
BLACK
6
CONTINUOUS
10
161.838
20
-95.7082
11
161.869
21
-95.7461
0
LINE
8
BLACK
6
CONTINUOUS
10
161.869
20
-95.7461
11
161.892
21
-95.7893
0
LINE
8
BLACK
6
CONTINUOUS
10
161.892
20
-95.7893
11
161.906
21
-95.8362
0
LINE
8
BLACK
6
CONTINUOUS
10
161.906
20
-95.8362
11
161.911
21
-95.885
0
LINE
8
BLACK
6
CONTINUOUS
10
161.911
20
-95.885
11
161.911
21
-96.635
0
LINE
8
BLACK
6
CONTINUOUS
10
161.911
20
-96.635
11
161.906
21
-96.6838
0
LINE
8
BLACK
6
CONTINUOUS
10
161.906
20
-96.6838
11
161.892
21
-96.7307
0
LINE
8
BLACK
6
CONTINUOUS
10
161.892
20
-96.7307
11
161.869
21
-96.7739
0
LINE
8
BLACK
6
CONTINUOUS
10
161.869
20
-96.7739
11
161.838
21
-96.8118
0
LINE
8
BLACK
6
CONTINUOUS
10
161.838
20
-96.8118
11
161.8
21
-96.8429
0
LINE
8
BLACK
6
CONTINUOUS
10
161.8
20
-96.8429
11
161.757
21
-96.866
0
LINE
8
BLACK
6
CONTINUOUS
10
161.757
20
-96.866
11
161.71
21
-96.8802
0
LINE
8
BLACK
6
CONTINUOUS
10
161.71
20
-96.8802
11
161.661
21
-96.885
0
LINE
8
BLACK
6
CONTINUOUS
10
161.661
20
-96.885
11
160.411
21
-96.885
0
LINE
8
BLACK
6
CONTINUOUS
10
160.411
20
-96.885
11
160.362
21
-96.8802
0
LINE
8
BLACK
6
CONTINUOUS
10
160.362
20
-96.8802
11
160.315
21
-96.866
0
LINE
8
BLACK
6
CONTINUOUS
10
160.315
20
-96.866
11
160.272
21
-96.8429
0
LINE
8
BLACK
6
CONTINUOUS
10
160.272
20
-96.8429
11
160.234
21
-96.8118
0
LINE
8
BLACK
6
CONTINUOUS
10
160.234
20
-96.8118
11
160.203
21
-96.7739
0
LINE
8
BLACK
6
CONTINUOUS
10
160.203
20
-96.7739
11
160.18
21
-96.7307
0
LINE
8
BLACK
6
CONTINUOUS
10
160.18
20
-96.7307
11
160.166
21
-96.6838
0
LINE
8
BLACK
6
CONTINUOUS
10
160.166
20
-96.6838
11
160.161
21
-96.635
0
LINE
8
BLACK
6
CONTINUOUS
10
160.161
20
-96.635
11
160.161
21
-95.885
0
LINE
8
BLACK
6
CONTINUOUS
10
160.161
20
-95.885
11
160.166
21
-95.8362
0
LINE
8
BLACK
6
CONTINUOUS
10
160.166
20
-95.8362
11
160.18
21
-95.7893
0
LINE
8
BLACK
6
CONTINUOUS
10
160.18
20
-95.7893
11
160.203
21
-95.7461
0
LINE
8
BLACK
6
CONTINUOUS
10
160.203
20
-95.7461
11
160.234
21
-95.7082
0
LINE
8
BLACK
6
CONTINUOUS
10
160.234
20
-95.7082
11
160.272
21
-95.6771
0
LINE
8
BLACK
6
CONTINUOUS
10
160.272
20
-95.6771
11
160.315
21
-95.654
0
LINE
8
BLACK
6
CONTINUOUS
10
160.315
20
-95.654
11
160.362
21
-95.6398
0
LINE
8
BLACK
6
CONTINUOUS
10
160.362
20
-95.6398
11
160.411
21
-95.635
0
LINE
8
BLACK
6
CONTINUOUS
10
160.411
20
-95.635
11
161.661
21
-95.635
0
LINE
8
BLACK
6
CONTINUOUS
10
161.661
20
-95.635
11
161.71
21
-95.6398
0
LINE
8
BLACK
6
CONTINUOUS
10
169.922
20
-94.6702
11
169.968
21
-94.6841
0
LINE
8
BLACK
6
CONTINUOUS
10
169.968
20
-94.6841
11
170.01
21
-94.7066
0
LINE
8
BLACK
6
CONTINUOUS
10
170.01
20
-94.7066
11
170.047
21
-94.7369
0
LINE
8
BLACK
6
CONTINUOUS
10
170.047
20
-94.7369
11
170.077
21
-94.7738
0
LINE
8
BLACK
6
CONTINUOUS
10
170.077
20
-94.7738
11
170.099
21
-94.816
0
LINE
8
BLACK
6
CONTINUOUS
10
170.099
20
-94.816
11
170.113
21
-94.8617
0
LINE
8
BLACK
6
CONTINUOUS
10
170.113
20
-94.8617
11
170.118
21
-94.9093
0
LINE
8
BLACK
6
CONTINUOUS
10
170.118
20
-94.9093
11
170.118
21
-95.3967
0
LINE
8
BLACK
6
CONTINUOUS
10
170.118
20
-95.3967
11
170.113
21
-95.4443
0
LINE
8
BLACK
6
CONTINUOUS
10
170.113
20
-95.4443
11
170.099
21
-95.49
0
LINE
8
BLACK
6
CONTINUOUS
10
170.099
20
-95.49
11
170.077
21
-95.5322
0
LINE
8
BLACK
6
CONTINUOUS
10
170.077
20
-95.5322
11
170.047
21
-95.5691
0
LINE
8
BLACK
6
CONTINUOUS
10
170.047
20
-95.5691
11
170.01
21
-95.5994
0
LINE
8
BLACK
6
CONTINUOUS
10
170.01
20
-95.5994
11
169.968
21
-95.6219
0
LINE
8
BLACK
6
CONTINUOUS
10
169.968
20
-95.6219
11
169.922
21
-95.6358
0
LINE
8
BLACK
6
CONTINUOUS
10
169.922
20
-95.6358
11
169.874
21
-95.6405
0
LINE
8
BLACK
6
CONTINUOUS
10
169.874
20
-95.6405
11
168.962
21
-95.6405
0
LINE
8
BLACK
6
CONTINUOUS
10
168.962
20
-95.6405
11
168.914
21
-95.6358
0
LINE
8
BLACK
6
CONTINUOUS
10
168.914
20
-95.6358
11
168.868
21
-95.6219
0
LINE
8
BLACK
6
CONTINUOUS
10
168.868
20
-95.6219
11
168.826
21
-95.5994
0
LINE
8
BLACK
6
CONTINUOUS
10
168.826
20
-95.5994
11
168.789
21
-95.5691
0
LINE
8
BLACK
6
CONTINUOUS
10
168.789
20
-95.5691
11
168.759
21
-95.5322
0
LINE
8
BLACK
6
CONTINUOUS
10
168.759
20
-95.5322
11
168.737
21
-95.49
0
LINE
8
BLACK
6
CONTINUOUS
10
168.737
20
-95.49
11
168.723
21
-95.4443
0
LINE
8
BLACK
6
CONTINUOUS
10
168.723
20
-95.4443
11
168.718
21
-95.3967
0
LINE
8
BLACK
6
CONTINUOUS
10
168.718
20
-95.3967
11
168.718
21
-94.9093
0
LINE
8
BLACK
6
CONTINUOUS
10
168.718
20
-94.9093
11
168.723
21
-94.8617
0
LINE
8
BLACK
6
CONTINUOUS
10
168.723
20
-94.8617
11
168.737
21
-94.816
0
LINE
8
BLACK
6
CONTINUOUS
10
168.737
20
-94.816
11
168.759
21
-94.7738
0
LINE
8
BLACK
6
CONTINUOUS
10
168.759
20
-94.7738
11
168.789
21
-94.7369
0
LINE
8
BLACK
6
CONTINUOUS
10
168.789
20
-94.7369
11
168.826
21
-94.7066
0
LINE
8
BLACK
6
CONTINUOUS
10
168.826
20
-94.7066
11
168.868
21
-94.6841
0
LINE
8
BLACK
6
CONTINUOUS
10
168.868
20
-94.6841
11
168.914
21
-94.6702
0
LINE
8
BLACK
6
CONTINUOUS
10
168.914
20
-94.6702
11
168.962
21
-94.6655
0
LINE
8
BLACK
6
CONTINUOUS
10
168.962
20
-94.6655
11
169.874
21
-94.6655
0
LINE
8
BLACK
6
CONTINUOUS
10
169.874
20
-94.6655
11
169.922
21
-94.6702
0
LINE
8
BLACK
6
CONTINUOUS
10
139.919
20
-93.005
11
137.869
21
-93.005
0
LINE
8
BLACK
6
CONTINUOUS
10
137.869
20
-93.005
11
137.869
21
-92.415
0
LINE
8
BLACK
6
CONTINUOUS
10
137.869
20
-92.415
11
139.919
21
-92.415
0
LINE
8
BLACK
6
CONTINUOUS
10
139.919
20
-92.415
11
139.919
21
-93.005
0
LINE
8
BLACK
6
CONTINUOUS
10
130.609
20
-93.005
11
128.559
21
-93.005
0
LINE
8
BLACK
6
CONTINUOUS
10
128.559
20
-93.005
11
128.559
21
-92.415
0
LINE
8
BLACK
6
CONTINUOUS
10
128.559
20
-92.415
11
130.609
21
-92.415
0
LINE
8
BLACK
6
CONTINUOUS
10
130.609
20
-92.415
11
130.609
21
-93.005
0
LINE
8
BLACK
6
CONTINUOUS
10
184.57
20
-91.4578
11
184.617
21
-91.472
0
LINE
8
BLACK
6
CONTINUOUS
10
184.617
20
-91.472
11
184.66
21
-91.4951
0
LINE
8
BLACK
6
CONTINUOUS
10
184.66
20
-91.4951
11
184.698
21
-91.5262
0
LINE
8
BLACK
6
CONTINUOUS
10
184.698
20
-91.5262
11
184.729
21
-91.5641
0
LINE
8
BLACK
6
CONTINUOUS
10
184.729
20
-91.5641
11
184.752
21
-91.6073
0
LINE
8
BLACK
6
CONTINUOUS
10
184.752
20
-91.6073
11
184.766
21
-91.6542
0
LINE
8
BLACK
6
CONTINUOUS
10
184.766
20
-91.6542
11
184.771
21
-91.703
0
LINE
8
BLACK
6
CONTINUOUS
10
184.771
20
-91.703
11
184.771
21
-92.453
0
LINE
8
BLACK
6
CONTINUOUS
10
184.771
20
-92.453
11
184.766
21
-92.5018
0
LINE
8
BLACK
6
CONTINUOUS
10
184.766
20
-92.5018
11
184.752
21
-92.5487
0
LINE
8
BLACK
6
CONTINUOUS
10
184.752
20
-92.5487
11
184.729
21
-92.5919
0
LINE
8
BLACK
6
CONTINUOUS
10
184.729
20
-92.5919
11
184.698
21
-92.6298
0
LINE
8
BLACK
6
CONTINUOUS
10
184.698
20
-92.6298
11
184.66
21
-92.6609
0
LINE
8
BLACK
6
CONTINUOUS
10
184.66
20
-92.6609
11
184.617
21
-92.684
0
LINE
8
BLACK
6
CONTINUOUS
10
184.617
20
-92.684
11
184.57
21
-92.6982
0
LINE
8
BLACK
6
CONTINUOUS
10
184.57
20
-92.6982
11
184.521
21
-92.703
0
LINE
8
BLACK
6
CONTINUOUS
10
184.521
20
-92.703
11
183.271
21
-92.703
0
LINE
8
BLACK
6
CONTINUOUS
10
183.271
20
-92.703
11
183.222
21
-92.6982
0
LINE
8
BLACK
6
CONTINUOUS
10
183.222
20
-92.6982
11
183.175
21
-92.684
0
LINE
8
BLACK
6
CONTINUOUS
10
183.175
20
-92.684
11
183.132
21
-92.6609
0
LINE
8
BLACK
6
CONTINUOUS
10
183.132
20
-92.6609
11
183.094
21
-92.6298
0
LINE
8
BLACK
6
CONTINUOUS
10
183.094
20
-92.6298
11
183.063
21
-92.5919
0
LINE
8
BLACK
6
CONTINUOUS
10
183.063
20
-92.5919
11
183.04
21
-92.5487
0
LINE
8
BLACK
6
CONTINUOUS
10
183.04
20
-92.5487
11
183.026
21
-92.5018
0
LINE
8
BLACK
6
CONTINUOUS
10
183.026
20
-92.5018
11
183.021
21
-92.453
0
LINE
8
BLACK
6
CONTINUOUS
10
183.021
20
-92.453
11
183.021
21
-91.703
0
LINE
8
BLACK
6
CONTINUOUS
10
183.021
20
-91.703
11
183.026
21
-91.6542
0
LINE
8
BLACK
6
CONTINUOUS
10
183.026
20
-91.6542
11
183.04
21
-91.6073
0
LINE
8
BLACK
6
CONTINUOUS
10
183.04
20
-91.6073
11
183.063
21
-91.5641
0
LINE
8
BLACK
6
CONTINUOUS
10
183.063
20
-91.5641
11
183.094
21
-91.5262
0
LINE
8
BLACK
6
CONTINUOUS
10
183.094
20
-91.5262
11
183.132
21
-91.4951
0
LINE
8
BLACK
6
CONTINUOUS
10
183.132
20
-91.4951
11
183.175
21
-91.472
0
LINE
8
BLACK
6
CONTINUOUS
10
183.175
20
-91.472
11
183.222
21
-91.4578
0
LINE
8
BLACK
6
CONTINUOUS
10
183.222
20
-91.4578
11
183.271
21
-91.453
0
LINE
8
BLACK
6
CONTINUOUS
10
183.271
20
-91.453
11
184.521
21
-91.453
0
LINE
8
BLACK
6
CONTINUOUS
10
184.521
20
-91.453
11
184.57
21
-91.4578
0
LINE
8
BLACK
6
CONTINUOUS
10
139.919
20
-91.735
11
137.869
21
-91.735
0
LINE
8
BLACK
6
CONTINUOUS
10
137.869
20
-91.735
11
137.869
21
-91.145
0
LINE
8
BLACK
6
CONTINUOUS
10
137.869
20
-91.145
11
139.919
21
-91.145
0
LINE
8
BLACK
6
CONTINUOUS
10
139.919
20
-91.145
11
139.919
21
-91.735
0
LINE
8
BLACK
6
CONTINUOUS
10
130.609
20
-91.735
11
128.559
21
-91.735
0
LINE
8
BLACK
6
CONTINUOUS
10
128.559
20
-91.735
11
128.559
21
-91.145
0
LINE
8
BLACK
6
CONTINUOUS
10
128.559
20
-91.145
11
130.609
21
-91.145
0
LINE
8
BLACK
6
CONTINUOUS
10
130.609
20
-91.145
11
130.609
21
-91.735
0
LINE
8
BLACK
6
CONTINUOUS
10
139.919
20
-90.465
11
137.869
21
-90.465
0
LINE
8
BLACK
6
CONTINUOUS
10
137.869
20
-90.465
11
137.869
21
-89.875
0
LINE
8
BLACK
6
CONTINUOUS
10
137.869
20
-89.875
11
139.919
21
-89.875
0
LINE
8
BLACK
6
CONTINUOUS
10
139.919
20
-89.875
11
139.919
21
-90.465
0
LINE
8
BLACK
6
CONTINUOUS
10
130.609
20
-90.465
11
128.559
21
-90.465
0
LINE
8
BLACK
6
CONTINUOUS
10
128.559
20
-90.465
11
128.559
21
-89.875
0
LINE
8
BLACK
6
CONTINUOUS
10
128.559
20
-89.875
11
130.609
21
-89.875
0
LINE
8
BLACK
6
CONTINUOUS
10
130.609
20
-89.875
11
130.609
21
-90.465
0
LINE
8
BLACK
6
CONTINUOUS
10
166.79
20
-89.0418
11
166.837
21
-89.056
0
LINE
8
BLACK
6
CONTINUOUS
10
166.837
20
-89.056
11
166.88
21
-89.0791
0
LINE
8
BLACK
6
CONTINUOUS
10
166.88
20
-89.0791
11
166.918
21
-89.1102
0
LINE
8
BLACK
6
CONTINUOUS
10
166.918
20
-89.1102
11
166.949
21
-89.1481
0
LINE
8
BLACK
6
CONTINUOUS
10
166.949
20
-89.1481
11
166.972
21
-89.1913
0
LINE
8
BLACK
6
CONTINUOUS
10
166.972
20
-89.1913
11
166.986
21
-89.2382
0
LINE
8
BLACK
6
CONTINUOUS
10
166.986
20
-89.2382
11
166.991
21
-89.287
0
LINE
8
BLACK
6
CONTINUOUS
10
166.991
20
-89.287
11
166.991
21
-90.037
0
LINE
8
BLACK
6
CONTINUOUS
10
166.991
20
-90.037
11
166.986
21
-90.0858
0
LINE
8
BLACK
6
CONTINUOUS
10
166.986
20
-90.0858
11
166.972
21
-90.1327
0
LINE
8
BLACK
6
CONTINUOUS
10
166.972
20
-90.1327
11
166.949
21
-90.1759
0
LINE
8
BLACK
6
CONTINUOUS
10
166.949
20
-90.1759
11
166.918
21
-90.2138
0
LINE
8
BLACK
6
CONTINUOUS
10
166.918
20
-90.2138
11
166.88
21
-90.2449
0
LINE
8
BLACK
6
CONTINUOUS
10
166.88
20
-90.2449
11
166.837
21
-90.268
0
LINE
8
BLACK
6
CONTINUOUS
10
166.837
20
-90.268
11
166.79
21
-90.2822
0
LINE
8
BLACK
6
CONTINUOUS
10
166.79
20
-90.2822
11
166.741
21
-90.287
0
LINE
8
BLACK
6
CONTINUOUS
10
166.741
20
-90.287
11
165.491
21
-90.287
0
LINE
8
BLACK
6
CONTINUOUS
10
165.491
20
-90.287
11
165.442
21
-90.2822
0
LINE
8
BLACK
6
CONTINUOUS
10
165.442
20
-90.2822
11
165.395
21
-90.268
0
LINE
8
BLACK
6
CONTINUOUS
10
165.395
20
-90.268
11
165.352
21
-90.2449
0
LINE
8
BLACK
6
CONTINUOUS
10
165.352
20
-90.2449
11
165.314
21
-90.2138
0
LINE
8
BLACK
6
CONTINUOUS
10
165.314
20
-90.2138
11
165.283
21
-90.1759
0
LINE
8
BLACK
6
CONTINUOUS
10
165.283
20
-90.1759
11
165.26
21
-90.1327
0
LINE
8
BLACK
6
CONTINUOUS
10
165.26
20
-90.1327
11
165.246
21
-90.0858
0
LINE
8
BLACK
6
CONTINUOUS
10
165.246
20
-90.0858
11
165.241
21
-90.037
0
LINE
8
BLACK
6
CONTINUOUS
10
165.241
20
-90.037
11
165.241
21
-89.287
0
LINE
8
BLACK
6
CONTINUOUS
10
165.241
20
-89.287
11
165.246
21
-89.2382
0
LINE
8
BLACK
6
CONTINUOUS
10
165.246
20
-89.2382
11
165.26
21
-89.1913
0
LINE
8
BLACK
6
CONTINUOUS
10
165.26
20
-89.1913
11
165.283
21
-89.1481
0
LINE
8
BLACK
6
CONTINUOUS
10
165.283
20
-89.1481
11
165.314
21
-89.1102
0
LINE
8
BLACK
6
CONTINUOUS
10
165.314
20
-89.1102
11
165.352
21
-89.0791
0
LINE
8
BLACK
6
CONTINUOUS
10
165.352
20
-89.0791
11
165.395
21
-89.056
0
LINE
8
BLACK
6
CONTINUOUS
10
165.395
20
-89.056
11
165.442
21
-89.0418
0
LINE
8
BLACK
6
CONTINUOUS
10
165.442
20
-89.0418
11
165.491
21
-89.037
0
LINE
8
BLACK
6
CONTINUOUS
10
165.491
20
-89.037
11
166.741
21
-89.037
0
LINE
8
BLACK
6
CONTINUOUS
10
166.741
20
-89.037
11
166.79
21
-89.0418
0
LINE
8
BLACK
6
CONTINUOUS
10
156.63
20
-88.7938
11
156.677
21
-88.808
0
LINE
8
BLACK
6
CONTINUOUS
10
156.677
20
-88.808
11
156.72
21
-88.8311
0
LINE
8
BLACK
6
CONTINUOUS
10
156.72
20
-88.8311
11
156.758
21
-88.8622
0
LINE
8
BLACK
6
CONTINUOUS
10
156.758
20
-88.8622
11
156.789
21
-88.9001
0
LINE
8
BLACK
6
CONTINUOUS
10
156.789
20
-88.9001
11
156.812
21
-88.9433
0
LINE
8
BLACK
6
CONTINUOUS
10
156.812
20
-88.9433
11
156.826
21
-88.9902
0
LINE
8
BLACK
6
CONTINUOUS
10
156.826
20
-88.9902
11
156.831
21
-89.039
0
LINE
8
BLACK
6
CONTINUOUS
10
156.831
20
-89.039
11
156.831
21
-89.789
0
LINE
8
BLACK
6
CONTINUOUS
10
156.831
20
-89.789
11
156.826
21
-89.8378
0
LINE
8
BLACK
6
CONTINUOUS
10
156.826
20
-89.8378
11
156.812
21
-89.8847
0
LINE
8
BLACK
6
CONTINUOUS
10
156.812
20
-89.8847
11
156.789
21
-89.9279
0
LINE
8
BLACK
6
CONTINUOUS
10
156.789
20
-89.9279
11
156.758
21
-89.9658
0
LINE
8
BLACK
6
CONTINUOUS
10
156.758
20
-89.9658
11
156.72
21
-89.9969
0
LINE
8
BLACK
6
CONTINUOUS
10
156.72
20
-89.9969
11
156.677
21
-90.02
0
LINE
8
BLACK
6
CONTINUOUS
10
156.677
20
-90.02
11
156.63
21
-90.0342
0
LINE
8
BLACK
6
CONTINUOUS
10
156.63
20
-90.0342
11
156.581
21
-90.039
0
LINE
8
BLACK
6
CONTINUOUS
10
156.581
20
-90.039
11
155.331
21
-90.039
0
LINE
8
BLACK
6
CONTINUOUS
10
155.331
20
-90.039
11
155.282
21
-90.0342
0
LINE
8
BLACK
6
CONTINUOUS
10
155.282
20
-90.0342
11
155.235
21
-90.02
0
LINE
8
BLACK
6
CONTINUOUS
10
155.235
20
-90.02
11
155.192
21
-89.9969
0
LINE
8
BLACK
6
CONTINUOUS
10
155.192
20
-89.9969
11
155.154
21
-89.9658
0
LINE
8
BLACK
6
CONTINUOUS
10
155.154
20
-89.9658
11
155.123
21
-89.9279
0
LINE
8
BLACK
6
CONTINUOUS
10
155.123
20
-89.9279
11
155.1
21
-89.8847
0
LINE
8
BLACK
6
CONTINUOUS
10
155.1
20
-89.8847
11
155.086
21
-89.8378
0
LINE
8
BLACK
6
CONTINUOUS
10
155.086
20
-89.8378
11
155.081
21
-89.789
0
LINE
8
BLACK
6
CONTINUOUS
10
155.081
20
-89.789
11
155.081
21
-89.039
0
LINE
8
BLACK
6
CONTINUOUS
10
155.081
20
-89.039
11
155.086
21
-88.9902
0
LINE
8
BLACK
6
CONTINUOUS
10
155.086
20
-88.9902
11
155.1
21
-88.9433
0
LINE
8
BLACK
6
CONTINUOUS
10
155.1
20
-88.9433
11
155.123
21
-88.9001
0
LINE
8
BLACK
6
CONTINUOUS
10
155.123
20
-88.9001
11
155.154
21
-88.8622
0
LINE
8
BLACK
6
CONTINUOUS
10
155.154
20
-88.8622
11
155.192
21
-88.8311
0
LINE
8
BLACK
6
CONTINUOUS
10
155.192
20
-88.8311
11
155.235
21
-88.808
0
LINE
8
BLACK
6
CONTINUOUS
10
155.235
20
-88.808
11
155.282
21
-88.7938
0
LINE
8
BLACK
6
CONTINUOUS
10
155.282
20
-88.7938
11
155.331
21
-88.789
0
LINE
8
BLACK
6
CONTINUOUS
10
155.331
20
-88.789
11
156.581
21
-88.789
0
LINE
8
BLACK
6
CONTINUOUS
10
156.581
20
-88.789
11
156.63
21
-88.7938
0
LINE
8
BLACK
6
CONTINUOUS
10
184.57
20
-88.6578
11
184.617
21
-88.672
0
LINE
8
BLACK
6
CONTINUOUS
10
184.617
20
-88.672
11
184.66
21
-88.6951
0
LINE
8
BLACK
6
CONTINUOUS
10
184.66
20
-88.6951
11
184.698
21
-88.7262
0
LINE
8
BLACK
6
CONTINUOUS
10
184.698
20
-88.7262
11
184.729
21
-88.7641
0
LINE
8
BLACK
6
CONTINUOUS
10
184.729
20
-88.7641
11
184.752
21
-88.8073
0
LINE
8
BLACK
6
CONTINUOUS
10
184.752
20
-88.8073
11
184.766
21
-88.8542
0
LINE
8
BLACK
6
CONTINUOUS
10
184.766
20
-88.8542
11
184.771
21
-88.903
0
LINE
8
BLACK
6
CONTINUOUS
10
184.771
20
-88.903
11
184.771
21
-89.653
0
LINE
8
BLACK
6
CONTINUOUS
10
184.771
20
-89.653
11
184.766
21
-89.7018
0
LINE
8
BLACK
6
CONTINUOUS
10
184.766
20
-89.7018
11
184.752
21
-89.7487
0
LINE
8
BLACK
6
CONTINUOUS
10
184.752
20
-89.7487
11
184.729
21
-89.7919
0
LINE
8
BLACK
6
CONTINUOUS
10
184.729
20
-89.7919
11
184.698
21
-89.8298
0
LINE
8
BLACK
6
CONTINUOUS
10
184.698
20
-89.8298
11
184.66
21
-89.8609
0
LINE
8
BLACK
6
CONTINUOUS
10
184.66
20
-89.8609
11
184.617
21
-89.884
0
LINE
8
BLACK
6
CONTINUOUS
10
184.617
20
-89.884
11
184.57
21
-89.8982
0
LINE
8
BLACK
6
CONTINUOUS
10
184.57
20
-89.8982
11
184.521
21
-89.903
0
LINE
8
BLACK
6
CONTINUOUS
10
184.521
20
-89.903
11
183.271
21
-89.903
0
LINE
8
BLACK
6
CONTINUOUS
10
183.271
20
-89.903
11
183.222
21
-89.8982
0
LINE
8
BLACK
6
CONTINUOUS
10
183.222
20
-89.8982
11
183.175
21
-89.884
0
LINE
8
BLACK
6
CONTINUOUS
10
183.175
20
-89.884
11
183.132
21
-89.8609
0
LINE
8
BLACK
6
CONTINUOUS
10
183.132
20
-89.8609
11
183.094
21
-89.8298
0
LINE
8
BLACK
6
CONTINUOUS
10
183.094
20
-89.8298
11
183.063
21
-89.7919
0
LINE
8
BLACK
6
CONTINUOUS
10
183.063
20
-89.7919
11
183.04
21
-89.7487
0
LINE
8
BLACK
6
CONTINUOUS
10
183.04
20
-89.7487
11
183.026
21
-89.7018
0
LINE
8
BLACK
6
CONTINUOUS
10
183.026
20
-89.7018
11
183.021
21
-89.653
0
LINE
8
BLACK
6
CONTINUOUS
10
183.021
20
-89.653
11
183.021
21
-88.903
0
LINE
8
BLACK
6
CONTINUOUS
10
183.021
20
-88.903
11
183.026
21
-88.8542
0
LINE
8
BLACK
6
CONTINUOUS
10
183.026
20
-88.8542
11
183.04
21
-88.8073
0
LINE
8
BLACK
6
CONTINUOUS
10
183.04
20
-88.8073
11
183.063
21
-88.7641
0
LINE
8
BLACK
6
CONTINUOUS
10
183.063
20
-88.7641
11
183.094
21
-88.7262
0
LINE
8
BLACK
6
CONTINUOUS
10
183.094
20
-88.7262
11
183.132
21
-88.6951
0
LINE
8
BLACK
6
CONTINUOUS
10
183.132
20
-88.6951
11
183.175
21
-88.672
0
LINE
8
BLACK
6
CONTINUOUS
10
183.175
20
-88.672
11
183.222
21
-88.6578
0
LINE
8
BLACK
6
CONTINUOUS
10
183.222
20
-88.6578
11
183.271
21
-88.653
0
LINE
8
BLACK
6
CONTINUOUS
10
183.271
20
-88.653
11
184.521
21
-88.653
0
LINE
8
BLACK
6
CONTINUOUS
10
184.521
20
-88.653
11
184.57
21
-88.6578
0
LINE
8
BLACK
6
CONTINUOUS
10
179.236
20
-88.5398
11
179.283
21
-88.554
0
LINE
8
BLACK
6
CONTINUOUS
10
179.283
20
-88.554
11
179.326
21
-88.5771
0
LINE
8
BLACK
6
CONTINUOUS
10
179.326
20
-88.5771
11
179.364
21
-88.6082
0
LINE
8
BLACK
6
CONTINUOUS
10
179.364
20
-88.6082
11
179.395
21
-88.6461
0
LINE
8
BLACK
6
CONTINUOUS
10
179.395
20
-88.6461
11
179.418
21
-88.6893
0
LINE
8
BLACK
6
CONTINUOUS
10
179.418
20
-88.6893
11
179.432
21
-88.7362
0
LINE
8
BLACK
6
CONTINUOUS
10
179.432
20
-88.7362
11
179.437
21
-88.785
0
LINE
8
BLACK
6
CONTINUOUS
10
179.437
20
-88.785
11
179.437
21
-89.535
0
LINE
8
BLACK
6
CONTINUOUS
10
179.437
20
-89.535
11
179.432
21
-89.5838
0
LINE
8
BLACK
6
CONTINUOUS
10
179.432
20
-89.5838
11
179.418
21
-89.6307
0
LINE
8
BLACK
6
CONTINUOUS
10
179.418
20
-89.6307
11
179.395
21
-89.6739
0
LINE
8
BLACK
6
CONTINUOUS
10
179.395
20
-89.6739
11
179.364
21
-89.7118
0
LINE
8
BLACK
6
CONTINUOUS
10
179.364
20
-89.7118
11
179.326
21
-89.7429
0
LINE
8
BLACK
6
CONTINUOUS
10
179.326
20
-89.7429
11
179.283
21
-89.766
0
LINE
8
BLACK
6
CONTINUOUS
10
179.283
20
-89.766
11
179.236
21
-89.7802
0
LINE
8
BLACK
6
CONTINUOUS
10
179.236
20
-89.7802
11
179.187
21
-89.785
0
LINE
8
BLACK
6
CONTINUOUS
10
179.187
20
-89.785
11
177.937
21
-89.785
0
LINE
8
BLACK
6
CONTINUOUS
10
177.937
20
-89.785
11
177.888
21
-89.7802
0
LINE
8
BLACK
6
CONTINUOUS
10
177.888
20
-89.7802
11
177.841
21
-89.766
0
LINE
8
BLACK
6
CONTINUOUS
10
177.841
20
-89.766
11
177.798
21
-89.7429
0
LINE
8
BLACK
6
CONTINUOUS
10
177.798
20
-89.7429
11
177.76
21
-89.7118
0
LINE
8
BLACK
6
CONTINUOUS
10
177.76
20
-89.7118
11
177.729
21
-89.6739
0
LINE
8
BLACK
6
CONTINUOUS
10
177.729
20
-89.6739
11
177.706
21
-89.6307
0
LINE
8
BLACK
6
CONTINUOUS
10
177.706
20
-89.6307
11
177.692
21
-89.5838
0
LINE
8
BLACK
6
CONTINUOUS
10
177.692
20
-89.5838
11
177.687
21
-89.535
0
LINE
8
BLACK
6
CONTINUOUS
10
177.687
20
-89.535
11
177.687
21
-88.785
0
LINE
8
BLACK
6
CONTINUOUS
10
177.687
20
-88.785
11
177.692
21
-88.7362
0
LINE
8
BLACK
6
CONTINUOUS
10
177.692
20
-88.7362
11
177.706
21
-88.6893
0
LINE
8
BLACK
6
CONTINUOUS
10
177.706
20
-88.6893
11
177.729
21
-88.6461
0
LINE
8
BLACK
6
CONTINUOUS
10
177.729
20
-88.6461
11
177.76
21
-88.6082
0
LINE
8
BLACK
6
CONTINUOUS
10
177.76
20
-88.6082
11
177.798
21
-88.5771
0
LINE
8
BLACK
6
CONTINUOUS
10
177.798
20
-88.5771
11
177.841
21
-88.554
0
LINE
8
BLACK
6
CONTINUOUS
10
177.841
20
-88.554
11
177.888
21
-88.5398
0
LINE
8
BLACK
6
CONTINUOUS
10
177.888
20
-88.5398
11
177.937
21
-88.535
0
LINE
8
BLACK
6
CONTINUOUS
10
177.937
20
-88.535
11
179.187
21
-88.535
0
LINE
8
BLACK
6
CONTINUOUS
10
179.187
20
-88.535
11
179.236
21
-88.5398
0
LINE
8
BLACK
6
CONTINUOUS
10
139.919
20
-89.195
11
137.869
21
-89.195
0
LINE
8
BLACK
6
CONTINUOUS
10
137.869
20
-89.195
11
137.869
21
-88.605
0
LINE
8
BLACK
6
CONTINUOUS
10
137.869
20
-88.605
11
139.919
21
-88.605
0
LINE
8
BLACK
6
CONTINUOUS
10
139.919
20
-88.605
11
139.919
21
-89.195
0
LINE
8
BLACK
6
CONTINUOUS
10
130.609
20
-89.195
11
128.559
21
-89.195
0
LINE
8
BLACK
6
CONTINUOUS
10
128.559
20
-89.195
11
128.559
21
-88.605
0
LINE
8
BLACK
6
CONTINUOUS
10
128.559
20
-88.605
11
130.609
21
-88.605
0
LINE
8
BLACK
6
CONTINUOUS
10
130.609
20
-88.605
11
130.609
21
-89.195
0
LINE
8
BLACK
6
CONTINUOUS
10
139.919
20
-87.925
11
137.869
21
-87.925
0
LINE
8
BLACK
6
CONTINUOUS
10
137.869
20
-87.925
11
137.869
21
-87.335
0
LINE
8
BLACK
6
CONTINUOUS
10
137.869
20
-87.335
11
139.919
21
-87.335
0
LINE
8
BLACK
6
CONTINUOUS
10
139.919
20
-87.335
11
139.919
21
-87.925
0
LINE
8
BLACK
6
CONTINUOUS
10
130.609
20
-87.925
11
128.559
21
-87.925
0
LINE
8
BLACK
6
CONTINUOUS
10
128.559
20
-87.925
11
128.559
21
-87.335
0
LINE
8
BLACK
6
CONTINUOUS
10
128.559
20
-87.335
11
130.609
21
-87.335
0
LINE
8
BLACK
6
CONTINUOUS
10
130.609
20
-87.335
11
130.609
21
-87.925
0
LINE
8
BLACK
6
CONTINUOUS
10
142.236
20
-86.5607
11
142.282
21
-86.5746
0
LINE
8
BLACK
6
CONTINUOUS
10
142.282
20
-86.5746
11
142.324
21
-86.5971
0
LINE
8
BLACK
6
CONTINUOUS
10
142.324
20
-86.5971
11
142.361
21
-86.6274
0
LINE
8
BLACK
6
CONTINUOUS
10
142.361
20
-86.6274
11
142.391
21
-86.6643
0
LINE
8
BLACK
6
CONTINUOUS
10
142.391
20
-86.6643
11
142.413
21
-86.7065
0
LINE
8
BLACK
6
CONTINUOUS
10
142.413
20
-86.7065
11
142.427
21
-86.7522
0
LINE
8
BLACK
6
CONTINUOUS
10
142.427
20
-86.7522
11
142.432
21
-86.7998
0
LINE
8
BLACK
6
CONTINUOUS
10
142.432
20
-86.7998
11
142.432
21
-87.2873
0
LINE
8
BLACK
6
CONTINUOUS
10
142.432
20
-87.2873
11
142.427
21
-87.3348
0
LINE
8
BLACK
6
CONTINUOUS
10
142.427
20
-87.3348
11
142.413
21
-87.3805
0
LINE
8
BLACK
6
CONTINUOUS
10
142.413
20
-87.3805
11
142.391
21
-87.4227
0
LINE
8
BLACK
6
CONTINUOUS
10
142.391
20
-87.4227
11
142.361
21
-87.4596
0
LINE
8
BLACK
6
CONTINUOUS
10
142.361
20
-87.4596
11
142.324
21
-87.4899
0
LINE
8
BLACK
6
CONTINUOUS
10
142.324
20
-87.4899
11
142.282
21
-87.5124
0
LINE
8
BLACK
6
CONTINUOUS
10
142.282
20
-87.5124
11
142.236
21
-87.5263
0
LINE
8
BLACK
6
CONTINUOUS
10
142.236
20
-87.5263
11
142.188
21
-87.531
0
LINE
8
BLACK
6
CONTINUOUS
10
142.188
20
-87.531
11
141.276
21
-87.531
0
LINE
8
BLACK
6
CONTINUOUS
10
141.276
20
-87.531
11
141.228
21
-87.5263
0
LINE
8
BLACK
6
CONTINUOUS
10
141.228
20
-87.5263
11
141.182
21
-87.5124
0
LINE
8
BLACK
6
CONTINUOUS
10
141.182
20
-87.5124
11
141.14
21
-87.4899
0
LINE
8
BLACK
6
CONTINUOUS
10
141.14
20
-87.4899
11
141.103
21
-87.4596
0
LINE
8
BLACK
6
CONTINUOUS
10
141.103
20
-87.4596
11
141.073
21
-87.4227
0
LINE
8
BLACK
6
CONTINUOUS
10
141.073
20
-87.4227
11
141.051
21
-87.3805
0
LINE
8
BLACK
6
CONTINUOUS
10
141.051
20
-87.3805
11
141.037
21
-87.3348
0
LINE
8
BLACK
6
CONTINUOUS
10
141.037
20
-87.3348
11
141.032
21
-87.2873
0
LINE
8
BLACK
6
CONTINUOUS
10
141.032
20
-87.2873
11
141.032
21
-86.7998
0
LINE
8
BLACK
6
CONTINUOUS
10
141.032
20
-86.7998
11
141.037
21
-86.7522
0
LINE
8
BLACK
6
CONTINUOUS
10
141.037
20
-86.7522
11
141.051
21
-86.7065
0
LINE
8
BLACK
6
CONTINUOUS
10
141.051
20
-86.7065
11
141.073
21
-86.6643
0
LINE
8
BLACK
6
CONTINUOUS
10
141.073
20
-86.6643
11
141.103
21
-86.6274
0
LINE
8
BLACK
6
CONTINUOUS
10
141.103
20
-86.6274
11
141.14
21
-86.5971
0
LINE
8
BLACK
6
CONTINUOUS
10
141.14
20
-86.5971
11
141.182
21
-86.5746
0
LINE
8
BLACK
6
CONTINUOUS
10
141.182
20
-86.5746
11
141.228
21
-86.5607
0
LINE
8
BLACK
6
CONTINUOUS
10
141.228
20
-86.5607
11
141.276
21
-86.556
0
LINE
8
BLACK
6
CONTINUOUS
10
141.276
20
-86.556
11
142.188
21
-86.556
0
LINE
8
BLACK
6
CONTINUOUS
10
142.188
20
-86.556
11
142.236
21
-86.5607
0
LINE
8
BLACK
6
CONTINUOUS
10
166.79
20
-86.2418
11
166.837
21
-86.256
0
LINE
8
BLACK
6
CONTINUOUS
10
166.837
20
-86.256
11
166.88
21
-86.2791
0
LINE
8
BLACK
6
CONTINUOUS
10
166.88
20
-86.2791
11
166.918
21
-86.3102
0
LINE
8
BLACK
6
CONTINUOUS
10
166.918
20
-86.3102
11
166.949
21
-86.3481
0
LINE
8
BLACK
6
CONTINUOUS
10
166.949
20
-86.3481
11
166.972
21
-86.3913
0
LINE
8
BLACK
6
CONTINUOUS
10
166.972
20
-86.3913
11
166.986
21
-86.4382
0
LINE
8
BLACK
6
CONTINUOUS
10
166.986
20
-86.4382
11
166.991
21
-86.487
0
LINE
8
BLACK
6
CONTINUOUS
10
166.991
20
-86.487
11
166.991
21
-87.237
0
LINE
8
BLACK
6
CONTINUOUS
10
166.991
20
-87.237
11
166.986
21
-87.2858
0
LINE
8
BLACK
6
CONTINUOUS
10
166.986
20
-87.2858
11
166.972
21
-87.3327
0
LINE
8
BLACK
6
CONTINUOUS
10
166.972
20
-87.3327
11
166.949
21
-87.3759
0
LINE
8
BLACK
6
CONTINUOUS
10
166.949
20
-87.3759
11
166.918
21
-87.4138
0
LINE
8
BLACK
6
CONTINUOUS
10
166.918
20
-87.4138
11
166.88
21
-87.4449
0
LINE
8
BLACK
6
CONTINUOUS
10
166.88
20
-87.4449
11
166.837
21
-87.468
0
LINE
8
BLACK
6
CONTINUOUS
10
166.837
20
-87.468
11
166.79
21
-87.4822
0
LINE
8
BLACK
6
CONTINUOUS
10
166.79
20
-87.4822
11
166.741
21
-87.487
0
LINE
8
BLACK
6
CONTINUOUS
10
166.741
20
-87.487
11
165.491
21
-87.487
0
LINE
8
BLACK
6
CONTINUOUS
10
165.491
20
-87.487
11
165.442
21
-87.4822
0
LINE
8
BLACK
6
CONTINUOUS
10
165.442
20
-87.4822
11
165.395
21
-87.468
0
LINE
8
BLACK
6
CONTINUOUS
10
165.395
20
-87.468
11
165.352
21
-87.4449
0
LINE
8
BLACK
6
CONTINUOUS
10
165.352
20
-87.4449
11
165.314
21
-87.4138
0
LINE
8
BLACK
6
CONTINUOUS
10
165.314
20
-87.4138
11
165.283
21
-87.3759
0
LINE
8
BLACK
6
CONTINUOUS
10
165.283
20
-87.3759
11
165.26
21
-87.3327
0
LINE
8
BLACK
6
CONTINUOUS
10
165.26
20
-87.3327
11
165.246
21
-87.2858
0
LINE
8
BLACK
6
CONTINUOUS
10
165.246
20
-87.2858
11
165.241
21
-87.237
0
LINE
8
BLACK
6
CONTINUOUS
10
165.241
20
-87.237
11
165.241
21
-86.487
0
LINE
8
BLACK
6
CONTINUOUS
10
165.241
20
-86.487
11
165.246
21
-86.4382
0
LINE
8
BLACK
6
CONTINUOUS
10
165.246
20
-86.4382
11
165.26
21
-86.3913
0
LINE
8
BLACK
6
CONTINUOUS
10
165.26
20
-86.3913
11
165.283
21
-86.3481
0
LINE
8
BLACK
6
CONTINUOUS
10
165.283
20
-86.3481
11
165.314
21
-86.3102
0
LINE
8
BLACK
6
CONTINUOUS
10
165.314
20
-86.3102
11
165.352
21
-86.2791
0
LINE
8
BLACK
6
CONTINUOUS
10
165.352
20
-86.2791
11
165.395
21
-86.256
0
LINE
8
BLACK
6
CONTINUOUS
10
165.395
20
-86.256
11
165.442
21
-86.2418
0
LINE
8
BLACK
6
CONTINUOUS
10
165.442
20
-86.2418
11
165.491
21
-86.237
0
LINE
8
BLACK
6
CONTINUOUS
10
165.491
20
-86.237
11
166.741
21
-86.237
0
LINE
8
BLACK
6
CONTINUOUS
10
166.741
20
-86.237
11
166.79
21
-86.2418
0
LINE
8
BLACK
6
CONTINUOUS
10
156.63
20
-85.9938
11
156.677
21
-86.008
0
LINE
8
BLACK
6
CONTINUOUS
10
156.677
20
-86.008
11
156.72
21
-86.0311
0
LINE
8
BLACK
6
CONTINUOUS
10
156.72
20
-86.0311
11
156.758
21
-86.0622
0
LINE
8
BLACK
6
CONTINUOUS
10
156.758
20
-86.0622
11
156.789
21
-86.1001
0
LINE
8
BLACK
6
CONTINUOUS
10
156.789
20
-86.1001
11
156.812
21
-86.1433
0
LINE
8
BLACK
6
CONTINUOUS
10
156.812
20
-86.1433
11
156.826
21
-86.1902
0
LINE
8
BLACK
6
CONTINUOUS
10
156.826
20
-86.1902
11
156.831
21
-86.239
0
LINE
8
BLACK
6
CONTINUOUS
10
156.831
20
-86.239
11
156.831
21
-86.989
0
LINE
8
BLACK
6
CONTINUOUS
10
156.831
20
-86.989
11
156.826
21
-87.0378
0
LINE
8
BLACK
6
CONTINUOUS
10
156.826
20
-87.0378
11
156.812
21
-87.0847
0
LINE
8
BLACK
6
CONTINUOUS
10
156.812
20
-87.0847
11
156.789
21
-87.1279
0
LINE
8
BLACK
6
CONTINUOUS
10
156.789
20
-87.1279
11
156.758
21
-87.1658
0
LINE
8
BLACK
6
CONTINUOUS
10
156.758
20
-87.1658
11
156.72
21
-87.1969
0
LINE
8
BLACK
6
CONTINUOUS
10
156.72
20
-87.1969
11
156.677
21
-87.22
0
LINE
8
BLACK
6
CONTINUOUS
10
156.677
20
-87.22
11
156.63
21
-87.2342
0
LINE
8
BLACK
6
CONTINUOUS
10
156.63
20
-87.2342
11
156.581
21
-87.239
0
LINE
8
BLACK
6
CONTINUOUS
10
156.581
20
-87.239
11
155.331
21
-87.239
0
LINE
8
BLACK
6
CONTINUOUS
10
155.331
20
-87.239
11
155.282
21
-87.2342
0
LINE
8
BLACK
6
CONTINUOUS
10
155.282
20
-87.2342
11
155.235
21
-87.22
0
LINE
8
BLACK
6
CONTINUOUS
10
155.235
20
-87.22
11
155.192
21
-87.1969
0
LINE
8
BLACK
6
CONTINUOUS
10
155.192
20
-87.1969
11
155.154
21
-87.1658
0
LINE
8
BLACK
6
CONTINUOUS
10
155.154
20
-87.1658
11
155.123
21
-87.1279
0
LINE
8
BLACK
6
CONTINUOUS
10
155.123
20
-87.1279
11
155.1
21
-87.0847
0
LINE
8
BLACK
6
CONTINUOUS
10
155.1
20
-87.0847
11
155.086
21
-87.0378
0
LINE
8
BLACK
6
CONTINUOUS
10
155.086
20
-87.0378
11
155.081
21
-86.989
0
LINE
8
BLACK
6
CONTINUOUS
10
155.081
20
-86.989
11
155.081
21
-86.239
0
LINE
8
BLACK
6
CONTINUOUS
10
155.081
20
-86.239
11
155.086
21
-86.1902
0
LINE
8
BLACK
6
CONTINUOUS
10
155.086
20
-86.1902
11
155.1
21
-86.1433
0
LINE
8
BLACK
6
CONTINUOUS
10
155.1
20
-86.1433
11
155.123
21
-86.1001
0
LINE
8
BLACK
6
CONTINUOUS
10
155.123
20
-86.1001
11
155.154
21
-86.0622
0
LINE
8
BLACK
6
CONTINUOUS
10
155.154
20
-86.0622
11
155.192
21
-86.0311
0
LINE
8
BLACK
6
CONTINUOUS
10
155.192
20
-86.0311
11
155.235
21
-86.008
0
LINE
8
BLACK
6
CONTINUOUS
10
155.235
20
-86.008
11
155.282
21
-85.9938
0
LINE
8
BLACK
6
CONTINUOUS
10
155.282
20
-85.9938
11
155.331
21
-85.989
0
LINE
8
BLACK
6
CONTINUOUS
10
155.331
20
-85.989
11
156.581
21
-85.989
0
LINE
8
BLACK
6
CONTINUOUS
10
156.581
20
-85.989
11
156.63
21
-85.9938
0
LINE
8
BLACK
6
CONTINUOUS
10
179.236
20
-85.7398
11
179.283
21
-85.754
0
LINE
8
BLACK
6
CONTINUOUS
10
179.283
20
-85.754
11
179.326
21
-85.7771
0
LINE
8
BLACK
6
CONTINUOUS
10
179.326
20
-85.7771
11
179.364
21
-85.8082
0
LINE
8
BLACK
6
CONTINUOUS
10
179.364
20
-85.8082
11
179.395
21
-85.8461
0
LINE
8
BLACK
6
CONTINUOUS
10
179.395
20
-85.8461
11
179.418
21
-85.8893
0
LINE
8
BLACK
6
CONTINUOUS
10
179.418
20
-85.8893
11
179.432
21
-85.9362
0
LINE
8
BLACK
6
CONTINUOUS
10
179.432
20
-85.9362
11
179.437
21
-85.985
0
LINE
8
BLACK
6
CONTINUOUS
10
179.437
20
-85.985
11
179.437
21
-86.735
0
LINE
8
BLACK
6
CONTINUOUS
10
179.437
20
-86.735
11
179.432
21
-86.7838
0
LINE
8
BLACK
6
CONTINUOUS
10
179.432
20
-86.7838
11
179.418
21
-86.8307
0
LINE
8
BLACK
6
CONTINUOUS
10
179.418
20
-86.8307
11
179.395
21
-86.8739
0
LINE
8
BLACK
6
CONTINUOUS
10
179.395
20
-86.8739
11
179.364
21
-86.9118
0
LINE
8
BLACK
6
CONTINUOUS
10
179.364
20
-86.9118
11
179.326
21
-86.9429
0
LINE
8
BLACK
6
CONTINUOUS
10
179.326
20
-86.9429
11
179.283
21
-86.966
0
LINE
8
BLACK
6
CONTINUOUS
10
179.283
20
-86.966
11
179.236
21
-86.9802
0
LINE
8
BLACK
6
CONTINUOUS
10
179.236
20
-86.9802
11
179.187
21
-86.985
0
LINE
8
BLACK
6
CONTINUOUS
10
179.187
20
-86.985
11
177.937
21
-86.985
0
LINE
8
BLACK
6
CONTINUOUS
10
177.937
20
-86.985
11
177.888
21
-86.9802
0
LINE
8
BLACK
6
CONTINUOUS
10
177.888
20
-86.9802
11
177.841
21
-86.966
0
LINE
8
BLACK
6
CONTINUOUS
10
177.841
20
-86.966
11
177.798
21
-86.9429
0
LINE
8
BLACK
6
CONTINUOUS
10
177.798
20
-86.9429
11
177.76
21
-86.9118
0
LINE
8
BLACK
6
CONTINUOUS
10
177.76
20
-86.9118
11
177.729
21
-86.8739
0
LINE
8
BLACK
6
CONTINUOUS
10
177.729
20
-86.8739
11
177.706
21
-86.8307
0
LINE
8
BLACK
6
CONTINUOUS
10
177.706
20
-86.8307
11
177.692
21
-86.7838
0
LINE
8
BLACK
6
CONTINUOUS
10
177.692
20
-86.7838
11
177.687
21
-86.735
0
LINE
8
BLACK
6
CONTINUOUS
10
177.687
20
-86.735
11
177.687
21
-85.985
0
LINE
8
BLACK
6
CONTINUOUS
10
177.687
20
-85.985
11
177.692
21
-85.9362
0
LINE
8
BLACK
6
CONTINUOUS
10
177.692
20
-85.9362
11
177.706
21
-85.8893
0
LINE
8
BLACK
6
CONTINUOUS
10
177.706
20
-85.8893
11
177.729
21
-85.8461
0
LINE
8
BLACK
6
CONTINUOUS
10
177.729
20
-85.8461
11
177.76
21
-85.8082
0
LINE
8
BLACK
6
CONTINUOUS
10
177.76
20
-85.8082
11
177.798
21
-85.7771
0
LINE
8
BLACK
6
CONTINUOUS
10
177.798
20
-85.7771
11
177.841
21
-85.754
0
LINE
8
BLACK
6
CONTINUOUS
10
177.841
20
-85.754
11
177.888
21
-85.7398
0
LINE
8
BLACK
6
CONTINUOUS
10
177.888
20
-85.7398
11
177.937
21
-85.735
0
LINE
8
BLACK
6
CONTINUOUS
10
177.937
20
-85.735
11
179.187
21
-85.735
0
LINE
8
BLACK
6
CONTINUOUS
10
179.187
20
-85.735
11
179.236
21
-85.7398
0
LINE
8
BLACK
6
CONTINUOUS
10
130.609
20
-86.655
11
128.559
21
-86.655
0
LINE
8
BLACK
6
CONTINUOUS
10
128.559
20
-86.655
11
128.559
21
-86.065
0
LINE
8
BLACK
6
CONTINUOUS
10
128.559
20
-86.065
11
130.609
21
-86.065
0
LINE
8
BLACK
6
CONTINUOUS
10
130.609
20
-86.065
11
130.609
21
-86.655
0
LINE
8
BLACK
6
CONTINUOUS
10
139.919
20
-86.655
11
137.869
21
-86.655
0
LINE
8
BLACK
6
CONTINUOUS
10
137.869
20
-86.655
11
137.869
21
-86.065
0
LINE
8
BLACK
6
CONTINUOUS
10
137.869
20
-86.065
11
139.919
21
-86.065
0
LINE
8
BLACK
6
CONTINUOUS
10
139.919
20
-86.065
11
139.919
21
-86.655
0
LINE
8
BLACK
6
CONTINUOUS
10
142.236
20
-84.6857
11
142.282
21
-84.6996
0
LINE
8
BLACK
6
CONTINUOUS
10
142.282
20
-84.6996
11
142.324
21
-84.7221
0
LINE
8
BLACK
6
CONTINUOUS
10
142.324
20
-84.7221
11
142.361
21
-84.7524
0
LINE
8
BLACK
6
CONTINUOUS
10
142.361
20
-84.7524
11
142.391
21
-84.7893
0
LINE
8
BLACK
6
CONTINUOUS
10
142.391
20
-84.7893
11
142.413
21
-84.8315
0
LINE
8
BLACK
6
CONTINUOUS
10
142.413
20
-84.8315
11
142.427
21
-84.8772
0
LINE
8
BLACK
6
CONTINUOUS
10
142.427
20
-84.8772
11
142.432
21
-84.9248
0
LINE
8
BLACK
6
CONTINUOUS
10
142.432
20
-84.9248
11
142.432
21
-85.4123
0
LINE
8
BLACK
6
CONTINUOUS
10
142.432
20
-85.4123
11
142.427
21
-85.4598
0
LINE
8
BLACK
6
CONTINUOUS
10
142.427
20
-85.4598
11
142.413
21
-85.5055
0
LINE
8
BLACK
6
CONTINUOUS
10
142.413
20
-85.5055
11
142.391
21
-85.5477
0
LINE
8
BLACK
6
CONTINUOUS
10
142.391
20
-85.5477
11
142.361
21
-85.5846
0
LINE
8
BLACK
6
CONTINUOUS
10
142.361
20
-85.5846
11
142.324
21
-85.6149
0
LINE
8
BLACK
6
CONTINUOUS
10
142.324
20
-85.6149
11
142.282
21
-85.6374
0
LINE
8
BLACK
6
CONTINUOUS
10
142.282
20
-85.6374
11
142.236
21
-85.6513
0
LINE
8
BLACK
6
CONTINUOUS
10
142.236
20
-85.6513
11
142.188
21
-85.656
0
LINE
8
BLACK
6
CONTINUOUS
10
142.188
20
-85.656
11
141.276
21
-85.656
0
LINE
8
BLACK
6
CONTINUOUS
10
141.276
20
-85.656
11
141.228
21
-85.6513
0
LINE
8
BLACK
6
CONTINUOUS
10
141.228
20
-85.6513
11
141.182
21
-85.6374
0
LINE
8
BLACK
6
CONTINUOUS
10
141.182
20
-85.6374
11
141.14
21
-85.6149
0
LINE
8
BLACK
6
CONTINUOUS
10
141.14
20
-85.6149
11
141.103
21
-85.5846
0
LINE
8
BLACK
6
CONTINUOUS
10
141.103
20
-85.5846
11
141.073
21
-85.5477
0
LINE
8
BLACK
6
CONTINUOUS
10
141.073
20
-85.5477
11
141.051
21
-85.5055
0
LINE
8
BLACK
6
CONTINUOUS
10
141.051
20
-85.5055
11
141.037
21
-85.4598
0
LINE
8
BLACK
6
CONTINUOUS
10
141.037
20
-85.4598
11
141.032
21
-85.4123
0
LINE
8
BLACK
6
CONTINUOUS
10
141.032
20
-85.4123
11
141.032
21
-84.9248
0
LINE
8
BLACK
6
CONTINUOUS
10
141.032
20
-84.9248
11
141.037
21
-84.8772
0
LINE
8
BLACK
6
CONTINUOUS
10
141.037
20
-84.8772
11
141.051
21
-84.8315
0
LINE
8
BLACK
6
CONTINUOUS
10
141.051
20
-84.8315
11
141.073
21
-84.7893
0
LINE
8
BLACK
6
CONTINUOUS
10
141.073
20
-84.7893
11
141.103
21
-84.7524
0
LINE
8
BLACK
6
CONTINUOUS
10
141.103
20
-84.7524
11
141.14
21
-84.7221
0
LINE
8
BLACK
6
CONTINUOUS
10
141.14
20
-84.7221
11
141.182
21
-84.6996
0
LINE
8
BLACK
6
CONTINUOUS
10
141.182
20
-84.6996
11
141.228
21
-84.6857
0
LINE
8
BLACK
6
CONTINUOUS
10
141.228
20
-84.6857
11
141.276
21
-84.681
0
LINE
8
BLACK
6
CONTINUOUS
10
141.276
20
-84.681
11
142.188
21
-84.681
0
LINE
8
BLACK
6
CONTINUOUS
10
142.188
20
-84.681
11
142.236
21
-84.6857
0
LINE
8
BLACK
6
CONTINUOUS
10
139.919
20
-85.385
11
137.869
21
-85.385
0
LINE
8
BLACK
6
CONTINUOUS
10
137.869
20
-85.385
11
137.869
21
-84.795
0
LINE
8
BLACK
6
CONTINUOUS
10
137.869
20
-84.795
11
139.919
21
-84.795
0
LINE
8
BLACK
6
CONTINUOUS
10
139.919
20
-84.795
11
139.919
21
-85.385
0
LINE
8
BLACK
6
CONTINUOUS
10
130.609
20
-85.385
11
128.559
21
-85.385
0
LINE
8
BLACK
6
CONTINUOUS
10
128.559
20
-85.385
11
128.559
21
-84.795
0
LINE
8
BLACK
6
CONTINUOUS
10
128.559
20
-84.795
11
130.609
21
-84.795
0
LINE
8
BLACK
6
CONTINUOUS
10
130.609
20
-84.795
11
130.609
21
-85.385
0
LINE
8
BLACK
6
CONTINUOUS
10
130.609
20
-84.115
11
128.559
21
-84.115
0
LINE
8
BLACK
6
CONTINUOUS
10
128.559
20
-84.115
11
128.559
21
-83.525
0
LINE
8
BLACK
6
CONTINUOUS
10
128.559
20
-83.525
11
130.609
21
-83.525
0
LINE
8
BLACK
6
CONTINUOUS
10
130.609
20
-83.525
11
130.609
21
-84.115
0
LINE
8
BLACK
6
CONTINUOUS
10
139.919
20
-84.115
11
137.869
21
-84.115
0
LINE
8
BLACK
6
CONTINUOUS
10
137.869
20
-84.115
11
137.869
21
-83.525
0
LINE
8
BLACK
6
CONTINUOUS
10
137.869
20
-83.525
11
139.919
21
-83.525
0
LINE
8
BLACK
6
CONTINUOUS
10
139.919
20
-83.525
11
139.919
21
-84.115
0
LINE
8
BLACK
6
CONTINUOUS
10
166.79
20
-81.6818
11
166.837
21
-81.696
0
LINE
8
BLACK
6
CONTINUOUS
10
166.837
20
-81.696
11
166.88
21
-81.7191
0
LINE
8
BLACK
6
CONTINUOUS
10
166.88
20
-81.7191
11
166.918
21
-81.7502
0
LINE
8
BLACK
6
CONTINUOUS
10
166.918
20
-81.7502
11
166.949
21
-81.7881
0
LINE
8
BLACK
6
CONTINUOUS
10
166.949
20
-81.7881
11
166.972
21
-81.8313
0
LINE
8
BLACK
6
CONTINUOUS
10
166.972
20
-81.8313
11
166.986
21
-81.8782
0
LINE
8
BLACK
6
CONTINUOUS
10
166.986
20
-81.8782
11
166.991
21
-81.927
0
LINE
8
BLACK
6
CONTINUOUS
10
166.991
20
-81.927
11
166.991
21
-82.677
0
LINE
8
BLACK
6
CONTINUOUS
10
166.991
20
-82.677
11
166.986
21
-82.7258
0
LINE
8
BLACK
6
CONTINUOUS
10
166.986
20
-82.7258
11
166.972
21
-82.7727
0
LINE
8
BLACK
6
CONTINUOUS
10
166.972
20
-82.7727
11
166.949
21
-82.8159
0
LINE
8
BLACK
6
CONTINUOUS
10
166.949
20
-82.8159
11
166.918
21
-82.8538
0
LINE
8
BLACK
6
CONTINUOUS
10
166.918
20
-82.8538
11
166.88
21
-82.8849
0
LINE
8
BLACK
6
CONTINUOUS
10
166.88
20
-82.8849
11
166.837
21
-82.908
0
LINE
8
BLACK
6
CONTINUOUS
10
166.837
20
-82.908
11
166.79
21
-82.9222
0
LINE
8
BLACK
6
CONTINUOUS
10
166.79
20
-82.9222
11
166.741
21
-82.927
0
LINE
8
BLACK
6
CONTINUOUS
10
166.741
20
-82.927
11
165.491
21
-82.927
0
LINE
8
BLACK
6
CONTINUOUS
10
165.491
20
-82.927
11
165.442
21
-82.9222
0
LINE
8
BLACK
6
CONTINUOUS
10
165.442
20
-82.9222
11
165.395
21
-82.908
0
LINE
8
BLACK
6
CONTINUOUS
10
165.395
20
-82.908
11
165.352
21
-82.8849
0
LINE
8
BLACK
6
CONTINUOUS
10
165.352
20
-82.8849
11
165.314
21
-82.8538
0
LINE
8
BLACK
6
CONTINUOUS
10
165.314
20
-82.8538
11
165.283
21
-82.8159
0
LINE
8
BLACK
6
CONTINUOUS
10
165.283
20
-82.8159
11
165.26
21
-82.7727
0
LINE
8
BLACK
6
CONTINUOUS
10
165.26
20
-82.7727
11
165.246
21
-82.7258
0
LINE
8
BLACK
6
CONTINUOUS
10
165.246
20
-82.7258
11
165.241
21
-82.677
0
LINE
8
BLACK
6
CONTINUOUS
10
165.241
20
-82.677
11
165.241
21
-81.927
0
LINE
8
BLACK
6
CONTINUOUS
10
165.241
20
-81.927
11
165.246
21
-81.8782
0
LINE
8
BLACK
6
CONTINUOUS
10
165.246
20
-81.8782
11
165.26
21
-81.8313
0
LINE
8
BLACK
6
CONTINUOUS
10
165.26
20
-81.8313
11
165.283
21
-81.7881
0
LINE
8
BLACK
6
CONTINUOUS
10
165.283
20
-81.7881
11
165.314
21
-81.7502
0
LINE
8
BLACK
6
CONTINUOUS
10
165.314
20
-81.7502
11
165.352
21
-81.7191
0
LINE
8
BLACK
6
CONTINUOUS
10
165.352
20
-81.7191
11
165.395
21
-81.696
0
LINE
8
BLACK
6
CONTINUOUS
10
165.395
20
-81.696
11
165.442
21
-81.6818
0
LINE
8
BLACK
6
CONTINUOUS
10
165.442
20
-81.6818
11
165.491
21
-81.677
0
LINE
8
BLACK
6
CONTINUOUS
10
165.491
20
-81.677
11
166.741
21
-81.677
0
LINE
8
BLACK
6
CONTINUOUS
10
166.741
20
-81.677
11
166.79
21
-81.6818
0
LINE
8
BLACK
6
CONTINUOUS
10
138.804
20
-79.9018
11
138.851
21
-79.916
0
LINE
8
BLACK
6
CONTINUOUS
10
138.851
20
-79.916
11
138.894
21
-79.9391
0
LINE
8
BLACK
6
CONTINUOUS
10
138.894
20
-79.9391
11
138.932
21
-79.9702
0
LINE
8
BLACK
6
CONTINUOUS
10
138.932
20
-79.9702
11
138.963
21
-80.0081
0
LINE
8
BLACK
6
CONTINUOUS
10
138.963
20
-80.0081
11
138.986
21
-80.0513
0
LINE
8
BLACK
6
CONTINUOUS
10
138.986
20
-80.0513
11
139
21
-80.0982
0
LINE
8
BLACK
6
CONTINUOUS
10
139
20
-80.0982
11
139.005
21
-80.147
0
LINE
8
BLACK
6
CONTINUOUS
10
139.005
20
-80.147
11
139.005
21
-81.397
0
LINE
8
BLACK
6
CONTINUOUS
10
139.005
20
-81.397
11
139
21
-81.4458
0
LINE
8
BLACK
6
CONTINUOUS
10
139
20
-81.4458
11
138.986
21
-81.4927
0
LINE
8
BLACK
6
CONTINUOUS
10
138.986
20
-81.4927
11
138.963
21
-81.5359
0
LINE
8
BLACK
6
CONTINUOUS
10
138.963
20
-81.5359
11
138.932
21
-81.5738
0
LINE
8
BLACK
6
CONTINUOUS
10
138.932
20
-81.5738
11
138.894
21
-81.6049
0
LINE
8
BLACK
6
CONTINUOUS
10
138.894
20
-81.6049
11
138.851
21
-81.628
0
LINE
8
BLACK
6
CONTINUOUS
10
138.851
20
-81.628
11
138.804
21
-81.6422
0
LINE
8
BLACK
6
CONTINUOUS
10
138.804
20
-81.6422
11
138.755
21
-81.647
0
LINE
8
BLACK
6
CONTINUOUS
10
138.755
20
-81.647
11
138.005
21
-81.647
0
LINE
8
BLACK
6
CONTINUOUS
10
138.005
20
-81.647
11
137.956
21
-81.6422
0
LINE
8
BLACK
6
CONTINUOUS
10
137.956
20
-81.6422
11
137.909
21
-81.628
0
LINE
8
BLACK
6
CONTINUOUS
10
137.909
20
-81.628
11
137.866
21
-81.6049
0
LINE
8
BLACK
6
CONTINUOUS
10
137.866
20
-81.6049
11
137.828
21
-81.5738
0
LINE
8
BLACK
6
CONTINUOUS
10
137.828
20
-81.5738
11
137.797
21
-81.5359
0
LINE
8
BLACK
6
CONTINUOUS
10
137.797
20
-81.5359
11
137.774
21
-81.4927
0
LINE
8
BLACK
6
CONTINUOUS
10
137.774
20
-81.4927
11
137.76
21
-81.4458
0
LINE
8
BLACK
6
CONTINUOUS
10
137.76
20
-81.4458
11
137.755
21
-81.397
0
LINE
8
BLACK
6
CONTINUOUS
10
137.755
20
-81.397
11
137.755
21
-80.147
0
LINE
8
BLACK
6
CONTINUOUS
10
137.755
20
-80.147
11
137.76
21
-80.0982
0
LINE
8
BLACK
6
CONTINUOUS
10
137.76
20
-80.0982
11
137.774
21
-80.0513
0
LINE
8
BLACK
6
CONTINUOUS
10
137.774
20
-80.0513
11
137.797
21
-80.0081
0
LINE
8
BLACK
6
CONTINUOUS
10
137.797
20
-80.0081
11
137.828
21
-79.9702
0
LINE
8
BLACK
6
CONTINUOUS
10
137.828
20
-79.9702
11
137.866
21
-79.9391
0
LINE
8
BLACK
6
CONTINUOUS
10
137.866
20
-79.9391
11
137.909
21
-79.916
0
LINE
8
BLACK
6
CONTINUOUS
10
137.909
20
-79.916
11
137.956
21
-79.9018
0
LINE
8
BLACK
6
CONTINUOUS
10
137.956
20
-79.9018
11
138.005
21
-79.897
0
LINE
8
BLACK
6
CONTINUOUS
10
138.005
20
-79.897
11
138.755
21
-79.897
0
LINE
8
BLACK
6
CONTINUOUS
10
138.755
20
-79.897
11
138.804
21
-79.9018
0
LINE
8
BLACK
6
CONTINUOUS
10
136.004
20
-79.9018
11
136.051
21
-79.916
0
LINE
8
BLACK
6
CONTINUOUS
10
136.051
20
-79.916
11
136.094
21
-79.9391
0
LINE
8
BLACK
6
CONTINUOUS
10
136.094
20
-79.9391
11
136.132
21
-79.9702
0
LINE
8
BLACK
6
CONTINUOUS
10
136.132
20
-79.9702
11
136.163
21
-80.0081
0
LINE
8
BLACK
6
CONTINUOUS
10
136.163
20
-80.0081
11
136.186
21
-80.0513
0
LINE
8
BLACK
6
CONTINUOUS
10
136.186
20
-80.0513
11
136.2
21
-80.0982
0
LINE
8
BLACK
6
CONTINUOUS
10
136.2
20
-80.0982
11
136.205
21
-80.147
0
LINE
8
BLACK
6
CONTINUOUS
10
136.205
20
-80.147
11
136.205
21
-81.397
0
LINE
8
BLACK
6
CONTINUOUS
10
136.205
20
-81.397
11
136.2
21
-81.4458
0
LINE
8
BLACK
6
CONTINUOUS
10
136.2
20
-81.4458
11
136.186
21
-81.4927
0
LINE
8
BLACK
6
CONTINUOUS
10
136.186
20
-81.4927
11
136.163
21
-81.5359
0
LINE
8
BLACK
6
CONTINUOUS
10
136.163
20
-81.5359
11
136.132
21
-81.5738
0
LINE
8
BLACK
6
CONTINUOUS
10
136.132
20
-81.5738
11
136.094
21
-81.6049
0
LINE
8
BLACK
6
CONTINUOUS
10
136.094
20
-81.6049
11
136.051
21
-81.628
0
LINE
8
BLACK
6
CONTINUOUS
10
136.051
20
-81.628
11
136.004
21
-81.6422
0
LINE
8
BLACK
6
CONTINUOUS
10
136.004
20
-81.6422
11
135.955
21
-81.647
0
LINE
8
BLACK
6
CONTINUOUS
10
135.955
20
-81.647
11
135.205
21
-81.647
0
LINE
8
BLACK
6
CONTINUOUS
10
135.205
20
-81.647
11
135.156
21
-81.6422
0
LINE
8
BLACK
6
CONTINUOUS
10
135.156
20
-81.6422
11
135.109
21
-81.628
0
LINE
8
BLACK
6
CONTINUOUS
10
135.109
20
-81.628
11
135.066
21
-81.6049
0
LINE
8
BLACK
6
CONTINUOUS
10
135.066
20
-81.6049
11
135.028
21
-81.5738
0
LINE
8
BLACK
6
CONTINUOUS
10
135.028
20
-81.5738
11
134.997
21
-81.5359
0
LINE
8
BLACK
6
CONTINUOUS
10
134.997
20
-81.5359
11
134.974
21
-81.4927
0
LINE
8
BLACK
6
CONTINUOUS
10
134.974
20
-81.4927
11
134.96
21
-81.4458
0
LINE
8
BLACK
6
CONTINUOUS
10
134.96
20
-81.4458
11
134.955
21
-81.397
0
LINE
8
BLACK
6
CONTINUOUS
10
134.955
20
-81.397
11
134.955
21
-80.147
0
LINE
8
BLACK
6
CONTINUOUS
10
134.955
20
-80.147
11
134.96
21
-80.0982
0
LINE
8
BLACK
6
CONTINUOUS
10
134.96
20
-80.0982
11
134.974
21
-80.0513
0
LINE
8
BLACK
6
CONTINUOUS
10
134.974
20
-80.0513
11
134.997
21
-80.0081
0
LINE
8
BLACK
6
CONTINUOUS
10
134.997
20
-80.0081
11
135.028
21
-79.9702
0
LINE
8
BLACK
6
CONTINUOUS
10
135.028
20
-79.9702
11
135.066
21
-79.9391
0
LINE
8
BLACK
6
CONTINUOUS
10
135.066
20
-79.9391
11
135.109
21
-79.916
0
LINE
8
BLACK
6
CONTINUOUS
10
135.109
20
-79.916
11
135.156
21
-79.9018
0
LINE
8
BLACK
6
CONTINUOUS
10
135.156
20
-79.9018
11
135.205
21
-79.897
0
LINE
8
BLACK
6
CONTINUOUS
10
135.205
20
-79.897
11
135.955
21
-79.897
0
LINE
8
BLACK
6
CONTINUOUS
10
135.955
20
-79.897
11
136.004
21
-79.9018
0
LINE
8
BLACK
6
CONTINUOUS
10
166.79
20
-78.8818
11
166.837
21
-78.896
0
LINE
8
BLACK
6
CONTINUOUS
10
166.837
20
-78.896
11
166.88
21
-78.9191
0
LINE
8
BLACK
6
CONTINUOUS
10
166.88
20
-78.9191
11
166.918
21
-78.9502
0
LINE
8
BLACK
6
CONTINUOUS
10
166.918
20
-78.9502
11
166.949
21
-78.9881
0
LINE
8
BLACK
6
CONTINUOUS
10
166.949
20
-78.9881
11
166.972
21
-79.0313
0
LINE
8
BLACK
6
CONTINUOUS
10
166.972
20
-79.0313
11
166.986
21
-79.0782
0
LINE
8
BLACK
6
CONTINUOUS
10
166.986
20
-79.0782
11
166.991
21
-79.127
0
LINE
8
BLACK
6
CONTINUOUS
10
166.991
20
-79.127
11
166.991
21
-79.877
0
LINE
8
BLACK
6
CONTINUOUS
10
166.991
20
-79.877
11
166.986
21
-79.9258
0
LINE
8
BLACK
6
CONTINUOUS
10
166.986
20
-79.9258
11
166.972
21
-79.9727
0
LINE
8
BLACK
6
CONTINUOUS
10
166.972
20
-79.9727
11
166.949
21
-80.0159
0
LINE
8
BLACK
6
CONTINUOUS
10
166.949
20
-80.0159
11
166.918
21
-80.0538
0
LINE
8
BLACK
6
CONTINUOUS
10
166.918
20
-80.0538
11
166.88
21
-80.0849
0
LINE
8
BLACK
6
CONTINUOUS
10
166.88
20
-80.0849
11
166.837
21
-80.108
0
LINE
8
BLACK
6
CONTINUOUS
10
166.837
20
-80.108
11
166.79
21
-80.1222
0
LINE
8
BLACK
6
CONTINUOUS
10
166.79
20
-80.1222
11
166.741
21
-80.127
0
LINE
8
BLACK
6
CONTINUOUS
10
166.741
20
-80.127
11
165.491
21
-80.127
0
LINE
8
BLACK
6
CONTINUOUS
10
165.491
20
-80.127
11
165.442
21
-80.1222
0
LINE
8
BLACK
6
CONTINUOUS
10
165.442
20
-80.1222
11
165.395
21
-80.108
0
LINE
8
BLACK
6
CONTINUOUS
10
165.395
20
-80.108
11
165.352
21
-80.0849
0
LINE
8
BLACK
6
CONTINUOUS
10
165.352
20
-80.0849
11
165.314
21
-80.0538
0
LINE
8
BLACK
6
CONTINUOUS
10
165.314
20
-80.0538
11
165.283
21
-80.0159
0
LINE
8
BLACK
6
CONTINUOUS
10
165.283
20
-80.0159
11
165.26
21
-79.9727
0
LINE
8
BLACK
6
CONTINUOUS
10
165.26
20
-79.9727
11
165.246
21
-79.9258
0
LINE
8
BLACK
6
CONTINUOUS
10
165.246
20
-79.9258
11
165.241
21
-79.877
0
LINE
8
BLACK
6
CONTINUOUS
10
165.241
20
-79.877
11
165.241
21
-79.127
0
LINE
8
BLACK
6
CONTINUOUS
10
165.241
20
-79.127
11
165.246
21
-79.0782
0
LINE
8
BLACK
6
CONTINUOUS
10
165.246
20
-79.0782
11
165.26
21
-79.0313
0
LINE
8
BLACK
6
CONTINUOUS
10
165.26
20
-79.0313
11
165.283
21
-78.9881
0
LINE
8
BLACK
6
CONTINUOUS
10
165.283
20
-78.9881
11
165.314
21
-78.9502
0
LINE
8
BLACK
6
CONTINUOUS
10
165.314
20
-78.9502
11
165.352
21
-78.9191
0
LINE
8
BLACK
6
CONTINUOUS
10
165.352
20
-78.9191
11
165.395
21
-78.896
0
LINE
8
BLACK
6
CONTINUOUS
10
165.395
20
-78.896
11
165.442
21
-78.8818
0
LINE
8
BLACK
6
CONTINUOUS
10
165.442
20
-78.8818
11
165.491
21
-78.877
0
LINE
8
BLACK
6
CONTINUOUS
10
165.491
20
-78.877
11
166.741
21
-78.877
0
LINE
8
BLACK
6
CONTINUOUS
10
166.741
20
-78.877
11
166.79
21
-78.8818
0
LINE
8
BLACK
6
CONTINUOUS
10
177.722
20
-74.5678
11
177.769
21
-74.582
0
LINE
8
BLACK
6
CONTINUOUS
10
177.769
20
-74.582
11
177.812
21
-74.6051
0
LINE
8
BLACK
6
CONTINUOUS
10
177.812
20
-74.6051
11
177.85
21
-74.6362
0
LINE
8
BLACK
6
CONTINUOUS
10
177.85
20
-74.6362
11
177.881
21
-74.6741
0
LINE
8
BLACK
6
CONTINUOUS
10
177.881
20
-74.6741
11
177.904
21
-74.7173
0
LINE
8
BLACK
6
CONTINUOUS
10
177.904
20
-74.7173
11
177.918
21
-74.7642
0
LINE
8
BLACK
6
CONTINUOUS
10
177.918
20
-74.7642
11
177.923
21
-74.813
0
LINE
8
BLACK
6
CONTINUOUS
10
177.923
20
-74.813
11
177.923
21
-76.063
0
LINE
8
BLACK
6
CONTINUOUS
10
177.923
20
-76.063
11
177.918
21
-76.1118
0
LINE
8
BLACK
6
CONTINUOUS
10
177.918
20
-76.1118
11
177.904
21
-76.1587
0
LINE
8
BLACK
6
CONTINUOUS
10
177.904
20
-76.1587
11
177.881
21
-76.2019
0
LINE
8
BLACK
6
CONTINUOUS
10
177.881
20
-76.2019
11
177.85
21
-76.2398
0
LINE
8
BLACK
6
CONTINUOUS
10
177.85
20
-76.2398
11
177.812
21
-76.2709
0
LINE
8
BLACK
6
CONTINUOUS
10
177.812
20
-76.2709
11
177.769
21
-76.294
0
LINE
8
BLACK
6
CONTINUOUS
10
177.769
20
-76.294
11
177.722
21
-76.3082
0
LINE
8
BLACK
6
CONTINUOUS
10
177.722
20
-76.3082
11
177.673
21
-76.313
0
LINE
8
BLACK
6
CONTINUOUS
10
177.673
20
-76.313
11
176.923
21
-76.313
0
LINE
8
BLACK
6
CONTINUOUS
10
176.923
20
-76.313
11
176.874
21
-76.3082
0
LINE
8
BLACK
6
CONTINUOUS
10
176.874
20
-76.3082
11
176.827
21
-76.294
0
LINE
8
BLACK
6
CONTINUOUS
10
176.827
20
-76.294
11
176.784
21
-76.2709
0
LINE
8
BLACK
6
CONTINUOUS
10
176.784
20
-76.2709
11
176.746
21
-76.2398
0
LINE
8
BLACK
6
CONTINUOUS
10
176.746
20
-76.2398
11
176.715
21
-76.2019
0
LINE
8
BLACK
6
CONTINUOUS
10
176.715
20
-76.2019
11
176.692
21
-76.1587
0
LINE
8
BLACK
6
CONTINUOUS
10
176.692
20
-76.1587
11
176.678
21
-76.1118
0
LINE
8
BLACK
6
CONTINUOUS
10
176.678
20
-76.1118
11
176.673
21
-76.063
0
LINE
8
BLACK
6
CONTINUOUS
10
176.673
20
-76.063
11
176.673
21
-74.813
0
LINE
8
BLACK
6
CONTINUOUS
10
176.673
20
-74.813
11
176.678
21
-74.7642
0
LINE
8
BLACK
6
CONTINUOUS
10
176.678
20
-74.7642
11
176.692
21
-74.7173
0
LINE
8
BLACK
6
CONTINUOUS
10
176.692
20
-74.7173
11
176.715
21
-74.6741
0
LINE
8
BLACK
6
CONTINUOUS
10
176.715
20
-74.6741
11
176.746
21
-74.6362
0
LINE
8
BLACK
6
CONTINUOUS
10
176.746
20
-74.6362
11
176.784
21
-74.6051
0
LINE
8
BLACK
6
CONTINUOUS
10
176.784
20
-74.6051
11
176.827
21
-74.582
0
LINE
8
BLACK
6
CONTINUOUS
10
176.827
20
-74.582
11
176.874
21
-74.5678
0
LINE
8
BLACK
6
CONTINUOUS
10
176.874
20
-74.5678
11
176.923
21
-74.563
0
LINE
8
BLACK
6
CONTINUOUS
10
176.923
20
-74.563
11
177.673
21
-74.563
0
LINE
8
BLACK
6
CONTINUOUS
10
177.673
20
-74.563
11
177.722
21
-74.5678
0
LINE
8
BLACK
6
CONTINUOUS
10
153.592
20
-74.5678
11
153.639
21
-74.582
0
LINE
8
BLACK
6
CONTINUOUS
10
153.639
20
-74.582
11
153.682
21
-74.6051
0
LINE
8
BLACK
6
CONTINUOUS
10
153.682
20
-74.6051
11
153.72
21
-74.6362
0
LINE
8
BLACK
6
CONTINUOUS
10
153.72
20
-74.6362
11
153.751
21
-74.6741
0
LINE
8
BLACK
6
CONTINUOUS
10
153.751
20
-74.6741
11
153.774
21
-74.7173
0
LINE
8
BLACK
6
CONTINUOUS
10
153.774
20
-74.7173
11
153.788
21
-74.7642
0
LINE
8
BLACK
6
CONTINUOUS
10
153.788
20
-74.7642
11
153.793
21
-74.813
0
LINE
8
BLACK
6
CONTINUOUS
10
153.793
20
-74.813
11
153.793
21
-76.063
0
LINE
8
BLACK
6
CONTINUOUS
10
153.793
20
-76.063
11
153.788
21
-76.1118
0
LINE
8
BLACK
6
CONTINUOUS
10
153.788
20
-76.1118
11
153.774
21
-76.1587
0
LINE
8
BLACK
6
CONTINUOUS
10
153.774
20
-76.1587
11
153.751
21
-76.2019
0
LINE
8
BLACK
6
CONTINUOUS
10
153.751
20
-76.2019
11
153.72
21
-76.2398
0
LINE
8
BLACK
6
CONTINUOUS
10
153.72
20
-76.2398
11
153.682
21
-76.2709
0
LINE
8
BLACK
6
CONTINUOUS
10
153.682
20
-76.2709
11
153.639
21
-76.294
0
LINE
8
BLACK
6
CONTINUOUS
10
153.639
20
-76.294
11
153.592
21
-76.3082
0
LINE
8
BLACK
6
CONTINUOUS
10
153.592
20
-76.3082
11
153.543
21
-76.313
0
LINE
8
BLACK
6
CONTINUOUS
10
153.543
20
-76.313
11
152.793
21
-76.313
0
LINE
8
BLACK
6
CONTINUOUS
10
152.793
20
-76.313
11
152.744
21
-76.3082
0
LINE
8
BLACK
6
CONTINUOUS
10
152.744
20
-76.3082
11
152.697
21
-76.294
0
LINE
8
BLACK
6
CONTINUOUS
10
152.697
20
-76.294
11
152.654
21
-76.2709
0
LINE
8
BLACK
6
CONTINUOUS
10
152.654
20
-76.2709
11
152.616
21
-76.2398
0
LINE
8
BLACK
6
CONTINUOUS
10
152.616
20
-76.2398
11
152.585
21
-76.2019
0
LINE
8
BLACK
6
CONTINUOUS
10
152.585
20
-76.2019
11
152.562
21
-76.1587
0
LINE
8
BLACK
6
CONTINUOUS
10
152.562
20
-76.1587
11
152.548
21
-76.1118
0
LINE
8
BLACK
6
CONTINUOUS
10
152.548
20
-76.1118
11
152.543
21
-76.063
0
LINE
8
BLACK
6
CONTINUOUS
10
152.543
20
-76.063
11
152.543
21
-74.813
0
LINE
8
BLACK
6
CONTINUOUS
10
152.543
20
-74.813
11
152.548
21
-74.7642
0
LINE
8
BLACK
6
CONTINUOUS
10
152.548
20
-74.7642
11
152.562
21
-74.7173
0
LINE
8
BLACK
6
CONTINUOUS
10
152.562
20
-74.7173
11
152.585
21
-74.6741
0
LINE
8
BLACK
6
CONTINUOUS
10
152.585
20
-74.6741
11
152.616
21
-74.6362
0
LINE
8
BLACK
6
CONTINUOUS
10
152.616
20
-74.6362
11
152.654
21
-74.6051
0
LINE
8
BLACK
6
CONTINUOUS
10
152.654
20
-74.6051
11
152.697
21
-74.582
0
LINE
8
BLACK
6
CONTINUOUS
10
152.697
20
-74.582
11
152.744
21
-74.5678
0
LINE
8
BLACK
6
CONTINUOUS
10
152.744
20
-74.5678
11
152.793
21
-74.563
0
LINE
8
BLACK
6
CONTINUOUS
10
152.793
20
-74.563
11
153.543
21
-74.563
0
LINE
8
BLACK
6
CONTINUOUS
10
153.543
20
-74.563
11
153.592
21
-74.5678
0
LINE
8
BLACK
6
CONTINUOUS
10
150.792
20
-74.5678
11
150.839
21
-74.582
0
LINE
8
BLACK
6
CONTINUOUS
10
150.839
20
-74.582
11
150.882
21
-74.6051
0
LINE
8
BLACK
6
CONTINUOUS
10
150.882
20
-74.6051
11
150.92
21
-74.6362
0
LINE
8
BLACK
6
CONTINUOUS
10
150.92
20
-74.6362
11
150.951
21
-74.6741
0
LINE
8
BLACK
6
CONTINUOUS
10
150.951
20
-74.6741
11
150.974
21
-74.7173
0
LINE
8
BLACK
6
CONTINUOUS
10
150.974
20
-74.7173
11
150.988
21
-74.7642
0
LINE
8
BLACK
6
CONTINUOUS
10
150.988
20
-74.7642
11
150.993
21
-74.813
0
LINE
8
BLACK
6
CONTINUOUS
10
150.993
20
-74.813
11
150.993
21
-76.063
0
LINE
8
BLACK
6
CONTINUOUS
10
150.993
20
-76.063
11
150.988
21
-76.1118
0
LINE
8
BLACK
6
CONTINUOUS
10
150.988
20
-76.1118
11
150.974
21
-76.1587
0
LINE
8
BLACK
6
CONTINUOUS
10
150.974
20
-76.1587
11
150.951
21
-76.2019
0
LINE
8
BLACK
6
CONTINUOUS
10
150.951
20
-76.2019
11
150.92
21
-76.2398
0
LINE
8
BLACK
6
CONTINUOUS
10
150.92
20
-76.2398
11
150.882
21
-76.2709
0
LINE
8
BLACK
6
CONTINUOUS
10
150.882
20
-76.2709
11
150.839
21
-76.294
0
LINE
8
BLACK
6
CONTINUOUS
10
150.839
20
-76.294
11
150.792
21
-76.3082
0
LINE
8
BLACK
6
CONTINUOUS
10
150.792
20
-76.3082
11
150.743
21
-76.313
0
LINE
8
BLACK
6
CONTINUOUS
10
150.743
20
-76.313
11
149.993
21
-76.313
0
LINE
8
BLACK
6
CONTINUOUS
10
149.993
20
-76.313
11
149.944
21
-76.3082
0
LINE
8
BLACK
6
CONTINUOUS
10
149.944
20
-76.3082
11
149.897
21
-76.294
0
LINE
8
BLACK
6
CONTINUOUS
10
149.897
20
-76.294
11
149.854
21
-76.2709
0
LINE
8
BLACK
6
CONTINUOUS
10
149.854
20
-76.2709
11
149.816
21
-76.2398
0
LINE
8
BLACK
6
CONTINUOUS
10
149.816
20
-76.2398
11
149.785
21
-76.2019
0
LINE
8
BLACK
6
CONTINUOUS
10
149.785
20
-76.2019
11
149.762
21
-76.1587
0
LINE
8
BLACK
6
CONTINUOUS
10
149.762
20
-76.1587
11
149.748
21
-76.1118
0
LINE
8
BLACK
6
CONTINUOUS
10
149.748
20
-76.1118
11
149.743
21
-76.063
0
LINE
8
BLACK
6
CONTINUOUS
10
149.743
20
-76.063
11
149.743
21
-74.813
0
LINE
8
BLACK
6
CONTINUOUS
10
149.743
20
-74.813
11
149.748
21
-74.7642
0
LINE
8
BLACK
6
CONTINUOUS
10
149.748
20
-74.7642
11
149.762
21
-74.7173
0
LINE
8
BLACK
6
CONTINUOUS
10
149.762
20
-74.7173
11
149.785
21
-74.6741
0
LINE
8
BLACK
6
CONTINUOUS
10
149.785
20
-74.6741
11
149.816
21
-74.6362
0
LINE
8
BLACK
6
CONTINUOUS
10
149.816
20
-74.6362
11
149.854
21
-74.6051
0
LINE
8
BLACK
6
CONTINUOUS
10
149.854
20
-74.6051
11
149.897
21
-74.582
0
LINE
8
BLACK
6
CONTINUOUS
10
149.897
20
-74.582
11
149.944
21
-74.5678
0
LINE
8
BLACK
6
CONTINUOUS
10
149.944
20
-74.5678
11
149.993
21
-74.563
0
LINE
8
BLACK
6
CONTINUOUS
10
149.993
20
-74.563
11
150.743
21
-74.563
0
LINE
8
BLACK
6
CONTINUOUS
10
150.743
20
-74.563
11
150.792
21
-74.5678
0
LINE
8
BLACK
6
CONTINUOUS
10
174.922
20
-74.5678
11
174.969
21
-74.582
0
LINE
8
BLACK
6
CONTINUOUS
10
174.969
20
-74.582
11
175.012
21
-74.6051
0
LINE
8
BLACK
6
CONTINUOUS
10
175.012
20
-74.6051
11
175.05
21
-74.6362
0
LINE
8
BLACK
6
CONTINUOUS
10
175.05
20
-74.6362
11
175.081
21
-74.6741
0
LINE
8
BLACK
6
CONTINUOUS
10
175.081
20
-74.6741
11
175.104
21
-74.7173
0
LINE
8
BLACK
6
CONTINUOUS
10
175.104
20
-74.7173
11
175.118
21
-74.7642
0
LINE
8
BLACK
6
CONTINUOUS
10
175.118
20
-74.7642
11
175.123
21
-74.813
0
LINE
8
BLACK
6
CONTINUOUS
10
175.123
20
-74.813
11
175.123
21
-76.063
0
LINE
8
BLACK
6
CONTINUOUS
10
175.123
20
-76.063
11
175.118
21
-76.1118
0
LINE
8
BLACK
6
CONTINUOUS
10
175.118
20
-76.1118
11
175.104
21
-76.1587
0
LINE
8
BLACK
6
CONTINUOUS
10
175.104
20
-76.1587
11
175.081
21
-76.2019
0
LINE
8
BLACK
6
CONTINUOUS
10
175.081
20
-76.2019
11
175.05
21
-76.2398
0
LINE
8
BLACK
6
CONTINUOUS
10
175.05
20
-76.2398
11
175.012
21
-76.2709
0
LINE
8
BLACK
6
CONTINUOUS
10
175.012
20
-76.2709
11
174.969
21
-76.294
0
LINE
8
BLACK
6
CONTINUOUS
10
174.969
20
-76.294
11
174.922
21
-76.3082
0
LINE
8
BLACK
6
CONTINUOUS
10
174.922
20
-76.3082
11
174.873
21
-76.313
0
LINE
8
BLACK
6
CONTINUOUS
10
174.873
20
-76.313
11
174.123
21
-76.313
0
LINE
8
BLACK
6
CONTINUOUS
10
174.123
20
-76.313
11
174.074
21
-76.3082
0
LINE
8
BLACK
6
CONTINUOUS
10
174.074
20
-76.3082
11
174.027
21
-76.294
0
LINE
8
BLACK
6
CONTINUOUS
10
174.027
20
-76.294
11
173.984
21
-76.2709
0
LINE
8
BLACK
6
CONTINUOUS
10
173.984
20
-76.2709
11
173.946
21
-76.2398
0
LINE
8
BLACK
6
CONTINUOUS
10
173.946
20
-76.2398
11
173.915
21
-76.2019
0
LINE
8
BLACK
6
CONTINUOUS
10
173.915
20
-76.2019
11
173.892
21
-76.1587
0
LINE
8
BLACK
6
CONTINUOUS
10
173.892
20
-76.1587
11
173.878
21
-76.1118
0
LINE
8
BLACK
6
CONTINUOUS
10
173.878
20
-76.1118
11
173.873
21
-76.063
0
LINE
8
BLACK
6
CONTINUOUS
10
173.873
20
-76.063
11
173.873
21
-74.813
0
LINE
8
BLACK
6
CONTINUOUS
10
173.873
20
-74.813
11
173.878
21
-74.7642
0
LINE
8
BLACK
6
CONTINUOUS
10
173.878
20
-74.7642
11
173.892
21
-74.7173
0
LINE
8
BLACK
6
CONTINUOUS
10
173.892
20
-74.7173
11
173.915
21
-74.6741
0
LINE
8
BLACK
6
CONTINUOUS
10
173.915
20
-74.6741
11
173.946
21
-74.6362
0
LINE
8
BLACK
6
CONTINUOUS
10
173.946
20
-74.6362
11
173.984
21
-74.6051
0
LINE
8
BLACK
6
CONTINUOUS
10
173.984
20
-74.6051
11
174.027
21
-74.582
0
LINE
8
BLACK
6
CONTINUOUS
10
174.027
20
-74.582
11
174.074
21
-74.5678
0
LINE
8
BLACK
6
CONTINUOUS
10
174.074
20
-74.5678
11
174.123
21
-74.563
0
LINE
8
BLACK
6
CONTINUOUS
10
174.123
20
-74.563
11
174.873
21
-74.563
0
LINE
8
BLACK
6
CONTINUOUS
10
174.873
20
-74.563
11
174.922
21
-74.5678
0
LINE
8
BLACK
6
CONTINUOUS
10
159.424
20
-73.8018
11
159.471
21
-73.816
0
LINE
8
BLACK
6
CONTINUOUS
10
159.471
20
-73.816
11
159.514
21
-73.8391
0
LINE
8
BLACK
6
CONTINUOUS
10
159.514
20
-73.8391
11
159.552
21
-73.8702
0
LINE
8
BLACK
6
CONTINUOUS
10
159.552
20
-73.8702
11
159.583
21
-73.9081
0
LINE
8
BLACK
6
CONTINUOUS
10
159.583
20
-73.9081
11
159.606
21
-73.9513
0
LINE
8
BLACK
6
CONTINUOUS
10
159.606
20
-73.9513
11
159.62
21
-73.9982
0
LINE
8
BLACK
6
CONTINUOUS
10
159.62
20
-73.9982
11
159.625
21
-74.047
0
LINE
8
BLACK
6
CONTINUOUS
10
159.625
20
-74.047
11
159.625
21
-74.797
0
LINE
8
BLACK
6
CONTINUOUS
10
159.625
20
-74.797
11
159.62
21
-74.8458
0
LINE
8
BLACK
6
CONTINUOUS
10
159.62
20
-74.8458
11
159.606
21
-74.8927
0
LINE
8
BLACK
6
CONTINUOUS
10
159.606
20
-74.8927
11
159.583
21
-74.9359
0
LINE
8
BLACK
6
CONTINUOUS
10
159.583
20
-74.9359
11
159.552
21
-74.9738
0
LINE
8
BLACK
6
CONTINUOUS
10
159.552
20
-74.9738
11
159.514
21
-75.0049
0
LINE
8
BLACK
6
CONTINUOUS
10
159.514
20
-75.0049
11
159.471
21
-75.028
0
LINE
8
BLACK
6
CONTINUOUS
10
159.471
20
-75.028
11
159.424
21
-75.0422
0
LINE
8
BLACK
6
CONTINUOUS
10
159.424
20
-75.0422
11
159.375
21
-75.047
0
LINE
8
BLACK
6
CONTINUOUS
10
159.375
20
-75.047
11
158.125
21
-75.047
0
LINE
8
BLACK
6
CONTINUOUS
10
158.125
20
-75.047
11
158.076
21
-75.0422
0
LINE
8
BLACK
6
CONTINUOUS
10
158.076
20
-75.0422
11
158.029
21
-75.028
0
LINE
8
BLACK
6
CONTINUOUS
10
158.029
20
-75.028
11
157.986
21
-75.0049
0
LINE
8
BLACK
6
CONTINUOUS
10
157.986
20
-75.0049
11
157.948
21
-74.9738
0
LINE
8
BLACK
6
CONTINUOUS
10
157.948
20
-74.9738
11
157.917
21
-74.9359
0
LINE
8
BLACK
6
CONTINUOUS
10
157.917
20
-74.9359
11
157.894
21
-74.8927
0
LINE
8
BLACK
6
CONTINUOUS
10
157.894
20
-74.8927
11
157.88
21
-74.8458
0
LINE
8
BLACK
6
CONTINUOUS
10
157.88
20
-74.8458
11
157.875
21
-74.797
0
LINE
8
BLACK
6
CONTINUOUS
10
157.875
20
-74.797
11
157.875
21
-74.047
0
LINE
8
BLACK
6
CONTINUOUS
10
157.875
20
-74.047
11
157.88
21
-73.9982
0
LINE
8
BLACK
6
CONTINUOUS
10
157.88
20
-73.9982
11
157.894
21
-73.9513
0
LINE
8
BLACK
6
CONTINUOUS
10
157.894
20
-73.9513
11
157.917
21
-73.9081
0
LINE
8
BLACK
6
CONTINUOUS
10
157.917
20
-73.9081
11
157.948
21
-73.8702
0
LINE
8
BLACK
6
CONTINUOUS
10
157.948
20
-73.8702
11
157.986
21
-73.8391
0
LINE
8
BLACK
6
CONTINUOUS
10
157.986
20
-73.8391
11
158.029
21
-73.816
0
LINE
8
BLACK
6
CONTINUOUS
10
158.029
20
-73.816
11
158.076
21
-73.8018
0
LINE
8
BLACK
6
CONTINUOUS
10
158.076
20
-73.8018
11
158.125
21
-73.797
0
LINE
8
BLACK
6
CONTINUOUS
10
158.125
20
-73.797
11
159.375
21
-73.797
0
LINE
8
BLACK
6
CONTINUOUS
10
159.375
20
-73.797
11
159.424
21
-73.8018
0
LINE
8
BLACK
6
CONTINUOUS
10
159.424
20
-71.0018
11
159.471
21
-71.016
0
LINE
8
BLACK
6
CONTINUOUS
10
159.471
20
-71.016
11
159.514
21
-71.0391
0
LINE
8
BLACK
6
CONTINUOUS
10
159.514
20
-71.0391
11
159.552
21
-71.0702
0
LINE
8
BLACK
6
CONTINUOUS
10
159.552
20
-71.0702
11
159.583
21
-71.1081
0
LINE
8
BLACK
6
CONTINUOUS
10
159.583
20
-71.1081
11
159.606
21
-71.1513
0
LINE
8
BLACK
6
CONTINUOUS
10
159.606
20
-71.1513
11
159.62
21
-71.1982
0
LINE
8
BLACK
6
CONTINUOUS
10
159.62
20
-71.1982
11
159.625
21
-71.247
0
LINE
8
BLACK
6
CONTINUOUS
10
159.625
20
-71.247
11
159.625
21
-71.997
0
LINE
8
BLACK
6
CONTINUOUS
10
159.625
20
-71.997
11
159.62
21
-72.0458
0
LINE
8
BLACK
6
CONTINUOUS
10
159.62
20
-72.0458
11
159.606
21
-72.0927
0
LINE
8
BLACK
6
CONTINUOUS
10
159.606
20
-72.0927
11
159.583
21
-72.1359
0
LINE
8
BLACK
6
CONTINUOUS
10
159.583
20
-72.1359
11
159.552
21
-72.1738
0
LINE
8
BLACK
6
CONTINUOUS
10
159.552
20
-72.1738
11
159.514
21
-72.2049
0
LINE
8
BLACK
6
CONTINUOUS
10
159.514
20
-72.2049
11
159.471
21
-72.228
0
LINE
8
BLACK
6
CONTINUOUS
10
159.471
20
-72.228
11
159.424
21
-72.2422
0
LINE
8
BLACK
6
CONTINUOUS
10
159.424
20
-72.2422
11
159.375
21
-72.247
0
LINE
8
BLACK
6
CONTINUOUS
10
159.375
20
-72.247
11
158.125
21
-72.247
0
LINE
8
BLACK
6
CONTINUOUS
10
158.125
20
-72.247
11
158.076
21
-72.2422
0
LINE
8
BLACK
6
CONTINUOUS
10
158.076
20
-72.2422
11
158.029
21
-72.228
0
LINE
8
BLACK
6
CONTINUOUS
10
158.029
20
-72.228
11
157.986
21
-72.2049
0
LINE
8
BLACK
6
CONTINUOUS
10
157.986
20
-72.2049
11
157.948
21
-72.1738
0
LINE
8
BLACK
6
CONTINUOUS
10
157.948
20
-72.1738
11
157.917
21
-72.1359
0
LINE
8
BLACK
6
CONTINUOUS
10
157.917
20
-72.1359
11
157.894
21
-72.0927
0
LINE
8
BLACK
6
CONTINUOUS
10
157.894
20
-72.0927
11
157.88
21
-72.0458
0
LINE
8
BLACK
6
CONTINUOUS
10
157.88
20
-72.0458
11
157.875
21
-71.997
0
LINE
8
BLACK
6
CONTINUOUS
10
157.875
20
-71.997
11
157.875
21
-71.247
0
LINE
8
BLACK
6
CONTINUOUS
10
157.875
20
-71.247
11
157.88
21
-71.1982
0
LINE
8
BLACK
6
CONTINUOUS
10
157.88
20
-71.1982
11
157.894
21
-71.1513
0
LINE
8
BLACK
6
CONTINUOUS
10
157.894
20
-71.1513
11
157.917
21
-71.1081
0
LINE
8
BLACK
6
CONTINUOUS
10
157.917
20
-71.1081
11
157.948
21
-71.0702
0
LINE
8
BLACK
6
CONTINUOUS
10
157.948
20
-71.0702
11
157.986
21
-71.0391
0
LINE
8
BLACK
6
CONTINUOUS
10
157.986
20
-71.0391
11
158.029
21
-71.016
0
LINE
8
BLACK
6
CONTINUOUS
10
158.029
20
-71.016
11
158.076
21
-71.0018
0
LINE
8
BLACK
6
CONTINUOUS
10
158.076
20
-71.0018
11
158.125
21
-70.997
0
LINE
8
BLACK
6
CONTINUOUS
10
158.125
20
-70.997
11
159.375
21
-70.997
0
LINE
8
BLACK
6
CONTINUOUS
10
159.375
20
-70.997
11
159.424
21
-71.0018
  0
ENDSEC
  0
EOF
