  0
SECTION
  2
HEADER
  9
$ANGBASE
  50
0.0
  9
$ANGDIR
  70
1
  9
$MEASUREMENT
  70
1
  0
ENDSEC
  0
SECTION
  2
TABLES
  0
TABLE
  2
LTYPE
  70
4
  0
LTYPE
  5
40F
  2
CONTINUOUS
  70
0
  3
Solid line
  72
65
  73
0
  40
0.0
  0
LTYPE
  5
410
  2
DASHDOT
 70
0
  3
Dash Dot ____ _ ____ _
 72
65
 73
4
 40
2.0
 49
1.25
 49
-0.25
 49
0.25
 49
-0.25
  0
LTYPE
  5
411
  2
DASHED
 70
0
  3
Dashed __ __ __ __ __
 72
65
 73
2
 40
0.75
 49
0.5
 49
-0.25
  0
LTYPE
  5
43B
  2
DOTTED
 70
0
  3
Dotted .  .  .  .
 72
65
 73
2
 40
0.2
 49
0.0
 49
-0.2
  0
ENDTAB
  0
TABLE
  2
STYLE
  70
4
  0
STYLE
  2
KICAD
  70
0
  40
0
  41
1
  42
1
  50
0
  71
0
  3
isocp.shx
  0
STYLE
  2
KICADB
  70
0
  40
0
  41
1
  42
1
  50
0
  71
0
  3
isocp.shx
  0
STYLE
  2
KICADI
  70
0
  40
0
  41
1
  42
1
  50
15
  71
0
  3
isocp.shx
  0
STYLE
  2
KICADBI
  70
0
  40
0
  41
1
  42
1
  50
15
  71
0
  3
isocp.shx
  0
ENDTAB
  0
TABLE
  2
LAYER
  70
1
  0
LAYER
  2
BLACK
  70
0
  62
7
  6
CONTINUOUS
  0
ENDTAB
  0
ENDSEC
  0
SECTION
  2
ENTITIES
0
LINE
8
BLACK
6
CONTINUOUS
10
124.592
20
-119.565
11
124.592
21
-119.565
0
LINE
8
BLACK
6
CONTINUOUS
10
124.592
20
-119.565
11
124.009
21
-119.508
0
LINE
8
BLACK
6
CONTINUOUS
10
124.009
20
-119.508
11
124.009
21
-119.508
0
LINE
8
BLACK
6
CONTINUOUS
10
124.009
20
-119.508
11
124.006
21
-119.507
0
LINE
8
BLACK
6
CONTINUOUS
10
124.006
20
-119.507
11
124.004
21
-119.507
0
LINE
8
BLACK
6
CONTINUOUS
10
124.004
20
-119.507
11
123.444
21
-119.338
0
LINE
8
BLACK
6
CONTINUOUS
10
123.444
20
-119.338
11
123.443
21
-119.337
0
LINE
8
BLACK
6
CONTINUOUS
10
123.443
20
-119.337
11
123.441
21
-119.337
0
LINE
8
BLACK
6
CONTINUOUS
10
123.441
20
-119.337
11
123.439
21
-119.336
0
LINE
8
BLACK
6
CONTINUOUS
10
123.439
20
-119.336
11
122.922
21
-119.061
0
LINE
8
BLACK
6
CONTINUOUS
10
122.922
20
-119.061
11
122.922
21
-119.061
0
LINE
8
BLACK
6
CONTINUOUS
10
122.922
20
-119.061
11
122.92
21
-119.059
0
LINE
8
BLACK
6
CONTINUOUS
10
122.92
20
-119.059
11
122.918
21
-119.058
0
LINE
8
BLACK
6
CONTINUOUS
10
122.918
20
-119.058
11
122.464
21
-118.688
0
LINE
8
BLACK
6
CONTINUOUS
10
122.464
20
-118.688
11
122.464
21
-118.688
0
LINE
8
BLACK
6
CONTINUOUS
10
122.464
20
-118.688
11
122.462
21
-118.686
0
LINE
8
BLACK
6
CONTINUOUS
10
122.462
20
-118.686
11
122.461
21
-118.685
0
LINE
8
BLACK
6
CONTINUOUS
10
122.461
20
-118.685
11
122.088
21
-118.234
0
LINE
8
BLACK
6
CONTINUOUS
10
122.088
20
-118.234
11
122.087
21
-118.233
0
LINE
8
BLACK
6
CONTINUOUS
10
122.087
20
-118.233
11
122.086
21
-118.231
0
LINE
8
BLACK
6
CONTINUOUS
10
122.086
20
-118.231
11
122.085
21
-118.229
0
LINE
8
BLACK
6
CONTINUOUS
10
122.085
20
-118.229
11
121.806
21
-117.714
0
LINE
8
BLACK
6
CONTINUOUS
10
121.806
20
-117.714
11
121.806
21
-117.714
0
LINE
8
BLACK
6
CONTINUOUS
10
121.806
20
-117.714
11
121.805
21
-117.712
0
LINE
8
BLACK
6
CONTINUOUS
10
121.805
20
-117.712
11
121.805
21
-117.71
0
LINE
8
BLACK
6
CONTINUOUS
10
121.805
20
-117.71
11
121.631
21
-117.151
0
LINE
8
BLACK
6
CONTINUOUS
10
121.631
20
-117.151
11
121.631
21
-117.15
0
LINE
8
BLACK
6
CONTINUOUS
10
121.631
20
-117.15
11
121.631
21
-117.148
0
LINE
8
BLACK
6
CONTINUOUS
10
121.631
20
-117.148
11
121.63
21
-117.146
0
LINE
8
BLACK
6
CONTINUOUS
10
121.63
20
-117.146
11
121.569
21
-116.564
0
LINE
8
BLACK
6
CONTINUOUS
10
121.569
20
-116.564
11
121.569
21
-116.563
0
LINE
8
BLACK
6
CONTINUOUS
10
121.569
20
-116.563
11
121.569
21
-116.562
0
LINE
8
BLACK
6
CONTINUOUS
10
121.569
20
-116.562
11
121.569
21
-116.561
0
LINE
8
BLACK
6
CONTINUOUS
10
121.569
20
-116.561
11
121.569
21
-116.541
0
LINE
8
BLACK
6
CONTINUOUS
10
121.569
20
-116.541
11
121.569
21
-116.541
0
LINE
8
BLACK
6
CONTINUOUS
10
121.569
20
-116.541
11
121.569
21
-66.5388
0
LINE
8
BLACK
6
CONTINUOUS
10
121.569
20
-66.5388
11
121.569
21
-66.5376
0
LINE
8
BLACK
6
CONTINUOUS
10
121.569
20
-66.5376
11
121.569
21
-66.5376
0
LINE
8
BLACK
6
CONTINUOUS
10
121.569
20
-66.5376
11
121.626
21
-65.9549
0
LINE
8
BLACK
6
CONTINUOUS
10
121.626
20
-65.9549
11
121.626
21
-65.9545
0
LINE
8
BLACK
6
CONTINUOUS
10
121.626
20
-65.9545
11
121.627
21
-65.9523
0
LINE
8
BLACK
6
CONTINUOUS
10
121.627
20
-65.9523
11
121.627
21
-65.9501
0
LINE
8
BLACK
6
CONTINUOUS
10
121.627
20
-65.9501
11
121.796
21
-65.3896
0
LINE
8
BLACK
6
CONTINUOUS
10
121.796
20
-65.3896
11
121.797
21
-65.3892
0
LINE
8
BLACK
6
CONTINUOUS
10
121.797
20
-65.3892
11
121.797
21
-65.3871
0
LINE
8
BLACK
6
CONTINUOUS
10
121.797
20
-65.3871
11
121.798
21
-65.3851
0
LINE
8
BLACK
6
CONTINUOUS
10
121.798
20
-65.3851
11
122.073
21
-64.8681
0
LINE
8
BLACK
6
CONTINUOUS
10
122.073
20
-64.8681
11
122.073
21
-64.8678
0
LINE
8
BLACK
6
CONTINUOUS
10
122.073
20
-64.8678
11
122.075
21
-64.8659
0
LINE
8
BLACK
6
CONTINUOUS
10
122.075
20
-64.8659
11
122.076
21
-64.864
0
LINE
8
BLACK
6
CONTINUOUS
10
122.076
20
-64.864
11
122.446
21
-64.4103
0
LINE
8
BLACK
6
CONTINUOUS
10
122.446
20
-64.4103
11
122.446
21
-64.4103
0
LINE
8
BLACK
6
CONTINUOUS
10
122.446
20
-64.4103
11
122.446
21
-64.4103
0
LINE
8
BLACK
6
CONTINUOUS
10
122.446
20
-64.4103
11
122.446
21
-64.41
0
LINE
8
BLACK
6
CONTINUOUS
10
122.446
20
-64.41
11
122.448
21
-64.4085
0
LINE
8
BLACK
6
CONTINUOUS
10
122.448
20
-64.4085
11
122.449
21
-64.4068
0
LINE
8
BLACK
6
CONTINUOUS
10
122.449
20
-64.4068
11
122.9
21
-64.0336
0
LINE
8
BLACK
6
CONTINUOUS
10
122.9
20
-64.0336
11
122.901
21
-64.0334
0
LINE
8
BLACK
6
CONTINUOUS
10
122.901
20
-64.0334
11
122.903
21
-64.0322
0
LINE
8
BLACK
6
CONTINUOUS
10
122.903
20
-64.0322
11
122.905
21
-64.0309
0
LINE
8
BLACK
6
CONTINUOUS
10
122.905
20
-64.0309
11
123.42
21
-63.7524
0
LINE
8
BLACK
6
CONTINUOUS
10
123.42
20
-63.7524
11
123.42
21
-63.7523
0
LINE
8
BLACK
6
CONTINUOUS
10
123.42
20
-63.7523
11
123.422
21
-63.7514
0
LINE
8
BLACK
6
CONTINUOUS
10
123.422
20
-63.7514
11
123.424
21
-63.7505
0
LINE
8
BLACK
6
CONTINUOUS
10
123.424
20
-63.7505
11
123.983
21
-63.5774
0
LINE
8
BLACK
6
CONTINUOUS
10
123.983
20
-63.5774
11
123.983
21
-63.5774
0
LINE
8
BLACK
6
CONTINUOUS
10
123.983
20
-63.5774
11
123.984
21
-63.5773
0
LINE
8
BLACK
6
CONTINUOUS
10
123.984
20
-63.5773
11
123.986
21
-63.5769
0
LINE
8
BLACK
6
CONTINUOUS
10
123.986
20
-63.5769
11
123.988
21
-63.5764
0
LINE
8
BLACK
6
CONTINUOUS
10
123.988
20
-63.5764
11
124.57
21
-63.5152
0
LINE
8
BLACK
6
CONTINUOUS
10
124.57
20
-63.5152
11
124.571
21
-63.5152
0
LINE
8
BLACK
6
CONTINUOUS
10
124.571
20
-63.5152
11
124.572
21
-63.5152
0
LINE
8
BLACK
6
CONTINUOUS
10
124.572
20
-63.5152
11
124.573
21
-63.5151
0
LINE
8
BLACK
6
CONTINUOUS
10
124.573
20
-63.5151
11
124.593
21
-63.515
0
LINE
8
BLACK
6
CONTINUOUS
10
124.593
20
-63.515
11
124.593
21
-63.515
0
LINE
8
BLACK
6
CONTINUOUS
10
124.593
20
-63.515
11
183.595
21
-63.515
0
LINE
8
BLACK
6
CONTINUOUS
10
183.595
20
-63.515
11
183.596
21
-63.5151
0
LINE
8
BLACK
6
CONTINUOUS
10
183.596
20
-63.5151
11
183.596
21
-63.5151
0
LINE
8
BLACK
6
CONTINUOUS
10
183.596
20
-63.5151
11
184.179
21
-63.5723
0
LINE
8
BLACK
6
CONTINUOUS
10
184.179
20
-63.5723
11
184.179
21
-63.5723
0
LINE
8
BLACK
6
CONTINUOUS
10
184.179
20
-63.5723
11
184.182
21
-63.5728
0
LINE
8
BLACK
6
CONTINUOUS
10
184.182
20
-63.5728
11
184.184
21
-63.5732
0
LINE
8
BLACK
6
CONTINUOUS
10
184.184
20
-63.5732
11
184.744
21
-63.7424
0
LINE
8
BLACK
6
CONTINUOUS
10
184.744
20
-63.7424
11
184.745
21
-63.7425
0
LINE
8
BLACK
6
CONTINUOUS
10
184.745
20
-63.7425
11
184.747
21
-63.7434
0
LINE
8
BLACK
6
CONTINUOUS
10
184.747
20
-63.7434
11
184.749
21
-63.7443
0
LINE
8
BLACK
6
CONTINUOUS
10
184.749
20
-63.7443
11
185.266
21
-64.0192
0
LINE
8
BLACK
6
CONTINUOUS
10
185.266
20
-64.0192
11
185.266
21
-64.0193
0
LINE
8
BLACK
6
CONTINUOUS
10
185.266
20
-64.0193
11
185.268
21
-64.0206
0
LINE
8
BLACK
6
CONTINUOUS
10
185.268
20
-64.0206
11
185.27
21
-64.0219
0
LINE
8
BLACK
6
CONTINUOUS
10
185.27
20
-64.0219
11
185.724
21
-64.3919
0
LINE
8
BLACK
6
CONTINUOUS
10
185.724
20
-64.3919
11
185.724
21
-64.3919
0
LINE
8
BLACK
6
CONTINUOUS
10
185.724
20
-64.3919
11
185.724
21
-64.3919
0
LINE
8
BLACK
6
CONTINUOUS
10
185.724
20
-64.3919
11
185.724
21
-64.3921
0
LINE
8
BLACK
6
CONTINUOUS
10
185.724
20
-64.3921
11
185.726
21
-64.3937
0
LINE
8
BLACK
6
CONTINUOUS
10
185.726
20
-64.3937
11
185.727
21
-64.3954
0
LINE
8
BLACK
6
CONTINUOUS
10
185.727
20
-64.3954
11
186.1
21
-64.8465
0
LINE
8
BLACK
6
CONTINUOUS
10
186.1
20
-64.8465
11
186.101
21
-64.8468
0
LINE
8
BLACK
6
CONTINUOUS
10
186.101
20
-64.8468
11
186.102
21
-64.8486
0
LINE
8
BLACK
6
CONTINUOUS
10
186.102
20
-64.8486
11
186.103
21
-64.8505
0
LINE
8
BLACK
6
CONTINUOUS
10
186.103
20
-64.8505
11
186.382
21
-65.3656
0
LINE
8
BLACK
6
CONTINUOUS
10
186.382
20
-65.3656
11
186.382
21
-65.3659
0
LINE
8
BLACK
6
CONTINUOUS
10
186.382
20
-65.3659
11
186.383
21
-65.368
0
LINE
8
BLACK
6
CONTINUOUS
10
186.383
20
-65.368
11
186.383
21
-65.3701
0
LINE
8
BLACK
6
CONTINUOUS
10
186.383
20
-65.3701
11
186.557
21
-65.9294
0
LINE
8
BLACK
6
CONTINUOUS
10
186.557
20
-65.9294
11
186.557
21
-65.9297
0
LINE
8
BLACK
6
CONTINUOUS
10
186.557
20
-65.9297
11
186.557
21
-65.932
0
LINE
8
BLACK
6
CONTINUOUS
10
186.557
20
-65.932
11
186.558
21
-65.9342
0
LINE
8
BLACK
6
CONTINUOUS
10
186.558
20
-65.9342
11
186.619
21
-66.5164
0
LINE
8
BLACK
6
CONTINUOUS
10
186.619
20
-66.5164
11
186.619
21
-66.5168
0
LINE
8
BLACK
6
CONTINUOUS
10
186.619
20
-66.5168
11
186.619
21
-66.5179
0
LINE
8
BLACK
6
CONTINUOUS
10
186.619
20
-66.5179
11
186.619
21
-66.519
0
LINE
8
BLACK
6
CONTINUOUS
10
186.619
20
-66.519
11
186.619
21
-66.5387
0
LINE
8
BLACK
6
CONTINUOUS
10
186.619
20
-66.5387
11
186.619
21
-66.5388
0
LINE
8
BLACK
6
CONTINUOUS
10
186.619
20
-66.5388
11
186.619
21
-116.541
0
LINE
8
BLACK
6
CONTINUOUS
10
186.619
20
-116.541
11
186.619
21
-116.542
0
LINE
8
BLACK
6
CONTINUOUS
10
186.619
20
-116.542
11
186.619
21
-116.542
0
LINE
8
BLACK
6
CONTINUOUS
10
186.619
20
-116.542
11
186.562
21
-117.125
0
LINE
8
BLACK
6
CONTINUOUS
10
186.562
20
-117.125
11
186.562
21
-117.125
0
LINE
8
BLACK
6
CONTINUOUS
10
186.562
20
-117.125
11
186.561
21
-117.128
0
LINE
8
BLACK
6
CONTINUOUS
10
186.561
20
-117.128
11
186.561
21
-117.13
0
LINE
8
BLACK
6
CONTINUOUS
10
186.561
20
-117.13
11
186.392
21
-117.69
0
LINE
8
BLACK
6
CONTINUOUS
10
186.392
20
-117.69
11
186.391
21
-117.691
0
LINE
8
BLACK
6
CONTINUOUS
10
186.391
20
-117.691
11
186.391
21
-117.693
0
LINE
8
BLACK
6
CONTINUOUS
10
186.391
20
-117.693
11
186.39
21
-117.695
0
LINE
8
BLACK
6
CONTINUOUS
10
186.39
20
-117.695
11
186.115
21
-118.212
0
LINE
8
BLACK
6
CONTINUOUS
10
186.115
20
-118.212
11
186.115
21
-118.212
0
LINE
8
BLACK
6
CONTINUOUS
10
186.115
20
-118.212
11
186.113
21
-118.214
0
LINE
8
BLACK
6
CONTINUOUS
10
186.113
20
-118.214
11
186.112
21
-118.216
0
LINE
8
BLACK
6
CONTINUOUS
10
186.112
20
-118.216
11
185.742
21
-118.67
0
LINE
8
BLACK
6
CONTINUOUS
10
185.742
20
-118.67
11
185.742
21
-118.67
0
LINE
8
BLACK
6
CONTINUOUS
10
185.742
20
-118.67
11
185.74
21
-118.672
0
LINE
8
BLACK
6
CONTINUOUS
10
185.74
20
-118.672
11
185.739
21
-118.673
0
LINE
8
BLACK
6
CONTINUOUS
10
185.739
20
-118.673
11
185.288
21
-119.046
0
LINE
8
BLACK
6
CONTINUOUS
10
185.288
20
-119.046
11
185.287
21
-119.047
0
LINE
8
BLACK
6
CONTINUOUS
10
185.287
20
-119.047
11
185.285
21
-119.048
0
LINE
8
BLACK
6
CONTINUOUS
10
185.285
20
-119.048
11
185.283
21
-119.049
0
LINE
8
BLACK
6
CONTINUOUS
10
185.283
20
-119.049
11
184.768
21
-119.328
0
LINE
8
BLACK
6
CONTINUOUS
10
184.768
20
-119.328
11
184.768
21
-119.328
0
LINE
8
BLACK
6
CONTINUOUS
10
184.768
20
-119.328
11
184.766
21
-119.329
0
LINE
8
BLACK
6
CONTINUOUS
10
184.766
20
-119.329
11
184.764
21
-119.329
0
LINE
8
BLACK
6
CONTINUOUS
10
184.764
20
-119.329
11
184.205
21
-119.503
0
LINE
8
BLACK
6
CONTINUOUS
10
184.205
20
-119.503
11
184.204
21
-119.503
0
LINE
8
BLACK
6
CONTINUOUS
10
184.204
20
-119.503
11
184.202
21
-119.503
0
LINE
8
BLACK
6
CONTINUOUS
10
184.202
20
-119.503
11
184.2
21
-119.504
0
LINE
8
BLACK
6
CONTINUOUS
10
184.2
20
-119.504
11
183.618
21
-119.565
0
LINE
8
BLACK
6
CONTINUOUS
10
183.618
20
-119.565
11
183.617
21
-119.565
0
LINE
8
BLACK
6
CONTINUOUS
10
183.617
20
-119.565
11
183.616
21
-119.565
0
LINE
8
BLACK
6
CONTINUOUS
10
183.616
20
-119.565
11
183.615
21
-119.565
0
LINE
8
BLACK
6
CONTINUOUS
10
183.615
20
-119.565
11
183.595
21
-119.565
0
LINE
8
BLACK
6
CONTINUOUS
10
183.595
20
-119.565
11
183.595
21
-119.565
0
LINE
8
BLACK
6
CONTINUOUS
10
183.595
20
-119.565
11
124.593
21
-119.565
0
LINE
8
BLACK
6
CONTINUOUS
10
124.593
20
-119.565
11
124.592
21
-119.565
0
LINE
8
BLACK
6
CONTINUOUS
10
183.614
20
-119.515
11
184.192
21
-119.454
0
LINE
8
BLACK
6
CONTINUOUS
10
184.192
20
-119.454
11
184.747
21
-119.282
0
LINE
8
BLACK
6
CONTINUOUS
10
184.747
20
-119.282
11
185.258
21
-119.006
0
LINE
8
BLACK
6
CONTINUOUS
10
185.258
20
-119.006
11
185.705
21
-118.636
0
LINE
8
BLACK
6
CONTINUOUS
10
185.705
20
-118.636
11
186.072
21
-118.186
0
LINE
8
BLACK
6
CONTINUOUS
10
186.072
20
-118.186
11
186.344
21
-117.674
0
LINE
8
BLACK
6
CONTINUOUS
10
186.344
20
-117.674
11
186.512
21
-117.118
0
LINE
8
BLACK
6
CONTINUOUS
10
186.512
20
-117.118
11
186.569
21
-116.539
0
LINE
8
BLACK
6
CONTINUOUS
10
186.569
20
-116.539
11
186.569
21
-66.5401
0
LINE
8
BLACK
6
CONTINUOUS
10
186.569
20
-66.5401
11
186.569
21
-66.5204
0
LINE
8
BLACK
6
CONTINUOUS
10
186.569
20
-66.5204
11
186.508
21
-65.9418
0
LINE
8
BLACK
6
CONTINUOUS
10
186.508
20
-65.9418
11
186.336
21
-65.3872
0
LINE
8
BLACK
6
CONTINUOUS
10
186.336
20
-65.3872
11
186.06
21
-64.8765
0
LINE
8
BLACK
6
CONTINUOUS
10
186.06
20
-64.8765
11
185.69
21
-64.4291
0
LINE
8
BLACK
6
CONTINUOUS
10
185.69
20
-64.4291
11
185.24
21
-64.0622
0
LINE
8
BLACK
6
CONTINUOUS
10
185.24
20
-64.0622
11
184.728
21
-63.7896
0
LINE
8
BLACK
6
CONTINUOUS
10
184.728
20
-63.7896
11
184.172
21
-63.6218
0
LINE
8
BLACK
6
CONTINUOUS
10
184.172
20
-63.6218
11
183.593
21
-63.565
0
LINE
8
BLACK
6
CONTINUOUS
10
183.593
20
-63.565
11
124.594
21
-63.565
0
LINE
8
BLACK
6
CONTINUOUS
10
124.594
20
-63.565
11
124.574
21
-63.5651
0
LINE
8
BLACK
6
CONTINUOUS
10
124.574
20
-63.5651
11
123.996
21
-63.6259
0
LINE
8
BLACK
6
CONTINUOUS
10
123.996
20
-63.6259
11
123.441
21
-63.7976
0
LINE
8
BLACK
6
CONTINUOUS
10
123.441
20
-63.7976
11
122.93
21
-64.0737
0
LINE
8
BLACK
6
CONTINUOUS
10
122.93
20
-64.0737
11
122.483
21
-64.4438
0
LINE
8
BLACK
6
CONTINUOUS
10
122.483
20
-64.4438
11
122.116
21
-64.8937
0
LINE
8
BLACK
6
CONTINUOUS
10
122.116
20
-64.8937
11
121.844
21
-65.4064
0
LINE
8
BLACK
6
CONTINUOUS
10
121.844
20
-65.4064
11
121.676
21
-65.9622
0
LINE
8
BLACK
6
CONTINUOUS
10
121.676
20
-65.9622
11
121.619
21
-66.5412
0
LINE
8
BLACK
6
CONTINUOUS
10
121.619
20
-66.5412
11
121.619
21
-116.54
0
LINE
8
BLACK
6
CONTINUOUS
10
121.619
20
-116.54
11
121.619
21
-116.56
0
LINE
8
BLACK
6
CONTINUOUS
10
121.619
20
-116.56
11
121.68
21
-117.138
0
LINE
8
BLACK
6
CONTINUOUS
10
121.68
20
-117.138
11
121.852
21
-117.693
0
LINE
8
BLACK
6
CONTINUOUS
10
121.852
20
-117.693
11
122.128
21
-118.204
0
LINE
8
BLACK
6
CONTINUOUS
10
122.128
20
-118.204
11
122.498
21
-118.651
0
LINE
8
BLACK
6
CONTINUOUS
10
122.498
20
-118.651
11
122.948
21
-119.018
0
LINE
8
BLACK
6
CONTINUOUS
10
122.948
20
-119.018
11
123.46
21
-119.29
0
LINE
8
BLACK
6
CONTINUOUS
10
123.46
20
-119.29
11
124.016
21
-119.458
0
LINE
8
BLACK
6
CONTINUOUS
10
124.016
20
-119.458
11
124.595
21
-119.515
0
LINE
8
BLACK
6
CONTINUOUS
10
124.595
20
-119.515
11
183.594
21
-119.515
0
LINE
8
BLACK
6
CONTINUOUS
10
183.594
20
-119.515
11
183.614
21
-119.515
  0
ENDSEC
  0
EOF
