  0
SECTION
  2
HEADER
  9
$ANGBASE
  50
0.0
  9
$ANGDIR
  70
1
  9
$MEASUREMENT
  70
0
  0
ENDSEC
  0
SECTION
  2
TABLES
  0
TABLE
  2
LTYPE
  70
4
  0
LTYPE
  5
40F
  2
CONTINUOUS
  70
0
  3
Solid line
  72
65
  73
0
  40
0.0
  0
LTYPE
  5
410
  2
DASHDOT
 70
0
  3
Dash Dot ____ _ ____ _
 72
65
 73
4
 40
2.0
 49
1.25
 49
-0.25
 49
0.25
 49
-0.25
  0
LTYPE
  5
411
  2
DASHED
 70
0
  3
Dashed __ __ __ __ __
 72
65
 73
2
 40
0.75
 49
0.5
 49
-0.25
  0
LTYPE
  5
43B
  2
DOTTED
 70
0
  3
Dotted .  .  .  .
 72
65
 73
2
 40
0.2
 49
0.0
 49
-0.2
  0
ENDTAB
  0
TABLE
  2
STYLE
  70
4
  0
STYLE
  2
KICAD
  70
0
  40
0
  41
1
  42
1
  50
0
  71
0
  3
isocp.shx
  0
STYLE
  2
KICADB
  70
0
  40
0
  41
1
  42
1
  50
0
  71
0
  3
isocp.shx
  0
STYLE
  2
KICADI
  70
0
  40
0
  41
1
  42
1
  50
15
  71
0
  3
isocp.shx
  0
STYLE
  2
KICADBI
  70
0
  40
0
  41
1
  42
1
  50
15
  71
0
  3
isocp.shx
  0
ENDTAB
  0
TABLE
  2
LAYER
  70
1
  0
LAYER
  2
BLACK
  70
0
  62
7
  6
CONTINUOUS
  0
ENDTAB
  0
ENDSEC
  0
SECTION
  2
ENTITIES
0
LINE
8
BLACK
6
CONTINUOUS
10
5.49206
20
-4.33417
11
5.49317
21
-4.3345
0
LINE
8
BLACK
6
CONTINUOUS
10
5.49317
20
-4.3345
11
5.49419
21
-4.33505
0
LINE
8
BLACK
6
CONTINUOUS
10
5.49419
20
-4.33505
11
5.49508
21
-4.33578
0
LINE
8
BLACK
6
CONTINUOUS
10
5.49508
20
-4.33578
11
5.49582
21
-4.33668
0
LINE
8
BLACK
6
CONTINUOUS
10
5.49582
20
-4.33668
11
5.49636
21
-4.3377
0
LINE
8
BLACK
6
CONTINUOUS
10
5.49636
20
-4.3377
11
5.4967
21
-4.33881
0
LINE
8
BLACK
6
CONTINUOUS
10
5.4967
20
-4.33881
11
5.49681
21
-4.33996
0
LINE
8
BLACK
6
CONTINUOUS
10
5.49681
20
-4.33996
11
5.49681
21
-4.40492
0
LINE
8
BLACK
6
CONTINUOUS
10
5.49681
20
-4.40492
11
5.4967
21
-4.40607
0
LINE
8
BLACK
6
CONTINUOUS
10
5.4967
20
-4.40607
11
5.49636
21
-4.40718
0
LINE
8
BLACK
6
CONTINUOUS
10
5.49636
20
-4.40718
11
5.49582
21
-4.4082
0
LINE
8
BLACK
6
CONTINUOUS
10
5.49582
20
-4.4082
11
5.49508
21
-4.4091
0
LINE
8
BLACK
6
CONTINUOUS
10
5.49508
20
-4.4091
11
5.49419
21
-4.40983
0
LINE
8
BLACK
6
CONTINUOUS
10
5.49419
20
-4.40983
11
5.49317
21
-4.41038
0
LINE
8
BLACK
6
CONTINUOUS
10
5.49317
20
-4.41038
11
5.49206
21
-4.41071
0
LINE
8
BLACK
6
CONTINUOUS
10
5.49206
20
-4.41071
11
5.49091
21
-4.41083
0
LINE
8
BLACK
6
CONTINUOUS
10
5.49091
20
-4.41083
11
5.47909
21
-4.41083
0
LINE
8
BLACK
6
CONTINUOUS
10
5.47909
20
-4.41083
11
5.47794
21
-4.41071
0
LINE
8
BLACK
6
CONTINUOUS
10
5.47794
20
-4.41071
11
5.47683
21
-4.41038
0
LINE
8
BLACK
6
CONTINUOUS
10
5.47683
20
-4.41038
11
5.47581
21
-4.40983
0
LINE
8
BLACK
6
CONTINUOUS
10
5.47581
20
-4.40983
11
5.47492
21
-4.4091
0
LINE
8
BLACK
6
CONTINUOUS
10
5.47492
20
-4.4091
11
5.47418
21
-4.4082
0
LINE
8
BLACK
6
CONTINUOUS
10
5.47418
20
-4.4082
11
5.47364
21
-4.40718
0
LINE
8
BLACK
6
CONTINUOUS
10
5.47364
20
-4.40718
11
5.4733
21
-4.40607
0
LINE
8
BLACK
6
CONTINUOUS
10
5.4733
20
-4.40607
11
5.47319
21
-4.40492
0
LINE
8
BLACK
6
CONTINUOUS
10
5.47319
20
-4.40492
11
5.47319
21
-4.33996
0
LINE
8
BLACK
6
CONTINUOUS
10
5.47319
20
-4.33996
11
5.4733
21
-4.33881
0
LINE
8
BLACK
6
CONTINUOUS
10
5.4733
20
-4.33881
11
5.47364
21
-4.3377
0
LINE
8
BLACK
6
CONTINUOUS
10
5.47364
20
-4.3377
11
5.47418
21
-4.33668
0
LINE
8
BLACK
6
CONTINUOUS
10
5.47418
20
-4.33668
11
5.47492
21
-4.33578
0
LINE
8
BLACK
6
CONTINUOUS
10
5.47492
20
-4.33578
11
5.47581
21
-4.33505
0
LINE
8
BLACK
6
CONTINUOUS
10
5.47581
20
-4.33505
11
5.47683
21
-4.3345
0
LINE
8
BLACK
6
CONTINUOUS
10
5.47683
20
-4.3345
11
5.47794
21
-4.33417
0
LINE
8
BLACK
6
CONTINUOUS
10
5.47794
20
-4.33417
11
5.47909
21
-4.33406
0
LINE
8
BLACK
6
CONTINUOUS
10
5.47909
20
-4.33406
11
5.49091
21
-4.33406
0
LINE
8
BLACK
6
CONTINUOUS
10
5.49091
20
-4.33406
11
5.49206
21
-4.33417
0
LINE
8
BLACK
6
CONTINUOUS
10
5.14206
20
-4.33417
11
5.14317
21
-4.3345
0
LINE
8
BLACK
6
CONTINUOUS
10
5.14317
20
-4.3345
11
5.14419
21
-4.33505
0
LINE
8
BLACK
6
CONTINUOUS
10
5.14419
20
-4.33505
11
5.14508
21
-4.33578
0
LINE
8
BLACK
6
CONTINUOUS
10
5.14508
20
-4.33578
11
5.14582
21
-4.33668
0
LINE
8
BLACK
6
CONTINUOUS
10
5.14582
20
-4.33668
11
5.14636
21
-4.3377
0
LINE
8
BLACK
6
CONTINUOUS
10
5.14636
20
-4.3377
11
5.1467
21
-4.33881
0
LINE
8
BLACK
6
CONTINUOUS
10
5.1467
20
-4.33881
11
5.14681
21
-4.33996
0
LINE
8
BLACK
6
CONTINUOUS
10
5.14681
20
-4.33996
11
5.14681
21
-4.40492
0
LINE
8
BLACK
6
CONTINUOUS
10
5.14681
20
-4.40492
11
5.1467
21
-4.40607
0
LINE
8
BLACK
6
CONTINUOUS
10
5.1467
20
-4.40607
11
5.14636
21
-4.40718
0
LINE
8
BLACK
6
CONTINUOUS
10
5.14636
20
-4.40718
11
5.14582
21
-4.4082
0
LINE
8
BLACK
6
CONTINUOUS
10
5.14582
20
-4.4082
11
5.14508
21
-4.4091
0
LINE
8
BLACK
6
CONTINUOUS
10
5.14508
20
-4.4091
11
5.14419
21
-4.40983
0
LINE
8
BLACK
6
CONTINUOUS
10
5.14419
20
-4.40983
11
5.14317
21
-4.41038
0
LINE
8
BLACK
6
CONTINUOUS
10
5.14317
20
-4.41038
11
5.14206
21
-4.41071
0
LINE
8
BLACK
6
CONTINUOUS
10
5.14206
20
-4.41071
11
5.14091
21
-4.41083
0
LINE
8
BLACK
6
CONTINUOUS
10
5.14091
20
-4.41083
11
5.12909
21
-4.41083
0
LINE
8
BLACK
6
CONTINUOUS
10
5.12909
20
-4.41083
11
5.12794
21
-4.41071
0
LINE
8
BLACK
6
CONTINUOUS
10
5.12794
20
-4.41071
11
5.12683
21
-4.41038
0
LINE
8
BLACK
6
CONTINUOUS
10
5.12683
20
-4.41038
11
5.12581
21
-4.40983
0
LINE
8
BLACK
6
CONTINUOUS
10
5.12581
20
-4.40983
11
5.12492
21
-4.4091
0
LINE
8
BLACK
6
CONTINUOUS
10
5.12492
20
-4.4091
11
5.12418
21
-4.4082
0
LINE
8
BLACK
6
CONTINUOUS
10
5.12418
20
-4.4082
11
5.12364
21
-4.40718
0
LINE
8
BLACK
6
CONTINUOUS
10
5.12364
20
-4.40718
11
5.1233
21
-4.40607
0
LINE
8
BLACK
6
CONTINUOUS
10
5.1233
20
-4.40607
11
5.12319
21
-4.40492
0
LINE
8
BLACK
6
CONTINUOUS
10
5.12319
20
-4.40492
11
5.12319
21
-4.33996
0
LINE
8
BLACK
6
CONTINUOUS
10
5.12319
20
-4.33996
11
5.1233
21
-4.33881
0
LINE
8
BLACK
6
CONTINUOUS
10
5.1233
20
-4.33881
11
5.12364
21
-4.3377
0
LINE
8
BLACK
6
CONTINUOUS
10
5.12364
20
-4.3377
11
5.12418
21
-4.33668
0
LINE
8
BLACK
6
CONTINUOUS
10
5.12418
20
-4.33668
11
5.12492
21
-4.33578
0
LINE
8
BLACK
6
CONTINUOUS
10
5.12492
20
-4.33578
11
5.12581
21
-4.33505
0
LINE
8
BLACK
6
CONTINUOUS
10
5.12581
20
-4.33505
11
5.12683
21
-4.3345
0
LINE
8
BLACK
6
CONTINUOUS
10
5.12683
20
-4.3345
11
5.12794
21
-4.33417
0
LINE
8
BLACK
6
CONTINUOUS
10
5.12794
20
-4.33417
11
5.12909
21
-4.33406
0
LINE
8
BLACK
6
CONTINUOUS
10
5.12909
20
-4.33406
11
5.14091
21
-4.33406
0
LINE
8
BLACK
6
CONTINUOUS
10
5.14091
20
-4.33406
11
5.14206
21
-4.33417
0
LINE
8
BLACK
6
CONTINUOUS
10
5.19206
20
-4.33417
11
5.19317
21
-4.3345
0
LINE
8
BLACK
6
CONTINUOUS
10
5.19317
20
-4.3345
11
5.19419
21
-4.33505
0
LINE
8
BLACK
6
CONTINUOUS
10
5.19419
20
-4.33505
11
5.19508
21
-4.33578
0
LINE
8
BLACK
6
CONTINUOUS
10
5.19508
20
-4.33578
11
5.19582
21
-4.33668
0
LINE
8
BLACK
6
CONTINUOUS
10
5.19582
20
-4.33668
11
5.19636
21
-4.3377
0
LINE
8
BLACK
6
CONTINUOUS
10
5.19636
20
-4.3377
11
5.1967
21
-4.33881
0
LINE
8
BLACK
6
CONTINUOUS
10
5.1967
20
-4.33881
11
5.19681
21
-4.33996
0
LINE
8
BLACK
6
CONTINUOUS
10
5.19681
20
-4.33996
11
5.19681
21
-4.40492
0
LINE
8
BLACK
6
CONTINUOUS
10
5.19681
20
-4.40492
11
5.1967
21
-4.40607
0
LINE
8
BLACK
6
CONTINUOUS
10
5.1967
20
-4.40607
11
5.19636
21
-4.40718
0
LINE
8
BLACK
6
CONTINUOUS
10
5.19636
20
-4.40718
11
5.19582
21
-4.4082
0
LINE
8
BLACK
6
CONTINUOUS
10
5.19582
20
-4.4082
11
5.19508
21
-4.4091
0
LINE
8
BLACK
6
CONTINUOUS
10
5.19508
20
-4.4091
11
5.19419
21
-4.40983
0
LINE
8
BLACK
6
CONTINUOUS
10
5.19419
20
-4.40983
11
5.19317
21
-4.41038
0
LINE
8
BLACK
6
CONTINUOUS
10
5.19317
20
-4.41038
11
5.19206
21
-4.41071
0
LINE
8
BLACK
6
CONTINUOUS
10
5.19206
20
-4.41071
11
5.19091
21
-4.41083
0
LINE
8
BLACK
6
CONTINUOUS
10
5.19091
20
-4.41083
11
5.17909
21
-4.41083
0
LINE
8
BLACK
6
CONTINUOUS
10
5.17909
20
-4.41083
11
5.17794
21
-4.41071
0
LINE
8
BLACK
6
CONTINUOUS
10
5.17794
20
-4.41071
11
5.17683
21
-4.41038
0
LINE
8
BLACK
6
CONTINUOUS
10
5.17683
20
-4.41038
11
5.17581
21
-4.40983
0
LINE
8
BLACK
6
CONTINUOUS
10
5.17581
20
-4.40983
11
5.17492
21
-4.4091
0
LINE
8
BLACK
6
CONTINUOUS
10
5.17492
20
-4.4091
11
5.17418
21
-4.4082
0
LINE
8
BLACK
6
CONTINUOUS
10
5.17418
20
-4.4082
11
5.17364
21
-4.40718
0
LINE
8
BLACK
6
CONTINUOUS
10
5.17364
20
-4.40718
11
5.1733
21
-4.40607
0
LINE
8
BLACK
6
CONTINUOUS
10
5.1733
20
-4.40607
11
5.17319
21
-4.40492
0
LINE
8
BLACK
6
CONTINUOUS
10
5.17319
20
-4.40492
11
5.17319
21
-4.33996
0
LINE
8
BLACK
6
CONTINUOUS
10
5.17319
20
-4.33996
11
5.1733
21
-4.33881
0
LINE
8
BLACK
6
CONTINUOUS
10
5.1733
20
-4.33881
11
5.17364
21
-4.3377
0
LINE
8
BLACK
6
CONTINUOUS
10
5.17364
20
-4.3377
11
5.17418
21
-4.33668
0
LINE
8
BLACK
6
CONTINUOUS
10
5.17418
20
-4.33668
11
5.17492
21
-4.33578
0
LINE
8
BLACK
6
CONTINUOUS
10
5.17492
20
-4.33578
11
5.17581
21
-4.33505
0
LINE
8
BLACK
6
CONTINUOUS
10
5.17581
20
-4.33505
11
5.17683
21
-4.3345
0
LINE
8
BLACK
6
CONTINUOUS
10
5.17683
20
-4.3345
11
5.17794
21
-4.33417
0
LINE
8
BLACK
6
CONTINUOUS
10
5.17794
20
-4.33417
11
5.17909
21
-4.33406
0
LINE
8
BLACK
6
CONTINUOUS
10
5.17909
20
-4.33406
11
5.19091
21
-4.33406
0
LINE
8
BLACK
6
CONTINUOUS
10
5.19091
20
-4.33406
11
5.19206
21
-4.33417
0
LINE
8
BLACK
6
CONTINUOUS
10
5.24206
20
-4.33417
11
5.24317
21
-4.3345
0
LINE
8
BLACK
6
CONTINUOUS
10
5.24317
20
-4.3345
11
5.24419
21
-4.33505
0
LINE
8
BLACK
6
CONTINUOUS
10
5.24419
20
-4.33505
11
5.24508
21
-4.33578
0
LINE
8
BLACK
6
CONTINUOUS
10
5.24508
20
-4.33578
11
5.24582
21
-4.33668
0
LINE
8
BLACK
6
CONTINUOUS
10
5.24582
20
-4.33668
11
5.24636
21
-4.3377
0
LINE
8
BLACK
6
CONTINUOUS
10
5.24636
20
-4.3377
11
5.2467
21
-4.33881
0
LINE
8
BLACK
6
CONTINUOUS
10
5.2467
20
-4.33881
11
5.24681
21
-4.33996
0
LINE
8
BLACK
6
CONTINUOUS
10
5.24681
20
-4.33996
11
5.24681
21
-4.40492
0
LINE
8
BLACK
6
CONTINUOUS
10
5.24681
20
-4.40492
11
5.2467
21
-4.40607
0
LINE
8
BLACK
6
CONTINUOUS
10
5.2467
20
-4.40607
11
5.24636
21
-4.40718
0
LINE
8
BLACK
6
CONTINUOUS
10
5.24636
20
-4.40718
11
5.24582
21
-4.4082
0
LINE
8
BLACK
6
CONTINUOUS
10
5.24582
20
-4.4082
11
5.24508
21
-4.4091
0
LINE
8
BLACK
6
CONTINUOUS
10
5.24508
20
-4.4091
11
5.24419
21
-4.40983
0
LINE
8
BLACK
6
CONTINUOUS
10
5.24419
20
-4.40983
11
5.24317
21
-4.41038
0
LINE
8
BLACK
6
CONTINUOUS
10
5.24317
20
-4.41038
11
5.24206
21
-4.41071
0
LINE
8
BLACK
6
CONTINUOUS
10
5.24206
20
-4.41071
11
5.24091
21
-4.41083
0
LINE
8
BLACK
6
CONTINUOUS
10
5.24091
20
-4.41083
11
5.22909
21
-4.41083
0
LINE
8
BLACK
6
CONTINUOUS
10
5.22909
20
-4.41083
11
5.22794
21
-4.41071
0
LINE
8
BLACK
6
CONTINUOUS
10
5.22794
20
-4.41071
11
5.22683
21
-4.41038
0
LINE
8
BLACK
6
CONTINUOUS
10
5.22683
20
-4.41038
11
5.22581
21
-4.40983
0
LINE
8
BLACK
6
CONTINUOUS
10
5.22581
20
-4.40983
11
5.22492
21
-4.4091
0
LINE
8
BLACK
6
CONTINUOUS
10
5.22492
20
-4.4091
11
5.22418
21
-4.4082
0
LINE
8
BLACK
6
CONTINUOUS
10
5.22418
20
-4.4082
11
5.22364
21
-4.40718
0
LINE
8
BLACK
6
CONTINUOUS
10
5.22364
20
-4.40718
11
5.2233
21
-4.40607
0
LINE
8
BLACK
6
CONTINUOUS
10
5.2233
20
-4.40607
11
5.22319
21
-4.40492
0
LINE
8
BLACK
6
CONTINUOUS
10
5.22319
20
-4.40492
11
5.22319
21
-4.33996
0
LINE
8
BLACK
6
CONTINUOUS
10
5.22319
20
-4.33996
11
5.2233
21
-4.33881
0
LINE
8
BLACK
6
CONTINUOUS
10
5.2233
20
-4.33881
11
5.22364
21
-4.3377
0
LINE
8
BLACK
6
CONTINUOUS
10
5.22364
20
-4.3377
11
5.22418
21
-4.33668
0
LINE
8
BLACK
6
CONTINUOUS
10
5.22418
20
-4.33668
11
5.22492
21
-4.33578
0
LINE
8
BLACK
6
CONTINUOUS
10
5.22492
20
-4.33578
11
5.22581
21
-4.33505
0
LINE
8
BLACK
6
CONTINUOUS
10
5.22581
20
-4.33505
11
5.22683
21
-4.3345
0
LINE
8
BLACK
6
CONTINUOUS
10
5.22683
20
-4.3345
11
5.22794
21
-4.33417
0
LINE
8
BLACK
6
CONTINUOUS
10
5.22794
20
-4.33417
11
5.22909
21
-4.33406
0
LINE
8
BLACK
6
CONTINUOUS
10
5.22909
20
-4.33406
11
5.24091
21
-4.33406
0
LINE
8
BLACK
6
CONTINUOUS
10
5.24091
20
-4.33406
11
5.24206
21
-4.33417
0
LINE
8
BLACK
6
CONTINUOUS
10
5.29206
20
-4.33417
11
5.29317
21
-4.3345
0
LINE
8
BLACK
6
CONTINUOUS
10
5.29317
20
-4.3345
11
5.29419
21
-4.33505
0
LINE
8
BLACK
6
CONTINUOUS
10
5.29419
20
-4.33505
11
5.29508
21
-4.33578
0
LINE
8
BLACK
6
CONTINUOUS
10
5.29508
20
-4.33578
11
5.29582
21
-4.33668
0
LINE
8
BLACK
6
CONTINUOUS
10
5.29582
20
-4.33668
11
5.29636
21
-4.3377
0
LINE
8
BLACK
6
CONTINUOUS
10
5.29636
20
-4.3377
11
5.2967
21
-4.33881
0
LINE
8
BLACK
6
CONTINUOUS
10
5.2967
20
-4.33881
11
5.29681
21
-4.33996
0
LINE
8
BLACK
6
CONTINUOUS
10
5.29681
20
-4.33996
11
5.29681
21
-4.40492
0
LINE
8
BLACK
6
CONTINUOUS
10
5.29681
20
-4.40492
11
5.2967
21
-4.40607
0
LINE
8
BLACK
6
CONTINUOUS
10
5.2967
20
-4.40607
11
5.29636
21
-4.40718
0
LINE
8
BLACK
6
CONTINUOUS
10
5.29636
20
-4.40718
11
5.29582
21
-4.4082
0
LINE
8
BLACK
6
CONTINUOUS
10
5.29582
20
-4.4082
11
5.29508
21
-4.4091
0
LINE
8
BLACK
6
CONTINUOUS
10
5.29508
20
-4.4091
11
5.29419
21
-4.40983
0
LINE
8
BLACK
6
CONTINUOUS
10
5.29419
20
-4.40983
11
5.29317
21
-4.41038
0
LINE
8
BLACK
6
CONTINUOUS
10
5.29317
20
-4.41038
11
5.29206
21
-4.41071
0
LINE
8
BLACK
6
CONTINUOUS
10
5.29206
20
-4.41071
11
5.29091
21
-4.41083
0
LINE
8
BLACK
6
CONTINUOUS
10
5.29091
20
-4.41083
11
5.27909
21
-4.41083
0
LINE
8
BLACK
6
CONTINUOUS
10
5.27909
20
-4.41083
11
5.27794
21
-4.41071
0
LINE
8
BLACK
6
CONTINUOUS
10
5.27794
20
-4.41071
11
5.27683
21
-4.41038
0
LINE
8
BLACK
6
CONTINUOUS
10
5.27683
20
-4.41038
11
5.27581
21
-4.40983
0
LINE
8
BLACK
6
CONTINUOUS
10
5.27581
20
-4.40983
11
5.27492
21
-4.4091
0
LINE
8
BLACK
6
CONTINUOUS
10
5.27492
20
-4.4091
11
5.27418
21
-4.4082
0
LINE
8
BLACK
6
CONTINUOUS
10
5.27418
20
-4.4082
11
5.27364
21
-4.40718
0
LINE
8
BLACK
6
CONTINUOUS
10
5.27364
20
-4.40718
11
5.2733
21
-4.40607
0
LINE
8
BLACK
6
CONTINUOUS
10
5.2733
20
-4.40607
11
5.27319
21
-4.40492
0
LINE
8
BLACK
6
CONTINUOUS
10
5.27319
20
-4.40492
11
5.27319
21
-4.33996
0
LINE
8
BLACK
6
CONTINUOUS
10
5.27319
20
-4.33996
11
5.2733
21
-4.33881
0
LINE
8
BLACK
6
CONTINUOUS
10
5.2733
20
-4.33881
11
5.27364
21
-4.3377
0
LINE
8
BLACK
6
CONTINUOUS
10
5.27364
20
-4.3377
11
5.27418
21
-4.33668
0
LINE
8
BLACK
6
CONTINUOUS
10
5.27418
20
-4.33668
11
5.27492
21
-4.33578
0
LINE
8
BLACK
6
CONTINUOUS
10
5.27492
20
-4.33578
11
5.27581
21
-4.33505
0
LINE
8
BLACK
6
CONTINUOUS
10
5.27581
20
-4.33505
11
5.27683
21
-4.3345
0
LINE
8
BLACK
6
CONTINUOUS
10
5.27683
20
-4.3345
11
5.27794
21
-4.33417
0
LINE
8
BLACK
6
CONTINUOUS
10
5.27794
20
-4.33417
11
5.27909
21
-4.33406
0
LINE
8
BLACK
6
CONTINUOUS
10
5.27909
20
-4.33406
11
5.29091
21
-4.33406
0
LINE
8
BLACK
6
CONTINUOUS
10
5.29091
20
-4.33406
11
5.29206
21
-4.33417
0
LINE
8
BLACK
6
CONTINUOUS
10
5.34206
20
-4.33417
11
5.34317
21
-4.3345
0
LINE
8
BLACK
6
CONTINUOUS
10
5.34317
20
-4.3345
11
5.34419
21
-4.33505
0
LINE
8
BLACK
6
CONTINUOUS
10
5.34419
20
-4.33505
11
5.34508
21
-4.33578
0
LINE
8
BLACK
6
CONTINUOUS
10
5.34508
20
-4.33578
11
5.34582
21
-4.33668
0
LINE
8
BLACK
6
CONTINUOUS
10
5.34582
20
-4.33668
11
5.34636
21
-4.3377
0
LINE
8
BLACK
6
CONTINUOUS
10
5.34636
20
-4.3377
11
5.3467
21
-4.33881
0
LINE
8
BLACK
6
CONTINUOUS
10
5.3467
20
-4.33881
11
5.34681
21
-4.33996
0
LINE
8
BLACK
6
CONTINUOUS
10
5.34681
20
-4.33996
11
5.34681
21
-4.40492
0
LINE
8
BLACK
6
CONTINUOUS
10
5.34681
20
-4.40492
11
5.3467
21
-4.40607
0
LINE
8
BLACK
6
CONTINUOUS
10
5.3467
20
-4.40607
11
5.34636
21
-4.40718
0
LINE
8
BLACK
6
CONTINUOUS
10
5.34636
20
-4.40718
11
5.34582
21
-4.4082
0
LINE
8
BLACK
6
CONTINUOUS
10
5.34582
20
-4.4082
11
5.34508
21
-4.4091
0
LINE
8
BLACK
6
CONTINUOUS
10
5.34508
20
-4.4091
11
5.34419
21
-4.40983
0
LINE
8
BLACK
6
CONTINUOUS
10
5.34419
20
-4.40983
11
5.34317
21
-4.41038
0
LINE
8
BLACK
6
CONTINUOUS
10
5.34317
20
-4.41038
11
5.34206
21
-4.41071
0
LINE
8
BLACK
6
CONTINUOUS
10
5.34206
20
-4.41071
11
5.34091
21
-4.41083
0
LINE
8
BLACK
6
CONTINUOUS
10
5.34091
20
-4.41083
11
5.32909
21
-4.41083
0
LINE
8
BLACK
6
CONTINUOUS
10
5.32909
20
-4.41083
11
5.32794
21
-4.41071
0
LINE
8
BLACK
6
CONTINUOUS
10
5.32794
20
-4.41071
11
5.32683
21
-4.41038
0
LINE
8
BLACK
6
CONTINUOUS
10
5.32683
20
-4.41038
11
5.32581
21
-4.40983
0
LINE
8
BLACK
6
CONTINUOUS
10
5.32581
20
-4.40983
11
5.32492
21
-4.4091
0
LINE
8
BLACK
6
CONTINUOUS
10
5.32492
20
-4.4091
11
5.32418
21
-4.4082
0
LINE
8
BLACK
6
CONTINUOUS
10
5.32418
20
-4.4082
11
5.32364
21
-4.40718
0
LINE
8
BLACK
6
CONTINUOUS
10
5.32364
20
-4.40718
11
5.3233
21
-4.40607
0
LINE
8
BLACK
6
CONTINUOUS
10
5.3233
20
-4.40607
11
5.32319
21
-4.40492
0
LINE
8
BLACK
6
CONTINUOUS
10
5.32319
20
-4.40492
11
5.32319
21
-4.33996
0
LINE
8
BLACK
6
CONTINUOUS
10
5.32319
20
-4.33996
11
5.3233
21
-4.33881
0
LINE
8
BLACK
6
CONTINUOUS
10
5.3233
20
-4.33881
11
5.32364
21
-4.3377
0
LINE
8
BLACK
6
CONTINUOUS
10
5.32364
20
-4.3377
11
5.32418
21
-4.33668
0
LINE
8
BLACK
6
CONTINUOUS
10
5.32418
20
-4.33668
11
5.32492
21
-4.33578
0
LINE
8
BLACK
6
CONTINUOUS
10
5.32492
20
-4.33578
11
5.32581
21
-4.33505
0
LINE
8
BLACK
6
CONTINUOUS
10
5.32581
20
-4.33505
11
5.32683
21
-4.3345
0
LINE
8
BLACK
6
CONTINUOUS
10
5.32683
20
-4.3345
11
5.32794
21
-4.33417
0
LINE
8
BLACK
6
CONTINUOUS
10
5.32794
20
-4.33417
11
5.32909
21
-4.33406
0
LINE
8
BLACK
6
CONTINUOUS
10
5.32909
20
-4.33406
11
5.34091
21
-4.33406
0
LINE
8
BLACK
6
CONTINUOUS
10
5.34091
20
-4.33406
11
5.34206
21
-4.33417
0
LINE
8
BLACK
6
CONTINUOUS
10
5.39206
20
-4.33417
11
5.39317
21
-4.3345
0
LINE
8
BLACK
6
CONTINUOUS
10
5.39317
20
-4.3345
11
5.39419
21
-4.33505
0
LINE
8
BLACK
6
CONTINUOUS
10
5.39419
20
-4.33505
11
5.39508
21
-4.33578
0
LINE
8
BLACK
6
CONTINUOUS
10
5.39508
20
-4.33578
11
5.39582
21
-4.33668
0
LINE
8
BLACK
6
CONTINUOUS
10
5.39582
20
-4.33668
11
5.39636
21
-4.3377
0
LINE
8
BLACK
6
CONTINUOUS
10
5.39636
20
-4.3377
11
5.3967
21
-4.33881
0
LINE
8
BLACK
6
CONTINUOUS
10
5.3967
20
-4.33881
11
5.39681
21
-4.33996
0
LINE
8
BLACK
6
CONTINUOUS
10
5.39681
20
-4.33996
11
5.39681
21
-4.40492
0
LINE
8
BLACK
6
CONTINUOUS
10
5.39681
20
-4.40492
11
5.3967
21
-4.40607
0
LINE
8
BLACK
6
CONTINUOUS
10
5.3967
20
-4.40607
11
5.39636
21
-4.40718
0
LINE
8
BLACK
6
CONTINUOUS
10
5.39636
20
-4.40718
11
5.39582
21
-4.4082
0
LINE
8
BLACK
6
CONTINUOUS
10
5.39582
20
-4.4082
11
5.39508
21
-4.4091
0
LINE
8
BLACK
6
CONTINUOUS
10
5.39508
20
-4.4091
11
5.39419
21
-4.40983
0
LINE
8
BLACK
6
CONTINUOUS
10
5.39419
20
-4.40983
11
5.39317
21
-4.41038
0
LINE
8
BLACK
6
CONTINUOUS
10
5.39317
20
-4.41038
11
5.39206
21
-4.41071
0
LINE
8
BLACK
6
CONTINUOUS
10
5.39206
20
-4.41071
11
5.39091
21
-4.41083
0
LINE
8
BLACK
6
CONTINUOUS
10
5.39091
20
-4.41083
11
5.37909
21
-4.41083
0
LINE
8
BLACK
6
CONTINUOUS
10
5.37909
20
-4.41083
11
5.37794
21
-4.41071
0
LINE
8
BLACK
6
CONTINUOUS
10
5.37794
20
-4.41071
11
5.37683
21
-4.41038
0
LINE
8
BLACK
6
CONTINUOUS
10
5.37683
20
-4.41038
11
5.37581
21
-4.40983
0
LINE
8
BLACK
6
CONTINUOUS
10
5.37581
20
-4.40983
11
5.37492
21
-4.4091
0
LINE
8
BLACK
6
CONTINUOUS
10
5.37492
20
-4.4091
11
5.37418
21
-4.4082
0
LINE
8
BLACK
6
CONTINUOUS
10
5.37418
20
-4.4082
11
5.37364
21
-4.40718
0
LINE
8
BLACK
6
CONTINUOUS
10
5.37364
20
-4.40718
11
5.3733
21
-4.40607
0
LINE
8
BLACK
6
CONTINUOUS
10
5.3733
20
-4.40607
11
5.37319
21
-4.40492
0
LINE
8
BLACK
6
CONTINUOUS
10
5.37319
20
-4.40492
11
5.37319
21
-4.33996
0
LINE
8
BLACK
6
CONTINUOUS
10
5.37319
20
-4.33996
11
5.3733
21
-4.33881
0
LINE
8
BLACK
6
CONTINUOUS
10
5.3733
20
-4.33881
11
5.37364
21
-4.3377
0
LINE
8
BLACK
6
CONTINUOUS
10
5.37364
20
-4.3377
11
5.37418
21
-4.33668
0
LINE
8
BLACK
6
CONTINUOUS
10
5.37418
20
-4.33668
11
5.37492
21
-4.33578
0
LINE
8
BLACK
6
CONTINUOUS
10
5.37492
20
-4.33578
11
5.37581
21
-4.33505
0
LINE
8
BLACK
6
CONTINUOUS
10
5.37581
20
-4.33505
11
5.37683
21
-4.3345
0
LINE
8
BLACK
6
CONTINUOUS
10
5.37683
20
-4.3345
11
5.37794
21
-4.33417
0
LINE
8
BLACK
6
CONTINUOUS
10
5.37794
20
-4.33417
11
5.37909
21
-4.33406
0
LINE
8
BLACK
6
CONTINUOUS
10
5.37909
20
-4.33406
11
5.39091
21
-4.33406
0
LINE
8
BLACK
6
CONTINUOUS
10
5.39091
20
-4.33406
11
5.39206
21
-4.33417
0
LINE
8
BLACK
6
CONTINUOUS
10
5.44206
20
-4.33417
11
5.44317
21
-4.3345
0
LINE
8
BLACK
6
CONTINUOUS
10
5.44317
20
-4.3345
11
5.44419
21
-4.33505
0
LINE
8
BLACK
6
CONTINUOUS
10
5.44419
20
-4.33505
11
5.44508
21
-4.33578
0
LINE
8
BLACK
6
CONTINUOUS
10
5.44508
20
-4.33578
11
5.44582
21
-4.33668
0
LINE
8
BLACK
6
CONTINUOUS
10
5.44582
20
-4.33668
11
5.44636
21
-4.3377
0
LINE
8
BLACK
6
CONTINUOUS
10
5.44636
20
-4.3377
11
5.4467
21
-4.33881
0
LINE
8
BLACK
6
CONTINUOUS
10
5.4467
20
-4.33881
11
5.44681
21
-4.33996
0
LINE
8
BLACK
6
CONTINUOUS
10
5.44681
20
-4.33996
11
5.44681
21
-4.40492
0
LINE
8
BLACK
6
CONTINUOUS
10
5.44681
20
-4.40492
11
5.4467
21
-4.40607
0
LINE
8
BLACK
6
CONTINUOUS
10
5.4467
20
-4.40607
11
5.44636
21
-4.40718
0
LINE
8
BLACK
6
CONTINUOUS
10
5.44636
20
-4.40718
11
5.44582
21
-4.4082
0
LINE
8
BLACK
6
CONTINUOUS
10
5.44582
20
-4.4082
11
5.44508
21
-4.4091
0
LINE
8
BLACK
6
CONTINUOUS
10
5.44508
20
-4.4091
11
5.44419
21
-4.40983
0
LINE
8
BLACK
6
CONTINUOUS
10
5.44419
20
-4.40983
11
5.44317
21
-4.41038
0
LINE
8
BLACK
6
CONTINUOUS
10
5.44317
20
-4.41038
11
5.44206
21
-4.41071
0
LINE
8
BLACK
6
CONTINUOUS
10
5.44206
20
-4.41071
11
5.44091
21
-4.41083
0
LINE
8
BLACK
6
CONTINUOUS
10
5.44091
20
-4.41083
11
5.42909
21
-4.41083
0
LINE
8
BLACK
6
CONTINUOUS
10
5.42909
20
-4.41083
11
5.42794
21
-4.41071
0
LINE
8
BLACK
6
CONTINUOUS
10
5.42794
20
-4.41071
11
5.42683
21
-4.41038
0
LINE
8
BLACK
6
CONTINUOUS
10
5.42683
20
-4.41038
11
5.42581
21
-4.40983
0
LINE
8
BLACK
6
CONTINUOUS
10
5.42581
20
-4.40983
11
5.42492
21
-4.4091
0
LINE
8
BLACK
6
CONTINUOUS
10
5.42492
20
-4.4091
11
5.42418
21
-4.4082
0
LINE
8
BLACK
6
CONTINUOUS
10
5.42418
20
-4.4082
11
5.42364
21
-4.40718
0
LINE
8
BLACK
6
CONTINUOUS
10
5.42364
20
-4.40718
11
5.4233
21
-4.40607
0
LINE
8
BLACK
6
CONTINUOUS
10
5.4233
20
-4.40607
11
5.42319
21
-4.40492
0
LINE
8
BLACK
6
CONTINUOUS
10
5.42319
20
-4.40492
11
5.42319
21
-4.33996
0
LINE
8
BLACK
6
CONTINUOUS
10
5.42319
20
-4.33996
11
5.4233
21
-4.33881
0
LINE
8
BLACK
6
CONTINUOUS
10
5.4233
20
-4.33881
11
5.42364
21
-4.3377
0
LINE
8
BLACK
6
CONTINUOUS
10
5.42364
20
-4.3377
11
5.42418
21
-4.33668
0
LINE
8
BLACK
6
CONTINUOUS
10
5.42418
20
-4.33668
11
5.42492
21
-4.33578
0
LINE
8
BLACK
6
CONTINUOUS
10
5.42492
20
-4.33578
11
5.42581
21
-4.33505
0
LINE
8
BLACK
6
CONTINUOUS
10
5.42581
20
-4.33505
11
5.42683
21
-4.3345
0
LINE
8
BLACK
6
CONTINUOUS
10
5.42683
20
-4.3345
11
5.42794
21
-4.33417
0
LINE
8
BLACK
6
CONTINUOUS
10
5.42794
20
-4.33417
11
5.42909
21
-4.33406
0
LINE
8
BLACK
6
CONTINUOUS
10
5.42909
20
-4.33406
11
5.44091
21
-4.33406
0
LINE
8
BLACK
6
CONTINUOUS
10
5.44091
20
-4.33406
11
5.44206
21
-4.33417
0
LINE
8
BLACK
6
CONTINUOUS
10
5.57983
20
-4.35099
11
5.58163
21
-4.35154
0
LINE
8
BLACK
6
CONTINUOUS
10
5.58163
20
-4.35154
11
5.58329
21
-4.35242
0
LINE
8
BLACK
6
CONTINUOUS
10
5.58329
20
-4.35242
11
5.58475
21
-4.35362
0
LINE
8
BLACK
6
CONTINUOUS
10
5.58475
20
-4.35362
11
5.58594
21
-4.35507
0
LINE
8
BLACK
6
CONTINUOUS
10
5.58594
20
-4.35507
11
5.58683
21
-4.35673
0
LINE
8
BLACK
6
CONTINUOUS
10
5.58683
20
-4.35673
11
5.58737
21
-4.35853
0
LINE
8
BLACK
6
CONTINUOUS
10
5.58737
20
-4.35853
11
5.58756
21
-4.3604
0
LINE
8
BLACK
6
CONTINUOUS
10
5.58756
20
-4.3604
11
5.58756
21
-4.3796
0
LINE
8
BLACK
6
CONTINUOUS
10
5.58756
20
-4.3796
11
5.58737
21
-4.38147
0
LINE
8
BLACK
6
CONTINUOUS
10
5.58737
20
-4.38147
11
5.58683
21
-4.38327
0
LINE
8
BLACK
6
CONTINUOUS
10
5.58683
20
-4.38327
11
5.58594
21
-4.38493
0
LINE
8
BLACK
6
CONTINUOUS
10
5.58594
20
-4.38493
11
5.58475
21
-4.38638
0
LINE
8
BLACK
6
CONTINUOUS
10
5.58475
20
-4.38638
11
5.58329
21
-4.38758
0
LINE
8
BLACK
6
CONTINUOUS
10
5.58329
20
-4.38758
11
5.58163
21
-4.38846
0
LINE
8
BLACK
6
CONTINUOUS
10
5.58163
20
-4.38846
11
5.57983
21
-4.38901
0
LINE
8
BLACK
6
CONTINUOUS
10
5.57983
20
-4.38901
11
5.57796
21
-4.38919
0
LINE
8
BLACK
6
CONTINUOUS
10
5.57796
20
-4.38919
11
5.54204
21
-4.38919
0
LINE
8
BLACK
6
CONTINUOUS
10
5.54204
20
-4.38919
11
5.54017
21
-4.38901
0
LINE
8
BLACK
6
CONTINUOUS
10
5.54017
20
-4.38901
11
5.53836
21
-4.38846
0
LINE
8
BLACK
6
CONTINUOUS
10
5.53836
20
-4.38846
11
5.53671
21
-4.38758
0
LINE
8
BLACK
6
CONTINUOUS
10
5.53671
20
-4.38758
11
5.53525
21
-4.38638
0
LINE
8
BLACK
6
CONTINUOUS
10
5.53525
20
-4.38638
11
5.53406
21
-4.38493
0
LINE
8
BLACK
6
CONTINUOUS
10
5.53406
20
-4.38493
11
5.53317
21
-4.38327
0
LINE
8
BLACK
6
CONTINUOUS
10
5.53317
20
-4.38327
11
5.53263
21
-4.38147
0
LINE
8
BLACK
6
CONTINUOUS
10
5.53263
20
-4.38147
11
5.53244
21
-4.3796
0
LINE
8
BLACK
6
CONTINUOUS
10
5.53244
20
-4.3796
11
5.53244
21
-4.3604
0
LINE
8
BLACK
6
CONTINUOUS
10
5.53244
20
-4.3604
11
5.53263
21
-4.35853
0
LINE
8
BLACK
6
CONTINUOUS
10
5.53263
20
-4.35853
11
5.53317
21
-4.35673
0
LINE
8
BLACK
6
CONTINUOUS
10
5.53317
20
-4.35673
11
5.53406
21
-4.35507
0
LINE
8
BLACK
6
CONTINUOUS
10
5.53406
20
-4.35507
11
5.53525
21
-4.35362
0
LINE
8
BLACK
6
CONTINUOUS
10
5.53525
20
-4.35362
11
5.53671
21
-4.35242
0
LINE
8
BLACK
6
CONTINUOUS
10
5.53671
20
-4.35242
11
5.53836
21
-4.35154
0
LINE
8
BLACK
6
CONTINUOUS
10
5.53836
20
-4.35154
11
5.54017
21
-4.35099
0
LINE
8
BLACK
6
CONTINUOUS
10
5.54017
20
-4.35099
11
5.54204
21
-4.35081
0
LINE
8
BLACK
6
CONTINUOUS
10
5.54204
20
-4.35081
11
5.57796
21
-4.35081
0
LINE
8
BLACK
6
CONTINUOUS
10
5.57796
20
-4.35081
11
5.57983
21
-4.35099
0
LINE
8
BLACK
6
CONTINUOUS
10
5.57983
20
-4.27717
11
5.58163
21
-4.27772
0
LINE
8
BLACK
6
CONTINUOUS
10
5.58163
20
-4.27772
11
5.58329
21
-4.27861
0
LINE
8
BLACK
6
CONTINUOUS
10
5.58329
20
-4.27861
11
5.58475
21
-4.2798
0
LINE
8
BLACK
6
CONTINUOUS
10
5.58475
20
-4.2798
11
5.58594
21
-4.28125
0
LINE
8
BLACK
6
CONTINUOUS
10
5.58594
20
-4.28125
11
5.58683
21
-4.28291
0
LINE
8
BLACK
6
CONTINUOUS
10
5.58683
20
-4.28291
11
5.58737
21
-4.28471
0
LINE
8
BLACK
6
CONTINUOUS
10
5.58737
20
-4.28471
11
5.58756
21
-4.28658
0
LINE
8
BLACK
6
CONTINUOUS
10
5.58756
20
-4.28658
11
5.58756
21
-4.30578
0
LINE
8
BLACK
6
CONTINUOUS
10
5.58756
20
-4.30578
11
5.58737
21
-4.30765
0
LINE
8
BLACK
6
CONTINUOUS
10
5.58737
20
-4.30765
11
5.58683
21
-4.30945
0
LINE
8
BLACK
6
CONTINUOUS
10
5.58683
20
-4.30945
11
5.58594
21
-4.31111
0
LINE
8
BLACK
6
CONTINUOUS
10
5.58594
20
-4.31111
11
5.58475
21
-4.31256
0
LINE
8
BLACK
6
CONTINUOUS
10
5.58475
20
-4.31256
11
5.58329
21
-4.31376
0
LINE
8
BLACK
6
CONTINUOUS
10
5.58329
20
-4.31376
11
5.58163
21
-4.31464
0
LINE
8
BLACK
6
CONTINUOUS
10
5.58163
20
-4.31464
11
5.57983
21
-4.31519
0
LINE
8
BLACK
6
CONTINUOUS
10
5.57983
20
-4.31519
11
5.57796
21
-4.31537
0
LINE
8
BLACK
6
CONTINUOUS
10
5.57796
20
-4.31537
11
5.54204
21
-4.31537
0
LINE
8
BLACK
6
CONTINUOUS
10
5.54204
20
-4.31537
11
5.54017
21
-4.31519
0
LINE
8
BLACK
6
CONTINUOUS
10
5.54017
20
-4.31519
11
5.53836
21
-4.31464
0
LINE
8
BLACK
6
CONTINUOUS
10
5.53836
20
-4.31464
11
5.53671
21
-4.31376
0
LINE
8
BLACK
6
CONTINUOUS
10
5.53671
20
-4.31376
11
5.53525
21
-4.31256
0
LINE
8
BLACK
6
CONTINUOUS
10
5.53525
20
-4.31256
11
5.53406
21
-4.31111
0
LINE
8
BLACK
6
CONTINUOUS
10
5.53406
20
-4.31111
11
5.53317
21
-4.30945
0
LINE
8
BLACK
6
CONTINUOUS
10
5.53317
20
-4.30945
11
5.53263
21
-4.30765
0
LINE
8
BLACK
6
CONTINUOUS
10
5.53263
20
-4.30765
11
5.53244
21
-4.30578
0
LINE
8
BLACK
6
CONTINUOUS
10
5.53244
20
-4.30578
11
5.53244
21
-4.28658
0
LINE
8
BLACK
6
CONTINUOUS
10
5.53244
20
-4.28658
11
5.53263
21
-4.28471
0
LINE
8
BLACK
6
CONTINUOUS
10
5.53263
20
-4.28471
11
5.53317
21
-4.28291
0
LINE
8
BLACK
6
CONTINUOUS
10
5.53317
20
-4.28291
11
5.53406
21
-4.28125
0
LINE
8
BLACK
6
CONTINUOUS
10
5.53406
20
-4.28125
11
5.53525
21
-4.2798
0
LINE
8
BLACK
6
CONTINUOUS
10
5.53525
20
-4.2798
11
5.53671
21
-4.27861
0
LINE
8
BLACK
6
CONTINUOUS
10
5.53671
20
-4.27861
11
5.53836
21
-4.27772
0
LINE
8
BLACK
6
CONTINUOUS
10
5.53836
20
-4.27772
11
5.54017
21
-4.27717
0
LINE
8
BLACK
6
CONTINUOUS
10
5.54017
20
-4.27717
11
5.54204
21
-4.27699
0
LINE
8
BLACK
6
CONTINUOUS
10
5.54204
20
-4.27699
11
5.57796
21
-4.27699
0
LINE
8
BLACK
6
CONTINUOUS
10
5.57796
20
-4.27699
11
5.57983
21
-4.27717
0
LINE
8
BLACK
6
CONTINUOUS
10
5.49206
20
-4.13929
11
5.49317
21
-4.13962
0
LINE
8
BLACK
6
CONTINUOUS
10
5.49317
20
-4.13962
11
5.49419
21
-4.14017
0
LINE
8
BLACK
6
CONTINUOUS
10
5.49419
20
-4.14017
11
5.49508
21
-4.1409
0
LINE
8
BLACK
6
CONTINUOUS
10
5.49508
20
-4.1409
11
5.49582
21
-4.1418
0
LINE
8
BLACK
6
CONTINUOUS
10
5.49582
20
-4.1418
11
5.49636
21
-4.14282
0
LINE
8
BLACK
6
CONTINUOUS
10
5.49636
20
-4.14282
11
5.4967
21
-4.14393
0
LINE
8
BLACK
6
CONTINUOUS
10
5.4967
20
-4.14393
11
5.49681
21
-4.14508
0
LINE
8
BLACK
6
CONTINUOUS
10
5.49681
20
-4.14508
11
5.49681
21
-4.21004
0
LINE
8
BLACK
6
CONTINUOUS
10
5.49681
20
-4.21004
11
5.4967
21
-4.21119
0
LINE
8
BLACK
6
CONTINUOUS
10
5.4967
20
-4.21119
11
5.49636
21
-4.2123
0
LINE
8
BLACK
6
CONTINUOUS
10
5.49636
20
-4.2123
11
5.49582
21
-4.21332
0
LINE
8
BLACK
6
CONTINUOUS
10
5.49582
20
-4.21332
11
5.49508
21
-4.21422
0
LINE
8
BLACK
6
CONTINUOUS
10
5.49508
20
-4.21422
11
5.49419
21
-4.21495
0
LINE
8
BLACK
6
CONTINUOUS
10
5.49419
20
-4.21495
11
5.49317
21
-4.2155
0
LINE
8
BLACK
6
CONTINUOUS
10
5.49317
20
-4.2155
11
5.49206
21
-4.21583
0
LINE
8
BLACK
6
CONTINUOUS
10
5.49206
20
-4.21583
11
5.49091
21
-4.21594
0
LINE
8
BLACK
6
CONTINUOUS
10
5.49091
20
-4.21594
11
5.47909
21
-4.21594
0
LINE
8
BLACK
6
CONTINUOUS
10
5.47909
20
-4.21594
11
5.47794
21
-4.21583
0
LINE
8
BLACK
6
CONTINUOUS
10
5.47794
20
-4.21583
11
5.47683
21
-4.2155
0
LINE
8
BLACK
6
CONTINUOUS
10
5.47683
20
-4.2155
11
5.47581
21
-4.21495
0
LINE
8
BLACK
6
CONTINUOUS
10
5.47581
20
-4.21495
11
5.47492
21
-4.21422
0
LINE
8
BLACK
6
CONTINUOUS
10
5.47492
20
-4.21422
11
5.47418
21
-4.21332
0
LINE
8
BLACK
6
CONTINUOUS
10
5.47418
20
-4.21332
11
5.47364
21
-4.2123
0
LINE
8
BLACK
6
CONTINUOUS
10
5.47364
20
-4.2123
11
5.4733
21
-4.21119
0
LINE
8
BLACK
6
CONTINUOUS
10
5.4733
20
-4.21119
11
5.47319
21
-4.21004
0
LINE
8
BLACK
6
CONTINUOUS
10
5.47319
20
-4.21004
11
5.47319
21
-4.14508
0
LINE
8
BLACK
6
CONTINUOUS
10
5.47319
20
-4.14508
11
5.4733
21
-4.14393
0
LINE
8
BLACK
6
CONTINUOUS
10
5.4733
20
-4.14393
11
5.47364
21
-4.14282
0
LINE
8
BLACK
6
CONTINUOUS
10
5.47364
20
-4.14282
11
5.47418
21
-4.1418
0
LINE
8
BLACK
6
CONTINUOUS
10
5.47418
20
-4.1418
11
5.47492
21
-4.1409
0
LINE
8
BLACK
6
CONTINUOUS
10
5.47492
20
-4.1409
11
5.47581
21
-4.14017
0
LINE
8
BLACK
6
CONTINUOUS
10
5.47581
20
-4.14017
11
5.47683
21
-4.13962
0
LINE
8
BLACK
6
CONTINUOUS
10
5.47683
20
-4.13962
11
5.47794
21
-4.13929
0
LINE
8
BLACK
6
CONTINUOUS
10
5.47794
20
-4.13929
11
5.47909
21
-4.13917
0
LINE
8
BLACK
6
CONTINUOUS
10
5.47909
20
-4.13917
11
5.49091
21
-4.13917
0
LINE
8
BLACK
6
CONTINUOUS
10
5.49091
20
-4.13917
11
5.49206
21
-4.13929
0
LINE
8
BLACK
6
CONTINUOUS
10
5.44206
20
-4.13929
11
5.44317
21
-4.13962
0
LINE
8
BLACK
6
CONTINUOUS
10
5.44317
20
-4.13962
11
5.44419
21
-4.14017
0
LINE
8
BLACK
6
CONTINUOUS
10
5.44419
20
-4.14017
11
5.44508
21
-4.1409
0
LINE
8
BLACK
6
CONTINUOUS
10
5.44508
20
-4.1409
11
5.44582
21
-4.1418
0
LINE
8
BLACK
6
CONTINUOUS
10
5.44582
20
-4.1418
11
5.44636
21
-4.14282
0
LINE
8
BLACK
6
CONTINUOUS
10
5.44636
20
-4.14282
11
5.4467
21
-4.14393
0
LINE
8
BLACK
6
CONTINUOUS
10
5.4467
20
-4.14393
11
5.44681
21
-4.14508
0
LINE
8
BLACK
6
CONTINUOUS
10
5.44681
20
-4.14508
11
5.44681
21
-4.21004
0
LINE
8
BLACK
6
CONTINUOUS
10
5.44681
20
-4.21004
11
5.4467
21
-4.21119
0
LINE
8
BLACK
6
CONTINUOUS
10
5.4467
20
-4.21119
11
5.44636
21
-4.2123
0
LINE
8
BLACK
6
CONTINUOUS
10
5.44636
20
-4.2123
11
5.44582
21
-4.21332
0
LINE
8
BLACK
6
CONTINUOUS
10
5.44582
20
-4.21332
11
5.44508
21
-4.21422
0
LINE
8
BLACK
6
CONTINUOUS
10
5.44508
20
-4.21422
11
5.44419
21
-4.21495
0
LINE
8
BLACK
6
CONTINUOUS
10
5.44419
20
-4.21495
11
5.44317
21
-4.2155
0
LINE
8
BLACK
6
CONTINUOUS
10
5.44317
20
-4.2155
11
5.44206
21
-4.21583
0
LINE
8
BLACK
6
CONTINUOUS
10
5.44206
20
-4.21583
11
5.44091
21
-4.21594
0
LINE
8
BLACK
6
CONTINUOUS
10
5.44091
20
-4.21594
11
5.42909
21
-4.21594
0
LINE
8
BLACK
6
CONTINUOUS
10
5.42909
20
-4.21594
11
5.42794
21
-4.21583
0
LINE
8
BLACK
6
CONTINUOUS
10
5.42794
20
-4.21583
11
5.42683
21
-4.2155
0
LINE
8
BLACK
6
CONTINUOUS
10
5.42683
20
-4.2155
11
5.42581
21
-4.21495
0
LINE
8
BLACK
6
CONTINUOUS
10
5.42581
20
-4.21495
11
5.42492
21
-4.21422
0
LINE
8
BLACK
6
CONTINUOUS
10
5.42492
20
-4.21422
11
5.42418
21
-4.21332
0
LINE
8
BLACK
6
CONTINUOUS
10
5.42418
20
-4.21332
11
5.42364
21
-4.2123
0
LINE
8
BLACK
6
CONTINUOUS
10
5.42364
20
-4.2123
11
5.4233
21
-4.21119
0
LINE
8
BLACK
6
CONTINUOUS
10
5.4233
20
-4.21119
11
5.42319
21
-4.21004
0
LINE
8
BLACK
6
CONTINUOUS
10
5.42319
20
-4.21004
11
5.42319
21
-4.14508
0
LINE
8
BLACK
6
CONTINUOUS
10
5.42319
20
-4.14508
11
5.4233
21
-4.14393
0
LINE
8
BLACK
6
CONTINUOUS
10
5.4233
20
-4.14393
11
5.42364
21
-4.14282
0
LINE
8
BLACK
6
CONTINUOUS
10
5.42364
20
-4.14282
11
5.42418
21
-4.1418
0
LINE
8
BLACK
6
CONTINUOUS
10
5.42418
20
-4.1418
11
5.42492
21
-4.1409
0
LINE
8
BLACK
6
CONTINUOUS
10
5.42492
20
-4.1409
11
5.42581
21
-4.14017
0
LINE
8
BLACK
6
CONTINUOUS
10
5.42581
20
-4.14017
11
5.42683
21
-4.13962
0
LINE
8
BLACK
6
CONTINUOUS
10
5.42683
20
-4.13962
11
5.42794
21
-4.13929
0
LINE
8
BLACK
6
CONTINUOUS
10
5.42794
20
-4.13929
11
5.42909
21
-4.13917
0
LINE
8
BLACK
6
CONTINUOUS
10
5.42909
20
-4.13917
11
5.44091
21
-4.13917
0
LINE
8
BLACK
6
CONTINUOUS
10
5.44091
20
-4.13917
11
5.44206
21
-4.13929
0
LINE
8
BLACK
6
CONTINUOUS
10
5.39206
20
-4.13929
11
5.39317
21
-4.13962
0
LINE
8
BLACK
6
CONTINUOUS
10
5.39317
20
-4.13962
11
5.39419
21
-4.14017
0
LINE
8
BLACK
6
CONTINUOUS
10
5.39419
20
-4.14017
11
5.39508
21
-4.1409
0
LINE
8
BLACK
6
CONTINUOUS
10
5.39508
20
-4.1409
11
5.39582
21
-4.1418
0
LINE
8
BLACK
6
CONTINUOUS
10
5.39582
20
-4.1418
11
5.39636
21
-4.14282
0
LINE
8
BLACK
6
CONTINUOUS
10
5.39636
20
-4.14282
11
5.3967
21
-4.14393
0
LINE
8
BLACK
6
CONTINUOUS
10
5.3967
20
-4.14393
11
5.39681
21
-4.14508
0
LINE
8
BLACK
6
CONTINUOUS
10
5.39681
20
-4.14508
11
5.39681
21
-4.21004
0
LINE
8
BLACK
6
CONTINUOUS
10
5.39681
20
-4.21004
11
5.3967
21
-4.21119
0
LINE
8
BLACK
6
CONTINUOUS
10
5.3967
20
-4.21119
11
5.39636
21
-4.2123
0
LINE
8
BLACK
6
CONTINUOUS
10
5.39636
20
-4.2123
11
5.39582
21
-4.21332
0
LINE
8
BLACK
6
CONTINUOUS
10
5.39582
20
-4.21332
11
5.39508
21
-4.21422
0
LINE
8
BLACK
6
CONTINUOUS
10
5.39508
20
-4.21422
11
5.39419
21
-4.21495
0
LINE
8
BLACK
6
CONTINUOUS
10
5.39419
20
-4.21495
11
5.39317
21
-4.2155
0
LINE
8
BLACK
6
CONTINUOUS
10
5.39317
20
-4.2155
11
5.39206
21
-4.21583
0
LINE
8
BLACK
6
CONTINUOUS
10
5.39206
20
-4.21583
11
5.39091
21
-4.21594
0
LINE
8
BLACK
6
CONTINUOUS
10
5.39091
20
-4.21594
11
5.37909
21
-4.21594
0
LINE
8
BLACK
6
CONTINUOUS
10
5.37909
20
-4.21594
11
5.37794
21
-4.21583
0
LINE
8
BLACK
6
CONTINUOUS
10
5.37794
20
-4.21583
11
5.37683
21
-4.2155
0
LINE
8
BLACK
6
CONTINUOUS
10
5.37683
20
-4.2155
11
5.37581
21
-4.21495
0
LINE
8
BLACK
6
CONTINUOUS
10
5.37581
20
-4.21495
11
5.37492
21
-4.21422
0
LINE
8
BLACK
6
CONTINUOUS
10
5.37492
20
-4.21422
11
5.37418
21
-4.21332
0
LINE
8
BLACK
6
CONTINUOUS
10
5.37418
20
-4.21332
11
5.37364
21
-4.2123
0
LINE
8
BLACK
6
CONTINUOUS
10
5.37364
20
-4.2123
11
5.3733
21
-4.21119
0
LINE
8
BLACK
6
CONTINUOUS
10
5.3733
20
-4.21119
11
5.37319
21
-4.21004
0
LINE
8
BLACK
6
CONTINUOUS
10
5.37319
20
-4.21004
11
5.37319
21
-4.14508
0
LINE
8
BLACK
6
CONTINUOUS
10
5.37319
20
-4.14508
11
5.3733
21
-4.14393
0
LINE
8
BLACK
6
CONTINUOUS
10
5.3733
20
-4.14393
11
5.37364
21
-4.14282
0
LINE
8
BLACK
6
CONTINUOUS
10
5.37364
20
-4.14282
11
5.37418
21
-4.1418
0
LINE
8
BLACK
6
CONTINUOUS
10
5.37418
20
-4.1418
11
5.37492
21
-4.1409
0
LINE
8
BLACK
6
CONTINUOUS
10
5.37492
20
-4.1409
11
5.37581
21
-4.14017
0
LINE
8
BLACK
6
CONTINUOUS
10
5.37581
20
-4.14017
11
5.37683
21
-4.13962
0
LINE
8
BLACK
6
CONTINUOUS
10
5.37683
20
-4.13962
11
5.37794
21
-4.13929
0
LINE
8
BLACK
6
CONTINUOUS
10
5.37794
20
-4.13929
11
5.37909
21
-4.13917
0
LINE
8
BLACK
6
CONTINUOUS
10
5.37909
20
-4.13917
11
5.39091
21
-4.13917
0
LINE
8
BLACK
6
CONTINUOUS
10
5.39091
20
-4.13917
11
5.39206
21
-4.13929
0
LINE
8
BLACK
6
CONTINUOUS
10
5.34206
20
-4.13929
11
5.34317
21
-4.13962
0
LINE
8
BLACK
6
CONTINUOUS
10
5.34317
20
-4.13962
11
5.34419
21
-4.14017
0
LINE
8
BLACK
6
CONTINUOUS
10
5.34419
20
-4.14017
11
5.34508
21
-4.1409
0
LINE
8
BLACK
6
CONTINUOUS
10
5.34508
20
-4.1409
11
5.34582
21
-4.1418
0
LINE
8
BLACK
6
CONTINUOUS
10
5.34582
20
-4.1418
11
5.34636
21
-4.14282
0
LINE
8
BLACK
6
CONTINUOUS
10
5.34636
20
-4.14282
11
5.3467
21
-4.14393
0
LINE
8
BLACK
6
CONTINUOUS
10
5.3467
20
-4.14393
11
5.34681
21
-4.14508
0
LINE
8
BLACK
6
CONTINUOUS
10
5.34681
20
-4.14508
11
5.34681
21
-4.21004
0
LINE
8
BLACK
6
CONTINUOUS
10
5.34681
20
-4.21004
11
5.3467
21
-4.21119
0
LINE
8
BLACK
6
CONTINUOUS
10
5.3467
20
-4.21119
11
5.34636
21
-4.2123
0
LINE
8
BLACK
6
CONTINUOUS
10
5.34636
20
-4.2123
11
5.34582
21
-4.21332
0
LINE
8
BLACK
6
CONTINUOUS
10
5.34582
20
-4.21332
11
5.34508
21
-4.21422
0
LINE
8
BLACK
6
CONTINUOUS
10
5.34508
20
-4.21422
11
5.34419
21
-4.21495
0
LINE
8
BLACK
6
CONTINUOUS
10
5.34419
20
-4.21495
11
5.34317
21
-4.2155
0
LINE
8
BLACK
6
CONTINUOUS
10
5.34317
20
-4.2155
11
5.34206
21
-4.21583
0
LINE
8
BLACK
6
CONTINUOUS
10
5.34206
20
-4.21583
11
5.34091
21
-4.21594
0
LINE
8
BLACK
6
CONTINUOUS
10
5.34091
20
-4.21594
11
5.32909
21
-4.21594
0
LINE
8
BLACK
6
CONTINUOUS
10
5.32909
20
-4.21594
11
5.32794
21
-4.21583
0
LINE
8
BLACK
6
CONTINUOUS
10
5.32794
20
-4.21583
11
5.32683
21
-4.2155
0
LINE
8
BLACK
6
CONTINUOUS
10
5.32683
20
-4.2155
11
5.32581
21
-4.21495
0
LINE
8
BLACK
6
CONTINUOUS
10
5.32581
20
-4.21495
11
5.32492
21
-4.21422
0
LINE
8
BLACK
6
CONTINUOUS
10
5.32492
20
-4.21422
11
5.32418
21
-4.21332
0
LINE
8
BLACK
6
CONTINUOUS
10
5.32418
20
-4.21332
11
5.32364
21
-4.2123
0
LINE
8
BLACK
6
CONTINUOUS
10
5.32364
20
-4.2123
11
5.3233
21
-4.21119
0
LINE
8
BLACK
6
CONTINUOUS
10
5.3233
20
-4.21119
11
5.32319
21
-4.21004
0
LINE
8
BLACK
6
CONTINUOUS
10
5.32319
20
-4.21004
11
5.32319
21
-4.14508
0
LINE
8
BLACK
6
CONTINUOUS
10
5.32319
20
-4.14508
11
5.3233
21
-4.14393
0
LINE
8
BLACK
6
CONTINUOUS
10
5.3233
20
-4.14393
11
5.32364
21
-4.14282
0
LINE
8
BLACK
6
CONTINUOUS
10
5.32364
20
-4.14282
11
5.32418
21
-4.1418
0
LINE
8
BLACK
6
CONTINUOUS
10
5.32418
20
-4.1418
11
5.32492
21
-4.1409
0
LINE
8
BLACK
6
CONTINUOUS
10
5.32492
20
-4.1409
11
5.32581
21
-4.14017
0
LINE
8
BLACK
6
CONTINUOUS
10
5.32581
20
-4.14017
11
5.32683
21
-4.13962
0
LINE
8
BLACK
6
CONTINUOUS
10
5.32683
20
-4.13962
11
5.32794
21
-4.13929
0
LINE
8
BLACK
6
CONTINUOUS
10
5.32794
20
-4.13929
11
5.32909
21
-4.13917
0
LINE
8
BLACK
6
CONTINUOUS
10
5.32909
20
-4.13917
11
5.34091
21
-4.13917
0
LINE
8
BLACK
6
CONTINUOUS
10
5.34091
20
-4.13917
11
5.34206
21
-4.13929
0
LINE
8
BLACK
6
CONTINUOUS
10
5.14206
20
-4.13929
11
5.14317
21
-4.13962
0
LINE
8
BLACK
6
CONTINUOUS
10
5.14317
20
-4.13962
11
5.14419
21
-4.14017
0
LINE
8
BLACK
6
CONTINUOUS
10
5.14419
20
-4.14017
11
5.14508
21
-4.1409
0
LINE
8
BLACK
6
CONTINUOUS
10
5.14508
20
-4.1409
11
5.14582
21
-4.1418
0
LINE
8
BLACK
6
CONTINUOUS
10
5.14582
20
-4.1418
11
5.14636
21
-4.14282
0
LINE
8
BLACK
6
CONTINUOUS
10
5.14636
20
-4.14282
11
5.1467
21
-4.14393
0
LINE
8
BLACK
6
CONTINUOUS
10
5.1467
20
-4.14393
11
5.14681
21
-4.14508
0
LINE
8
BLACK
6
CONTINUOUS
10
5.14681
20
-4.14508
11
5.14681
21
-4.21004
0
LINE
8
BLACK
6
CONTINUOUS
10
5.14681
20
-4.21004
11
5.1467
21
-4.21119
0
LINE
8
BLACK
6
CONTINUOUS
10
5.1467
20
-4.21119
11
5.14636
21
-4.2123
0
LINE
8
BLACK
6
CONTINUOUS
10
5.14636
20
-4.2123
11
5.14582
21
-4.21332
0
LINE
8
BLACK
6
CONTINUOUS
10
5.14582
20
-4.21332
11
5.14508
21
-4.21422
0
LINE
8
BLACK
6
CONTINUOUS
10
5.14508
20
-4.21422
11
5.14419
21
-4.21495
0
LINE
8
BLACK
6
CONTINUOUS
10
5.14419
20
-4.21495
11
5.14317
21
-4.2155
0
LINE
8
BLACK
6
CONTINUOUS
10
5.14317
20
-4.2155
11
5.14206
21
-4.21583
0
LINE
8
BLACK
6
CONTINUOUS
10
5.14206
20
-4.21583
11
5.14091
21
-4.21594
0
LINE
8
BLACK
6
CONTINUOUS
10
5.14091
20
-4.21594
11
5.12909
21
-4.21594
0
LINE
8
BLACK
6
CONTINUOUS
10
5.12909
20
-4.21594
11
5.12794
21
-4.21583
0
LINE
8
BLACK
6
CONTINUOUS
10
5.12794
20
-4.21583
11
5.12683
21
-4.2155
0
LINE
8
BLACK
6
CONTINUOUS
10
5.12683
20
-4.2155
11
5.12581
21
-4.21495
0
LINE
8
BLACK
6
CONTINUOUS
10
5.12581
20
-4.21495
11
5.12492
21
-4.21422
0
LINE
8
BLACK
6
CONTINUOUS
10
5.12492
20
-4.21422
11
5.12418
21
-4.21332
0
LINE
8
BLACK
6
CONTINUOUS
10
5.12418
20
-4.21332
11
5.12364
21
-4.2123
0
LINE
8
BLACK
6
CONTINUOUS
10
5.12364
20
-4.2123
11
5.1233
21
-4.21119
0
LINE
8
BLACK
6
CONTINUOUS
10
5.1233
20
-4.21119
11
5.12319
21
-4.21004
0
LINE
8
BLACK
6
CONTINUOUS
10
5.12319
20
-4.21004
11
5.12319
21
-4.14508
0
LINE
8
BLACK
6
CONTINUOUS
10
5.12319
20
-4.14508
11
5.1233
21
-4.14393
0
LINE
8
BLACK
6
CONTINUOUS
10
5.1233
20
-4.14393
11
5.12364
21
-4.14282
0
LINE
8
BLACK
6
CONTINUOUS
10
5.12364
20
-4.14282
11
5.12418
21
-4.1418
0
LINE
8
BLACK
6
CONTINUOUS
10
5.12418
20
-4.1418
11
5.12492
21
-4.1409
0
LINE
8
BLACK
6
CONTINUOUS
10
5.12492
20
-4.1409
11
5.12581
21
-4.14017
0
LINE
8
BLACK
6
CONTINUOUS
10
5.12581
20
-4.14017
11
5.12683
21
-4.13962
0
LINE
8
BLACK
6
CONTINUOUS
10
5.12683
20
-4.13962
11
5.12794
21
-4.13929
0
LINE
8
BLACK
6
CONTINUOUS
10
5.12794
20
-4.13929
11
5.12909
21
-4.13917
0
LINE
8
BLACK
6
CONTINUOUS
10
5.12909
20
-4.13917
11
5.14091
21
-4.13917
0
LINE
8
BLACK
6
CONTINUOUS
10
5.14091
20
-4.13917
11
5.14206
21
-4.13929
0
LINE
8
BLACK
6
CONTINUOUS
10
5.29206
20
-4.13929
11
5.29317
21
-4.13962
0
LINE
8
BLACK
6
CONTINUOUS
10
5.29317
20
-4.13962
11
5.29419
21
-4.14017
0
LINE
8
BLACK
6
CONTINUOUS
10
5.29419
20
-4.14017
11
5.29508
21
-4.1409
0
LINE
8
BLACK
6
CONTINUOUS
10
5.29508
20
-4.1409
11
5.29582
21
-4.1418
0
LINE
8
BLACK
6
CONTINUOUS
10
5.29582
20
-4.1418
11
5.29636
21
-4.14282
0
LINE
8
BLACK
6
CONTINUOUS
10
5.29636
20
-4.14282
11
5.2967
21
-4.14393
0
LINE
8
BLACK
6
CONTINUOUS
10
5.2967
20
-4.14393
11
5.29681
21
-4.14508
0
LINE
8
BLACK
6
CONTINUOUS
10
5.29681
20
-4.14508
11
5.29681
21
-4.21004
0
LINE
8
BLACK
6
CONTINUOUS
10
5.29681
20
-4.21004
11
5.2967
21
-4.21119
0
LINE
8
BLACK
6
CONTINUOUS
10
5.2967
20
-4.21119
11
5.29636
21
-4.2123
0
LINE
8
BLACK
6
CONTINUOUS
10
5.29636
20
-4.2123
11
5.29582
21
-4.21332
0
LINE
8
BLACK
6
CONTINUOUS
10
5.29582
20
-4.21332
11
5.29508
21
-4.21422
0
LINE
8
BLACK
6
CONTINUOUS
10
5.29508
20
-4.21422
11
5.29419
21
-4.21495
0
LINE
8
BLACK
6
CONTINUOUS
10
5.29419
20
-4.21495
11
5.29317
21
-4.2155
0
LINE
8
BLACK
6
CONTINUOUS
10
5.29317
20
-4.2155
11
5.29206
21
-4.21583
0
LINE
8
BLACK
6
CONTINUOUS
10
5.29206
20
-4.21583
11
5.29091
21
-4.21594
0
LINE
8
BLACK
6
CONTINUOUS
10
5.29091
20
-4.21594
11
5.27909
21
-4.21594
0
LINE
8
BLACK
6
CONTINUOUS
10
5.27909
20
-4.21594
11
5.27794
21
-4.21583
0
LINE
8
BLACK
6
CONTINUOUS
10
5.27794
20
-4.21583
11
5.27683
21
-4.2155
0
LINE
8
BLACK
6
CONTINUOUS
10
5.27683
20
-4.2155
11
5.27581
21
-4.21495
0
LINE
8
BLACK
6
CONTINUOUS
10
5.27581
20
-4.21495
11
5.27492
21
-4.21422
0
LINE
8
BLACK
6
CONTINUOUS
10
5.27492
20
-4.21422
11
5.27418
21
-4.21332
0
LINE
8
BLACK
6
CONTINUOUS
10
5.27418
20
-4.21332
11
5.27364
21
-4.2123
0
LINE
8
BLACK
6
CONTINUOUS
10
5.27364
20
-4.2123
11
5.2733
21
-4.21119
0
LINE
8
BLACK
6
CONTINUOUS
10
5.2733
20
-4.21119
11
5.27319
21
-4.21004
0
LINE
8
BLACK
6
CONTINUOUS
10
5.27319
20
-4.21004
11
5.27319
21
-4.14508
0
LINE
8
BLACK
6
CONTINUOUS
10
5.27319
20
-4.14508
11
5.2733
21
-4.14393
0
LINE
8
BLACK
6
CONTINUOUS
10
5.2733
20
-4.14393
11
5.27364
21
-4.14282
0
LINE
8
BLACK
6
CONTINUOUS
10
5.27364
20
-4.14282
11
5.27418
21
-4.1418
0
LINE
8
BLACK
6
CONTINUOUS
10
5.27418
20
-4.1418
11
5.27492
21
-4.1409
0
LINE
8
BLACK
6
CONTINUOUS
10
5.27492
20
-4.1409
11
5.27581
21
-4.14017
0
LINE
8
BLACK
6
CONTINUOUS
10
5.27581
20
-4.14017
11
5.27683
21
-4.13962
0
LINE
8
BLACK
6
CONTINUOUS
10
5.27683
20
-4.13962
11
5.27794
21
-4.13929
0
LINE
8
BLACK
6
CONTINUOUS
10
5.27794
20
-4.13929
11
5.27909
21
-4.13917
0
LINE
8
BLACK
6
CONTINUOUS
10
5.27909
20
-4.13917
11
5.29091
21
-4.13917
0
LINE
8
BLACK
6
CONTINUOUS
10
5.29091
20
-4.13917
11
5.29206
21
-4.13929
0
LINE
8
BLACK
6
CONTINUOUS
10
5.24206
20
-4.13929
11
5.24317
21
-4.13962
0
LINE
8
BLACK
6
CONTINUOUS
10
5.24317
20
-4.13962
11
5.24419
21
-4.14017
0
LINE
8
BLACK
6
CONTINUOUS
10
5.24419
20
-4.14017
11
5.24508
21
-4.1409
0
LINE
8
BLACK
6
CONTINUOUS
10
5.24508
20
-4.1409
11
5.24582
21
-4.1418
0
LINE
8
BLACK
6
CONTINUOUS
10
5.24582
20
-4.1418
11
5.24636
21
-4.14282
0
LINE
8
BLACK
6
CONTINUOUS
10
5.24636
20
-4.14282
11
5.2467
21
-4.14393
0
LINE
8
BLACK
6
CONTINUOUS
10
5.2467
20
-4.14393
11
5.24681
21
-4.14508
0
LINE
8
BLACK
6
CONTINUOUS
10
5.24681
20
-4.14508
11
5.24681
21
-4.21004
0
LINE
8
BLACK
6
CONTINUOUS
10
5.24681
20
-4.21004
11
5.2467
21
-4.21119
0
LINE
8
BLACK
6
CONTINUOUS
10
5.2467
20
-4.21119
11
5.24636
21
-4.2123
0
LINE
8
BLACK
6
CONTINUOUS
10
5.24636
20
-4.2123
11
5.24582
21
-4.21332
0
LINE
8
BLACK
6
CONTINUOUS
10
5.24582
20
-4.21332
11
5.24508
21
-4.21422
0
LINE
8
BLACK
6
CONTINUOUS
10
5.24508
20
-4.21422
11
5.24419
21
-4.21495
0
LINE
8
BLACK
6
CONTINUOUS
10
5.24419
20
-4.21495
11
5.24317
21
-4.2155
0
LINE
8
BLACK
6
CONTINUOUS
10
5.24317
20
-4.2155
11
5.24206
21
-4.21583
0
LINE
8
BLACK
6
CONTINUOUS
10
5.24206
20
-4.21583
11
5.24091
21
-4.21594
0
LINE
8
BLACK
6
CONTINUOUS
10
5.24091
20
-4.21594
11
5.22909
21
-4.21594
0
LINE
8
BLACK
6
CONTINUOUS
10
5.22909
20
-4.21594
11
5.22794
21
-4.21583
0
LINE
8
BLACK
6
CONTINUOUS
10
5.22794
20
-4.21583
11
5.22683
21
-4.2155
0
LINE
8
BLACK
6
CONTINUOUS
10
5.22683
20
-4.2155
11
5.22581
21
-4.21495
0
LINE
8
BLACK
6
CONTINUOUS
10
5.22581
20
-4.21495
11
5.22492
21
-4.21422
0
LINE
8
BLACK
6
CONTINUOUS
10
5.22492
20
-4.21422
11
5.22418
21
-4.21332
0
LINE
8
BLACK
6
CONTINUOUS
10
5.22418
20
-4.21332
11
5.22364
21
-4.2123
0
LINE
8
BLACK
6
CONTINUOUS
10
5.22364
20
-4.2123
11
5.2233
21
-4.21119
0
LINE
8
BLACK
6
CONTINUOUS
10
5.2233
20
-4.21119
11
5.22319
21
-4.21004
0
LINE
8
BLACK
6
CONTINUOUS
10
5.22319
20
-4.21004
11
5.22319
21
-4.14508
0
LINE
8
BLACK
6
CONTINUOUS
10
5.22319
20
-4.14508
11
5.2233
21
-4.14393
0
LINE
8
BLACK
6
CONTINUOUS
10
5.2233
20
-4.14393
11
5.22364
21
-4.14282
0
LINE
8
BLACK
6
CONTINUOUS
10
5.22364
20
-4.14282
11
5.22418
21
-4.1418
0
LINE
8
BLACK
6
CONTINUOUS
10
5.22418
20
-4.1418
11
5.22492
21
-4.1409
0
LINE
8
BLACK
6
CONTINUOUS
10
5.22492
20
-4.1409
11
5.22581
21
-4.14017
0
LINE
8
BLACK
6
CONTINUOUS
10
5.22581
20
-4.14017
11
5.22683
21
-4.13962
0
LINE
8
BLACK
6
CONTINUOUS
10
5.22683
20
-4.13962
11
5.22794
21
-4.13929
0
LINE
8
BLACK
6
CONTINUOUS
10
5.22794
20
-4.13929
11
5.22909
21
-4.13917
0
LINE
8
BLACK
6
CONTINUOUS
10
5.22909
20
-4.13917
11
5.24091
21
-4.13917
0
LINE
8
BLACK
6
CONTINUOUS
10
5.24091
20
-4.13917
11
5.24206
21
-4.13929
0
LINE
8
BLACK
6
CONTINUOUS
10
5.19206
20
-4.13929
11
5.19317
21
-4.13962
0
LINE
8
BLACK
6
CONTINUOUS
10
5.19317
20
-4.13962
11
5.19419
21
-4.14017
0
LINE
8
BLACK
6
CONTINUOUS
10
5.19419
20
-4.14017
11
5.19508
21
-4.1409
0
LINE
8
BLACK
6
CONTINUOUS
10
5.19508
20
-4.1409
11
5.19582
21
-4.1418
0
LINE
8
BLACK
6
CONTINUOUS
10
5.19582
20
-4.1418
11
5.19636
21
-4.14282
0
LINE
8
BLACK
6
CONTINUOUS
10
5.19636
20
-4.14282
11
5.1967
21
-4.14393
0
LINE
8
BLACK
6
CONTINUOUS
10
5.1967
20
-4.14393
11
5.19681
21
-4.14508
0
LINE
8
BLACK
6
CONTINUOUS
10
5.19681
20
-4.14508
11
5.19681
21
-4.21004
0
LINE
8
BLACK
6
CONTINUOUS
10
5.19681
20
-4.21004
11
5.1967
21
-4.21119
0
LINE
8
BLACK
6
CONTINUOUS
10
5.1967
20
-4.21119
11
5.19636
21
-4.2123
0
LINE
8
BLACK
6
CONTINUOUS
10
5.19636
20
-4.2123
11
5.19582
21
-4.21332
0
LINE
8
BLACK
6
CONTINUOUS
10
5.19582
20
-4.21332
11
5.19508
21
-4.21422
0
LINE
8
BLACK
6
CONTINUOUS
10
5.19508
20
-4.21422
11
5.19419
21
-4.21495
0
LINE
8
BLACK
6
CONTINUOUS
10
5.19419
20
-4.21495
11
5.19317
21
-4.2155
0
LINE
8
BLACK
6
CONTINUOUS
10
5.19317
20
-4.2155
11
5.19206
21
-4.21583
0
LINE
8
BLACK
6
CONTINUOUS
10
5.19206
20
-4.21583
11
5.19091
21
-4.21594
0
LINE
8
BLACK
6
CONTINUOUS
10
5.19091
20
-4.21594
11
5.17909
21
-4.21594
0
LINE
8
BLACK
6
CONTINUOUS
10
5.17909
20
-4.21594
11
5.17794
21
-4.21583
0
LINE
8
BLACK
6
CONTINUOUS
10
5.17794
20
-4.21583
11
5.17683
21
-4.2155
0
LINE
8
BLACK
6
CONTINUOUS
10
5.17683
20
-4.2155
11
5.17581
21
-4.21495
0
LINE
8
BLACK
6
CONTINUOUS
10
5.17581
20
-4.21495
11
5.17492
21
-4.21422
0
LINE
8
BLACK
6
CONTINUOUS
10
5.17492
20
-4.21422
11
5.17418
21
-4.21332
0
LINE
8
BLACK
6
CONTINUOUS
10
5.17418
20
-4.21332
11
5.17364
21
-4.2123
0
LINE
8
BLACK
6
CONTINUOUS
10
5.17364
20
-4.2123
11
5.1733
21
-4.21119
0
LINE
8
BLACK
6
CONTINUOUS
10
5.1733
20
-4.21119
11
5.17319
21
-4.21004
0
LINE
8
BLACK
6
CONTINUOUS
10
5.17319
20
-4.21004
11
5.17319
21
-4.14508
0
LINE
8
BLACK
6
CONTINUOUS
10
5.17319
20
-4.14508
11
5.1733
21
-4.14393
0
LINE
8
BLACK
6
CONTINUOUS
10
5.1733
20
-4.14393
11
5.17364
21
-4.14282
0
LINE
8
BLACK
6
CONTINUOUS
10
5.17364
20
-4.14282
11
5.17418
21
-4.1418
0
LINE
8
BLACK
6
CONTINUOUS
10
5.17418
20
-4.1418
11
5.17492
21
-4.1409
0
LINE
8
BLACK
6
CONTINUOUS
10
5.17492
20
-4.1409
11
5.17581
21
-4.14017
0
LINE
8
BLACK
6
CONTINUOUS
10
5.17581
20
-4.14017
11
5.17683
21
-4.13962
0
LINE
8
BLACK
6
CONTINUOUS
10
5.17683
20
-4.13962
11
5.17794
21
-4.13929
0
LINE
8
BLACK
6
CONTINUOUS
10
5.17794
20
-4.13929
11
5.17909
21
-4.13917
0
LINE
8
BLACK
6
CONTINUOUS
10
5.17909
20
-4.13917
11
5.19091
21
-4.13917
0
LINE
8
BLACK
6
CONTINUOUS
10
5.19091
20
-4.13917
11
5.19206
21
-4.13929
0
LINE
8
BLACK
6
CONTINUOUS
10
7.19653
20
-4.08558
11
7.19837
21
-4.08614
0
LINE
8
BLACK
6
CONTINUOUS
10
7.19837
20
-4.08614
11
7.20007
21
-4.08705
0
LINE
8
BLACK
6
CONTINUOUS
10
7.20007
20
-4.08705
11
7.20157
21
-4.08828
0
LINE
8
BLACK
6
CONTINUOUS
10
7.20157
20
-4.08828
11
7.20279
21
-4.08977
0
LINE
8
BLACK
6
CONTINUOUS
10
7.20279
20
-4.08977
11
7.2037
21
-4.09147
0
LINE
8
BLACK
6
CONTINUOUS
10
7.2037
20
-4.09147
11
7.20426
21
-4.09332
0
LINE
8
BLACK
6
CONTINUOUS
10
7.20426
20
-4.09332
11
7.20445
21
-4.09524
0
LINE
8
BLACK
6
CONTINUOUS
10
7.20445
20
-4.09524
11
7.20445
21
-4.12476
0
LINE
8
BLACK
6
CONTINUOUS
10
7.20445
20
-4.12476
11
7.20426
21
-4.12668
0
LINE
8
BLACK
6
CONTINUOUS
10
7.20426
20
-4.12668
11
7.2037
21
-4.12853
0
LINE
8
BLACK
6
CONTINUOUS
10
7.2037
20
-4.12853
11
7.20279
21
-4.13023
0
LINE
8
BLACK
6
CONTINUOUS
10
7.20279
20
-4.13023
11
7.20157
21
-4.13172
0
LINE
8
BLACK
6
CONTINUOUS
10
7.20157
20
-4.13172
11
7.20007
21
-4.13295
0
LINE
8
BLACK
6
CONTINUOUS
10
7.20007
20
-4.13295
11
7.19837
21
-4.13386
0
LINE
8
BLACK
6
CONTINUOUS
10
7.19837
20
-4.13386
11
7.19653
21
-4.13442
0
LINE
8
BLACK
6
CONTINUOUS
10
7.19653
20
-4.13442
11
7.19461
21
-4.13461
0
LINE
8
BLACK
6
CONTINUOUS
10
7.19461
20
-4.13461
11
7.14539
21
-4.13461
0
LINE
8
BLACK
6
CONTINUOUS
10
7.14539
20
-4.13461
11
7.14347
21
-4.13442
0
LINE
8
BLACK
6
CONTINUOUS
10
7.14347
20
-4.13442
11
7.14163
21
-4.13386
0
LINE
8
BLACK
6
CONTINUOUS
10
7.14163
20
-4.13386
11
7.13993
21
-4.13295
0
LINE
8
BLACK
6
CONTINUOUS
10
7.13993
20
-4.13295
11
7.13843
21
-4.13172
0
LINE
8
BLACK
6
CONTINUOUS
10
7.13843
20
-4.13172
11
7.13721
21
-4.13023
0
LINE
8
BLACK
6
CONTINUOUS
10
7.13721
20
-4.13023
11
7.1363
21
-4.12853
0
LINE
8
BLACK
6
CONTINUOUS
10
7.1363
20
-4.12853
11
7.13574
21
-4.12668
0
LINE
8
BLACK
6
CONTINUOUS
10
7.13574
20
-4.12668
11
7.13555
21
-4.12476
0
LINE
8
BLACK
6
CONTINUOUS
10
7.13555
20
-4.12476
11
7.13555
21
-4.09524
0
LINE
8
BLACK
6
CONTINUOUS
10
7.13555
20
-4.09524
11
7.13574
21
-4.09332
0
LINE
8
BLACK
6
CONTINUOUS
10
7.13574
20
-4.09332
11
7.1363
21
-4.09147
0
LINE
8
BLACK
6
CONTINUOUS
10
7.1363
20
-4.09147
11
7.13721
21
-4.08977
0
LINE
8
BLACK
6
CONTINUOUS
10
7.13721
20
-4.08977
11
7.13843
21
-4.08828
0
LINE
8
BLACK
6
CONTINUOUS
10
7.13843
20
-4.08828
11
7.13993
21
-4.08705
0
LINE
8
BLACK
6
CONTINUOUS
10
7.13993
20
-4.08705
11
7.14163
21
-4.08614
0
LINE
8
BLACK
6
CONTINUOUS
10
7.14163
20
-4.08614
11
7.14347
21
-4.08558
0
LINE
8
BLACK
6
CONTINUOUS
10
7.14347
20
-4.08558
11
7.14539
21
-4.08539
0
LINE
8
BLACK
6
CONTINUOUS
10
7.14539
20
-4.08539
11
7.19461
21
-4.08539
0
LINE
8
BLACK
6
CONTINUOUS
10
7.19461
20
-4.08539
11
7.19653
21
-4.08558
0
LINE
8
BLACK
6
CONTINUOUS
10
7.28983
20
-4.06099
11
7.29163
21
-4.06154
0
LINE
8
BLACK
6
CONTINUOUS
10
7.29163
20
-4.06154
11
7.29329
21
-4.06242
0
LINE
8
BLACK
6
CONTINUOUS
10
7.29329
20
-4.06242
11
7.29475
21
-4.06362
0
LINE
8
BLACK
6
CONTINUOUS
10
7.29475
20
-4.06362
11
7.29594
21
-4.06507
0
LINE
8
BLACK
6
CONTINUOUS
10
7.29594
20
-4.06507
11
7.29683
21
-4.06673
0
LINE
8
BLACK
6
CONTINUOUS
10
7.29683
20
-4.06673
11
7.29737
21
-4.06853
0
LINE
8
BLACK
6
CONTINUOUS
10
7.29737
20
-4.06853
11
7.29756
21
-4.0704
0
LINE
8
BLACK
6
CONTINUOUS
10
7.29756
20
-4.0704
11
7.29756
21
-4.0896
0
LINE
8
BLACK
6
CONTINUOUS
10
7.29756
20
-4.0896
11
7.29737
21
-4.09147
0
LINE
8
BLACK
6
CONTINUOUS
10
7.29737
20
-4.09147
11
7.29683
21
-4.09327
0
LINE
8
BLACK
6
CONTINUOUS
10
7.29683
20
-4.09327
11
7.29594
21
-4.09493
0
LINE
8
BLACK
6
CONTINUOUS
10
7.29594
20
-4.09493
11
7.29475
21
-4.09638
0
LINE
8
BLACK
6
CONTINUOUS
10
7.29475
20
-4.09638
11
7.29329
21
-4.09758
0
LINE
8
BLACK
6
CONTINUOUS
10
7.29329
20
-4.09758
11
7.29163
21
-4.09846
0
LINE
8
BLACK
6
CONTINUOUS
10
7.29163
20
-4.09846
11
7.28983
21
-4.09901
0
LINE
8
BLACK
6
CONTINUOUS
10
7.28983
20
-4.09901
11
7.28796
21
-4.09919
0
LINE
8
BLACK
6
CONTINUOUS
10
7.28796
20
-4.09919
11
7.25204
21
-4.09919
0
LINE
8
BLACK
6
CONTINUOUS
10
7.25204
20
-4.09919
11
7.25017
21
-4.09901
0
LINE
8
BLACK
6
CONTINUOUS
10
7.25017
20
-4.09901
11
7.24836
21
-4.09846
0
LINE
8
BLACK
6
CONTINUOUS
10
7.24836
20
-4.09846
11
7.24671
21
-4.09758
0
LINE
8
BLACK
6
CONTINUOUS
10
7.24671
20
-4.09758
11
7.24525
21
-4.09638
0
LINE
8
BLACK
6
CONTINUOUS
10
7.24525
20
-4.09638
11
7.24406
21
-4.09493
0
LINE
8
BLACK
6
CONTINUOUS
10
7.24406
20
-4.09493
11
7.24317
21
-4.09327
0
LINE
8
BLACK
6
CONTINUOUS
10
7.24317
20
-4.09327
11
7.24263
21
-4.09147
0
LINE
8
BLACK
6
CONTINUOUS
10
7.24263
20
-4.09147
11
7.24244
21
-4.0896
0
LINE
8
BLACK
6
CONTINUOUS
10
7.24244
20
-4.0896
11
7.24244
21
-4.0704
0
LINE
8
BLACK
6
CONTINUOUS
10
7.24244
20
-4.0704
11
7.24263
21
-4.06853
0
LINE
8
BLACK
6
CONTINUOUS
10
7.24263
20
-4.06853
11
7.24317
21
-4.06673
0
LINE
8
BLACK
6
CONTINUOUS
10
7.24317
20
-4.06673
11
7.24406
21
-4.06507
0
LINE
8
BLACK
6
CONTINUOUS
10
7.24406
20
-4.06507
11
7.24525
21
-4.06362
0
LINE
8
BLACK
6
CONTINUOUS
10
7.24525
20
-4.06362
11
7.24671
21
-4.06242
0
LINE
8
BLACK
6
CONTINUOUS
10
7.24671
20
-4.06242
11
7.24836
21
-4.06154
0
LINE
8
BLACK
6
CONTINUOUS
10
7.24836
20
-4.06154
11
7.25017
21
-4.06099
0
LINE
8
BLACK
6
CONTINUOUS
10
7.25017
20
-4.06099
11
7.25204
21
-4.06081
0
LINE
8
BLACK
6
CONTINUOUS
10
7.25204
20
-4.06081
11
7.28796
21
-4.06081
0
LINE
8
BLACK
6
CONTINUOUS
10
7.28796
20
-4.06081
11
7.28983
21
-4.06099
0
LINE
8
BLACK
6
CONTINUOUS
10
5.21147
20
-4.04263
11
5.21327
21
-4.04317
0
LINE
8
BLACK
6
CONTINUOUS
10
5.21327
20
-4.04317
11
5.21493
21
-4.04406
0
LINE
8
BLACK
6
CONTINUOUS
10
5.21493
20
-4.04406
11
5.21638
21
-4.04525
0
LINE
8
BLACK
6
CONTINUOUS
10
5.21638
20
-4.04525
11
5.21758
21
-4.04671
0
LINE
8
BLACK
6
CONTINUOUS
10
5.21758
20
-4.04671
11
5.21846
21
-4.04836
0
LINE
8
BLACK
6
CONTINUOUS
10
5.21846
20
-4.04836
11
5.21901
21
-4.05017
0
LINE
8
BLACK
6
CONTINUOUS
10
5.21901
20
-4.05017
11
5.21919
21
-4.05204
0
LINE
8
BLACK
6
CONTINUOUS
10
5.21919
20
-4.05204
11
5.21919
21
-4.08796
0
LINE
8
BLACK
6
CONTINUOUS
10
5.21919
20
-4.08796
11
5.21901
21
-4.08983
0
LINE
8
BLACK
6
CONTINUOUS
10
5.21901
20
-4.08983
11
5.21846
21
-4.09164
0
LINE
8
BLACK
6
CONTINUOUS
10
5.21846
20
-4.09164
11
5.21758
21
-4.09329
0
LINE
8
BLACK
6
CONTINUOUS
10
5.21758
20
-4.09329
11
5.21638
21
-4.09475
0
LINE
8
BLACK
6
CONTINUOUS
10
5.21638
20
-4.09475
11
5.21493
21
-4.09594
0
LINE
8
BLACK
6
CONTINUOUS
10
5.21493
20
-4.09594
11
5.21327
21
-4.09683
0
LINE
8
BLACK
6
CONTINUOUS
10
5.21327
20
-4.09683
11
5.21147
21
-4.09737
0
LINE
8
BLACK
6
CONTINUOUS
10
5.21147
20
-4.09737
11
5.2096
21
-4.09756
0
LINE
8
BLACK
6
CONTINUOUS
10
5.2096
20
-4.09756
11
5.1904
21
-4.09756
0
LINE
8
BLACK
6
CONTINUOUS
10
5.1904
20
-4.09756
11
5.18853
21
-4.09737
0
LINE
8
BLACK
6
CONTINUOUS
10
5.18853
20
-4.09737
11
5.18673
21
-4.09683
0
LINE
8
BLACK
6
CONTINUOUS
10
5.18673
20
-4.09683
11
5.18507
21
-4.09594
0
LINE
8
BLACK
6
CONTINUOUS
10
5.18507
20
-4.09594
11
5.18362
21
-4.09475
0
LINE
8
BLACK
6
CONTINUOUS
10
5.18362
20
-4.09475
11
5.18242
21
-4.09329
0
LINE
8
BLACK
6
CONTINUOUS
10
5.18242
20
-4.09329
11
5.18154
21
-4.09164
0
LINE
8
BLACK
6
CONTINUOUS
10
5.18154
20
-4.09164
11
5.18099
21
-4.08983
0
LINE
8
BLACK
6
CONTINUOUS
10
5.18099
20
-4.08983
11
5.18081
21
-4.08796
0
LINE
8
BLACK
6
CONTINUOUS
10
5.18081
20
-4.08796
11
5.18081
21
-4.05204
0
LINE
8
BLACK
6
CONTINUOUS
10
5.18081
20
-4.05204
11
5.18099
21
-4.05017
0
LINE
8
BLACK
6
CONTINUOUS
10
5.18099
20
-4.05017
11
5.18154
21
-4.04836
0
LINE
8
BLACK
6
CONTINUOUS
10
5.18154
20
-4.04836
11
5.18242
21
-4.04671
0
LINE
8
BLACK
6
CONTINUOUS
10
5.18242
20
-4.04671
11
5.18362
21
-4.04525
0
LINE
8
BLACK
6
CONTINUOUS
10
5.18362
20
-4.04525
11
5.18507
21
-4.04406
0
LINE
8
BLACK
6
CONTINUOUS
10
5.18507
20
-4.04406
11
5.18673
21
-4.04317
0
LINE
8
BLACK
6
CONTINUOUS
10
5.18673
20
-4.04317
11
5.18853
21
-4.04263
0
LINE
8
BLACK
6
CONTINUOUS
10
5.18853
20
-4.04263
11
5.1904
21
-4.04244
0
LINE
8
BLACK
6
CONTINUOUS
10
5.1904
20
-4.04244
11
5.2096
21
-4.04244
0
LINE
8
BLACK
6
CONTINUOUS
10
5.2096
20
-4.04244
11
5.21147
21
-4.04263
0
LINE
8
BLACK
6
CONTINUOUS
10
5.13765
20
-4.04263
11
5.13945
21
-4.04317
0
LINE
8
BLACK
6
CONTINUOUS
10
5.13945
20
-4.04317
11
5.14111
21
-4.04406
0
LINE
8
BLACK
6
CONTINUOUS
10
5.14111
20
-4.04406
11
5.14256
21
-4.04525
0
LINE
8
BLACK
6
CONTINUOUS
10
5.14256
20
-4.04525
11
5.14376
21
-4.04671
0
LINE
8
BLACK
6
CONTINUOUS
10
5.14376
20
-4.04671
11
5.14464
21
-4.04836
0
LINE
8
BLACK
6
CONTINUOUS
10
5.14464
20
-4.04836
11
5.14519
21
-4.05017
0
LINE
8
BLACK
6
CONTINUOUS
10
5.14519
20
-4.05017
11
5.14537
21
-4.05204
0
LINE
8
BLACK
6
CONTINUOUS
10
5.14537
20
-4.05204
11
5.14537
21
-4.08796
0
LINE
8
BLACK
6
CONTINUOUS
10
5.14537
20
-4.08796
11
5.14519
21
-4.08983
0
LINE
8
BLACK
6
CONTINUOUS
10
5.14519
20
-4.08983
11
5.14464
21
-4.09164
0
LINE
8
BLACK
6
CONTINUOUS
10
5.14464
20
-4.09164
11
5.14376
21
-4.09329
0
LINE
8
BLACK
6
CONTINUOUS
10
5.14376
20
-4.09329
11
5.14256
21
-4.09475
0
LINE
8
BLACK
6
CONTINUOUS
10
5.14256
20
-4.09475
11
5.14111
21
-4.09594
0
LINE
8
BLACK
6
CONTINUOUS
10
5.14111
20
-4.09594
11
5.13945
21
-4.09683
0
LINE
8
BLACK
6
CONTINUOUS
10
5.13945
20
-4.09683
11
5.13765
21
-4.09737
0
LINE
8
BLACK
6
CONTINUOUS
10
5.13765
20
-4.09737
11
5.13578
21
-4.09756
0
LINE
8
BLACK
6
CONTINUOUS
10
5.13578
20
-4.09756
11
5.11658
21
-4.09756
0
LINE
8
BLACK
6
CONTINUOUS
10
5.11658
20
-4.09756
11
5.11471
21
-4.09737
0
LINE
8
BLACK
6
CONTINUOUS
10
5.11471
20
-4.09737
11
5.11291
21
-4.09683
0
LINE
8
BLACK
6
CONTINUOUS
10
5.11291
20
-4.09683
11
5.11125
21
-4.09594
0
LINE
8
BLACK
6
CONTINUOUS
10
5.11125
20
-4.09594
11
5.1098
21
-4.09475
0
LINE
8
BLACK
6
CONTINUOUS
10
5.1098
20
-4.09475
11
5.10861
21
-4.09329
0
LINE
8
BLACK
6
CONTINUOUS
10
5.10861
20
-4.09329
11
5.10772
21
-4.09164
0
LINE
8
BLACK
6
CONTINUOUS
10
5.10772
20
-4.09164
11
5.10717
21
-4.08983
0
LINE
8
BLACK
6
CONTINUOUS
10
5.10717
20
-4.08983
11
5.10699
21
-4.08796
0
LINE
8
BLACK
6
CONTINUOUS
10
5.10699
20
-4.08796
11
5.10699
21
-4.05204
0
LINE
8
BLACK
6
CONTINUOUS
10
5.10699
20
-4.05204
11
5.10717
21
-4.05017
0
LINE
8
BLACK
6
CONTINUOUS
10
5.10717
20
-4.05017
11
5.10772
21
-4.04836
0
LINE
8
BLACK
6
CONTINUOUS
10
5.10772
20
-4.04836
11
5.10861
21
-4.04671
0
LINE
8
BLACK
6
CONTINUOUS
10
5.10861
20
-4.04671
11
5.1098
21
-4.04525
0
LINE
8
BLACK
6
CONTINUOUS
10
5.1098
20
-4.04525
11
5.11125
21
-4.04406
0
LINE
8
BLACK
6
CONTINUOUS
10
5.11125
20
-4.04406
11
5.11291
21
-4.04317
0
LINE
8
BLACK
6
CONTINUOUS
10
5.11291
20
-4.04317
11
5.11471
21
-4.04263
0
LINE
8
BLACK
6
CONTINUOUS
10
5.11471
20
-4.04263
11
5.11658
21
-4.04244
0
LINE
8
BLACK
6
CONTINUOUS
10
5.11658
20
-4.04244
11
5.13578
21
-4.04244
0
LINE
8
BLACK
6
CONTINUOUS
10
5.13578
20
-4.04244
11
5.13765
21
-4.04263
0
LINE
8
BLACK
6
CONTINUOUS
10
5.27456
20
-4.04263
11
5.27636
21
-4.04317
0
LINE
8
BLACK
6
CONTINUOUS
10
5.27636
20
-4.04317
11
5.27802
21
-4.04406
0
LINE
8
BLACK
6
CONTINUOUS
10
5.27802
20
-4.04406
11
5.27947
21
-4.04525
0
LINE
8
BLACK
6
CONTINUOUS
10
5.27947
20
-4.04525
11
5.28067
21
-4.04671
0
LINE
8
BLACK
6
CONTINUOUS
10
5.28067
20
-4.04671
11
5.28155
21
-4.04836
0
LINE
8
BLACK
6
CONTINUOUS
10
5.28155
20
-4.04836
11
5.2821
21
-4.05017
0
LINE
8
BLACK
6
CONTINUOUS
10
5.2821
20
-4.05017
11
5.28228
21
-4.05204
0
LINE
8
BLACK
6
CONTINUOUS
10
5.28228
20
-4.05204
11
5.28228
21
-4.08796
0
LINE
8
BLACK
6
CONTINUOUS
10
5.28228
20
-4.08796
11
5.2821
21
-4.08983
0
LINE
8
BLACK
6
CONTINUOUS
10
5.2821
20
-4.08983
11
5.28155
21
-4.09164
0
LINE
8
BLACK
6
CONTINUOUS
10
5.28155
20
-4.09164
11
5.28067
21
-4.09329
0
LINE
8
BLACK
6
CONTINUOUS
10
5.28067
20
-4.09329
11
5.27947
21
-4.09475
0
LINE
8
BLACK
6
CONTINUOUS
10
5.27947
20
-4.09475
11
5.27802
21
-4.09594
0
LINE
8
BLACK
6
CONTINUOUS
10
5.27802
20
-4.09594
11
5.27636
21
-4.09683
0
LINE
8
BLACK
6
CONTINUOUS
10
5.27636
20
-4.09683
11
5.27456
21
-4.09737
0
LINE
8
BLACK
6
CONTINUOUS
10
5.27456
20
-4.09737
11
5.27269
21
-4.09756
0
LINE
8
BLACK
6
CONTINUOUS
10
5.27269
20
-4.09756
11
5.25349
21
-4.09756
0
LINE
8
BLACK
6
CONTINUOUS
10
5.25349
20
-4.09756
11
5.25162
21
-4.09737
0
LINE
8
BLACK
6
CONTINUOUS
10
5.25162
20
-4.09737
11
5.24982
21
-4.09683
0
LINE
8
BLACK
6
CONTINUOUS
10
5.24982
20
-4.09683
11
5.24816
21
-4.09594
0
LINE
8
BLACK
6
CONTINUOUS
10
5.24816
20
-4.09594
11
5.24671
21
-4.09475
0
LINE
8
BLACK
6
CONTINUOUS
10
5.24671
20
-4.09475
11
5.24551
21
-4.09329
0
LINE
8
BLACK
6
CONTINUOUS
10
5.24551
20
-4.09329
11
5.24463
21
-4.09164
0
LINE
8
BLACK
6
CONTINUOUS
10
5.24463
20
-4.09164
11
5.24408
21
-4.08983
0
LINE
8
BLACK
6
CONTINUOUS
10
5.24408
20
-4.08983
11
5.2439
21
-4.08796
0
LINE
8
BLACK
6
CONTINUOUS
10
5.2439
20
-4.08796
11
5.2439
21
-4.05204
0
LINE
8
BLACK
6
CONTINUOUS
10
5.2439
20
-4.05204
11
5.24408
21
-4.05017
0
LINE
8
BLACK
6
CONTINUOUS
10
5.24408
20
-4.05017
11
5.24463
21
-4.04836
0
LINE
8
BLACK
6
CONTINUOUS
10
5.24463
20
-4.04836
11
5.24551
21
-4.04671
0
LINE
8
BLACK
6
CONTINUOUS
10
5.24551
20
-4.04671
11
5.24671
21
-4.04525
0
LINE
8
BLACK
6
CONTINUOUS
10
5.24671
20
-4.04525
11
5.24816
21
-4.04406
0
LINE
8
BLACK
6
CONTINUOUS
10
5.24816
20
-4.04406
11
5.24982
21
-4.04317
0
LINE
8
BLACK
6
CONTINUOUS
10
5.24982
20
-4.04317
11
5.25162
21
-4.04263
0
LINE
8
BLACK
6
CONTINUOUS
10
5.25162
20
-4.04263
11
5.25349
21
-4.04244
0
LINE
8
BLACK
6
CONTINUOUS
10
5.25349
20
-4.04244
11
5.27269
21
-4.04244
0
LINE
8
BLACK
6
CONTINUOUS
10
5.27269
20
-4.04244
11
5.27456
21
-4.04263
0
LINE
8
BLACK
6
CONTINUOUS
10
5.34838
20
-4.04263
11
5.35018
21
-4.04317
0
LINE
8
BLACK
6
CONTINUOUS
10
5.35018
20
-4.04317
11
5.35184
21
-4.04406
0
LINE
8
BLACK
6
CONTINUOUS
10
5.35184
20
-4.04406
11
5.35329
21
-4.04525
0
LINE
8
BLACK
6
CONTINUOUS
10
5.35329
20
-4.04525
11
5.35449
21
-4.04671
0
LINE
8
BLACK
6
CONTINUOUS
10
5.35449
20
-4.04671
11
5.35537
21
-4.04836
0
LINE
8
BLACK
6
CONTINUOUS
10
5.35537
20
-4.04836
11
5.35592
21
-4.05017
0
LINE
8
BLACK
6
CONTINUOUS
10
5.35592
20
-4.05017
11
5.3561
21
-4.05204
0
LINE
8
BLACK
6
CONTINUOUS
10
5.3561
20
-4.05204
11
5.3561
21
-4.08796
0
LINE
8
BLACK
6
CONTINUOUS
10
5.3561
20
-4.08796
11
5.35592
21
-4.08983
0
LINE
8
BLACK
6
CONTINUOUS
10
5.35592
20
-4.08983
11
5.35537
21
-4.09164
0
LINE
8
BLACK
6
CONTINUOUS
10
5.35537
20
-4.09164
11
5.35449
21
-4.09329
0
LINE
8
BLACK
6
CONTINUOUS
10
5.35449
20
-4.09329
11
5.35329
21
-4.09475
0
LINE
8
BLACK
6
CONTINUOUS
10
5.35329
20
-4.09475
11
5.35184
21
-4.09594
0
LINE
8
BLACK
6
CONTINUOUS
10
5.35184
20
-4.09594
11
5.35018
21
-4.09683
0
LINE
8
BLACK
6
CONTINUOUS
10
5.35018
20
-4.09683
11
5.34838
21
-4.09737
0
LINE
8
BLACK
6
CONTINUOUS
10
5.34838
20
-4.09737
11
5.34651
21
-4.09756
0
LINE
8
BLACK
6
CONTINUOUS
10
5.34651
20
-4.09756
11
5.32731
21
-4.09756
0
LINE
8
BLACK
6
CONTINUOUS
10
5.32731
20
-4.09756
11
5.32544
21
-4.09737
0
LINE
8
BLACK
6
CONTINUOUS
10
5.32544
20
-4.09737
11
5.32364
21
-4.09683
0
LINE
8
BLACK
6
CONTINUOUS
10
5.32364
20
-4.09683
11
5.32198
21
-4.09594
0
LINE
8
BLACK
6
CONTINUOUS
10
5.32198
20
-4.09594
11
5.32053
21
-4.09475
0
LINE
8
BLACK
6
CONTINUOUS
10
5.32053
20
-4.09475
11
5.31933
21
-4.09329
0
LINE
8
BLACK
6
CONTINUOUS
10
5.31933
20
-4.09329
11
5.31845
21
-4.09164
0
LINE
8
BLACK
6
CONTINUOUS
10
5.31845
20
-4.09164
11
5.3179
21
-4.08983
0
LINE
8
BLACK
6
CONTINUOUS
10
5.3179
20
-4.08983
11
5.31772
21
-4.08796
0
LINE
8
BLACK
6
CONTINUOUS
10
5.31772
20
-4.08796
11
5.31772
21
-4.05204
0
LINE
8
BLACK
6
CONTINUOUS
10
5.31772
20
-4.05204
11
5.3179
21
-4.05017
0
LINE
8
BLACK
6
CONTINUOUS
10
5.3179
20
-4.05017
11
5.31845
21
-4.04836
0
LINE
8
BLACK
6
CONTINUOUS
10
5.31845
20
-4.04836
11
5.31933
21
-4.04671
0
LINE
8
BLACK
6
CONTINUOUS
10
5.31933
20
-4.04671
11
5.32053
21
-4.04525
0
LINE
8
BLACK
6
CONTINUOUS
10
5.32053
20
-4.04525
11
5.32198
21
-4.04406
0
LINE
8
BLACK
6
CONTINUOUS
10
5.32198
20
-4.04406
11
5.32364
21
-4.04317
0
LINE
8
BLACK
6
CONTINUOUS
10
5.32364
20
-4.04317
11
5.32544
21
-4.04263
0
LINE
8
BLACK
6
CONTINUOUS
10
5.32544
20
-4.04263
11
5.32731
21
-4.04244
0
LINE
8
BLACK
6
CONTINUOUS
10
5.32731
20
-4.04244
11
5.34651
21
-4.04244
0
LINE
8
BLACK
6
CONTINUOUS
10
5.34651
20
-4.04244
11
5.34838
21
-4.04263
0
LINE
8
BLACK
6
CONTINUOUS
10
5.48529
20
-4.04263
11
5.48709
21
-4.04317
0
LINE
8
BLACK
6
CONTINUOUS
10
5.48709
20
-4.04317
11
5.48875
21
-4.04406
0
LINE
8
BLACK
6
CONTINUOUS
10
5.48875
20
-4.04406
11
5.4902
21
-4.04525
0
LINE
8
BLACK
6
CONTINUOUS
10
5.4902
20
-4.04525
11
5.49139
21
-4.04671
0
LINE
8
BLACK
6
CONTINUOUS
10
5.49139
20
-4.04671
11
5.49228
21
-4.04836
0
LINE
8
BLACK
6
CONTINUOUS
10
5.49228
20
-4.04836
11
5.49283
21
-4.05017
0
LINE
8
BLACK
6
CONTINUOUS
10
5.49283
20
-4.05017
11
5.49301
21
-4.05204
0
LINE
8
BLACK
6
CONTINUOUS
10
5.49301
20
-4.05204
11
5.49301
21
-4.08796
0
LINE
8
BLACK
6
CONTINUOUS
10
5.49301
20
-4.08796
11
5.49283
21
-4.08983
0
LINE
8
BLACK
6
CONTINUOUS
10
5.49283
20
-4.08983
11
5.49228
21
-4.09164
0
LINE
8
BLACK
6
CONTINUOUS
10
5.49228
20
-4.09164
11
5.49139
21
-4.09329
0
LINE
8
BLACK
6
CONTINUOUS
10
5.49139
20
-4.09329
11
5.4902
21
-4.09475
0
LINE
8
BLACK
6
CONTINUOUS
10
5.4902
20
-4.09475
11
5.48875
21
-4.09594
0
LINE
8
BLACK
6
CONTINUOUS
10
5.48875
20
-4.09594
11
5.48709
21
-4.09683
0
LINE
8
BLACK
6
CONTINUOUS
10
5.48709
20
-4.09683
11
5.48529
21
-4.09737
0
LINE
8
BLACK
6
CONTINUOUS
10
5.48529
20
-4.09737
11
5.48342
21
-4.09756
0
LINE
8
BLACK
6
CONTINUOUS
10
5.48342
20
-4.09756
11
5.46422
21
-4.09756
0
LINE
8
BLACK
6
CONTINUOUS
10
5.46422
20
-4.09756
11
5.46235
21
-4.09737
0
LINE
8
BLACK
6
CONTINUOUS
10
5.46235
20
-4.09737
11
5.46055
21
-4.09683
0
LINE
8
BLACK
6
CONTINUOUS
10
5.46055
20
-4.09683
11
5.45889
21
-4.09594
0
LINE
8
BLACK
6
CONTINUOUS
10
5.45889
20
-4.09594
11
5.45744
21
-4.09475
0
LINE
8
BLACK
6
CONTINUOUS
10
5.45744
20
-4.09475
11
5.45624
21
-4.09329
0
LINE
8
BLACK
6
CONTINUOUS
10
5.45624
20
-4.09329
11
5.45536
21
-4.09164
0
LINE
8
BLACK
6
CONTINUOUS
10
5.45536
20
-4.09164
11
5.45481
21
-4.08983
0
LINE
8
BLACK
6
CONTINUOUS
10
5.45481
20
-4.08983
11
5.45463
21
-4.08796
0
LINE
8
BLACK
6
CONTINUOUS
10
5.45463
20
-4.08796
11
5.45463
21
-4.05204
0
LINE
8
BLACK
6
CONTINUOUS
10
5.45463
20
-4.05204
11
5.45481
21
-4.05017
0
LINE
8
BLACK
6
CONTINUOUS
10
5.45481
20
-4.05017
11
5.45536
21
-4.04836
0
LINE
8
BLACK
6
CONTINUOUS
10
5.45536
20
-4.04836
11
5.45624
21
-4.04671
0
LINE
8
BLACK
6
CONTINUOUS
10
5.45624
20
-4.04671
11
5.45744
21
-4.04525
0
LINE
8
BLACK
6
CONTINUOUS
10
5.45744
20
-4.04525
11
5.45889
21
-4.04406
0
LINE
8
BLACK
6
CONTINUOUS
10
5.45889
20
-4.04406
11
5.46055
21
-4.04317
0
LINE
8
BLACK
6
CONTINUOUS
10
5.46055
20
-4.04317
11
5.46235
21
-4.04263
0
LINE
8
BLACK
6
CONTINUOUS
10
5.46235
20
-4.04263
11
5.46422
21
-4.04244
0
LINE
8
BLACK
6
CONTINUOUS
10
5.46422
20
-4.04244
11
5.48342
21
-4.04244
0
LINE
8
BLACK
6
CONTINUOUS
10
5.48342
20
-4.04244
11
5.48529
21
-4.04263
0
LINE
8
BLACK
6
CONTINUOUS
10
5.41147
20
-4.04263
11
5.41327
21
-4.04317
0
LINE
8
BLACK
6
CONTINUOUS
10
5.41327
20
-4.04317
11
5.41493
21
-4.04406
0
LINE
8
BLACK
6
CONTINUOUS
10
5.41493
20
-4.04406
11
5.41638
21
-4.04525
0
LINE
8
BLACK
6
CONTINUOUS
10
5.41638
20
-4.04525
11
5.41758
21
-4.04671
0
LINE
8
BLACK
6
CONTINUOUS
10
5.41758
20
-4.04671
11
5.41846
21
-4.04836
0
LINE
8
BLACK
6
CONTINUOUS
10
5.41846
20
-4.04836
11
5.41901
21
-4.05017
0
LINE
8
BLACK
6
CONTINUOUS
10
5.41901
20
-4.05017
11
5.41919
21
-4.05204
0
LINE
8
BLACK
6
CONTINUOUS
10
5.41919
20
-4.05204
11
5.41919
21
-4.08796
0
LINE
8
BLACK
6
CONTINUOUS
10
5.41919
20
-4.08796
11
5.41901
21
-4.08983
0
LINE
8
BLACK
6
CONTINUOUS
10
5.41901
20
-4.08983
11
5.41846
21
-4.09164
0
LINE
8
BLACK
6
CONTINUOUS
10
5.41846
20
-4.09164
11
5.41758
21
-4.09329
0
LINE
8
BLACK
6
CONTINUOUS
10
5.41758
20
-4.09329
11
5.41638
21
-4.09475
0
LINE
8
BLACK
6
CONTINUOUS
10
5.41638
20
-4.09475
11
5.41493
21
-4.09594
0
LINE
8
BLACK
6
CONTINUOUS
10
5.41493
20
-4.09594
11
5.41327
21
-4.09683
0
LINE
8
BLACK
6
CONTINUOUS
10
5.41327
20
-4.09683
11
5.41147
21
-4.09737
0
LINE
8
BLACK
6
CONTINUOUS
10
5.41147
20
-4.09737
11
5.4096
21
-4.09756
0
LINE
8
BLACK
6
CONTINUOUS
10
5.4096
20
-4.09756
11
5.3904
21
-4.09756
0
LINE
8
BLACK
6
CONTINUOUS
10
5.3904
20
-4.09756
11
5.38853
21
-4.09737
0
LINE
8
BLACK
6
CONTINUOUS
10
5.38853
20
-4.09737
11
5.38673
21
-4.09683
0
LINE
8
BLACK
6
CONTINUOUS
10
5.38673
20
-4.09683
11
5.38507
21
-4.09594
0
LINE
8
BLACK
6
CONTINUOUS
10
5.38507
20
-4.09594
11
5.38362
21
-4.09475
0
LINE
8
BLACK
6
CONTINUOUS
10
5.38362
20
-4.09475
11
5.38242
21
-4.09329
0
LINE
8
BLACK
6
CONTINUOUS
10
5.38242
20
-4.09329
11
5.38154
21
-4.09164
0
LINE
8
BLACK
6
CONTINUOUS
10
5.38154
20
-4.09164
11
5.38099
21
-4.08983
0
LINE
8
BLACK
6
CONTINUOUS
10
5.38099
20
-4.08983
11
5.38081
21
-4.08796
0
LINE
8
BLACK
6
CONTINUOUS
10
5.38081
20
-4.08796
11
5.38081
21
-4.05204
0
LINE
8
BLACK
6
CONTINUOUS
10
5.38081
20
-4.05204
11
5.38099
21
-4.05017
0
LINE
8
BLACK
6
CONTINUOUS
10
5.38099
20
-4.05017
11
5.38154
21
-4.04836
0
LINE
8
BLACK
6
CONTINUOUS
10
5.38154
20
-4.04836
11
5.38242
21
-4.04671
0
LINE
8
BLACK
6
CONTINUOUS
10
5.38242
20
-4.04671
11
5.38362
21
-4.04525
0
LINE
8
BLACK
6
CONTINUOUS
10
5.38362
20
-4.04525
11
5.38507
21
-4.04406
0
LINE
8
BLACK
6
CONTINUOUS
10
5.38507
20
-4.04406
11
5.38673
21
-4.04317
0
LINE
8
BLACK
6
CONTINUOUS
10
5.38673
20
-4.04317
11
5.38853
21
-4.04263
0
LINE
8
BLACK
6
CONTINUOUS
10
5.38853
20
-4.04263
11
5.3904
21
-4.04244
0
LINE
8
BLACK
6
CONTINUOUS
10
5.3904
20
-4.04244
11
5.4096
21
-4.04244
0
LINE
8
BLACK
6
CONTINUOUS
10
5.4096
20
-4.04244
11
5.41147
21
-4.04263
0
LINE
8
BLACK
6
CONTINUOUS
10
6.09302
20
-3.99861
11
6.09487
21
-3.99917
0
LINE
8
BLACK
6
CONTINUOUS
10
6.09487
20
-3.99917
11
6.09657
21
-4.00008
0
LINE
8
BLACK
6
CONTINUOUS
10
6.09657
20
-4.00008
11
6.09806
21
-4.00131
0
LINE
8
BLACK
6
CONTINUOUS
10
6.09806
20
-4.00131
11
6.09929
21
-4.0028
0
LINE
8
BLACK
6
CONTINUOUS
10
6.09929
20
-4.0028
11
6.1002
21
-4.0045
0
LINE
8
BLACK
6
CONTINUOUS
10
6.1002
20
-4.0045
11
6.10076
21
-4.00635
0
LINE
8
BLACK
6
CONTINUOUS
10
6.10076
20
-4.00635
11
6.10094
21
-4.00827
0
LINE
8
BLACK
6
CONTINUOUS
10
6.10094
20
-4.00827
11
6.10094
21
-4.04173
0
LINE
8
BLACK
6
CONTINUOUS
10
6.10094
20
-4.04173
11
6.10076
21
-4.04365
0
LINE
8
BLACK
6
CONTINUOUS
10
6.10076
20
-4.04365
11
6.1002
21
-4.0455
0
LINE
8
BLACK
6
CONTINUOUS
10
6.1002
20
-4.0455
11
6.09929
21
-4.0472
0
LINE
8
BLACK
6
CONTINUOUS
10
6.09929
20
-4.0472
11
6.09806
21
-4.04869
0
LINE
8
BLACK
6
CONTINUOUS
10
6.09806
20
-4.04869
11
6.09657
21
-4.04992
0
LINE
8
BLACK
6
CONTINUOUS
10
6.09657
20
-4.04992
11
6.09487
21
-4.05083
0
LINE
8
BLACK
6
CONTINUOUS
10
6.09487
20
-4.05083
11
6.09302
21
-4.05139
0
LINE
8
BLACK
6
CONTINUOUS
10
6.09302
20
-4.05139
11
6.0911
21
-4.05157
0
LINE
8
BLACK
6
CONTINUOUS
10
6.0911
20
-4.05157
11
5.9789
21
-4.05157
0
LINE
8
BLACK
6
CONTINUOUS
10
5.9789
20
-4.05157
11
5.97698
21
-4.05139
0
LINE
8
BLACK
6
CONTINUOUS
10
5.97698
20
-4.05139
11
5.97513
21
-4.05083
0
LINE
8
BLACK
6
CONTINUOUS
10
5.97513
20
-4.05083
11
5.97343
21
-4.04992
0
LINE
8
BLACK
6
CONTINUOUS
10
5.97343
20
-4.04992
11
5.97194
21
-4.04869
0
LINE
8
BLACK
6
CONTINUOUS
10
5.97194
20
-4.04869
11
5.97071
21
-4.0472
0
LINE
8
BLACK
6
CONTINUOUS
10
5.97071
20
-4.0472
11
5.9698
21
-4.0455
0
LINE
8
BLACK
6
CONTINUOUS
10
5.9698
20
-4.0455
11
5.96924
21
-4.04365
0
LINE
8
BLACK
6
CONTINUOUS
10
5.96924
20
-4.04365
11
5.96906
21
-4.04173
0
LINE
8
BLACK
6
CONTINUOUS
10
5.96906
20
-4.04173
11
5.96906
21
-4.00827
0
LINE
8
BLACK
6
CONTINUOUS
10
5.96906
20
-4.00827
11
5.96924
21
-4.00635
0
LINE
8
BLACK
6
CONTINUOUS
10
5.96924
20
-4.00635
11
5.9698
21
-4.0045
0
LINE
8
BLACK
6
CONTINUOUS
10
5.9698
20
-4.0045
11
5.97071
21
-4.0028
0
LINE
8
BLACK
6
CONTINUOUS
10
5.97071
20
-4.0028
11
5.97194
21
-4.00131
0
LINE
8
BLACK
6
CONTINUOUS
10
5.97194
20
-4.00131
11
5.97343
21
-4.00008
0
LINE
8
BLACK
6
CONTINUOUS
10
5.97343
20
-4.00008
11
5.97513
21
-3.99917
0
LINE
8
BLACK
6
CONTINUOUS
10
5.97513
20
-3.99917
11
5.97698
21
-3.99861
0
LINE
8
BLACK
6
CONTINUOUS
10
5.97698
20
-3.99861
11
5.9789
21
-3.99843
0
LINE
8
BLACK
6
CONTINUOUS
10
5.9789
20
-3.99843
11
6.0911
21
-3.99843
0
LINE
8
BLACK
6
CONTINUOUS
10
6.0911
20
-3.99843
11
6.09302
21
-3.99861
0
LINE
8
BLACK
6
CONTINUOUS
10
6.91802
20
-3.99861
11
6.91987
21
-3.99917
0
LINE
8
BLACK
6
CONTINUOUS
10
6.91987
20
-3.99917
11
6.92157
21
-4.00008
0
LINE
8
BLACK
6
CONTINUOUS
10
6.92157
20
-4.00008
11
6.92306
21
-4.00131
0
LINE
8
BLACK
6
CONTINUOUS
10
6.92306
20
-4.00131
11
6.92429
21
-4.0028
0
LINE
8
BLACK
6
CONTINUOUS
10
6.92429
20
-4.0028
11
6.9252
21
-4.0045
0
LINE
8
BLACK
6
CONTINUOUS
10
6.9252
20
-4.0045
11
6.92576
21
-4.00635
0
LINE
8
BLACK
6
CONTINUOUS
10
6.92576
20
-4.00635
11
6.92594
21
-4.00827
0
LINE
8
BLACK
6
CONTINUOUS
10
6.92594
20
-4.00827
11
6.92594
21
-4.04173
0
LINE
8
BLACK
6
CONTINUOUS
10
6.92594
20
-4.04173
11
6.92576
21
-4.04365
0
LINE
8
BLACK
6
CONTINUOUS
10
6.92576
20
-4.04365
11
6.9252
21
-4.0455
0
LINE
8
BLACK
6
CONTINUOUS
10
6.9252
20
-4.0455
11
6.92429
21
-4.0472
0
LINE
8
BLACK
6
CONTINUOUS
10
6.92429
20
-4.0472
11
6.92306
21
-4.04869
0
LINE
8
BLACK
6
CONTINUOUS
10
6.92306
20
-4.04869
11
6.92157
21
-4.04992
0
LINE
8
BLACK
6
CONTINUOUS
10
6.92157
20
-4.04992
11
6.91987
21
-4.05083
0
LINE
8
BLACK
6
CONTINUOUS
10
6.91987
20
-4.05083
11
6.91802
21
-4.05139
0
LINE
8
BLACK
6
CONTINUOUS
10
6.91802
20
-4.05139
11
6.9161
21
-4.05157
0
LINE
8
BLACK
6
CONTINUOUS
10
6.9161
20
-4.05157
11
6.8039
21
-4.05157
0
LINE
8
BLACK
6
CONTINUOUS
10
6.8039
20
-4.05157
11
6.80198
21
-4.05139
0
LINE
8
BLACK
6
CONTINUOUS
10
6.80198
20
-4.05139
11
6.80013
21
-4.05083
0
LINE
8
BLACK
6
CONTINUOUS
10
6.80013
20
-4.05083
11
6.79843
21
-4.04992
0
LINE
8
BLACK
6
CONTINUOUS
10
6.79843
20
-4.04992
11
6.79694
21
-4.04869
0
LINE
8
BLACK
6
CONTINUOUS
10
6.79694
20
-4.04869
11
6.79571
21
-4.0472
0
LINE
8
BLACK
6
CONTINUOUS
10
6.79571
20
-4.0472
11
6.7948
21
-4.0455
0
LINE
8
BLACK
6
CONTINUOUS
10
6.7948
20
-4.0455
11
6.79424
21
-4.04365
0
LINE
8
BLACK
6
CONTINUOUS
10
6.79424
20
-4.04365
11
6.79406
21
-4.04173
0
LINE
8
BLACK
6
CONTINUOUS
10
6.79406
20
-4.04173
11
6.79406
21
-4.00827
0
LINE
8
BLACK
6
CONTINUOUS
10
6.79406
20
-4.00827
11
6.79424
21
-4.00635
0
LINE
8
BLACK
6
CONTINUOUS
10
6.79424
20
-4.00635
11
6.7948
21
-4.0045
0
LINE
8
BLACK
6
CONTINUOUS
10
6.7948
20
-4.0045
11
6.79571
21
-4.0028
0
LINE
8
BLACK
6
CONTINUOUS
10
6.79571
20
-4.0028
11
6.79694
21
-4.00131
0
LINE
8
BLACK
6
CONTINUOUS
10
6.79694
20
-4.00131
11
6.79843
21
-4.00008
0
LINE
8
BLACK
6
CONTINUOUS
10
6.79843
20
-4.00008
11
6.80013
21
-3.99917
0
LINE
8
BLACK
6
CONTINUOUS
10
6.80013
20
-3.99917
11
6.80198
21
-3.99861
0
LINE
8
BLACK
6
CONTINUOUS
10
6.80198
20
-3.99861
11
6.8039
21
-3.99843
0
LINE
8
BLACK
6
CONTINUOUS
10
6.8039
20
-3.99843
11
6.9161
21
-3.99843
0
LINE
8
BLACK
6
CONTINUOUS
10
6.9161
20
-3.99843
11
6.91802
21
-3.99861
0
LINE
8
BLACK
6
CONTINUOUS
10
7.28983
20
-3.98717
11
7.29163
21
-3.98772
0
LINE
8
BLACK
6
CONTINUOUS
10
7.29163
20
-3.98772
11
7.29329
21
-3.98861
0
LINE
8
BLACK
6
CONTINUOUS
10
7.29329
20
-3.98861
11
7.29475
21
-3.9898
0
LINE
8
BLACK
6
CONTINUOUS
10
7.29475
20
-3.9898
11
7.29594
21
-3.99125
0
LINE
8
BLACK
6
CONTINUOUS
10
7.29594
20
-3.99125
11
7.29683
21
-3.99291
0
LINE
8
BLACK
6
CONTINUOUS
10
7.29683
20
-3.99291
11
7.29737
21
-3.99471
0
LINE
8
BLACK
6
CONTINUOUS
10
7.29737
20
-3.99471
11
7.29756
21
-3.99658
0
LINE
8
BLACK
6
CONTINUOUS
10
7.29756
20
-3.99658
11
7.29756
21
-4.01578
0
LINE
8
BLACK
6
CONTINUOUS
10
7.29756
20
-4.01578
11
7.29737
21
-4.01765
0
LINE
8
BLACK
6
CONTINUOUS
10
7.29737
20
-4.01765
11
7.29683
21
-4.01945
0
LINE
8
BLACK
6
CONTINUOUS
10
7.29683
20
-4.01945
11
7.29594
21
-4.02111
0
LINE
8
BLACK
6
CONTINUOUS
10
7.29594
20
-4.02111
11
7.29475
21
-4.02256
0
LINE
8
BLACK
6
CONTINUOUS
10
7.29475
20
-4.02256
11
7.29329
21
-4.02376
0
LINE
8
BLACK
6
CONTINUOUS
10
7.29329
20
-4.02376
11
7.29163
21
-4.02464
0
LINE
8
BLACK
6
CONTINUOUS
10
7.29163
20
-4.02464
11
7.28983
21
-4.02519
0
LINE
8
BLACK
6
CONTINUOUS
10
7.28983
20
-4.02519
11
7.28796
21
-4.02537
0
LINE
8
BLACK
6
CONTINUOUS
10
7.28796
20
-4.02537
11
7.25204
21
-4.02537
0
LINE
8
BLACK
6
CONTINUOUS
10
7.25204
20
-4.02537
11
7.25017
21
-4.02519
0
LINE
8
BLACK
6
CONTINUOUS
10
7.25017
20
-4.02519
11
7.24836
21
-4.02464
0
LINE
8
BLACK
6
CONTINUOUS
10
7.24836
20
-4.02464
11
7.24671
21
-4.02376
0
LINE
8
BLACK
6
CONTINUOUS
10
7.24671
20
-4.02376
11
7.24525
21
-4.02256
0
LINE
8
BLACK
6
CONTINUOUS
10
7.24525
20
-4.02256
11
7.24406
21
-4.02111
0
LINE
8
BLACK
6
CONTINUOUS
10
7.24406
20
-4.02111
11
7.24317
21
-4.01945
0
LINE
8
BLACK
6
CONTINUOUS
10
7.24317
20
-4.01945
11
7.24263
21
-4.01765
0
LINE
8
BLACK
6
CONTINUOUS
10
7.24263
20
-4.01765
11
7.24244
21
-4.01578
0
LINE
8
BLACK
6
CONTINUOUS
10
7.24244
20
-4.01578
11
7.24244
21
-3.99658
0
LINE
8
BLACK
6
CONTINUOUS
10
7.24244
20
-3.99658
11
7.24263
21
-3.99471
0
LINE
8
BLACK
6
CONTINUOUS
10
7.24263
20
-3.99471
11
7.24317
21
-3.99291
0
LINE
8
BLACK
6
CONTINUOUS
10
7.24317
20
-3.99291
11
7.24406
21
-3.99125
0
LINE
8
BLACK
6
CONTINUOUS
10
7.24406
20
-3.99125
11
7.24525
21
-3.9898
0
LINE
8
BLACK
6
CONTINUOUS
10
7.24525
20
-3.9898
11
7.24671
21
-3.98861
0
LINE
8
BLACK
6
CONTINUOUS
10
7.24671
20
-3.98861
11
7.24836
21
-3.98772
0
LINE
8
BLACK
6
CONTINUOUS
10
7.24836
20
-3.98772
11
7.25017
21
-3.98717
0
LINE
8
BLACK
6
CONTINUOUS
10
7.25017
20
-3.98717
11
7.25204
21
-3.98699
0
LINE
8
BLACK
6
CONTINUOUS
10
7.25204
20
-3.98699
11
7.28796
21
-3.98699
0
LINE
8
BLACK
6
CONTINUOUS
10
7.28796
20
-3.98699
11
7.28983
21
-3.98717
0
LINE
8
BLACK
6
CONTINUOUS
10
7.19653
20
-3.97535
11
7.19837
21
-3.97591
0
LINE
8
BLACK
6
CONTINUOUS
10
7.19837
20
-3.97591
11
7.20007
21
-3.97682
0
LINE
8
BLACK
6
CONTINUOUS
10
7.20007
20
-3.97682
11
7.20157
21
-3.97804
0
LINE
8
BLACK
6
CONTINUOUS
10
7.20157
20
-3.97804
11
7.20279
21
-3.97953
0
LINE
8
BLACK
6
CONTINUOUS
10
7.20279
20
-3.97953
11
7.2037
21
-3.98123
0
LINE
8
BLACK
6
CONTINUOUS
10
7.2037
20
-3.98123
11
7.20426
21
-3.98308
0
LINE
8
BLACK
6
CONTINUOUS
10
7.20426
20
-3.98308
11
7.20445
21
-3.985
0
LINE
8
BLACK
6
CONTINUOUS
10
7.20445
20
-3.985
11
7.20445
21
-4.01453
0
LINE
8
BLACK
6
CONTINUOUS
10
7.20445
20
-4.01453
11
7.20426
21
-4.01645
0
LINE
8
BLACK
6
CONTINUOUS
10
7.20426
20
-4.01645
11
7.2037
21
-4.01829
0
LINE
8
BLACK
6
CONTINUOUS
10
7.2037
20
-4.01829
11
7.20279
21
-4.02
0
LINE
8
BLACK
6
CONTINUOUS
10
7.20279
20
-4.02
11
7.20157
21
-4.02149
0
LINE
8
BLACK
6
CONTINUOUS
10
7.20157
20
-4.02149
11
7.20007
21
-4.02271
0
LINE
8
BLACK
6
CONTINUOUS
10
7.20007
20
-4.02271
11
7.19837
21
-4.02362
0
LINE
8
BLACK
6
CONTINUOUS
10
7.19837
20
-4.02362
11
7.19653
21
-4.02418
0
LINE
8
BLACK
6
CONTINUOUS
10
7.19653
20
-4.02418
11
7.19461
21
-4.02437
0
LINE
8
BLACK
6
CONTINUOUS
10
7.19461
20
-4.02437
11
7.14539
21
-4.02437
0
LINE
8
BLACK
6
CONTINUOUS
10
7.14539
20
-4.02437
11
7.14347
21
-4.02418
0
LINE
8
BLACK
6
CONTINUOUS
10
7.14347
20
-4.02418
11
7.14163
21
-4.02362
0
LINE
8
BLACK
6
CONTINUOUS
10
7.14163
20
-4.02362
11
7.13993
21
-4.02271
0
LINE
8
BLACK
6
CONTINUOUS
10
7.13993
20
-4.02271
11
7.13843
21
-4.02149
0
LINE
8
BLACK
6
CONTINUOUS
10
7.13843
20
-4.02149
11
7.13721
21
-4.02
0
LINE
8
BLACK
6
CONTINUOUS
10
7.13721
20
-4.02
11
7.1363
21
-4.01829
0
LINE
8
BLACK
6
CONTINUOUS
10
7.1363
20
-4.01829
11
7.13574
21
-4.01645
0
LINE
8
BLACK
6
CONTINUOUS
10
7.13574
20
-4.01645
11
7.13555
21
-4.01453
0
LINE
8
BLACK
6
CONTINUOUS
10
7.13555
20
-4.01453
11
7.13555
21
-3.985
0
LINE
8
BLACK
6
CONTINUOUS
10
7.13555
20
-3.985
11
7.13574
21
-3.98308
0
LINE
8
BLACK
6
CONTINUOUS
10
7.13574
20
-3.98308
11
7.1363
21
-3.98123
0
LINE
8
BLACK
6
CONTINUOUS
10
7.1363
20
-3.98123
11
7.13721
21
-3.97953
0
LINE
8
BLACK
6
CONTINUOUS
10
7.13721
20
-3.97953
11
7.13843
21
-3.97804
0
LINE
8
BLACK
6
CONTINUOUS
10
7.13843
20
-3.97804
11
7.13993
21
-3.97682
0
LINE
8
BLACK
6
CONTINUOUS
10
7.13993
20
-3.97682
11
7.14163
21
-3.97591
0
LINE
8
BLACK
6
CONTINUOUS
10
7.14163
20
-3.97591
11
7.14347
21
-3.97535
0
LINE
8
BLACK
6
CONTINUOUS
10
7.14347
20
-3.97535
11
7.14539
21
-3.97516
0
LINE
8
BLACK
6
CONTINUOUS
10
7.14539
20
-3.97516
11
7.19461
21
-3.97516
0
LINE
8
BLACK
6
CONTINUOUS
10
7.19461
20
-3.97516
11
7.19653
21
-3.97535
0
LINE
8
BLACK
6
CONTINUOUS
10
7.19653
20
-3.90558
11
7.19837
21
-3.90614
0
LINE
8
BLACK
6
CONTINUOUS
10
7.19837
20
-3.90614
11
7.20007
21
-3.90705
0
LINE
8
BLACK
6
CONTINUOUS
10
7.20007
20
-3.90705
11
7.20157
21
-3.90828
0
LINE
8
BLACK
6
CONTINUOUS
10
7.20157
20
-3.90828
11
7.20279
21
-3.90977
0
LINE
8
BLACK
6
CONTINUOUS
10
7.20279
20
-3.90977
11
7.2037
21
-3.91147
0
LINE
8
BLACK
6
CONTINUOUS
10
7.2037
20
-3.91147
11
7.20426
21
-3.91332
0
LINE
8
BLACK
6
CONTINUOUS
10
7.20426
20
-3.91332
11
7.20445
21
-3.91524
0
LINE
8
BLACK
6
CONTINUOUS
10
7.20445
20
-3.91524
11
7.20445
21
-3.94476
0
LINE
8
BLACK
6
CONTINUOUS
10
7.20445
20
-3.94476
11
7.20426
21
-3.94668
0
LINE
8
BLACK
6
CONTINUOUS
10
7.20426
20
-3.94668
11
7.2037
21
-3.94853
0
LINE
8
BLACK
6
CONTINUOUS
10
7.2037
20
-3.94853
11
7.20279
21
-3.95023
0
LINE
8
BLACK
6
CONTINUOUS
10
7.20279
20
-3.95023
11
7.20157
21
-3.95172
0
LINE
8
BLACK
6
CONTINUOUS
10
7.20157
20
-3.95172
11
7.20007
21
-3.95295
0
LINE
8
BLACK
6
CONTINUOUS
10
7.20007
20
-3.95295
11
7.19837
21
-3.95386
0
LINE
8
BLACK
6
CONTINUOUS
10
7.19837
20
-3.95386
11
7.19653
21
-3.95442
0
LINE
8
BLACK
6
CONTINUOUS
10
7.19653
20
-3.95442
11
7.19461
21
-3.95461
0
LINE
8
BLACK
6
CONTINUOUS
10
7.19461
20
-3.95461
11
7.14539
21
-3.95461
0
LINE
8
BLACK
6
CONTINUOUS
10
7.14539
20
-3.95461
11
7.14347
21
-3.95442
0
LINE
8
BLACK
6
CONTINUOUS
10
7.14347
20
-3.95442
11
7.14163
21
-3.95386
0
LINE
8
BLACK
6
CONTINUOUS
10
7.14163
20
-3.95386
11
7.13993
21
-3.95295
0
LINE
8
BLACK
6
CONTINUOUS
10
7.13993
20
-3.95295
11
7.13843
21
-3.95172
0
LINE
8
BLACK
6
CONTINUOUS
10
7.13843
20
-3.95172
11
7.13721
21
-3.95023
0
LINE
8
BLACK
6
CONTINUOUS
10
7.13721
20
-3.95023
11
7.1363
21
-3.94853
0
LINE
8
BLACK
6
CONTINUOUS
10
7.1363
20
-3.94853
11
7.13574
21
-3.94668
0
LINE
8
BLACK
6
CONTINUOUS
10
7.13574
20
-3.94668
11
7.13555
21
-3.94476
0
LINE
8
BLACK
6
CONTINUOUS
10
7.13555
20
-3.94476
11
7.13555
21
-3.91524
0
LINE
8
BLACK
6
CONTINUOUS
10
7.13555
20
-3.91524
11
7.13574
21
-3.91332
0
LINE
8
BLACK
6
CONTINUOUS
10
7.13574
20
-3.91332
11
7.1363
21
-3.91147
0
LINE
8
BLACK
6
CONTINUOUS
10
7.1363
20
-3.91147
11
7.13721
21
-3.90977
0
LINE
8
BLACK
6
CONTINUOUS
10
7.13721
20
-3.90977
11
7.13843
21
-3.90828
0
LINE
8
BLACK
6
CONTINUOUS
10
7.13843
20
-3.90828
11
7.13993
21
-3.90705
0
LINE
8
BLACK
6
CONTINUOUS
10
7.13993
20
-3.90705
11
7.14163
21
-3.90614
0
LINE
8
BLACK
6
CONTINUOUS
10
7.14163
20
-3.90614
11
7.14347
21
-3.90558
0
LINE
8
BLACK
6
CONTINUOUS
10
7.14347
20
-3.90558
11
7.14539
21
-3.90539
0
LINE
8
BLACK
6
CONTINUOUS
10
7.14539
20
-3.90539
11
7.19461
21
-3.90539
0
LINE
8
BLACK
6
CONTINUOUS
10
7.19461
20
-3.90539
11
7.19653
21
-3.90558
0
LINE
8
BLACK
6
CONTINUOUS
10
7.19653
20
-3.79535
11
7.19837
21
-3.79591
0
LINE
8
BLACK
6
CONTINUOUS
10
7.19837
20
-3.79591
11
7.20007
21
-3.79682
0
LINE
8
BLACK
6
CONTINUOUS
10
7.20007
20
-3.79682
11
7.20157
21
-3.79804
0
LINE
8
BLACK
6
CONTINUOUS
10
7.20157
20
-3.79804
11
7.20279
21
-3.79953
0
LINE
8
BLACK
6
CONTINUOUS
10
7.20279
20
-3.79953
11
7.2037
21
-3.80123
0
LINE
8
BLACK
6
CONTINUOUS
10
7.2037
20
-3.80123
11
7.20426
21
-3.80308
0
LINE
8
BLACK
6
CONTINUOUS
10
7.20426
20
-3.80308
11
7.20445
21
-3.805
0
LINE
8
BLACK
6
CONTINUOUS
10
7.20445
20
-3.805
11
7.20445
21
-3.83453
0
LINE
8
BLACK
6
CONTINUOUS
10
7.20445
20
-3.83453
11
7.20426
21
-3.83645
0
LINE
8
BLACK
6
CONTINUOUS
10
7.20426
20
-3.83645
11
7.2037
21
-3.83829
0
LINE
8
BLACK
6
CONTINUOUS
10
7.2037
20
-3.83829
11
7.20279
21
-3.84
0
LINE
8
BLACK
6
CONTINUOUS
10
7.20279
20
-3.84
11
7.20157
21
-3.84149
0
LINE
8
BLACK
6
CONTINUOUS
10
7.20157
20
-3.84149
11
7.20007
21
-3.84271
0
LINE
8
BLACK
6
CONTINUOUS
10
7.20007
20
-3.84271
11
7.19837
21
-3.84362
0
LINE
8
BLACK
6
CONTINUOUS
10
7.19837
20
-3.84362
11
7.19653
21
-3.84418
0
LINE
8
BLACK
6
CONTINUOUS
10
7.19653
20
-3.84418
11
7.19461
21
-3.84437
0
LINE
8
BLACK
6
CONTINUOUS
10
7.19461
20
-3.84437
11
7.14539
21
-3.84437
0
LINE
8
BLACK
6
CONTINUOUS
10
7.14539
20
-3.84437
11
7.14347
21
-3.84418
0
LINE
8
BLACK
6
CONTINUOUS
10
7.14347
20
-3.84418
11
7.14163
21
-3.84362
0
LINE
8
BLACK
6
CONTINUOUS
10
7.14163
20
-3.84362
11
7.13993
21
-3.84271
0
LINE
8
BLACK
6
CONTINUOUS
10
7.13993
20
-3.84271
11
7.13843
21
-3.84149
0
LINE
8
BLACK
6
CONTINUOUS
10
7.13843
20
-3.84149
11
7.13721
21
-3.84
0
LINE
8
BLACK
6
CONTINUOUS
10
7.13721
20
-3.84
11
7.1363
21
-3.83829
0
LINE
8
BLACK
6
CONTINUOUS
10
7.1363
20
-3.83829
11
7.13574
21
-3.83645
0
LINE
8
BLACK
6
CONTINUOUS
10
7.13574
20
-3.83645
11
7.13555
21
-3.83453
0
LINE
8
BLACK
6
CONTINUOUS
10
7.13555
20
-3.83453
11
7.13555
21
-3.805
0
LINE
8
BLACK
6
CONTINUOUS
10
7.13555
20
-3.805
11
7.13574
21
-3.80308
0
LINE
8
BLACK
6
CONTINUOUS
10
7.13574
20
-3.80308
11
7.1363
21
-3.80123
0
LINE
8
BLACK
6
CONTINUOUS
10
7.1363
20
-3.80123
11
7.13721
21
-3.79953
0
LINE
8
BLACK
6
CONTINUOUS
10
7.13721
20
-3.79953
11
7.13843
21
-3.79804
0
LINE
8
BLACK
6
CONTINUOUS
10
7.13843
20
-3.79804
11
7.13993
21
-3.79682
0
LINE
8
BLACK
6
CONTINUOUS
10
7.13993
20
-3.79682
11
7.14163
21
-3.79591
0
LINE
8
BLACK
6
CONTINUOUS
10
7.14163
20
-3.79591
11
7.14347
21
-3.79535
0
LINE
8
BLACK
6
CONTINUOUS
10
7.14347
20
-3.79535
11
7.14539
21
-3.79516
0
LINE
8
BLACK
6
CONTINUOUS
10
7.14539
20
-3.79516
11
7.19461
21
-3.79516
0
LINE
8
BLACK
6
CONTINUOUS
10
7.19461
20
-3.79516
11
7.19653
21
-3.79535
0
LINE
8
BLACK
6
CONTINUOUS
10
6.91802
20
-3.77027
11
6.91987
21
-3.77083
0
LINE
8
BLACK
6
CONTINUOUS
10
6.91987
20
-3.77083
11
6.92157
21
-3.77174
0
LINE
8
BLACK
6
CONTINUOUS
10
6.92157
20
-3.77174
11
6.92306
21
-3.77296
0
LINE
8
BLACK
6
CONTINUOUS
10
6.92306
20
-3.77296
11
6.92429
21
-3.77445
0
LINE
8
BLACK
6
CONTINUOUS
10
6.92429
20
-3.77445
11
6.9252
21
-3.77615
0
LINE
8
BLACK
6
CONTINUOUS
10
6.9252
20
-3.77615
11
6.92576
21
-3.778
0
LINE
8
BLACK
6
CONTINUOUS
10
6.92576
20
-3.778
11
6.92594
21
-3.77992
0
LINE
8
BLACK
6
CONTINUOUS
10
6.92594
20
-3.77992
11
6.92594
21
-3.81339
0
LINE
8
BLACK
6
CONTINUOUS
10
6.92594
20
-3.81339
11
6.92576
21
-3.81531
0
LINE
8
BLACK
6
CONTINUOUS
10
6.92576
20
-3.81531
11
6.9252
21
-3.81715
0
LINE
8
BLACK
6
CONTINUOUS
10
6.9252
20
-3.81715
11
6.92429
21
-3.81885
0
LINE
8
BLACK
6
CONTINUOUS
10
6.92429
20
-3.81885
11
6.92306
21
-3.82035
0
LINE
8
BLACK
6
CONTINUOUS
10
6.92306
20
-3.82035
11
6.92157
21
-3.82157
0
LINE
8
BLACK
6
CONTINUOUS
10
6.92157
20
-3.82157
11
6.91987
21
-3.82248
0
LINE
8
BLACK
6
CONTINUOUS
10
6.91987
20
-3.82248
11
6.91802
21
-3.82304
0
LINE
8
BLACK
6
CONTINUOUS
10
6.91802
20
-3.82304
11
6.9161
21
-3.82323
0
LINE
8
BLACK
6
CONTINUOUS
10
6.9161
20
-3.82323
11
6.8039
21
-3.82323
0
LINE
8
BLACK
6
CONTINUOUS
10
6.8039
20
-3.82323
11
6.80198
21
-3.82304
0
LINE
8
BLACK
6
CONTINUOUS
10
6.80198
20
-3.82304
11
6.80013
21
-3.82248
0
LINE
8
BLACK
6
CONTINUOUS
10
6.80013
20
-3.82248
11
6.79843
21
-3.82157
0
LINE
8
BLACK
6
CONTINUOUS
10
6.79843
20
-3.82157
11
6.79694
21
-3.82035
0
LINE
8
BLACK
6
CONTINUOUS
10
6.79694
20
-3.82035
11
6.79571
21
-3.81885
0
LINE
8
BLACK
6
CONTINUOUS
10
6.79571
20
-3.81885
11
6.7948
21
-3.81715
0
LINE
8
BLACK
6
CONTINUOUS
10
6.7948
20
-3.81715
11
6.79424
21
-3.81531
0
LINE
8
BLACK
6
CONTINUOUS
10
6.79424
20
-3.81531
11
6.79406
21
-3.81339
0
LINE
8
BLACK
6
CONTINUOUS
10
6.79406
20
-3.81339
11
6.79406
21
-3.77992
0
LINE
8
BLACK
6
CONTINUOUS
10
6.79406
20
-3.77992
11
6.79424
21
-3.778
0
LINE
8
BLACK
6
CONTINUOUS
10
6.79424
20
-3.778
11
6.7948
21
-3.77615
0
LINE
8
BLACK
6
CONTINUOUS
10
6.7948
20
-3.77615
11
6.79571
21
-3.77445
0
LINE
8
BLACK
6
CONTINUOUS
10
6.79571
20
-3.77445
11
6.79694
21
-3.77296
0
LINE
8
BLACK
6
CONTINUOUS
10
6.79694
20
-3.77296
11
6.79843
21
-3.77174
0
LINE
8
BLACK
6
CONTINUOUS
10
6.79843
20
-3.77174
11
6.80013
21
-3.77083
0
LINE
8
BLACK
6
CONTINUOUS
10
6.80013
20
-3.77083
11
6.80198
21
-3.77027
0
LINE
8
BLACK
6
CONTINUOUS
10
6.80198
20
-3.77027
11
6.8039
21
-3.77008
0
LINE
8
BLACK
6
CONTINUOUS
10
6.8039
20
-3.77008
11
6.9161
21
-3.77008
0
LINE
8
BLACK
6
CONTINUOUS
10
6.9161
20
-3.77008
11
6.91802
21
-3.77027
0
LINE
8
BLACK
6
CONTINUOUS
10
6.09302
20
-3.77027
11
6.09487
21
-3.77083
0
LINE
8
BLACK
6
CONTINUOUS
10
6.09487
20
-3.77083
11
6.09657
21
-3.77174
0
LINE
8
BLACK
6
CONTINUOUS
10
6.09657
20
-3.77174
11
6.09806
21
-3.77296
0
LINE
8
BLACK
6
CONTINUOUS
10
6.09806
20
-3.77296
11
6.09929
21
-3.77445
0
LINE
8
BLACK
6
CONTINUOUS
10
6.09929
20
-3.77445
11
6.1002
21
-3.77615
0
LINE
8
BLACK
6
CONTINUOUS
10
6.1002
20
-3.77615
11
6.10076
21
-3.778
0
LINE
8
BLACK
6
CONTINUOUS
10
6.10076
20
-3.778
11
6.10094
21
-3.77992
0
LINE
8
BLACK
6
CONTINUOUS
10
6.10094
20
-3.77992
11
6.10094
21
-3.81339
0
LINE
8
BLACK
6
CONTINUOUS
10
6.10094
20
-3.81339
11
6.10076
21
-3.81531
0
LINE
8
BLACK
6
CONTINUOUS
10
6.10076
20
-3.81531
11
6.1002
21
-3.81715
0
LINE
8
BLACK
6
CONTINUOUS
10
6.1002
20
-3.81715
11
6.09929
21
-3.81885
0
LINE
8
BLACK
6
CONTINUOUS
10
6.09929
20
-3.81885
11
6.09806
21
-3.82035
0
LINE
8
BLACK
6
CONTINUOUS
10
6.09806
20
-3.82035
11
6.09657
21
-3.82157
0
LINE
8
BLACK
6
CONTINUOUS
10
6.09657
20
-3.82157
11
6.09487
21
-3.82248
0
LINE
8
BLACK
6
CONTINUOUS
10
6.09487
20
-3.82248
11
6.09302
21
-3.82304
0
LINE
8
BLACK
6
CONTINUOUS
10
6.09302
20
-3.82304
11
6.0911
21
-3.82323
0
LINE
8
BLACK
6
CONTINUOUS
10
6.0911
20
-3.82323
11
5.9789
21
-3.82323
0
LINE
8
BLACK
6
CONTINUOUS
10
5.9789
20
-3.82323
11
5.97698
21
-3.82304
0
LINE
8
BLACK
6
CONTINUOUS
10
5.97698
20
-3.82304
11
5.97513
21
-3.82248
0
LINE
8
BLACK
6
CONTINUOUS
10
5.97513
20
-3.82248
11
5.97343
21
-3.82157
0
LINE
8
BLACK
6
CONTINUOUS
10
5.97343
20
-3.82157
11
5.97194
21
-3.82035
0
LINE
8
BLACK
6
CONTINUOUS
10
5.97194
20
-3.82035
11
5.97071
21
-3.81885
0
LINE
8
BLACK
6
CONTINUOUS
10
5.97071
20
-3.81885
11
5.9698
21
-3.81715
0
LINE
8
BLACK
6
CONTINUOUS
10
5.9698
20
-3.81715
11
5.96924
21
-3.81531
0
LINE
8
BLACK
6
CONTINUOUS
10
5.96924
20
-3.81531
11
5.96906
21
-3.81339
0
LINE
8
BLACK
6
CONTINUOUS
10
5.96906
20
-3.81339
11
5.96906
21
-3.77992
0
LINE
8
BLACK
6
CONTINUOUS
10
5.96906
20
-3.77992
11
5.96924
21
-3.778
0
LINE
8
BLACK
6
CONTINUOUS
10
5.96924
20
-3.778
11
5.9698
21
-3.77615
0
LINE
8
BLACK
6
CONTINUOUS
10
5.9698
20
-3.77615
11
5.97071
21
-3.77445
0
LINE
8
BLACK
6
CONTINUOUS
10
5.97071
20
-3.77445
11
5.97194
21
-3.77296
0
LINE
8
BLACK
6
CONTINUOUS
10
5.97194
20
-3.77296
11
5.97343
21
-3.77174
0
LINE
8
BLACK
6
CONTINUOUS
10
5.97343
20
-3.77174
11
5.97513
21
-3.77083
0
LINE
8
BLACK
6
CONTINUOUS
10
5.97513
20
-3.77083
11
5.97698
21
-3.77027
0
LINE
8
BLACK
6
CONTINUOUS
10
5.97698
20
-3.77027
11
5.9789
21
-3.77008
0
LINE
8
BLACK
6
CONTINUOUS
10
5.9789
20
-3.77008
11
6.0911
21
-3.77008
0
LINE
8
BLACK
6
CONTINUOUS
10
6.0911
20
-3.77008
11
6.09302
21
-3.77027
0
LINE
8
BLACK
6
CONTINUOUS
10
6.2476
20
-3.69291
11
6.04091
21
-3.69291
0
LINE
8
BLACK
6
CONTINUOUS
10
6.04091
20
-3.69291
11
6.04091
21
-3.51378
0
LINE
8
BLACK
6
CONTINUOUS
10
6.04091
20
-3.51378
11
6.2476
21
-3.51378
0
LINE
8
BLACK
6
CONTINUOUS
10
6.2476
20
-3.51378
11
6.2476
21
-3.69291
0
LINE
8
BLACK
6
CONTINUOUS
10
6.02909
20
-3.69291
11
5.8224
21
-3.69291
0
LINE
8
BLACK
6
CONTINUOUS
10
5.8224
20
-3.69291
11
5.8224
21
-3.51378
0
LINE
8
BLACK
6
CONTINUOUS
10
5.8224
20
-3.51378
11
6.02909
21
-3.51378
0
LINE
8
BLACK
6
CONTINUOUS
10
6.02909
20
-3.51378
11
6.02909
21
-3.69291
0
LINE
8
BLACK
6
CONTINUOUS
10
6.92484
20
-3.69291
11
6.71815
21
-3.69291
0
LINE
8
BLACK
6
CONTINUOUS
10
6.71815
20
-3.69291
11
6.71815
21
-3.51378
0
LINE
8
BLACK
6
CONTINUOUS
10
6.71815
20
-3.51378
11
6.92484
21
-3.51378
0
LINE
8
BLACK
6
CONTINUOUS
10
6.92484
20
-3.51378
11
6.92484
21
-3.69291
0
LINE
8
BLACK
6
CONTINUOUS
10
7.14335
20
-3.69291
11
6.93665
21
-3.69291
0
LINE
8
BLACK
6
CONTINUOUS
10
6.93665
20
-3.69291
11
6.93665
21
-3.51378
0
LINE
8
BLACK
6
CONTINUOUS
10
6.93665
20
-3.51378
11
7.14335
21
-3.51378
0
LINE
8
BLACK
6
CONTINUOUS
10
7.14335
20
-3.51378
11
7.14335
21
-3.69291
0
LINE
8
BLACK
6
CONTINUOUS
10
6.02909
20
-3.50197
11
5.8224
21
-3.50197
0
LINE
8
BLACK
6
CONTINUOUS
10
5.8224
20
-3.50197
11
5.8224
21
-3.32283
0
LINE
8
BLACK
6
CONTINUOUS
10
5.8224
20
-3.32283
11
6.02909
21
-3.32283
0
LINE
8
BLACK
6
CONTINUOUS
10
6.02909
20
-3.32283
11
6.02909
21
-3.50197
0
LINE
8
BLACK
6
CONTINUOUS
10
6.2476
20
-3.50197
11
6.04091
21
-3.50197
0
LINE
8
BLACK
6
CONTINUOUS
10
6.04091
20
-3.50197
11
6.04091
21
-3.32283
0
LINE
8
BLACK
6
CONTINUOUS
10
6.04091
20
-3.32283
11
6.2476
21
-3.32283
0
LINE
8
BLACK
6
CONTINUOUS
10
6.2476
20
-3.32283
11
6.2476
21
-3.50197
0
LINE
8
BLACK
6
CONTINUOUS
10
7.14335
20
-3.50197
11
6.93665
21
-3.50197
0
LINE
8
BLACK
6
CONTINUOUS
10
6.93665
20
-3.50197
11
6.93665
21
-3.32283
0
LINE
8
BLACK
6
CONTINUOUS
10
6.93665
20
-3.32283
11
7.14335
21
-3.32283
0
LINE
8
BLACK
6
CONTINUOUS
10
7.14335
20
-3.32283
11
7.14335
21
-3.50197
0
LINE
8
BLACK
6
CONTINUOUS
10
6.92484
20
-3.50197
11
6.71815
21
-3.50197
0
LINE
8
BLACK
6
CONTINUOUS
10
6.71815
20
-3.50197
11
6.71815
21
-3.32283
0
LINE
8
BLACK
6
CONTINUOUS
10
6.71815
20
-3.32283
11
6.92484
21
-3.32283
0
LINE
8
BLACK
6
CONTINUOUS
10
6.92484
20
-3.32283
11
6.92484
21
-3.50197
0
LINE
8
BLACK
6
CONTINUOUS
10
5.95665
20
-3.23819
11
5.91335
21
-3.23819
0
LINE
8
BLACK
6
CONTINUOUS
10
5.91335
20
-3.23819
11
5.91335
21
-3.05709
0
LINE
8
BLACK
6
CONTINUOUS
10
5.91335
20
-3.05709
11
5.95665
21
-3.05709
0
LINE
8
BLACK
6
CONTINUOUS
10
5.95665
20
-3.05709
11
5.95665
21
-3.23819
0
LINE
8
BLACK
6
CONTINUOUS
10
6.15665
20
-3.23819
11
6.11335
21
-3.23819
0
LINE
8
BLACK
6
CONTINUOUS
10
6.11335
20
-3.23819
11
6.11335
21
-3.05709
0
LINE
8
BLACK
6
CONTINUOUS
10
6.11335
20
-3.05709
11
6.15665
21
-3.05709
0
LINE
8
BLACK
6
CONTINUOUS
10
6.15665
20
-3.05709
11
6.15665
21
-3.23819
0
LINE
8
BLACK
6
CONTINUOUS
10
7.0524
20
-3.23819
11
7.00909
21
-3.23819
0
LINE
8
BLACK
6
CONTINUOUS
10
7.00909
20
-3.23819
11
7.00909
21
-3.05709
0
LINE
8
BLACK
6
CONTINUOUS
10
7.00909
20
-3.05709
11
7.0524
21
-3.05709
0
LINE
8
BLACK
6
CONTINUOUS
10
7.0524
20
-3.05709
11
7.0524
21
-3.23819
0
LINE
8
BLACK
6
CONTINUOUS
10
6.8524
20
-3.23819
11
6.80909
21
-3.23819
0
LINE
8
BLACK
6
CONTINUOUS
10
6.80909
20
-3.23819
11
6.80909
21
-3.05709
0
LINE
8
BLACK
6
CONTINUOUS
10
6.80909
20
-3.05709
11
6.8524
21
-3.05709
0
LINE
8
BLACK
6
CONTINUOUS
10
6.8524
20
-3.05709
11
6.8524
21
-3.23819
0
LINE
8
BLACK
6
CONTINUOUS
10
5.55653
20
-2.99582
11
5.55837
21
-2.99638
0
LINE
8
BLACK
6
CONTINUOUS
10
5.55837
20
-2.99638
11
5.56007
21
-2.99729
0
LINE
8
BLACK
6
CONTINUOUS
10
5.56007
20
-2.99729
11
5.56157
21
-2.99851
0
LINE
8
BLACK
6
CONTINUOUS
10
5.56157
20
-2.99851
11
5.56279
21
-3
0
LINE
8
BLACK
6
CONTINUOUS
10
5.56279
20
-3
11
5.5637
21
-3.00171
0
LINE
8
BLACK
6
CONTINUOUS
10
5.5637
20
-3.00171
11
5.56426
21
-3.00355
0
LINE
8
BLACK
6
CONTINUOUS
10
5.56426
20
-3.00355
11
5.56445
21
-3.00547
0
LINE
8
BLACK
6
CONTINUOUS
10
5.56445
20
-3.00547
11
5.56445
21
-3.035
0
LINE
8
BLACK
6
CONTINUOUS
10
5.56445
20
-3.035
11
5.56426
21
-3.03692
0
LINE
8
BLACK
6
CONTINUOUS
10
5.56426
20
-3.03692
11
5.5637
21
-3.03877
0
LINE
8
BLACK
6
CONTINUOUS
10
5.5637
20
-3.03877
11
5.56279
21
-3.04047
0
LINE
8
BLACK
6
CONTINUOUS
10
5.56279
20
-3.04047
11
5.56157
21
-3.04196
0
LINE
8
BLACK
6
CONTINUOUS
10
5.56157
20
-3.04196
11
5.56007
21
-3.04318
0
LINE
8
BLACK
6
CONTINUOUS
10
5.56007
20
-3.04318
11
5.55837
21
-3.04409
0
LINE
8
BLACK
6
CONTINUOUS
10
5.55837
20
-3.04409
11
5.55653
21
-3.04465
0
LINE
8
BLACK
6
CONTINUOUS
10
5.55653
20
-3.04465
11
5.55461
21
-3.04484
0
LINE
8
BLACK
6
CONTINUOUS
10
5.55461
20
-3.04484
11
5.50539
21
-3.04484
0
LINE
8
BLACK
6
CONTINUOUS
10
5.50539
20
-3.04484
11
5.50347
21
-3.04465
0
LINE
8
BLACK
6
CONTINUOUS
10
5.50347
20
-3.04465
11
5.50163
21
-3.04409
0
LINE
8
BLACK
6
CONTINUOUS
10
5.50163
20
-3.04409
11
5.49993
21
-3.04318
0
LINE
8
BLACK
6
CONTINUOUS
10
5.49993
20
-3.04318
11
5.49843
21
-3.04196
0
LINE
8
BLACK
6
CONTINUOUS
10
5.49843
20
-3.04196
11
5.49721
21
-3.04047
0
LINE
8
BLACK
6
CONTINUOUS
10
5.49721
20
-3.04047
11
5.4963
21
-3.03877
0
LINE
8
BLACK
6
CONTINUOUS
10
5.4963
20
-3.03877
11
5.49574
21
-3.03692
0
LINE
8
BLACK
6
CONTINUOUS
10
5.49574
20
-3.03692
11
5.49555
21
-3.035
0
LINE
8
BLACK
6
CONTINUOUS
10
5.49555
20
-3.035
11
5.49555
21
-3.00547
0
LINE
8
BLACK
6
CONTINUOUS
10
5.49555
20
-3.00547
11
5.49574
21
-3.00355
0
LINE
8
BLACK
6
CONTINUOUS
10
5.49574
20
-3.00355
11
5.4963
21
-3.00171
0
LINE
8
BLACK
6
CONTINUOUS
10
5.4963
20
-3.00171
11
5.49721
21
-3
0
LINE
8
BLACK
6
CONTINUOUS
10
5.49721
20
-3
11
5.49843
21
-2.99851
0
LINE
8
BLACK
6
CONTINUOUS
10
5.49843
20
-2.99851
11
5.49993
21
-2.99729
0
LINE
8
BLACK
6
CONTINUOUS
10
5.49993
20
-2.99729
11
5.50163
21
-2.99638
0
LINE
8
BLACK
6
CONTINUOUS
10
5.50163
20
-2.99638
11
5.50347
21
-2.99582
0
LINE
8
BLACK
6
CONTINUOUS
10
5.50347
20
-2.99582
11
5.50539
21
-2.99563
0
LINE
8
BLACK
6
CONTINUOUS
10
5.50539
20
-2.99563
11
5.55461
21
-2.99563
0
LINE
8
BLACK
6
CONTINUOUS
10
5.55461
20
-2.99563
11
5.55653
21
-2.99582
0
LINE
8
BLACK
6
CONTINUOUS
10
4.88983
20
-2.9979
11
4.89163
21
-2.99845
0
LINE
8
BLACK
6
CONTINUOUS
10
4.89163
20
-2.99845
11
4.89329
21
-2.99933
0
LINE
8
BLACK
6
CONTINUOUS
10
4.89329
20
-2.99933
11
4.89475
21
-3.00053
0
LINE
8
BLACK
6
CONTINUOUS
10
4.89475
20
-3.00053
11
4.89594
21
-3.00198
0
LINE
8
BLACK
6
CONTINUOUS
10
4.89594
20
-3.00198
11
4.89683
21
-3.00364
0
LINE
8
BLACK
6
CONTINUOUS
10
4.89683
20
-3.00364
11
4.89737
21
-3.00544
0
LINE
8
BLACK
6
CONTINUOUS
10
4.89737
20
-3.00544
11
4.89756
21
-3.00731
0
LINE
8
BLACK
6
CONTINUOUS
10
4.89756
20
-3.00731
11
4.89756
21
-3.02651
0
LINE
8
BLACK
6
CONTINUOUS
10
4.89756
20
-3.02651
11
4.89737
21
-3.02838
0
LINE
8
BLACK
6
CONTINUOUS
10
4.89737
20
-3.02838
11
4.89683
21
-3.03018
0
LINE
8
BLACK
6
CONTINUOUS
10
4.89683
20
-3.03018
11
4.89594
21
-3.03184
0
LINE
8
BLACK
6
CONTINUOUS
10
4.89594
20
-3.03184
11
4.89475
21
-3.03329
0
LINE
8
BLACK
6
CONTINUOUS
10
4.89475
20
-3.03329
11
4.89329
21
-3.03449
0
LINE
8
BLACK
6
CONTINUOUS
10
4.89329
20
-3.03449
11
4.89163
21
-3.03537
0
LINE
8
BLACK
6
CONTINUOUS
10
4.89163
20
-3.03537
11
4.88983
21
-3.03592
0
LINE
8
BLACK
6
CONTINUOUS
10
4.88983
20
-3.03592
11
4.88796
21
-3.0361
0
LINE
8
BLACK
6
CONTINUOUS
10
4.88796
20
-3.0361
11
4.85204
21
-3.0361
0
LINE
8
BLACK
6
CONTINUOUS
10
4.85204
20
-3.0361
11
4.85017
21
-3.03592
0
LINE
8
BLACK
6
CONTINUOUS
10
4.85017
20
-3.03592
11
4.84837
21
-3.03537
0
LINE
8
BLACK
6
CONTINUOUS
10
4.84837
20
-3.03537
11
4.84671
21
-3.03449
0
LINE
8
BLACK
6
CONTINUOUS
10
4.84671
20
-3.03449
11
4.84525
21
-3.03329
0
LINE
8
BLACK
6
CONTINUOUS
10
4.84525
20
-3.03329
11
4.84406
21
-3.03184
0
LINE
8
BLACK
6
CONTINUOUS
10
4.84406
20
-3.03184
11
4.84317
21
-3.03018
0
LINE
8
BLACK
6
CONTINUOUS
10
4.84317
20
-3.03018
11
4.84263
21
-3.02838
0
LINE
8
BLACK
6
CONTINUOUS
10
4.84263
20
-3.02838
11
4.84244
21
-3.02651
0
LINE
8
BLACK
6
CONTINUOUS
10
4.84244
20
-3.02651
11
4.84244
21
-3.00731
0
LINE
8
BLACK
6
CONTINUOUS
10
4.84244
20
-3.00731
11
4.84263
21
-3.00544
0
LINE
8
BLACK
6
CONTINUOUS
10
4.84263
20
-3.00544
11
4.84317
21
-3.00364
0
LINE
8
BLACK
6
CONTINUOUS
10
4.84317
20
-3.00364
11
4.84406
21
-3.00198
0
LINE
8
BLACK
6
CONTINUOUS
10
4.84406
20
-3.00198
11
4.84525
21
-3.00053
0
LINE
8
BLACK
6
CONTINUOUS
10
4.84525
20
-3.00053
11
4.84671
21
-2.99933
0
LINE
8
BLACK
6
CONTINUOUS
10
4.84671
20
-2.99933
11
4.84837
21
-2.99845
0
LINE
8
BLACK
6
CONTINUOUS
10
4.84837
20
-2.99845
11
4.85017
21
-2.9979
0
LINE
8
BLACK
6
CONTINUOUS
10
4.85017
20
-2.9979
11
4.85204
21
-2.99772
0
LINE
8
BLACK
6
CONTINUOUS
10
4.85204
20
-2.99772
11
4.88796
21
-2.99772
0
LINE
8
BLACK
6
CONTINUOUS
10
4.88796
20
-2.99772
11
4.88983
21
-2.9979
0
LINE
8
BLACK
6
CONTINUOUS
10
5.087
20
-3.0284
11
5.035
21
-3.0284
0
LINE
8
BLACK
6
CONTINUOUS
10
5.035
20
-3.0284
11
5.035
21
-3.0064
0
LINE
8
BLACK
6
CONTINUOUS
10
5.035
20
-3.0064
11
5.087
21
-3.0064
0
LINE
8
BLACK
6
CONTINUOUS
10
5.087
20
-3.0064
11
5.087
21
-3.0284
0
LINE
8
BLACK
6
CONTINUOUS
10
4.985
20
-3.0284
11
4.933
21
-3.0284
0
LINE
8
BLACK
6
CONTINUOUS
10
4.933
20
-3.0284
11
4.933
21
-3.0064
0
LINE
8
BLACK
6
CONTINUOUS
10
4.933
20
-3.0064
11
4.985
21
-3.0064
0
LINE
8
BLACK
6
CONTINUOUS
10
4.985
20
-3.0064
11
4.985
21
-3.0284
0
LINE
8
BLACK
6
CONTINUOUS
10
5.6462
20
-3.023
11
5.6242
21
-3.023
0
LINE
8
BLACK
6
CONTINUOUS
10
5.6242
20
-3.023
11
5.6242
21
-2.965
0
LINE
8
BLACK
6
CONTINUOUS
10
5.6242
20
-2.965
11
5.6462
21
-2.965
0
LINE
8
BLACK
6
CONTINUOUS
10
5.6462
20
-2.965
11
5.6462
21
-3.023
0
LINE
8
BLACK
6
CONTINUOUS
10
5.721
20
-3.023
11
5.699
21
-3.023
0
LINE
8
BLACK
6
CONTINUOUS
10
5.699
20
-3.023
11
5.699
21
-2.965
0
LINE
8
BLACK
6
CONTINUOUS
10
5.699
20
-2.965
11
5.721
21
-2.965
0
LINE
8
BLACK
6
CONTINUOUS
10
5.721
20
-2.965
11
5.721
21
-3.023
0
LINE
8
BLACK
6
CONTINUOUS
10
5.087
20
-2.991
11
5.035
21
-2.991
0
LINE
8
BLACK
6
CONTINUOUS
10
5.035
20
-2.991
11
5.035
21
-2.969
0
LINE
8
BLACK
6
CONTINUOUS
10
5.035
20
-2.969
11
5.087
21
-2.969
0
LINE
8
BLACK
6
CONTINUOUS
10
5.087
20
-2.969
11
5.087
21
-2.991
0
LINE
8
BLACK
6
CONTINUOUS
10
4.88983
20
-2.92408
11
4.89163
21
-2.92463
0
LINE
8
BLACK
6
CONTINUOUS
10
4.89163
20
-2.92463
11
4.89329
21
-2.92551
0
LINE
8
BLACK
6
CONTINUOUS
10
4.89329
20
-2.92551
11
4.89475
21
-2.92671
0
LINE
8
BLACK
6
CONTINUOUS
10
4.89475
20
-2.92671
11
4.89594
21
-2.92816
0
LINE
8
BLACK
6
CONTINUOUS
10
4.89594
20
-2.92816
11
4.89683
21
-2.92982
0
LINE
8
BLACK
6
CONTINUOUS
10
4.89683
20
-2.92982
11
4.89737
21
-2.93162
0
LINE
8
BLACK
6
CONTINUOUS
10
4.89737
20
-2.93162
11
4.89756
21
-2.93349
0
LINE
8
BLACK
6
CONTINUOUS
10
4.89756
20
-2.93349
11
4.89756
21
-2.95269
0
LINE
8
BLACK
6
CONTINUOUS
10
4.89756
20
-2.95269
11
4.89737
21
-2.95456
0
LINE
8
BLACK
6
CONTINUOUS
10
4.89737
20
-2.95456
11
4.89683
21
-2.95636
0
LINE
8
BLACK
6
CONTINUOUS
10
4.89683
20
-2.95636
11
4.89594
21
-2.95802
0
LINE
8
BLACK
6
CONTINUOUS
10
4.89594
20
-2.95802
11
4.89475
21
-2.95947
0
LINE
8
BLACK
6
CONTINUOUS
10
4.89475
20
-2.95947
11
4.89329
21
-2.96067
0
LINE
8
BLACK
6
CONTINUOUS
10
4.89329
20
-2.96067
11
4.89163
21
-2.96155
0
LINE
8
BLACK
6
CONTINUOUS
10
4.89163
20
-2.96155
11
4.88983
21
-2.9621
0
LINE
8
BLACK
6
CONTINUOUS
10
4.88983
20
-2.9621
11
4.88796
21
-2.96228
0
LINE
8
BLACK
6
CONTINUOUS
10
4.88796
20
-2.96228
11
4.85204
21
-2.96228
0
LINE
8
BLACK
6
CONTINUOUS
10
4.85204
20
-2.96228
11
4.85017
21
-2.9621
0
LINE
8
BLACK
6
CONTINUOUS
10
4.85017
20
-2.9621
11
4.84837
21
-2.96155
0
LINE
8
BLACK
6
CONTINUOUS
10
4.84837
20
-2.96155
11
4.84671
21
-2.96067
0
LINE
8
BLACK
6
CONTINUOUS
10
4.84671
20
-2.96067
11
4.84525
21
-2.95947
0
LINE
8
BLACK
6
CONTINUOUS
10
4.84525
20
-2.95947
11
4.84406
21
-2.95802
0
LINE
8
BLACK
6
CONTINUOUS
10
4.84406
20
-2.95802
11
4.84317
21
-2.95636
0
LINE
8
BLACK
6
CONTINUOUS
10
4.84317
20
-2.95636
11
4.84263
21
-2.95456
0
LINE
8
BLACK
6
CONTINUOUS
10
4.84263
20
-2.95456
11
4.84244
21
-2.95269
0
LINE
8
BLACK
6
CONTINUOUS
10
4.84244
20
-2.95269
11
4.84244
21
-2.93349
0
LINE
8
BLACK
6
CONTINUOUS
10
4.84244
20
-2.93349
11
4.84263
21
-2.93162
0
LINE
8
BLACK
6
CONTINUOUS
10
4.84263
20
-2.93162
11
4.84317
21
-2.92982
0
LINE
8
BLACK
6
CONTINUOUS
10
4.84317
20
-2.92982
11
4.84406
21
-2.92816
0
LINE
8
BLACK
6
CONTINUOUS
10
4.84406
20
-2.92816
11
4.84525
21
-2.92671
0
LINE
8
BLACK
6
CONTINUOUS
10
4.84525
20
-2.92671
11
4.84671
21
-2.92551
0
LINE
8
BLACK
6
CONTINUOUS
10
4.84671
20
-2.92551
11
4.84837
21
-2.92463
0
LINE
8
BLACK
6
CONTINUOUS
10
4.84837
20
-2.92463
11
4.85017
21
-2.92408
0
LINE
8
BLACK
6
CONTINUOUS
10
4.85017
20
-2.92408
11
4.85204
21
-2.9239
0
LINE
8
BLACK
6
CONTINUOUS
10
4.85204
20
-2.9239
11
4.88796
21
-2.9239
0
LINE
8
BLACK
6
CONTINUOUS
10
4.88796
20
-2.9239
11
4.88983
21
-2.92408
0
LINE
8
BLACK
6
CONTINUOUS
10
4.985
20
-2.9536
11
4.933
21
-2.9536
0
LINE
8
BLACK
6
CONTINUOUS
10
4.933
20
-2.9536
11
4.933
21
-2.9316
0
LINE
8
BLACK
6
CONTINUOUS
10
4.933
20
-2.9316
11
4.985
21
-2.9316
0
LINE
8
BLACK
6
CONTINUOUS
10
4.985
20
-2.9316
11
4.985
21
-2.9536
0
LINE
8
BLACK
6
CONTINUOUS
10
5.087
20
-2.9536
11
5.035
21
-2.9536
0
LINE
8
BLACK
6
CONTINUOUS
10
5.035
20
-2.9536
11
5.035
21
-2.9316
0
LINE
8
BLACK
6
CONTINUOUS
10
5.035
20
-2.9316
11
5.087
21
-2.9316
0
LINE
8
BLACK
6
CONTINUOUS
10
5.087
20
-2.9316
11
5.087
21
-2.9536
0
LINE
8
BLACK
6
CONTINUOUS
10
5.721
20
-2.935
11
5.699
21
-2.935
0
LINE
8
BLACK
6
CONTINUOUS
10
5.699
20
-2.935
11
5.699
21
-2.877
0
LINE
8
BLACK
6
CONTINUOUS
10
5.699
20
-2.877
11
5.721
21
-2.877
0
LINE
8
BLACK
6
CONTINUOUS
10
5.721
20
-2.877
11
5.721
21
-2.935
0
LINE
8
BLACK
6
CONTINUOUS
10
5.6462
20
-2.935
11
5.6242
21
-2.935
0
LINE
8
BLACK
6
CONTINUOUS
10
5.6242
20
-2.935
11
5.6242
21
-2.877
0
LINE
8
BLACK
6
CONTINUOUS
10
5.6242
20
-2.877
11
5.6462
21
-2.877
0
LINE
8
BLACK
6
CONTINUOUS
10
5.6462
20
-2.877
11
5.6462
21
-2.935
0
LINE
8
BLACK
6
CONTINUOUS
10
5.6836
20
-2.935
11
5.6616
21
-2.935
0
LINE
8
BLACK
6
CONTINUOUS
10
5.6616
20
-2.935
11
5.6616
21
-2.877
0
LINE
8
BLACK
6
CONTINUOUS
10
5.6616
20
-2.877
11
5.6836
21
-2.877
0
LINE
8
BLACK
6
CONTINUOUS
10
5.6836
20
-2.877
11
5.6836
21
-2.935
0
LINE
8
BLACK
6
CONTINUOUS
10
5.55653
20
-2.88558
11
5.55837
21
-2.88614
0
LINE
8
BLACK
6
CONTINUOUS
10
5.55837
20
-2.88614
11
5.56007
21
-2.88705
0
LINE
8
BLACK
6
CONTINUOUS
10
5.56007
20
-2.88705
11
5.56157
21
-2.88828
0
LINE
8
BLACK
6
CONTINUOUS
10
5.56157
20
-2.88828
11
5.56279
21
-2.88977
0
LINE
8
BLACK
6
CONTINUOUS
10
5.56279
20
-2.88977
11
5.5637
21
-2.89147
0
LINE
8
BLACK
6
CONTINUOUS
10
5.5637
20
-2.89147
11
5.56426
21
-2.89332
0
LINE
8
BLACK
6
CONTINUOUS
10
5.56426
20
-2.89332
11
5.56445
21
-2.89524
0
LINE
8
BLACK
6
CONTINUOUS
10
5.56445
20
-2.89524
11
5.56445
21
-2.92476
0
LINE
8
BLACK
6
CONTINUOUS
10
5.56445
20
-2.92476
11
5.56426
21
-2.92668
0
LINE
8
BLACK
6
CONTINUOUS
10
5.56426
20
-2.92668
11
5.5637
21
-2.92853
0
LINE
8
BLACK
6
CONTINUOUS
10
5.5637
20
-2.92853
11
5.56279
21
-2.93023
0
LINE
8
BLACK
6
CONTINUOUS
10
5.56279
20
-2.93023
11
5.56157
21
-2.93172
0
LINE
8
BLACK
6
CONTINUOUS
10
5.56157
20
-2.93172
11
5.56007
21
-2.93295
0
LINE
8
BLACK
6
CONTINUOUS
10
5.56007
20
-2.93295
11
5.55837
21
-2.93386
0
LINE
8
BLACK
6
CONTINUOUS
10
5.55837
20
-2.93386
11
5.55653
21
-2.93442
0
LINE
8
BLACK
6
CONTINUOUS
10
5.55653
20
-2.93442
11
5.55461
21
-2.93461
0
LINE
8
BLACK
6
CONTINUOUS
10
5.55461
20
-2.93461
11
5.50539
21
-2.93461
0
LINE
8
BLACK
6
CONTINUOUS
10
5.50539
20
-2.93461
11
5.50347
21
-2.93442
0
LINE
8
BLACK
6
CONTINUOUS
10
5.50347
20
-2.93442
11
5.50163
21
-2.93386
0
LINE
8
BLACK
6
CONTINUOUS
10
5.50163
20
-2.93386
11
5.49993
21
-2.93295
0
LINE
8
BLACK
6
CONTINUOUS
10
5.49993
20
-2.93295
11
5.49843
21
-2.93172
0
LINE
8
BLACK
6
CONTINUOUS
10
5.49843
20
-2.93172
11
5.49721
21
-2.93023
0
LINE
8
BLACK
6
CONTINUOUS
10
5.49721
20
-2.93023
11
5.4963
21
-2.92853
0
LINE
8
BLACK
6
CONTINUOUS
10
5.4963
20
-2.92853
11
5.49574
21
-2.92668
0
LINE
8
BLACK
6
CONTINUOUS
10
5.49574
20
-2.92668
11
5.49555
21
-2.92476
0
LINE
8
BLACK
6
CONTINUOUS
10
5.49555
20
-2.92476
11
5.49555
21
-2.89524
0
LINE
8
BLACK
6
CONTINUOUS
10
5.49555
20
-2.89524
11
5.49574
21
-2.89332
0
LINE
8
BLACK
6
CONTINUOUS
10
5.49574
20
-2.89332
11
5.4963
21
-2.89147
0
LINE
8
BLACK
6
CONTINUOUS
10
5.4963
20
-2.89147
11
5.49721
21
-2.88977
0
LINE
8
BLACK
6
CONTINUOUS
10
5.49721
20
-2.88977
11
5.49843
21
-2.88828
0
LINE
8
BLACK
6
CONTINUOUS
10
5.49843
20
-2.88828
11
5.49993
21
-2.88705
0
LINE
8
BLACK
6
CONTINUOUS
10
5.49993
20
-2.88705
11
5.50163
21
-2.88614
0
LINE
8
BLACK
6
CONTINUOUS
10
5.50163
20
-2.88614
11
5.50347
21
-2.88558
0
LINE
8
BLACK
6
CONTINUOUS
10
5.50347
20
-2.88558
11
5.50539
21
-2.88539
0
LINE
8
BLACK
6
CONTINUOUS
10
5.50539
20
-2.88539
11
5.55461
21
-2.88539
0
LINE
8
BLACK
6
CONTINUOUS
10
5.55461
20
-2.88539
11
5.55653
21
-2.88558
  0
ENDSEC
  0
EOF
