G04 #@! TF.GenerationSoftware,KiCad,Pcbnew,5.1.5+dfsg1-2*
G04 #@! TF.CreationDate,2020-01-01T18:35:42+02:00*
G04 #@! TF.ProjectId,Morfeas_Rpi_Hat,4d6f7266-6561-4735-9f52-70695f486174,V1.0*
G04 #@! TF.SameCoordinates,Original*
G04 #@! TF.FileFunction,Soldermask,Bot*
G04 #@! TF.FilePolarity,Negative*
%FSLAX46Y46*%
G04 Gerber Fmt 4.6, Leading zero omitted, Abs format (unit mm)*
G04 Created by KiCad (PCBNEW 5.1.5+dfsg1-2) date 2020-01-01 18:35:42*
%MOMM*%
%LPD*%
G04 APERTURE LIST*
%ADD10C,0.100000*%
G04 APERTURE END LIST*
D10*
G36*
X183324138Y-114223800D02*
G01*
X183626685Y-114283980D01*
X183959027Y-114421641D01*
X183959030Y-114421643D01*
X184258135Y-114621498D01*
X184512502Y-114875865D01*
X184512503Y-114875867D01*
X184712359Y-115174973D01*
X184850020Y-115507315D01*
X184920200Y-115860136D01*
X184920200Y-116219864D01*
X184850020Y-116572685D01*
X184712359Y-116905027D01*
X184712357Y-116905030D01*
X184512502Y-117204135D01*
X184258135Y-117458502D01*
X183959030Y-117658357D01*
X183959027Y-117658359D01*
X183626685Y-117796020D01*
X183391471Y-117842807D01*
X183273865Y-117866200D01*
X182914135Y-117866200D01*
X182796529Y-117842807D01*
X182561315Y-117796020D01*
X182228973Y-117658359D01*
X182228970Y-117658357D01*
X181929865Y-117458502D01*
X181675498Y-117204135D01*
X181475643Y-116905030D01*
X181475641Y-116905027D01*
X181337980Y-116572685D01*
X181267800Y-116219864D01*
X181267800Y-115860136D01*
X181337980Y-115507315D01*
X181475641Y-115174973D01*
X181675497Y-114875867D01*
X181675498Y-114875865D01*
X181929865Y-114621498D01*
X182228970Y-114421643D01*
X182228973Y-114421641D01*
X182561315Y-114283980D01*
X182863862Y-114223800D01*
X182914135Y-114213800D01*
X183273865Y-114213800D01*
X183324138Y-114223800D01*
G37*
G36*
X125324138Y-114223800D02*
G01*
X125626685Y-114283980D01*
X125959027Y-114421641D01*
X125959030Y-114421643D01*
X126258135Y-114621498D01*
X126512502Y-114875865D01*
X126512503Y-114875867D01*
X126712359Y-115174973D01*
X126850020Y-115507315D01*
X126920200Y-115860136D01*
X126920200Y-116219864D01*
X126850020Y-116572685D01*
X126712359Y-116905027D01*
X126712357Y-116905030D01*
X126512502Y-117204135D01*
X126258135Y-117458502D01*
X125959030Y-117658357D01*
X125959027Y-117658359D01*
X125626685Y-117796020D01*
X125391471Y-117842807D01*
X125273865Y-117866200D01*
X124914135Y-117866200D01*
X124796529Y-117842807D01*
X124561315Y-117796020D01*
X124228973Y-117658359D01*
X124228970Y-117658357D01*
X123929865Y-117458502D01*
X123675498Y-117204135D01*
X123475643Y-116905030D01*
X123475641Y-116905027D01*
X123337980Y-116572685D01*
X123267800Y-116219864D01*
X123267800Y-115860136D01*
X123337980Y-115507315D01*
X123475641Y-115174973D01*
X123675497Y-114875867D01*
X123675498Y-114875865D01*
X123929865Y-114621498D01*
X124228970Y-114421643D01*
X124228973Y-114421641D01*
X124561315Y-114283980D01*
X124863862Y-114223800D01*
X124914135Y-114213800D01*
X125273865Y-114213800D01*
X125324138Y-114223800D01*
G37*
G36*
X135618068Y-115282350D02*
G01*
X135779166Y-115314393D01*
X135947717Y-115384210D01*
X136099418Y-115485573D01*
X136228427Y-115614582D01*
X136329790Y-115766283D01*
X136399607Y-115934834D01*
X136435200Y-116113778D01*
X136435200Y-116296222D01*
X136399607Y-116475166D01*
X136329790Y-116643717D01*
X136228427Y-116795418D01*
X136099418Y-116924427D01*
X135947717Y-117025790D01*
X135779166Y-117095607D01*
X135618068Y-117127650D01*
X135600223Y-117131200D01*
X135417777Y-117131200D01*
X135399932Y-117127650D01*
X135238834Y-117095607D01*
X135070283Y-117025790D01*
X134918582Y-116924427D01*
X134789573Y-116795418D01*
X134688210Y-116643717D01*
X134618393Y-116475166D01*
X134582800Y-116296222D01*
X134582800Y-116113778D01*
X134618393Y-115934834D01*
X134688210Y-115766283D01*
X134789573Y-115614582D01*
X134918582Y-115485573D01*
X135070283Y-115384210D01*
X135238834Y-115314393D01*
X135399932Y-115282350D01*
X135417777Y-115278800D01*
X135600223Y-115278800D01*
X135618068Y-115282350D01*
G37*
G36*
X133078068Y-115282350D02*
G01*
X133239166Y-115314393D01*
X133407717Y-115384210D01*
X133559418Y-115485573D01*
X133688427Y-115614582D01*
X133789790Y-115766283D01*
X133859607Y-115934834D01*
X133895200Y-116113778D01*
X133895200Y-116296222D01*
X133859607Y-116475166D01*
X133789790Y-116643717D01*
X133688427Y-116795418D01*
X133559418Y-116924427D01*
X133407717Y-117025790D01*
X133239166Y-117095607D01*
X133078068Y-117127650D01*
X133060223Y-117131200D01*
X132877777Y-117131200D01*
X132859932Y-117127650D01*
X132698834Y-117095607D01*
X132530283Y-117025790D01*
X132378582Y-116924427D01*
X132249573Y-116795418D01*
X132148210Y-116643717D01*
X132078393Y-116475166D01*
X132042800Y-116296222D01*
X132042800Y-116113778D01*
X132078393Y-115934834D01*
X132148210Y-115766283D01*
X132249573Y-115614582D01*
X132378582Y-115485573D01*
X132530283Y-115384210D01*
X132698834Y-115314393D01*
X132859932Y-115282350D01*
X132877777Y-115278800D01*
X133060223Y-115278800D01*
X133078068Y-115282350D01*
G37*
G36*
X138975200Y-117131200D02*
G01*
X137122800Y-117131200D01*
X137122800Y-115278800D01*
X138975200Y-115278800D01*
X138975200Y-117131200D01*
G37*
G36*
X129747449Y-115648131D02*
G01*
X129747452Y-115648132D01*
X129747451Y-115648132D01*
X129876876Y-115701741D01*
X129993363Y-115779575D01*
X130092425Y-115878637D01*
X130170259Y-115995124D01*
X130213967Y-116100645D01*
X130223869Y-116124551D01*
X130251200Y-116261953D01*
X130251200Y-116402047D01*
X130223869Y-116539449D01*
X130223868Y-116539451D01*
X130170259Y-116668876D01*
X130092425Y-116785363D01*
X129993363Y-116884425D01*
X129876876Y-116962259D01*
X129771355Y-117005967D01*
X129747449Y-117015869D01*
X129610047Y-117043200D01*
X129469953Y-117043200D01*
X129332551Y-117015869D01*
X129308645Y-117005967D01*
X129203124Y-116962259D01*
X129086637Y-116884425D01*
X128987575Y-116785363D01*
X128909741Y-116668876D01*
X128856132Y-116539451D01*
X128856131Y-116539449D01*
X128828800Y-116402047D01*
X128828800Y-116261953D01*
X128856131Y-116124551D01*
X128866033Y-116100645D01*
X128909741Y-115995124D01*
X128987575Y-115878637D01*
X129086637Y-115779575D01*
X129203124Y-115701741D01*
X129332549Y-115648132D01*
X129332548Y-115648132D01*
X129332551Y-115648131D01*
X129469953Y-115620800D01*
X129610047Y-115620800D01*
X129747449Y-115648131D01*
G37*
G36*
X171016672Y-114275533D02*
G01*
X171016674Y-114275534D01*
X171016675Y-114275534D01*
X171261662Y-114377011D01*
X171261665Y-114377013D01*
X171482153Y-114524338D01*
X171669662Y-114711847D01*
X171669663Y-114711849D01*
X171816989Y-114932338D01*
X171917492Y-115174973D01*
X171918467Y-115177328D01*
X171970200Y-115437411D01*
X171970200Y-115702589D01*
X171938863Y-115860135D01*
X171918466Y-115962675D01*
X171816989Y-116207662D01*
X171816987Y-116207665D01*
X171669662Y-116428153D01*
X171482153Y-116615662D01*
X171440161Y-116643720D01*
X171261662Y-116762989D01*
X171016675Y-116864466D01*
X171016674Y-116864466D01*
X171016672Y-116864467D01*
X170756589Y-116916200D01*
X170491411Y-116916200D01*
X170231328Y-116864467D01*
X170231326Y-116864466D01*
X170231325Y-116864466D01*
X169986338Y-116762989D01*
X169807839Y-116643720D01*
X169765847Y-116615662D01*
X169578338Y-116428153D01*
X169431013Y-116207665D01*
X169431011Y-116207662D01*
X169329534Y-115962675D01*
X169309138Y-115860135D01*
X169277800Y-115702589D01*
X169277800Y-115437411D01*
X169329533Y-115177328D01*
X169330508Y-115174973D01*
X169431011Y-114932338D01*
X169578337Y-114711849D01*
X169578338Y-114711847D01*
X169765847Y-114524338D01*
X169986335Y-114377013D01*
X169986338Y-114377011D01*
X170231325Y-114275534D01*
X170231326Y-114275534D01*
X170231328Y-114275533D01*
X170491411Y-114223800D01*
X170756589Y-114223800D01*
X171016672Y-114275533D01*
G37*
G36*
X167516672Y-114275533D02*
G01*
X167516674Y-114275534D01*
X167516675Y-114275534D01*
X167761662Y-114377011D01*
X167761665Y-114377013D01*
X167982153Y-114524338D01*
X168169662Y-114711847D01*
X168169663Y-114711849D01*
X168316989Y-114932338D01*
X168417492Y-115174973D01*
X168418467Y-115177328D01*
X168470200Y-115437411D01*
X168470200Y-115702589D01*
X168438863Y-115860135D01*
X168418466Y-115962675D01*
X168316989Y-116207662D01*
X168316987Y-116207665D01*
X168169662Y-116428153D01*
X167982153Y-116615662D01*
X167940161Y-116643720D01*
X167761662Y-116762989D01*
X167516675Y-116864466D01*
X167516674Y-116864466D01*
X167516672Y-116864467D01*
X167256589Y-116916200D01*
X166991411Y-116916200D01*
X166731328Y-116864467D01*
X166731326Y-116864466D01*
X166731325Y-116864466D01*
X166486338Y-116762989D01*
X166307839Y-116643720D01*
X166265847Y-116615662D01*
X166078338Y-116428153D01*
X165931013Y-116207665D01*
X165931011Y-116207662D01*
X165829534Y-115962675D01*
X165809138Y-115860135D01*
X165777800Y-115702589D01*
X165777800Y-115437411D01*
X165829533Y-115177328D01*
X165830508Y-115174973D01*
X165931011Y-114932338D01*
X166078337Y-114711849D01*
X166078338Y-114711847D01*
X166265847Y-114524338D01*
X166486335Y-114377013D01*
X166486338Y-114377011D01*
X166731325Y-114275534D01*
X166731326Y-114275534D01*
X166731328Y-114275533D01*
X166991411Y-114223800D01*
X167256589Y-114223800D01*
X167516672Y-114275533D01*
G37*
G36*
X164016672Y-114275533D02*
G01*
X164016674Y-114275534D01*
X164016675Y-114275534D01*
X164261662Y-114377011D01*
X164261665Y-114377013D01*
X164482153Y-114524338D01*
X164669662Y-114711847D01*
X164669663Y-114711849D01*
X164816989Y-114932338D01*
X164917492Y-115174973D01*
X164918467Y-115177328D01*
X164970200Y-115437411D01*
X164970200Y-115702589D01*
X164938863Y-115860135D01*
X164918466Y-115962675D01*
X164816989Y-116207662D01*
X164816987Y-116207665D01*
X164669662Y-116428153D01*
X164482153Y-116615662D01*
X164440161Y-116643720D01*
X164261662Y-116762989D01*
X164016675Y-116864466D01*
X164016674Y-116864466D01*
X164016672Y-116864467D01*
X163756589Y-116916200D01*
X163491411Y-116916200D01*
X163231328Y-116864467D01*
X163231326Y-116864466D01*
X163231325Y-116864466D01*
X162986338Y-116762989D01*
X162807839Y-116643720D01*
X162765847Y-116615662D01*
X162578338Y-116428153D01*
X162431013Y-116207665D01*
X162431011Y-116207662D01*
X162329534Y-115962675D01*
X162309138Y-115860135D01*
X162277800Y-115702589D01*
X162277800Y-115437411D01*
X162329533Y-115177328D01*
X162330508Y-115174973D01*
X162431011Y-114932338D01*
X162578337Y-114711849D01*
X162578338Y-114711847D01*
X162765847Y-114524338D01*
X162986335Y-114377013D01*
X162986338Y-114377011D01*
X163231325Y-114275534D01*
X163231326Y-114275534D01*
X163231328Y-114275533D01*
X163491411Y-114223800D01*
X163756589Y-114223800D01*
X164016672Y-114275533D01*
G37*
G36*
X160516672Y-114275533D02*
G01*
X160516674Y-114275534D01*
X160516675Y-114275534D01*
X160761662Y-114377011D01*
X160761665Y-114377013D01*
X160982153Y-114524338D01*
X161169662Y-114711847D01*
X161169663Y-114711849D01*
X161316989Y-114932338D01*
X161417492Y-115174973D01*
X161418467Y-115177328D01*
X161470200Y-115437411D01*
X161470200Y-115702589D01*
X161438863Y-115860135D01*
X161418466Y-115962675D01*
X161316989Y-116207662D01*
X161316987Y-116207665D01*
X161169662Y-116428153D01*
X160982153Y-116615662D01*
X160940161Y-116643720D01*
X160761662Y-116762989D01*
X160516675Y-116864466D01*
X160516674Y-116864466D01*
X160516672Y-116864467D01*
X160256589Y-116916200D01*
X159991411Y-116916200D01*
X159731328Y-116864467D01*
X159731326Y-116864466D01*
X159731325Y-116864466D01*
X159486338Y-116762989D01*
X159307839Y-116643720D01*
X159265847Y-116615662D01*
X159078338Y-116428153D01*
X158931013Y-116207665D01*
X158931011Y-116207662D01*
X158829534Y-115962675D01*
X158809138Y-115860135D01*
X158777800Y-115702589D01*
X158777800Y-115437411D01*
X158829533Y-115177328D01*
X158830508Y-115174973D01*
X158931011Y-114932338D01*
X159078337Y-114711849D01*
X159078338Y-114711847D01*
X159265847Y-114524338D01*
X159486335Y-114377013D01*
X159486338Y-114377011D01*
X159731325Y-114275534D01*
X159731326Y-114275534D01*
X159731328Y-114275533D01*
X159991411Y-114223800D01*
X160256589Y-114223800D01*
X160516672Y-114275533D01*
G37*
G36*
X157016672Y-114275533D02*
G01*
X157016674Y-114275534D01*
X157016675Y-114275534D01*
X157261662Y-114377011D01*
X157261665Y-114377013D01*
X157482153Y-114524338D01*
X157669662Y-114711847D01*
X157669663Y-114711849D01*
X157816989Y-114932338D01*
X157917492Y-115174973D01*
X157918467Y-115177328D01*
X157970200Y-115437411D01*
X157970200Y-115702589D01*
X157938863Y-115860135D01*
X157918466Y-115962675D01*
X157816989Y-116207662D01*
X157816987Y-116207665D01*
X157669662Y-116428153D01*
X157482153Y-116615662D01*
X157440161Y-116643720D01*
X157261662Y-116762989D01*
X157016675Y-116864466D01*
X157016674Y-116864466D01*
X157016672Y-116864467D01*
X156756589Y-116916200D01*
X156491411Y-116916200D01*
X156231328Y-116864467D01*
X156231326Y-116864466D01*
X156231325Y-116864466D01*
X155986338Y-116762989D01*
X155807839Y-116643720D01*
X155765847Y-116615662D01*
X155578338Y-116428153D01*
X155431013Y-116207665D01*
X155431011Y-116207662D01*
X155329534Y-115962675D01*
X155309138Y-115860135D01*
X155277800Y-115702589D01*
X155277800Y-115437411D01*
X155329533Y-115177328D01*
X155330508Y-115174973D01*
X155431011Y-114932338D01*
X155578337Y-114711849D01*
X155578338Y-114711847D01*
X155765847Y-114524338D01*
X155986335Y-114377013D01*
X155986338Y-114377011D01*
X156231325Y-114275534D01*
X156231326Y-114275534D01*
X156231328Y-114275533D01*
X156491411Y-114223800D01*
X156756589Y-114223800D01*
X157016672Y-114275533D01*
G37*
G36*
X153516672Y-114275533D02*
G01*
X153516674Y-114275534D01*
X153516675Y-114275534D01*
X153761662Y-114377011D01*
X153761665Y-114377013D01*
X153982153Y-114524338D01*
X154169662Y-114711847D01*
X154169663Y-114711849D01*
X154316989Y-114932338D01*
X154417492Y-115174973D01*
X154418467Y-115177328D01*
X154470200Y-115437411D01*
X154470200Y-115702589D01*
X154438863Y-115860135D01*
X154418466Y-115962675D01*
X154316989Y-116207662D01*
X154316987Y-116207665D01*
X154169662Y-116428153D01*
X153982153Y-116615662D01*
X153940161Y-116643720D01*
X153761662Y-116762989D01*
X153516675Y-116864466D01*
X153516674Y-116864466D01*
X153516672Y-116864467D01*
X153256589Y-116916200D01*
X152991411Y-116916200D01*
X152731328Y-116864467D01*
X152731326Y-116864466D01*
X152731325Y-116864466D01*
X152486338Y-116762989D01*
X152307839Y-116643720D01*
X152265847Y-116615662D01*
X152078338Y-116428153D01*
X151931013Y-116207665D01*
X151931011Y-116207662D01*
X151829534Y-115962675D01*
X151809138Y-115860135D01*
X151777800Y-115702589D01*
X151777800Y-115437411D01*
X151829533Y-115177328D01*
X151830508Y-115174973D01*
X151931011Y-114932338D01*
X152078337Y-114711849D01*
X152078338Y-114711847D01*
X152265847Y-114524338D01*
X152486335Y-114377013D01*
X152486338Y-114377011D01*
X152731325Y-114275534D01*
X152731326Y-114275534D01*
X152731328Y-114275533D01*
X152991411Y-114223800D01*
X153256589Y-114223800D01*
X153516672Y-114275533D01*
G37*
G36*
X150016672Y-114275533D02*
G01*
X150016674Y-114275534D01*
X150016675Y-114275534D01*
X150261662Y-114377011D01*
X150261665Y-114377013D01*
X150482153Y-114524338D01*
X150669662Y-114711847D01*
X150669663Y-114711849D01*
X150816989Y-114932338D01*
X150917492Y-115174973D01*
X150918467Y-115177328D01*
X150970200Y-115437411D01*
X150970200Y-115702589D01*
X150938863Y-115860135D01*
X150918466Y-115962675D01*
X150816989Y-116207662D01*
X150816987Y-116207665D01*
X150669662Y-116428153D01*
X150482153Y-116615662D01*
X150440161Y-116643720D01*
X150261662Y-116762989D01*
X150016675Y-116864466D01*
X150016674Y-116864466D01*
X150016672Y-116864467D01*
X149756589Y-116916200D01*
X149491411Y-116916200D01*
X149231328Y-116864467D01*
X149231326Y-116864466D01*
X149231325Y-116864466D01*
X148986338Y-116762989D01*
X148807839Y-116643720D01*
X148765847Y-116615662D01*
X148578338Y-116428153D01*
X148431013Y-116207665D01*
X148431011Y-116207662D01*
X148329534Y-115962675D01*
X148309138Y-115860135D01*
X148277800Y-115702589D01*
X148277800Y-115437411D01*
X148329533Y-115177328D01*
X148330508Y-115174973D01*
X148431011Y-114932338D01*
X148578337Y-114711849D01*
X148578338Y-114711847D01*
X148765847Y-114524338D01*
X148986335Y-114377013D01*
X148986338Y-114377011D01*
X149231325Y-114275534D01*
X149231326Y-114275534D01*
X149231328Y-114275533D01*
X149491411Y-114223800D01*
X149756589Y-114223800D01*
X150016672Y-114275533D01*
G37*
G36*
X174516672Y-114275533D02*
G01*
X174516674Y-114275534D01*
X174516675Y-114275534D01*
X174761662Y-114377011D01*
X174761665Y-114377013D01*
X174982153Y-114524338D01*
X175169662Y-114711847D01*
X175169663Y-114711849D01*
X175316989Y-114932338D01*
X175417492Y-115174973D01*
X175418467Y-115177328D01*
X175470200Y-115437411D01*
X175470200Y-115702589D01*
X175438863Y-115860135D01*
X175418466Y-115962675D01*
X175316989Y-116207662D01*
X175316987Y-116207665D01*
X175169662Y-116428153D01*
X174982153Y-116615662D01*
X174940161Y-116643720D01*
X174761662Y-116762989D01*
X174516675Y-116864466D01*
X174516674Y-116864466D01*
X174516672Y-116864467D01*
X174256589Y-116916200D01*
X173991411Y-116916200D01*
X173731328Y-116864467D01*
X173731326Y-116864466D01*
X173731325Y-116864466D01*
X173486338Y-116762989D01*
X173307839Y-116643720D01*
X173265847Y-116615662D01*
X173078338Y-116428153D01*
X172931013Y-116207665D01*
X172931011Y-116207662D01*
X172829534Y-115962675D01*
X172809138Y-115860135D01*
X172777800Y-115702589D01*
X172777800Y-115437411D01*
X172829533Y-115177328D01*
X172830508Y-115174973D01*
X172931011Y-114932338D01*
X173078337Y-114711849D01*
X173078338Y-114711847D01*
X173265847Y-114524338D01*
X173486335Y-114377013D01*
X173486338Y-114377011D01*
X173731325Y-114275534D01*
X173731326Y-114275534D01*
X173731328Y-114275533D01*
X173991411Y-114223800D01*
X174256589Y-114223800D01*
X174516672Y-114275533D01*
G37*
G36*
X141939449Y-114124131D02*
G01*
X141939452Y-114124132D01*
X141939451Y-114124132D01*
X142068876Y-114177741D01*
X142185363Y-114255575D01*
X142284425Y-114354637D01*
X142362259Y-114471124D01*
X142405967Y-114576645D01*
X142415869Y-114600551D01*
X142443200Y-114737953D01*
X142443200Y-114878047D01*
X142415869Y-115015449D01*
X142415868Y-115015451D01*
X142362259Y-115144876D01*
X142284425Y-115261363D01*
X142185363Y-115360425D01*
X142068876Y-115438259D01*
X141963355Y-115481967D01*
X141939449Y-115491869D01*
X141802047Y-115519200D01*
X141661953Y-115519200D01*
X141524551Y-115491869D01*
X141500645Y-115481967D01*
X141395124Y-115438259D01*
X141278637Y-115360425D01*
X141179575Y-115261363D01*
X141101741Y-115144876D01*
X141048132Y-115015451D01*
X141048131Y-115015449D01*
X141020800Y-114878047D01*
X141020800Y-114737953D01*
X141048131Y-114600551D01*
X141058033Y-114576645D01*
X141101741Y-114471124D01*
X141179575Y-114354637D01*
X141278637Y-114255575D01*
X141395124Y-114177741D01*
X141524549Y-114124132D01*
X141524548Y-114124132D01*
X141524551Y-114124131D01*
X141661953Y-114096800D01*
X141802047Y-114096800D01*
X141939449Y-114124131D01*
G37*
G36*
X168044343Y-112681543D02*
G01*
X166291743Y-112681543D01*
X166291743Y-110329503D01*
X168044343Y-110329503D01*
X168044343Y-112681543D01*
G37*
G36*
X171844183Y-112681543D02*
G01*
X170091583Y-112681543D01*
X170091583Y-110329503D01*
X171844183Y-110329503D01*
X171844183Y-112681543D01*
G37*
G36*
X127969449Y-110822131D02*
G01*
X127969452Y-110822132D01*
X127969451Y-110822132D01*
X128098876Y-110875741D01*
X128215363Y-110953575D01*
X128314425Y-111052637D01*
X128392259Y-111169124D01*
X128435967Y-111274645D01*
X128445869Y-111298551D01*
X128473200Y-111435953D01*
X128473200Y-111576047D01*
X128445869Y-111713449D01*
X128445868Y-111713451D01*
X128392259Y-111842876D01*
X128314425Y-111959363D01*
X128215363Y-112058425D01*
X128098876Y-112136259D01*
X127993355Y-112179967D01*
X127969449Y-112189869D01*
X127832047Y-112217200D01*
X127691953Y-112217200D01*
X127554551Y-112189869D01*
X127530645Y-112179967D01*
X127425124Y-112136259D01*
X127308637Y-112058425D01*
X127209575Y-111959363D01*
X127131741Y-111842876D01*
X127078132Y-111713451D01*
X127078131Y-111713449D01*
X127050800Y-111576047D01*
X127050800Y-111435953D01*
X127078131Y-111298551D01*
X127088033Y-111274645D01*
X127131741Y-111169124D01*
X127209575Y-111052637D01*
X127308637Y-110953575D01*
X127425124Y-110875741D01*
X127554549Y-110822132D01*
X127554548Y-110822132D01*
X127554551Y-110822131D01*
X127691953Y-110794800D01*
X127832047Y-110794800D01*
X127969449Y-110822131D01*
G37*
G36*
X138496831Y-109012407D02*
G01*
X138543690Y-109026621D01*
X138586877Y-109049705D01*
X138624730Y-109080770D01*
X138655795Y-109118623D01*
X138678879Y-109161810D01*
X138693093Y-109208669D01*
X138698200Y-109260517D01*
X138698200Y-109881483D01*
X138693093Y-109933331D01*
X138678879Y-109980190D01*
X138655795Y-110023377D01*
X138624730Y-110061230D01*
X138586877Y-110092295D01*
X138543690Y-110115379D01*
X138496831Y-110129593D01*
X138444983Y-110134700D01*
X137399017Y-110134700D01*
X137347169Y-110129593D01*
X137300310Y-110115379D01*
X137257123Y-110092295D01*
X137219270Y-110061230D01*
X137188205Y-110023377D01*
X137165121Y-109980190D01*
X137150907Y-109933331D01*
X137145800Y-109881483D01*
X137145800Y-109260517D01*
X137150907Y-109208669D01*
X137165121Y-109161810D01*
X137188205Y-109118623D01*
X137219270Y-109080770D01*
X137257123Y-109049705D01*
X137300310Y-109026621D01*
X137347169Y-109012407D01*
X137399017Y-109007300D01*
X138444983Y-109007300D01*
X138496831Y-109012407D01*
G37*
G36*
X136097449Y-107774131D02*
G01*
X136097452Y-107774132D01*
X136097451Y-107774132D01*
X136226876Y-107827741D01*
X136343363Y-107905575D01*
X136442425Y-108004637D01*
X136520259Y-108121124D01*
X136547226Y-108186230D01*
X136573869Y-108250551D01*
X136601200Y-108387953D01*
X136601200Y-108528047D01*
X136573869Y-108665449D01*
X136573868Y-108665451D01*
X136520259Y-108794876D01*
X136442425Y-108911363D01*
X136343363Y-109010425D01*
X136226876Y-109088259D01*
X136121355Y-109131967D01*
X136097449Y-109141869D01*
X135960047Y-109169200D01*
X135819953Y-109169200D01*
X135682551Y-109141869D01*
X135658645Y-109131967D01*
X135553124Y-109088259D01*
X135436637Y-109010425D01*
X135337575Y-108911363D01*
X135259741Y-108794876D01*
X135206132Y-108665451D01*
X135206131Y-108665449D01*
X135178800Y-108528047D01*
X135178800Y-108387953D01*
X135206131Y-108250551D01*
X135232774Y-108186230D01*
X135259741Y-108121124D01*
X135337575Y-108004637D01*
X135436637Y-107905575D01*
X135553124Y-107827741D01*
X135682549Y-107774132D01*
X135682548Y-107774132D01*
X135682551Y-107774131D01*
X135819953Y-107746800D01*
X135960047Y-107746800D01*
X136097449Y-107774131D01*
G37*
G36*
X149886632Y-106049666D02*
G01*
X150139169Y-106126272D01*
X150371910Y-106250675D01*
X150575908Y-106418092D01*
X150743325Y-106622090D01*
X150867728Y-106854831D01*
X150944334Y-107107368D01*
X150970201Y-107369999D01*
X150970201Y-107370001D01*
X150944334Y-107632632D01*
X150867728Y-107885169D01*
X150743325Y-108117910D01*
X150575908Y-108321908D01*
X150371910Y-108489325D01*
X150139169Y-108613728D01*
X149886632Y-108690334D01*
X149624001Y-108716201D01*
X149623999Y-108716201D01*
X149361368Y-108690334D01*
X149108831Y-108613728D01*
X148876090Y-108489325D01*
X148672092Y-108321908D01*
X148504675Y-108117910D01*
X148380272Y-107885169D01*
X148303666Y-107632632D01*
X148277799Y-107370001D01*
X148277799Y-107369999D01*
X148303666Y-107107368D01*
X148380272Y-106854831D01*
X148504675Y-106622090D01*
X148672092Y-106418092D01*
X148876090Y-106250675D01*
X149108831Y-106126272D01*
X149361368Y-106049666D01*
X149623999Y-106023799D01*
X149624001Y-106023799D01*
X149886632Y-106049666D01*
G37*
G36*
X153386632Y-106049666D02*
G01*
X153639169Y-106126272D01*
X153871910Y-106250675D01*
X154075908Y-106418092D01*
X154243325Y-106622090D01*
X154367728Y-106854831D01*
X154444334Y-107107368D01*
X154470201Y-107369999D01*
X154470201Y-107370001D01*
X154444334Y-107632632D01*
X154367728Y-107885169D01*
X154243325Y-108117910D01*
X154075908Y-108321908D01*
X153871910Y-108489325D01*
X153639169Y-108613728D01*
X153386632Y-108690334D01*
X153124001Y-108716201D01*
X153123999Y-108716201D01*
X152861368Y-108690334D01*
X152608831Y-108613728D01*
X152376090Y-108489325D01*
X152172092Y-108321908D01*
X152004675Y-108117910D01*
X151880272Y-107885169D01*
X151803666Y-107632632D01*
X151777799Y-107370001D01*
X151777799Y-107369999D01*
X151803666Y-107107368D01*
X151880272Y-106854831D01*
X152004675Y-106622090D01*
X152172092Y-106418092D01*
X152376090Y-106250675D01*
X152608831Y-106126272D01*
X152861368Y-106049666D01*
X153123999Y-106023799D01*
X153124001Y-106023799D01*
X153386632Y-106049666D01*
G37*
G36*
X156886632Y-106049666D02*
G01*
X157139169Y-106126272D01*
X157371910Y-106250675D01*
X157575908Y-106418092D01*
X157743325Y-106622090D01*
X157867728Y-106854831D01*
X157944334Y-107107368D01*
X157970201Y-107369999D01*
X157970201Y-107370001D01*
X157944334Y-107632632D01*
X157867728Y-107885169D01*
X157743325Y-108117910D01*
X157575908Y-108321908D01*
X157371910Y-108489325D01*
X157139169Y-108613728D01*
X156886632Y-108690334D01*
X156624001Y-108716201D01*
X156623999Y-108716201D01*
X156361368Y-108690334D01*
X156108831Y-108613728D01*
X155876090Y-108489325D01*
X155672092Y-108321908D01*
X155504675Y-108117910D01*
X155380272Y-107885169D01*
X155303666Y-107632632D01*
X155277799Y-107370001D01*
X155277799Y-107369999D01*
X155303666Y-107107368D01*
X155380272Y-106854831D01*
X155504675Y-106622090D01*
X155672092Y-106418092D01*
X155876090Y-106250675D01*
X156108831Y-106126272D01*
X156361368Y-106049666D01*
X156623999Y-106023799D01*
X156624001Y-106023799D01*
X156886632Y-106049666D01*
G37*
G36*
X160386632Y-106049666D02*
G01*
X160639169Y-106126272D01*
X160871910Y-106250675D01*
X161075908Y-106418092D01*
X161243325Y-106622090D01*
X161367728Y-106854831D01*
X161444334Y-107107368D01*
X161470201Y-107369999D01*
X161470201Y-107370001D01*
X161444334Y-107632632D01*
X161367728Y-107885169D01*
X161243325Y-108117910D01*
X161075908Y-108321908D01*
X160871910Y-108489325D01*
X160639169Y-108613728D01*
X160386632Y-108690334D01*
X160124001Y-108716201D01*
X160123999Y-108716201D01*
X159861368Y-108690334D01*
X159608831Y-108613728D01*
X159376090Y-108489325D01*
X159172092Y-108321908D01*
X159004675Y-108117910D01*
X158880272Y-107885169D01*
X158803666Y-107632632D01*
X158777799Y-107370001D01*
X158777799Y-107369999D01*
X158803666Y-107107368D01*
X158880272Y-106854831D01*
X159004675Y-106622090D01*
X159172092Y-106418092D01*
X159376090Y-106250675D01*
X159608831Y-106126272D01*
X159861368Y-106049666D01*
X160123999Y-106023799D01*
X160124001Y-106023799D01*
X160386632Y-106049666D01*
G37*
G36*
X167386632Y-106049666D02*
G01*
X167639169Y-106126272D01*
X167871910Y-106250675D01*
X168075908Y-106418092D01*
X168243325Y-106622090D01*
X168367728Y-106854831D01*
X168444334Y-107107368D01*
X168470201Y-107369999D01*
X168470201Y-107370001D01*
X168444334Y-107632632D01*
X168367728Y-107885169D01*
X168243325Y-108117910D01*
X168075908Y-108321908D01*
X167871910Y-108489325D01*
X167639169Y-108613728D01*
X167386632Y-108690334D01*
X167124001Y-108716201D01*
X167123999Y-108716201D01*
X166861368Y-108690334D01*
X166608831Y-108613728D01*
X166376090Y-108489325D01*
X166172092Y-108321908D01*
X166004675Y-108117910D01*
X165880272Y-107885169D01*
X165803666Y-107632632D01*
X165777799Y-107370001D01*
X165777799Y-107369999D01*
X165803666Y-107107368D01*
X165880272Y-106854831D01*
X166004675Y-106622090D01*
X166172092Y-106418092D01*
X166376090Y-106250675D01*
X166608831Y-106126272D01*
X166861368Y-106049666D01*
X167123999Y-106023799D01*
X167124001Y-106023799D01*
X167386632Y-106049666D01*
G37*
G36*
X170886632Y-106049666D02*
G01*
X171139169Y-106126272D01*
X171371910Y-106250675D01*
X171575908Y-106418092D01*
X171743325Y-106622090D01*
X171867728Y-106854831D01*
X171944334Y-107107368D01*
X171970201Y-107369999D01*
X171970201Y-107370001D01*
X171944334Y-107632632D01*
X171867728Y-107885169D01*
X171743325Y-108117910D01*
X171575908Y-108321908D01*
X171371910Y-108489325D01*
X171139169Y-108613728D01*
X170886632Y-108690334D01*
X170624001Y-108716201D01*
X170623999Y-108716201D01*
X170361368Y-108690334D01*
X170108831Y-108613728D01*
X169876090Y-108489325D01*
X169672092Y-108321908D01*
X169504675Y-108117910D01*
X169380272Y-107885169D01*
X169303666Y-107632632D01*
X169277799Y-107370001D01*
X169277799Y-107369999D01*
X169303666Y-107107368D01*
X169380272Y-106854831D01*
X169504675Y-106622090D01*
X169672092Y-106418092D01*
X169876090Y-106250675D01*
X170108831Y-106126272D01*
X170361368Y-106049666D01*
X170623999Y-106023799D01*
X170624001Y-106023799D01*
X170886632Y-106049666D01*
G37*
G36*
X174386632Y-106049666D02*
G01*
X174639169Y-106126272D01*
X174871910Y-106250675D01*
X175075908Y-106418092D01*
X175243325Y-106622090D01*
X175367728Y-106854831D01*
X175444334Y-107107368D01*
X175470201Y-107369999D01*
X175470201Y-107370001D01*
X175444334Y-107632632D01*
X175367728Y-107885169D01*
X175243325Y-108117910D01*
X175075908Y-108321908D01*
X174871910Y-108489325D01*
X174639169Y-108613728D01*
X174386632Y-108690334D01*
X174124001Y-108716201D01*
X174123999Y-108716201D01*
X173861368Y-108690334D01*
X173608831Y-108613728D01*
X173376090Y-108489325D01*
X173172092Y-108321908D01*
X173004675Y-108117910D01*
X172880272Y-107885169D01*
X172803666Y-107632632D01*
X172777799Y-107370001D01*
X172777799Y-107369999D01*
X172803666Y-107107368D01*
X172880272Y-106854831D01*
X173004675Y-106622090D01*
X173172092Y-106418092D01*
X173376090Y-106250675D01*
X173608831Y-106126272D01*
X173861368Y-106049666D01*
X174123999Y-106023799D01*
X174124001Y-106023799D01*
X174386632Y-106049666D01*
G37*
G36*
X163886632Y-106049666D02*
G01*
X164139169Y-106126272D01*
X164371910Y-106250675D01*
X164575908Y-106418092D01*
X164743325Y-106622090D01*
X164867728Y-106854831D01*
X164944334Y-107107368D01*
X164970201Y-107369999D01*
X164970201Y-107370001D01*
X164944334Y-107632632D01*
X164867728Y-107885169D01*
X164743325Y-108117910D01*
X164575908Y-108321908D01*
X164371910Y-108489325D01*
X164139169Y-108613728D01*
X163886632Y-108690334D01*
X163624001Y-108716201D01*
X163623999Y-108716201D01*
X163361368Y-108690334D01*
X163108831Y-108613728D01*
X162876090Y-108489325D01*
X162672092Y-108321908D01*
X162504675Y-108117910D01*
X162380272Y-107885169D01*
X162303666Y-107632632D01*
X162277799Y-107370001D01*
X162277799Y-107369999D01*
X162303666Y-107107368D01*
X162380272Y-106854831D01*
X162504675Y-106622090D01*
X162672092Y-106418092D01*
X162876090Y-106250675D01*
X163108831Y-106126272D01*
X163361368Y-106049666D01*
X163623999Y-106023799D01*
X163624001Y-106023799D01*
X163886632Y-106049666D01*
G37*
G36*
X146257449Y-107012131D02*
G01*
X146257452Y-107012132D01*
X146257451Y-107012132D01*
X146386876Y-107065741D01*
X146503363Y-107143575D01*
X146602425Y-107242637D01*
X146680259Y-107359124D01*
X146684764Y-107370001D01*
X146733869Y-107488551D01*
X146761200Y-107625953D01*
X146761200Y-107766047D01*
X146733869Y-107903449D01*
X146733868Y-107903451D01*
X146680259Y-108032876D01*
X146602425Y-108149363D01*
X146503363Y-108248425D01*
X146386876Y-108326259D01*
X146281355Y-108369967D01*
X146257449Y-108379869D01*
X146120047Y-108407200D01*
X145979953Y-108407200D01*
X145842551Y-108379869D01*
X145818645Y-108369967D01*
X145713124Y-108326259D01*
X145596637Y-108248425D01*
X145497575Y-108149363D01*
X145419741Y-108032876D01*
X145366132Y-107903451D01*
X145366131Y-107903449D01*
X145338800Y-107766047D01*
X145338800Y-107625953D01*
X145366131Y-107488551D01*
X145415236Y-107370001D01*
X145419741Y-107359124D01*
X145497575Y-107242637D01*
X145596637Y-107143575D01*
X145713124Y-107065741D01*
X145842549Y-107012132D01*
X145842548Y-107012132D01*
X145842551Y-107012131D01*
X145979953Y-106984800D01*
X146120047Y-106984800D01*
X146257449Y-107012131D01*
G37*
G36*
X141431449Y-107012131D02*
G01*
X141431452Y-107012132D01*
X141431451Y-107012132D01*
X141560876Y-107065741D01*
X141677363Y-107143575D01*
X141776425Y-107242637D01*
X141854259Y-107359124D01*
X141858764Y-107370001D01*
X141907869Y-107488551D01*
X141935200Y-107625953D01*
X141935200Y-107766047D01*
X141907869Y-107903449D01*
X141907868Y-107903451D01*
X141854259Y-108032876D01*
X141776425Y-108149363D01*
X141677363Y-108248425D01*
X141560876Y-108326259D01*
X141455355Y-108369967D01*
X141431449Y-108379869D01*
X141294047Y-108407200D01*
X141153953Y-108407200D01*
X141016551Y-108379869D01*
X140992645Y-108369967D01*
X140887124Y-108326259D01*
X140770637Y-108248425D01*
X140671575Y-108149363D01*
X140593741Y-108032876D01*
X140540132Y-107903451D01*
X140540131Y-107903449D01*
X140512800Y-107766047D01*
X140512800Y-107625953D01*
X140540131Y-107488551D01*
X140589236Y-107370001D01*
X140593741Y-107359124D01*
X140671575Y-107242637D01*
X140770637Y-107143575D01*
X140887124Y-107065741D01*
X141016549Y-107012132D01*
X141016548Y-107012132D01*
X141016551Y-107012131D01*
X141153953Y-106984800D01*
X141294047Y-106984800D01*
X141431449Y-107012131D01*
G37*
G36*
X138496831Y-107137407D02*
G01*
X138543690Y-107151621D01*
X138586877Y-107174705D01*
X138624730Y-107205770D01*
X138655795Y-107243623D01*
X138678879Y-107286810D01*
X138693093Y-107333669D01*
X138698200Y-107385517D01*
X138698200Y-108006483D01*
X138693093Y-108058331D01*
X138678879Y-108105190D01*
X138655795Y-108148377D01*
X138624730Y-108186230D01*
X138586877Y-108217295D01*
X138543690Y-108240379D01*
X138496831Y-108254593D01*
X138444983Y-108259700D01*
X137399017Y-108259700D01*
X137347169Y-108254593D01*
X137300310Y-108240379D01*
X137257123Y-108217295D01*
X137219270Y-108186230D01*
X137188205Y-108148377D01*
X137165121Y-108105190D01*
X137150907Y-108058331D01*
X137145800Y-108006483D01*
X137145800Y-107385517D01*
X137150907Y-107333669D01*
X137165121Y-107286810D01*
X137188205Y-107243623D01*
X137219270Y-107205770D01*
X137257123Y-107174705D01*
X137300310Y-107151621D01*
X137347169Y-107137407D01*
X137399017Y-107132300D01*
X138444983Y-107132300D01*
X138496831Y-107137407D01*
G37*
G36*
X142488043Y-103393758D02*
G01*
X142533459Y-103407535D01*
X142575310Y-103429905D01*
X142611992Y-103460008D01*
X142642095Y-103496690D01*
X142664465Y-103538540D01*
X142677283Y-103580795D01*
X142682047Y-103592296D01*
X142688963Y-103602646D01*
X142697765Y-103611448D01*
X142708115Y-103618363D01*
X142719616Y-103623127D01*
X142731825Y-103625555D01*
X142744273Y-103625555D01*
X142756481Y-103623127D01*
X142767982Y-103618363D01*
X142782949Y-103607263D01*
X142802637Y-103587575D01*
X142919124Y-103509741D01*
X143048549Y-103456132D01*
X143048548Y-103456132D01*
X143048551Y-103456131D01*
X143185953Y-103428800D01*
X143326047Y-103428800D01*
X143463449Y-103456131D01*
X143463452Y-103456132D01*
X143463451Y-103456132D01*
X143592876Y-103509741D01*
X143709363Y-103587575D01*
X143808425Y-103686637D01*
X143886259Y-103803124D01*
X143929967Y-103908645D01*
X143939869Y-103932551D01*
X143967200Y-104069953D01*
X143967200Y-104210047D01*
X143939869Y-104347449D01*
X143939868Y-104347451D01*
X143886259Y-104476876D01*
X143808425Y-104593363D01*
X143709363Y-104692425D01*
X143592876Y-104770259D01*
X143487355Y-104813967D01*
X143463449Y-104823869D01*
X143326047Y-104851200D01*
X143185953Y-104851200D01*
X143048551Y-104823869D01*
X143024645Y-104813967D01*
X142919124Y-104770259D01*
X142802637Y-104692425D01*
X142755383Y-104645171D01*
X142745760Y-104637275D01*
X142734782Y-104631407D01*
X142722870Y-104627793D01*
X142710482Y-104626573D01*
X142698094Y-104627793D01*
X142686182Y-104631407D01*
X142675204Y-104637275D01*
X142665581Y-104645171D01*
X142654481Y-104660138D01*
X142642094Y-104683311D01*
X142611992Y-104719992D01*
X142575310Y-104750095D01*
X142533459Y-104772465D01*
X142488043Y-104786242D01*
X142437703Y-104791200D01*
X141026297Y-104791200D01*
X140975957Y-104786242D01*
X140930541Y-104772465D01*
X140888690Y-104750095D01*
X140852008Y-104719992D01*
X140821905Y-104683310D01*
X140799535Y-104641459D01*
X140785758Y-104596043D01*
X140780800Y-104545703D01*
X140780800Y-103634297D01*
X140785758Y-103583957D01*
X140799535Y-103538541D01*
X140821905Y-103496690D01*
X140852008Y-103460008D01*
X140888690Y-103429905D01*
X140930541Y-103407535D01*
X140975957Y-103393758D01*
X141026297Y-103388800D01*
X142437703Y-103388800D01*
X142488043Y-103393758D01*
G37*
G36*
X174451449Y-102948131D02*
G01*
X174451452Y-102948132D01*
X174451451Y-102948132D01*
X174580876Y-103001741D01*
X174580879Y-103001743D01*
X174697363Y-103079575D01*
X174796425Y-103178637D01*
X174861949Y-103276700D01*
X174874259Y-103295124D01*
X174885888Y-103323200D01*
X174927869Y-103424551D01*
X174955200Y-103561953D01*
X174955200Y-103702047D01*
X174927869Y-103839449D01*
X174927868Y-103839451D01*
X174874259Y-103968876D01*
X174874257Y-103968879D01*
X174847944Y-104008259D01*
X174796425Y-104085363D01*
X174697363Y-104184425D01*
X174580876Y-104262259D01*
X174475355Y-104305967D01*
X174451449Y-104315869D01*
X174314047Y-104343200D01*
X174173953Y-104343200D01*
X174036551Y-104315869D01*
X174012645Y-104305967D01*
X173907124Y-104262259D01*
X173790637Y-104184425D01*
X173691575Y-104085363D01*
X173640056Y-104008259D01*
X173613743Y-103968879D01*
X173613741Y-103968876D01*
X173560132Y-103839451D01*
X173560131Y-103839449D01*
X173532800Y-103702047D01*
X173532800Y-103561953D01*
X173560131Y-103424551D01*
X173602112Y-103323200D01*
X173613741Y-103295124D01*
X173626052Y-103276700D01*
X173691575Y-103178637D01*
X173790637Y-103079575D01*
X173907121Y-103001743D01*
X173907124Y-103001741D01*
X174036549Y-102948132D01*
X174036548Y-102948132D01*
X174036551Y-102948131D01*
X174173953Y-102920800D01*
X174314047Y-102920800D01*
X174451449Y-102948131D01*
G37*
G36*
X153623449Y-102694131D02*
G01*
X153623452Y-102694132D01*
X153623451Y-102694132D01*
X153752876Y-102747741D01*
X153752879Y-102747743D01*
X153869363Y-102825575D01*
X153968425Y-102924637D01*
X154019946Y-103001743D01*
X154046259Y-103041124D01*
X154089967Y-103146645D01*
X154099869Y-103170551D01*
X154127200Y-103307953D01*
X154127200Y-103448047D01*
X154099869Y-103585449D01*
X154099868Y-103585451D01*
X154046259Y-103714876D01*
X153968425Y-103831363D01*
X153869363Y-103930425D01*
X153752876Y-104008259D01*
X153647355Y-104051967D01*
X153623449Y-104061869D01*
X153486047Y-104089200D01*
X153345953Y-104089200D01*
X153208551Y-104061869D01*
X153184645Y-104051967D01*
X153079124Y-104008259D01*
X152962637Y-103930425D01*
X152863575Y-103831363D01*
X152785741Y-103714876D01*
X152732132Y-103585451D01*
X152732131Y-103585449D01*
X152704800Y-103448047D01*
X152704800Y-103307953D01*
X152732131Y-103170551D01*
X152742033Y-103146645D01*
X152785741Y-103041124D01*
X152812055Y-103001743D01*
X152863575Y-102924637D01*
X152962637Y-102825575D01*
X153079121Y-102747743D01*
X153079124Y-102747741D01*
X153208549Y-102694132D01*
X153208548Y-102694132D01*
X153208551Y-102694131D01*
X153345953Y-102666800D01*
X153486047Y-102666800D01*
X153623449Y-102694131D01*
G37*
G36*
X159506043Y-101925758D02*
G01*
X159551459Y-101939535D01*
X159593310Y-101961905D01*
X159629992Y-101992008D01*
X159660095Y-102028690D01*
X159682465Y-102070541D01*
X159696242Y-102115957D01*
X159701200Y-102166297D01*
X159701200Y-103077703D01*
X159696242Y-103128043D01*
X159682465Y-103173459D01*
X159660095Y-103215310D01*
X159629992Y-103251992D01*
X159593310Y-103282095D01*
X159551459Y-103304465D01*
X159506043Y-103318242D01*
X159455703Y-103323200D01*
X158044297Y-103323200D01*
X157993957Y-103318242D01*
X157948541Y-103304465D01*
X157906690Y-103282095D01*
X157870008Y-103251992D01*
X157839905Y-103215310D01*
X157817535Y-103173459D01*
X157803758Y-103128043D01*
X157798800Y-103077703D01*
X157798800Y-102166297D01*
X157803758Y-102115957D01*
X157817535Y-102070541D01*
X157839905Y-102028690D01*
X157870008Y-101992008D01*
X157906690Y-101961905D01*
X157948541Y-101939535D01*
X157993957Y-101925758D01*
X158044297Y-101920800D01*
X159455703Y-101920800D01*
X159506043Y-101925758D01*
G37*
G36*
X161610831Y-102154407D02*
G01*
X161657690Y-102168621D01*
X161700877Y-102191705D01*
X161738730Y-102222770D01*
X161769795Y-102260623D01*
X161792879Y-102303810D01*
X161807093Y-102350669D01*
X161812200Y-102402517D01*
X161812200Y-103023483D01*
X161807093Y-103075331D01*
X161792879Y-103122190D01*
X161769795Y-103165377D01*
X161738730Y-103203230D01*
X161700877Y-103234295D01*
X161657690Y-103257379D01*
X161610831Y-103271593D01*
X161558983Y-103276700D01*
X160513017Y-103276700D01*
X160461169Y-103271593D01*
X160414310Y-103257379D01*
X160371123Y-103234295D01*
X160333270Y-103203230D01*
X160302205Y-103165377D01*
X160279121Y-103122190D01*
X160264907Y-103075331D01*
X160259800Y-103023483D01*
X160259800Y-102402517D01*
X160264907Y-102350669D01*
X160279121Y-102303810D01*
X160302205Y-102260623D01*
X160333270Y-102222770D01*
X160371123Y-102191705D01*
X160414310Y-102168621D01*
X160461169Y-102154407D01*
X160513017Y-102149300D01*
X161558983Y-102149300D01*
X161610831Y-102154407D01*
G37*
G36*
X163831449Y-101424131D02*
G01*
X163831452Y-101424132D01*
X163831451Y-101424132D01*
X163960876Y-101477741D01*
X164077363Y-101555575D01*
X164176425Y-101654637D01*
X164254259Y-101771124D01*
X164273698Y-101818055D01*
X164307869Y-101900551D01*
X164335200Y-102037953D01*
X164335200Y-102178047D01*
X164307869Y-102315449D01*
X164307868Y-102315451D01*
X164254259Y-102444876D01*
X164254257Y-102444879D01*
X164227944Y-102484259D01*
X164176425Y-102561363D01*
X164077363Y-102660425D01*
X163960876Y-102738259D01*
X163855355Y-102781967D01*
X163831449Y-102791869D01*
X163694047Y-102819200D01*
X163553953Y-102819200D01*
X163416551Y-102791869D01*
X163392645Y-102781967D01*
X163287124Y-102738259D01*
X163170637Y-102660425D01*
X163071575Y-102561363D01*
X163020056Y-102484259D01*
X162993743Y-102444879D01*
X162993741Y-102444876D01*
X162940132Y-102315451D01*
X162940131Y-102315449D01*
X162912800Y-102178047D01*
X162912800Y-102037953D01*
X162940131Y-101900551D01*
X162974302Y-101818055D01*
X162993741Y-101771124D01*
X163071575Y-101654637D01*
X163170637Y-101555575D01*
X163287124Y-101477741D01*
X163416549Y-101424132D01*
X163416548Y-101424132D01*
X163416551Y-101424131D01*
X163553953Y-101396800D01*
X163694047Y-101396800D01*
X163831449Y-101424131D01*
G37*
G36*
X177499449Y-101170131D02*
G01*
X177523355Y-101180033D01*
X177628876Y-101223741D01*
X177628879Y-101223743D01*
X177745363Y-101301575D01*
X177844425Y-101400637D01*
X177895946Y-101477743D01*
X177922259Y-101517124D01*
X177965967Y-101622645D01*
X177975869Y-101646551D01*
X178003200Y-101783953D01*
X178003200Y-101924047D01*
X177975869Y-102061449D01*
X177975868Y-102061451D01*
X177922259Y-102190876D01*
X177844425Y-102307363D01*
X177745363Y-102406425D01*
X177628876Y-102484259D01*
X177523355Y-102527967D01*
X177499449Y-102537869D01*
X177362047Y-102565200D01*
X177221953Y-102565200D01*
X177084551Y-102537869D01*
X177060645Y-102527967D01*
X176955124Y-102484259D01*
X176838637Y-102406425D01*
X176739575Y-102307363D01*
X176661741Y-102190876D01*
X176608132Y-102061451D01*
X176608131Y-102061449D01*
X176580800Y-101924047D01*
X176580800Y-101783953D01*
X176608131Y-101646551D01*
X176618033Y-101622645D01*
X176661741Y-101517124D01*
X176688055Y-101477743D01*
X176739575Y-101400637D01*
X176838637Y-101301575D01*
X176955121Y-101223743D01*
X176955124Y-101223741D01*
X177060645Y-101180033D01*
X177084551Y-101170131D01*
X177221953Y-101142800D01*
X177362047Y-101142800D01*
X177499449Y-101170131D01*
G37*
G36*
X156671449Y-101170131D02*
G01*
X156695355Y-101180033D01*
X156800876Y-101223741D01*
X156800879Y-101223743D01*
X156917363Y-101301575D01*
X157016425Y-101400637D01*
X157067946Y-101477743D01*
X157094259Y-101517124D01*
X157137967Y-101622645D01*
X157147869Y-101646551D01*
X157175200Y-101783953D01*
X157175200Y-101924047D01*
X157147869Y-102061449D01*
X157147868Y-102061451D01*
X157094259Y-102190876D01*
X157016425Y-102307363D01*
X156917363Y-102406425D01*
X156800876Y-102484259D01*
X156695355Y-102527967D01*
X156671449Y-102537869D01*
X156534047Y-102565200D01*
X156393953Y-102565200D01*
X156256551Y-102537869D01*
X156232645Y-102527967D01*
X156127124Y-102484259D01*
X156010637Y-102406425D01*
X155911575Y-102307363D01*
X155833741Y-102190876D01*
X155780132Y-102061451D01*
X155780131Y-102061449D01*
X155752800Y-101924047D01*
X155752800Y-101783953D01*
X155780131Y-101646551D01*
X155790033Y-101622645D01*
X155833741Y-101517124D01*
X155860055Y-101477743D01*
X155911575Y-101400637D01*
X156010637Y-101301575D01*
X156127121Y-101223743D01*
X156127124Y-101223741D01*
X156232645Y-101180033D01*
X156256551Y-101170131D01*
X156393953Y-101142800D01*
X156534047Y-101142800D01*
X156671449Y-101170131D01*
G37*
G36*
X142488043Y-100593758D02*
G01*
X142533459Y-100607535D01*
X142575310Y-100629905D01*
X142611992Y-100660008D01*
X142642095Y-100696690D01*
X142664465Y-100738541D01*
X142678242Y-100783957D01*
X142683200Y-100834297D01*
X142683200Y-101745703D01*
X142678242Y-101796043D01*
X142664465Y-101841459D01*
X142642095Y-101883310D01*
X142611992Y-101919992D01*
X142575310Y-101950095D01*
X142533459Y-101972465D01*
X142488043Y-101986242D01*
X142437703Y-101991200D01*
X141026297Y-101991200D01*
X140975957Y-101986242D01*
X140930541Y-101972465D01*
X140888690Y-101950095D01*
X140852008Y-101919992D01*
X140821905Y-101883310D01*
X140799535Y-101841459D01*
X140785758Y-101796043D01*
X140780800Y-101745703D01*
X140780800Y-100834297D01*
X140785758Y-100783957D01*
X140799535Y-100738541D01*
X140821905Y-100696690D01*
X140852008Y-100660008D01*
X140888690Y-100629905D01*
X140930541Y-100607535D01*
X140975957Y-100593758D01*
X141026297Y-100588800D01*
X142437703Y-100588800D01*
X142488043Y-100593758D01*
G37*
G36*
X179785449Y-100154131D02*
G01*
X179785452Y-100154132D01*
X179785451Y-100154132D01*
X179914876Y-100207741D01*
X180031363Y-100285575D01*
X180130425Y-100384637D01*
X180208259Y-100501124D01*
X180219191Y-100527517D01*
X180261869Y-100630551D01*
X180289200Y-100767953D01*
X180289200Y-100908047D01*
X180261869Y-101045449D01*
X180261868Y-101045451D01*
X180208259Y-101174876D01*
X180130425Y-101291363D01*
X180031363Y-101390425D01*
X179914876Y-101468259D01*
X179809355Y-101511967D01*
X179785449Y-101521869D01*
X179648047Y-101549200D01*
X179507953Y-101549200D01*
X179370551Y-101521869D01*
X179346645Y-101511967D01*
X179241124Y-101468259D01*
X179124637Y-101390425D01*
X179025575Y-101291363D01*
X178947741Y-101174876D01*
X178894132Y-101045451D01*
X178894131Y-101045449D01*
X178866800Y-100908047D01*
X178866800Y-100767953D01*
X178894131Y-100630551D01*
X178936809Y-100527517D01*
X178947741Y-100501124D01*
X179025575Y-100384637D01*
X179124637Y-100285575D01*
X179241124Y-100207741D01*
X179370549Y-100154132D01*
X179370548Y-100154132D01*
X179370551Y-100154131D01*
X179507953Y-100126800D01*
X179648047Y-100126800D01*
X179785449Y-100154131D01*
G37*
G36*
X161610831Y-100279407D02*
G01*
X161657690Y-100293621D01*
X161700877Y-100316705D01*
X161738730Y-100347770D01*
X161769795Y-100385623D01*
X161792879Y-100428810D01*
X161807093Y-100475669D01*
X161812200Y-100527517D01*
X161812200Y-101148483D01*
X161807093Y-101200331D01*
X161792879Y-101247190D01*
X161769795Y-101290377D01*
X161738730Y-101328230D01*
X161700877Y-101359295D01*
X161657690Y-101382379D01*
X161610831Y-101396593D01*
X161558983Y-101401700D01*
X160513017Y-101401700D01*
X160461169Y-101396593D01*
X160414310Y-101382379D01*
X160371123Y-101359295D01*
X160333270Y-101328230D01*
X160302205Y-101290377D01*
X160279121Y-101247190D01*
X160264907Y-101200331D01*
X160259800Y-101148483D01*
X160259800Y-100527517D01*
X160264907Y-100475669D01*
X160279121Y-100428810D01*
X160302205Y-100385623D01*
X160333270Y-100347770D01*
X160371123Y-100316705D01*
X160414310Y-100293621D01*
X160461169Y-100279407D01*
X160513017Y-100274300D01*
X161558983Y-100274300D01*
X161610831Y-100279407D01*
G37*
G36*
X151904700Y-100550901D02*
G01*
X150329900Y-100550901D01*
X150329900Y-98119099D01*
X151904700Y-98119099D01*
X151904700Y-100550901D01*
G37*
G36*
X177203100Y-100550901D02*
G01*
X175628300Y-100550901D01*
X175628300Y-98119099D01*
X177203100Y-98119099D01*
X177203100Y-100550901D01*
G37*
G36*
X156248100Y-100550901D02*
G01*
X154673300Y-100550901D01*
X154673300Y-98119099D01*
X156248100Y-98119099D01*
X156248100Y-100550901D01*
G37*
G36*
X172859700Y-100550901D02*
G01*
X171284900Y-100550901D01*
X171284900Y-98119099D01*
X172859700Y-98119099D01*
X172859700Y-100550901D01*
G37*
G36*
X159506043Y-99125758D02*
G01*
X159551459Y-99139535D01*
X159593310Y-99161905D01*
X159629992Y-99192008D01*
X159660095Y-99228690D01*
X159682465Y-99270541D01*
X159696242Y-99315957D01*
X159701200Y-99366297D01*
X159701200Y-100277703D01*
X159696242Y-100328043D01*
X159682465Y-100373459D01*
X159660095Y-100415310D01*
X159629992Y-100451992D01*
X159593310Y-100482095D01*
X159551459Y-100504465D01*
X159506043Y-100518242D01*
X159455703Y-100523200D01*
X158044297Y-100523200D01*
X157993957Y-100518242D01*
X157948541Y-100504465D01*
X157906690Y-100482095D01*
X157870008Y-100451992D01*
X157839905Y-100415310D01*
X157817535Y-100373459D01*
X157803758Y-100328043D01*
X157798800Y-100277703D01*
X157798800Y-99366297D01*
X157803758Y-99315957D01*
X157817535Y-99270541D01*
X157839905Y-99228690D01*
X157870008Y-99192008D01*
X157906690Y-99161905D01*
X157948541Y-99139535D01*
X157993957Y-99125758D01*
X158044297Y-99120800D01*
X159455703Y-99120800D01*
X159506043Y-99125758D01*
G37*
G36*
X161792043Y-98363758D02*
G01*
X161837459Y-98377535D01*
X161879310Y-98399905D01*
X161915992Y-98430008D01*
X161946095Y-98466690D01*
X161968465Y-98508541D01*
X161982242Y-98553957D01*
X161987200Y-98604297D01*
X161987200Y-99515703D01*
X161982242Y-99566043D01*
X161968465Y-99611459D01*
X161946095Y-99653310D01*
X161915992Y-99689992D01*
X161879310Y-99720095D01*
X161837459Y-99742465D01*
X161792043Y-99756242D01*
X161741703Y-99761200D01*
X160330297Y-99761200D01*
X160279957Y-99756242D01*
X160234541Y-99742465D01*
X160192690Y-99720095D01*
X160156008Y-99689992D01*
X160125905Y-99653310D01*
X160103535Y-99611459D01*
X160089758Y-99566043D01*
X160084800Y-99515703D01*
X160084800Y-98604297D01*
X160089758Y-98553957D01*
X160103535Y-98508541D01*
X160125905Y-98466690D01*
X160156008Y-98430008D01*
X160192690Y-98399905D01*
X160234541Y-98377535D01*
X160279957Y-98363758D01*
X160330297Y-98358800D01*
X161741703Y-98358800D01*
X161792043Y-98363758D01*
G37*
G36*
X147331331Y-97780907D02*
G01*
X147378190Y-97795121D01*
X147421377Y-97818205D01*
X147459230Y-97849270D01*
X147490295Y-97887123D01*
X147513379Y-97930310D01*
X147527593Y-97977169D01*
X147532700Y-98029017D01*
X147532700Y-99074983D01*
X147527593Y-99126831D01*
X147513379Y-99173690D01*
X147490295Y-99216877D01*
X147459230Y-99254730D01*
X147421377Y-99285795D01*
X147378190Y-99308879D01*
X147331331Y-99323093D01*
X147279483Y-99328200D01*
X146658517Y-99328200D01*
X146606669Y-99323093D01*
X146559810Y-99308879D01*
X146516623Y-99285795D01*
X146478770Y-99254730D01*
X146447705Y-99216877D01*
X146424621Y-99173690D01*
X146410407Y-99126831D01*
X146405300Y-99074983D01*
X146405300Y-98029017D01*
X146410407Y-97977169D01*
X146424621Y-97930310D01*
X146447705Y-97887123D01*
X146478770Y-97849270D01*
X146516623Y-97818205D01*
X146559810Y-97795121D01*
X146606669Y-97780907D01*
X146658517Y-97775800D01*
X147279483Y-97775800D01*
X147331331Y-97780907D01*
G37*
G36*
X149051449Y-96344131D02*
G01*
X149051452Y-96344132D01*
X149051451Y-96344132D01*
X149180876Y-96397741D01*
X149180879Y-96397743D01*
X149297363Y-96475575D01*
X149396425Y-96574637D01*
X149447946Y-96651743D01*
X149474259Y-96691124D01*
X149497051Y-96746150D01*
X149527869Y-96820551D01*
X149555200Y-96957953D01*
X149555200Y-97098047D01*
X149527869Y-97235449D01*
X149527868Y-97235451D01*
X149474259Y-97364876D01*
X149474257Y-97364879D01*
X149396425Y-97481363D01*
X149297363Y-97580425D01*
X149180879Y-97658257D01*
X149180878Y-97658258D01*
X149180877Y-97658258D01*
X149180751Y-97658310D01*
X149169773Y-97664178D01*
X149160151Y-97672075D01*
X149152254Y-97681697D01*
X149146386Y-97692676D01*
X149142773Y-97704588D01*
X149141553Y-97716976D01*
X149142773Y-97729364D01*
X149146387Y-97741276D01*
X149152255Y-97752254D01*
X149160152Y-97761876D01*
X149169774Y-97769773D01*
X149180753Y-97775641D01*
X149198828Y-97780168D01*
X149206331Y-97780907D01*
X149253190Y-97795121D01*
X149296377Y-97818205D01*
X149334230Y-97849270D01*
X149365295Y-97887123D01*
X149388379Y-97930310D01*
X149402593Y-97977169D01*
X149407700Y-98029017D01*
X149407700Y-99074983D01*
X149402593Y-99126831D01*
X149388379Y-99173690D01*
X149365295Y-99216877D01*
X149334230Y-99254730D01*
X149296377Y-99285795D01*
X149253190Y-99308879D01*
X149206331Y-99323093D01*
X149154483Y-99328200D01*
X148533517Y-99328200D01*
X148481669Y-99323093D01*
X148434810Y-99308879D01*
X148391623Y-99285795D01*
X148353770Y-99254730D01*
X148322705Y-99216877D01*
X148299621Y-99173690D01*
X148285407Y-99126831D01*
X148280300Y-99074983D01*
X148280300Y-98029017D01*
X148285407Y-97977169D01*
X148299621Y-97930310D01*
X148322705Y-97887123D01*
X148353770Y-97849270D01*
X148391623Y-97818205D01*
X148434810Y-97795121D01*
X148481669Y-97780907D01*
X148489172Y-97780168D01*
X148501380Y-97777740D01*
X148512881Y-97772976D01*
X148523231Y-97766061D01*
X148532033Y-97757259D01*
X148538949Y-97746909D01*
X148543713Y-97735408D01*
X148546141Y-97723199D01*
X148546141Y-97710751D01*
X148543713Y-97698543D01*
X148538949Y-97687042D01*
X148532034Y-97676692D01*
X148523232Y-97667890D01*
X148507249Y-97658310D01*
X148507123Y-97658258D01*
X148507122Y-97658258D01*
X148507121Y-97658257D01*
X148390637Y-97580425D01*
X148291575Y-97481363D01*
X148213743Y-97364879D01*
X148213741Y-97364876D01*
X148160132Y-97235451D01*
X148160131Y-97235449D01*
X148132800Y-97098047D01*
X148132800Y-96957953D01*
X148160131Y-96820551D01*
X148190949Y-96746150D01*
X148213741Y-96691124D01*
X148240055Y-96651743D01*
X148291575Y-96574637D01*
X148390637Y-96475575D01*
X148507121Y-96397743D01*
X148507124Y-96397741D01*
X148636549Y-96344132D01*
X148636548Y-96344132D01*
X148636551Y-96344131D01*
X148773953Y-96316800D01*
X148914047Y-96316800D01*
X149051449Y-96344131D01*
G37*
G36*
X165514020Y-99174300D02*
G01*
X163161980Y-99174300D01*
X163161980Y-97421700D01*
X165514020Y-97421700D01*
X165514020Y-99174300D01*
G37*
G36*
X137113449Y-97360131D02*
G01*
X137137355Y-97370033D01*
X137242876Y-97413741D01*
X137359363Y-97491575D01*
X137458425Y-97590637D01*
X137536259Y-97707124D01*
X137568622Y-97785257D01*
X137589869Y-97836551D01*
X137617200Y-97973953D01*
X137617200Y-98114047D01*
X137589869Y-98251449D01*
X137589868Y-98251451D01*
X137536259Y-98380876D01*
X137458425Y-98497363D01*
X137359363Y-98596425D01*
X137242876Y-98674259D01*
X137137355Y-98717967D01*
X137113449Y-98727869D01*
X136976047Y-98755200D01*
X136835953Y-98755200D01*
X136698551Y-98727869D01*
X136674645Y-98717967D01*
X136569124Y-98674259D01*
X136452637Y-98596425D01*
X136353575Y-98497363D01*
X136275741Y-98380876D01*
X136222132Y-98251451D01*
X136222131Y-98251449D01*
X136194800Y-98114047D01*
X136194800Y-97973953D01*
X136222131Y-97836551D01*
X136243378Y-97785257D01*
X136275741Y-97707124D01*
X136353575Y-97590637D01*
X136452637Y-97491575D01*
X136569124Y-97413741D01*
X136674645Y-97370033D01*
X136698551Y-97360131D01*
X136835953Y-97332800D01*
X136976047Y-97332800D01*
X137113449Y-97360131D01*
G37*
G36*
X158449449Y-96598131D02*
G01*
X158473355Y-96608033D01*
X158578876Y-96651741D01*
X158695363Y-96729575D01*
X158794425Y-96828637D01*
X158872259Y-96945124D01*
X158915967Y-97050645D01*
X158925869Y-97074551D01*
X158953200Y-97211953D01*
X158953200Y-97352047D01*
X158925869Y-97489449D01*
X158925868Y-97489451D01*
X158872259Y-97618876D01*
X158872257Y-97618879D01*
X158845945Y-97658258D01*
X158794425Y-97735363D01*
X158695363Y-97834425D01*
X158578876Y-97912259D01*
X158473355Y-97955967D01*
X158449449Y-97965869D01*
X158312047Y-97993200D01*
X158171953Y-97993200D01*
X158034551Y-97965869D01*
X158010645Y-97955967D01*
X157905124Y-97912259D01*
X157788637Y-97834425D01*
X157689575Y-97735363D01*
X157638055Y-97658258D01*
X157611743Y-97618879D01*
X157611741Y-97618876D01*
X157558132Y-97489451D01*
X157558131Y-97489449D01*
X157530800Y-97352047D01*
X157530800Y-97211953D01*
X157558131Y-97074551D01*
X157568033Y-97050645D01*
X157611741Y-96945124D01*
X157689575Y-96828637D01*
X157788637Y-96729575D01*
X157905124Y-96651741D01*
X158010645Y-96608033D01*
X158034551Y-96598131D01*
X158171953Y-96570800D01*
X158312047Y-96570800D01*
X158449449Y-96598131D01*
G37*
G36*
X171022449Y-96471131D02*
G01*
X171046355Y-96481033D01*
X171151876Y-96524741D01*
X171268363Y-96602575D01*
X171367425Y-96701637D01*
X171445259Y-96818124D01*
X171475027Y-96889992D01*
X171498869Y-96947551D01*
X171526200Y-97084953D01*
X171526200Y-97225047D01*
X171498869Y-97362449D01*
X171498868Y-97362451D01*
X171445259Y-97491876D01*
X171367425Y-97608363D01*
X171268363Y-97707425D01*
X171151876Y-97785259D01*
X171072336Y-97818205D01*
X171022449Y-97838869D01*
X170885047Y-97866200D01*
X170744953Y-97866200D01*
X170607551Y-97838869D01*
X170557664Y-97818205D01*
X170478124Y-97785259D01*
X170361637Y-97707425D01*
X170262575Y-97608363D01*
X170247822Y-97586284D01*
X170212365Y-97533219D01*
X170204471Y-97523600D01*
X170194849Y-97515703D01*
X170183870Y-97509835D01*
X170171958Y-97506221D01*
X170159570Y-97505001D01*
X170147182Y-97506221D01*
X170135270Y-97509834D01*
X170124292Y-97515702D01*
X170119287Y-97519415D01*
X170082880Y-97549293D01*
X170039690Y-97572379D01*
X169992831Y-97586593D01*
X169940983Y-97591700D01*
X168895017Y-97591700D01*
X168843169Y-97586593D01*
X168796310Y-97572379D01*
X168753123Y-97549295D01*
X168715270Y-97518230D01*
X168684205Y-97480377D01*
X168661121Y-97437190D01*
X168646907Y-97390331D01*
X168641800Y-97338483D01*
X168641800Y-96717517D01*
X168646907Y-96665669D01*
X168661121Y-96618810D01*
X168684205Y-96575623D01*
X168715270Y-96537770D01*
X168753123Y-96506705D01*
X168796310Y-96483621D01*
X168843169Y-96469407D01*
X168895017Y-96464300D01*
X169940983Y-96464300D01*
X169992831Y-96469407D01*
X170039690Y-96483621D01*
X170082877Y-96506705D01*
X170120730Y-96537770D01*
X170151795Y-96575623D01*
X170174879Y-96618811D01*
X170183813Y-96648263D01*
X170188576Y-96659764D01*
X170195492Y-96670114D01*
X170204294Y-96678916D01*
X170214643Y-96685832D01*
X170226144Y-96690596D01*
X170238353Y-96693025D01*
X170250801Y-96693025D01*
X170263009Y-96690597D01*
X170274510Y-96685834D01*
X170284860Y-96678918D01*
X170289479Y-96674733D01*
X170361637Y-96602575D01*
X170478124Y-96524741D01*
X170583645Y-96481033D01*
X170607551Y-96471131D01*
X170744953Y-96443800D01*
X170885047Y-96443800D01*
X171022449Y-96471131D01*
G37*
G36*
X161792043Y-95563758D02*
G01*
X161837459Y-95577535D01*
X161879310Y-95599905D01*
X161915992Y-95630008D01*
X161946095Y-95666690D01*
X161968465Y-95708541D01*
X161982242Y-95753957D01*
X161987200Y-95804297D01*
X161987200Y-96715703D01*
X161982242Y-96766043D01*
X161968465Y-96811459D01*
X161946095Y-96853310D01*
X161915992Y-96889992D01*
X161879310Y-96920095D01*
X161837459Y-96942465D01*
X161792043Y-96956242D01*
X161741703Y-96961200D01*
X160330297Y-96961200D01*
X160279957Y-96956242D01*
X160234541Y-96942465D01*
X160192690Y-96920095D01*
X160156008Y-96889992D01*
X160125905Y-96853310D01*
X160103535Y-96811459D01*
X160089758Y-96766043D01*
X160084800Y-96715703D01*
X160084800Y-95804297D01*
X160089758Y-95753957D01*
X160103535Y-95708541D01*
X160125905Y-95666690D01*
X160156008Y-95630008D01*
X160192690Y-95599905D01*
X160234541Y-95577535D01*
X160279957Y-95563758D01*
X160330297Y-95558800D01*
X161741703Y-95558800D01*
X161792043Y-95563758D01*
G37*
G36*
X134501870Y-95018432D02*
G01*
X134665879Y-95086366D01*
X134813482Y-95184992D01*
X134939008Y-95310518D01*
X135037634Y-95458121D01*
X135105568Y-95622130D01*
X135140200Y-95796240D01*
X135140200Y-95973760D01*
X135105568Y-96147870D01*
X135037634Y-96311879D01*
X134939008Y-96459482D01*
X134813482Y-96585008D01*
X134665879Y-96683634D01*
X134501870Y-96751568D01*
X134327760Y-96786200D01*
X134150240Y-96786200D01*
X133976130Y-96751568D01*
X133812121Y-96683634D01*
X133664518Y-96585008D01*
X133538992Y-96459482D01*
X133440366Y-96311879D01*
X133372432Y-96147870D01*
X133337800Y-95973760D01*
X133337800Y-95796240D01*
X133372432Y-95622130D01*
X133440366Y-95458121D01*
X133538992Y-95310518D01*
X133664518Y-95184992D01*
X133812121Y-95086366D01*
X133976130Y-95018432D01*
X134150240Y-94983800D01*
X134327760Y-94983800D01*
X134501870Y-95018432D01*
G37*
G36*
X169992831Y-94594407D02*
G01*
X170039690Y-94608621D01*
X170082877Y-94631705D01*
X170120730Y-94662770D01*
X170151795Y-94700623D01*
X170174879Y-94743810D01*
X170189093Y-94790669D01*
X170194200Y-94842517D01*
X170194200Y-95463483D01*
X170189093Y-95515331D01*
X170174879Y-95562190D01*
X170151795Y-95605377D01*
X170120730Y-95643230D01*
X170082877Y-95674295D01*
X170039690Y-95697379D01*
X169992831Y-95711593D01*
X169940983Y-95716700D01*
X168895017Y-95716700D01*
X168843169Y-95711593D01*
X168796310Y-95697379D01*
X168753123Y-95674295D01*
X168715270Y-95643230D01*
X168684205Y-95605377D01*
X168661121Y-95562190D01*
X168646907Y-95515331D01*
X168641800Y-95463483D01*
X168641800Y-94842517D01*
X168646907Y-94790669D01*
X168661121Y-94743810D01*
X168684205Y-94700623D01*
X168715270Y-94662770D01*
X168753123Y-94631705D01*
X168796310Y-94608621D01*
X168843169Y-94594407D01*
X168895017Y-94589300D01*
X169940983Y-94589300D01*
X169992831Y-94594407D01*
G37*
G36*
X153623449Y-94312131D02*
G01*
X153623452Y-94312132D01*
X153623451Y-94312132D01*
X153752876Y-94365741D01*
X153869363Y-94443575D01*
X153968425Y-94542637D01*
X154046259Y-94659124D01*
X154051573Y-94671954D01*
X154099869Y-94788551D01*
X154127200Y-94925953D01*
X154127200Y-95066047D01*
X154099869Y-95203449D01*
X154099868Y-95203451D01*
X154046259Y-95332876D01*
X154046257Y-95332879D01*
X153968425Y-95449363D01*
X153869363Y-95548425D01*
X153759056Y-95622130D01*
X153752876Y-95626259D01*
X153655266Y-95666690D01*
X153623449Y-95679869D01*
X153486047Y-95707200D01*
X153345953Y-95707200D01*
X153208551Y-95679869D01*
X153176734Y-95666690D01*
X153079124Y-95626259D01*
X153072945Y-95622130D01*
X152962637Y-95548425D01*
X152863575Y-95449363D01*
X152785743Y-95332879D01*
X152785741Y-95332876D01*
X152732132Y-95203451D01*
X152732131Y-95203449D01*
X152704800Y-95066047D01*
X152704800Y-94925953D01*
X152732131Y-94788551D01*
X152780427Y-94671954D01*
X152785741Y-94659124D01*
X152863575Y-94542637D01*
X152962637Y-94443575D01*
X153079124Y-94365741D01*
X153208549Y-94312132D01*
X153208548Y-94312132D01*
X153208551Y-94312131D01*
X153345953Y-94284800D01*
X153486047Y-94284800D01*
X153623449Y-94312131D01*
G37*
G36*
X174451449Y-94058131D02*
G01*
X174451452Y-94058132D01*
X174451451Y-94058132D01*
X174580876Y-94111741D01*
X174580879Y-94111743D01*
X174697363Y-94189575D01*
X174796425Y-94288637D01*
X174847946Y-94365743D01*
X174874259Y-94405124D01*
X174917967Y-94510645D01*
X174927869Y-94534551D01*
X174955200Y-94671953D01*
X174955200Y-94812047D01*
X174927869Y-94949449D01*
X174927868Y-94949451D01*
X174874259Y-95078876D01*
X174796425Y-95195363D01*
X174697363Y-95294425D01*
X174580876Y-95372259D01*
X174475355Y-95415967D01*
X174451449Y-95425869D01*
X174314047Y-95453200D01*
X174173953Y-95453200D01*
X174036551Y-95425869D01*
X174012645Y-95415967D01*
X173907124Y-95372259D01*
X173790637Y-95294425D01*
X173691575Y-95195363D01*
X173613741Y-95078876D01*
X173560132Y-94949451D01*
X173560131Y-94949449D01*
X173532800Y-94812047D01*
X173532800Y-94671953D01*
X173560131Y-94534551D01*
X173570033Y-94510645D01*
X173613741Y-94405124D01*
X173640055Y-94365743D01*
X173691575Y-94288637D01*
X173790637Y-94189575D01*
X173907121Y-94111743D01*
X173907124Y-94111741D01*
X174036549Y-94058132D01*
X174036548Y-94058132D01*
X174036551Y-94058131D01*
X174173953Y-94030800D01*
X174314047Y-94030800D01*
X174451449Y-94058131D01*
G37*
G36*
X165514020Y-95374460D02*
G01*
X163161980Y-95374460D01*
X163161980Y-93621860D01*
X165514020Y-93621860D01*
X165514020Y-95374460D01*
G37*
G36*
X130685200Y-93081200D02*
G01*
X128482800Y-93081200D01*
X128482800Y-92338800D01*
X130685200Y-92338800D01*
X130685200Y-93081200D01*
G37*
G36*
X139995200Y-93081200D02*
G01*
X137792800Y-93081200D01*
X137792800Y-92338800D01*
X139995200Y-92338800D01*
X139995200Y-93081200D01*
G37*
G36*
X156458043Y-91505758D02*
G01*
X156503459Y-91519535D01*
X156545310Y-91541905D01*
X156581992Y-91572008D01*
X156612095Y-91608690D01*
X156634465Y-91650541D01*
X156648242Y-91695957D01*
X156653200Y-91746297D01*
X156653200Y-92657703D01*
X156648242Y-92708043D01*
X156634465Y-92753459D01*
X156612095Y-92795310D01*
X156581992Y-92831992D01*
X156545310Y-92862095D01*
X156503459Y-92884465D01*
X156458043Y-92898242D01*
X156407703Y-92903200D01*
X154996297Y-92903200D01*
X154945957Y-92898242D01*
X154900541Y-92884465D01*
X154858690Y-92862095D01*
X154822008Y-92831992D01*
X154791905Y-92795310D01*
X154769535Y-92753459D01*
X154755758Y-92708043D01*
X154750800Y-92657703D01*
X154750800Y-91746297D01*
X154755758Y-91695957D01*
X154769535Y-91650541D01*
X154791905Y-91608690D01*
X154822008Y-91572008D01*
X154858690Y-91541905D01*
X154900541Y-91519535D01*
X154945957Y-91505758D01*
X154996297Y-91500800D01*
X156407703Y-91500800D01*
X156458043Y-91505758D01*
G37*
G36*
X184652043Y-91381758D02*
G01*
X184697459Y-91395535D01*
X184739310Y-91417905D01*
X184775992Y-91448008D01*
X184806095Y-91484690D01*
X184828465Y-91526541D01*
X184842242Y-91571957D01*
X184847200Y-91622297D01*
X184847200Y-92533703D01*
X184842242Y-92584043D01*
X184828465Y-92629459D01*
X184806095Y-92671310D01*
X184775992Y-92707992D01*
X184739310Y-92738095D01*
X184697459Y-92760465D01*
X184652043Y-92774242D01*
X184601703Y-92779200D01*
X183190297Y-92779200D01*
X183139957Y-92774242D01*
X183094541Y-92760465D01*
X183052690Y-92738095D01*
X183016008Y-92707992D01*
X182985905Y-92671310D01*
X182963535Y-92629459D01*
X182949758Y-92584043D01*
X182944800Y-92533703D01*
X182944800Y-91622297D01*
X182949758Y-91571957D01*
X182963535Y-91526541D01*
X182985905Y-91484690D01*
X183016008Y-91448008D01*
X183052690Y-91417905D01*
X183094541Y-91395535D01*
X183139957Y-91381758D01*
X183190297Y-91376800D01*
X184601703Y-91376800D01*
X184652043Y-91381758D01*
G37*
G36*
X164844043Y-90239758D02*
G01*
X164889459Y-90253535D01*
X164931310Y-90275905D01*
X164967992Y-90306008D01*
X164998095Y-90342690D01*
X165020465Y-90384541D01*
X165034242Y-90429957D01*
X165039200Y-90480297D01*
X165039200Y-91891703D01*
X165034242Y-91942043D01*
X165020465Y-91987459D01*
X164998095Y-92029310D01*
X164967992Y-92065992D01*
X164931310Y-92096095D01*
X164889459Y-92118465D01*
X164844043Y-92132242D01*
X164793703Y-92137200D01*
X163882297Y-92137200D01*
X163831957Y-92132242D01*
X163786541Y-92118465D01*
X163744690Y-92096095D01*
X163708008Y-92065992D01*
X163677905Y-92029310D01*
X163655535Y-91987459D01*
X163641758Y-91942043D01*
X163636800Y-91891703D01*
X163636800Y-90480297D01*
X163641758Y-90429957D01*
X163655535Y-90384541D01*
X163677905Y-90342690D01*
X163708008Y-90306008D01*
X163744690Y-90275905D01*
X163786541Y-90253535D01*
X163831957Y-90239758D01*
X163882297Y-90234800D01*
X164793703Y-90234800D01*
X164844043Y-90239758D01*
G37*
G36*
X167644043Y-90239758D02*
G01*
X167689459Y-90253535D01*
X167731310Y-90275905D01*
X167767992Y-90306008D01*
X167798095Y-90342690D01*
X167820465Y-90384541D01*
X167834242Y-90429957D01*
X167839200Y-90480297D01*
X167839200Y-91891703D01*
X167834242Y-91942043D01*
X167820465Y-91987459D01*
X167798095Y-92029310D01*
X167767992Y-92065992D01*
X167731310Y-92096095D01*
X167689459Y-92118465D01*
X167644043Y-92132242D01*
X167593703Y-92137200D01*
X166682297Y-92137200D01*
X166631957Y-92132242D01*
X166586541Y-92118465D01*
X166544690Y-92096095D01*
X166508008Y-92065992D01*
X166477905Y-92029310D01*
X166455535Y-91987459D01*
X166441758Y-91942043D01*
X166436800Y-91891703D01*
X166436800Y-90480297D01*
X166441758Y-90429957D01*
X166455535Y-90384541D01*
X166477905Y-90342690D01*
X166508008Y-90306008D01*
X166544690Y-90275905D01*
X166586541Y-90253535D01*
X166631957Y-90239758D01*
X166682297Y-90234800D01*
X167593703Y-90234800D01*
X167644043Y-90239758D01*
G37*
G36*
X139995200Y-91811200D02*
G01*
X137792800Y-91811200D01*
X137792800Y-91068800D01*
X139995200Y-91068800D01*
X139995200Y-91811200D01*
G37*
G36*
X130685200Y-91811200D02*
G01*
X128482800Y-91811200D01*
X128482800Y-91068800D01*
X130685200Y-91068800D01*
X130685200Y-91811200D01*
G37*
G36*
X139995200Y-90541200D02*
G01*
X137792800Y-90541200D01*
X137792800Y-89798800D01*
X139995200Y-89798800D01*
X139995200Y-90541200D01*
G37*
G36*
X130685200Y-90541200D02*
G01*
X128482800Y-90541200D01*
X128482800Y-89798800D01*
X130685200Y-89798800D01*
X130685200Y-90541200D01*
G37*
G36*
X156458043Y-88705758D02*
G01*
X156503459Y-88719535D01*
X156545310Y-88741905D01*
X156581992Y-88772008D01*
X156612095Y-88808690D01*
X156634465Y-88850541D01*
X156648242Y-88895957D01*
X156653200Y-88946297D01*
X156653200Y-89857703D01*
X156648242Y-89908043D01*
X156634465Y-89953459D01*
X156612095Y-89995310D01*
X156581992Y-90031992D01*
X156545310Y-90062095D01*
X156503459Y-90084465D01*
X156458043Y-90098242D01*
X156407703Y-90103200D01*
X154996297Y-90103200D01*
X154945957Y-90098242D01*
X154900541Y-90084465D01*
X154858690Y-90062095D01*
X154822008Y-90031992D01*
X154791905Y-89995310D01*
X154769535Y-89953459D01*
X154755758Y-89908043D01*
X154750800Y-89857703D01*
X154750800Y-88946297D01*
X154755758Y-88895957D01*
X154769535Y-88850541D01*
X154791905Y-88808690D01*
X154822008Y-88772008D01*
X154858690Y-88741905D01*
X154900541Y-88719535D01*
X154945957Y-88705758D01*
X154996297Y-88700800D01*
X156407703Y-88700800D01*
X156458043Y-88705758D01*
G37*
G36*
X184652043Y-88581758D02*
G01*
X184697459Y-88595535D01*
X184739310Y-88617905D01*
X184775992Y-88648008D01*
X184806095Y-88684690D01*
X184828465Y-88726541D01*
X184842242Y-88771957D01*
X184847200Y-88822297D01*
X184847200Y-89733703D01*
X184842242Y-89784043D01*
X184828465Y-89829459D01*
X184806095Y-89871310D01*
X184775992Y-89907992D01*
X184739310Y-89938095D01*
X184697459Y-89960465D01*
X184652043Y-89974242D01*
X184601703Y-89979200D01*
X183190297Y-89979200D01*
X183139957Y-89974242D01*
X183094541Y-89960465D01*
X183052690Y-89938095D01*
X183016008Y-89907992D01*
X182985905Y-89871310D01*
X182963535Y-89829459D01*
X182949758Y-89784043D01*
X182944800Y-89733703D01*
X182944800Y-88822297D01*
X182949758Y-88771957D01*
X182963535Y-88726541D01*
X182985905Y-88684690D01*
X183016008Y-88648008D01*
X183052690Y-88617905D01*
X183094541Y-88595535D01*
X183139957Y-88581758D01*
X183190297Y-88576800D01*
X184601703Y-88576800D01*
X184652043Y-88581758D01*
G37*
G36*
X178810043Y-88463758D02*
G01*
X178855459Y-88477535D01*
X178897310Y-88499905D01*
X178933992Y-88530008D01*
X178964095Y-88566690D01*
X178986465Y-88608541D01*
X179000242Y-88653957D01*
X179005200Y-88704297D01*
X179005200Y-89615703D01*
X179000242Y-89666043D01*
X178986465Y-89711459D01*
X178964095Y-89753310D01*
X178933992Y-89789992D01*
X178897310Y-89820095D01*
X178855459Y-89842465D01*
X178810043Y-89856242D01*
X178759703Y-89861200D01*
X177348297Y-89861200D01*
X177297957Y-89856242D01*
X177252541Y-89842465D01*
X177210690Y-89820095D01*
X177174008Y-89789992D01*
X177143905Y-89753310D01*
X177121535Y-89711459D01*
X177107758Y-89666043D01*
X177102800Y-89615703D01*
X177102800Y-88704297D01*
X177107758Y-88653957D01*
X177121535Y-88608541D01*
X177143905Y-88566690D01*
X177174008Y-88530008D01*
X177210690Y-88499905D01*
X177252541Y-88477535D01*
X177297957Y-88463758D01*
X177348297Y-88458800D01*
X178759703Y-88458800D01*
X178810043Y-88463758D01*
G37*
G36*
X130685200Y-89271200D02*
G01*
X128482800Y-89271200D01*
X128482800Y-88528800D01*
X130685200Y-88528800D01*
X130685200Y-89271200D01*
G37*
G36*
X139995200Y-89271200D02*
G01*
X137792800Y-89271200D01*
X137792800Y-88528800D01*
X139995200Y-88528800D01*
X139995200Y-89271200D01*
G37*
G36*
X167995452Y-84744104D02*
G01*
X168034481Y-84755943D01*
X168070440Y-84775164D01*
X168101965Y-84801035D01*
X168127836Y-84832560D01*
X168147057Y-84868519D01*
X168158896Y-84907548D01*
X168163200Y-84951245D01*
X168163200Y-87880755D01*
X168158896Y-87924452D01*
X168147057Y-87963481D01*
X168127836Y-87999440D01*
X168101965Y-88030965D01*
X168070440Y-88056836D01*
X168034481Y-88076057D01*
X167995452Y-88087896D01*
X167951755Y-88092200D01*
X163772245Y-88092200D01*
X163728548Y-88087896D01*
X163689519Y-88076057D01*
X163653560Y-88056836D01*
X163622035Y-88030965D01*
X163596164Y-87999440D01*
X163576943Y-87963481D01*
X163565104Y-87924452D01*
X163560800Y-87880755D01*
X163560800Y-84951245D01*
X163565104Y-84907548D01*
X163576943Y-84868519D01*
X163596164Y-84832560D01*
X163622035Y-84801035D01*
X163653560Y-84775164D01*
X163689519Y-84755943D01*
X163728548Y-84744104D01*
X163772245Y-84739800D01*
X167951755Y-84739800D01*
X167995452Y-84744104D01*
G37*
G36*
X184822200Y-88048200D02*
G01*
X182969800Y-88048200D01*
X182969800Y-86195800D01*
X184822200Y-86195800D01*
X184822200Y-88048200D01*
G37*
G36*
X139995200Y-88001200D02*
G01*
X137792800Y-88001200D01*
X137792800Y-87258800D01*
X139995200Y-87258800D01*
X139995200Y-88001200D01*
G37*
G36*
X130685200Y-88001200D02*
G01*
X128482800Y-88001200D01*
X128482800Y-87258800D01*
X130685200Y-87258800D01*
X130685200Y-88001200D01*
G37*
G36*
X142306831Y-86484907D02*
G01*
X142353690Y-86499121D01*
X142396877Y-86522205D01*
X142434730Y-86553270D01*
X142465795Y-86591123D01*
X142488879Y-86634310D01*
X142503093Y-86681169D01*
X142508200Y-86733017D01*
X142508200Y-87353983D01*
X142503093Y-87405831D01*
X142488879Y-87452690D01*
X142465795Y-87495877D01*
X142434730Y-87533730D01*
X142396877Y-87564795D01*
X142353690Y-87587879D01*
X142306831Y-87602093D01*
X142254983Y-87607200D01*
X141209017Y-87607200D01*
X141157169Y-87602093D01*
X141110310Y-87587879D01*
X141067123Y-87564795D01*
X141029270Y-87533730D01*
X140998205Y-87495877D01*
X140975121Y-87452690D01*
X140960907Y-87405831D01*
X140955800Y-87353983D01*
X140955800Y-86733017D01*
X140960907Y-86681169D01*
X140975121Y-86634310D01*
X140998205Y-86591123D01*
X141029270Y-86553270D01*
X141067123Y-86522205D01*
X141110310Y-86499121D01*
X141157169Y-86484907D01*
X141209017Y-86479800D01*
X142254983Y-86479800D01*
X142306831Y-86484907D01*
G37*
G36*
X133303449Y-86184131D02*
G01*
X133303452Y-86184132D01*
X133303451Y-86184132D01*
X133432876Y-86237741D01*
X133549363Y-86315575D01*
X133648425Y-86414637D01*
X133726259Y-86531124D01*
X133751111Y-86591123D01*
X133779869Y-86660551D01*
X133807200Y-86797953D01*
X133807200Y-86938047D01*
X133779869Y-87075449D01*
X133779868Y-87075451D01*
X133726259Y-87204876D01*
X133648425Y-87321363D01*
X133549363Y-87420425D01*
X133432876Y-87498259D01*
X133347240Y-87533730D01*
X133303449Y-87551869D01*
X133166047Y-87579200D01*
X133025953Y-87579200D01*
X132888551Y-87551869D01*
X132844760Y-87533730D01*
X132759124Y-87498259D01*
X132642637Y-87420425D01*
X132543575Y-87321363D01*
X132465741Y-87204876D01*
X132412132Y-87075451D01*
X132412131Y-87075449D01*
X132384800Y-86938047D01*
X132384800Y-86797953D01*
X132412131Y-86660551D01*
X132440889Y-86591123D01*
X132465741Y-86531124D01*
X132543575Y-86414637D01*
X132642637Y-86315575D01*
X132759124Y-86237741D01*
X132888549Y-86184132D01*
X132888548Y-86184132D01*
X132888551Y-86184131D01*
X133025953Y-86156800D01*
X133166047Y-86156800D01*
X133303449Y-86184131D01*
G37*
G36*
X178810043Y-85663758D02*
G01*
X178855459Y-85677535D01*
X178897310Y-85699905D01*
X178933992Y-85730008D01*
X178964095Y-85766690D01*
X178986465Y-85808541D01*
X179000242Y-85853957D01*
X179005200Y-85904297D01*
X179005200Y-86815703D01*
X179000242Y-86866043D01*
X178986465Y-86911459D01*
X178964095Y-86953310D01*
X178933992Y-86989992D01*
X178897310Y-87020095D01*
X178855459Y-87042465D01*
X178810043Y-87056242D01*
X178759703Y-87061200D01*
X177348297Y-87061200D01*
X177297957Y-87056242D01*
X177252541Y-87042465D01*
X177210690Y-87020095D01*
X177174008Y-86989992D01*
X177143905Y-86953310D01*
X177121535Y-86911459D01*
X177107758Y-86866043D01*
X177102800Y-86815703D01*
X177102800Y-85904297D01*
X177107758Y-85853957D01*
X177121535Y-85808541D01*
X177143905Y-85766690D01*
X177174008Y-85730008D01*
X177210690Y-85699905D01*
X177252541Y-85677535D01*
X177297957Y-85663758D01*
X177348297Y-85658800D01*
X178759703Y-85658800D01*
X178810043Y-85663758D01*
G37*
G36*
X139995200Y-86731200D02*
G01*
X137792800Y-86731200D01*
X137792800Y-85988800D01*
X139995200Y-85988800D01*
X139995200Y-86731200D01*
G37*
G36*
X130685200Y-86731200D02*
G01*
X128482800Y-86731200D01*
X128482800Y-85988800D01*
X130685200Y-85988800D01*
X130685200Y-86731200D01*
G37*
G36*
X147312043Y-83889758D02*
G01*
X147357459Y-83903535D01*
X147399310Y-83925905D01*
X147435992Y-83956008D01*
X147466095Y-83992690D01*
X147488465Y-84034541D01*
X147502242Y-84079957D01*
X147507200Y-84130297D01*
X147507200Y-85541703D01*
X147502242Y-85592043D01*
X147488465Y-85637459D01*
X147466095Y-85679310D01*
X147435992Y-85715992D01*
X147399310Y-85746095D01*
X147357459Y-85768465D01*
X147312043Y-85782242D01*
X147261703Y-85787200D01*
X146350297Y-85787200D01*
X146299957Y-85782242D01*
X146254541Y-85768465D01*
X146212690Y-85746095D01*
X146176008Y-85715992D01*
X146145905Y-85679310D01*
X146123535Y-85637459D01*
X146109758Y-85592043D01*
X146104800Y-85541703D01*
X146104800Y-84130297D01*
X146109758Y-84079957D01*
X146123535Y-84034541D01*
X146145905Y-83992690D01*
X146176008Y-83956008D01*
X146212690Y-83925905D01*
X146254541Y-83903535D01*
X146299957Y-83889758D01*
X146350297Y-83884800D01*
X147261703Y-83884800D01*
X147312043Y-83889758D01*
G37*
G36*
X150112043Y-83889758D02*
G01*
X150157459Y-83903535D01*
X150199310Y-83925905D01*
X150235992Y-83956008D01*
X150266095Y-83992690D01*
X150288465Y-84034541D01*
X150302242Y-84079957D01*
X150307200Y-84130297D01*
X150307200Y-85541703D01*
X150302242Y-85592043D01*
X150288465Y-85637459D01*
X150266095Y-85679310D01*
X150235992Y-85715992D01*
X150199310Y-85746095D01*
X150157459Y-85768465D01*
X150112043Y-85782242D01*
X150061703Y-85787200D01*
X149150297Y-85787200D01*
X149099957Y-85782242D01*
X149054541Y-85768465D01*
X149012690Y-85746095D01*
X148976008Y-85715992D01*
X148945905Y-85679310D01*
X148923535Y-85637459D01*
X148909758Y-85592043D01*
X148904800Y-85541703D01*
X148904800Y-84130297D01*
X148909758Y-84079957D01*
X148923535Y-84034541D01*
X148945905Y-83992690D01*
X148976008Y-83956008D01*
X149012690Y-83925905D01*
X149054541Y-83903535D01*
X149099957Y-83889758D01*
X149150297Y-83884800D01*
X150061703Y-83884800D01*
X150112043Y-83889758D01*
G37*
G36*
X142306831Y-84609907D02*
G01*
X142353690Y-84624121D01*
X142396877Y-84647205D01*
X142434730Y-84678270D01*
X142465795Y-84716123D01*
X142488879Y-84759310D01*
X142503093Y-84806169D01*
X142508200Y-84858017D01*
X142508200Y-85478983D01*
X142503093Y-85530831D01*
X142488879Y-85577690D01*
X142465795Y-85620877D01*
X142434730Y-85658730D01*
X142396877Y-85689795D01*
X142353690Y-85712879D01*
X142306831Y-85727093D01*
X142254983Y-85732200D01*
X141209017Y-85732200D01*
X141157169Y-85727093D01*
X141110310Y-85712879D01*
X141067123Y-85689795D01*
X141029270Y-85658730D01*
X140998205Y-85620877D01*
X140975121Y-85577690D01*
X140960907Y-85530831D01*
X140955800Y-85478983D01*
X140955800Y-84858017D01*
X140960907Y-84806169D01*
X140975121Y-84759310D01*
X140998205Y-84716123D01*
X141029270Y-84678270D01*
X141067123Y-84647205D01*
X141110310Y-84624121D01*
X141157169Y-84609907D01*
X141209017Y-84604800D01*
X142254983Y-84604800D01*
X142306831Y-84609907D01*
G37*
G36*
X152000331Y-84064907D02*
G01*
X152047190Y-84079121D01*
X152090377Y-84102205D01*
X152128230Y-84133270D01*
X152159295Y-84171123D01*
X152182379Y-84214310D01*
X152196593Y-84261169D01*
X152201700Y-84313017D01*
X152201700Y-85358983D01*
X152196593Y-85410831D01*
X152182379Y-85457690D01*
X152159295Y-85500877D01*
X152128230Y-85538730D01*
X152090377Y-85569795D01*
X152047190Y-85592879D01*
X152000331Y-85607093D01*
X151948483Y-85612200D01*
X151327517Y-85612200D01*
X151275669Y-85607093D01*
X151228810Y-85592879D01*
X151185623Y-85569795D01*
X151147770Y-85538730D01*
X151116705Y-85500877D01*
X151093621Y-85457690D01*
X151079407Y-85410831D01*
X151074300Y-85358983D01*
X151074300Y-84313017D01*
X151079407Y-84261169D01*
X151093621Y-84214310D01*
X151116705Y-84171123D01*
X151147770Y-84133270D01*
X151185623Y-84102205D01*
X151228810Y-84079121D01*
X151275669Y-84064907D01*
X151327517Y-84059800D01*
X151948483Y-84059800D01*
X152000331Y-84064907D01*
G37*
G36*
X153875331Y-84064907D02*
G01*
X153922190Y-84079121D01*
X153965377Y-84102205D01*
X154003230Y-84133270D01*
X154034295Y-84171123D01*
X154057379Y-84214310D01*
X154071593Y-84261169D01*
X154076700Y-84313017D01*
X154076700Y-85358983D01*
X154071593Y-85410831D01*
X154057379Y-85457690D01*
X154034295Y-85500877D01*
X154003230Y-85538730D01*
X153965377Y-85569795D01*
X153922190Y-85592879D01*
X153875331Y-85607093D01*
X153823483Y-85612200D01*
X153202517Y-85612200D01*
X153150669Y-85607093D01*
X153103810Y-85592879D01*
X153060623Y-85569795D01*
X153022770Y-85538730D01*
X152991705Y-85500877D01*
X152968621Y-85457690D01*
X152954407Y-85410831D01*
X152949300Y-85358983D01*
X152949300Y-84313017D01*
X152954407Y-84261169D01*
X152968621Y-84214310D01*
X152991705Y-84171123D01*
X153022770Y-84133270D01*
X153060623Y-84102205D01*
X153103810Y-84079121D01*
X153150669Y-84064907D01*
X153202517Y-84059800D01*
X153823483Y-84059800D01*
X153875331Y-84064907D01*
G37*
G36*
X184005068Y-83659350D02*
G01*
X184166166Y-83691393D01*
X184334717Y-83761210D01*
X184486418Y-83862573D01*
X184615427Y-83991582D01*
X184716790Y-84143283D01*
X184786607Y-84311834D01*
X184818650Y-84472932D01*
X184822200Y-84490777D01*
X184822200Y-84673223D01*
X184818650Y-84691068D01*
X184786607Y-84852166D01*
X184716790Y-85020717D01*
X184615427Y-85172418D01*
X184486418Y-85301427D01*
X184334717Y-85402790D01*
X184166166Y-85472607D01*
X184005068Y-85504650D01*
X183987223Y-85508200D01*
X183804777Y-85508200D01*
X183786932Y-85504650D01*
X183625834Y-85472607D01*
X183457283Y-85402790D01*
X183305582Y-85301427D01*
X183176573Y-85172418D01*
X183075210Y-85020717D01*
X183005393Y-84852166D01*
X182973350Y-84691068D01*
X182969800Y-84673223D01*
X182969800Y-84490777D01*
X182973350Y-84472932D01*
X183005393Y-84311834D01*
X183075210Y-84143283D01*
X183176573Y-83991582D01*
X183305582Y-83862573D01*
X183457283Y-83761210D01*
X183625834Y-83691393D01*
X183786932Y-83659350D01*
X183804777Y-83655800D01*
X183987223Y-83655800D01*
X184005068Y-83659350D01*
G37*
G36*
X130685200Y-85461200D02*
G01*
X128482800Y-85461200D01*
X128482800Y-84718800D01*
X130685200Y-84718800D01*
X130685200Y-85461200D01*
G37*
G36*
X139995200Y-85461200D02*
G01*
X137792800Y-85461200D01*
X137792800Y-84718800D01*
X139995200Y-84718800D01*
X139995200Y-85461200D01*
G37*
G36*
X127969449Y-83136131D02*
G01*
X127993355Y-83146033D01*
X128098876Y-83189741D01*
X128098879Y-83189743D01*
X128215363Y-83267575D01*
X128314425Y-83366637D01*
X128359609Y-83434259D01*
X128366503Y-83444578D01*
X128374400Y-83454200D01*
X128384023Y-83462097D01*
X128395001Y-83467965D01*
X128406913Y-83471579D01*
X128419301Y-83472799D01*
X128431689Y-83471579D01*
X128443601Y-83467966D01*
X128454579Y-83462098D01*
X128464201Y-83454201D01*
X128468633Y-83448800D01*
X130685200Y-83448800D01*
X130685200Y-84191200D01*
X128468634Y-84191200D01*
X128464202Y-84185799D01*
X128454579Y-84177903D01*
X128443601Y-84172035D01*
X128431689Y-84168421D01*
X128419301Y-84167201D01*
X128406913Y-84168421D01*
X128395001Y-84172035D01*
X128384023Y-84177903D01*
X128374400Y-84185799D01*
X128366503Y-84195422D01*
X128314425Y-84273363D01*
X128215363Y-84372425D01*
X128098876Y-84450259D01*
X128001056Y-84490777D01*
X127969449Y-84503869D01*
X127832047Y-84531200D01*
X127691953Y-84531200D01*
X127554551Y-84503869D01*
X127522944Y-84490777D01*
X127425124Y-84450259D01*
X127308637Y-84372425D01*
X127209575Y-84273363D01*
X127131741Y-84156876D01*
X127078132Y-84027451D01*
X127078131Y-84027449D01*
X127050800Y-83890047D01*
X127050800Y-83749953D01*
X127078131Y-83612551D01*
X127118455Y-83515200D01*
X127131741Y-83483124D01*
X127209575Y-83366637D01*
X127308637Y-83267575D01*
X127425124Y-83189741D01*
X127530645Y-83146033D01*
X127554551Y-83136131D01*
X127691953Y-83108800D01*
X127832047Y-83108800D01*
X127969449Y-83136131D01*
G37*
G36*
X139995200Y-84191200D02*
G01*
X137792800Y-84191200D01*
X137792800Y-83448800D01*
X139995200Y-83448800D01*
X139995200Y-84191200D01*
G37*
G36*
X156036449Y-82374131D02*
G01*
X156060355Y-82384033D01*
X156165876Y-82427741D01*
X156282363Y-82505575D01*
X156381425Y-82604637D01*
X156459259Y-82721124D01*
X156491698Y-82799440D01*
X156512869Y-82850551D01*
X156540200Y-82987953D01*
X156540200Y-83128047D01*
X156512869Y-83265449D01*
X156512868Y-83265451D01*
X156459259Y-83394876D01*
X156459257Y-83394879D01*
X156432944Y-83434259D01*
X156381425Y-83511363D01*
X156282363Y-83610425D01*
X156165876Y-83688259D01*
X156060355Y-83731967D01*
X156036449Y-83741869D01*
X155899047Y-83769200D01*
X155758953Y-83769200D01*
X155621551Y-83741869D01*
X155597645Y-83731967D01*
X155492124Y-83688259D01*
X155375637Y-83610425D01*
X155276575Y-83511363D01*
X155225056Y-83434259D01*
X155198743Y-83394879D01*
X155198741Y-83394876D01*
X155145132Y-83265451D01*
X155145131Y-83265449D01*
X155117800Y-83128047D01*
X155117800Y-82987953D01*
X155145131Y-82850551D01*
X155166302Y-82799440D01*
X155198741Y-82721124D01*
X155276575Y-82604637D01*
X155375637Y-82505575D01*
X155492124Y-82427741D01*
X155597645Y-82384033D01*
X155621551Y-82374131D01*
X155758953Y-82346800D01*
X155899047Y-82346800D01*
X156036449Y-82374131D01*
G37*
G36*
X159719449Y-77548131D02*
G01*
X159719452Y-77548132D01*
X159719451Y-77548132D01*
X159848876Y-77601741D01*
X159965363Y-77679575D01*
X160064425Y-77778637D01*
X160142259Y-77895124D01*
X160185967Y-78000645D01*
X160195869Y-78024551D01*
X160211723Y-78104252D01*
X160215335Y-78116159D01*
X160221203Y-78127137D01*
X160229100Y-78136760D01*
X160238722Y-78144657D01*
X160249700Y-78150525D01*
X160261612Y-78154138D01*
X160274000Y-78155358D01*
X160286388Y-78154138D01*
X160298300Y-78150524D01*
X160309278Y-78144656D01*
X160318901Y-78136759D01*
X160326798Y-78127137D01*
X160332666Y-78116159D01*
X160336277Y-78104252D01*
X160352131Y-78024551D01*
X160362033Y-78000645D01*
X160405741Y-77895124D01*
X160483575Y-77778637D01*
X160582637Y-77679575D01*
X160699124Y-77601741D01*
X160828549Y-77548132D01*
X160828548Y-77548132D01*
X160828551Y-77548131D01*
X160965953Y-77520800D01*
X161106047Y-77520800D01*
X161243449Y-77548131D01*
X161243452Y-77548132D01*
X161243451Y-77548132D01*
X161372876Y-77601741D01*
X161489363Y-77679575D01*
X161588425Y-77778637D01*
X161666259Y-77895124D01*
X161709967Y-78000645D01*
X161719869Y-78024551D01*
X161747200Y-78161953D01*
X161747200Y-78302047D01*
X161719869Y-78439449D01*
X161719868Y-78439451D01*
X161666259Y-78568876D01*
X161666257Y-78568879D01*
X161588425Y-78685363D01*
X161489363Y-78784425D01*
X161444799Y-78814202D01*
X161372876Y-78862259D01*
X161276258Y-78902279D01*
X161243449Y-78915869D01*
X161163748Y-78931723D01*
X161151841Y-78935335D01*
X161140863Y-78941203D01*
X161131240Y-78949100D01*
X161123343Y-78958722D01*
X161117475Y-78969700D01*
X161113862Y-78981612D01*
X161112642Y-78994000D01*
X161113862Y-79006388D01*
X161117476Y-79018300D01*
X161123344Y-79029278D01*
X161131241Y-79038901D01*
X161140863Y-79046798D01*
X161151841Y-79052666D01*
X161163748Y-79056277D01*
X161243449Y-79072131D01*
X161243452Y-79072132D01*
X161243451Y-79072132D01*
X161372876Y-79125741D01*
X161489363Y-79203575D01*
X161588425Y-79302637D01*
X161666259Y-79419124D01*
X161683465Y-79460664D01*
X161719869Y-79548551D01*
X161747200Y-79685953D01*
X161747200Y-79826047D01*
X161719869Y-79963449D01*
X161719868Y-79963451D01*
X161666259Y-80092876D01*
X161666257Y-80092879D01*
X161636777Y-80136999D01*
X161588425Y-80209363D01*
X161489363Y-80308425D01*
X161372876Y-80386259D01*
X161271620Y-80428200D01*
X161243449Y-80439869D01*
X161163748Y-80455723D01*
X161151841Y-80459335D01*
X161140863Y-80465203D01*
X161131240Y-80473100D01*
X161123343Y-80482722D01*
X161117475Y-80493700D01*
X161113862Y-80505612D01*
X161112642Y-80518000D01*
X161113862Y-80530388D01*
X161117476Y-80542300D01*
X161123344Y-80553278D01*
X161131241Y-80562901D01*
X161140863Y-80570798D01*
X161151841Y-80576666D01*
X161163748Y-80580277D01*
X161243449Y-80596131D01*
X161267355Y-80606033D01*
X161372876Y-80649741D01*
X161489363Y-80727575D01*
X161588425Y-80826637D01*
X161666259Y-80943124D01*
X161709967Y-81048645D01*
X161719869Y-81072551D01*
X161747200Y-81209953D01*
X161747200Y-81350047D01*
X161719869Y-81487449D01*
X161719868Y-81487451D01*
X161666259Y-81616876D01*
X161588425Y-81733363D01*
X161489363Y-81832425D01*
X161372876Y-81910259D01*
X161284756Y-81946759D01*
X161243449Y-81963869D01*
X161163748Y-81979723D01*
X161151841Y-81983335D01*
X161140863Y-81989203D01*
X161131240Y-81997100D01*
X161123343Y-82006722D01*
X161117475Y-82017700D01*
X161113862Y-82029612D01*
X161112642Y-82042000D01*
X161113862Y-82054388D01*
X161117476Y-82066300D01*
X161123344Y-82077278D01*
X161131241Y-82086901D01*
X161140863Y-82094798D01*
X161151841Y-82100666D01*
X161163748Y-82104277D01*
X161243449Y-82120131D01*
X161243452Y-82120132D01*
X161243451Y-82120132D01*
X161372876Y-82173741D01*
X161372879Y-82173743D01*
X161489363Y-82251575D01*
X161588425Y-82350637D01*
X161639946Y-82427743D01*
X161666259Y-82467124D01*
X161709967Y-82572645D01*
X161719869Y-82596551D01*
X161747200Y-82733953D01*
X161747200Y-82874047D01*
X161719869Y-83011449D01*
X161719868Y-83011451D01*
X161666259Y-83140876D01*
X161588425Y-83257363D01*
X161489363Y-83356425D01*
X161372876Y-83434259D01*
X161279831Y-83472799D01*
X161243449Y-83487869D01*
X161106047Y-83515200D01*
X160965953Y-83515200D01*
X160828551Y-83487869D01*
X160792169Y-83472799D01*
X160699124Y-83434259D01*
X160582637Y-83356425D01*
X160483575Y-83257363D01*
X160405741Y-83140876D01*
X160352132Y-83011451D01*
X160352131Y-83011449D01*
X160336277Y-82931748D01*
X160332665Y-82919841D01*
X160326797Y-82908863D01*
X160318900Y-82899240D01*
X160309278Y-82891343D01*
X160298300Y-82885475D01*
X160286388Y-82881862D01*
X160274000Y-82880642D01*
X160261612Y-82881862D01*
X160249700Y-82885476D01*
X160238722Y-82891344D01*
X160229099Y-82899241D01*
X160221202Y-82908863D01*
X160215334Y-82919841D01*
X160211723Y-82931748D01*
X160195869Y-83011449D01*
X160195868Y-83011451D01*
X160142259Y-83140876D01*
X160064425Y-83257363D01*
X159965363Y-83356425D01*
X159848876Y-83434259D01*
X159755831Y-83472799D01*
X159719449Y-83487869D01*
X159582047Y-83515200D01*
X159441953Y-83515200D01*
X159304551Y-83487869D01*
X159268169Y-83472799D01*
X159175124Y-83434259D01*
X159058637Y-83356425D01*
X158959575Y-83257363D01*
X158881741Y-83140876D01*
X158828132Y-83011451D01*
X158828131Y-83011449D01*
X158800800Y-82874047D01*
X158800800Y-82733953D01*
X158828131Y-82596551D01*
X158838033Y-82572645D01*
X158881741Y-82467124D01*
X158908055Y-82427743D01*
X158959575Y-82350637D01*
X159058637Y-82251575D01*
X159175121Y-82173743D01*
X159175124Y-82173741D01*
X159304549Y-82120132D01*
X159304548Y-82120132D01*
X159304551Y-82120131D01*
X159384252Y-82104277D01*
X159396159Y-82100665D01*
X159407137Y-82094797D01*
X159416760Y-82086900D01*
X159424657Y-82077278D01*
X159430525Y-82066300D01*
X159434138Y-82054388D01*
X159435358Y-82042000D01*
X159588642Y-82042000D01*
X159589862Y-82054388D01*
X159593476Y-82066300D01*
X159599344Y-82077278D01*
X159607241Y-82086901D01*
X159616863Y-82094798D01*
X159627841Y-82100666D01*
X159639748Y-82104277D01*
X159719449Y-82120131D01*
X159719452Y-82120132D01*
X159719451Y-82120132D01*
X159848876Y-82173741D01*
X159848879Y-82173743D01*
X159965363Y-82251575D01*
X160064425Y-82350637D01*
X160115946Y-82427743D01*
X160142259Y-82467124D01*
X160185967Y-82572645D01*
X160195869Y-82596551D01*
X160211723Y-82676252D01*
X160215335Y-82688159D01*
X160221203Y-82699137D01*
X160229100Y-82708760D01*
X160238722Y-82716657D01*
X160249700Y-82722525D01*
X160261612Y-82726138D01*
X160274000Y-82727358D01*
X160286388Y-82726138D01*
X160298300Y-82722524D01*
X160309278Y-82716656D01*
X160318901Y-82708759D01*
X160326798Y-82699137D01*
X160332666Y-82688159D01*
X160336277Y-82676252D01*
X160352131Y-82596551D01*
X160362033Y-82572645D01*
X160405741Y-82467124D01*
X160432055Y-82427743D01*
X160483575Y-82350637D01*
X160582637Y-82251575D01*
X160699121Y-82173743D01*
X160699124Y-82173741D01*
X160828549Y-82120132D01*
X160828548Y-82120132D01*
X160828551Y-82120131D01*
X160908252Y-82104277D01*
X160920159Y-82100665D01*
X160931137Y-82094797D01*
X160940760Y-82086900D01*
X160948657Y-82077278D01*
X160954525Y-82066300D01*
X160958138Y-82054388D01*
X160959358Y-82042000D01*
X160958138Y-82029612D01*
X160954524Y-82017700D01*
X160948656Y-82006722D01*
X160940759Y-81997099D01*
X160931137Y-81989202D01*
X160920159Y-81983334D01*
X160908252Y-81979723D01*
X160828551Y-81963869D01*
X160787244Y-81946759D01*
X160699124Y-81910259D01*
X160582637Y-81832425D01*
X160483575Y-81733363D01*
X160405741Y-81616876D01*
X160352132Y-81487451D01*
X160352131Y-81487449D01*
X160336277Y-81407748D01*
X160332665Y-81395841D01*
X160326797Y-81384863D01*
X160318900Y-81375240D01*
X160309278Y-81367343D01*
X160298300Y-81361475D01*
X160286388Y-81357862D01*
X160274000Y-81356642D01*
X160261612Y-81357862D01*
X160249700Y-81361476D01*
X160238722Y-81367344D01*
X160229099Y-81375241D01*
X160221202Y-81384863D01*
X160215334Y-81395841D01*
X160211723Y-81407748D01*
X160195869Y-81487449D01*
X160195868Y-81487451D01*
X160142259Y-81616876D01*
X160064425Y-81733363D01*
X159965363Y-81832425D01*
X159848876Y-81910259D01*
X159760756Y-81946759D01*
X159719449Y-81963869D01*
X159639748Y-81979723D01*
X159627841Y-81983335D01*
X159616863Y-81989203D01*
X159607240Y-81997100D01*
X159599343Y-82006722D01*
X159593475Y-82017700D01*
X159589862Y-82029612D01*
X159588642Y-82042000D01*
X159435358Y-82042000D01*
X159434138Y-82029612D01*
X159430524Y-82017700D01*
X159424656Y-82006722D01*
X159416759Y-81997099D01*
X159407137Y-81989202D01*
X159396159Y-81983334D01*
X159384252Y-81979723D01*
X159304551Y-81963869D01*
X159263244Y-81946759D01*
X159175124Y-81910259D01*
X159058637Y-81832425D01*
X158959575Y-81733363D01*
X158881741Y-81616876D01*
X158828132Y-81487451D01*
X158828131Y-81487449D01*
X158800800Y-81350047D01*
X158800800Y-81209953D01*
X158828131Y-81072551D01*
X158838033Y-81048645D01*
X158881741Y-80943124D01*
X158959575Y-80826637D01*
X159058637Y-80727575D01*
X159175124Y-80649741D01*
X159280645Y-80606033D01*
X159304551Y-80596131D01*
X159384252Y-80580277D01*
X159396159Y-80576665D01*
X159407137Y-80570797D01*
X159416760Y-80562900D01*
X159424657Y-80553278D01*
X159430525Y-80542300D01*
X159434138Y-80530388D01*
X159435358Y-80518000D01*
X159588642Y-80518000D01*
X159589862Y-80530388D01*
X159593476Y-80542300D01*
X159599344Y-80553278D01*
X159607241Y-80562901D01*
X159616863Y-80570798D01*
X159627841Y-80576666D01*
X159639748Y-80580277D01*
X159719449Y-80596131D01*
X159743355Y-80606033D01*
X159848876Y-80649741D01*
X159965363Y-80727575D01*
X160064425Y-80826637D01*
X160142259Y-80943124D01*
X160185967Y-81048645D01*
X160195869Y-81072551D01*
X160211723Y-81152252D01*
X160215335Y-81164159D01*
X160221203Y-81175137D01*
X160229100Y-81184760D01*
X160238722Y-81192657D01*
X160249700Y-81198525D01*
X160261612Y-81202138D01*
X160274000Y-81203358D01*
X160286388Y-81202138D01*
X160298300Y-81198524D01*
X160309278Y-81192656D01*
X160318901Y-81184759D01*
X160326798Y-81175137D01*
X160332666Y-81164159D01*
X160336277Y-81152252D01*
X160352131Y-81072551D01*
X160362033Y-81048645D01*
X160405741Y-80943124D01*
X160483575Y-80826637D01*
X160582637Y-80727575D01*
X160699124Y-80649741D01*
X160804645Y-80606033D01*
X160828551Y-80596131D01*
X160908252Y-80580277D01*
X160920159Y-80576665D01*
X160931137Y-80570797D01*
X160940760Y-80562900D01*
X160948657Y-80553278D01*
X160954525Y-80542300D01*
X160958138Y-80530388D01*
X160959358Y-80518000D01*
X160958138Y-80505612D01*
X160954524Y-80493700D01*
X160948656Y-80482722D01*
X160940759Y-80473099D01*
X160931137Y-80465202D01*
X160920159Y-80459334D01*
X160908252Y-80455723D01*
X160828551Y-80439869D01*
X160800380Y-80428200D01*
X160699124Y-80386259D01*
X160582637Y-80308425D01*
X160483575Y-80209363D01*
X160435223Y-80136999D01*
X160405743Y-80092879D01*
X160405741Y-80092876D01*
X160352132Y-79963451D01*
X160352131Y-79963449D01*
X160336277Y-79883748D01*
X160332665Y-79871841D01*
X160326797Y-79860863D01*
X160318900Y-79851240D01*
X160309278Y-79843343D01*
X160298300Y-79837475D01*
X160286388Y-79833862D01*
X160274000Y-79832642D01*
X160261612Y-79833862D01*
X160249700Y-79837476D01*
X160238722Y-79843344D01*
X160229099Y-79851241D01*
X160221202Y-79860863D01*
X160215334Y-79871841D01*
X160211723Y-79883748D01*
X160195869Y-79963449D01*
X160195868Y-79963451D01*
X160142259Y-80092876D01*
X160142257Y-80092879D01*
X160112777Y-80136999D01*
X160064425Y-80209363D01*
X159965363Y-80308425D01*
X159848876Y-80386259D01*
X159747620Y-80428200D01*
X159719449Y-80439869D01*
X159639748Y-80455723D01*
X159627841Y-80459335D01*
X159616863Y-80465203D01*
X159607240Y-80473100D01*
X159599343Y-80482722D01*
X159593475Y-80493700D01*
X159589862Y-80505612D01*
X159588642Y-80518000D01*
X159435358Y-80518000D01*
X159434138Y-80505612D01*
X159430524Y-80493700D01*
X159424656Y-80482722D01*
X159416759Y-80473099D01*
X159407137Y-80465202D01*
X159396159Y-80459334D01*
X159384252Y-80455723D01*
X159304551Y-80439869D01*
X159276380Y-80428200D01*
X159175124Y-80386259D01*
X159058637Y-80308425D01*
X158959575Y-80209363D01*
X158911223Y-80136999D01*
X158881743Y-80092879D01*
X158881741Y-80092876D01*
X158828132Y-79963451D01*
X158828131Y-79963449D01*
X158800800Y-79826047D01*
X158800800Y-79685953D01*
X158828131Y-79548551D01*
X158864535Y-79460664D01*
X158881741Y-79419124D01*
X158959575Y-79302637D01*
X159058637Y-79203575D01*
X159175124Y-79125741D01*
X159304549Y-79072132D01*
X159304548Y-79072132D01*
X159304551Y-79072131D01*
X159384252Y-79056277D01*
X159396159Y-79052665D01*
X159407137Y-79046797D01*
X159416760Y-79038900D01*
X159424657Y-79029278D01*
X159430525Y-79018300D01*
X159434138Y-79006388D01*
X159435358Y-78994000D01*
X159588642Y-78994000D01*
X159589862Y-79006388D01*
X159593476Y-79018300D01*
X159599344Y-79029278D01*
X159607241Y-79038901D01*
X159616863Y-79046798D01*
X159627841Y-79052666D01*
X159639748Y-79056277D01*
X159719449Y-79072131D01*
X159719452Y-79072132D01*
X159719451Y-79072132D01*
X159848876Y-79125741D01*
X159965363Y-79203575D01*
X160064425Y-79302637D01*
X160142259Y-79419124D01*
X160159465Y-79460664D01*
X160195869Y-79548551D01*
X160211723Y-79628252D01*
X160215335Y-79640159D01*
X160221203Y-79651137D01*
X160229100Y-79660760D01*
X160238722Y-79668657D01*
X160249700Y-79674525D01*
X160261612Y-79678138D01*
X160274000Y-79679358D01*
X160286388Y-79678138D01*
X160298300Y-79674524D01*
X160309278Y-79668656D01*
X160318901Y-79660759D01*
X160326798Y-79651137D01*
X160332666Y-79640159D01*
X160336277Y-79628252D01*
X160352131Y-79548551D01*
X160388535Y-79460664D01*
X160405741Y-79419124D01*
X160483575Y-79302637D01*
X160582637Y-79203575D01*
X160699124Y-79125741D01*
X160828549Y-79072132D01*
X160828548Y-79072132D01*
X160828551Y-79072131D01*
X160908252Y-79056277D01*
X160920159Y-79052665D01*
X160931137Y-79046797D01*
X160940760Y-79038900D01*
X160948657Y-79029278D01*
X160954525Y-79018300D01*
X160958138Y-79006388D01*
X160959358Y-78994000D01*
X160958138Y-78981612D01*
X160954524Y-78969700D01*
X160948656Y-78958722D01*
X160940759Y-78949099D01*
X160931137Y-78941202D01*
X160920159Y-78935334D01*
X160908252Y-78931723D01*
X160828551Y-78915869D01*
X160795742Y-78902279D01*
X160699124Y-78862259D01*
X160627202Y-78814202D01*
X160582637Y-78784425D01*
X160483575Y-78685363D01*
X160405743Y-78568879D01*
X160405741Y-78568876D01*
X160352132Y-78439451D01*
X160352131Y-78439449D01*
X160336277Y-78359748D01*
X160332665Y-78347841D01*
X160326797Y-78336863D01*
X160318900Y-78327240D01*
X160309278Y-78319343D01*
X160298300Y-78313475D01*
X160286388Y-78309862D01*
X160274000Y-78308642D01*
X160261612Y-78309862D01*
X160249700Y-78313476D01*
X160238722Y-78319344D01*
X160229099Y-78327241D01*
X160221202Y-78336863D01*
X160215334Y-78347841D01*
X160211723Y-78359748D01*
X160195869Y-78439449D01*
X160195868Y-78439451D01*
X160142259Y-78568876D01*
X160142257Y-78568879D01*
X160064425Y-78685363D01*
X159965363Y-78784425D01*
X159920799Y-78814202D01*
X159848876Y-78862259D01*
X159752258Y-78902279D01*
X159719449Y-78915869D01*
X159639748Y-78931723D01*
X159627841Y-78935335D01*
X159616863Y-78941203D01*
X159607240Y-78949100D01*
X159599343Y-78958722D01*
X159593475Y-78969700D01*
X159589862Y-78981612D01*
X159588642Y-78994000D01*
X159435358Y-78994000D01*
X159434138Y-78981612D01*
X159430524Y-78969700D01*
X159424656Y-78958722D01*
X159416759Y-78949099D01*
X159407137Y-78941202D01*
X159396159Y-78935334D01*
X159384252Y-78931723D01*
X159304551Y-78915869D01*
X159271742Y-78902279D01*
X159175124Y-78862259D01*
X159103202Y-78814202D01*
X159058637Y-78784425D01*
X158959575Y-78685363D01*
X158881743Y-78568879D01*
X158881741Y-78568876D01*
X158828132Y-78439451D01*
X158828131Y-78439449D01*
X158800800Y-78302047D01*
X158800800Y-78161953D01*
X158828131Y-78024551D01*
X158838033Y-78000645D01*
X158881741Y-77895124D01*
X158959575Y-77778637D01*
X159058637Y-77679575D01*
X159175124Y-77601741D01*
X159304549Y-77548132D01*
X159304548Y-77548132D01*
X159304551Y-77548131D01*
X159441953Y-77520800D01*
X159582047Y-77520800D01*
X159719449Y-77548131D01*
G37*
G36*
X141939449Y-81612131D02*
G01*
X141963355Y-81622033D01*
X142068876Y-81665741D01*
X142185363Y-81743575D01*
X142284425Y-81842637D01*
X142362259Y-81959124D01*
X142391456Y-82029612D01*
X142415869Y-82088551D01*
X142443200Y-82225953D01*
X142443200Y-82366047D01*
X142415869Y-82503449D01*
X142415868Y-82503451D01*
X142362259Y-82632876D01*
X142362257Y-82632879D01*
X142335944Y-82672259D01*
X142284425Y-82749363D01*
X142185363Y-82848425D01*
X142068876Y-82926259D01*
X141967620Y-82968200D01*
X141939449Y-82979869D01*
X141802047Y-83007200D01*
X141661953Y-83007200D01*
X141524551Y-82979869D01*
X141496380Y-82968200D01*
X141395124Y-82926259D01*
X141278637Y-82848425D01*
X141179575Y-82749363D01*
X141128056Y-82672259D01*
X141101743Y-82632879D01*
X141101741Y-82632876D01*
X141048132Y-82503451D01*
X141048131Y-82503449D01*
X141020800Y-82366047D01*
X141020800Y-82225953D01*
X141048131Y-82088551D01*
X141072544Y-82029612D01*
X141101741Y-81959124D01*
X141179575Y-81842637D01*
X141278637Y-81743575D01*
X141395124Y-81665741D01*
X141500645Y-81622033D01*
X141524551Y-81612131D01*
X141661953Y-81584800D01*
X141802047Y-81584800D01*
X141939449Y-81612131D01*
G37*
G36*
X184005068Y-81119350D02*
G01*
X184166166Y-81151393D01*
X184334717Y-81221210D01*
X184486418Y-81322573D01*
X184615427Y-81451582D01*
X184716790Y-81603283D01*
X184786607Y-81771834D01*
X184822200Y-81950778D01*
X184822200Y-82133222D01*
X184786607Y-82312166D01*
X184716790Y-82480717D01*
X184615427Y-82632418D01*
X184486418Y-82761427D01*
X184334717Y-82862790D01*
X184166166Y-82932607D01*
X184005068Y-82964650D01*
X183987223Y-82968200D01*
X183804777Y-82968200D01*
X183786932Y-82964650D01*
X183625834Y-82932607D01*
X183457283Y-82862790D01*
X183305582Y-82761427D01*
X183176573Y-82632418D01*
X183075210Y-82480717D01*
X183005393Y-82312166D01*
X182969800Y-82133222D01*
X182969800Y-81950778D01*
X183005393Y-81771834D01*
X183075210Y-81603283D01*
X183176573Y-81451582D01*
X183305582Y-81322573D01*
X183457283Y-81221210D01*
X183625834Y-81151393D01*
X183786932Y-81119350D01*
X183804777Y-81115800D01*
X183987223Y-81115800D01*
X184005068Y-81119350D01*
G37*
G36*
X167995452Y-79544104D02*
G01*
X168034481Y-79555943D01*
X168070440Y-79575164D01*
X168101965Y-79601035D01*
X168127836Y-79632560D01*
X168147057Y-79668519D01*
X168158896Y-79707548D01*
X168163200Y-79751245D01*
X168163200Y-82680755D01*
X168158896Y-82724452D01*
X168147057Y-82763481D01*
X168127836Y-82799440D01*
X168101965Y-82830965D01*
X168070440Y-82856836D01*
X168034481Y-82876057D01*
X167995452Y-82887896D01*
X167951755Y-82892200D01*
X163772245Y-82892200D01*
X163728548Y-82887896D01*
X163689519Y-82876057D01*
X163653560Y-82856836D01*
X163622035Y-82830965D01*
X163596164Y-82799440D01*
X163576943Y-82763481D01*
X163565104Y-82724452D01*
X163560800Y-82680755D01*
X163560800Y-79751245D01*
X163565104Y-79707548D01*
X163576943Y-79668519D01*
X163596164Y-79632560D01*
X163622035Y-79601035D01*
X163653560Y-79575164D01*
X163689519Y-79555943D01*
X163728548Y-79544104D01*
X163772245Y-79539800D01*
X167951755Y-79539800D01*
X167995452Y-79544104D01*
G37*
G36*
X147019449Y-77548131D02*
G01*
X147019452Y-77548132D01*
X147019451Y-77548132D01*
X147148876Y-77601741D01*
X147265363Y-77679575D01*
X147364425Y-77778637D01*
X147442259Y-77895124D01*
X147485967Y-78000645D01*
X147495869Y-78024551D01*
X147511723Y-78104252D01*
X147515335Y-78116159D01*
X147521203Y-78127137D01*
X147529100Y-78136760D01*
X147538722Y-78144657D01*
X147549700Y-78150525D01*
X147561612Y-78154138D01*
X147574000Y-78155358D01*
X147586388Y-78154138D01*
X147598300Y-78150524D01*
X147609278Y-78144656D01*
X147618901Y-78136759D01*
X147626798Y-78127137D01*
X147632666Y-78116159D01*
X147636277Y-78104252D01*
X147652131Y-78024551D01*
X147662033Y-78000645D01*
X147705741Y-77895124D01*
X147783575Y-77778637D01*
X147882637Y-77679575D01*
X147999124Y-77601741D01*
X148128549Y-77548132D01*
X148128548Y-77548132D01*
X148128551Y-77548131D01*
X148265953Y-77520800D01*
X148406047Y-77520800D01*
X148543449Y-77548131D01*
X148543452Y-77548132D01*
X148543451Y-77548132D01*
X148672876Y-77601741D01*
X148789363Y-77679575D01*
X148888425Y-77778637D01*
X148966259Y-77895124D01*
X149009967Y-78000645D01*
X149019869Y-78024551D01*
X149047200Y-78161953D01*
X149047200Y-78302047D01*
X149019869Y-78439449D01*
X149019868Y-78439451D01*
X148966259Y-78568876D01*
X148966257Y-78568879D01*
X148888425Y-78685363D01*
X148789363Y-78784425D01*
X148744796Y-78814204D01*
X148735176Y-78822099D01*
X148727279Y-78831721D01*
X148721411Y-78842700D01*
X148717797Y-78854611D01*
X148716577Y-78866999D01*
X148717797Y-78879388D01*
X148721410Y-78891300D01*
X148727278Y-78902278D01*
X148735175Y-78911900D01*
X148744796Y-78919796D01*
X148789363Y-78949575D01*
X148888425Y-79048637D01*
X148939946Y-79125743D01*
X148966259Y-79165124D01*
X149002708Y-79253121D01*
X149019869Y-79294551D01*
X149047200Y-79431953D01*
X149047200Y-79572047D01*
X149019869Y-79709449D01*
X149019868Y-79709451D01*
X148966259Y-79838876D01*
X148966257Y-79838879D01*
X148888425Y-79955363D01*
X148789363Y-80054425D01*
X148744796Y-80084204D01*
X148735176Y-80092099D01*
X148727279Y-80101721D01*
X148721411Y-80112700D01*
X148717797Y-80124611D01*
X148716577Y-80136999D01*
X148717797Y-80149388D01*
X148721410Y-80161300D01*
X148727278Y-80172278D01*
X148735175Y-80181900D01*
X148744796Y-80189796D01*
X148779822Y-80213200D01*
X148789363Y-80219575D01*
X148888425Y-80318637D01*
X148966259Y-80435124D01*
X148994933Y-80504350D01*
X149019869Y-80564551D01*
X149047200Y-80701953D01*
X149047200Y-80842047D01*
X149019869Y-80979449D01*
X149019868Y-80979451D01*
X148966259Y-81108876D01*
X148966257Y-81108879D01*
X148888425Y-81225363D01*
X148789363Y-81324425D01*
X148744796Y-81354204D01*
X148735176Y-81362099D01*
X148727279Y-81371721D01*
X148721411Y-81382700D01*
X148717797Y-81394611D01*
X148716577Y-81406999D01*
X148717797Y-81419388D01*
X148721410Y-81431300D01*
X148727278Y-81442278D01*
X148735175Y-81451900D01*
X148744796Y-81459796D01*
X148789363Y-81489575D01*
X148888425Y-81588637D01*
X148939946Y-81665743D01*
X148966259Y-81705124D01*
X149009967Y-81810645D01*
X149019869Y-81834551D01*
X149047200Y-81971953D01*
X149047200Y-82112047D01*
X149019869Y-82249449D01*
X149019868Y-82249451D01*
X148966259Y-82378876D01*
X148888425Y-82495363D01*
X148789363Y-82594425D01*
X148672876Y-82672259D01*
X148584756Y-82708759D01*
X148543449Y-82725869D01*
X148406047Y-82753200D01*
X148265953Y-82753200D01*
X148128551Y-82725869D01*
X148087244Y-82708759D01*
X147999124Y-82672259D01*
X147882637Y-82594425D01*
X147783575Y-82495363D01*
X147705741Y-82378876D01*
X147652132Y-82249451D01*
X147652131Y-82249449D01*
X147636277Y-82169748D01*
X147632665Y-82157841D01*
X147626797Y-82146863D01*
X147618900Y-82137240D01*
X147609278Y-82129343D01*
X147598300Y-82123475D01*
X147586388Y-82119862D01*
X147574000Y-82118642D01*
X147561612Y-82119862D01*
X147549700Y-82123476D01*
X147538722Y-82129344D01*
X147529099Y-82137241D01*
X147521202Y-82146863D01*
X147515334Y-82157841D01*
X147511723Y-82169748D01*
X147495869Y-82249449D01*
X147495868Y-82249451D01*
X147442259Y-82378876D01*
X147364425Y-82495363D01*
X147265363Y-82594425D01*
X147148876Y-82672259D01*
X147060756Y-82708759D01*
X147019449Y-82725869D01*
X146882047Y-82753200D01*
X146741953Y-82753200D01*
X146604551Y-82725869D01*
X146563244Y-82708759D01*
X146475124Y-82672259D01*
X146358637Y-82594425D01*
X146259575Y-82495363D01*
X146181741Y-82378876D01*
X146128132Y-82249451D01*
X146128131Y-82249449D01*
X146100800Y-82112047D01*
X146100800Y-81971953D01*
X146128131Y-81834551D01*
X146138033Y-81810645D01*
X146181741Y-81705124D01*
X146208055Y-81665743D01*
X146259575Y-81588637D01*
X146358637Y-81489575D01*
X146403204Y-81459796D01*
X146412824Y-81451901D01*
X146420721Y-81442279D01*
X146426589Y-81431300D01*
X146430203Y-81419389D01*
X146431423Y-81407001D01*
X146431423Y-81406999D01*
X147192577Y-81406999D01*
X147193797Y-81419388D01*
X147197410Y-81431300D01*
X147203278Y-81442278D01*
X147211175Y-81451900D01*
X147220796Y-81459796D01*
X147265363Y-81489575D01*
X147364425Y-81588637D01*
X147415946Y-81665743D01*
X147442259Y-81705124D01*
X147485967Y-81810645D01*
X147495869Y-81834551D01*
X147511723Y-81914252D01*
X147515335Y-81926159D01*
X147521203Y-81937137D01*
X147529100Y-81946760D01*
X147538722Y-81954657D01*
X147549700Y-81960525D01*
X147561612Y-81964138D01*
X147574000Y-81965358D01*
X147586388Y-81964138D01*
X147598300Y-81960524D01*
X147609278Y-81954656D01*
X147618901Y-81946759D01*
X147626798Y-81937137D01*
X147632666Y-81926159D01*
X147636277Y-81914252D01*
X147652131Y-81834551D01*
X147662033Y-81810645D01*
X147705741Y-81705124D01*
X147732055Y-81665743D01*
X147783575Y-81588637D01*
X147882637Y-81489575D01*
X147927204Y-81459796D01*
X147936824Y-81451901D01*
X147944721Y-81442279D01*
X147950589Y-81431300D01*
X147954203Y-81419389D01*
X147955423Y-81407001D01*
X147954203Y-81394612D01*
X147950590Y-81382700D01*
X147944722Y-81371722D01*
X147936825Y-81362100D01*
X147927204Y-81354204D01*
X147882637Y-81324425D01*
X147783575Y-81225363D01*
X147705743Y-81108879D01*
X147705741Y-81108876D01*
X147652132Y-80979451D01*
X147652131Y-80979449D01*
X147636277Y-80899748D01*
X147632665Y-80887841D01*
X147626797Y-80876863D01*
X147618900Y-80867240D01*
X147609278Y-80859343D01*
X147598300Y-80853475D01*
X147586388Y-80849862D01*
X147574000Y-80848642D01*
X147561612Y-80849862D01*
X147549700Y-80853476D01*
X147538722Y-80859344D01*
X147529099Y-80867241D01*
X147521202Y-80876863D01*
X147515334Y-80887841D01*
X147511723Y-80899748D01*
X147495869Y-80979449D01*
X147495868Y-80979451D01*
X147442259Y-81108876D01*
X147442257Y-81108879D01*
X147364425Y-81225363D01*
X147265363Y-81324425D01*
X147220796Y-81354204D01*
X147211176Y-81362099D01*
X147203279Y-81371721D01*
X147197411Y-81382700D01*
X147193797Y-81394611D01*
X147192577Y-81406999D01*
X146431423Y-81406999D01*
X146430203Y-81394612D01*
X146426590Y-81382700D01*
X146420722Y-81371722D01*
X146412825Y-81362100D01*
X146403204Y-81354204D01*
X146358637Y-81324425D01*
X146259575Y-81225363D01*
X146181743Y-81108879D01*
X146181741Y-81108876D01*
X146128132Y-80979451D01*
X146128131Y-80979449D01*
X146100800Y-80842047D01*
X146100800Y-80701953D01*
X146128131Y-80564551D01*
X146153067Y-80504350D01*
X146181741Y-80435124D01*
X146259575Y-80318637D01*
X146358637Y-80219575D01*
X146368178Y-80213200D01*
X146403204Y-80189796D01*
X146412824Y-80181901D01*
X146420721Y-80172279D01*
X146426589Y-80161300D01*
X146430203Y-80149389D01*
X146431423Y-80137001D01*
X146431423Y-80136999D01*
X147192577Y-80136999D01*
X147193797Y-80149388D01*
X147197410Y-80161300D01*
X147203278Y-80172278D01*
X147211175Y-80181900D01*
X147220796Y-80189796D01*
X147255822Y-80213200D01*
X147265363Y-80219575D01*
X147364425Y-80318637D01*
X147442259Y-80435124D01*
X147470933Y-80504350D01*
X147495869Y-80564551D01*
X147511723Y-80644252D01*
X147515335Y-80656159D01*
X147521203Y-80667137D01*
X147529100Y-80676760D01*
X147538722Y-80684657D01*
X147549700Y-80690525D01*
X147561612Y-80694138D01*
X147574000Y-80695358D01*
X147586388Y-80694138D01*
X147598300Y-80690524D01*
X147609278Y-80684656D01*
X147618901Y-80676759D01*
X147626798Y-80667137D01*
X147632666Y-80656159D01*
X147636277Y-80644252D01*
X147652131Y-80564551D01*
X147677067Y-80504350D01*
X147705741Y-80435124D01*
X147783575Y-80318637D01*
X147882637Y-80219575D01*
X147892178Y-80213200D01*
X147927204Y-80189796D01*
X147936824Y-80181901D01*
X147944721Y-80172279D01*
X147950589Y-80161300D01*
X147954203Y-80149389D01*
X147955423Y-80137001D01*
X147954203Y-80124612D01*
X147950590Y-80112700D01*
X147944722Y-80101722D01*
X147936825Y-80092100D01*
X147927204Y-80084204D01*
X147882637Y-80054425D01*
X147783575Y-79955363D01*
X147705743Y-79838879D01*
X147705741Y-79838876D01*
X147652132Y-79709451D01*
X147652131Y-79709449D01*
X147636277Y-79629748D01*
X147632665Y-79617841D01*
X147626797Y-79606863D01*
X147618900Y-79597240D01*
X147609278Y-79589343D01*
X147598300Y-79583475D01*
X147586388Y-79579862D01*
X147574000Y-79578642D01*
X147561612Y-79579862D01*
X147549700Y-79583476D01*
X147538722Y-79589344D01*
X147529099Y-79597241D01*
X147521202Y-79606863D01*
X147515334Y-79617841D01*
X147511723Y-79629748D01*
X147495869Y-79709449D01*
X147495868Y-79709451D01*
X147442259Y-79838876D01*
X147442257Y-79838879D01*
X147364425Y-79955363D01*
X147265363Y-80054425D01*
X147220796Y-80084204D01*
X147211176Y-80092099D01*
X147203279Y-80101721D01*
X147197411Y-80112700D01*
X147193797Y-80124611D01*
X147192577Y-80136999D01*
X146431423Y-80136999D01*
X146430203Y-80124612D01*
X146426590Y-80112700D01*
X146420722Y-80101722D01*
X146412825Y-80092100D01*
X146403204Y-80084204D01*
X146358637Y-80054425D01*
X146259575Y-79955363D01*
X146181743Y-79838879D01*
X146181741Y-79838876D01*
X146128132Y-79709451D01*
X146128131Y-79709449D01*
X146100800Y-79572047D01*
X146100800Y-79431953D01*
X146128131Y-79294551D01*
X146145292Y-79253121D01*
X146181741Y-79165124D01*
X146208055Y-79125743D01*
X146259575Y-79048637D01*
X146358637Y-78949575D01*
X146403204Y-78919796D01*
X146412824Y-78911901D01*
X146420721Y-78902279D01*
X146426589Y-78891300D01*
X146430203Y-78879389D01*
X146431423Y-78867001D01*
X146431423Y-78866999D01*
X147192577Y-78866999D01*
X147193797Y-78879388D01*
X147197410Y-78891300D01*
X147203278Y-78902278D01*
X147211175Y-78911900D01*
X147220796Y-78919796D01*
X147265363Y-78949575D01*
X147364425Y-79048637D01*
X147415946Y-79125743D01*
X147442259Y-79165124D01*
X147478708Y-79253121D01*
X147495869Y-79294551D01*
X147511723Y-79374252D01*
X147515335Y-79386159D01*
X147521203Y-79397137D01*
X147529100Y-79406760D01*
X147538722Y-79414657D01*
X147549700Y-79420525D01*
X147561612Y-79424138D01*
X147574000Y-79425358D01*
X147586388Y-79424138D01*
X147598300Y-79420524D01*
X147609278Y-79414656D01*
X147618901Y-79406759D01*
X147626798Y-79397137D01*
X147632666Y-79386159D01*
X147636277Y-79374252D01*
X147652131Y-79294551D01*
X147669292Y-79253121D01*
X147705741Y-79165124D01*
X147732055Y-79125743D01*
X147783575Y-79048637D01*
X147882637Y-78949575D01*
X147927204Y-78919796D01*
X147936824Y-78911901D01*
X147944721Y-78902279D01*
X147950589Y-78891300D01*
X147954203Y-78879389D01*
X147955423Y-78867001D01*
X147954203Y-78854612D01*
X147950590Y-78842700D01*
X147944722Y-78831722D01*
X147936825Y-78822100D01*
X147927204Y-78814204D01*
X147882637Y-78784425D01*
X147783575Y-78685363D01*
X147705743Y-78568879D01*
X147705741Y-78568876D01*
X147652132Y-78439451D01*
X147652131Y-78439449D01*
X147636277Y-78359748D01*
X147632665Y-78347841D01*
X147626797Y-78336863D01*
X147618900Y-78327240D01*
X147609278Y-78319343D01*
X147598300Y-78313475D01*
X147586388Y-78309862D01*
X147574000Y-78308642D01*
X147561612Y-78309862D01*
X147549700Y-78313476D01*
X147538722Y-78319344D01*
X147529099Y-78327241D01*
X147521202Y-78336863D01*
X147515334Y-78347841D01*
X147511723Y-78359748D01*
X147495869Y-78439449D01*
X147495868Y-78439451D01*
X147442259Y-78568876D01*
X147442257Y-78568879D01*
X147364425Y-78685363D01*
X147265363Y-78784425D01*
X147220796Y-78814204D01*
X147211176Y-78822099D01*
X147203279Y-78831721D01*
X147197411Y-78842700D01*
X147193797Y-78854611D01*
X147192577Y-78866999D01*
X146431423Y-78866999D01*
X146430203Y-78854612D01*
X146426590Y-78842700D01*
X146420722Y-78831722D01*
X146412825Y-78822100D01*
X146403204Y-78814204D01*
X146358637Y-78784425D01*
X146259575Y-78685363D01*
X146181743Y-78568879D01*
X146181741Y-78568876D01*
X146128132Y-78439451D01*
X146128131Y-78439449D01*
X146100800Y-78302047D01*
X146100800Y-78161953D01*
X146128131Y-78024551D01*
X146138033Y-78000645D01*
X146181741Y-77895124D01*
X146259575Y-77778637D01*
X146358637Y-77679575D01*
X146475124Y-77601741D01*
X146604549Y-77548132D01*
X146604548Y-77548132D01*
X146604551Y-77548131D01*
X146741953Y-77520800D01*
X146882047Y-77520800D01*
X147019449Y-77548131D01*
G37*
G36*
X138886043Y-79825758D02*
G01*
X138931459Y-79839535D01*
X138973310Y-79861905D01*
X139009992Y-79892008D01*
X139040095Y-79928690D01*
X139062465Y-79970541D01*
X139076242Y-80015957D01*
X139081200Y-80066297D01*
X139081200Y-81477703D01*
X139076242Y-81528043D01*
X139062465Y-81573459D01*
X139040095Y-81615310D01*
X139009992Y-81651992D01*
X138973310Y-81682095D01*
X138931459Y-81704465D01*
X138886043Y-81718242D01*
X138835703Y-81723200D01*
X137924297Y-81723200D01*
X137873957Y-81718242D01*
X137828541Y-81704465D01*
X137786690Y-81682095D01*
X137750008Y-81651992D01*
X137719905Y-81615310D01*
X137697535Y-81573459D01*
X137683758Y-81528043D01*
X137678800Y-81477703D01*
X137678800Y-80066297D01*
X137683758Y-80015957D01*
X137697535Y-79970541D01*
X137719905Y-79928690D01*
X137750008Y-79892008D01*
X137786690Y-79861905D01*
X137828541Y-79839535D01*
X137873957Y-79825758D01*
X137924297Y-79820800D01*
X138835703Y-79820800D01*
X138886043Y-79825758D01*
G37*
G36*
X136086043Y-79825758D02*
G01*
X136131459Y-79839535D01*
X136173310Y-79861905D01*
X136209992Y-79892008D01*
X136240095Y-79928690D01*
X136262465Y-79970541D01*
X136276242Y-80015957D01*
X136281200Y-80066297D01*
X136281200Y-81477703D01*
X136276242Y-81528043D01*
X136262465Y-81573459D01*
X136240095Y-81615310D01*
X136209992Y-81651992D01*
X136173310Y-81682095D01*
X136131459Y-81704465D01*
X136086043Y-81718242D01*
X136035703Y-81723200D01*
X135124297Y-81723200D01*
X135073957Y-81718242D01*
X135028541Y-81704465D01*
X134986690Y-81682095D01*
X134950008Y-81651992D01*
X134919905Y-81615310D01*
X134897535Y-81573459D01*
X134883758Y-81528043D01*
X134878800Y-81477703D01*
X134878800Y-80066297D01*
X134883758Y-80015957D01*
X134897535Y-79970541D01*
X134919905Y-79928690D01*
X134950008Y-79892008D01*
X134986690Y-79861905D01*
X135028541Y-79839535D01*
X135073957Y-79825758D01*
X135124297Y-79820800D01*
X136035703Y-79820800D01*
X136086043Y-79825758D01*
G37*
G36*
X125937449Y-79580131D02*
G01*
X125937452Y-79580132D01*
X125937451Y-79580132D01*
X126066876Y-79633741D01*
X126183363Y-79711575D01*
X126282425Y-79810637D01*
X126360259Y-79927124D01*
X126387937Y-79993945D01*
X126413869Y-80056551D01*
X126441200Y-80193953D01*
X126441200Y-80334047D01*
X126413869Y-80471449D01*
X126404652Y-80493700D01*
X126360259Y-80600876D01*
X126282425Y-80717363D01*
X126183363Y-80816425D01*
X126066876Y-80894259D01*
X125961355Y-80937967D01*
X125937449Y-80947869D01*
X125800047Y-80975200D01*
X125659953Y-80975200D01*
X125522551Y-80947869D01*
X125498645Y-80937967D01*
X125393124Y-80894259D01*
X125276637Y-80816425D01*
X125177575Y-80717363D01*
X125099741Y-80600876D01*
X125055348Y-80493700D01*
X125046131Y-80471449D01*
X125018800Y-80334047D01*
X125018800Y-80193953D01*
X125046131Y-80056551D01*
X125072063Y-79993945D01*
X125099741Y-79927124D01*
X125177575Y-79810637D01*
X125276637Y-79711575D01*
X125393124Y-79633741D01*
X125522549Y-79580132D01*
X125522548Y-79580132D01*
X125522551Y-79580131D01*
X125659953Y-79552800D01*
X125800047Y-79552800D01*
X125937449Y-79580131D01*
G37*
G36*
X174880043Y-79063758D02*
G01*
X174925459Y-79077535D01*
X174967310Y-79099905D01*
X175003992Y-79130008D01*
X175034095Y-79166690D01*
X175056465Y-79208541D01*
X175070242Y-79253957D01*
X175075200Y-79304297D01*
X175075200Y-80715703D01*
X175070242Y-80766043D01*
X175056465Y-80811459D01*
X175034095Y-80853310D01*
X175003992Y-80889992D01*
X174967310Y-80920095D01*
X174925459Y-80942465D01*
X174880043Y-80956242D01*
X174829703Y-80961200D01*
X173918297Y-80961200D01*
X173867957Y-80956242D01*
X173822541Y-80942465D01*
X173780690Y-80920095D01*
X173744008Y-80889992D01*
X173713905Y-80853310D01*
X173691535Y-80811459D01*
X173677758Y-80766043D01*
X173672800Y-80715703D01*
X173672800Y-79304297D01*
X173677758Y-79253957D01*
X173691535Y-79208541D01*
X173713905Y-79166690D01*
X173744008Y-79130008D01*
X173780690Y-79099905D01*
X173822541Y-79077535D01*
X173867957Y-79063758D01*
X173918297Y-79058800D01*
X174829703Y-79058800D01*
X174880043Y-79063758D01*
G37*
G36*
X172080043Y-79063758D02*
G01*
X172125459Y-79077535D01*
X172167310Y-79099905D01*
X172203992Y-79130008D01*
X172234095Y-79166690D01*
X172256465Y-79208541D01*
X172270242Y-79253957D01*
X172275200Y-79304297D01*
X172275200Y-80715703D01*
X172270242Y-80766043D01*
X172256465Y-80811459D01*
X172234095Y-80853310D01*
X172203992Y-80889992D01*
X172167310Y-80920095D01*
X172125459Y-80942465D01*
X172080043Y-80956242D01*
X172029703Y-80961200D01*
X171118297Y-80961200D01*
X171067957Y-80956242D01*
X171022541Y-80942465D01*
X170980690Y-80920095D01*
X170944008Y-80889992D01*
X170913905Y-80853310D01*
X170891535Y-80811459D01*
X170877758Y-80766043D01*
X170872800Y-80715703D01*
X170872800Y-79304297D01*
X170877758Y-79253957D01*
X170891535Y-79208541D01*
X170913905Y-79166690D01*
X170944008Y-79130008D01*
X170980690Y-79099905D01*
X171022541Y-79077535D01*
X171067957Y-79063758D01*
X171118297Y-79058800D01*
X172029703Y-79058800D01*
X172080043Y-79063758D01*
G37*
G36*
X176970831Y-79238907D02*
G01*
X177017690Y-79253121D01*
X177060877Y-79276205D01*
X177098730Y-79307270D01*
X177129795Y-79345123D01*
X177152879Y-79388310D01*
X177167093Y-79435169D01*
X177172200Y-79487017D01*
X177172200Y-80532983D01*
X177167093Y-80584831D01*
X177152879Y-80631690D01*
X177129795Y-80674877D01*
X177098730Y-80712730D01*
X177060877Y-80743795D01*
X177017690Y-80766879D01*
X176970831Y-80781093D01*
X176918983Y-80786200D01*
X176298017Y-80786200D01*
X176246169Y-80781093D01*
X176199310Y-80766879D01*
X176156123Y-80743795D01*
X176118270Y-80712730D01*
X176087205Y-80674877D01*
X176064121Y-80631690D01*
X176049907Y-80584831D01*
X176044800Y-80532983D01*
X176044800Y-79487017D01*
X176049907Y-79435169D01*
X176064121Y-79388310D01*
X176087205Y-79345123D01*
X176118270Y-79307270D01*
X176156123Y-79276205D01*
X176199310Y-79253121D01*
X176246169Y-79238907D01*
X176298017Y-79233800D01*
X176918983Y-79233800D01*
X176970831Y-79238907D01*
G37*
G36*
X178845831Y-79238907D02*
G01*
X178892690Y-79253121D01*
X178935877Y-79276205D01*
X178973730Y-79307270D01*
X179004795Y-79345123D01*
X179027879Y-79388310D01*
X179042093Y-79435169D01*
X179047200Y-79487017D01*
X179047200Y-80532983D01*
X179042093Y-80584831D01*
X179027879Y-80631690D01*
X179004795Y-80674877D01*
X178973730Y-80712730D01*
X178935877Y-80743795D01*
X178892690Y-80766879D01*
X178845831Y-80781093D01*
X178793983Y-80786200D01*
X178173017Y-80786200D01*
X178121169Y-80781093D01*
X178074310Y-80766879D01*
X178031123Y-80743795D01*
X177993270Y-80712730D01*
X177962205Y-80674877D01*
X177939121Y-80631690D01*
X177924907Y-80584831D01*
X177919800Y-80532983D01*
X177919800Y-79487017D01*
X177924907Y-79435169D01*
X177939121Y-79388310D01*
X177962205Y-79345123D01*
X177993270Y-79307270D01*
X178031123Y-79276205D01*
X178074310Y-79253121D01*
X178121169Y-79238907D01*
X178173017Y-79233800D01*
X178793983Y-79233800D01*
X178845831Y-79238907D01*
G37*
G36*
X184005068Y-78579350D02*
G01*
X184166166Y-78611393D01*
X184334717Y-78681210D01*
X184486418Y-78782573D01*
X184615427Y-78911582D01*
X184716790Y-79063283D01*
X184786607Y-79231834D01*
X184822200Y-79410778D01*
X184822200Y-79593222D01*
X184786607Y-79772166D01*
X184716790Y-79940717D01*
X184615427Y-80092418D01*
X184486418Y-80221427D01*
X184334717Y-80322790D01*
X184166166Y-80392607D01*
X184005068Y-80424650D01*
X183987223Y-80428200D01*
X183804777Y-80428200D01*
X183786932Y-80424650D01*
X183625834Y-80392607D01*
X183457283Y-80322790D01*
X183305582Y-80221427D01*
X183176573Y-80092418D01*
X183075210Y-79940717D01*
X183005393Y-79772166D01*
X182969800Y-79593222D01*
X182969800Y-79410778D01*
X183005393Y-79231834D01*
X183075210Y-79063283D01*
X183176573Y-78911582D01*
X183305582Y-78782573D01*
X183457283Y-78681210D01*
X183625834Y-78611393D01*
X183786932Y-78579350D01*
X183804777Y-78575800D01*
X183987223Y-78575800D01*
X184005068Y-78579350D01*
G37*
G36*
X164206043Y-76523758D02*
G01*
X164251459Y-76537535D01*
X164293310Y-76559905D01*
X164329992Y-76590008D01*
X164360095Y-76626690D01*
X164382465Y-76668541D01*
X164396242Y-76713957D01*
X164401200Y-76764297D01*
X164401200Y-78175703D01*
X164396242Y-78226043D01*
X164382465Y-78271459D01*
X164360095Y-78313310D01*
X164329992Y-78349992D01*
X164293310Y-78380095D01*
X164251459Y-78402465D01*
X164206043Y-78416242D01*
X164155703Y-78421200D01*
X163244297Y-78421200D01*
X163193957Y-78416242D01*
X163148541Y-78402465D01*
X163106690Y-78380095D01*
X163070008Y-78349992D01*
X163039905Y-78313310D01*
X163017535Y-78271459D01*
X163003758Y-78226043D01*
X162998800Y-78175703D01*
X162998800Y-76764297D01*
X163003758Y-76713957D01*
X163017535Y-76668541D01*
X163039905Y-76626690D01*
X163070008Y-76590008D01*
X163106690Y-76559905D01*
X163148541Y-76537535D01*
X163193957Y-76523758D01*
X163244297Y-76518800D01*
X164155703Y-76518800D01*
X164206043Y-76523758D01*
G37*
G36*
X167006043Y-76523758D02*
G01*
X167051459Y-76537535D01*
X167093310Y-76559905D01*
X167129992Y-76590008D01*
X167160095Y-76626690D01*
X167182465Y-76668541D01*
X167196242Y-76713957D01*
X167201200Y-76764297D01*
X167201200Y-78175703D01*
X167196242Y-78226043D01*
X167182465Y-78271459D01*
X167160095Y-78313310D01*
X167129992Y-78349992D01*
X167093310Y-78380095D01*
X167051459Y-78402465D01*
X167006043Y-78416242D01*
X166955703Y-78421200D01*
X166044297Y-78421200D01*
X165993957Y-78416242D01*
X165948541Y-78402465D01*
X165906690Y-78380095D01*
X165870008Y-78349992D01*
X165839905Y-78313310D01*
X165817535Y-78271459D01*
X165803758Y-78226043D01*
X165798800Y-78175703D01*
X165798800Y-76764297D01*
X165803758Y-76713957D01*
X165817535Y-76668541D01*
X165839905Y-76626690D01*
X165870008Y-76590008D01*
X165906690Y-76559905D01*
X165948541Y-76537535D01*
X165993957Y-76523758D01*
X166044297Y-76518800D01*
X166955703Y-76518800D01*
X167006043Y-76523758D01*
G37*
G36*
X134501870Y-75018432D02*
G01*
X134665879Y-75086366D01*
X134813482Y-75184992D01*
X134939008Y-75310518D01*
X135037634Y-75458121D01*
X135105568Y-75622130D01*
X135140200Y-75796240D01*
X135140200Y-75973760D01*
X135105568Y-76147870D01*
X135037634Y-76311879D01*
X134939008Y-76459482D01*
X134813482Y-76585008D01*
X134665879Y-76683634D01*
X134501870Y-76751568D01*
X134327760Y-76786200D01*
X134150240Y-76786200D01*
X133976130Y-76751568D01*
X133812121Y-76683634D01*
X133664518Y-76585008D01*
X133538992Y-76459482D01*
X133440366Y-76311879D01*
X133372432Y-76147870D01*
X133337800Y-75973760D01*
X133337800Y-75796240D01*
X133372432Y-75622130D01*
X133440366Y-75458121D01*
X133538992Y-75310518D01*
X133664518Y-75184992D01*
X133812121Y-75086366D01*
X133976130Y-75018432D01*
X134150240Y-74983800D01*
X134327760Y-74983800D01*
X134501870Y-75018432D01*
G37*
G36*
X153674043Y-74491758D02*
G01*
X153719459Y-74505535D01*
X153761310Y-74527905D01*
X153797992Y-74558008D01*
X153828095Y-74594690D01*
X153850465Y-74636541D01*
X153864242Y-74681957D01*
X153869200Y-74732297D01*
X153869200Y-76143703D01*
X153864242Y-76194043D01*
X153850465Y-76239459D01*
X153828095Y-76281310D01*
X153797992Y-76317992D01*
X153761310Y-76348095D01*
X153719459Y-76370465D01*
X153674043Y-76384242D01*
X153623703Y-76389200D01*
X152712297Y-76389200D01*
X152661957Y-76384242D01*
X152616541Y-76370465D01*
X152574690Y-76348095D01*
X152538008Y-76317992D01*
X152507905Y-76281310D01*
X152485535Y-76239459D01*
X152471758Y-76194043D01*
X152466800Y-76143703D01*
X152466800Y-74732297D01*
X152471758Y-74681957D01*
X152485535Y-74636541D01*
X152507905Y-74594690D01*
X152538008Y-74558008D01*
X152574690Y-74527905D01*
X152616541Y-74505535D01*
X152661957Y-74491758D01*
X152712297Y-74486800D01*
X153623703Y-74486800D01*
X153674043Y-74491758D01*
G37*
G36*
X175004043Y-74491758D02*
G01*
X175049459Y-74505535D01*
X175091310Y-74527905D01*
X175127992Y-74558008D01*
X175158095Y-74594690D01*
X175180465Y-74636541D01*
X175194242Y-74681957D01*
X175199200Y-74732297D01*
X175199200Y-76143703D01*
X175194242Y-76194043D01*
X175180465Y-76239459D01*
X175158095Y-76281310D01*
X175127992Y-76317992D01*
X175091310Y-76348095D01*
X175049459Y-76370465D01*
X175004043Y-76384242D01*
X174953703Y-76389200D01*
X174042297Y-76389200D01*
X173991957Y-76384242D01*
X173946541Y-76370465D01*
X173904690Y-76348095D01*
X173868008Y-76317992D01*
X173837905Y-76281310D01*
X173815535Y-76239459D01*
X173801758Y-76194043D01*
X173796800Y-76143703D01*
X173796800Y-74732297D01*
X173801758Y-74681957D01*
X173815535Y-74636541D01*
X173837905Y-74594690D01*
X173868008Y-74558008D01*
X173904690Y-74527905D01*
X173946541Y-74505535D01*
X173991957Y-74491758D01*
X174042297Y-74486800D01*
X174953703Y-74486800D01*
X175004043Y-74491758D01*
G37*
G36*
X150874043Y-74491758D02*
G01*
X150919459Y-74505535D01*
X150961310Y-74527905D01*
X150997992Y-74558008D01*
X151028095Y-74594690D01*
X151050465Y-74636541D01*
X151064242Y-74681957D01*
X151069200Y-74732297D01*
X151069200Y-76143703D01*
X151064242Y-76194043D01*
X151050465Y-76239459D01*
X151028095Y-76281310D01*
X150997992Y-76317992D01*
X150961310Y-76348095D01*
X150919459Y-76370465D01*
X150874043Y-76384242D01*
X150823703Y-76389200D01*
X149912297Y-76389200D01*
X149861957Y-76384242D01*
X149816541Y-76370465D01*
X149774690Y-76348095D01*
X149738008Y-76317992D01*
X149707905Y-76281310D01*
X149685535Y-76239459D01*
X149671758Y-76194043D01*
X149666800Y-76143703D01*
X149666800Y-74732297D01*
X149671758Y-74681957D01*
X149685535Y-74636541D01*
X149707905Y-74594690D01*
X149738008Y-74558008D01*
X149774690Y-74527905D01*
X149816541Y-74505535D01*
X149861957Y-74491758D01*
X149912297Y-74486800D01*
X150823703Y-74486800D01*
X150874043Y-74491758D01*
G37*
G36*
X177804043Y-74491758D02*
G01*
X177849459Y-74505535D01*
X177891310Y-74527905D01*
X177927992Y-74558008D01*
X177958095Y-74594690D01*
X177980465Y-74636541D01*
X177994242Y-74681957D01*
X177999200Y-74732297D01*
X177999200Y-76143703D01*
X177994242Y-76194043D01*
X177980465Y-76239459D01*
X177958095Y-76281310D01*
X177927992Y-76317992D01*
X177891310Y-76348095D01*
X177849459Y-76370465D01*
X177804043Y-76384242D01*
X177753703Y-76389200D01*
X176842297Y-76389200D01*
X176791957Y-76384242D01*
X176746541Y-76370465D01*
X176704690Y-76348095D01*
X176668008Y-76317992D01*
X176637905Y-76281310D01*
X176615535Y-76239459D01*
X176601758Y-76194043D01*
X176596800Y-76143703D01*
X176596800Y-74732297D01*
X176601758Y-74681957D01*
X176615535Y-74636541D01*
X176637905Y-74594690D01*
X176668008Y-74558008D01*
X176704690Y-74527905D01*
X176746541Y-74505535D01*
X176791957Y-74491758D01*
X176842297Y-74486800D01*
X177753703Y-74486800D01*
X177804043Y-74491758D01*
G37*
G36*
X173088200Y-76314200D02*
G01*
X171335800Y-76314200D01*
X171335800Y-74561800D01*
X173088200Y-74561800D01*
X173088200Y-76314200D01*
G37*
G36*
X180087578Y-74595471D02*
G01*
X180087580Y-74595472D01*
X180087581Y-74595472D01*
X180247037Y-74661521D01*
X180390540Y-74757407D01*
X180390542Y-74757409D01*
X180390545Y-74757411D01*
X180512589Y-74879455D01*
X180512591Y-74879458D01*
X180512593Y-74879460D01*
X180608479Y-75022963D01*
X180649999Y-75123200D01*
X180674529Y-75182422D01*
X180708200Y-75351702D01*
X180708200Y-75524298D01*
X180688741Y-75622130D01*
X180674528Y-75693581D01*
X180608479Y-75853037D01*
X180512593Y-75996540D01*
X180512591Y-75996542D01*
X180512589Y-75996545D01*
X180390545Y-76118589D01*
X180390542Y-76118591D01*
X180390540Y-76118593D01*
X180247037Y-76214479D01*
X180087581Y-76280528D01*
X180087580Y-76280528D01*
X180087578Y-76280529D01*
X179918298Y-76314200D01*
X179745702Y-76314200D01*
X179576422Y-76280529D01*
X179576420Y-76280528D01*
X179576419Y-76280528D01*
X179416963Y-76214479D01*
X179273460Y-76118593D01*
X179273458Y-76118591D01*
X179273455Y-76118589D01*
X179151411Y-75996545D01*
X179151409Y-75996542D01*
X179151407Y-75996540D01*
X179055521Y-75853037D01*
X178989472Y-75693581D01*
X178975260Y-75622130D01*
X178955800Y-75524298D01*
X178955800Y-75351702D01*
X178989471Y-75182422D01*
X179014002Y-75123200D01*
X179055521Y-75022963D01*
X179151407Y-74879460D01*
X179151409Y-74879458D01*
X179151411Y-74879455D01*
X179273455Y-74757411D01*
X179273458Y-74757409D01*
X179273460Y-74757407D01*
X179416963Y-74661521D01*
X179576419Y-74595472D01*
X179576420Y-74595472D01*
X179576422Y-74595471D01*
X179745702Y-74561800D01*
X179918298Y-74561800D01*
X180087578Y-74595471D01*
G37*
G36*
X155703578Y-74595471D02*
G01*
X155703580Y-74595472D01*
X155703581Y-74595472D01*
X155863037Y-74661521D01*
X156006540Y-74757407D01*
X156006542Y-74757409D01*
X156006545Y-74757411D01*
X156128589Y-74879455D01*
X156128591Y-74879458D01*
X156128593Y-74879460D01*
X156224479Y-75022963D01*
X156265999Y-75123200D01*
X156290529Y-75182422D01*
X156324200Y-75351702D01*
X156324200Y-75524298D01*
X156304741Y-75622130D01*
X156290528Y-75693581D01*
X156224479Y-75853037D01*
X156128593Y-75996540D01*
X156128591Y-75996542D01*
X156128589Y-75996545D01*
X156006545Y-76118589D01*
X156006542Y-76118591D01*
X156006540Y-76118593D01*
X155863037Y-76214479D01*
X155703581Y-76280528D01*
X155703580Y-76280528D01*
X155703578Y-76280529D01*
X155534298Y-76314200D01*
X155361702Y-76314200D01*
X155192422Y-76280529D01*
X155192420Y-76280528D01*
X155192419Y-76280528D01*
X155032963Y-76214479D01*
X154889460Y-76118593D01*
X154889458Y-76118591D01*
X154889455Y-76118589D01*
X154767411Y-75996545D01*
X154767409Y-75996542D01*
X154767407Y-75996540D01*
X154671521Y-75853037D01*
X154605472Y-75693581D01*
X154591260Y-75622130D01*
X154571800Y-75524298D01*
X154571800Y-75351702D01*
X154605471Y-75182422D01*
X154630002Y-75123200D01*
X154671521Y-75022963D01*
X154767407Y-74879460D01*
X154767409Y-74879458D01*
X154767411Y-74879455D01*
X154889455Y-74757411D01*
X154889458Y-74757409D01*
X154889460Y-74757407D01*
X155032963Y-74661521D01*
X155192419Y-74595472D01*
X155192420Y-74595472D01*
X155192422Y-74595471D01*
X155361702Y-74561800D01*
X155534298Y-74561800D01*
X155703578Y-74595471D01*
G37*
G36*
X148704200Y-76314200D02*
G01*
X146951800Y-76314200D01*
X146951800Y-74561800D01*
X148704200Y-74561800D01*
X148704200Y-76314200D01*
G37*
G36*
X161428749Y-73089466D02*
G01*
X161562165Y-73129937D01*
X161685123Y-73195659D01*
X161792895Y-73284106D01*
X161881342Y-73391878D01*
X161947064Y-73514836D01*
X161987535Y-73648252D01*
X162001201Y-73787000D01*
X162001201Y-75057000D01*
X161987535Y-75195748D01*
X161947064Y-75329164D01*
X161881342Y-75452122D01*
X161792895Y-75559894D01*
X161685123Y-75648341D01*
X161562165Y-75714063D01*
X161428749Y-75754534D01*
X161290001Y-75768200D01*
X161289999Y-75768200D01*
X161151251Y-75754534D01*
X161017835Y-75714063D01*
X160894877Y-75648341D01*
X160787105Y-75559894D01*
X160698658Y-75452122D01*
X160632936Y-75329164D01*
X160592465Y-75195748D01*
X160578799Y-75057000D01*
X160578799Y-73787000D01*
X160592465Y-73648252D01*
X160632936Y-73514836D01*
X160698658Y-73391878D01*
X160787105Y-73284106D01*
X160894877Y-73195659D01*
X161017835Y-73129937D01*
X161151251Y-73089466D01*
X161289999Y-73075800D01*
X161290001Y-73075800D01*
X161428749Y-73089466D01*
G37*
G36*
X163968749Y-73089466D02*
G01*
X164102165Y-73129937D01*
X164225123Y-73195659D01*
X164332895Y-73284106D01*
X164421342Y-73391878D01*
X164487064Y-73514836D01*
X164527535Y-73648252D01*
X164541201Y-73787000D01*
X164541201Y-75057000D01*
X164527535Y-75195748D01*
X164487064Y-75329164D01*
X164421342Y-75452122D01*
X164332895Y-75559894D01*
X164225123Y-75648341D01*
X164102165Y-75714063D01*
X163968749Y-75754534D01*
X163830001Y-75768200D01*
X163829999Y-75768200D01*
X163691251Y-75754534D01*
X163557835Y-75714063D01*
X163434877Y-75648341D01*
X163327105Y-75559894D01*
X163238658Y-75452122D01*
X163172936Y-75329164D01*
X163132465Y-75195748D01*
X163118799Y-75057000D01*
X163118799Y-73787000D01*
X163132465Y-73648252D01*
X163172936Y-73514836D01*
X163238658Y-73391878D01*
X163327105Y-73284106D01*
X163434877Y-73195659D01*
X163557835Y-73129937D01*
X163691251Y-73089466D01*
X163829999Y-73075800D01*
X163830001Y-73075800D01*
X163968749Y-73089466D01*
G37*
G36*
X166508749Y-73089466D02*
G01*
X166642165Y-73129937D01*
X166765123Y-73195659D01*
X166872895Y-73284106D01*
X166961342Y-73391878D01*
X167027064Y-73514836D01*
X167067535Y-73648252D01*
X167081201Y-73787000D01*
X167081201Y-75057000D01*
X167067535Y-75195748D01*
X167027064Y-75329164D01*
X166961342Y-75452122D01*
X166872895Y-75559894D01*
X166765123Y-75648341D01*
X166642165Y-75714063D01*
X166508749Y-75754534D01*
X166370001Y-75768200D01*
X166369999Y-75768200D01*
X166231251Y-75754534D01*
X166097835Y-75714063D01*
X165974877Y-75648341D01*
X165867105Y-75559894D01*
X165778658Y-75452122D01*
X165712936Y-75329164D01*
X165672465Y-75195748D01*
X165658799Y-75057000D01*
X165658799Y-73787000D01*
X165672465Y-73648252D01*
X165712936Y-73514836D01*
X165778658Y-73391878D01*
X165867105Y-73284106D01*
X165974877Y-73195659D01*
X166097835Y-73129937D01*
X166231251Y-73089466D01*
X166369999Y-73075800D01*
X166370001Y-73075800D01*
X166508749Y-73089466D01*
G37*
G36*
X159506043Y-73725758D02*
G01*
X159551459Y-73739535D01*
X159593310Y-73761905D01*
X159629992Y-73792008D01*
X159660095Y-73828690D01*
X159682465Y-73870541D01*
X159696242Y-73915957D01*
X159701200Y-73966297D01*
X159701200Y-74877703D01*
X159696242Y-74928043D01*
X159682465Y-74973459D01*
X159660095Y-75015310D01*
X159629992Y-75051992D01*
X159593310Y-75082095D01*
X159551459Y-75104465D01*
X159506043Y-75118242D01*
X159455703Y-75123200D01*
X158044297Y-75123200D01*
X157993957Y-75118242D01*
X157948541Y-75104465D01*
X157906690Y-75082095D01*
X157870008Y-75051992D01*
X157839905Y-75015310D01*
X157817535Y-74973459D01*
X157803758Y-74928043D01*
X157798800Y-74877703D01*
X157798800Y-73966297D01*
X157803758Y-73915957D01*
X157817535Y-73870541D01*
X157839905Y-73828690D01*
X157870008Y-73792008D01*
X157906690Y-73761905D01*
X157948541Y-73739535D01*
X157993957Y-73725758D01*
X158044297Y-73720800D01*
X159455703Y-73720800D01*
X159506043Y-73725758D01*
G37*
G36*
X130255449Y-73484131D02*
G01*
X130255452Y-73484132D01*
X130255451Y-73484132D01*
X130384876Y-73537741D01*
X130501363Y-73615575D01*
X130600425Y-73714637D01*
X130678259Y-73831124D01*
X130721967Y-73936645D01*
X130731869Y-73960551D01*
X130759200Y-74097953D01*
X130759200Y-74238047D01*
X130731869Y-74375449D01*
X130731868Y-74375451D01*
X130678259Y-74504876D01*
X130600425Y-74621363D01*
X130501363Y-74720425D01*
X130384876Y-74798259D01*
X130279355Y-74841967D01*
X130255449Y-74851869D01*
X130118047Y-74879200D01*
X129977953Y-74879200D01*
X129840551Y-74851869D01*
X129816645Y-74841967D01*
X129711124Y-74798259D01*
X129594637Y-74720425D01*
X129495575Y-74621363D01*
X129417741Y-74504876D01*
X129364132Y-74375451D01*
X129364131Y-74375449D01*
X129336800Y-74238047D01*
X129336800Y-74097953D01*
X129364131Y-73960551D01*
X129374033Y-73936645D01*
X129417741Y-73831124D01*
X129495575Y-73714637D01*
X129594637Y-73615575D01*
X129711124Y-73537741D01*
X129840549Y-73484132D01*
X129840548Y-73484132D01*
X129840551Y-73484131D01*
X129977953Y-73456800D01*
X130118047Y-73456800D01*
X130255449Y-73484131D01*
G37*
G36*
X154385449Y-72722131D02*
G01*
X154409355Y-72732033D01*
X154514876Y-72775741D01*
X154631363Y-72853575D01*
X154730425Y-72952637D01*
X154808259Y-73069124D01*
X154821545Y-73101200D01*
X154861869Y-73198551D01*
X154889200Y-73335953D01*
X154889200Y-73476047D01*
X154861869Y-73613449D01*
X154861868Y-73613451D01*
X154808259Y-73742876D01*
X154730425Y-73859363D01*
X154631363Y-73958425D01*
X154514876Y-74036259D01*
X154409355Y-74079967D01*
X154385449Y-74089869D01*
X154248047Y-74117200D01*
X154107953Y-74117200D01*
X153970551Y-74089869D01*
X153946645Y-74079967D01*
X153841124Y-74036259D01*
X153724637Y-73958425D01*
X153625575Y-73859363D01*
X153547741Y-73742876D01*
X153494132Y-73613451D01*
X153494131Y-73613449D01*
X153466800Y-73476047D01*
X153466800Y-73335953D01*
X153494131Y-73198551D01*
X153534455Y-73101200D01*
X153547741Y-73069124D01*
X153625575Y-72952637D01*
X153724637Y-72853575D01*
X153841124Y-72775741D01*
X153946645Y-72732033D01*
X153970551Y-72722131D01*
X154107953Y-72694800D01*
X154248047Y-72694800D01*
X154385449Y-72722131D01*
G37*
G36*
X123905449Y-72722131D02*
G01*
X123929355Y-72732033D01*
X124034876Y-72775741D01*
X124151363Y-72853575D01*
X124250425Y-72952637D01*
X124328259Y-73069124D01*
X124341545Y-73101200D01*
X124381869Y-73198551D01*
X124409200Y-73335953D01*
X124409200Y-73476047D01*
X124381869Y-73613449D01*
X124381868Y-73613451D01*
X124328259Y-73742876D01*
X124250425Y-73859363D01*
X124151363Y-73958425D01*
X124034876Y-74036259D01*
X123929355Y-74079967D01*
X123905449Y-74089869D01*
X123768047Y-74117200D01*
X123627953Y-74117200D01*
X123490551Y-74089869D01*
X123466645Y-74079967D01*
X123361124Y-74036259D01*
X123244637Y-73958425D01*
X123145575Y-73859363D01*
X123067741Y-73742876D01*
X123014132Y-73613451D01*
X123014131Y-73613449D01*
X122986800Y-73476047D01*
X122986800Y-73335953D01*
X123014131Y-73198551D01*
X123054455Y-73101200D01*
X123067741Y-73069124D01*
X123145575Y-72952637D01*
X123244637Y-72853575D01*
X123361124Y-72775741D01*
X123466645Y-72732033D01*
X123490551Y-72722131D01*
X123627953Y-72694800D01*
X123768047Y-72694800D01*
X123905449Y-72722131D01*
G37*
G36*
X140669449Y-71706131D02*
G01*
X140693355Y-71716033D01*
X140798876Y-71759741D01*
X140915363Y-71837575D01*
X141014425Y-71936637D01*
X141092259Y-72053124D01*
X141123291Y-72128043D01*
X141145869Y-72182551D01*
X141173200Y-72319953D01*
X141173200Y-72460047D01*
X141145869Y-72597449D01*
X141145868Y-72597451D01*
X141092259Y-72726876D01*
X141014425Y-72843363D01*
X140915363Y-72942425D01*
X140798876Y-73020259D01*
X140693355Y-73063967D01*
X140669449Y-73073869D01*
X140532047Y-73101200D01*
X140391953Y-73101200D01*
X140254551Y-73073869D01*
X140230645Y-73063967D01*
X140125124Y-73020259D01*
X140008637Y-72942425D01*
X139909575Y-72843363D01*
X139831741Y-72726876D01*
X139778132Y-72597451D01*
X139778131Y-72597449D01*
X139750800Y-72460047D01*
X139750800Y-72319953D01*
X139778131Y-72182551D01*
X139800709Y-72128043D01*
X139831741Y-72053124D01*
X139909575Y-71936637D01*
X140008637Y-71837575D01*
X140125124Y-71759741D01*
X140230645Y-71716033D01*
X140254551Y-71706131D01*
X140391953Y-71678800D01*
X140532047Y-71678800D01*
X140669449Y-71706131D01*
G37*
G36*
X185119449Y-70944131D02*
G01*
X185119452Y-70944132D01*
X185119451Y-70944132D01*
X185248876Y-70997741D01*
X185365363Y-71075575D01*
X185464425Y-71174637D01*
X185542259Y-71291124D01*
X185547573Y-71303954D01*
X185595869Y-71420551D01*
X185623200Y-71557953D01*
X185623200Y-71698047D01*
X185595869Y-71835449D01*
X185595868Y-71835451D01*
X185542259Y-71964876D01*
X185542257Y-71964879D01*
X185515944Y-72004259D01*
X185464425Y-72081363D01*
X185365363Y-72180425D01*
X185248876Y-72258259D01*
X185143637Y-72301850D01*
X185119449Y-72311869D01*
X184982047Y-72339200D01*
X184841953Y-72339200D01*
X184704551Y-72311869D01*
X184680363Y-72301850D01*
X184575124Y-72258259D01*
X184458637Y-72180425D01*
X184359575Y-72081363D01*
X184308056Y-72004259D01*
X184281743Y-71964879D01*
X184281741Y-71964876D01*
X184228132Y-71835451D01*
X184228131Y-71835449D01*
X184200800Y-71698047D01*
X184200800Y-71557953D01*
X184228131Y-71420551D01*
X184276427Y-71303954D01*
X184281741Y-71291124D01*
X184359575Y-71174637D01*
X184458637Y-71075575D01*
X184575124Y-70997741D01*
X184704549Y-70944132D01*
X184704548Y-70944132D01*
X184704551Y-70944131D01*
X184841953Y-70916800D01*
X184982047Y-70916800D01*
X185119449Y-70944131D01*
G37*
G36*
X159506043Y-70925758D02*
G01*
X159551459Y-70939535D01*
X159593310Y-70961905D01*
X159629992Y-70992008D01*
X159660095Y-71028690D01*
X159682465Y-71070541D01*
X159696242Y-71115957D01*
X159701200Y-71166297D01*
X159701200Y-72077703D01*
X159696242Y-72128043D01*
X159682465Y-72173459D01*
X159660095Y-72215310D01*
X159629992Y-72251992D01*
X159593310Y-72282095D01*
X159551459Y-72304465D01*
X159506043Y-72318242D01*
X159455703Y-72323200D01*
X158044297Y-72323200D01*
X157993957Y-72318242D01*
X157948541Y-72304465D01*
X157906690Y-72282095D01*
X157870008Y-72251992D01*
X157839905Y-72215310D01*
X157817535Y-72173459D01*
X157803758Y-72128043D01*
X157798800Y-72077703D01*
X157798800Y-71166297D01*
X157803758Y-71115957D01*
X157817535Y-71070541D01*
X157839905Y-71028690D01*
X157870008Y-70992008D01*
X157906690Y-70961905D01*
X157948541Y-70939535D01*
X157993957Y-70925758D01*
X158044297Y-70920800D01*
X159455703Y-70920800D01*
X159506043Y-70925758D01*
G37*
G36*
X149051449Y-70690131D02*
G01*
X149051452Y-70690132D01*
X149051451Y-70690132D01*
X149180876Y-70743741D01*
X149180879Y-70743743D01*
X149297363Y-70821575D01*
X149396425Y-70920637D01*
X149447946Y-70997743D01*
X149474259Y-71037124D01*
X149506912Y-71115957D01*
X149527869Y-71166551D01*
X149555200Y-71303953D01*
X149555200Y-71444047D01*
X149527869Y-71581449D01*
X149527868Y-71581451D01*
X149474259Y-71710876D01*
X149396425Y-71827363D01*
X149297363Y-71926425D01*
X149180876Y-72004259D01*
X149088022Y-72042720D01*
X149051449Y-72057869D01*
X148914047Y-72085200D01*
X148773953Y-72085200D01*
X148636551Y-72057869D01*
X148599978Y-72042720D01*
X148507124Y-72004259D01*
X148390637Y-71926425D01*
X148291575Y-71827363D01*
X148213741Y-71710876D01*
X148160132Y-71581451D01*
X148160131Y-71581449D01*
X148132800Y-71444047D01*
X148132800Y-71303953D01*
X148160131Y-71166551D01*
X148181088Y-71115957D01*
X148213741Y-71037124D01*
X148240055Y-70997743D01*
X148291575Y-70920637D01*
X148390637Y-70821575D01*
X148507121Y-70743743D01*
X148507124Y-70743741D01*
X148636549Y-70690132D01*
X148636548Y-70690132D01*
X148636551Y-70690131D01*
X148773953Y-70662800D01*
X148914047Y-70662800D01*
X149051449Y-70690131D01*
G37*
G36*
X147019449Y-70690131D02*
G01*
X147019452Y-70690132D01*
X147019451Y-70690132D01*
X147148876Y-70743741D01*
X147148879Y-70743743D01*
X147265363Y-70821575D01*
X147364425Y-70920637D01*
X147415946Y-70997743D01*
X147442259Y-71037124D01*
X147474912Y-71115957D01*
X147495869Y-71166551D01*
X147523200Y-71303953D01*
X147523200Y-71444047D01*
X147495869Y-71581449D01*
X147495868Y-71581451D01*
X147442259Y-71710876D01*
X147364425Y-71827363D01*
X147265363Y-71926425D01*
X147148876Y-72004259D01*
X147056022Y-72042720D01*
X147019449Y-72057869D01*
X146882047Y-72085200D01*
X146741953Y-72085200D01*
X146604551Y-72057869D01*
X146567978Y-72042720D01*
X146475124Y-72004259D01*
X146358637Y-71926425D01*
X146259575Y-71827363D01*
X146181741Y-71710876D01*
X146128132Y-71581451D01*
X146128131Y-71581449D01*
X146100800Y-71444047D01*
X146100800Y-71303953D01*
X146128131Y-71166551D01*
X146149088Y-71115957D01*
X146181741Y-71037124D01*
X146208055Y-70997743D01*
X146259575Y-70920637D01*
X146358637Y-70821575D01*
X146475121Y-70743743D01*
X146475124Y-70743741D01*
X146604549Y-70690132D01*
X146604548Y-70690132D01*
X146604551Y-70690131D01*
X146741953Y-70662800D01*
X146882047Y-70662800D01*
X147019449Y-70690131D01*
G37*
G36*
X144987449Y-70690131D02*
G01*
X144987452Y-70690132D01*
X144987451Y-70690132D01*
X145116876Y-70743741D01*
X145116879Y-70743743D01*
X145233363Y-70821575D01*
X145332425Y-70920637D01*
X145383946Y-70997743D01*
X145410259Y-71037124D01*
X145442912Y-71115957D01*
X145463869Y-71166551D01*
X145491200Y-71303953D01*
X145491200Y-71444047D01*
X145463869Y-71581449D01*
X145463868Y-71581451D01*
X145410259Y-71710876D01*
X145332425Y-71827363D01*
X145233363Y-71926425D01*
X145116876Y-72004259D01*
X145024022Y-72042720D01*
X144987449Y-72057869D01*
X144850047Y-72085200D01*
X144709953Y-72085200D01*
X144572551Y-72057869D01*
X144535978Y-72042720D01*
X144443124Y-72004259D01*
X144326637Y-71926425D01*
X144227575Y-71827363D01*
X144149741Y-71710876D01*
X144096132Y-71581451D01*
X144096131Y-71581449D01*
X144068800Y-71444047D01*
X144068800Y-71303953D01*
X144096131Y-71166551D01*
X144117088Y-71115957D01*
X144149741Y-71037124D01*
X144176055Y-70997743D01*
X144227575Y-70920637D01*
X144326637Y-70821575D01*
X144443121Y-70743743D01*
X144443124Y-70743741D01*
X144572549Y-70690132D01*
X144572548Y-70690132D01*
X144572551Y-70690131D01*
X144709953Y-70662800D01*
X144850047Y-70662800D01*
X144987449Y-70690131D01*
G37*
G36*
X155473068Y-67387350D02*
G01*
X155634166Y-67419393D01*
X155802717Y-67489210D01*
X155954418Y-67590573D01*
X156083427Y-67719582D01*
X156184790Y-67871283D01*
X156254607Y-68039834D01*
X156290200Y-68218778D01*
X156290200Y-68401222D01*
X156254607Y-68580166D01*
X156184790Y-68748717D01*
X156083427Y-68900418D01*
X155954418Y-69029427D01*
X155802717Y-69130790D01*
X155634166Y-69200607D01*
X155473068Y-69232650D01*
X155455223Y-69236200D01*
X155272777Y-69236200D01*
X155254932Y-69232650D01*
X155093834Y-69200607D01*
X154925283Y-69130790D01*
X154773582Y-69029427D01*
X154644573Y-68900418D01*
X154543210Y-68748717D01*
X154473393Y-68580166D01*
X154437800Y-68401222D01*
X154437800Y-68218778D01*
X154473393Y-68039834D01*
X154543210Y-67871283D01*
X154644573Y-67719582D01*
X154773582Y-67590573D01*
X154925283Y-67489210D01*
X155093834Y-67419393D01*
X155254932Y-67387350D01*
X155272777Y-67383800D01*
X155455223Y-67383800D01*
X155473068Y-67387350D01*
G37*
G36*
X152933068Y-67387350D02*
G01*
X153094166Y-67419393D01*
X153262717Y-67489210D01*
X153414418Y-67590573D01*
X153543427Y-67719582D01*
X153644790Y-67871283D01*
X153714607Y-68039834D01*
X153750200Y-68218778D01*
X153750200Y-68401222D01*
X153714607Y-68580166D01*
X153644790Y-68748717D01*
X153543427Y-68900418D01*
X153414418Y-69029427D01*
X153262717Y-69130790D01*
X153094166Y-69200607D01*
X152933068Y-69232650D01*
X152915223Y-69236200D01*
X152732777Y-69236200D01*
X152714932Y-69232650D01*
X152553834Y-69200607D01*
X152385283Y-69130790D01*
X152233582Y-69029427D01*
X152104573Y-68900418D01*
X152003210Y-68748717D01*
X151933393Y-68580166D01*
X151897800Y-68401222D01*
X151897800Y-68218778D01*
X151933393Y-68039834D01*
X152003210Y-67871283D01*
X152104573Y-67719582D01*
X152233582Y-67590573D01*
X152385283Y-67489210D01*
X152553834Y-67419393D01*
X152714932Y-67387350D01*
X152732777Y-67383800D01*
X152915223Y-67383800D01*
X152933068Y-67387350D01*
G37*
G36*
X175793068Y-67387350D02*
G01*
X175954166Y-67419393D01*
X176122717Y-67489210D01*
X176274418Y-67590573D01*
X176403427Y-67719582D01*
X176504790Y-67871283D01*
X176574607Y-68039834D01*
X176610200Y-68218778D01*
X176610200Y-68401222D01*
X176574607Y-68580166D01*
X176504790Y-68748717D01*
X176403427Y-68900418D01*
X176274418Y-69029427D01*
X176122717Y-69130790D01*
X175954166Y-69200607D01*
X175793068Y-69232650D01*
X175775223Y-69236200D01*
X175592777Y-69236200D01*
X175574932Y-69232650D01*
X175413834Y-69200607D01*
X175245283Y-69130790D01*
X175093582Y-69029427D01*
X174964573Y-68900418D01*
X174863210Y-68748717D01*
X174793393Y-68580166D01*
X174757800Y-68401222D01*
X174757800Y-68218778D01*
X174793393Y-68039834D01*
X174863210Y-67871283D01*
X174964573Y-67719582D01*
X175093582Y-67590573D01*
X175245283Y-67489210D01*
X175413834Y-67419393D01*
X175574932Y-67387350D01*
X175592777Y-67383800D01*
X175775223Y-67383800D01*
X175793068Y-67387350D01*
G37*
G36*
X173253068Y-67387350D02*
G01*
X173414166Y-67419393D01*
X173582717Y-67489210D01*
X173734418Y-67590573D01*
X173863427Y-67719582D01*
X173964790Y-67871283D01*
X174034607Y-68039834D01*
X174070200Y-68218778D01*
X174070200Y-68401222D01*
X174034607Y-68580166D01*
X173964790Y-68748717D01*
X173863427Y-68900418D01*
X173734418Y-69029427D01*
X173582717Y-69130790D01*
X173414166Y-69200607D01*
X173253068Y-69232650D01*
X173235223Y-69236200D01*
X173052777Y-69236200D01*
X173034932Y-69232650D01*
X172873834Y-69200607D01*
X172705283Y-69130790D01*
X172553582Y-69029427D01*
X172424573Y-68900418D01*
X172323210Y-68748717D01*
X172253393Y-68580166D01*
X172217800Y-68401222D01*
X172217800Y-68218778D01*
X172253393Y-68039834D01*
X172323210Y-67871283D01*
X172424573Y-67719582D01*
X172553582Y-67590573D01*
X172705283Y-67489210D01*
X172873834Y-67419393D01*
X173034932Y-67387350D01*
X173052777Y-67383800D01*
X173235223Y-67383800D01*
X173253068Y-67387350D01*
G37*
G36*
X170713068Y-67387350D02*
G01*
X170874166Y-67419393D01*
X171042717Y-67489210D01*
X171194418Y-67590573D01*
X171323427Y-67719582D01*
X171424790Y-67871283D01*
X171494607Y-68039834D01*
X171530200Y-68218778D01*
X171530200Y-68401222D01*
X171494607Y-68580166D01*
X171424790Y-68748717D01*
X171323427Y-68900418D01*
X171194418Y-69029427D01*
X171042717Y-69130790D01*
X170874166Y-69200607D01*
X170713068Y-69232650D01*
X170695223Y-69236200D01*
X170512777Y-69236200D01*
X170494932Y-69232650D01*
X170333834Y-69200607D01*
X170165283Y-69130790D01*
X170013582Y-69029427D01*
X169884573Y-68900418D01*
X169783210Y-68748717D01*
X169713393Y-68580166D01*
X169677800Y-68401222D01*
X169677800Y-68218778D01*
X169713393Y-68039834D01*
X169783210Y-67871283D01*
X169884573Y-67719582D01*
X170013582Y-67590573D01*
X170165283Y-67489210D01*
X170333834Y-67419393D01*
X170494932Y-67387350D01*
X170512777Y-67383800D01*
X170695223Y-67383800D01*
X170713068Y-67387350D01*
G37*
G36*
X168173068Y-67387350D02*
G01*
X168334166Y-67419393D01*
X168502717Y-67489210D01*
X168654418Y-67590573D01*
X168783427Y-67719582D01*
X168884790Y-67871283D01*
X168954607Y-68039834D01*
X168990200Y-68218778D01*
X168990200Y-68401222D01*
X168954607Y-68580166D01*
X168884790Y-68748717D01*
X168783427Y-68900418D01*
X168654418Y-69029427D01*
X168502717Y-69130790D01*
X168334166Y-69200607D01*
X168173068Y-69232650D01*
X168155223Y-69236200D01*
X167972777Y-69236200D01*
X167954932Y-69232650D01*
X167793834Y-69200607D01*
X167625283Y-69130790D01*
X167473582Y-69029427D01*
X167344573Y-68900418D01*
X167243210Y-68748717D01*
X167173393Y-68580166D01*
X167137800Y-68401222D01*
X167137800Y-68218778D01*
X167173393Y-68039834D01*
X167243210Y-67871283D01*
X167344573Y-67719582D01*
X167473582Y-67590573D01*
X167625283Y-67489210D01*
X167793834Y-67419393D01*
X167954932Y-67387350D01*
X167972777Y-67383800D01*
X168155223Y-67383800D01*
X168173068Y-67387350D01*
G37*
G36*
X165633068Y-67387350D02*
G01*
X165794166Y-67419393D01*
X165962717Y-67489210D01*
X166114418Y-67590573D01*
X166243427Y-67719582D01*
X166344790Y-67871283D01*
X166414607Y-68039834D01*
X166450200Y-68218778D01*
X166450200Y-68401222D01*
X166414607Y-68580166D01*
X166344790Y-68748717D01*
X166243427Y-68900418D01*
X166114418Y-69029427D01*
X165962717Y-69130790D01*
X165794166Y-69200607D01*
X165633068Y-69232650D01*
X165615223Y-69236200D01*
X165432777Y-69236200D01*
X165414932Y-69232650D01*
X165253834Y-69200607D01*
X165085283Y-69130790D01*
X164933582Y-69029427D01*
X164804573Y-68900418D01*
X164703210Y-68748717D01*
X164633393Y-68580166D01*
X164597800Y-68401222D01*
X164597800Y-68218778D01*
X164633393Y-68039834D01*
X164703210Y-67871283D01*
X164804573Y-67719582D01*
X164933582Y-67590573D01*
X165085283Y-67489210D01*
X165253834Y-67419393D01*
X165414932Y-67387350D01*
X165432777Y-67383800D01*
X165615223Y-67383800D01*
X165633068Y-67387350D01*
G37*
G36*
X163093068Y-67387350D02*
G01*
X163254166Y-67419393D01*
X163422717Y-67489210D01*
X163574418Y-67590573D01*
X163703427Y-67719582D01*
X163804790Y-67871283D01*
X163874607Y-68039834D01*
X163910200Y-68218778D01*
X163910200Y-68401222D01*
X163874607Y-68580166D01*
X163804790Y-68748717D01*
X163703427Y-68900418D01*
X163574418Y-69029427D01*
X163422717Y-69130790D01*
X163254166Y-69200607D01*
X163093068Y-69232650D01*
X163075223Y-69236200D01*
X162892777Y-69236200D01*
X162874932Y-69232650D01*
X162713834Y-69200607D01*
X162545283Y-69130790D01*
X162393582Y-69029427D01*
X162264573Y-68900418D01*
X162163210Y-68748717D01*
X162093393Y-68580166D01*
X162057800Y-68401222D01*
X162057800Y-68218778D01*
X162093393Y-68039834D01*
X162163210Y-67871283D01*
X162264573Y-67719582D01*
X162393582Y-67590573D01*
X162545283Y-67489210D01*
X162713834Y-67419393D01*
X162874932Y-67387350D01*
X162892777Y-67383800D01*
X163075223Y-67383800D01*
X163093068Y-67387350D01*
G37*
G36*
X150393068Y-67387350D02*
G01*
X150554166Y-67419393D01*
X150722717Y-67489210D01*
X150874418Y-67590573D01*
X151003427Y-67719582D01*
X151104790Y-67871283D01*
X151174607Y-68039834D01*
X151210200Y-68218778D01*
X151210200Y-68401222D01*
X151174607Y-68580166D01*
X151104790Y-68748717D01*
X151003427Y-68900418D01*
X150874418Y-69029427D01*
X150722717Y-69130790D01*
X150554166Y-69200607D01*
X150393068Y-69232650D01*
X150375223Y-69236200D01*
X150192777Y-69236200D01*
X150174932Y-69232650D01*
X150013834Y-69200607D01*
X149845283Y-69130790D01*
X149693582Y-69029427D01*
X149564573Y-68900418D01*
X149463210Y-68748717D01*
X149393393Y-68580166D01*
X149357800Y-68401222D01*
X149357800Y-68218778D01*
X149393393Y-68039834D01*
X149463210Y-67871283D01*
X149564573Y-67719582D01*
X149693582Y-67590573D01*
X149845283Y-67489210D01*
X150013834Y-67419393D01*
X150174932Y-67387350D01*
X150192777Y-67383800D01*
X150375223Y-67383800D01*
X150393068Y-67387350D01*
G37*
G36*
X132613068Y-67387350D02*
G01*
X132774166Y-67419393D01*
X132942717Y-67489210D01*
X133094418Y-67590573D01*
X133223427Y-67719582D01*
X133324790Y-67871283D01*
X133394607Y-68039834D01*
X133430200Y-68218778D01*
X133430200Y-68401222D01*
X133394607Y-68580166D01*
X133324790Y-68748717D01*
X133223427Y-68900418D01*
X133094418Y-69029427D01*
X132942717Y-69130790D01*
X132774166Y-69200607D01*
X132613068Y-69232650D01*
X132595223Y-69236200D01*
X132412777Y-69236200D01*
X132394932Y-69232650D01*
X132233834Y-69200607D01*
X132065283Y-69130790D01*
X131913582Y-69029427D01*
X131784573Y-68900418D01*
X131683210Y-68748717D01*
X131613393Y-68580166D01*
X131577800Y-68401222D01*
X131577800Y-68218778D01*
X131613393Y-68039834D01*
X131683210Y-67871283D01*
X131784573Y-67719582D01*
X131913582Y-67590573D01*
X132065283Y-67489210D01*
X132233834Y-67419393D01*
X132394932Y-67387350D01*
X132412777Y-67383800D01*
X132595223Y-67383800D01*
X132613068Y-67387350D01*
G37*
G36*
X135153068Y-67387350D02*
G01*
X135314166Y-67419393D01*
X135482717Y-67489210D01*
X135634418Y-67590573D01*
X135763427Y-67719582D01*
X135864790Y-67871283D01*
X135934607Y-68039834D01*
X135970200Y-68218778D01*
X135970200Y-68401222D01*
X135934607Y-68580166D01*
X135864790Y-68748717D01*
X135763427Y-68900418D01*
X135634418Y-69029427D01*
X135482717Y-69130790D01*
X135314166Y-69200607D01*
X135153068Y-69232650D01*
X135135223Y-69236200D01*
X134952777Y-69236200D01*
X134934932Y-69232650D01*
X134773834Y-69200607D01*
X134605283Y-69130790D01*
X134453582Y-69029427D01*
X134324573Y-68900418D01*
X134223210Y-68748717D01*
X134153393Y-68580166D01*
X134117800Y-68401222D01*
X134117800Y-68218778D01*
X134153393Y-68039834D01*
X134223210Y-67871283D01*
X134324573Y-67719582D01*
X134453582Y-67590573D01*
X134605283Y-67489210D01*
X134773834Y-67419393D01*
X134934932Y-67387350D01*
X134952777Y-67383800D01*
X135135223Y-67383800D01*
X135153068Y-67387350D01*
G37*
G36*
X137693068Y-67387350D02*
G01*
X137854166Y-67419393D01*
X138022717Y-67489210D01*
X138174418Y-67590573D01*
X138303427Y-67719582D01*
X138404790Y-67871283D01*
X138474607Y-68039834D01*
X138510200Y-68218778D01*
X138510200Y-68401222D01*
X138474607Y-68580166D01*
X138404790Y-68748717D01*
X138303427Y-68900418D01*
X138174418Y-69029427D01*
X138022717Y-69130790D01*
X137854166Y-69200607D01*
X137693068Y-69232650D01*
X137675223Y-69236200D01*
X137492777Y-69236200D01*
X137474932Y-69232650D01*
X137313834Y-69200607D01*
X137145283Y-69130790D01*
X136993582Y-69029427D01*
X136864573Y-68900418D01*
X136763210Y-68748717D01*
X136693393Y-68580166D01*
X136657800Y-68401222D01*
X136657800Y-68218778D01*
X136693393Y-68039834D01*
X136763210Y-67871283D01*
X136864573Y-67719582D01*
X136993582Y-67590573D01*
X137145283Y-67489210D01*
X137313834Y-67419393D01*
X137474932Y-67387350D01*
X137492777Y-67383800D01*
X137675223Y-67383800D01*
X137693068Y-67387350D01*
G37*
G36*
X140233068Y-67387350D02*
G01*
X140394166Y-67419393D01*
X140562717Y-67489210D01*
X140714418Y-67590573D01*
X140843427Y-67719582D01*
X140944790Y-67871283D01*
X141014607Y-68039834D01*
X141050200Y-68218778D01*
X141050200Y-68401222D01*
X141014607Y-68580166D01*
X140944790Y-68748717D01*
X140843427Y-68900418D01*
X140714418Y-69029427D01*
X140562717Y-69130790D01*
X140394166Y-69200607D01*
X140233068Y-69232650D01*
X140215223Y-69236200D01*
X140032777Y-69236200D01*
X140014932Y-69232650D01*
X139853834Y-69200607D01*
X139685283Y-69130790D01*
X139533582Y-69029427D01*
X139404573Y-68900418D01*
X139303210Y-68748717D01*
X139233393Y-68580166D01*
X139197800Y-68401222D01*
X139197800Y-68218778D01*
X139233393Y-68039834D01*
X139303210Y-67871283D01*
X139404573Y-67719582D01*
X139533582Y-67590573D01*
X139685283Y-67489210D01*
X139853834Y-67419393D01*
X140014932Y-67387350D01*
X140032777Y-67383800D01*
X140215223Y-67383800D01*
X140233068Y-67387350D01*
G37*
G36*
X142773068Y-67387350D02*
G01*
X142934166Y-67419393D01*
X143102717Y-67489210D01*
X143254418Y-67590573D01*
X143383427Y-67719582D01*
X143484790Y-67871283D01*
X143554607Y-68039834D01*
X143590200Y-68218778D01*
X143590200Y-68401222D01*
X143554607Y-68580166D01*
X143484790Y-68748717D01*
X143383427Y-68900418D01*
X143254418Y-69029427D01*
X143102717Y-69130790D01*
X142934166Y-69200607D01*
X142773068Y-69232650D01*
X142755223Y-69236200D01*
X142572777Y-69236200D01*
X142554932Y-69232650D01*
X142393834Y-69200607D01*
X142225283Y-69130790D01*
X142073582Y-69029427D01*
X141944573Y-68900418D01*
X141843210Y-68748717D01*
X141773393Y-68580166D01*
X141737800Y-68401222D01*
X141737800Y-68218778D01*
X141773393Y-68039834D01*
X141843210Y-67871283D01*
X141944573Y-67719582D01*
X142073582Y-67590573D01*
X142225283Y-67489210D01*
X142393834Y-67419393D01*
X142554932Y-67387350D01*
X142572777Y-67383800D01*
X142755223Y-67383800D01*
X142773068Y-67387350D01*
G37*
G36*
X145313068Y-67387350D02*
G01*
X145474166Y-67419393D01*
X145642717Y-67489210D01*
X145794418Y-67590573D01*
X145923427Y-67719582D01*
X146024790Y-67871283D01*
X146094607Y-68039834D01*
X146130200Y-68218778D01*
X146130200Y-68401222D01*
X146094607Y-68580166D01*
X146024790Y-68748717D01*
X145923427Y-68900418D01*
X145794418Y-69029427D01*
X145642717Y-69130790D01*
X145474166Y-69200607D01*
X145313068Y-69232650D01*
X145295223Y-69236200D01*
X145112777Y-69236200D01*
X145094932Y-69232650D01*
X144933834Y-69200607D01*
X144765283Y-69130790D01*
X144613582Y-69029427D01*
X144484573Y-68900418D01*
X144383210Y-68748717D01*
X144313393Y-68580166D01*
X144277800Y-68401222D01*
X144277800Y-68218778D01*
X144313393Y-68039834D01*
X144383210Y-67871283D01*
X144484573Y-67719582D01*
X144613582Y-67590573D01*
X144765283Y-67489210D01*
X144933834Y-67419393D01*
X145094932Y-67387350D01*
X145112777Y-67383800D01*
X145295223Y-67383800D01*
X145313068Y-67387350D01*
G37*
G36*
X160553068Y-67387350D02*
G01*
X160714166Y-67419393D01*
X160882717Y-67489210D01*
X161034418Y-67590573D01*
X161163427Y-67719582D01*
X161264790Y-67871283D01*
X161334607Y-68039834D01*
X161370200Y-68218778D01*
X161370200Y-68401222D01*
X161334607Y-68580166D01*
X161264790Y-68748717D01*
X161163427Y-68900418D01*
X161034418Y-69029427D01*
X160882717Y-69130790D01*
X160714166Y-69200607D01*
X160553068Y-69232650D01*
X160535223Y-69236200D01*
X160352777Y-69236200D01*
X160334932Y-69232650D01*
X160173834Y-69200607D01*
X160005283Y-69130790D01*
X159853582Y-69029427D01*
X159724573Y-68900418D01*
X159623210Y-68748717D01*
X159553393Y-68580166D01*
X159517800Y-68401222D01*
X159517800Y-68218778D01*
X159553393Y-68039834D01*
X159623210Y-67871283D01*
X159724573Y-67719582D01*
X159853582Y-67590573D01*
X160005283Y-67489210D01*
X160173834Y-67419393D01*
X160334932Y-67387350D01*
X160352777Y-67383800D01*
X160535223Y-67383800D01*
X160553068Y-67387350D01*
G37*
G36*
X178333068Y-67387350D02*
G01*
X178494166Y-67419393D01*
X178662717Y-67489210D01*
X178814418Y-67590573D01*
X178943427Y-67719582D01*
X179044790Y-67871283D01*
X179114607Y-68039834D01*
X179150200Y-68218778D01*
X179150200Y-68401222D01*
X179114607Y-68580166D01*
X179044790Y-68748717D01*
X178943427Y-68900418D01*
X178814418Y-69029427D01*
X178662717Y-69130790D01*
X178494166Y-69200607D01*
X178333068Y-69232650D01*
X178315223Y-69236200D01*
X178132777Y-69236200D01*
X178114932Y-69232650D01*
X177953834Y-69200607D01*
X177785283Y-69130790D01*
X177633582Y-69029427D01*
X177504573Y-68900418D01*
X177403210Y-68748717D01*
X177333393Y-68580166D01*
X177297800Y-68401222D01*
X177297800Y-68218778D01*
X177333393Y-68039834D01*
X177403210Y-67871283D01*
X177504573Y-67719582D01*
X177633582Y-67590573D01*
X177785283Y-67489210D01*
X177953834Y-67419393D01*
X178114932Y-67387350D01*
X178132777Y-67383800D01*
X178315223Y-67383800D01*
X178333068Y-67387350D01*
G37*
G36*
X147853068Y-67387350D02*
G01*
X148014166Y-67419393D01*
X148182717Y-67489210D01*
X148334418Y-67590573D01*
X148463427Y-67719582D01*
X148564790Y-67871283D01*
X148634607Y-68039834D01*
X148670200Y-68218778D01*
X148670200Y-68401222D01*
X148634607Y-68580166D01*
X148564790Y-68748717D01*
X148463427Y-68900418D01*
X148334418Y-69029427D01*
X148182717Y-69130790D01*
X148014166Y-69200607D01*
X147853068Y-69232650D01*
X147835223Y-69236200D01*
X147652777Y-69236200D01*
X147634932Y-69232650D01*
X147473834Y-69200607D01*
X147305283Y-69130790D01*
X147153582Y-69029427D01*
X147024573Y-68900418D01*
X146923210Y-68748717D01*
X146853393Y-68580166D01*
X146817800Y-68401222D01*
X146817800Y-68218778D01*
X146853393Y-68039834D01*
X146923210Y-67871283D01*
X147024573Y-67719582D01*
X147153582Y-67590573D01*
X147305283Y-67489210D01*
X147473834Y-67419393D01*
X147634932Y-67387350D01*
X147652777Y-67383800D01*
X147835223Y-67383800D01*
X147853068Y-67387350D01*
G37*
G36*
X158013068Y-67387350D02*
G01*
X158174166Y-67419393D01*
X158342717Y-67489210D01*
X158494418Y-67590573D01*
X158623427Y-67719582D01*
X158724790Y-67871283D01*
X158794607Y-68039834D01*
X158830200Y-68218778D01*
X158830200Y-68401222D01*
X158794607Y-68580166D01*
X158724790Y-68748717D01*
X158623427Y-68900418D01*
X158494418Y-69029427D01*
X158342717Y-69130790D01*
X158174166Y-69200607D01*
X158013068Y-69232650D01*
X157995223Y-69236200D01*
X157812777Y-69236200D01*
X157794932Y-69232650D01*
X157633834Y-69200607D01*
X157465283Y-69130790D01*
X157313582Y-69029427D01*
X157184573Y-68900418D01*
X157083210Y-68748717D01*
X157013393Y-68580166D01*
X156977800Y-68401222D01*
X156977800Y-68218778D01*
X157013393Y-68039834D01*
X157083210Y-67871283D01*
X157184573Y-67719582D01*
X157313582Y-67590573D01*
X157465283Y-67489210D01*
X157633834Y-67419393D01*
X157794932Y-67387350D01*
X157812777Y-67383800D01*
X157995223Y-67383800D01*
X158013068Y-67387350D01*
G37*
G36*
X125391471Y-65237193D02*
G01*
X125626685Y-65283980D01*
X125959027Y-65421641D01*
X125959030Y-65421643D01*
X126258135Y-65621498D01*
X126512502Y-65875865D01*
X126512503Y-65875867D01*
X126712359Y-66174973D01*
X126850020Y-66507315D01*
X126920200Y-66860136D01*
X126920200Y-67219864D01*
X126850020Y-67572685D01*
X126712359Y-67905027D01*
X126712357Y-67905030D01*
X126512502Y-68204135D01*
X126258135Y-68458502D01*
X126076057Y-68580162D01*
X125959027Y-68658359D01*
X125626685Y-68796020D01*
X125391471Y-68842807D01*
X125273865Y-68866200D01*
X124914135Y-68866200D01*
X124796529Y-68842807D01*
X124561315Y-68796020D01*
X124228973Y-68658359D01*
X124111943Y-68580162D01*
X123929865Y-68458502D01*
X123675498Y-68204135D01*
X123475643Y-67905030D01*
X123475641Y-67905027D01*
X123337980Y-67572685D01*
X123267800Y-67219864D01*
X123267800Y-66860136D01*
X123337980Y-66507315D01*
X123475641Y-66174973D01*
X123675497Y-65875867D01*
X123675498Y-65875865D01*
X123929865Y-65621498D01*
X124228970Y-65421643D01*
X124228973Y-65421641D01*
X124561315Y-65283980D01*
X124796529Y-65237193D01*
X124914135Y-65213800D01*
X125273865Y-65213800D01*
X125391471Y-65237193D01*
G37*
G36*
X183391471Y-65237193D02*
G01*
X183626685Y-65283980D01*
X183959027Y-65421641D01*
X183959030Y-65421643D01*
X184258135Y-65621498D01*
X184512502Y-65875865D01*
X184512503Y-65875867D01*
X184712359Y-66174973D01*
X184850020Y-66507315D01*
X184920200Y-66860136D01*
X184920200Y-67219864D01*
X184850020Y-67572685D01*
X184712359Y-67905027D01*
X184712357Y-67905030D01*
X184512502Y-68204135D01*
X184258135Y-68458502D01*
X184076057Y-68580162D01*
X183959027Y-68658359D01*
X183626685Y-68796020D01*
X183391471Y-68842807D01*
X183273865Y-68866200D01*
X182914135Y-68866200D01*
X182796529Y-68842807D01*
X182561315Y-68796020D01*
X182228973Y-68658359D01*
X182111943Y-68580162D01*
X181929865Y-68458502D01*
X181675498Y-68204135D01*
X181475643Y-67905030D01*
X181475641Y-67905027D01*
X181337980Y-67572685D01*
X181267800Y-67219864D01*
X181267800Y-66860136D01*
X181337980Y-66507315D01*
X181475641Y-66174973D01*
X181675497Y-65875867D01*
X181675498Y-65875865D01*
X181929865Y-65621498D01*
X182228970Y-65421643D01*
X182228973Y-65421641D01*
X182561315Y-65283980D01*
X182796529Y-65237193D01*
X182914135Y-65213800D01*
X183273865Y-65213800D01*
X183391471Y-65237193D01*
G37*
G36*
X158013068Y-64847350D02*
G01*
X158174166Y-64879393D01*
X158342717Y-64949210D01*
X158494418Y-65050573D01*
X158623427Y-65179582D01*
X158724790Y-65331283D01*
X158794607Y-65499834D01*
X158830200Y-65678778D01*
X158830200Y-65861222D01*
X158794607Y-66040166D01*
X158724790Y-66208717D01*
X158623427Y-66360418D01*
X158494418Y-66489427D01*
X158342717Y-66590790D01*
X158174166Y-66660607D01*
X158013068Y-66692650D01*
X157995223Y-66696200D01*
X157812777Y-66696200D01*
X157794932Y-66692650D01*
X157633834Y-66660607D01*
X157465283Y-66590790D01*
X157313582Y-66489427D01*
X157184573Y-66360418D01*
X157083210Y-66208717D01*
X157013393Y-66040166D01*
X156977800Y-65861222D01*
X156977800Y-65678778D01*
X157013393Y-65499834D01*
X157083210Y-65331283D01*
X157184573Y-65179582D01*
X157313582Y-65050573D01*
X157465283Y-64949210D01*
X157633834Y-64879393D01*
X157794932Y-64847350D01*
X157812777Y-64843800D01*
X157995223Y-64843800D01*
X158013068Y-64847350D01*
G37*
G36*
X152933068Y-64847350D02*
G01*
X153094166Y-64879393D01*
X153262717Y-64949210D01*
X153414418Y-65050573D01*
X153543427Y-65179582D01*
X153644790Y-65331283D01*
X153714607Y-65499834D01*
X153750200Y-65678778D01*
X153750200Y-65861222D01*
X153714607Y-66040166D01*
X153644790Y-66208717D01*
X153543427Y-66360418D01*
X153414418Y-66489427D01*
X153262717Y-66590790D01*
X153094166Y-66660607D01*
X152933068Y-66692650D01*
X152915223Y-66696200D01*
X152732777Y-66696200D01*
X152714932Y-66692650D01*
X152553834Y-66660607D01*
X152385283Y-66590790D01*
X152233582Y-66489427D01*
X152104573Y-66360418D01*
X152003210Y-66208717D01*
X151933393Y-66040166D01*
X151897800Y-65861222D01*
X151897800Y-65678778D01*
X151933393Y-65499834D01*
X152003210Y-65331283D01*
X152104573Y-65179582D01*
X152233582Y-65050573D01*
X152385283Y-64949210D01*
X152553834Y-64879393D01*
X152714932Y-64847350D01*
X152732777Y-64843800D01*
X152915223Y-64843800D01*
X152933068Y-64847350D01*
G37*
G36*
X150393068Y-64847350D02*
G01*
X150554166Y-64879393D01*
X150722717Y-64949210D01*
X150874418Y-65050573D01*
X151003427Y-65179582D01*
X151104790Y-65331283D01*
X151174607Y-65499834D01*
X151210200Y-65678778D01*
X151210200Y-65861222D01*
X151174607Y-66040166D01*
X151104790Y-66208717D01*
X151003427Y-66360418D01*
X150874418Y-66489427D01*
X150722717Y-66590790D01*
X150554166Y-66660607D01*
X150393068Y-66692650D01*
X150375223Y-66696200D01*
X150192777Y-66696200D01*
X150174932Y-66692650D01*
X150013834Y-66660607D01*
X149845283Y-66590790D01*
X149693582Y-66489427D01*
X149564573Y-66360418D01*
X149463210Y-66208717D01*
X149393393Y-66040166D01*
X149357800Y-65861222D01*
X149357800Y-65678778D01*
X149393393Y-65499834D01*
X149463210Y-65331283D01*
X149564573Y-65179582D01*
X149693582Y-65050573D01*
X149845283Y-64949210D01*
X150013834Y-64879393D01*
X150174932Y-64847350D01*
X150192777Y-64843800D01*
X150375223Y-64843800D01*
X150393068Y-64847350D01*
G37*
G36*
X147853068Y-64847350D02*
G01*
X148014166Y-64879393D01*
X148182717Y-64949210D01*
X148334418Y-65050573D01*
X148463427Y-65179582D01*
X148564790Y-65331283D01*
X148634607Y-65499834D01*
X148670200Y-65678778D01*
X148670200Y-65861222D01*
X148634607Y-66040166D01*
X148564790Y-66208717D01*
X148463427Y-66360418D01*
X148334418Y-66489427D01*
X148182717Y-66590790D01*
X148014166Y-66660607D01*
X147853068Y-66692650D01*
X147835223Y-66696200D01*
X147652777Y-66696200D01*
X147634932Y-66692650D01*
X147473834Y-66660607D01*
X147305283Y-66590790D01*
X147153582Y-66489427D01*
X147024573Y-66360418D01*
X146923210Y-66208717D01*
X146853393Y-66040166D01*
X146817800Y-65861222D01*
X146817800Y-65678778D01*
X146853393Y-65499834D01*
X146923210Y-65331283D01*
X147024573Y-65179582D01*
X147153582Y-65050573D01*
X147305283Y-64949210D01*
X147473834Y-64879393D01*
X147634932Y-64847350D01*
X147652777Y-64843800D01*
X147835223Y-64843800D01*
X147853068Y-64847350D01*
G37*
G36*
X178333068Y-64847350D02*
G01*
X178494166Y-64879393D01*
X178662717Y-64949210D01*
X178814418Y-65050573D01*
X178943427Y-65179582D01*
X179044790Y-65331283D01*
X179114607Y-65499834D01*
X179150200Y-65678778D01*
X179150200Y-65861222D01*
X179114607Y-66040166D01*
X179044790Y-66208717D01*
X178943427Y-66360418D01*
X178814418Y-66489427D01*
X178662717Y-66590790D01*
X178494166Y-66660607D01*
X178333068Y-66692650D01*
X178315223Y-66696200D01*
X178132777Y-66696200D01*
X178114932Y-66692650D01*
X177953834Y-66660607D01*
X177785283Y-66590790D01*
X177633582Y-66489427D01*
X177504573Y-66360418D01*
X177403210Y-66208717D01*
X177333393Y-66040166D01*
X177297800Y-65861222D01*
X177297800Y-65678778D01*
X177333393Y-65499834D01*
X177403210Y-65331283D01*
X177504573Y-65179582D01*
X177633582Y-65050573D01*
X177785283Y-64949210D01*
X177953834Y-64879393D01*
X178114932Y-64847350D01*
X178132777Y-64843800D01*
X178315223Y-64843800D01*
X178333068Y-64847350D01*
G37*
G36*
X145313068Y-64847350D02*
G01*
X145474166Y-64879393D01*
X145642717Y-64949210D01*
X145794418Y-65050573D01*
X145923427Y-65179582D01*
X146024790Y-65331283D01*
X146094607Y-65499834D01*
X146130200Y-65678778D01*
X146130200Y-65861222D01*
X146094607Y-66040166D01*
X146024790Y-66208717D01*
X145923427Y-66360418D01*
X145794418Y-66489427D01*
X145642717Y-66590790D01*
X145474166Y-66660607D01*
X145313068Y-66692650D01*
X145295223Y-66696200D01*
X145112777Y-66696200D01*
X145094932Y-66692650D01*
X144933834Y-66660607D01*
X144765283Y-66590790D01*
X144613582Y-66489427D01*
X144484573Y-66360418D01*
X144383210Y-66208717D01*
X144313393Y-66040166D01*
X144277800Y-65861222D01*
X144277800Y-65678778D01*
X144313393Y-65499834D01*
X144383210Y-65331283D01*
X144484573Y-65179582D01*
X144613582Y-65050573D01*
X144765283Y-64949210D01*
X144933834Y-64879393D01*
X145094932Y-64847350D01*
X145112777Y-64843800D01*
X145295223Y-64843800D01*
X145313068Y-64847350D01*
G37*
G36*
X175793068Y-64847350D02*
G01*
X175954166Y-64879393D01*
X176122717Y-64949210D01*
X176274418Y-65050573D01*
X176403427Y-65179582D01*
X176504790Y-65331283D01*
X176574607Y-65499834D01*
X176610200Y-65678778D01*
X176610200Y-65861222D01*
X176574607Y-66040166D01*
X176504790Y-66208717D01*
X176403427Y-66360418D01*
X176274418Y-66489427D01*
X176122717Y-66590790D01*
X175954166Y-66660607D01*
X175793068Y-66692650D01*
X175775223Y-66696200D01*
X175592777Y-66696200D01*
X175574932Y-66692650D01*
X175413834Y-66660607D01*
X175245283Y-66590790D01*
X175093582Y-66489427D01*
X174964573Y-66360418D01*
X174863210Y-66208717D01*
X174793393Y-66040166D01*
X174757800Y-65861222D01*
X174757800Y-65678778D01*
X174793393Y-65499834D01*
X174863210Y-65331283D01*
X174964573Y-65179582D01*
X175093582Y-65050573D01*
X175245283Y-64949210D01*
X175413834Y-64879393D01*
X175574932Y-64847350D01*
X175592777Y-64843800D01*
X175775223Y-64843800D01*
X175793068Y-64847350D01*
G37*
G36*
X142773068Y-64847350D02*
G01*
X142934166Y-64879393D01*
X143102717Y-64949210D01*
X143254418Y-65050573D01*
X143383427Y-65179582D01*
X143484790Y-65331283D01*
X143554607Y-65499834D01*
X143590200Y-65678778D01*
X143590200Y-65861222D01*
X143554607Y-66040166D01*
X143484790Y-66208717D01*
X143383427Y-66360418D01*
X143254418Y-66489427D01*
X143102717Y-66590790D01*
X142934166Y-66660607D01*
X142773068Y-66692650D01*
X142755223Y-66696200D01*
X142572777Y-66696200D01*
X142554932Y-66692650D01*
X142393834Y-66660607D01*
X142225283Y-66590790D01*
X142073582Y-66489427D01*
X141944573Y-66360418D01*
X141843210Y-66208717D01*
X141773393Y-66040166D01*
X141737800Y-65861222D01*
X141737800Y-65678778D01*
X141773393Y-65499834D01*
X141843210Y-65331283D01*
X141944573Y-65179582D01*
X142073582Y-65050573D01*
X142225283Y-64949210D01*
X142393834Y-64879393D01*
X142554932Y-64847350D01*
X142572777Y-64843800D01*
X142755223Y-64843800D01*
X142773068Y-64847350D01*
G37*
G36*
X160553068Y-64847350D02*
G01*
X160714166Y-64879393D01*
X160882717Y-64949210D01*
X161034418Y-65050573D01*
X161163427Y-65179582D01*
X161264790Y-65331283D01*
X161334607Y-65499834D01*
X161370200Y-65678778D01*
X161370200Y-65861222D01*
X161334607Y-66040166D01*
X161264790Y-66208717D01*
X161163427Y-66360418D01*
X161034418Y-66489427D01*
X160882717Y-66590790D01*
X160714166Y-66660607D01*
X160553068Y-66692650D01*
X160535223Y-66696200D01*
X160352777Y-66696200D01*
X160334932Y-66692650D01*
X160173834Y-66660607D01*
X160005283Y-66590790D01*
X159853582Y-66489427D01*
X159724573Y-66360418D01*
X159623210Y-66208717D01*
X159553393Y-66040166D01*
X159517800Y-65861222D01*
X159517800Y-65678778D01*
X159553393Y-65499834D01*
X159623210Y-65331283D01*
X159724573Y-65179582D01*
X159853582Y-65050573D01*
X160005283Y-64949210D01*
X160173834Y-64879393D01*
X160334932Y-64847350D01*
X160352777Y-64843800D01*
X160535223Y-64843800D01*
X160553068Y-64847350D01*
G37*
G36*
X140233068Y-64847350D02*
G01*
X140394166Y-64879393D01*
X140562717Y-64949210D01*
X140714418Y-65050573D01*
X140843427Y-65179582D01*
X140944790Y-65331283D01*
X141014607Y-65499834D01*
X141050200Y-65678778D01*
X141050200Y-65861222D01*
X141014607Y-66040166D01*
X140944790Y-66208717D01*
X140843427Y-66360418D01*
X140714418Y-66489427D01*
X140562717Y-66590790D01*
X140394166Y-66660607D01*
X140233068Y-66692650D01*
X140215223Y-66696200D01*
X140032777Y-66696200D01*
X140014932Y-66692650D01*
X139853834Y-66660607D01*
X139685283Y-66590790D01*
X139533582Y-66489427D01*
X139404573Y-66360418D01*
X139303210Y-66208717D01*
X139233393Y-66040166D01*
X139197800Y-65861222D01*
X139197800Y-65678778D01*
X139233393Y-65499834D01*
X139303210Y-65331283D01*
X139404573Y-65179582D01*
X139533582Y-65050573D01*
X139685283Y-64949210D01*
X139853834Y-64879393D01*
X140014932Y-64847350D01*
X140032777Y-64843800D01*
X140215223Y-64843800D01*
X140233068Y-64847350D01*
G37*
G36*
X170713068Y-64847350D02*
G01*
X170874166Y-64879393D01*
X171042717Y-64949210D01*
X171194418Y-65050573D01*
X171323427Y-65179582D01*
X171424790Y-65331283D01*
X171494607Y-65499834D01*
X171530200Y-65678778D01*
X171530200Y-65861222D01*
X171494607Y-66040166D01*
X171424790Y-66208717D01*
X171323427Y-66360418D01*
X171194418Y-66489427D01*
X171042717Y-66590790D01*
X170874166Y-66660607D01*
X170713068Y-66692650D01*
X170695223Y-66696200D01*
X170512777Y-66696200D01*
X170494932Y-66692650D01*
X170333834Y-66660607D01*
X170165283Y-66590790D01*
X170013582Y-66489427D01*
X169884573Y-66360418D01*
X169783210Y-66208717D01*
X169713393Y-66040166D01*
X169677800Y-65861222D01*
X169677800Y-65678778D01*
X169713393Y-65499834D01*
X169783210Y-65331283D01*
X169884573Y-65179582D01*
X170013582Y-65050573D01*
X170165283Y-64949210D01*
X170333834Y-64879393D01*
X170494932Y-64847350D01*
X170512777Y-64843800D01*
X170695223Y-64843800D01*
X170713068Y-64847350D01*
G37*
G36*
X137693068Y-64847350D02*
G01*
X137854166Y-64879393D01*
X138022717Y-64949210D01*
X138174418Y-65050573D01*
X138303427Y-65179582D01*
X138404790Y-65331283D01*
X138474607Y-65499834D01*
X138510200Y-65678778D01*
X138510200Y-65861222D01*
X138474607Y-66040166D01*
X138404790Y-66208717D01*
X138303427Y-66360418D01*
X138174418Y-66489427D01*
X138022717Y-66590790D01*
X137854166Y-66660607D01*
X137693068Y-66692650D01*
X137675223Y-66696200D01*
X137492777Y-66696200D01*
X137474932Y-66692650D01*
X137313834Y-66660607D01*
X137145283Y-66590790D01*
X136993582Y-66489427D01*
X136864573Y-66360418D01*
X136763210Y-66208717D01*
X136693393Y-66040166D01*
X136657800Y-65861222D01*
X136657800Y-65678778D01*
X136693393Y-65499834D01*
X136763210Y-65331283D01*
X136864573Y-65179582D01*
X136993582Y-65050573D01*
X137145283Y-64949210D01*
X137313834Y-64879393D01*
X137474932Y-64847350D01*
X137492777Y-64843800D01*
X137675223Y-64843800D01*
X137693068Y-64847350D01*
G37*
G36*
X168173068Y-64847350D02*
G01*
X168334166Y-64879393D01*
X168502717Y-64949210D01*
X168654418Y-65050573D01*
X168783427Y-65179582D01*
X168884790Y-65331283D01*
X168954607Y-65499834D01*
X168990200Y-65678778D01*
X168990200Y-65861222D01*
X168954607Y-66040166D01*
X168884790Y-66208717D01*
X168783427Y-66360418D01*
X168654418Y-66489427D01*
X168502717Y-66590790D01*
X168334166Y-66660607D01*
X168173068Y-66692650D01*
X168155223Y-66696200D01*
X167972777Y-66696200D01*
X167954932Y-66692650D01*
X167793834Y-66660607D01*
X167625283Y-66590790D01*
X167473582Y-66489427D01*
X167344573Y-66360418D01*
X167243210Y-66208717D01*
X167173393Y-66040166D01*
X167137800Y-65861222D01*
X167137800Y-65678778D01*
X167173393Y-65499834D01*
X167243210Y-65331283D01*
X167344573Y-65179582D01*
X167473582Y-65050573D01*
X167625283Y-64949210D01*
X167793834Y-64879393D01*
X167954932Y-64847350D01*
X167972777Y-64843800D01*
X168155223Y-64843800D01*
X168173068Y-64847350D01*
G37*
G36*
X135153068Y-64847350D02*
G01*
X135314166Y-64879393D01*
X135482717Y-64949210D01*
X135634418Y-65050573D01*
X135763427Y-65179582D01*
X135864790Y-65331283D01*
X135934607Y-65499834D01*
X135970200Y-65678778D01*
X135970200Y-65861222D01*
X135934607Y-66040166D01*
X135864790Y-66208717D01*
X135763427Y-66360418D01*
X135634418Y-66489427D01*
X135482717Y-66590790D01*
X135314166Y-66660607D01*
X135153068Y-66692650D01*
X135135223Y-66696200D01*
X134952777Y-66696200D01*
X134934932Y-66692650D01*
X134773834Y-66660607D01*
X134605283Y-66590790D01*
X134453582Y-66489427D01*
X134324573Y-66360418D01*
X134223210Y-66208717D01*
X134153393Y-66040166D01*
X134117800Y-65861222D01*
X134117800Y-65678778D01*
X134153393Y-65499834D01*
X134223210Y-65331283D01*
X134324573Y-65179582D01*
X134453582Y-65050573D01*
X134605283Y-64949210D01*
X134773834Y-64879393D01*
X134934932Y-64847350D01*
X134952777Y-64843800D01*
X135135223Y-64843800D01*
X135153068Y-64847350D01*
G37*
G36*
X165633068Y-64847350D02*
G01*
X165794166Y-64879393D01*
X165962717Y-64949210D01*
X166114418Y-65050573D01*
X166243427Y-65179582D01*
X166344790Y-65331283D01*
X166414607Y-65499834D01*
X166450200Y-65678778D01*
X166450200Y-65861222D01*
X166414607Y-66040166D01*
X166344790Y-66208717D01*
X166243427Y-66360418D01*
X166114418Y-66489427D01*
X165962717Y-66590790D01*
X165794166Y-66660607D01*
X165633068Y-66692650D01*
X165615223Y-66696200D01*
X165432777Y-66696200D01*
X165414932Y-66692650D01*
X165253834Y-66660607D01*
X165085283Y-66590790D01*
X164933582Y-66489427D01*
X164804573Y-66360418D01*
X164703210Y-66208717D01*
X164633393Y-66040166D01*
X164597800Y-65861222D01*
X164597800Y-65678778D01*
X164633393Y-65499834D01*
X164703210Y-65331283D01*
X164804573Y-65179582D01*
X164933582Y-65050573D01*
X165085283Y-64949210D01*
X165253834Y-64879393D01*
X165414932Y-64847350D01*
X165432777Y-64843800D01*
X165615223Y-64843800D01*
X165633068Y-64847350D01*
G37*
G36*
X132613068Y-64847350D02*
G01*
X132774166Y-64879393D01*
X132942717Y-64949210D01*
X133094418Y-65050573D01*
X133223427Y-65179582D01*
X133324790Y-65331283D01*
X133394607Y-65499834D01*
X133430200Y-65678778D01*
X133430200Y-65861222D01*
X133394607Y-66040166D01*
X133324790Y-66208717D01*
X133223427Y-66360418D01*
X133094418Y-66489427D01*
X132942717Y-66590790D01*
X132774166Y-66660607D01*
X132613068Y-66692650D01*
X132595223Y-66696200D01*
X132412777Y-66696200D01*
X132394932Y-66692650D01*
X132233834Y-66660607D01*
X132065283Y-66590790D01*
X131913582Y-66489427D01*
X131784573Y-66360418D01*
X131683210Y-66208717D01*
X131613393Y-66040166D01*
X131577800Y-65861222D01*
X131577800Y-65678778D01*
X131613393Y-65499834D01*
X131683210Y-65331283D01*
X131784573Y-65179582D01*
X131913582Y-65050573D01*
X132065283Y-64949210D01*
X132233834Y-64879393D01*
X132394932Y-64847350D01*
X132412777Y-64843800D01*
X132595223Y-64843800D01*
X132613068Y-64847350D01*
G37*
G36*
X163093068Y-64847350D02*
G01*
X163254166Y-64879393D01*
X163422717Y-64949210D01*
X163574418Y-65050573D01*
X163703427Y-65179582D01*
X163804790Y-65331283D01*
X163874607Y-65499834D01*
X163910200Y-65678778D01*
X163910200Y-65861222D01*
X163874607Y-66040166D01*
X163804790Y-66208717D01*
X163703427Y-66360418D01*
X163574418Y-66489427D01*
X163422717Y-66590790D01*
X163254166Y-66660607D01*
X163093068Y-66692650D01*
X163075223Y-66696200D01*
X162892777Y-66696200D01*
X162874932Y-66692650D01*
X162713834Y-66660607D01*
X162545283Y-66590790D01*
X162393582Y-66489427D01*
X162264573Y-66360418D01*
X162163210Y-66208717D01*
X162093393Y-66040166D01*
X162057800Y-65861222D01*
X162057800Y-65678778D01*
X162093393Y-65499834D01*
X162163210Y-65331283D01*
X162264573Y-65179582D01*
X162393582Y-65050573D01*
X162545283Y-64949210D01*
X162713834Y-64879393D01*
X162874932Y-64847350D01*
X162892777Y-64843800D01*
X163075223Y-64843800D01*
X163093068Y-64847350D01*
G37*
G36*
X130073068Y-64847350D02*
G01*
X130234166Y-64879393D01*
X130402717Y-64949210D01*
X130554418Y-65050573D01*
X130683427Y-65179582D01*
X130784790Y-65331283D01*
X130854607Y-65499834D01*
X130890200Y-65678778D01*
X130890200Y-65861222D01*
X130854607Y-66040166D01*
X130784790Y-66208717D01*
X130683427Y-66360418D01*
X130554418Y-66489427D01*
X130402717Y-66590790D01*
X130234166Y-66660607D01*
X130073068Y-66692650D01*
X130055223Y-66696200D01*
X129872777Y-66696200D01*
X129854932Y-66692650D01*
X129693834Y-66660607D01*
X129525283Y-66590790D01*
X129373582Y-66489427D01*
X129244573Y-66360418D01*
X129143210Y-66208717D01*
X129073393Y-66040166D01*
X129037800Y-65861222D01*
X129037800Y-65678778D01*
X129073393Y-65499834D01*
X129143210Y-65331283D01*
X129244573Y-65179582D01*
X129373582Y-65050573D01*
X129525283Y-64949210D01*
X129693834Y-64879393D01*
X129854932Y-64847350D01*
X129872777Y-64843800D01*
X130055223Y-64843800D01*
X130073068Y-64847350D01*
G37*
G36*
X155473068Y-64847350D02*
G01*
X155634166Y-64879393D01*
X155802717Y-64949210D01*
X155954418Y-65050573D01*
X156083427Y-65179582D01*
X156184790Y-65331283D01*
X156254607Y-65499834D01*
X156290200Y-65678778D01*
X156290200Y-65861222D01*
X156254607Y-66040166D01*
X156184790Y-66208717D01*
X156083427Y-66360418D01*
X155954418Y-66489427D01*
X155802717Y-66590790D01*
X155634166Y-66660607D01*
X155473068Y-66692650D01*
X155455223Y-66696200D01*
X155272777Y-66696200D01*
X155254932Y-66692650D01*
X155093834Y-66660607D01*
X154925283Y-66590790D01*
X154773582Y-66489427D01*
X154644573Y-66360418D01*
X154543210Y-66208717D01*
X154473393Y-66040166D01*
X154437800Y-65861222D01*
X154437800Y-65678778D01*
X154473393Y-65499834D01*
X154543210Y-65331283D01*
X154644573Y-65179582D01*
X154773582Y-65050573D01*
X154925283Y-64949210D01*
X155093834Y-64879393D01*
X155254932Y-64847350D01*
X155272777Y-64843800D01*
X155455223Y-64843800D01*
X155473068Y-64847350D01*
G37*
G36*
X173253068Y-64847350D02*
G01*
X173414166Y-64879393D01*
X173582717Y-64949210D01*
X173734418Y-65050573D01*
X173863427Y-65179582D01*
X173964790Y-65331283D01*
X174034607Y-65499834D01*
X174070200Y-65678778D01*
X174070200Y-65861222D01*
X174034607Y-66040166D01*
X173964790Y-66208717D01*
X173863427Y-66360418D01*
X173734418Y-66489427D01*
X173582717Y-66590790D01*
X173414166Y-66660607D01*
X173253068Y-66692650D01*
X173235223Y-66696200D01*
X173052777Y-66696200D01*
X173034932Y-66692650D01*
X172873834Y-66660607D01*
X172705283Y-66590790D01*
X172553582Y-66489427D01*
X172424573Y-66360418D01*
X172323210Y-66208717D01*
X172253393Y-66040166D01*
X172217800Y-65861222D01*
X172217800Y-65678778D01*
X172253393Y-65499834D01*
X172323210Y-65331283D01*
X172424573Y-65179582D01*
X172553582Y-65050573D01*
X172705283Y-64949210D01*
X172873834Y-64879393D01*
X173034932Y-64847350D01*
X173052777Y-64843800D01*
X173235223Y-64843800D01*
X173253068Y-64847350D01*
G37*
M02*
