G04 #@! TF.GenerationSoftware,KiCad,Pcbnew,5.1.5+dfsg1-2*
G04 #@! TF.CreationDate,2020-01-01T02:49:50+02:00*
G04 #@! TF.ProjectId,Morfeas_Rpi_Hat,4d6f7266-6561-4735-9f52-70695f486174,V1.0*
G04 #@! TF.SameCoordinates,Original*
G04 #@! TF.FileFunction,Legend,Bot*
G04 #@! TF.FilePolarity,Positive*
%FSLAX46Y46*%
G04 Gerber Fmt 4.6, Leading zero omitted, Abs format (unit mm)*
G04 Created by KiCad (PCBNEW 5.1.5+dfsg1-2) date 2020-01-01 02:49:50*
%MOMM*%
%LPD*%
G04 APERTURE LIST*
%ADD10C,0.120000*%
%ADD11C,0.127000*%
%ADD12C,0.200000*%
%ADD13C,0.152400*%
%ADD14C,0.150000*%
%ADD15C,0.119380*%
%ADD16C,0.250000*%
G04 APERTURE END LIST*
D10*
G04 #@! TO.C,R8*
X154792000Y-91404064D02*
X154792000Y-90199936D01*
X156612000Y-91404064D02*
X156612000Y-90199936D01*
G04 #@! TO.C,R15*
X148808064Y-85746000D02*
X147603936Y-85746000D01*
X148808064Y-83926000D02*
X147603936Y-83926000D01*
G04 #@! TO.C,R14*
X173576064Y-80920000D02*
X172371936Y-80920000D01*
X173576064Y-79100000D02*
X172371936Y-79100000D01*
G04 #@! TO.C,C17*
X152834078Y-85546000D02*
X152316922Y-85546000D01*
X152834078Y-84126000D02*
X152316922Y-84126000D01*
G04 #@! TO.C,C16*
X177804578Y-80720000D02*
X177287422Y-80720000D01*
X177804578Y-79300000D02*
X177287422Y-79300000D01*
D11*
G04 #@! TO.C,D5*
X171353963Y-110235523D02*
X171353963Y-109600523D01*
X166781963Y-113410523D02*
X166781963Y-112775523D01*
X171353963Y-113410523D02*
X166781963Y-113410523D01*
X171353963Y-112775523D02*
X171353963Y-113410523D01*
X168077363Y-113410523D02*
X168077363Y-109600523D01*
X168407563Y-113410523D02*
X168407563Y-109600523D01*
X166781963Y-109600523D02*
X166781963Y-110235523D01*
X171353963Y-109600523D02*
X166781963Y-109600523D01*
D10*
G04 #@! TO.C,R13*
X142642000Y-103292064D02*
X142642000Y-102087936D01*
X140822000Y-103292064D02*
X140822000Y-102087936D01*
G04 #@! TO.C,R12*
X137582064Y-81682000D02*
X136377936Y-81682000D01*
X137582064Y-79862000D02*
X136377936Y-79862000D01*
G04 #@! TO.C,C15*
X142442000Y-86364578D02*
X142442000Y-85847422D01*
X141022000Y-86364578D02*
X141022000Y-85847422D01*
G04 #@! TO.C,R11*
X182986000Y-90075936D02*
X182986000Y-91280064D01*
X184806000Y-90075936D02*
X184806000Y-91280064D01*
G04 #@! TO.C,R10*
X152370064Y-74528000D02*
X151165936Y-74528000D01*
X152370064Y-76348000D02*
X151165936Y-76348000D01*
G04 #@! TO.C,R9*
X176500064Y-74528000D02*
X175295936Y-74528000D01*
X176500064Y-76348000D02*
X175295936Y-76348000D01*
G04 #@! TO.C,R7*
X178964000Y-87157936D02*
X178964000Y-88362064D01*
X177144000Y-87157936D02*
X177144000Y-88362064D01*
G04 #@! TO.C,R6*
X160126000Y-98262064D02*
X160126000Y-97057936D01*
X161946000Y-98262064D02*
X161946000Y-97057936D01*
G04 #@! TO.C,R4*
X159660000Y-101824064D02*
X159660000Y-100619936D01*
X157840000Y-101824064D02*
X157840000Y-100619936D01*
G04 #@! TO.C,C14*
X148165078Y-97842000D02*
X147647922Y-97842000D01*
X148165078Y-99262000D02*
X147647922Y-99262000D01*
G04 #@! TO.C,C13*
X168708000Y-96349078D02*
X168708000Y-95831922D01*
X170128000Y-96349078D02*
X170128000Y-95831922D01*
G04 #@! TO.C,C12*
X161746000Y-102034078D02*
X161746000Y-101516922D01*
X160326000Y-102034078D02*
X160326000Y-101516922D01*
G04 #@! TO.C,C9*
X138632000Y-108892078D02*
X138632000Y-108374922D01*
X137212000Y-108892078D02*
X137212000Y-108374922D01*
G04 #@! TO.C,C3*
X157840000Y-73624064D02*
X157840000Y-72419936D01*
X159660000Y-73624064D02*
X159660000Y-72419936D01*
G04 #@! TO.C,C2*
X165702064Y-78380000D02*
X164497936Y-78380000D01*
X165702064Y-76560000D02*
X164497936Y-76560000D01*
G04 #@! TO.C,C1*
X165135936Y-92096000D02*
X166340064Y-92096000D01*
X165135936Y-90276000D02*
X166340064Y-90276000D01*
D12*
G04 #@! TO.C,U1*
X141044000Y-83230000D02*
G75*
G03X141044000Y-83230000I-100000J0D01*
G01*
D11*
X138039000Y-83015000D02*
X130439000Y-83015000D01*
X138039000Y-93515000D02*
X130439000Y-93515000D01*
D10*
G04 #@! TO.C,J2*
X128634000Y-68310000D02*
X128634000Y-69640000D01*
X128634000Y-69640000D02*
X129964000Y-69640000D01*
X128634000Y-67040000D02*
X131234000Y-67040000D01*
X131234000Y-67040000D02*
X131234000Y-69640000D01*
X131234000Y-69640000D02*
X179554000Y-69640000D01*
X179554000Y-64440000D02*
X179554000Y-69640000D01*
X128634000Y-64440000D02*
X179554000Y-64440000D01*
X128634000Y-64440000D02*
X128634000Y-67040000D01*
D13*
G04 #@! TO.C,U6*
X172593000Y-97684000D02*
X175895000Y-97684000D01*
X175895000Y-100986000D02*
X172593000Y-100986000D01*
G04 #@! TO.C,U7*
X151638000Y-97684000D02*
X154940000Y-97684000D01*
X154940000Y-100986000D02*
X151638000Y-100986000D01*
D10*
G04 #@! TO.C,L1*
X163652000Y-84613369D02*
X163652000Y-83018631D01*
X168072000Y-84613369D02*
X168072000Y-83018631D01*
D11*
G04 #@! TO.C,D1*
X165608000Y-98684080D02*
X166243000Y-98684080D01*
X162433000Y-94112080D02*
X163068000Y-94112080D01*
X162433000Y-98684080D02*
X162433000Y-94112080D01*
X163068000Y-98684080D02*
X162433000Y-98684080D01*
X162433000Y-95407480D02*
X166243000Y-95407480D01*
X162433000Y-95737680D02*
X166243000Y-95737680D01*
X166243000Y-94112080D02*
X165608000Y-94112080D01*
X166243000Y-98684080D02*
X166243000Y-94112080D01*
G04 #@! TO.C,R8*
D14*
X157974380Y-90635333D02*
X157498190Y-90302000D01*
X157974380Y-90063904D02*
X156974380Y-90063904D01*
X156974380Y-90444857D01*
X157022000Y-90540095D01*
X157069619Y-90587714D01*
X157164857Y-90635333D01*
X157307714Y-90635333D01*
X157402952Y-90587714D01*
X157450571Y-90540095D01*
X157498190Y-90444857D01*
X157498190Y-90063904D01*
X157402952Y-91206761D02*
X157355333Y-91111523D01*
X157307714Y-91063904D01*
X157212476Y-91016285D01*
X157164857Y-91016285D01*
X157069619Y-91063904D01*
X157022000Y-91111523D01*
X156974380Y-91206761D01*
X156974380Y-91397238D01*
X157022000Y-91492476D01*
X157069619Y-91540095D01*
X157164857Y-91587714D01*
X157212476Y-91587714D01*
X157307714Y-91540095D01*
X157355333Y-91492476D01*
X157402952Y-91397238D01*
X157402952Y-91206761D01*
X157450571Y-91111523D01*
X157498190Y-91063904D01*
X157593428Y-91016285D01*
X157783904Y-91016285D01*
X157879142Y-91063904D01*
X157926761Y-91111523D01*
X157974380Y-91206761D01*
X157974380Y-91397238D01*
X157926761Y-91492476D01*
X157879142Y-91540095D01*
X157783904Y-91587714D01*
X157593428Y-91587714D01*
X157498190Y-91540095D01*
X157450571Y-91492476D01*
X157402952Y-91397238D01*
G04 #@! TO.C,R15*
X148848857Y-87320380D02*
X149182190Y-86844190D01*
X149420285Y-87320380D02*
X149420285Y-86320380D01*
X149039333Y-86320380D01*
X148944095Y-86368000D01*
X148896476Y-86415619D01*
X148848857Y-86510857D01*
X148848857Y-86653714D01*
X148896476Y-86748952D01*
X148944095Y-86796571D01*
X149039333Y-86844190D01*
X149420285Y-86844190D01*
X147896476Y-87320380D02*
X148467904Y-87320380D01*
X148182190Y-87320380D02*
X148182190Y-86320380D01*
X148277428Y-86463238D01*
X148372666Y-86558476D01*
X148467904Y-86606095D01*
X146991714Y-86320380D02*
X147467904Y-86320380D01*
X147515523Y-86796571D01*
X147467904Y-86748952D01*
X147372666Y-86701333D01*
X147134571Y-86701333D01*
X147039333Y-86748952D01*
X146991714Y-86796571D01*
X146944095Y-86891809D01*
X146944095Y-87129904D01*
X146991714Y-87225142D01*
X147039333Y-87272761D01*
X147134571Y-87320380D01*
X147372666Y-87320380D01*
X147467904Y-87272761D01*
X147515523Y-87225142D01*
G04 #@! TO.C,R14*
X173616857Y-78642380D02*
X173950190Y-78166190D01*
X174188285Y-78642380D02*
X174188285Y-77642380D01*
X173807333Y-77642380D01*
X173712095Y-77690000D01*
X173664476Y-77737619D01*
X173616857Y-77832857D01*
X173616857Y-77975714D01*
X173664476Y-78070952D01*
X173712095Y-78118571D01*
X173807333Y-78166190D01*
X174188285Y-78166190D01*
X172664476Y-78642380D02*
X173235904Y-78642380D01*
X172950190Y-78642380D02*
X172950190Y-77642380D01*
X173045428Y-77785238D01*
X173140666Y-77880476D01*
X173235904Y-77928095D01*
X171807333Y-77975714D02*
X171807333Y-78642380D01*
X172045428Y-77594761D02*
X172283523Y-78309047D01*
X171664476Y-78309047D01*
G04 #@! TO.C,C17*
X153218357Y-83543142D02*
X153265976Y-83590761D01*
X153408833Y-83638380D01*
X153504071Y-83638380D01*
X153646928Y-83590761D01*
X153742166Y-83495523D01*
X153789785Y-83400285D01*
X153837404Y-83209809D01*
X153837404Y-83066952D01*
X153789785Y-82876476D01*
X153742166Y-82781238D01*
X153646928Y-82686000D01*
X153504071Y-82638380D01*
X153408833Y-82638380D01*
X153265976Y-82686000D01*
X153218357Y-82733619D01*
X152265976Y-83638380D02*
X152837404Y-83638380D01*
X152551690Y-83638380D02*
X152551690Y-82638380D01*
X152646928Y-82781238D01*
X152742166Y-82876476D01*
X152837404Y-82924095D01*
X151932642Y-82638380D02*
X151265976Y-82638380D01*
X151694547Y-83638380D01*
G04 #@! TO.C,C16*
X178188857Y-78717142D02*
X178236476Y-78764761D01*
X178379333Y-78812380D01*
X178474571Y-78812380D01*
X178617428Y-78764761D01*
X178712666Y-78669523D01*
X178760285Y-78574285D01*
X178807904Y-78383809D01*
X178807904Y-78240952D01*
X178760285Y-78050476D01*
X178712666Y-77955238D01*
X178617428Y-77860000D01*
X178474571Y-77812380D01*
X178379333Y-77812380D01*
X178236476Y-77860000D01*
X178188857Y-77907619D01*
X177236476Y-78812380D02*
X177807904Y-78812380D01*
X177522190Y-78812380D02*
X177522190Y-77812380D01*
X177617428Y-77955238D01*
X177712666Y-78050476D01*
X177807904Y-78098095D01*
X176379333Y-77812380D02*
X176569809Y-77812380D01*
X176665047Y-77860000D01*
X176712666Y-77907619D01*
X176807904Y-78050476D01*
X176855523Y-78240952D01*
X176855523Y-78621904D01*
X176807904Y-78717142D01*
X176760285Y-78764761D01*
X176665047Y-78812380D01*
X176474571Y-78812380D01*
X176379333Y-78764761D01*
X176331714Y-78717142D01*
X176284095Y-78621904D01*
X176284095Y-78383809D01*
X176331714Y-78288571D01*
X176379333Y-78240952D01*
X176474571Y-78193333D01*
X176665047Y-78193333D01*
X176760285Y-78240952D01*
X176807904Y-78288571D01*
X176855523Y-78383809D01*
G04 #@! TO.C,D5*
D15*
X172267275Y-112244656D02*
X173268035Y-112244656D01*
X173268035Y-112006380D01*
X173220380Y-111863414D01*
X173125069Y-111768103D01*
X173029759Y-111720448D01*
X172839138Y-111672793D01*
X172696172Y-111672793D01*
X172505551Y-111720448D01*
X172410240Y-111768103D01*
X172314930Y-111863414D01*
X172267275Y-112006380D01*
X172267275Y-112244656D01*
X173268035Y-110767343D02*
X173268035Y-111243896D01*
X172791482Y-111291551D01*
X172839138Y-111243896D01*
X172886793Y-111148585D01*
X172886793Y-110910309D01*
X172839138Y-110814999D01*
X172791482Y-110767343D01*
X172696172Y-110719688D01*
X172457896Y-110719688D01*
X172362585Y-110767343D01*
X172314930Y-110814999D01*
X172267275Y-110910309D01*
X172267275Y-111148585D01*
X172314930Y-111243896D01*
X172362585Y-111291551D01*
G04 #@! TO.C,R13*
D14*
X144004380Y-101211142D02*
X143528190Y-100877809D01*
X144004380Y-100639714D02*
X143004380Y-100639714D01*
X143004380Y-101020666D01*
X143052000Y-101115904D01*
X143099619Y-101163523D01*
X143194857Y-101211142D01*
X143337714Y-101211142D01*
X143432952Y-101163523D01*
X143480571Y-101115904D01*
X143528190Y-101020666D01*
X143528190Y-100639714D01*
X144004380Y-102163523D02*
X144004380Y-101592095D01*
X144004380Y-101877809D02*
X143004380Y-101877809D01*
X143147238Y-101782571D01*
X143242476Y-101687333D01*
X143290095Y-101592095D01*
X143004380Y-102496857D02*
X143004380Y-103115904D01*
X143385333Y-102782571D01*
X143385333Y-102925428D01*
X143432952Y-103020666D01*
X143480571Y-103068285D01*
X143575809Y-103115904D01*
X143813904Y-103115904D01*
X143909142Y-103068285D01*
X143956761Y-103020666D01*
X144004380Y-102925428D01*
X144004380Y-102639714D01*
X143956761Y-102544476D01*
X143909142Y-102496857D01*
G04 #@! TO.C,R12*
X137622857Y-79404380D02*
X137956190Y-78928190D01*
X138194285Y-79404380D02*
X138194285Y-78404380D01*
X137813333Y-78404380D01*
X137718095Y-78452000D01*
X137670476Y-78499619D01*
X137622857Y-78594857D01*
X137622857Y-78737714D01*
X137670476Y-78832952D01*
X137718095Y-78880571D01*
X137813333Y-78928190D01*
X138194285Y-78928190D01*
X136670476Y-79404380D02*
X137241904Y-79404380D01*
X136956190Y-79404380D02*
X136956190Y-78404380D01*
X137051428Y-78547238D01*
X137146666Y-78642476D01*
X137241904Y-78690095D01*
X136289523Y-78499619D02*
X136241904Y-78452000D01*
X136146666Y-78404380D01*
X135908571Y-78404380D01*
X135813333Y-78452000D01*
X135765714Y-78499619D01*
X135718095Y-78594857D01*
X135718095Y-78690095D01*
X135765714Y-78832952D01*
X136337142Y-79404380D01*
X135718095Y-79404380D01*
G04 #@! TO.C,C15*
X143739142Y-85463142D02*
X143786761Y-85415523D01*
X143834380Y-85272666D01*
X143834380Y-85177428D01*
X143786761Y-85034571D01*
X143691523Y-84939333D01*
X143596285Y-84891714D01*
X143405809Y-84844095D01*
X143262952Y-84844095D01*
X143072476Y-84891714D01*
X142977238Y-84939333D01*
X142882000Y-85034571D01*
X142834380Y-85177428D01*
X142834380Y-85272666D01*
X142882000Y-85415523D01*
X142929619Y-85463142D01*
X143834380Y-86415523D02*
X143834380Y-85844095D01*
X143834380Y-86129809D02*
X142834380Y-86129809D01*
X142977238Y-86034571D01*
X143072476Y-85939333D01*
X143120095Y-85844095D01*
X142834380Y-87320285D02*
X142834380Y-86844095D01*
X143310571Y-86796476D01*
X143262952Y-86844095D01*
X143215333Y-86939333D01*
X143215333Y-87177428D01*
X143262952Y-87272666D01*
X143310571Y-87320285D01*
X143405809Y-87367904D01*
X143643904Y-87367904D01*
X143739142Y-87320285D01*
X143786761Y-87272666D01*
X143834380Y-87177428D01*
X143834380Y-86939333D01*
X143786761Y-86844095D01*
X143739142Y-86796476D01*
G04 #@! TO.C,R11*
X184538857Y-94178380D02*
X184872190Y-93702190D01*
X185110285Y-94178380D02*
X185110285Y-93178380D01*
X184729333Y-93178380D01*
X184634095Y-93226000D01*
X184586476Y-93273619D01*
X184538857Y-93368857D01*
X184538857Y-93511714D01*
X184586476Y-93606952D01*
X184634095Y-93654571D01*
X184729333Y-93702190D01*
X185110285Y-93702190D01*
X183586476Y-94178380D02*
X184157904Y-94178380D01*
X183872190Y-94178380D02*
X183872190Y-93178380D01*
X183967428Y-93321238D01*
X184062666Y-93416476D01*
X184157904Y-93464095D01*
X182634095Y-94178380D02*
X183205523Y-94178380D01*
X182919809Y-94178380D02*
X182919809Y-93178380D01*
X183015047Y-93321238D01*
X183110285Y-93416476D01*
X183205523Y-93464095D01*
G04 #@! TO.C,R10*
X152410857Y-74070380D02*
X152744190Y-73594190D01*
X152982285Y-74070380D02*
X152982285Y-73070380D01*
X152601333Y-73070380D01*
X152506095Y-73118000D01*
X152458476Y-73165619D01*
X152410857Y-73260857D01*
X152410857Y-73403714D01*
X152458476Y-73498952D01*
X152506095Y-73546571D01*
X152601333Y-73594190D01*
X152982285Y-73594190D01*
X151458476Y-74070380D02*
X152029904Y-74070380D01*
X151744190Y-74070380D02*
X151744190Y-73070380D01*
X151839428Y-73213238D01*
X151934666Y-73308476D01*
X152029904Y-73356095D01*
X150839428Y-73070380D02*
X150744190Y-73070380D01*
X150648952Y-73118000D01*
X150601333Y-73165619D01*
X150553714Y-73260857D01*
X150506095Y-73451333D01*
X150506095Y-73689428D01*
X150553714Y-73879904D01*
X150601333Y-73975142D01*
X150648952Y-74022761D01*
X150744190Y-74070380D01*
X150839428Y-74070380D01*
X150934666Y-74022761D01*
X150982285Y-73975142D01*
X151029904Y-73879904D01*
X151077523Y-73689428D01*
X151077523Y-73451333D01*
X151029904Y-73260857D01*
X150982285Y-73165619D01*
X150934666Y-73118000D01*
X150839428Y-73070380D01*
G04 #@! TO.C,R9*
X176064666Y-74070380D02*
X176398000Y-73594190D01*
X176636095Y-74070380D02*
X176636095Y-73070380D01*
X176255142Y-73070380D01*
X176159904Y-73118000D01*
X176112285Y-73165619D01*
X176064666Y-73260857D01*
X176064666Y-73403714D01*
X176112285Y-73498952D01*
X176159904Y-73546571D01*
X176255142Y-73594190D01*
X176636095Y-73594190D01*
X175588476Y-74070380D02*
X175398000Y-74070380D01*
X175302761Y-74022761D01*
X175255142Y-73975142D01*
X175159904Y-73832285D01*
X175112285Y-73641809D01*
X175112285Y-73260857D01*
X175159904Y-73165619D01*
X175207523Y-73118000D01*
X175302761Y-73070380D01*
X175493238Y-73070380D01*
X175588476Y-73118000D01*
X175636095Y-73165619D01*
X175683714Y-73260857D01*
X175683714Y-73498952D01*
X175636095Y-73594190D01*
X175588476Y-73641809D01*
X175493238Y-73689428D01*
X175302761Y-73689428D01*
X175207523Y-73641809D01*
X175159904Y-73594190D01*
X175112285Y-73498952D01*
G04 #@! TO.C,R7*
X176686380Y-87593333D02*
X176210190Y-87260000D01*
X176686380Y-87021904D02*
X175686380Y-87021904D01*
X175686380Y-87402857D01*
X175734000Y-87498095D01*
X175781619Y-87545714D01*
X175876857Y-87593333D01*
X176019714Y-87593333D01*
X176114952Y-87545714D01*
X176162571Y-87498095D01*
X176210190Y-87402857D01*
X176210190Y-87021904D01*
X175686380Y-87926666D02*
X175686380Y-88593333D01*
X176686380Y-88164761D01*
G04 #@! TO.C,R6*
X161202666Y-95194380D02*
X161536000Y-94718190D01*
X161774095Y-95194380D02*
X161774095Y-94194380D01*
X161393142Y-94194380D01*
X161297904Y-94242000D01*
X161250285Y-94289619D01*
X161202666Y-94384857D01*
X161202666Y-94527714D01*
X161250285Y-94622952D01*
X161297904Y-94670571D01*
X161393142Y-94718190D01*
X161774095Y-94718190D01*
X160345523Y-94194380D02*
X160536000Y-94194380D01*
X160631238Y-94242000D01*
X160678857Y-94289619D01*
X160774095Y-94432476D01*
X160821714Y-94622952D01*
X160821714Y-95003904D01*
X160774095Y-95099142D01*
X160726476Y-95146761D01*
X160631238Y-95194380D01*
X160440761Y-95194380D01*
X160345523Y-95146761D01*
X160297904Y-95099142D01*
X160250285Y-95003904D01*
X160250285Y-94765809D01*
X160297904Y-94670571D01*
X160345523Y-94622952D01*
X160440761Y-94575333D01*
X160631238Y-94575333D01*
X160726476Y-94622952D01*
X160774095Y-94670571D01*
X160821714Y-94765809D01*
G04 #@! TO.C,R4*
X158662666Y-104846380D02*
X158996000Y-104370190D01*
X159234095Y-104846380D02*
X159234095Y-103846380D01*
X158853142Y-103846380D01*
X158757904Y-103894000D01*
X158710285Y-103941619D01*
X158662666Y-104036857D01*
X158662666Y-104179714D01*
X158710285Y-104274952D01*
X158757904Y-104322571D01*
X158853142Y-104370190D01*
X159234095Y-104370190D01*
X157805523Y-104179714D02*
X157805523Y-104846380D01*
X158043619Y-103798761D02*
X158281714Y-104513047D01*
X157662666Y-104513047D01*
G04 #@! TO.C,C14*
X148549357Y-100687142D02*
X148596976Y-100734761D01*
X148739833Y-100782380D01*
X148835071Y-100782380D01*
X148977928Y-100734761D01*
X149073166Y-100639523D01*
X149120785Y-100544285D01*
X149168404Y-100353809D01*
X149168404Y-100210952D01*
X149120785Y-100020476D01*
X149073166Y-99925238D01*
X148977928Y-99830000D01*
X148835071Y-99782380D01*
X148739833Y-99782380D01*
X148596976Y-99830000D01*
X148549357Y-99877619D01*
X147596976Y-100782380D02*
X148168404Y-100782380D01*
X147882690Y-100782380D02*
X147882690Y-99782380D01*
X147977928Y-99925238D01*
X148073166Y-100020476D01*
X148168404Y-100068095D01*
X146739833Y-100115714D02*
X146739833Y-100782380D01*
X146977928Y-99734761D02*
X147216023Y-100449047D01*
X146596976Y-100449047D01*
G04 #@! TO.C,C13*
X167997142Y-95369142D02*
X168044761Y-95321523D01*
X168092380Y-95178666D01*
X168092380Y-95083428D01*
X168044761Y-94940571D01*
X167949523Y-94845333D01*
X167854285Y-94797714D01*
X167663809Y-94750095D01*
X167520952Y-94750095D01*
X167330476Y-94797714D01*
X167235238Y-94845333D01*
X167140000Y-94940571D01*
X167092380Y-95083428D01*
X167092380Y-95178666D01*
X167140000Y-95321523D01*
X167187619Y-95369142D01*
X168092380Y-96321523D02*
X168092380Y-95750095D01*
X168092380Y-96035809D02*
X167092380Y-96035809D01*
X167235238Y-95940571D01*
X167330476Y-95845333D01*
X167378095Y-95750095D01*
X167092380Y-96654857D02*
X167092380Y-97273904D01*
X167473333Y-96940571D01*
X167473333Y-97083428D01*
X167520952Y-97178666D01*
X167568571Y-97226285D01*
X167663809Y-97273904D01*
X167901904Y-97273904D01*
X167997142Y-97226285D01*
X168044761Y-97178666D01*
X168092380Y-97083428D01*
X168092380Y-96797714D01*
X168044761Y-96702476D01*
X167997142Y-96654857D01*
G04 #@! TO.C,C12*
X162186857Y-104751142D02*
X162234476Y-104798761D01*
X162377333Y-104846380D01*
X162472571Y-104846380D01*
X162615428Y-104798761D01*
X162710666Y-104703523D01*
X162758285Y-104608285D01*
X162805904Y-104417809D01*
X162805904Y-104274952D01*
X162758285Y-104084476D01*
X162710666Y-103989238D01*
X162615428Y-103894000D01*
X162472571Y-103846380D01*
X162377333Y-103846380D01*
X162234476Y-103894000D01*
X162186857Y-103941619D01*
X161234476Y-104846380D02*
X161805904Y-104846380D01*
X161520190Y-104846380D02*
X161520190Y-103846380D01*
X161615428Y-103989238D01*
X161710666Y-104084476D01*
X161805904Y-104132095D01*
X160853523Y-103941619D02*
X160805904Y-103894000D01*
X160710666Y-103846380D01*
X160472571Y-103846380D01*
X160377333Y-103894000D01*
X160329714Y-103941619D01*
X160282095Y-104036857D01*
X160282095Y-104132095D01*
X160329714Y-104274952D01*
X160901142Y-104846380D01*
X160282095Y-104846380D01*
G04 #@! TO.C,C9*
X138088666Y-111355142D02*
X138136285Y-111402761D01*
X138279142Y-111450380D01*
X138374380Y-111450380D01*
X138517238Y-111402761D01*
X138612476Y-111307523D01*
X138660095Y-111212285D01*
X138707714Y-111021809D01*
X138707714Y-110878952D01*
X138660095Y-110688476D01*
X138612476Y-110593238D01*
X138517238Y-110498000D01*
X138374380Y-110450380D01*
X138279142Y-110450380D01*
X138136285Y-110498000D01*
X138088666Y-110545619D01*
X137612476Y-111450380D02*
X137422000Y-111450380D01*
X137326761Y-111402761D01*
X137279142Y-111355142D01*
X137183904Y-111212285D01*
X137136285Y-111021809D01*
X137136285Y-110640857D01*
X137183904Y-110545619D01*
X137231523Y-110498000D01*
X137326761Y-110450380D01*
X137517238Y-110450380D01*
X137612476Y-110498000D01*
X137660095Y-110545619D01*
X137707714Y-110640857D01*
X137707714Y-110878952D01*
X137660095Y-110974190D01*
X137612476Y-111021809D01*
X137517238Y-111069428D01*
X137326761Y-111069428D01*
X137231523Y-111021809D01*
X137183904Y-110974190D01*
X137136285Y-110878952D01*
G04 #@! TO.C,C3*
X161202666Y-72239142D02*
X161250285Y-72286761D01*
X161393142Y-72334380D01*
X161488380Y-72334380D01*
X161631238Y-72286761D01*
X161726476Y-72191523D01*
X161774095Y-72096285D01*
X161821714Y-71905809D01*
X161821714Y-71762952D01*
X161774095Y-71572476D01*
X161726476Y-71477238D01*
X161631238Y-71382000D01*
X161488380Y-71334380D01*
X161393142Y-71334380D01*
X161250285Y-71382000D01*
X161202666Y-71429619D01*
X160869333Y-71334380D02*
X160250285Y-71334380D01*
X160583619Y-71715333D01*
X160440761Y-71715333D01*
X160345523Y-71762952D01*
X160297904Y-71810571D01*
X160250285Y-71905809D01*
X160250285Y-72143904D01*
X160297904Y-72239142D01*
X160345523Y-72286761D01*
X160440761Y-72334380D01*
X160726476Y-72334380D01*
X160821714Y-72286761D01*
X160869333Y-72239142D01*
G04 #@! TO.C,C2*
X168505142Y-77303333D02*
X168552761Y-77255714D01*
X168600380Y-77112857D01*
X168600380Y-77017619D01*
X168552761Y-76874761D01*
X168457523Y-76779523D01*
X168362285Y-76731904D01*
X168171809Y-76684285D01*
X168028952Y-76684285D01*
X167838476Y-76731904D01*
X167743238Y-76779523D01*
X167648000Y-76874761D01*
X167600380Y-77017619D01*
X167600380Y-77112857D01*
X167648000Y-77255714D01*
X167695619Y-77303333D01*
X167695619Y-77684285D02*
X167648000Y-77731904D01*
X167600380Y-77827142D01*
X167600380Y-78065238D01*
X167648000Y-78160476D01*
X167695619Y-78208095D01*
X167790857Y-78255714D01*
X167886095Y-78255714D01*
X168028952Y-78208095D01*
X168600380Y-77636666D01*
X168600380Y-78255714D01*
G04 #@! TO.C,C1*
X163047142Y-91019333D02*
X163094761Y-90971714D01*
X163142380Y-90828857D01*
X163142380Y-90733619D01*
X163094761Y-90590761D01*
X162999523Y-90495523D01*
X162904285Y-90447904D01*
X162713809Y-90400285D01*
X162570952Y-90400285D01*
X162380476Y-90447904D01*
X162285238Y-90495523D01*
X162190000Y-90590761D01*
X162142380Y-90733619D01*
X162142380Y-90828857D01*
X162190000Y-90971714D01*
X162237619Y-91019333D01*
X163142380Y-91971714D02*
X163142380Y-91400285D01*
X163142380Y-91686000D02*
X162142380Y-91686000D01*
X162285238Y-91590761D01*
X162380476Y-91495523D01*
X162428095Y-91400285D01*
G04 #@! TO.C,U1*
D16*
X132346095Y-81646619D02*
X132346095Y-82469095D01*
X132297714Y-82565857D01*
X132249333Y-82614238D01*
X132152571Y-82662619D01*
X131959047Y-82662619D01*
X131862285Y-82614238D01*
X131813904Y-82565857D01*
X131765523Y-82469095D01*
X131765523Y-81646619D01*
X130749523Y-82662619D02*
X131330095Y-82662619D01*
X131039809Y-82662619D02*
X131039809Y-81646619D01*
X131136571Y-81791761D01*
X131233333Y-81888523D01*
X131330095Y-81936904D01*
G04 #@! TO.C,J2*
D14*
X130427333Y-70492380D02*
X130427333Y-71206666D01*
X130474952Y-71349523D01*
X130570190Y-71444761D01*
X130713047Y-71492380D01*
X130808285Y-71492380D01*
X129998761Y-70587619D02*
X129951142Y-70540000D01*
X129855904Y-70492380D01*
X129617809Y-70492380D01*
X129522571Y-70540000D01*
X129474952Y-70587619D01*
X129427333Y-70682857D01*
X129427333Y-70778095D01*
X129474952Y-70920952D01*
X130046380Y-71492380D01*
X129427333Y-71492380D01*
G04 #@! TO.C,U6*
X175005904Y-96247380D02*
X175005904Y-97056904D01*
X174958285Y-97152142D01*
X174910666Y-97199761D01*
X174815428Y-97247380D01*
X174624952Y-97247380D01*
X174529714Y-97199761D01*
X174482095Y-97152142D01*
X174434476Y-97056904D01*
X174434476Y-96247380D01*
X173529714Y-96247380D02*
X173720190Y-96247380D01*
X173815428Y-96295000D01*
X173863047Y-96342619D01*
X173958285Y-96485476D01*
X174005904Y-96675952D01*
X174005904Y-97056904D01*
X173958285Y-97152142D01*
X173910666Y-97199761D01*
X173815428Y-97247380D01*
X173624952Y-97247380D01*
X173529714Y-97199761D01*
X173482095Y-97152142D01*
X173434476Y-97056904D01*
X173434476Y-96818809D01*
X173482095Y-96723571D01*
X173529714Y-96675952D01*
X173624952Y-96628333D01*
X173815428Y-96628333D01*
X173910666Y-96675952D01*
X173958285Y-96723571D01*
X174005904Y-96818809D01*
X176669700Y-97242380D02*
X176669700Y-97480476D01*
X176907795Y-97385238D02*
X176669700Y-97480476D01*
X176431604Y-97385238D01*
X176812557Y-97670952D02*
X176669700Y-97480476D01*
X176526842Y-97670952D01*
X176669700Y-97242380D02*
X176669700Y-97480476D01*
X176907795Y-97385238D02*
X176669700Y-97480476D01*
X176431604Y-97385238D01*
X176812557Y-97670952D02*
X176669700Y-97480476D01*
X176526842Y-97670952D01*
G04 #@! TO.C,U7*
X154050904Y-96247380D02*
X154050904Y-97056904D01*
X154003285Y-97152142D01*
X153955666Y-97199761D01*
X153860428Y-97247380D01*
X153669952Y-97247380D01*
X153574714Y-97199761D01*
X153527095Y-97152142D01*
X153479476Y-97056904D01*
X153479476Y-96247380D01*
X153098523Y-96247380D02*
X152431857Y-96247380D01*
X152860428Y-97247380D01*
X155956000Y-97242380D02*
X155956000Y-97480476D01*
X156194095Y-97385238D02*
X155956000Y-97480476D01*
X155717904Y-97385238D01*
X156098857Y-97670952D02*
X155956000Y-97480476D01*
X155813142Y-97670952D01*
X155956000Y-97242380D02*
X155956000Y-97480476D01*
X156194095Y-97385238D02*
X155956000Y-97480476D01*
X155717904Y-97385238D01*
X156098857Y-97670952D02*
X155956000Y-97480476D01*
X155813142Y-97670952D01*
G04 #@! TO.C,L1*
X169494380Y-83649333D02*
X169494380Y-83173142D01*
X168494380Y-83173142D01*
X169494380Y-84506476D02*
X169494380Y-83935047D01*
X169494380Y-84220761D02*
X168494380Y-84220761D01*
X168637238Y-84125523D01*
X168732476Y-84030285D01*
X168780095Y-83935047D01*
G04 #@! TO.C,D1*
D15*
X165076656Y-100528724D02*
X165076656Y-99527964D01*
X164838380Y-99527964D01*
X164695414Y-99575620D01*
X164600103Y-99670930D01*
X164552448Y-99766240D01*
X164504793Y-99956861D01*
X164504793Y-100099827D01*
X164552448Y-100290448D01*
X164600103Y-100385759D01*
X164695414Y-100481069D01*
X164838380Y-100528724D01*
X165076656Y-100528724D01*
X163551688Y-100528724D02*
X164123551Y-100528724D01*
X163837620Y-100528724D02*
X163837620Y-99527964D01*
X163932930Y-99670930D01*
X164028240Y-99766240D01*
X164123551Y-99813896D01*
G04 #@! TD*
M02*
