G04 #@! TF.GenerationSoftware,KiCad,Pcbnew,5.1.5+dfsg1-2*
G04 #@! TF.CreationDate,2020-01-01T01:59:47+02:00*
G04 #@! TF.ProjectId,Morfeas_Rpi_Hat,4d6f7266-6561-4735-9f52-70695f486174,V1.0*
G04 #@! TF.SameCoordinates,Original*
G04 #@! TF.FileFunction,Soldermask,Top*
G04 #@! TF.FilePolarity,Negative*
%FSLAX46Y46*%
G04 Gerber Fmt 4.6, Leading zero omitted, Abs format (unit mm)*
G04 Created by KiCad (PCBNEW 5.1.5+dfsg1-2) date 2020-01-01 01:59:47*
%MOMM*%
%LPD*%
G04 APERTURE LIST*
%ADD10C,0.100000*%
G04 APERTURE END LIST*
D10*
G36*
X183553761Y-114524372D02*
G01*
X183553763Y-114524373D01*
X183553764Y-114524373D01*
X183840612Y-114643189D01*
X184098764Y-114815681D01*
X184098766Y-114815683D01*
X184098769Y-114815685D01*
X184318315Y-115035231D01*
X184318317Y-115035234D01*
X184318319Y-115035236D01*
X184490811Y-115293388D01*
X184550818Y-115438259D01*
X184609628Y-115580239D01*
X184670200Y-115884758D01*
X184670200Y-116195242D01*
X184623872Y-116428153D01*
X184609627Y-116499764D01*
X184490811Y-116786612D01*
X184318319Y-117044764D01*
X184318317Y-117044766D01*
X184318315Y-117044769D01*
X184098769Y-117264315D01*
X184098766Y-117264317D01*
X184098764Y-117264319D01*
X183840612Y-117436811D01*
X183553764Y-117555627D01*
X183553763Y-117555627D01*
X183553761Y-117555628D01*
X183249242Y-117616200D01*
X182938758Y-117616200D01*
X182634239Y-117555628D01*
X182634237Y-117555627D01*
X182634236Y-117555627D01*
X182347388Y-117436811D01*
X182089236Y-117264319D01*
X182089234Y-117264317D01*
X182089231Y-117264315D01*
X181869685Y-117044769D01*
X181869683Y-117044766D01*
X181869681Y-117044764D01*
X181697189Y-116786612D01*
X181578373Y-116499764D01*
X181564129Y-116428153D01*
X181517800Y-116195242D01*
X181517800Y-115884758D01*
X181578372Y-115580239D01*
X181637182Y-115438259D01*
X181697189Y-115293388D01*
X181869681Y-115035236D01*
X181869683Y-115035234D01*
X181869685Y-115035231D01*
X182089231Y-114815685D01*
X182089234Y-114815683D01*
X182089236Y-114815681D01*
X182347388Y-114643189D01*
X182634236Y-114524373D01*
X182634237Y-114524373D01*
X182634239Y-114524372D01*
X182938758Y-114463800D01*
X183249242Y-114463800D01*
X183553761Y-114524372D01*
G37*
G36*
X125553761Y-114524372D02*
G01*
X125553763Y-114524373D01*
X125553764Y-114524373D01*
X125840612Y-114643189D01*
X126098764Y-114815681D01*
X126098766Y-114815683D01*
X126098769Y-114815685D01*
X126318315Y-115035231D01*
X126318317Y-115035234D01*
X126318319Y-115035236D01*
X126490811Y-115293388D01*
X126550818Y-115438259D01*
X126609628Y-115580239D01*
X126670200Y-115884758D01*
X126670200Y-116195242D01*
X126623872Y-116428153D01*
X126609627Y-116499764D01*
X126490811Y-116786612D01*
X126318319Y-117044764D01*
X126318317Y-117044766D01*
X126318315Y-117044769D01*
X126098769Y-117264315D01*
X126098766Y-117264317D01*
X126098764Y-117264319D01*
X125840612Y-117436811D01*
X125553764Y-117555627D01*
X125553763Y-117555627D01*
X125553761Y-117555628D01*
X125249242Y-117616200D01*
X124938758Y-117616200D01*
X124634239Y-117555628D01*
X124634237Y-117555627D01*
X124634236Y-117555627D01*
X124347388Y-117436811D01*
X124089236Y-117264319D01*
X124089234Y-117264317D01*
X124089231Y-117264315D01*
X123869685Y-117044769D01*
X123869683Y-117044766D01*
X123869681Y-117044764D01*
X123697189Y-116786612D01*
X123578373Y-116499764D01*
X123564129Y-116428153D01*
X123517800Y-116195242D01*
X123517800Y-115884758D01*
X123578372Y-115580239D01*
X123637182Y-115438259D01*
X123697189Y-115293388D01*
X123869681Y-115035236D01*
X123869683Y-115035234D01*
X123869685Y-115035231D01*
X124089231Y-114815685D01*
X124089234Y-114815683D01*
X124089236Y-114815681D01*
X124347388Y-114643189D01*
X124634236Y-114524373D01*
X124634237Y-114524373D01*
X124634239Y-114524372D01*
X124938758Y-114463800D01*
X125249242Y-114463800D01*
X125553761Y-114524372D01*
G37*
G36*
X133078068Y-115282350D02*
G01*
X133239166Y-115314393D01*
X133407717Y-115384210D01*
X133559418Y-115485573D01*
X133688427Y-115614582D01*
X133789790Y-115766283D01*
X133859607Y-115934834D01*
X133895200Y-116113778D01*
X133895200Y-116296222D01*
X133859607Y-116475166D01*
X133789790Y-116643717D01*
X133688427Y-116795418D01*
X133559418Y-116924427D01*
X133407717Y-117025790D01*
X133239166Y-117095607D01*
X133078068Y-117127650D01*
X133060223Y-117131200D01*
X132877777Y-117131200D01*
X132859932Y-117127650D01*
X132698834Y-117095607D01*
X132530283Y-117025790D01*
X132378582Y-116924427D01*
X132249573Y-116795418D01*
X132148210Y-116643717D01*
X132078393Y-116475166D01*
X132042800Y-116296222D01*
X132042800Y-116113778D01*
X132078393Y-115934834D01*
X132148210Y-115766283D01*
X132249573Y-115614582D01*
X132378582Y-115485573D01*
X132530283Y-115384210D01*
X132698834Y-115314393D01*
X132859932Y-115282350D01*
X132877777Y-115278800D01*
X133060223Y-115278800D01*
X133078068Y-115282350D01*
G37*
G36*
X138975200Y-117131200D02*
G01*
X137122800Y-117131200D01*
X137122800Y-115278800D01*
X138975200Y-115278800D01*
X138975200Y-117131200D01*
G37*
G36*
X135618068Y-115282350D02*
G01*
X135779166Y-115314393D01*
X135947717Y-115384210D01*
X136099418Y-115485573D01*
X136228427Y-115614582D01*
X136329790Y-115766283D01*
X136399607Y-115934834D01*
X136435200Y-116113778D01*
X136435200Y-116296222D01*
X136399607Y-116475166D01*
X136329790Y-116643717D01*
X136228427Y-116795418D01*
X136099418Y-116924427D01*
X135947717Y-117025790D01*
X135779166Y-117095607D01*
X135618068Y-117127650D01*
X135600223Y-117131200D01*
X135417777Y-117131200D01*
X135399932Y-117127650D01*
X135238834Y-117095607D01*
X135070283Y-117025790D01*
X134918582Y-116924427D01*
X134789573Y-116795418D01*
X134688210Y-116643717D01*
X134618393Y-116475166D01*
X134582800Y-116296222D01*
X134582800Y-116113778D01*
X134618393Y-115934834D01*
X134688210Y-115766283D01*
X134789573Y-115614582D01*
X134918582Y-115485573D01*
X135070283Y-115384210D01*
X135238834Y-115314393D01*
X135399932Y-115282350D01*
X135417777Y-115278800D01*
X135600223Y-115278800D01*
X135618068Y-115282350D01*
G37*
G36*
X129747449Y-115648131D02*
G01*
X129747452Y-115648132D01*
X129747451Y-115648132D01*
X129876876Y-115701741D01*
X129993363Y-115779575D01*
X130092425Y-115878637D01*
X130170259Y-115995124D01*
X130213967Y-116100645D01*
X130223869Y-116124551D01*
X130251200Y-116261953D01*
X130251200Y-116402047D01*
X130223869Y-116539449D01*
X130223868Y-116539451D01*
X130170259Y-116668876D01*
X130092425Y-116785363D01*
X129993363Y-116884425D01*
X129876876Y-116962259D01*
X129771355Y-117005967D01*
X129747449Y-117015869D01*
X129610047Y-117043200D01*
X129469953Y-117043200D01*
X129332551Y-117015869D01*
X129308645Y-117005967D01*
X129203124Y-116962259D01*
X129086637Y-116884425D01*
X128987575Y-116785363D01*
X128909741Y-116668876D01*
X128856132Y-116539451D01*
X128856131Y-116539449D01*
X128828800Y-116402047D01*
X128828800Y-116261953D01*
X128856131Y-116124551D01*
X128866033Y-116100645D01*
X128909741Y-115995124D01*
X128987575Y-115878637D01*
X129086637Y-115779575D01*
X129203124Y-115701741D01*
X129332549Y-115648132D01*
X129332548Y-115648132D01*
X129332551Y-115648131D01*
X129469953Y-115620800D01*
X129610047Y-115620800D01*
X129747449Y-115648131D01*
G37*
G36*
X171016672Y-114275533D02*
G01*
X171016674Y-114275534D01*
X171016675Y-114275534D01*
X171261662Y-114377011D01*
X171261665Y-114377013D01*
X171482153Y-114524338D01*
X171669662Y-114711847D01*
X171669663Y-114711849D01*
X171816989Y-114932338D01*
X171873853Y-115069620D01*
X171918467Y-115177328D01*
X171970200Y-115437411D01*
X171970200Y-115702589D01*
X171933965Y-115884759D01*
X171918466Y-115962675D01*
X171816989Y-116207662D01*
X171816987Y-116207665D01*
X171669662Y-116428153D01*
X171482153Y-116615662D01*
X171440161Y-116643720D01*
X171261662Y-116762989D01*
X171016675Y-116864466D01*
X171016674Y-116864466D01*
X171016672Y-116864467D01*
X170756589Y-116916200D01*
X170491411Y-116916200D01*
X170231328Y-116864467D01*
X170231326Y-116864466D01*
X170231325Y-116864466D01*
X169986338Y-116762989D01*
X169807839Y-116643720D01*
X169765847Y-116615662D01*
X169578338Y-116428153D01*
X169431013Y-116207665D01*
X169431011Y-116207662D01*
X169329534Y-115962675D01*
X169314036Y-115884759D01*
X169277800Y-115702589D01*
X169277800Y-115437411D01*
X169329533Y-115177328D01*
X169374147Y-115069620D01*
X169431011Y-114932338D01*
X169578337Y-114711849D01*
X169578338Y-114711847D01*
X169765847Y-114524338D01*
X169986335Y-114377013D01*
X169986338Y-114377011D01*
X170231325Y-114275534D01*
X170231326Y-114275534D01*
X170231328Y-114275533D01*
X170491411Y-114223800D01*
X170756589Y-114223800D01*
X171016672Y-114275533D01*
G37*
G36*
X174516672Y-114275533D02*
G01*
X174516674Y-114275534D01*
X174516675Y-114275534D01*
X174761662Y-114377011D01*
X174761665Y-114377013D01*
X174982153Y-114524338D01*
X175169662Y-114711847D01*
X175169663Y-114711849D01*
X175316989Y-114932338D01*
X175373853Y-115069620D01*
X175418467Y-115177328D01*
X175470200Y-115437411D01*
X175470200Y-115702589D01*
X175433965Y-115884759D01*
X175418466Y-115962675D01*
X175316989Y-116207662D01*
X175316987Y-116207665D01*
X175169662Y-116428153D01*
X174982153Y-116615662D01*
X174940161Y-116643720D01*
X174761662Y-116762989D01*
X174516675Y-116864466D01*
X174516674Y-116864466D01*
X174516672Y-116864467D01*
X174256589Y-116916200D01*
X173991411Y-116916200D01*
X173731328Y-116864467D01*
X173731326Y-116864466D01*
X173731325Y-116864466D01*
X173486338Y-116762989D01*
X173307839Y-116643720D01*
X173265847Y-116615662D01*
X173078338Y-116428153D01*
X172931013Y-116207665D01*
X172931011Y-116207662D01*
X172829534Y-115962675D01*
X172814036Y-115884759D01*
X172777800Y-115702589D01*
X172777800Y-115437411D01*
X172829533Y-115177328D01*
X172874147Y-115069620D01*
X172931011Y-114932338D01*
X173078337Y-114711849D01*
X173078338Y-114711847D01*
X173265847Y-114524338D01*
X173486335Y-114377013D01*
X173486338Y-114377011D01*
X173731325Y-114275534D01*
X173731326Y-114275534D01*
X173731328Y-114275533D01*
X173991411Y-114223800D01*
X174256589Y-114223800D01*
X174516672Y-114275533D01*
G37*
G36*
X167516672Y-114275533D02*
G01*
X167516674Y-114275534D01*
X167516675Y-114275534D01*
X167761662Y-114377011D01*
X167761665Y-114377013D01*
X167982153Y-114524338D01*
X168169662Y-114711847D01*
X168169663Y-114711849D01*
X168316989Y-114932338D01*
X168373853Y-115069620D01*
X168418467Y-115177328D01*
X168470200Y-115437411D01*
X168470200Y-115702589D01*
X168433965Y-115884759D01*
X168418466Y-115962675D01*
X168316989Y-116207662D01*
X168316987Y-116207665D01*
X168169662Y-116428153D01*
X167982153Y-116615662D01*
X167940161Y-116643720D01*
X167761662Y-116762989D01*
X167516675Y-116864466D01*
X167516674Y-116864466D01*
X167516672Y-116864467D01*
X167256589Y-116916200D01*
X166991411Y-116916200D01*
X166731328Y-116864467D01*
X166731326Y-116864466D01*
X166731325Y-116864466D01*
X166486338Y-116762989D01*
X166307839Y-116643720D01*
X166265847Y-116615662D01*
X166078338Y-116428153D01*
X165931013Y-116207665D01*
X165931011Y-116207662D01*
X165829534Y-115962675D01*
X165814036Y-115884759D01*
X165777800Y-115702589D01*
X165777800Y-115437411D01*
X165829533Y-115177328D01*
X165874147Y-115069620D01*
X165931011Y-114932338D01*
X166078337Y-114711849D01*
X166078338Y-114711847D01*
X166265847Y-114524338D01*
X166486335Y-114377013D01*
X166486338Y-114377011D01*
X166731325Y-114275534D01*
X166731326Y-114275534D01*
X166731328Y-114275533D01*
X166991411Y-114223800D01*
X167256589Y-114223800D01*
X167516672Y-114275533D01*
G37*
G36*
X164016672Y-114275533D02*
G01*
X164016674Y-114275534D01*
X164016675Y-114275534D01*
X164261662Y-114377011D01*
X164261665Y-114377013D01*
X164482153Y-114524338D01*
X164669662Y-114711847D01*
X164669663Y-114711849D01*
X164816989Y-114932338D01*
X164873853Y-115069620D01*
X164918467Y-115177328D01*
X164970200Y-115437411D01*
X164970200Y-115702589D01*
X164933965Y-115884759D01*
X164918466Y-115962675D01*
X164816989Y-116207662D01*
X164816987Y-116207665D01*
X164669662Y-116428153D01*
X164482153Y-116615662D01*
X164440161Y-116643720D01*
X164261662Y-116762989D01*
X164016675Y-116864466D01*
X164016674Y-116864466D01*
X164016672Y-116864467D01*
X163756589Y-116916200D01*
X163491411Y-116916200D01*
X163231328Y-116864467D01*
X163231326Y-116864466D01*
X163231325Y-116864466D01*
X162986338Y-116762989D01*
X162807839Y-116643720D01*
X162765847Y-116615662D01*
X162578338Y-116428153D01*
X162431013Y-116207665D01*
X162431011Y-116207662D01*
X162329534Y-115962675D01*
X162314036Y-115884759D01*
X162277800Y-115702589D01*
X162277800Y-115437411D01*
X162329533Y-115177328D01*
X162374147Y-115069620D01*
X162431011Y-114932338D01*
X162578337Y-114711849D01*
X162578338Y-114711847D01*
X162765847Y-114524338D01*
X162986335Y-114377013D01*
X162986338Y-114377011D01*
X163231325Y-114275534D01*
X163231326Y-114275534D01*
X163231328Y-114275533D01*
X163491411Y-114223800D01*
X163756589Y-114223800D01*
X164016672Y-114275533D01*
G37*
G36*
X160516672Y-114275533D02*
G01*
X160516674Y-114275534D01*
X160516675Y-114275534D01*
X160761662Y-114377011D01*
X160761665Y-114377013D01*
X160982153Y-114524338D01*
X161169662Y-114711847D01*
X161169663Y-114711849D01*
X161316989Y-114932338D01*
X161373853Y-115069620D01*
X161418467Y-115177328D01*
X161470200Y-115437411D01*
X161470200Y-115702589D01*
X161433965Y-115884759D01*
X161418466Y-115962675D01*
X161316989Y-116207662D01*
X161316987Y-116207665D01*
X161169662Y-116428153D01*
X160982153Y-116615662D01*
X160940161Y-116643720D01*
X160761662Y-116762989D01*
X160516675Y-116864466D01*
X160516674Y-116864466D01*
X160516672Y-116864467D01*
X160256589Y-116916200D01*
X159991411Y-116916200D01*
X159731328Y-116864467D01*
X159731326Y-116864466D01*
X159731325Y-116864466D01*
X159486338Y-116762989D01*
X159307839Y-116643720D01*
X159265847Y-116615662D01*
X159078338Y-116428153D01*
X158931013Y-116207665D01*
X158931011Y-116207662D01*
X158829534Y-115962675D01*
X158814036Y-115884759D01*
X158777800Y-115702589D01*
X158777800Y-115437411D01*
X158829533Y-115177328D01*
X158874147Y-115069620D01*
X158931011Y-114932338D01*
X159078337Y-114711849D01*
X159078338Y-114711847D01*
X159265847Y-114524338D01*
X159486335Y-114377013D01*
X159486338Y-114377011D01*
X159731325Y-114275534D01*
X159731326Y-114275534D01*
X159731328Y-114275533D01*
X159991411Y-114223800D01*
X160256589Y-114223800D01*
X160516672Y-114275533D01*
G37*
G36*
X153516672Y-114275533D02*
G01*
X153516674Y-114275534D01*
X153516675Y-114275534D01*
X153761662Y-114377011D01*
X153761665Y-114377013D01*
X153982153Y-114524338D01*
X154169662Y-114711847D01*
X154169663Y-114711849D01*
X154316989Y-114932338D01*
X154373853Y-115069620D01*
X154418467Y-115177328D01*
X154470200Y-115437411D01*
X154470200Y-115702589D01*
X154433965Y-115884759D01*
X154418466Y-115962675D01*
X154316989Y-116207662D01*
X154316987Y-116207665D01*
X154169662Y-116428153D01*
X153982153Y-116615662D01*
X153940161Y-116643720D01*
X153761662Y-116762989D01*
X153516675Y-116864466D01*
X153516674Y-116864466D01*
X153516672Y-116864467D01*
X153256589Y-116916200D01*
X152991411Y-116916200D01*
X152731328Y-116864467D01*
X152731326Y-116864466D01*
X152731325Y-116864466D01*
X152486338Y-116762989D01*
X152307839Y-116643720D01*
X152265847Y-116615662D01*
X152078338Y-116428153D01*
X151931013Y-116207665D01*
X151931011Y-116207662D01*
X151829534Y-115962675D01*
X151814036Y-115884759D01*
X151777800Y-115702589D01*
X151777800Y-115437411D01*
X151829533Y-115177328D01*
X151874147Y-115069620D01*
X151931011Y-114932338D01*
X152078337Y-114711849D01*
X152078338Y-114711847D01*
X152265847Y-114524338D01*
X152486335Y-114377013D01*
X152486338Y-114377011D01*
X152731325Y-114275534D01*
X152731326Y-114275534D01*
X152731328Y-114275533D01*
X152991411Y-114223800D01*
X153256589Y-114223800D01*
X153516672Y-114275533D01*
G37*
G36*
X150016672Y-114275533D02*
G01*
X150016674Y-114275534D01*
X150016675Y-114275534D01*
X150261662Y-114377011D01*
X150261665Y-114377013D01*
X150482153Y-114524338D01*
X150669662Y-114711847D01*
X150669663Y-114711849D01*
X150816989Y-114932338D01*
X150873853Y-115069620D01*
X150918467Y-115177328D01*
X150970200Y-115437411D01*
X150970200Y-115702589D01*
X150933965Y-115884759D01*
X150918466Y-115962675D01*
X150816989Y-116207662D01*
X150816987Y-116207665D01*
X150669662Y-116428153D01*
X150482153Y-116615662D01*
X150440161Y-116643720D01*
X150261662Y-116762989D01*
X150016675Y-116864466D01*
X150016674Y-116864466D01*
X150016672Y-116864467D01*
X149756589Y-116916200D01*
X149491411Y-116916200D01*
X149231328Y-116864467D01*
X149231326Y-116864466D01*
X149231325Y-116864466D01*
X148986338Y-116762989D01*
X148807839Y-116643720D01*
X148765847Y-116615662D01*
X148578338Y-116428153D01*
X148431013Y-116207665D01*
X148431011Y-116207662D01*
X148329534Y-115962675D01*
X148314036Y-115884759D01*
X148277800Y-115702589D01*
X148277800Y-115437411D01*
X148329533Y-115177328D01*
X148374147Y-115069620D01*
X148431011Y-114932338D01*
X148578337Y-114711849D01*
X148578338Y-114711847D01*
X148765847Y-114524338D01*
X148986335Y-114377013D01*
X148986338Y-114377011D01*
X149231325Y-114275534D01*
X149231326Y-114275534D01*
X149231328Y-114275533D01*
X149491411Y-114223800D01*
X149756589Y-114223800D01*
X150016672Y-114275533D01*
G37*
G36*
X157016672Y-114275533D02*
G01*
X157016674Y-114275534D01*
X157016675Y-114275534D01*
X157261662Y-114377011D01*
X157261665Y-114377013D01*
X157482153Y-114524338D01*
X157669662Y-114711847D01*
X157669663Y-114711849D01*
X157816989Y-114932338D01*
X157873853Y-115069620D01*
X157918467Y-115177328D01*
X157970200Y-115437411D01*
X157970200Y-115702589D01*
X157933965Y-115884759D01*
X157918466Y-115962675D01*
X157816989Y-116207662D01*
X157816987Y-116207665D01*
X157669662Y-116428153D01*
X157482153Y-116615662D01*
X157440161Y-116643720D01*
X157261662Y-116762989D01*
X157016675Y-116864466D01*
X157016674Y-116864466D01*
X157016672Y-116864467D01*
X156756589Y-116916200D01*
X156491411Y-116916200D01*
X156231328Y-116864467D01*
X156231326Y-116864466D01*
X156231325Y-116864466D01*
X155986338Y-116762989D01*
X155807839Y-116643720D01*
X155765847Y-116615662D01*
X155578338Y-116428153D01*
X155431013Y-116207665D01*
X155431011Y-116207662D01*
X155329534Y-115962675D01*
X155314036Y-115884759D01*
X155277800Y-115702589D01*
X155277800Y-115437411D01*
X155329533Y-115177328D01*
X155374147Y-115069620D01*
X155431011Y-114932338D01*
X155578337Y-114711849D01*
X155578338Y-114711847D01*
X155765847Y-114524338D01*
X155986335Y-114377013D01*
X155986338Y-114377011D01*
X156231325Y-114275534D01*
X156231326Y-114275534D01*
X156231328Y-114275533D01*
X156491411Y-114223800D01*
X156756589Y-114223800D01*
X157016672Y-114275533D01*
G37*
G36*
X146464020Y-116822220D02*
G01*
X144111980Y-116822220D01*
X144111980Y-115069620D01*
X146464020Y-115069620D01*
X146464020Y-116822220D01*
G37*
G36*
X141939449Y-114124131D02*
G01*
X141939452Y-114124132D01*
X141939451Y-114124132D01*
X142068876Y-114177741D01*
X142185363Y-114255575D01*
X142284425Y-114354637D01*
X142362259Y-114471124D01*
X142384315Y-114524373D01*
X142415869Y-114600551D01*
X142443200Y-114737953D01*
X142443200Y-114878047D01*
X142415869Y-115015449D01*
X142415868Y-115015451D01*
X142362259Y-115144876D01*
X142284425Y-115261363D01*
X142185363Y-115360425D01*
X142068876Y-115438259D01*
X141963355Y-115481967D01*
X141939449Y-115491869D01*
X141802047Y-115519200D01*
X141661953Y-115519200D01*
X141524551Y-115491869D01*
X141500645Y-115481967D01*
X141395124Y-115438259D01*
X141278637Y-115360425D01*
X141179575Y-115261363D01*
X141101741Y-115144876D01*
X141048132Y-115015451D01*
X141048131Y-115015449D01*
X141020800Y-114878047D01*
X141020800Y-114737953D01*
X141048131Y-114600551D01*
X141079685Y-114524373D01*
X141101741Y-114471124D01*
X141179575Y-114354637D01*
X141278637Y-114255575D01*
X141395124Y-114177741D01*
X141524549Y-114124132D01*
X141524548Y-114124132D01*
X141524551Y-114124131D01*
X141661953Y-114096800D01*
X141802047Y-114096800D01*
X141939449Y-114124131D01*
G37*
G36*
X146464020Y-113022380D02*
G01*
X144111980Y-113022380D01*
X144111980Y-111269780D01*
X146464020Y-111269780D01*
X146464020Y-113022380D01*
G37*
G36*
X127969449Y-110822131D02*
G01*
X127969452Y-110822132D01*
X127969451Y-110822132D01*
X128098876Y-110875741D01*
X128215363Y-110953575D01*
X128314425Y-111052637D01*
X128392259Y-111169124D01*
X128433952Y-111269780D01*
X128445869Y-111298551D01*
X128473200Y-111435953D01*
X128473200Y-111576047D01*
X128445869Y-111713449D01*
X128445868Y-111713451D01*
X128392259Y-111842876D01*
X128314425Y-111959363D01*
X128215363Y-112058425D01*
X128098876Y-112136259D01*
X127993355Y-112179967D01*
X127969449Y-112189869D01*
X127832047Y-112217200D01*
X127691953Y-112217200D01*
X127554551Y-112189869D01*
X127530645Y-112179967D01*
X127425124Y-112136259D01*
X127308637Y-112058425D01*
X127209575Y-111959363D01*
X127131741Y-111842876D01*
X127078132Y-111713451D01*
X127078131Y-111713449D01*
X127050800Y-111576047D01*
X127050800Y-111435953D01*
X127078131Y-111298551D01*
X127090048Y-111269780D01*
X127131741Y-111169124D01*
X127209575Y-111052637D01*
X127308637Y-110953575D01*
X127425124Y-110875741D01*
X127554549Y-110822132D01*
X127554548Y-110822132D01*
X127554551Y-110822131D01*
X127691953Y-110794800D01*
X127832047Y-110794800D01*
X127969449Y-110822131D01*
G37*
G36*
X135759290Y-110012105D02*
G01*
X135788568Y-110020986D01*
X135815545Y-110035406D01*
X135839190Y-110054810D01*
X135858594Y-110078455D01*
X135873014Y-110105432D01*
X135881895Y-110134710D01*
X135885200Y-110168267D01*
X135885200Y-111951733D01*
X135881895Y-111985290D01*
X135873014Y-112014568D01*
X135858594Y-112041545D01*
X135839190Y-112065190D01*
X135815545Y-112084594D01*
X135788568Y-112099014D01*
X135759290Y-112107895D01*
X135725733Y-112111200D01*
X135292267Y-112111200D01*
X135258710Y-112107895D01*
X135229432Y-112099014D01*
X135202455Y-112084594D01*
X135178810Y-112065190D01*
X135159406Y-112041545D01*
X135144986Y-112014568D01*
X135136105Y-111985290D01*
X135132800Y-111951733D01*
X135132800Y-110168267D01*
X135136105Y-110134710D01*
X135144986Y-110105432D01*
X135159406Y-110078455D01*
X135178810Y-110054810D01*
X135202455Y-110035406D01*
X135229432Y-110020986D01*
X135258710Y-110012105D01*
X135292267Y-110008800D01*
X135725733Y-110008800D01*
X135759290Y-110012105D01*
G37*
G36*
X138299290Y-110012105D02*
G01*
X138328568Y-110020986D01*
X138355545Y-110035406D01*
X138379190Y-110054810D01*
X138398594Y-110078455D01*
X138413014Y-110105432D01*
X138421895Y-110134710D01*
X138425200Y-110168267D01*
X138425200Y-111951733D01*
X138421895Y-111985290D01*
X138413014Y-112014568D01*
X138398594Y-112041545D01*
X138379190Y-112065190D01*
X138355545Y-112084594D01*
X138328568Y-112099014D01*
X138299290Y-112107895D01*
X138265733Y-112111200D01*
X137832267Y-112111200D01*
X137798710Y-112107895D01*
X137769432Y-112099014D01*
X137742455Y-112084594D01*
X137718810Y-112065190D01*
X137699406Y-112041545D01*
X137684986Y-112014568D01*
X137676105Y-111985290D01*
X137672800Y-111951733D01*
X137672800Y-110168267D01*
X137676105Y-110134710D01*
X137684986Y-110105432D01*
X137699406Y-110078455D01*
X137718810Y-110054810D01*
X137742455Y-110035406D01*
X137769432Y-110020986D01*
X137798710Y-110012105D01*
X137832267Y-110008800D01*
X138265733Y-110008800D01*
X138299290Y-110012105D01*
G37*
G36*
X139569290Y-110012105D02*
G01*
X139598568Y-110020986D01*
X139625545Y-110035406D01*
X139649190Y-110054810D01*
X139668594Y-110078455D01*
X139683014Y-110105432D01*
X139691895Y-110134710D01*
X139695200Y-110168267D01*
X139695200Y-111951733D01*
X139691895Y-111985290D01*
X139683014Y-112014568D01*
X139668594Y-112041545D01*
X139649190Y-112065190D01*
X139625545Y-112084594D01*
X139598568Y-112099014D01*
X139569290Y-112107895D01*
X139535733Y-112111200D01*
X139102267Y-112111200D01*
X139068710Y-112107895D01*
X139039432Y-112099014D01*
X139012455Y-112084594D01*
X138988810Y-112065190D01*
X138969406Y-112041545D01*
X138954986Y-112014568D01*
X138946105Y-111985290D01*
X138942800Y-111951733D01*
X138942800Y-110168267D01*
X138946105Y-110134710D01*
X138954986Y-110105432D01*
X138969406Y-110078455D01*
X138988810Y-110054810D01*
X139012455Y-110035406D01*
X139039432Y-110020986D01*
X139068710Y-110012105D01*
X139102267Y-110008800D01*
X139535733Y-110008800D01*
X139569290Y-110012105D01*
G37*
G36*
X137029290Y-110012105D02*
G01*
X137058568Y-110020986D01*
X137085545Y-110035406D01*
X137109190Y-110054810D01*
X137128594Y-110078455D01*
X137143014Y-110105432D01*
X137151895Y-110134710D01*
X137155200Y-110168267D01*
X137155200Y-111951733D01*
X137151895Y-111985290D01*
X137143014Y-112014568D01*
X137128594Y-112041545D01*
X137109190Y-112065190D01*
X137085545Y-112084594D01*
X137058568Y-112099014D01*
X137029290Y-112107895D01*
X136995733Y-112111200D01*
X136562267Y-112111200D01*
X136528710Y-112107895D01*
X136499432Y-112099014D01*
X136472455Y-112084594D01*
X136448810Y-112065190D01*
X136429406Y-112041545D01*
X136414986Y-112014568D01*
X136406105Y-111985290D01*
X136402800Y-111951733D01*
X136402800Y-110168267D01*
X136406105Y-110134710D01*
X136414986Y-110105432D01*
X136429406Y-110078455D01*
X136448810Y-110054810D01*
X136472455Y-110035406D01*
X136499432Y-110020986D01*
X136528710Y-110012105D01*
X136562267Y-110008800D01*
X136995733Y-110008800D01*
X137029290Y-110012105D01*
G37*
G36*
X133219290Y-110012105D02*
G01*
X133248568Y-110020986D01*
X133275545Y-110035406D01*
X133299190Y-110054810D01*
X133318594Y-110078455D01*
X133333014Y-110105432D01*
X133341895Y-110134710D01*
X133345200Y-110168267D01*
X133345200Y-111951733D01*
X133341895Y-111985290D01*
X133333014Y-112014568D01*
X133318594Y-112041545D01*
X133299190Y-112065190D01*
X133275545Y-112084594D01*
X133248568Y-112099014D01*
X133219290Y-112107895D01*
X133185733Y-112111200D01*
X132752267Y-112111200D01*
X132718710Y-112107895D01*
X132689432Y-112099014D01*
X132662455Y-112084594D01*
X132638810Y-112065190D01*
X132619406Y-112041545D01*
X132604986Y-112014568D01*
X132596105Y-111985290D01*
X132592800Y-111951733D01*
X132592800Y-110168267D01*
X132596105Y-110134710D01*
X132604986Y-110105432D01*
X132619406Y-110078455D01*
X132638810Y-110054810D01*
X132662455Y-110035406D01*
X132689432Y-110020986D01*
X132718710Y-110012105D01*
X132752267Y-110008800D01*
X133185733Y-110008800D01*
X133219290Y-110012105D01*
G37*
G36*
X131949290Y-110012105D02*
G01*
X131978568Y-110020986D01*
X132005545Y-110035406D01*
X132029190Y-110054810D01*
X132048594Y-110078455D01*
X132063014Y-110105432D01*
X132071895Y-110134710D01*
X132075200Y-110168267D01*
X132075200Y-111951733D01*
X132071895Y-111985290D01*
X132063014Y-112014568D01*
X132048594Y-112041545D01*
X132029190Y-112065190D01*
X132005545Y-112084594D01*
X131978568Y-112099014D01*
X131949290Y-112107895D01*
X131915733Y-112111200D01*
X131482267Y-112111200D01*
X131448710Y-112107895D01*
X131419432Y-112099014D01*
X131392455Y-112084594D01*
X131368810Y-112065190D01*
X131349406Y-112041545D01*
X131334986Y-112014568D01*
X131326105Y-111985290D01*
X131322800Y-111951733D01*
X131322800Y-110168267D01*
X131326105Y-110134710D01*
X131334986Y-110105432D01*
X131349406Y-110078455D01*
X131368810Y-110054810D01*
X131392455Y-110035406D01*
X131419432Y-110020986D01*
X131448710Y-110012105D01*
X131482267Y-110008800D01*
X131915733Y-110008800D01*
X131949290Y-110012105D01*
G37*
G36*
X130679290Y-110012105D02*
G01*
X130708568Y-110020986D01*
X130735545Y-110035406D01*
X130759190Y-110054810D01*
X130778594Y-110078455D01*
X130793014Y-110105432D01*
X130801895Y-110134710D01*
X130805200Y-110168267D01*
X130805200Y-111951733D01*
X130801895Y-111985290D01*
X130793014Y-112014568D01*
X130778594Y-112041545D01*
X130759190Y-112065190D01*
X130735545Y-112084594D01*
X130708568Y-112099014D01*
X130679290Y-112107895D01*
X130645733Y-112111200D01*
X130212267Y-112111200D01*
X130178710Y-112107895D01*
X130149432Y-112099014D01*
X130122455Y-112084594D01*
X130098810Y-112065190D01*
X130079406Y-112041545D01*
X130064986Y-112014568D01*
X130056105Y-111985290D01*
X130052800Y-111951733D01*
X130052800Y-110168267D01*
X130056105Y-110134710D01*
X130064986Y-110105432D01*
X130079406Y-110078455D01*
X130098810Y-110054810D01*
X130122455Y-110035406D01*
X130149432Y-110020986D01*
X130178710Y-110012105D01*
X130212267Y-110008800D01*
X130645733Y-110008800D01*
X130679290Y-110012105D01*
G37*
G36*
X134489290Y-110012105D02*
G01*
X134518568Y-110020986D01*
X134545545Y-110035406D01*
X134569190Y-110054810D01*
X134588594Y-110078455D01*
X134603014Y-110105432D01*
X134611895Y-110134710D01*
X134615200Y-110168267D01*
X134615200Y-111951733D01*
X134611895Y-111985290D01*
X134603014Y-112014568D01*
X134588594Y-112041545D01*
X134569190Y-112065190D01*
X134545545Y-112084594D01*
X134518568Y-112099014D01*
X134489290Y-112107895D01*
X134455733Y-112111200D01*
X134022267Y-112111200D01*
X133988710Y-112107895D01*
X133959432Y-112099014D01*
X133932455Y-112084594D01*
X133908810Y-112065190D01*
X133889406Y-112041545D01*
X133874986Y-112014568D01*
X133866105Y-111985290D01*
X133862800Y-111951733D01*
X133862800Y-110168267D01*
X133866105Y-110134710D01*
X133874986Y-110105432D01*
X133889406Y-110078455D01*
X133908810Y-110054810D01*
X133932455Y-110035406D01*
X133959432Y-110020986D01*
X133988710Y-110012105D01*
X134022267Y-110008800D01*
X134455733Y-110008800D01*
X134489290Y-110012105D01*
G37*
G36*
X141798831Y-110439407D02*
G01*
X141845690Y-110453621D01*
X141888877Y-110476705D01*
X141926730Y-110507770D01*
X141957795Y-110545623D01*
X141980879Y-110588810D01*
X141995093Y-110635669D01*
X142000200Y-110687517D01*
X142000200Y-111308483D01*
X141995093Y-111360331D01*
X141980879Y-111407190D01*
X141957795Y-111450377D01*
X141926730Y-111488230D01*
X141888877Y-111519295D01*
X141845690Y-111542379D01*
X141798831Y-111556593D01*
X141746983Y-111561700D01*
X140701017Y-111561700D01*
X140649169Y-111556593D01*
X140602310Y-111542379D01*
X140559123Y-111519295D01*
X140521270Y-111488230D01*
X140490205Y-111450377D01*
X140467121Y-111407190D01*
X140452907Y-111360331D01*
X140447800Y-111308483D01*
X140447800Y-110687517D01*
X140452907Y-110635669D01*
X140467121Y-110588810D01*
X140490205Y-110545623D01*
X140521270Y-110507770D01*
X140559123Y-110476705D01*
X140602310Y-110453621D01*
X140649169Y-110439407D01*
X140701017Y-110434300D01*
X141746983Y-110434300D01*
X141798831Y-110439407D01*
G37*
G36*
X141798831Y-108564407D02*
G01*
X141845690Y-108578621D01*
X141888877Y-108601705D01*
X141926730Y-108632770D01*
X141957795Y-108670623D01*
X141980879Y-108713810D01*
X141995093Y-108760669D01*
X142000200Y-108812517D01*
X142000200Y-109433483D01*
X141995093Y-109485331D01*
X141980879Y-109532190D01*
X141957795Y-109575377D01*
X141926730Y-109613230D01*
X141888877Y-109644295D01*
X141845690Y-109667379D01*
X141798831Y-109681593D01*
X141746983Y-109686700D01*
X140701017Y-109686700D01*
X140649169Y-109681593D01*
X140602310Y-109667379D01*
X140559123Y-109644295D01*
X140521270Y-109613230D01*
X140490205Y-109575377D01*
X140467121Y-109532190D01*
X140452907Y-109485331D01*
X140447800Y-109433483D01*
X140447800Y-108812517D01*
X140452907Y-108760669D01*
X140467121Y-108713810D01*
X140490205Y-108670623D01*
X140521270Y-108632770D01*
X140559123Y-108601705D01*
X140602310Y-108578621D01*
X140649169Y-108564407D01*
X140701017Y-108559300D01*
X141746983Y-108559300D01*
X141798831Y-108564407D01*
G37*
G36*
X139653449Y-108028131D02*
G01*
X139677355Y-108038033D01*
X139782876Y-108081741D01*
X139899363Y-108159575D01*
X139998425Y-108258637D01*
X140076259Y-108375124D01*
X140081573Y-108387954D01*
X140129869Y-108504551D01*
X140157200Y-108641953D01*
X140157200Y-108782047D01*
X140129869Y-108919449D01*
X140129868Y-108919451D01*
X140076259Y-109048876D01*
X140076257Y-109048879D01*
X140049944Y-109088259D01*
X139998425Y-109165363D01*
X139899363Y-109264425D01*
X139782876Y-109342259D01*
X139677355Y-109385967D01*
X139653449Y-109395869D01*
X139516047Y-109423200D01*
X139375953Y-109423200D01*
X139238551Y-109395869D01*
X139214645Y-109385967D01*
X139109124Y-109342259D01*
X138992637Y-109264425D01*
X138893575Y-109165363D01*
X138842056Y-109088259D01*
X138815743Y-109048879D01*
X138815741Y-109048876D01*
X138762132Y-108919451D01*
X138762131Y-108919449D01*
X138734800Y-108782047D01*
X138734800Y-108641953D01*
X138762131Y-108504551D01*
X138810427Y-108387954D01*
X138815741Y-108375124D01*
X138893575Y-108258637D01*
X138992637Y-108159575D01*
X139109124Y-108081741D01*
X139214645Y-108038033D01*
X139238551Y-108028131D01*
X139375953Y-108000800D01*
X139516047Y-108000800D01*
X139653449Y-108028131D01*
G37*
G36*
X136097449Y-107774131D02*
G01*
X136097452Y-107774132D01*
X136097451Y-107774132D01*
X136226876Y-107827741D01*
X136226879Y-107827743D01*
X136343363Y-107905575D01*
X136442425Y-108004637D01*
X136493946Y-108081743D01*
X136520259Y-108121124D01*
X136563967Y-108226645D01*
X136573869Y-108250551D01*
X136601200Y-108387953D01*
X136601200Y-108528047D01*
X136573869Y-108665449D01*
X136573868Y-108665451D01*
X136520259Y-108794876D01*
X136442425Y-108911363D01*
X136343363Y-109010425D01*
X136226876Y-109088259D01*
X136121355Y-109131967D01*
X136097449Y-109141869D01*
X135960047Y-109169200D01*
X135819953Y-109169200D01*
X135682551Y-109141869D01*
X135658645Y-109131967D01*
X135553124Y-109088259D01*
X135436637Y-109010425D01*
X135337575Y-108911363D01*
X135259741Y-108794876D01*
X135206132Y-108665451D01*
X135206131Y-108665449D01*
X135178800Y-108528047D01*
X135178800Y-108387953D01*
X135206131Y-108250551D01*
X135216033Y-108226645D01*
X135259741Y-108121124D01*
X135286055Y-108081743D01*
X135337575Y-108004637D01*
X135436637Y-107905575D01*
X135553121Y-107827743D01*
X135553124Y-107827741D01*
X135682549Y-107774132D01*
X135682548Y-107774132D01*
X135682551Y-107774131D01*
X135819953Y-107746800D01*
X135960047Y-107746800D01*
X136097449Y-107774131D01*
G37*
G36*
X167386632Y-106049666D02*
G01*
X167639169Y-106126272D01*
X167871910Y-106250675D01*
X168075908Y-106418092D01*
X168243325Y-106622090D01*
X168367728Y-106854831D01*
X168444334Y-107107368D01*
X168470201Y-107369999D01*
X168470201Y-107370001D01*
X168444334Y-107632632D01*
X168367728Y-107885169D01*
X168243325Y-108117910D01*
X168075908Y-108321908D01*
X167871910Y-108489325D01*
X167639169Y-108613728D01*
X167386632Y-108690334D01*
X167124001Y-108716201D01*
X167123999Y-108716201D01*
X166861368Y-108690334D01*
X166608831Y-108613728D01*
X166376090Y-108489325D01*
X166172092Y-108321908D01*
X166004675Y-108117910D01*
X165880272Y-107885169D01*
X165803666Y-107632632D01*
X165777799Y-107370001D01*
X165777799Y-107369999D01*
X165803666Y-107107368D01*
X165880272Y-106854831D01*
X166004675Y-106622090D01*
X166172092Y-106418092D01*
X166376090Y-106250675D01*
X166608831Y-106126272D01*
X166861368Y-106049666D01*
X167123999Y-106023799D01*
X167124001Y-106023799D01*
X167386632Y-106049666D01*
G37*
G36*
X174386632Y-106049666D02*
G01*
X174639169Y-106126272D01*
X174871910Y-106250675D01*
X175075908Y-106418092D01*
X175243325Y-106622090D01*
X175367728Y-106854831D01*
X175444334Y-107107368D01*
X175470201Y-107369999D01*
X175470201Y-107370001D01*
X175444334Y-107632632D01*
X175367728Y-107885169D01*
X175243325Y-108117910D01*
X175075908Y-108321908D01*
X174871910Y-108489325D01*
X174639169Y-108613728D01*
X174386632Y-108690334D01*
X174124001Y-108716201D01*
X174123999Y-108716201D01*
X173861368Y-108690334D01*
X173608831Y-108613728D01*
X173376090Y-108489325D01*
X173172092Y-108321908D01*
X173004675Y-108117910D01*
X172880272Y-107885169D01*
X172803666Y-107632632D01*
X172777799Y-107370001D01*
X172777799Y-107369999D01*
X172803666Y-107107368D01*
X172880272Y-106854831D01*
X173004675Y-106622090D01*
X173172092Y-106418092D01*
X173376090Y-106250675D01*
X173608831Y-106126272D01*
X173861368Y-106049666D01*
X174123999Y-106023799D01*
X174124001Y-106023799D01*
X174386632Y-106049666D01*
G37*
G36*
X170886632Y-106049666D02*
G01*
X171139169Y-106126272D01*
X171371910Y-106250675D01*
X171575908Y-106418092D01*
X171743325Y-106622090D01*
X171867728Y-106854831D01*
X171944334Y-107107368D01*
X171970201Y-107369999D01*
X171970201Y-107370001D01*
X171944334Y-107632632D01*
X171867728Y-107885169D01*
X171743325Y-108117910D01*
X171575908Y-108321908D01*
X171371910Y-108489325D01*
X171139169Y-108613728D01*
X170886632Y-108690334D01*
X170624001Y-108716201D01*
X170623999Y-108716201D01*
X170361368Y-108690334D01*
X170108831Y-108613728D01*
X169876090Y-108489325D01*
X169672092Y-108321908D01*
X169504675Y-108117910D01*
X169380272Y-107885169D01*
X169303666Y-107632632D01*
X169277799Y-107370001D01*
X169277799Y-107369999D01*
X169303666Y-107107368D01*
X169380272Y-106854831D01*
X169504675Y-106622090D01*
X169672092Y-106418092D01*
X169876090Y-106250675D01*
X170108831Y-106126272D01*
X170361368Y-106049666D01*
X170623999Y-106023799D01*
X170624001Y-106023799D01*
X170886632Y-106049666D01*
G37*
G36*
X160386632Y-106049666D02*
G01*
X160639169Y-106126272D01*
X160871910Y-106250675D01*
X161075908Y-106418092D01*
X161243325Y-106622090D01*
X161367728Y-106854831D01*
X161444334Y-107107368D01*
X161470201Y-107369999D01*
X161470201Y-107370001D01*
X161444334Y-107632632D01*
X161367728Y-107885169D01*
X161243325Y-108117910D01*
X161075908Y-108321908D01*
X160871910Y-108489325D01*
X160639169Y-108613728D01*
X160386632Y-108690334D01*
X160124001Y-108716201D01*
X160123999Y-108716201D01*
X159861368Y-108690334D01*
X159608831Y-108613728D01*
X159376090Y-108489325D01*
X159172092Y-108321908D01*
X159004675Y-108117910D01*
X158880272Y-107885169D01*
X158803666Y-107632632D01*
X158777799Y-107370001D01*
X158777799Y-107369999D01*
X158803666Y-107107368D01*
X158880272Y-106854831D01*
X159004675Y-106622090D01*
X159172092Y-106418092D01*
X159376090Y-106250675D01*
X159608831Y-106126272D01*
X159861368Y-106049666D01*
X160123999Y-106023799D01*
X160124001Y-106023799D01*
X160386632Y-106049666D01*
G37*
G36*
X156886632Y-106049666D02*
G01*
X157139169Y-106126272D01*
X157371910Y-106250675D01*
X157575908Y-106418092D01*
X157743325Y-106622090D01*
X157867728Y-106854831D01*
X157944334Y-107107368D01*
X157970201Y-107369999D01*
X157970201Y-107370001D01*
X157944334Y-107632632D01*
X157867728Y-107885169D01*
X157743325Y-108117910D01*
X157575908Y-108321908D01*
X157371910Y-108489325D01*
X157139169Y-108613728D01*
X156886632Y-108690334D01*
X156624001Y-108716201D01*
X156623999Y-108716201D01*
X156361368Y-108690334D01*
X156108831Y-108613728D01*
X155876090Y-108489325D01*
X155672092Y-108321908D01*
X155504675Y-108117910D01*
X155380272Y-107885169D01*
X155303666Y-107632632D01*
X155277799Y-107370001D01*
X155277799Y-107369999D01*
X155303666Y-107107368D01*
X155380272Y-106854831D01*
X155504675Y-106622090D01*
X155672092Y-106418092D01*
X155876090Y-106250675D01*
X156108831Y-106126272D01*
X156361368Y-106049666D01*
X156623999Y-106023799D01*
X156624001Y-106023799D01*
X156886632Y-106049666D01*
G37*
G36*
X153386632Y-106049666D02*
G01*
X153639169Y-106126272D01*
X153871910Y-106250675D01*
X154075908Y-106418092D01*
X154243325Y-106622090D01*
X154367728Y-106854831D01*
X154444334Y-107107368D01*
X154470201Y-107369999D01*
X154470201Y-107370001D01*
X154444334Y-107632632D01*
X154367728Y-107885169D01*
X154243325Y-108117910D01*
X154075908Y-108321908D01*
X153871910Y-108489325D01*
X153639169Y-108613728D01*
X153386632Y-108690334D01*
X153124001Y-108716201D01*
X153123999Y-108716201D01*
X152861368Y-108690334D01*
X152608831Y-108613728D01*
X152376090Y-108489325D01*
X152172092Y-108321908D01*
X152004675Y-108117910D01*
X151880272Y-107885169D01*
X151803666Y-107632632D01*
X151777799Y-107370001D01*
X151777799Y-107369999D01*
X151803666Y-107107368D01*
X151880272Y-106854831D01*
X152004675Y-106622090D01*
X152172092Y-106418092D01*
X152376090Y-106250675D01*
X152608831Y-106126272D01*
X152861368Y-106049666D01*
X153123999Y-106023799D01*
X153124001Y-106023799D01*
X153386632Y-106049666D01*
G37*
G36*
X149886632Y-106049666D02*
G01*
X150139169Y-106126272D01*
X150371910Y-106250675D01*
X150575908Y-106418092D01*
X150743325Y-106622090D01*
X150867728Y-106854831D01*
X150944334Y-107107368D01*
X150970201Y-107369999D01*
X150970201Y-107370001D01*
X150944334Y-107632632D01*
X150867728Y-107885169D01*
X150743325Y-108117910D01*
X150575908Y-108321908D01*
X150371910Y-108489325D01*
X150139169Y-108613728D01*
X149886632Y-108690334D01*
X149624001Y-108716201D01*
X149623999Y-108716201D01*
X149361368Y-108690334D01*
X149108831Y-108613728D01*
X148876090Y-108489325D01*
X148672092Y-108321908D01*
X148504675Y-108117910D01*
X148380272Y-107885169D01*
X148303666Y-107632632D01*
X148277799Y-107370001D01*
X148277799Y-107369999D01*
X148303666Y-107107368D01*
X148380272Y-106854831D01*
X148504675Y-106622090D01*
X148672092Y-106418092D01*
X148876090Y-106250675D01*
X149108831Y-106126272D01*
X149361368Y-106049666D01*
X149623999Y-106023799D01*
X149624001Y-106023799D01*
X149886632Y-106049666D01*
G37*
G36*
X163886632Y-106049666D02*
G01*
X164139169Y-106126272D01*
X164371910Y-106250675D01*
X164575908Y-106418092D01*
X164743325Y-106622090D01*
X164867728Y-106854831D01*
X164944334Y-107107368D01*
X164970201Y-107369999D01*
X164970201Y-107370001D01*
X164944334Y-107632632D01*
X164867728Y-107885169D01*
X164743325Y-108117910D01*
X164575908Y-108321908D01*
X164371910Y-108489325D01*
X164139169Y-108613728D01*
X163886632Y-108690334D01*
X163624001Y-108716201D01*
X163623999Y-108716201D01*
X163361368Y-108690334D01*
X163108831Y-108613728D01*
X162876090Y-108489325D01*
X162672092Y-108321908D01*
X162504675Y-108117910D01*
X162380272Y-107885169D01*
X162303666Y-107632632D01*
X162277799Y-107370001D01*
X162277799Y-107369999D01*
X162303666Y-107107368D01*
X162380272Y-106854831D01*
X162504675Y-106622090D01*
X162672092Y-106418092D01*
X162876090Y-106250675D01*
X163108831Y-106126272D01*
X163361368Y-106049666D01*
X163623999Y-106023799D01*
X163624001Y-106023799D01*
X163886632Y-106049666D01*
G37*
G36*
X146257449Y-107012131D02*
G01*
X146257452Y-107012132D01*
X146257451Y-107012132D01*
X146386876Y-107065741D01*
X146503363Y-107143575D01*
X146602425Y-107242637D01*
X146680259Y-107359124D01*
X146684764Y-107370001D01*
X146733869Y-107488551D01*
X146761200Y-107625953D01*
X146761200Y-107766047D01*
X146733869Y-107903449D01*
X146733868Y-107903451D01*
X146680259Y-108032876D01*
X146602425Y-108149363D01*
X146503363Y-108248425D01*
X146386876Y-108326259D01*
X146281355Y-108369967D01*
X146257449Y-108379869D01*
X146120047Y-108407200D01*
X145979953Y-108407200D01*
X145842551Y-108379869D01*
X145818645Y-108369967D01*
X145713124Y-108326259D01*
X145596637Y-108248425D01*
X145497575Y-108149363D01*
X145419741Y-108032876D01*
X145366132Y-107903451D01*
X145366131Y-107903449D01*
X145338800Y-107766047D01*
X145338800Y-107625953D01*
X145366131Y-107488551D01*
X145415236Y-107370001D01*
X145419741Y-107359124D01*
X145497575Y-107242637D01*
X145596637Y-107143575D01*
X145713124Y-107065741D01*
X145842549Y-107012132D01*
X145842548Y-107012132D01*
X145842551Y-107012131D01*
X145979953Y-106984800D01*
X146120047Y-106984800D01*
X146257449Y-107012131D01*
G37*
G36*
X137029290Y-105062105D02*
G01*
X137058568Y-105070986D01*
X137085545Y-105085406D01*
X137109190Y-105104810D01*
X137128594Y-105128455D01*
X137143014Y-105155432D01*
X137151895Y-105184710D01*
X137155200Y-105218267D01*
X137155200Y-107001733D01*
X137151895Y-107035290D01*
X137143014Y-107064568D01*
X137128594Y-107091545D01*
X137109190Y-107115190D01*
X137085545Y-107134594D01*
X137058568Y-107149014D01*
X137029290Y-107157895D01*
X136995733Y-107161200D01*
X136562267Y-107161200D01*
X136528710Y-107157895D01*
X136499432Y-107149014D01*
X136472455Y-107134594D01*
X136448810Y-107115190D01*
X136429406Y-107091545D01*
X136414986Y-107064568D01*
X136406105Y-107035290D01*
X136402800Y-107001733D01*
X136402800Y-105218267D01*
X136406105Y-105184710D01*
X136414986Y-105155432D01*
X136429406Y-105128455D01*
X136448810Y-105104810D01*
X136472455Y-105085406D01*
X136499432Y-105070986D01*
X136528710Y-105062105D01*
X136562267Y-105058800D01*
X136995733Y-105058800D01*
X137029290Y-105062105D01*
G37*
G36*
X139569290Y-105062105D02*
G01*
X139598568Y-105070986D01*
X139625545Y-105085406D01*
X139649190Y-105104810D01*
X139668594Y-105128455D01*
X139683014Y-105155432D01*
X139691895Y-105184710D01*
X139695200Y-105218267D01*
X139695200Y-107001733D01*
X139691895Y-107035290D01*
X139683014Y-107064568D01*
X139668594Y-107091545D01*
X139649190Y-107115190D01*
X139625545Y-107134594D01*
X139598568Y-107149014D01*
X139569290Y-107157895D01*
X139535733Y-107161200D01*
X139102267Y-107161200D01*
X139068710Y-107157895D01*
X139039432Y-107149014D01*
X139012455Y-107134594D01*
X138988810Y-107115190D01*
X138969406Y-107091545D01*
X138954986Y-107064568D01*
X138946105Y-107035290D01*
X138942800Y-107001733D01*
X138942800Y-105218267D01*
X138946105Y-105184710D01*
X138954986Y-105155432D01*
X138969406Y-105128455D01*
X138988810Y-105104810D01*
X139012455Y-105085406D01*
X139039432Y-105070986D01*
X139068710Y-105062105D01*
X139102267Y-105058800D01*
X139535733Y-105058800D01*
X139569290Y-105062105D01*
G37*
G36*
X138299290Y-105062105D02*
G01*
X138328568Y-105070986D01*
X138355545Y-105085406D01*
X138379190Y-105104810D01*
X138398594Y-105128455D01*
X138413014Y-105155432D01*
X138421895Y-105184710D01*
X138425200Y-105218267D01*
X138425200Y-107001733D01*
X138421895Y-107035290D01*
X138413014Y-107064568D01*
X138398594Y-107091545D01*
X138379190Y-107115190D01*
X138355545Y-107134594D01*
X138328568Y-107149014D01*
X138299290Y-107157895D01*
X138265733Y-107161200D01*
X137832267Y-107161200D01*
X137798710Y-107157895D01*
X137769432Y-107149014D01*
X137742455Y-107134594D01*
X137718810Y-107115190D01*
X137699406Y-107091545D01*
X137684986Y-107064568D01*
X137676105Y-107035290D01*
X137672800Y-107001733D01*
X137672800Y-105218267D01*
X137676105Y-105184710D01*
X137684986Y-105155432D01*
X137699406Y-105128455D01*
X137718810Y-105104810D01*
X137742455Y-105085406D01*
X137769432Y-105070986D01*
X137798710Y-105062105D01*
X137832267Y-105058800D01*
X138265733Y-105058800D01*
X138299290Y-105062105D01*
G37*
G36*
X135759290Y-105062105D02*
G01*
X135788568Y-105070986D01*
X135815545Y-105085406D01*
X135839190Y-105104810D01*
X135858594Y-105128455D01*
X135873014Y-105155432D01*
X135881895Y-105184710D01*
X135885200Y-105218267D01*
X135885200Y-107001733D01*
X135881895Y-107035290D01*
X135873014Y-107064568D01*
X135858594Y-107091545D01*
X135839190Y-107115190D01*
X135815545Y-107134594D01*
X135788568Y-107149014D01*
X135759290Y-107157895D01*
X135725733Y-107161200D01*
X135292267Y-107161200D01*
X135258710Y-107157895D01*
X135229432Y-107149014D01*
X135202455Y-107134594D01*
X135178810Y-107115190D01*
X135159406Y-107091545D01*
X135144986Y-107064568D01*
X135136105Y-107035290D01*
X135132800Y-107001733D01*
X135132800Y-105218267D01*
X135136105Y-105184710D01*
X135144986Y-105155432D01*
X135159406Y-105128455D01*
X135178810Y-105104810D01*
X135202455Y-105085406D01*
X135229432Y-105070986D01*
X135258710Y-105062105D01*
X135292267Y-105058800D01*
X135725733Y-105058800D01*
X135759290Y-105062105D01*
G37*
G36*
X134489290Y-105062105D02*
G01*
X134518568Y-105070986D01*
X134545545Y-105085406D01*
X134569190Y-105104810D01*
X134588594Y-105128455D01*
X134603014Y-105155432D01*
X134611895Y-105184710D01*
X134615200Y-105218267D01*
X134615200Y-107001733D01*
X134611895Y-107035290D01*
X134603014Y-107064568D01*
X134588594Y-107091545D01*
X134569190Y-107115190D01*
X134545545Y-107134594D01*
X134518568Y-107149014D01*
X134489290Y-107157895D01*
X134455733Y-107161200D01*
X134022267Y-107161200D01*
X133988710Y-107157895D01*
X133959432Y-107149014D01*
X133932455Y-107134594D01*
X133908810Y-107115190D01*
X133889406Y-107091545D01*
X133874986Y-107064568D01*
X133866105Y-107035290D01*
X133862800Y-107001733D01*
X133862800Y-105218267D01*
X133866105Y-105184710D01*
X133874986Y-105155432D01*
X133889406Y-105128455D01*
X133908810Y-105104810D01*
X133932455Y-105085406D01*
X133959432Y-105070986D01*
X133988710Y-105062105D01*
X134022267Y-105058800D01*
X134455733Y-105058800D01*
X134489290Y-105062105D01*
G37*
G36*
X133219290Y-105062105D02*
G01*
X133248568Y-105070986D01*
X133275545Y-105085406D01*
X133299190Y-105104810D01*
X133318594Y-105128455D01*
X133333014Y-105155432D01*
X133341895Y-105184710D01*
X133345200Y-105218267D01*
X133345200Y-107001733D01*
X133341895Y-107035290D01*
X133333014Y-107064568D01*
X133318594Y-107091545D01*
X133299190Y-107115190D01*
X133275545Y-107134594D01*
X133248568Y-107149014D01*
X133219290Y-107157895D01*
X133185733Y-107161200D01*
X132752267Y-107161200D01*
X132718710Y-107157895D01*
X132689432Y-107149014D01*
X132662455Y-107134594D01*
X132638810Y-107115190D01*
X132619406Y-107091545D01*
X132604986Y-107064568D01*
X132596105Y-107035290D01*
X132592800Y-107001733D01*
X132592800Y-105218267D01*
X132596105Y-105184710D01*
X132604986Y-105155432D01*
X132619406Y-105128455D01*
X132638810Y-105104810D01*
X132662455Y-105085406D01*
X132689432Y-105070986D01*
X132718710Y-105062105D01*
X132752267Y-105058800D01*
X133185733Y-105058800D01*
X133219290Y-105062105D01*
G37*
G36*
X131949290Y-105062105D02*
G01*
X131978568Y-105070986D01*
X132005545Y-105085406D01*
X132029190Y-105104810D01*
X132048594Y-105128455D01*
X132063014Y-105155432D01*
X132071895Y-105184710D01*
X132075200Y-105218267D01*
X132075200Y-107001733D01*
X132071895Y-107035290D01*
X132063014Y-107064568D01*
X132048594Y-107091545D01*
X132029190Y-107115190D01*
X132005545Y-107134594D01*
X131978568Y-107149014D01*
X131949290Y-107157895D01*
X131915733Y-107161200D01*
X131482267Y-107161200D01*
X131448710Y-107157895D01*
X131419432Y-107149014D01*
X131392455Y-107134594D01*
X131368810Y-107115190D01*
X131349406Y-107091545D01*
X131334986Y-107064568D01*
X131326105Y-107035290D01*
X131322800Y-107001733D01*
X131322800Y-105218267D01*
X131326105Y-105184710D01*
X131334986Y-105155432D01*
X131349406Y-105128455D01*
X131368810Y-105104810D01*
X131392455Y-105085406D01*
X131419432Y-105070986D01*
X131448710Y-105062105D01*
X131482267Y-105058800D01*
X131915733Y-105058800D01*
X131949290Y-105062105D01*
G37*
G36*
X130679290Y-105062105D02*
G01*
X130708568Y-105070986D01*
X130735545Y-105085406D01*
X130759190Y-105104810D01*
X130778594Y-105128455D01*
X130793014Y-105155432D01*
X130801895Y-105184710D01*
X130805200Y-105218267D01*
X130805200Y-107001733D01*
X130801895Y-107035290D01*
X130793014Y-107064568D01*
X130778594Y-107091545D01*
X130759190Y-107115190D01*
X130735545Y-107134594D01*
X130708568Y-107149014D01*
X130679290Y-107157895D01*
X130645733Y-107161200D01*
X130212267Y-107161200D01*
X130178710Y-107157895D01*
X130149432Y-107149014D01*
X130122455Y-107134594D01*
X130098810Y-107115190D01*
X130079406Y-107091545D01*
X130064986Y-107064568D01*
X130056105Y-107035290D01*
X130052800Y-107001733D01*
X130052800Y-105218267D01*
X130056105Y-105184710D01*
X130064986Y-105155432D01*
X130079406Y-105128455D01*
X130098810Y-105104810D01*
X130122455Y-105085406D01*
X130149432Y-105070986D01*
X130178710Y-105062105D01*
X130212267Y-105058800D01*
X130645733Y-105058800D01*
X130679290Y-105062105D01*
G37*
G36*
X182874043Y-103697758D02*
G01*
X182919459Y-103711535D01*
X182961310Y-103733905D01*
X182997992Y-103764008D01*
X183028095Y-103800690D01*
X183050465Y-103842541D01*
X183064242Y-103887957D01*
X183069200Y-103938297D01*
X183069200Y-104849703D01*
X183064242Y-104900043D01*
X183050465Y-104945459D01*
X183028095Y-104987310D01*
X182997992Y-105023992D01*
X182961310Y-105054095D01*
X182919459Y-105076465D01*
X182874043Y-105090242D01*
X182823703Y-105095200D01*
X181412297Y-105095200D01*
X181361957Y-105090242D01*
X181316541Y-105076465D01*
X181274690Y-105054095D01*
X181238008Y-105023992D01*
X181207905Y-104987310D01*
X181185535Y-104945459D01*
X181171758Y-104900043D01*
X181166800Y-104849703D01*
X181166800Y-103938297D01*
X181171758Y-103887957D01*
X181185535Y-103842541D01*
X181207905Y-103800690D01*
X181238008Y-103764008D01*
X181274690Y-103733905D01*
X181316541Y-103711535D01*
X181361957Y-103697758D01*
X181412297Y-103692800D01*
X182823703Y-103692800D01*
X182874043Y-103697758D01*
G37*
G36*
X180152831Y-103756907D02*
G01*
X180199690Y-103771121D01*
X180242877Y-103794205D01*
X180280730Y-103825270D01*
X180311795Y-103863123D01*
X180334879Y-103906310D01*
X180349093Y-103953169D01*
X180354200Y-104005017D01*
X180354200Y-104625983D01*
X180349093Y-104677831D01*
X180334879Y-104724690D01*
X180311795Y-104767877D01*
X180280730Y-104805730D01*
X180242877Y-104836795D01*
X180199690Y-104859879D01*
X180152831Y-104874093D01*
X180100983Y-104879200D01*
X179055017Y-104879200D01*
X179003169Y-104874093D01*
X178956310Y-104859879D01*
X178913123Y-104836795D01*
X178875270Y-104805730D01*
X178844205Y-104767877D01*
X178821121Y-104724690D01*
X178806907Y-104677831D01*
X178801800Y-104625983D01*
X178801800Y-104005017D01*
X178806907Y-103953169D01*
X178821121Y-103906310D01*
X178844205Y-103863123D01*
X178875270Y-103825270D01*
X178913123Y-103794205D01*
X178956310Y-103771121D01*
X179003169Y-103756907D01*
X179055017Y-103751800D01*
X180100983Y-103751800D01*
X180152831Y-103756907D01*
G37*
G36*
X143463449Y-103456131D02*
G01*
X143463452Y-103456132D01*
X143463451Y-103456132D01*
X143592876Y-103509741D01*
X143709363Y-103587575D01*
X143808425Y-103686637D01*
X143886259Y-103803124D01*
X143926793Y-103900983D01*
X143939869Y-103932551D01*
X143967200Y-104069953D01*
X143967200Y-104210047D01*
X143939869Y-104347449D01*
X143939868Y-104347451D01*
X143886259Y-104476876D01*
X143808425Y-104593363D01*
X143709363Y-104692425D01*
X143592876Y-104770259D01*
X143507240Y-104805730D01*
X143463449Y-104823869D01*
X143326047Y-104851200D01*
X143185953Y-104851200D01*
X143048551Y-104823869D01*
X143004760Y-104805730D01*
X142919124Y-104770259D01*
X142802637Y-104692425D01*
X142703575Y-104593363D01*
X142625741Y-104476876D01*
X142572132Y-104347451D01*
X142572131Y-104347449D01*
X142544800Y-104210047D01*
X142544800Y-104069953D01*
X142572131Y-103932551D01*
X142585207Y-103900983D01*
X142625741Y-103803124D01*
X142703575Y-103686637D01*
X142802637Y-103587575D01*
X142919124Y-103509741D01*
X143048549Y-103456132D01*
X143048548Y-103456132D01*
X143048551Y-103456131D01*
X143185953Y-103428800D01*
X143326047Y-103428800D01*
X143463449Y-103456131D01*
G37*
G36*
X175803375Y-101488679D02*
G01*
X175848015Y-101502220D01*
X175889147Y-101524205D01*
X175925203Y-101553797D01*
X175954795Y-101589853D01*
X175976780Y-101630985D01*
X175990321Y-101675625D01*
X175995200Y-101725158D01*
X175995200Y-102744842D01*
X175990321Y-102794375D01*
X175976780Y-102839015D01*
X175954795Y-102880147D01*
X175925203Y-102916203D01*
X175889147Y-102945795D01*
X175848015Y-102967780D01*
X175803375Y-102981321D01*
X175753842Y-102986200D01*
X174757289Y-102986200D01*
X174744901Y-102987420D01*
X174732989Y-102991034D01*
X174722011Y-102996902D01*
X174712388Y-103004798D01*
X174704492Y-103014421D01*
X174698624Y-103025399D01*
X174695010Y-103037311D01*
X174693790Y-103049699D01*
X174695010Y-103062087D01*
X174698624Y-103073999D01*
X174704492Y-103084977D01*
X174712388Y-103094600D01*
X174796425Y-103178637D01*
X174874259Y-103295124D01*
X174879573Y-103307954D01*
X174927869Y-103424551D01*
X174955200Y-103561953D01*
X174955200Y-103702047D01*
X174927869Y-103839449D01*
X174927868Y-103839451D01*
X174874259Y-103968876D01*
X174874257Y-103968879D01*
X174847944Y-104008259D01*
X174796425Y-104085363D01*
X174697363Y-104184425D01*
X174580876Y-104262259D01*
X174475355Y-104305967D01*
X174451449Y-104315869D01*
X174314047Y-104343200D01*
X174173953Y-104343200D01*
X174036551Y-104315869D01*
X174012645Y-104305967D01*
X173907124Y-104262259D01*
X173790637Y-104184425D01*
X173691575Y-104085363D01*
X173640056Y-104008259D01*
X173613743Y-103968879D01*
X173613741Y-103968876D01*
X173560132Y-103839451D01*
X173560131Y-103839449D01*
X173532800Y-103702047D01*
X173532800Y-103561953D01*
X173560131Y-103424551D01*
X173608427Y-103307954D01*
X173613741Y-103295124D01*
X173691575Y-103178637D01*
X173775612Y-103094600D01*
X173783508Y-103084977D01*
X173789376Y-103073999D01*
X173792990Y-103062087D01*
X173794210Y-103049699D01*
X173792990Y-103037311D01*
X173789376Y-103025399D01*
X173783508Y-103014421D01*
X173775612Y-103004798D01*
X173765989Y-102996902D01*
X173755011Y-102991034D01*
X173743099Y-102987420D01*
X173730711Y-102986200D01*
X172734158Y-102986200D01*
X172684625Y-102981321D01*
X172639985Y-102967780D01*
X172598853Y-102945795D01*
X172562797Y-102916203D01*
X172533205Y-102880147D01*
X172511220Y-102839015D01*
X172497679Y-102794375D01*
X172492800Y-102744842D01*
X172492800Y-101725158D01*
X172497679Y-101675625D01*
X172511220Y-101630985D01*
X172533205Y-101589853D01*
X172562797Y-101553797D01*
X172598853Y-101524205D01*
X172639985Y-101502220D01*
X172684625Y-101488679D01*
X172734158Y-101483800D01*
X175753842Y-101483800D01*
X175803375Y-101488679D01*
G37*
G36*
X139397331Y-102606907D02*
G01*
X139444190Y-102621121D01*
X139487377Y-102644205D01*
X139525230Y-102675270D01*
X139556295Y-102713123D01*
X139579379Y-102756310D01*
X139593593Y-102803169D01*
X139598700Y-102855017D01*
X139598700Y-103900983D01*
X139593593Y-103952831D01*
X139579379Y-103999690D01*
X139556295Y-104042877D01*
X139525230Y-104080730D01*
X139487377Y-104111795D01*
X139444190Y-104134879D01*
X139397331Y-104149093D01*
X139345483Y-104154200D01*
X138724517Y-104154200D01*
X138672669Y-104149093D01*
X138625810Y-104134879D01*
X138582623Y-104111795D01*
X138544770Y-104080730D01*
X138513705Y-104042877D01*
X138490621Y-103999690D01*
X138476407Y-103952831D01*
X138471300Y-103900983D01*
X138471300Y-102855017D01*
X138476407Y-102803169D01*
X138490621Y-102756310D01*
X138513705Y-102713123D01*
X138544770Y-102675270D01*
X138582623Y-102644205D01*
X138625810Y-102621121D01*
X138672669Y-102606907D01*
X138724517Y-102601800D01*
X139345483Y-102601800D01*
X139397331Y-102606907D01*
G37*
G36*
X130567331Y-102606907D02*
G01*
X130614190Y-102621121D01*
X130657377Y-102644205D01*
X130695230Y-102675270D01*
X130726295Y-102713123D01*
X130749379Y-102756310D01*
X130763593Y-102803169D01*
X130768700Y-102855017D01*
X130768700Y-103900983D01*
X130763593Y-103952831D01*
X130749379Y-103999690D01*
X130726295Y-104042877D01*
X130695230Y-104080730D01*
X130657377Y-104111795D01*
X130614190Y-104134879D01*
X130567331Y-104149093D01*
X130515483Y-104154200D01*
X129894517Y-104154200D01*
X129842669Y-104149093D01*
X129795810Y-104134879D01*
X129752623Y-104111795D01*
X129714770Y-104080730D01*
X129683705Y-104042877D01*
X129660621Y-103999690D01*
X129646407Y-103952831D01*
X129641300Y-103900983D01*
X129641300Y-102855017D01*
X129646407Y-102803169D01*
X129660621Y-102756310D01*
X129683705Y-102713123D01*
X129714770Y-102675270D01*
X129752623Y-102644205D01*
X129795810Y-102621121D01*
X129842669Y-102606907D01*
X129894517Y-102601800D01*
X130515483Y-102601800D01*
X130567331Y-102606907D01*
G37*
G36*
X137522331Y-102606907D02*
G01*
X137569190Y-102621121D01*
X137612377Y-102644205D01*
X137650230Y-102675270D01*
X137681295Y-102713123D01*
X137704379Y-102756310D01*
X137718593Y-102803169D01*
X137723700Y-102855017D01*
X137723700Y-103900983D01*
X137718593Y-103952831D01*
X137704379Y-103999690D01*
X137681295Y-104042877D01*
X137650230Y-104080730D01*
X137612377Y-104111795D01*
X137569190Y-104134879D01*
X137522331Y-104149093D01*
X137470483Y-104154200D01*
X136849517Y-104154200D01*
X136797669Y-104149093D01*
X136750810Y-104134879D01*
X136707623Y-104111795D01*
X136669770Y-104080730D01*
X136638705Y-104042877D01*
X136615621Y-103999690D01*
X136601407Y-103952831D01*
X136596300Y-103900983D01*
X136596300Y-102855017D01*
X136601407Y-102803169D01*
X136615621Y-102756310D01*
X136638705Y-102713123D01*
X136669770Y-102675270D01*
X136707623Y-102644205D01*
X136750810Y-102621121D01*
X136797669Y-102606907D01*
X136849517Y-102601800D01*
X137470483Y-102601800D01*
X137522331Y-102606907D01*
G37*
G36*
X132442331Y-102606907D02*
G01*
X132489190Y-102621121D01*
X132532377Y-102644205D01*
X132570230Y-102675270D01*
X132601295Y-102713123D01*
X132624379Y-102756310D01*
X132638593Y-102803169D01*
X132643700Y-102855017D01*
X132643700Y-103900983D01*
X132638593Y-103952831D01*
X132624379Y-103999690D01*
X132601295Y-104042877D01*
X132570230Y-104080730D01*
X132532377Y-104111795D01*
X132489190Y-104134879D01*
X132442331Y-104149093D01*
X132390483Y-104154200D01*
X131769517Y-104154200D01*
X131717669Y-104149093D01*
X131670810Y-104134879D01*
X131627623Y-104111795D01*
X131589770Y-104080730D01*
X131558705Y-104042877D01*
X131535621Y-103999690D01*
X131521407Y-103952831D01*
X131516300Y-103900983D01*
X131516300Y-102855017D01*
X131521407Y-102803169D01*
X131535621Y-102756310D01*
X131558705Y-102713123D01*
X131589770Y-102675270D01*
X131627623Y-102644205D01*
X131670810Y-102621121D01*
X131717669Y-102606907D01*
X131769517Y-102601800D01*
X132390483Y-102601800D01*
X132442331Y-102606907D01*
G37*
G36*
X135919831Y-102606907D02*
G01*
X135966690Y-102621121D01*
X136009877Y-102644205D01*
X136047730Y-102675270D01*
X136078795Y-102713123D01*
X136101879Y-102756310D01*
X136116093Y-102803169D01*
X136121200Y-102855017D01*
X136121200Y-103900983D01*
X136116093Y-103952831D01*
X136101879Y-103999690D01*
X136078795Y-104042877D01*
X136047730Y-104080730D01*
X136009877Y-104111795D01*
X135966690Y-104134879D01*
X135919831Y-104149093D01*
X135867983Y-104154200D01*
X135247017Y-104154200D01*
X135195169Y-104149093D01*
X135148310Y-104134879D01*
X135105123Y-104111795D01*
X135067270Y-104080730D01*
X135036205Y-104042877D01*
X135013121Y-103999690D01*
X134998907Y-103952831D01*
X134993800Y-103900983D01*
X134993800Y-102855017D01*
X134998907Y-102803169D01*
X135013121Y-102756310D01*
X135036205Y-102713123D01*
X135067270Y-102675270D01*
X135105123Y-102644205D01*
X135148310Y-102621121D01*
X135195169Y-102606907D01*
X135247017Y-102601800D01*
X135867983Y-102601800D01*
X135919831Y-102606907D01*
G37*
G36*
X134044831Y-102606907D02*
G01*
X134091690Y-102621121D01*
X134134877Y-102644205D01*
X134172730Y-102675270D01*
X134203795Y-102713123D01*
X134226879Y-102756310D01*
X134241093Y-102803169D01*
X134246200Y-102855017D01*
X134246200Y-103900983D01*
X134241093Y-103952831D01*
X134226879Y-103999690D01*
X134203795Y-104042877D01*
X134172730Y-104080730D01*
X134134877Y-104111795D01*
X134091690Y-104134879D01*
X134044831Y-104149093D01*
X133992983Y-104154200D01*
X133372017Y-104154200D01*
X133320169Y-104149093D01*
X133273310Y-104134879D01*
X133230123Y-104111795D01*
X133192270Y-104080730D01*
X133161205Y-104042877D01*
X133138121Y-103999690D01*
X133123907Y-103952831D01*
X133118800Y-103900983D01*
X133118800Y-102855017D01*
X133123907Y-102803169D01*
X133138121Y-102756310D01*
X133161205Y-102713123D01*
X133192270Y-102675270D01*
X133230123Y-102644205D01*
X133273310Y-102621121D01*
X133320169Y-102606907D01*
X133372017Y-102601800D01*
X133992983Y-102601800D01*
X134044831Y-102606907D01*
G37*
G36*
X154848375Y-101488679D02*
G01*
X154893015Y-101502220D01*
X154934147Y-101524205D01*
X154970203Y-101553797D01*
X154999795Y-101589853D01*
X155021780Y-101630985D01*
X155035321Y-101675625D01*
X155040200Y-101725158D01*
X155040200Y-102744842D01*
X155035321Y-102794375D01*
X155021780Y-102839015D01*
X154999795Y-102880147D01*
X154970203Y-102916203D01*
X154934147Y-102945795D01*
X154893015Y-102967780D01*
X154848375Y-102981321D01*
X154798842Y-102986200D01*
X154118541Y-102986200D01*
X154106153Y-102987420D01*
X154094241Y-102991034D01*
X154083263Y-102996902D01*
X154073640Y-103004798D01*
X154065744Y-103014421D01*
X154059876Y-103025399D01*
X154056262Y-103037311D01*
X154055042Y-103049699D01*
X154056262Y-103062087D01*
X154059873Y-103073994D01*
X154099869Y-103170551D01*
X154127200Y-103307953D01*
X154127200Y-103448047D01*
X154099869Y-103585449D01*
X154099868Y-103585451D01*
X154046259Y-103714876D01*
X153968425Y-103831363D01*
X153869363Y-103930425D01*
X153752876Y-104008259D01*
X153647355Y-104051967D01*
X153623449Y-104061869D01*
X153486047Y-104089200D01*
X153345953Y-104089200D01*
X153208551Y-104061869D01*
X153184645Y-104051967D01*
X153079124Y-104008259D01*
X152962637Y-103930425D01*
X152863575Y-103831363D01*
X152785741Y-103714876D01*
X152732132Y-103585451D01*
X152732131Y-103585449D01*
X152704800Y-103448047D01*
X152704800Y-103307953D01*
X152732131Y-103170551D01*
X152772127Y-103073994D01*
X152775738Y-103062087D01*
X152776958Y-103049699D01*
X152775738Y-103037311D01*
X152772124Y-103025399D01*
X152766256Y-103014421D01*
X152758359Y-103004798D01*
X152748737Y-102996901D01*
X152737759Y-102991033D01*
X152725847Y-102987420D01*
X152713459Y-102986200D01*
X151779158Y-102986200D01*
X151729625Y-102981321D01*
X151684985Y-102967780D01*
X151643853Y-102945795D01*
X151607797Y-102916203D01*
X151578205Y-102880147D01*
X151556220Y-102839015D01*
X151542679Y-102794375D01*
X151537800Y-102744842D01*
X151537800Y-101725158D01*
X151542679Y-101675625D01*
X151556220Y-101630985D01*
X151578205Y-101589853D01*
X151607797Y-101553797D01*
X151643853Y-101524205D01*
X151684985Y-101502220D01*
X151729625Y-101488679D01*
X151779158Y-101483800D01*
X154798842Y-101483800D01*
X154848375Y-101488679D01*
G37*
G36*
X180152831Y-101881907D02*
G01*
X180199690Y-101896121D01*
X180242877Y-101919205D01*
X180280730Y-101950270D01*
X180311795Y-101988123D01*
X180334879Y-102031310D01*
X180349093Y-102078169D01*
X180354200Y-102130017D01*
X180354200Y-102750983D01*
X180349093Y-102802831D01*
X180334879Y-102849690D01*
X180311795Y-102892877D01*
X180280730Y-102930730D01*
X180242877Y-102961795D01*
X180199690Y-102984879D01*
X180152831Y-102999093D01*
X180100983Y-103004200D01*
X179055017Y-103004200D01*
X179003169Y-102999093D01*
X178956310Y-102984879D01*
X178913123Y-102961795D01*
X178875270Y-102930730D01*
X178844205Y-102892877D01*
X178821121Y-102849690D01*
X178806907Y-102802831D01*
X178801800Y-102750983D01*
X178801800Y-102130017D01*
X178806907Y-102078169D01*
X178821121Y-102031310D01*
X178844205Y-101988123D01*
X178875270Y-101950270D01*
X178913123Y-101919205D01*
X178956310Y-101896121D01*
X179003169Y-101881907D01*
X179055017Y-101876800D01*
X180100983Y-101876800D01*
X180152831Y-101881907D01*
G37*
G36*
X163831449Y-101424131D02*
G01*
X163831452Y-101424132D01*
X163831451Y-101424132D01*
X163960876Y-101477741D01*
X164077363Y-101555575D01*
X164176425Y-101654637D01*
X164254259Y-101771124D01*
X164259573Y-101783954D01*
X164307869Y-101900551D01*
X164335200Y-102037953D01*
X164335200Y-102178047D01*
X164307869Y-102315449D01*
X164307868Y-102315451D01*
X164254259Y-102444876D01*
X164254257Y-102444879D01*
X164227944Y-102484259D01*
X164176425Y-102561363D01*
X164077363Y-102660425D01*
X163960876Y-102738259D01*
X163866535Y-102777336D01*
X163831449Y-102791869D01*
X163694047Y-102819200D01*
X163553953Y-102819200D01*
X163416551Y-102791869D01*
X163381465Y-102777336D01*
X163287124Y-102738259D01*
X163170637Y-102660425D01*
X163071575Y-102561363D01*
X163020056Y-102484259D01*
X162993743Y-102444879D01*
X162993741Y-102444876D01*
X162940132Y-102315451D01*
X162940131Y-102315449D01*
X162912800Y-102178047D01*
X162912800Y-102037953D01*
X162940131Y-101900551D01*
X162988427Y-101783954D01*
X162993741Y-101771124D01*
X163071575Y-101654637D01*
X163170637Y-101555575D01*
X163287124Y-101477741D01*
X163416549Y-101424132D01*
X163416548Y-101424132D01*
X163416551Y-101424131D01*
X163553953Y-101396800D01*
X163694047Y-101396800D01*
X163831449Y-101424131D01*
G37*
G36*
X156671449Y-101170131D02*
G01*
X156695355Y-101180033D01*
X156800876Y-101223741D01*
X156800879Y-101223743D01*
X156917363Y-101301575D01*
X157016425Y-101400637D01*
X157067946Y-101477743D01*
X157094259Y-101517124D01*
X157114209Y-101565289D01*
X157147869Y-101646551D01*
X157175200Y-101783953D01*
X157175200Y-101924047D01*
X157147869Y-102061449D01*
X157147868Y-102061451D01*
X157094259Y-102190876D01*
X157094257Y-102190879D01*
X157072132Y-102223992D01*
X157016425Y-102307363D01*
X156917363Y-102406425D01*
X156800876Y-102484259D01*
X156695355Y-102527967D01*
X156671449Y-102537869D01*
X156534047Y-102565200D01*
X156393953Y-102565200D01*
X156256551Y-102537869D01*
X156232645Y-102527967D01*
X156127124Y-102484259D01*
X156010637Y-102406425D01*
X155911575Y-102307363D01*
X155855868Y-102223992D01*
X155833743Y-102190879D01*
X155833741Y-102190876D01*
X155780132Y-102061451D01*
X155780131Y-102061449D01*
X155752800Y-101924047D01*
X155752800Y-101783953D01*
X155780131Y-101646551D01*
X155813791Y-101565289D01*
X155833741Y-101517124D01*
X155860055Y-101477743D01*
X155911575Y-101400637D01*
X156010637Y-101301575D01*
X156127121Y-101223743D01*
X156127124Y-101223741D01*
X156232645Y-101180033D01*
X156256551Y-101170131D01*
X156393953Y-101142800D01*
X156534047Y-101142800D01*
X156671449Y-101170131D01*
G37*
G36*
X182874043Y-100897758D02*
G01*
X182919459Y-100911535D01*
X182961310Y-100933905D01*
X182997992Y-100964008D01*
X183028095Y-101000690D01*
X183050465Y-101042541D01*
X183064242Y-101087957D01*
X183069200Y-101138297D01*
X183069200Y-102049703D01*
X183064242Y-102100043D01*
X183050465Y-102145459D01*
X183028095Y-102187310D01*
X182997992Y-102223992D01*
X182961310Y-102254095D01*
X182919459Y-102276465D01*
X182874043Y-102290242D01*
X182823703Y-102295200D01*
X181412297Y-102295200D01*
X181361957Y-102290242D01*
X181316541Y-102276465D01*
X181274690Y-102254095D01*
X181238008Y-102223992D01*
X181207905Y-102187310D01*
X181185535Y-102145459D01*
X181171758Y-102100043D01*
X181166800Y-102049703D01*
X181166800Y-101138297D01*
X181171758Y-101087957D01*
X181185535Y-101042541D01*
X181207905Y-101000690D01*
X181238008Y-100964008D01*
X181274690Y-100933905D01*
X181316541Y-100911535D01*
X181361957Y-100897758D01*
X181412297Y-100892800D01*
X182823703Y-100892800D01*
X182874043Y-100897758D01*
G37*
G36*
X179785449Y-100154131D02*
G01*
X179785452Y-100154132D01*
X179785451Y-100154132D01*
X179914876Y-100207741D01*
X180031363Y-100285575D01*
X180130425Y-100384637D01*
X180208259Y-100501124D01*
X180251967Y-100606645D01*
X180261869Y-100630551D01*
X180289200Y-100767953D01*
X180289200Y-100908047D01*
X180261869Y-101045449D01*
X180261868Y-101045451D01*
X180208259Y-101174876D01*
X180130425Y-101291363D01*
X180031363Y-101390425D01*
X179914876Y-101468259D01*
X179809355Y-101511967D01*
X179785449Y-101521869D01*
X179648047Y-101549200D01*
X179507953Y-101549200D01*
X179370551Y-101521869D01*
X179346645Y-101511967D01*
X179241124Y-101468259D01*
X179124637Y-101390425D01*
X179025575Y-101291363D01*
X178947741Y-101174876D01*
X178894132Y-101045451D01*
X178894131Y-101045449D01*
X178866800Y-100908047D01*
X178866800Y-100767953D01*
X178894131Y-100630551D01*
X178904033Y-100606645D01*
X178947741Y-100501124D01*
X179025575Y-100384637D01*
X179124637Y-100285575D01*
X179241124Y-100207741D01*
X179370549Y-100154132D01*
X179370548Y-100154132D01*
X179370551Y-100154131D01*
X179507953Y-100126800D01*
X179648047Y-100126800D01*
X179785449Y-100154131D01*
G37*
G36*
X182874043Y-99125758D02*
G01*
X182919459Y-99139535D01*
X182961310Y-99161905D01*
X182997992Y-99192008D01*
X183028095Y-99228690D01*
X183050465Y-99270541D01*
X183064242Y-99315957D01*
X183069200Y-99366297D01*
X183069200Y-100277703D01*
X183064242Y-100328043D01*
X183050465Y-100373459D01*
X183028095Y-100415310D01*
X182997992Y-100451992D01*
X182961310Y-100482095D01*
X182919459Y-100504465D01*
X182874043Y-100518242D01*
X182823703Y-100523200D01*
X181412297Y-100523200D01*
X181361957Y-100518242D01*
X181316541Y-100504465D01*
X181274690Y-100482095D01*
X181238008Y-100451992D01*
X181207905Y-100415310D01*
X181185535Y-100373459D01*
X181171758Y-100328043D01*
X181166800Y-100277703D01*
X181166800Y-99366297D01*
X181171758Y-99315957D01*
X181185535Y-99270541D01*
X181207905Y-99228690D01*
X181238008Y-99192008D01*
X181274690Y-99161905D01*
X181316541Y-99139535D01*
X181361957Y-99125758D01*
X181412297Y-99120800D01*
X182823703Y-99120800D01*
X182874043Y-99125758D01*
G37*
G36*
X158449449Y-96598131D02*
G01*
X158473355Y-96608033D01*
X158578876Y-96651741D01*
X158695363Y-96729575D01*
X158794425Y-96828637D01*
X158872259Y-96945124D01*
X158892659Y-96994375D01*
X158925869Y-97074551D01*
X158953200Y-97211953D01*
X158953200Y-97352047D01*
X158925869Y-97489449D01*
X158925868Y-97489451D01*
X158872259Y-97618876D01*
X158872257Y-97618879D01*
X158845944Y-97658259D01*
X158794425Y-97735363D01*
X158695363Y-97834425D01*
X158578876Y-97912259D01*
X158473355Y-97955967D01*
X158449449Y-97965869D01*
X158312047Y-97993200D01*
X158171953Y-97993200D01*
X158034551Y-97965869D01*
X158010645Y-97955967D01*
X157905124Y-97912259D01*
X157788637Y-97834425D01*
X157689575Y-97735363D01*
X157638056Y-97658259D01*
X157611743Y-97618879D01*
X157611741Y-97618876D01*
X157558132Y-97489451D01*
X157558131Y-97489449D01*
X157530800Y-97352047D01*
X157530800Y-97211953D01*
X157558131Y-97074551D01*
X157591341Y-96994375D01*
X157611741Y-96945124D01*
X157689575Y-96828637D01*
X157788637Y-96729575D01*
X157905124Y-96651741D01*
X158010645Y-96608033D01*
X158034551Y-96598131D01*
X158171953Y-96570800D01*
X158312047Y-96570800D01*
X158449449Y-96598131D01*
G37*
G36*
X171022449Y-96471131D02*
G01*
X171046355Y-96481033D01*
X171151876Y-96524741D01*
X171268363Y-96602575D01*
X171367425Y-96701637D01*
X171445259Y-96818124D01*
X171482478Y-96907979D01*
X171498869Y-96947551D01*
X171526200Y-97084953D01*
X171526200Y-97225047D01*
X171498869Y-97362449D01*
X171498868Y-97362451D01*
X171445259Y-97491876D01*
X171367425Y-97608363D01*
X171268363Y-97707425D01*
X171151876Y-97785259D01*
X171046355Y-97828967D01*
X171022449Y-97838869D01*
X170885047Y-97866200D01*
X170744953Y-97866200D01*
X170607551Y-97838869D01*
X170583645Y-97828967D01*
X170478124Y-97785259D01*
X170361637Y-97707425D01*
X170262575Y-97608363D01*
X170184741Y-97491876D01*
X170131132Y-97362451D01*
X170131131Y-97362449D01*
X170103800Y-97225047D01*
X170103800Y-97084953D01*
X170131131Y-96947551D01*
X170147522Y-96907979D01*
X170184741Y-96818124D01*
X170262575Y-96701637D01*
X170361637Y-96602575D01*
X170478124Y-96524741D01*
X170583645Y-96481033D01*
X170607551Y-96471131D01*
X170744953Y-96443800D01*
X170885047Y-96443800D01*
X171022449Y-96471131D01*
G37*
G36*
X149051449Y-96344131D02*
G01*
X149051452Y-96344132D01*
X149051451Y-96344132D01*
X149180876Y-96397741D01*
X149180879Y-96397743D01*
X149297363Y-96475575D01*
X149396425Y-96574637D01*
X149447946Y-96651743D01*
X149474259Y-96691124D01*
X149499295Y-96751567D01*
X149527869Y-96820551D01*
X149555200Y-96957953D01*
X149555200Y-97098047D01*
X149527869Y-97235449D01*
X149527868Y-97235451D01*
X149474259Y-97364876D01*
X149396425Y-97481363D01*
X149297363Y-97580425D01*
X149180876Y-97658259D01*
X149075637Y-97701850D01*
X149051449Y-97711869D01*
X148914047Y-97739200D01*
X148773953Y-97739200D01*
X148636551Y-97711869D01*
X148612363Y-97701850D01*
X148507124Y-97658259D01*
X148390637Y-97580425D01*
X148291575Y-97481363D01*
X148213741Y-97364876D01*
X148160132Y-97235451D01*
X148160131Y-97235449D01*
X148132800Y-97098047D01*
X148132800Y-96957953D01*
X148160131Y-96820551D01*
X148188705Y-96751567D01*
X148213741Y-96691124D01*
X148240055Y-96651743D01*
X148291575Y-96574637D01*
X148390637Y-96475575D01*
X148507121Y-96397743D01*
X148507124Y-96397741D01*
X148636549Y-96344132D01*
X148636548Y-96344132D01*
X148636551Y-96344131D01*
X148773953Y-96316800D01*
X148914047Y-96316800D01*
X149051449Y-96344131D01*
G37*
G36*
X182874043Y-96325758D02*
G01*
X182919459Y-96339535D01*
X182961310Y-96361905D01*
X182997992Y-96392008D01*
X183028095Y-96428690D01*
X183050465Y-96470541D01*
X183064242Y-96515957D01*
X183069200Y-96566297D01*
X183069200Y-97477703D01*
X183064242Y-97528043D01*
X183050465Y-97573459D01*
X183028095Y-97615310D01*
X182997992Y-97651992D01*
X182961310Y-97682095D01*
X182919459Y-97704465D01*
X182874043Y-97718242D01*
X182823703Y-97723200D01*
X181412297Y-97723200D01*
X181361957Y-97718242D01*
X181316541Y-97704465D01*
X181274690Y-97682095D01*
X181238008Y-97651992D01*
X181207905Y-97615310D01*
X181185535Y-97573459D01*
X181171758Y-97528043D01*
X181166800Y-97477703D01*
X181166800Y-96566297D01*
X181171758Y-96515957D01*
X181185535Y-96470541D01*
X181207905Y-96428690D01*
X181238008Y-96392008D01*
X181274690Y-96361905D01*
X181316541Y-96339535D01*
X181361957Y-96325758D01*
X181412297Y-96320800D01*
X182823703Y-96320800D01*
X182874043Y-96325758D01*
G37*
G36*
X175803375Y-95688679D02*
G01*
X175848015Y-95702220D01*
X175889147Y-95724205D01*
X175925203Y-95753797D01*
X175954795Y-95789853D01*
X175976780Y-95830985D01*
X175990321Y-95875625D01*
X175995200Y-95925158D01*
X175995200Y-96944842D01*
X175990321Y-96994375D01*
X175976780Y-97039015D01*
X175954795Y-97080147D01*
X175925203Y-97116203D01*
X175889147Y-97145795D01*
X175848015Y-97167780D01*
X175803375Y-97181321D01*
X175753842Y-97186200D01*
X172734158Y-97186200D01*
X172684625Y-97181321D01*
X172639985Y-97167780D01*
X172598853Y-97145795D01*
X172562797Y-97116203D01*
X172533205Y-97080147D01*
X172511220Y-97039015D01*
X172497679Y-96994375D01*
X172492800Y-96944842D01*
X172492800Y-95925158D01*
X172497679Y-95875625D01*
X172511220Y-95830985D01*
X172533205Y-95789853D01*
X172562797Y-95753797D01*
X172598853Y-95724205D01*
X172639985Y-95702220D01*
X172684625Y-95688679D01*
X172734158Y-95683800D01*
X175753842Y-95683800D01*
X175803375Y-95688679D01*
G37*
G36*
X153623449Y-94312131D02*
G01*
X153623452Y-94312132D01*
X153623451Y-94312132D01*
X153752876Y-94365741D01*
X153869363Y-94443575D01*
X153968425Y-94542637D01*
X154046259Y-94659124D01*
X154051573Y-94671954D01*
X154099869Y-94788551D01*
X154127200Y-94925953D01*
X154127200Y-95066047D01*
X154099869Y-95203449D01*
X154099868Y-95203451D01*
X154046259Y-95332876D01*
X154046257Y-95332879D01*
X154019944Y-95372259D01*
X153968425Y-95449363D01*
X153869362Y-95548426D01*
X153840811Y-95567503D01*
X153831188Y-95575400D01*
X153823292Y-95585023D01*
X153817424Y-95596001D01*
X153813810Y-95607913D01*
X153812590Y-95620301D01*
X153813810Y-95632689D01*
X153817424Y-95644601D01*
X153823291Y-95655579D01*
X153831188Y-95665202D01*
X153840811Y-95673098D01*
X153851789Y-95678966D01*
X153863701Y-95682580D01*
X153876089Y-95683800D01*
X154798842Y-95683800D01*
X154848375Y-95688679D01*
X154893015Y-95702220D01*
X154934147Y-95724205D01*
X154970203Y-95753797D01*
X154999795Y-95789853D01*
X155021780Y-95830985D01*
X155035321Y-95875625D01*
X155040200Y-95925158D01*
X155040200Y-96944842D01*
X155035321Y-96994375D01*
X155021780Y-97039015D01*
X154999795Y-97080147D01*
X154970203Y-97116203D01*
X154934147Y-97145795D01*
X154893015Y-97167780D01*
X154848375Y-97181321D01*
X154798842Y-97186200D01*
X151779158Y-97186200D01*
X151729625Y-97181321D01*
X151684985Y-97167780D01*
X151643853Y-97145795D01*
X151607797Y-97116203D01*
X151578205Y-97080147D01*
X151556220Y-97039015D01*
X151542679Y-96994375D01*
X151537800Y-96944842D01*
X151537800Y-95925158D01*
X151542679Y-95875625D01*
X151556220Y-95830985D01*
X151578205Y-95789853D01*
X151607797Y-95753797D01*
X151643853Y-95724205D01*
X151684985Y-95702220D01*
X151729625Y-95688679D01*
X151779158Y-95683800D01*
X152955911Y-95683800D01*
X152968299Y-95682580D01*
X152980211Y-95678966D01*
X152991189Y-95673098D01*
X153000812Y-95665202D01*
X153008708Y-95655579D01*
X153014576Y-95644601D01*
X153018190Y-95632689D01*
X153019410Y-95620301D01*
X153018190Y-95607913D01*
X153014576Y-95596001D01*
X153008708Y-95585023D01*
X153000812Y-95575400D01*
X152991189Y-95567503D01*
X152962638Y-95548426D01*
X152863575Y-95449363D01*
X152812056Y-95372259D01*
X152785743Y-95332879D01*
X152785741Y-95332876D01*
X152732132Y-95203451D01*
X152732131Y-95203449D01*
X152704800Y-95066047D01*
X152704800Y-94925953D01*
X152732131Y-94788551D01*
X152780427Y-94671954D01*
X152785741Y-94659124D01*
X152863575Y-94542637D01*
X152962637Y-94443575D01*
X153079124Y-94365741D01*
X153208549Y-94312132D01*
X153208548Y-94312132D01*
X153208551Y-94312131D01*
X153345953Y-94284800D01*
X153486047Y-94284800D01*
X153623449Y-94312131D01*
G37*
G36*
X134501870Y-95018432D02*
G01*
X134665879Y-95086366D01*
X134813482Y-95184992D01*
X134939008Y-95310518D01*
X135037634Y-95458121D01*
X135105568Y-95622130D01*
X135140200Y-95796240D01*
X135140200Y-95973760D01*
X135105568Y-96147870D01*
X135037634Y-96311879D01*
X134939008Y-96459482D01*
X134813482Y-96585008D01*
X134665879Y-96683634D01*
X134501870Y-96751568D01*
X134327760Y-96786200D01*
X134150240Y-96786200D01*
X133976130Y-96751568D01*
X133812121Y-96683634D01*
X133664518Y-96585008D01*
X133538992Y-96459482D01*
X133440366Y-96311879D01*
X133372432Y-96147870D01*
X133337800Y-95973760D01*
X133337800Y-95796240D01*
X133372432Y-95622130D01*
X133440366Y-95458121D01*
X133538992Y-95310518D01*
X133664518Y-95184992D01*
X133812121Y-95086366D01*
X133976130Y-95018432D01*
X134150240Y-94983800D01*
X134327760Y-94983800D01*
X134501870Y-95018432D01*
G37*
G36*
X174451449Y-94058131D02*
G01*
X174451452Y-94058132D01*
X174451451Y-94058132D01*
X174580876Y-94111741D01*
X174580879Y-94111743D01*
X174697363Y-94189575D01*
X174796425Y-94288637D01*
X174847946Y-94365743D01*
X174874259Y-94405124D01*
X174917967Y-94510645D01*
X174927869Y-94534551D01*
X174955200Y-94671953D01*
X174955200Y-94812047D01*
X174927869Y-94949449D01*
X174927868Y-94949451D01*
X174874259Y-95078876D01*
X174796425Y-95195363D01*
X174697363Y-95294425D01*
X174580876Y-95372259D01*
X174475355Y-95415967D01*
X174451449Y-95425869D01*
X174314047Y-95453200D01*
X174173953Y-95453200D01*
X174036551Y-95425869D01*
X174012645Y-95415967D01*
X173907124Y-95372259D01*
X173790637Y-95294425D01*
X173691575Y-95195363D01*
X173613741Y-95078876D01*
X173560132Y-94949451D01*
X173560131Y-94949449D01*
X173532800Y-94812047D01*
X173532800Y-94671953D01*
X173560131Y-94534551D01*
X173570033Y-94510645D01*
X173613741Y-94405124D01*
X173640055Y-94365743D01*
X173691575Y-94288637D01*
X173790637Y-94189575D01*
X173907121Y-94111743D01*
X173907124Y-94111741D01*
X174036549Y-94058132D01*
X174036548Y-94058132D01*
X174036551Y-94058131D01*
X174173953Y-94030800D01*
X174314047Y-94030800D01*
X174451449Y-94058131D01*
G37*
G36*
X158765200Y-93876200D02*
G01*
X147812800Y-93876200D01*
X147812800Y-84323800D01*
X158765200Y-84323800D01*
X158765200Y-93876200D01*
G37*
G36*
X181517200Y-93876200D02*
G01*
X170564800Y-93876200D01*
X170564800Y-84323800D01*
X181517200Y-84323800D01*
X181517200Y-93876200D01*
G37*
G36*
X133303449Y-86184131D02*
G01*
X133303452Y-86184132D01*
X133303451Y-86184132D01*
X133432876Y-86237741D01*
X133549363Y-86315575D01*
X133648425Y-86414637D01*
X133726259Y-86531124D01*
X133769967Y-86636645D01*
X133779869Y-86660551D01*
X133807200Y-86797953D01*
X133807200Y-86938047D01*
X133779869Y-87075449D01*
X133779868Y-87075451D01*
X133726259Y-87204876D01*
X133648425Y-87321363D01*
X133549363Y-87420425D01*
X133432876Y-87498259D01*
X133327355Y-87541967D01*
X133303449Y-87551869D01*
X133166047Y-87579200D01*
X133025953Y-87579200D01*
X132888551Y-87551869D01*
X132864645Y-87541967D01*
X132759124Y-87498259D01*
X132642637Y-87420425D01*
X132543575Y-87321363D01*
X132465741Y-87204876D01*
X132412132Y-87075451D01*
X132412131Y-87075449D01*
X132384800Y-86938047D01*
X132384800Y-86797953D01*
X132412131Y-86660551D01*
X132422033Y-86636645D01*
X132465741Y-86531124D01*
X132543575Y-86414637D01*
X132642637Y-86315575D01*
X132759124Y-86237741D01*
X132888549Y-86184132D01*
X132888548Y-86184132D01*
X132888551Y-86184131D01*
X133025953Y-86156800D01*
X133166047Y-86156800D01*
X133303449Y-86184131D01*
G37*
G36*
X184822200Y-85254200D02*
G01*
X182969800Y-85254200D01*
X182969800Y-83401800D01*
X184822200Y-83401800D01*
X184822200Y-85254200D01*
G37*
G36*
X127969449Y-83136131D02*
G01*
X127993355Y-83146033D01*
X128098876Y-83189741D01*
X128215363Y-83267575D01*
X128314425Y-83366637D01*
X128392259Y-83483124D01*
X128405545Y-83515200D01*
X128445869Y-83612551D01*
X128473200Y-83749953D01*
X128473200Y-83890047D01*
X128445869Y-84027449D01*
X128445868Y-84027451D01*
X128392259Y-84156876D01*
X128314425Y-84273363D01*
X128215363Y-84372425D01*
X128098876Y-84450259D01*
X127993355Y-84493967D01*
X127969449Y-84503869D01*
X127832047Y-84531200D01*
X127691953Y-84531200D01*
X127554551Y-84503869D01*
X127530645Y-84493967D01*
X127425124Y-84450259D01*
X127308637Y-84372425D01*
X127209575Y-84273363D01*
X127131741Y-84156876D01*
X127078132Y-84027451D01*
X127078131Y-84027449D01*
X127050800Y-83890047D01*
X127050800Y-83749953D01*
X127078131Y-83612551D01*
X127118455Y-83515200D01*
X127131741Y-83483124D01*
X127209575Y-83366637D01*
X127308637Y-83267575D01*
X127425124Y-83189741D01*
X127530645Y-83146033D01*
X127554551Y-83136131D01*
X127691953Y-83108800D01*
X127832047Y-83108800D01*
X127969449Y-83136131D01*
G37*
G36*
X156455200Y-82326200D02*
G01*
X156223237Y-82326200D01*
X156210849Y-82327420D01*
X156198937Y-82331034D01*
X156187959Y-82336902D01*
X156178336Y-82344798D01*
X156170440Y-82354421D01*
X156164572Y-82365399D01*
X156160958Y-82377311D01*
X156159738Y-82389699D01*
X156160958Y-82402087D01*
X156164572Y-82413999D01*
X156170440Y-82424977D01*
X156178336Y-82434600D01*
X156187955Y-82442494D01*
X156279181Y-82503449D01*
X156282363Y-82505575D01*
X156381425Y-82604637D01*
X156459259Y-82721124D01*
X156472545Y-82753200D01*
X156512869Y-82850551D01*
X156540200Y-82987953D01*
X156540200Y-83128047D01*
X156512869Y-83265449D01*
X156512868Y-83265451D01*
X156459259Y-83394876D01*
X156459257Y-83394879D01*
X156432944Y-83434259D01*
X156381425Y-83511363D01*
X156282363Y-83610425D01*
X156165876Y-83688259D01*
X156060355Y-83731967D01*
X156036449Y-83741869D01*
X155899047Y-83769200D01*
X155758953Y-83769200D01*
X155621551Y-83741869D01*
X155597645Y-83731967D01*
X155492124Y-83688259D01*
X155375637Y-83610425D01*
X155276575Y-83511363D01*
X155225056Y-83434259D01*
X155198743Y-83394879D01*
X155198741Y-83394876D01*
X155145132Y-83265451D01*
X155145131Y-83265449D01*
X155117800Y-83128047D01*
X155117800Y-82987953D01*
X155145131Y-82850551D01*
X155185455Y-82753200D01*
X155198741Y-82721124D01*
X155276575Y-82604637D01*
X155375637Y-82505575D01*
X155378819Y-82503449D01*
X155470045Y-82442494D01*
X155479663Y-82434600D01*
X155487560Y-82424977D01*
X155493428Y-82413999D01*
X155497042Y-82402087D01*
X155498262Y-82389699D01*
X155497042Y-82377311D01*
X155493429Y-82365399D01*
X155487561Y-82354421D01*
X155479664Y-82344799D01*
X155470041Y-82336902D01*
X155459063Y-82331034D01*
X155447151Y-82327420D01*
X155434763Y-82326200D01*
X155202800Y-82326200D01*
X155202800Y-77573800D01*
X156455200Y-77573800D01*
X156455200Y-82326200D01*
G37*
G36*
X159719449Y-77548131D02*
G01*
X159719452Y-77548132D01*
X159719451Y-77548132D01*
X159848876Y-77601741D01*
X159965363Y-77679575D01*
X160064425Y-77778637D01*
X160142259Y-77895124D01*
X160185967Y-78000645D01*
X160195869Y-78024551D01*
X160211723Y-78104252D01*
X160215335Y-78116159D01*
X160221203Y-78127137D01*
X160229100Y-78136760D01*
X160238722Y-78144657D01*
X160249700Y-78150525D01*
X160261612Y-78154138D01*
X160274000Y-78155358D01*
X160286388Y-78154138D01*
X160298300Y-78150524D01*
X160309278Y-78144656D01*
X160318901Y-78136759D01*
X160326798Y-78127137D01*
X160332666Y-78116159D01*
X160336277Y-78104252D01*
X160352131Y-78024551D01*
X160362033Y-78000645D01*
X160405741Y-77895124D01*
X160483575Y-77778637D01*
X160582637Y-77679575D01*
X160699124Y-77601741D01*
X160828549Y-77548132D01*
X160828548Y-77548132D01*
X160828551Y-77548131D01*
X160965953Y-77520800D01*
X161106047Y-77520800D01*
X161243449Y-77548131D01*
X161243452Y-77548132D01*
X161243451Y-77548132D01*
X161372876Y-77601741D01*
X161489363Y-77679575D01*
X161588425Y-77778637D01*
X161666259Y-77895124D01*
X161709967Y-78000645D01*
X161719869Y-78024551D01*
X161747200Y-78161953D01*
X161747200Y-78302047D01*
X161719869Y-78439449D01*
X161719868Y-78439451D01*
X161666259Y-78568876D01*
X161666257Y-78568879D01*
X161588425Y-78685363D01*
X161489363Y-78784425D01*
X161444799Y-78814202D01*
X161372876Y-78862259D01*
X161276258Y-78902279D01*
X161243449Y-78915869D01*
X161163748Y-78931723D01*
X161151841Y-78935335D01*
X161140863Y-78941203D01*
X161131240Y-78949100D01*
X161123343Y-78958722D01*
X161117475Y-78969700D01*
X161113862Y-78981612D01*
X161112642Y-78994000D01*
X161113862Y-79006388D01*
X161117476Y-79018300D01*
X161123344Y-79029278D01*
X161131241Y-79038901D01*
X161140863Y-79046798D01*
X161151841Y-79052666D01*
X161163748Y-79056277D01*
X161243449Y-79072131D01*
X161243452Y-79072132D01*
X161243451Y-79072132D01*
X161372876Y-79125741D01*
X161489363Y-79203575D01*
X161588425Y-79302637D01*
X161666259Y-79419124D01*
X161671573Y-79431954D01*
X161719869Y-79548551D01*
X161747200Y-79685953D01*
X161747200Y-79826047D01*
X161719869Y-79963449D01*
X161719868Y-79963451D01*
X161666259Y-80092876D01*
X161666257Y-80092879D01*
X161636777Y-80136999D01*
X161588425Y-80209363D01*
X161489363Y-80308425D01*
X161372876Y-80386259D01*
X161267355Y-80429967D01*
X161243449Y-80439869D01*
X161163748Y-80455723D01*
X161151841Y-80459335D01*
X161140863Y-80465203D01*
X161131240Y-80473100D01*
X161123343Y-80482722D01*
X161117475Y-80493700D01*
X161113862Y-80505612D01*
X161112642Y-80518000D01*
X161113862Y-80530388D01*
X161117476Y-80542300D01*
X161123344Y-80553278D01*
X161131241Y-80562901D01*
X161140863Y-80570798D01*
X161151841Y-80576666D01*
X161163748Y-80580277D01*
X161243449Y-80596131D01*
X161267355Y-80606033D01*
X161372876Y-80649741D01*
X161489363Y-80727575D01*
X161588425Y-80826637D01*
X161666259Y-80943124D01*
X161709967Y-81048645D01*
X161719869Y-81072551D01*
X161747200Y-81209953D01*
X161747200Y-81350047D01*
X161719869Y-81487449D01*
X161719868Y-81487451D01*
X161666259Y-81616876D01*
X161588425Y-81733363D01*
X161489363Y-81832425D01*
X161372876Y-81910259D01*
X161284756Y-81946759D01*
X161243449Y-81963869D01*
X161163748Y-81979723D01*
X161151841Y-81983335D01*
X161140863Y-81989203D01*
X161131240Y-81997100D01*
X161123343Y-82006722D01*
X161117475Y-82017700D01*
X161113862Y-82029612D01*
X161112642Y-82042000D01*
X161113862Y-82054388D01*
X161117476Y-82066300D01*
X161123344Y-82077278D01*
X161131241Y-82086901D01*
X161140863Y-82094798D01*
X161151841Y-82100666D01*
X161163748Y-82104277D01*
X161243449Y-82120131D01*
X161243452Y-82120132D01*
X161243451Y-82120132D01*
X161372876Y-82173741D01*
X161372879Y-82173743D01*
X161489363Y-82251575D01*
X161588425Y-82350637D01*
X161639946Y-82427743D01*
X161666259Y-82467124D01*
X161709967Y-82572645D01*
X161719869Y-82596551D01*
X161747200Y-82733953D01*
X161747200Y-82874047D01*
X161719869Y-83011449D01*
X161719868Y-83011451D01*
X161666259Y-83140876D01*
X161588425Y-83257363D01*
X161489363Y-83356425D01*
X161372876Y-83434259D01*
X161267355Y-83477967D01*
X161243449Y-83487869D01*
X161106047Y-83515200D01*
X160965953Y-83515200D01*
X160828551Y-83487869D01*
X160804645Y-83477967D01*
X160699124Y-83434259D01*
X160582637Y-83356425D01*
X160483575Y-83257363D01*
X160405741Y-83140876D01*
X160352132Y-83011451D01*
X160352131Y-83011449D01*
X160336277Y-82931748D01*
X160332665Y-82919841D01*
X160326797Y-82908863D01*
X160318900Y-82899240D01*
X160309278Y-82891343D01*
X160298300Y-82885475D01*
X160286388Y-82881862D01*
X160274000Y-82880642D01*
X160261612Y-82881862D01*
X160249700Y-82885476D01*
X160238722Y-82891344D01*
X160229099Y-82899241D01*
X160221202Y-82908863D01*
X160215334Y-82919841D01*
X160211723Y-82931748D01*
X160195869Y-83011449D01*
X160195868Y-83011451D01*
X160142259Y-83140876D01*
X160064425Y-83257363D01*
X159965363Y-83356425D01*
X159848876Y-83434259D01*
X159743355Y-83477967D01*
X159719449Y-83487869D01*
X159582047Y-83515200D01*
X159441953Y-83515200D01*
X159304551Y-83487869D01*
X159280645Y-83477967D01*
X159175124Y-83434259D01*
X159058637Y-83356425D01*
X158959575Y-83257363D01*
X158881741Y-83140876D01*
X158828132Y-83011451D01*
X158828131Y-83011449D01*
X158800800Y-82874047D01*
X158800800Y-82733953D01*
X158828131Y-82596551D01*
X158838033Y-82572645D01*
X158881741Y-82467124D01*
X158908055Y-82427743D01*
X158959575Y-82350637D01*
X159058637Y-82251575D01*
X159175121Y-82173743D01*
X159175124Y-82173741D01*
X159304549Y-82120132D01*
X159304548Y-82120132D01*
X159304551Y-82120131D01*
X159384252Y-82104277D01*
X159396159Y-82100665D01*
X159407137Y-82094797D01*
X159416760Y-82086900D01*
X159424657Y-82077278D01*
X159430525Y-82066300D01*
X159434138Y-82054388D01*
X159435358Y-82042000D01*
X159588642Y-82042000D01*
X159589862Y-82054388D01*
X159593476Y-82066300D01*
X159599344Y-82077278D01*
X159607241Y-82086901D01*
X159616863Y-82094798D01*
X159627841Y-82100666D01*
X159639748Y-82104277D01*
X159719449Y-82120131D01*
X159719452Y-82120132D01*
X159719451Y-82120132D01*
X159848876Y-82173741D01*
X159848879Y-82173743D01*
X159965363Y-82251575D01*
X160064425Y-82350637D01*
X160115946Y-82427743D01*
X160142259Y-82467124D01*
X160185967Y-82572645D01*
X160195869Y-82596551D01*
X160211723Y-82676252D01*
X160215335Y-82688159D01*
X160221203Y-82699137D01*
X160229100Y-82708760D01*
X160238722Y-82716657D01*
X160249700Y-82722525D01*
X160261612Y-82726138D01*
X160274000Y-82727358D01*
X160286388Y-82726138D01*
X160298300Y-82722524D01*
X160309278Y-82716656D01*
X160318901Y-82708759D01*
X160326798Y-82699137D01*
X160332666Y-82688159D01*
X160336277Y-82676252D01*
X160352131Y-82596551D01*
X160362033Y-82572645D01*
X160405741Y-82467124D01*
X160432055Y-82427743D01*
X160483575Y-82350637D01*
X160582637Y-82251575D01*
X160699121Y-82173743D01*
X160699124Y-82173741D01*
X160828549Y-82120132D01*
X160828548Y-82120132D01*
X160828551Y-82120131D01*
X160908252Y-82104277D01*
X160920159Y-82100665D01*
X160931137Y-82094797D01*
X160940760Y-82086900D01*
X160948657Y-82077278D01*
X160954525Y-82066300D01*
X160958138Y-82054388D01*
X160959358Y-82042000D01*
X160958138Y-82029612D01*
X160954524Y-82017700D01*
X160948656Y-82006722D01*
X160940759Y-81997099D01*
X160931137Y-81989202D01*
X160920159Y-81983334D01*
X160908252Y-81979723D01*
X160828551Y-81963869D01*
X160787244Y-81946759D01*
X160699124Y-81910259D01*
X160582637Y-81832425D01*
X160483575Y-81733363D01*
X160405741Y-81616876D01*
X160352132Y-81487451D01*
X160352131Y-81487449D01*
X160336277Y-81407748D01*
X160332665Y-81395841D01*
X160326797Y-81384863D01*
X160318900Y-81375240D01*
X160309278Y-81367343D01*
X160298300Y-81361475D01*
X160286388Y-81357862D01*
X160274000Y-81356642D01*
X160261612Y-81357862D01*
X160249700Y-81361476D01*
X160238722Y-81367344D01*
X160229099Y-81375241D01*
X160221202Y-81384863D01*
X160215334Y-81395841D01*
X160211723Y-81407748D01*
X160195869Y-81487449D01*
X160195868Y-81487451D01*
X160142259Y-81616876D01*
X160064425Y-81733363D01*
X159965363Y-81832425D01*
X159848876Y-81910259D01*
X159760756Y-81946759D01*
X159719449Y-81963869D01*
X159639748Y-81979723D01*
X159627841Y-81983335D01*
X159616863Y-81989203D01*
X159607240Y-81997100D01*
X159599343Y-82006722D01*
X159593475Y-82017700D01*
X159589862Y-82029612D01*
X159588642Y-82042000D01*
X159435358Y-82042000D01*
X159434138Y-82029612D01*
X159430524Y-82017700D01*
X159424656Y-82006722D01*
X159416759Y-81997099D01*
X159407137Y-81989202D01*
X159396159Y-81983334D01*
X159384252Y-81979723D01*
X159304551Y-81963869D01*
X159263244Y-81946759D01*
X159175124Y-81910259D01*
X159058637Y-81832425D01*
X158959575Y-81733363D01*
X158881741Y-81616876D01*
X158828132Y-81487451D01*
X158828131Y-81487449D01*
X158800800Y-81350047D01*
X158800800Y-81209953D01*
X158828131Y-81072551D01*
X158838033Y-81048645D01*
X158881741Y-80943124D01*
X158959575Y-80826637D01*
X159058637Y-80727575D01*
X159175124Y-80649741D01*
X159280645Y-80606033D01*
X159304551Y-80596131D01*
X159384252Y-80580277D01*
X159396159Y-80576665D01*
X159407137Y-80570797D01*
X159416760Y-80562900D01*
X159424657Y-80553278D01*
X159430525Y-80542300D01*
X159434138Y-80530388D01*
X159435358Y-80518000D01*
X159588642Y-80518000D01*
X159589862Y-80530388D01*
X159593476Y-80542300D01*
X159599344Y-80553278D01*
X159607241Y-80562901D01*
X159616863Y-80570798D01*
X159627841Y-80576666D01*
X159639748Y-80580277D01*
X159719449Y-80596131D01*
X159743355Y-80606033D01*
X159848876Y-80649741D01*
X159965363Y-80727575D01*
X160064425Y-80826637D01*
X160142259Y-80943124D01*
X160185967Y-81048645D01*
X160195869Y-81072551D01*
X160211723Y-81152252D01*
X160215335Y-81164159D01*
X160221203Y-81175137D01*
X160229100Y-81184760D01*
X160238722Y-81192657D01*
X160249700Y-81198525D01*
X160261612Y-81202138D01*
X160274000Y-81203358D01*
X160286388Y-81202138D01*
X160298300Y-81198524D01*
X160309278Y-81192656D01*
X160318901Y-81184759D01*
X160326798Y-81175137D01*
X160332666Y-81164159D01*
X160336277Y-81152252D01*
X160352131Y-81072551D01*
X160362033Y-81048645D01*
X160405741Y-80943124D01*
X160483575Y-80826637D01*
X160582637Y-80727575D01*
X160699124Y-80649741D01*
X160804645Y-80606033D01*
X160828551Y-80596131D01*
X160908252Y-80580277D01*
X160920159Y-80576665D01*
X160931137Y-80570797D01*
X160940760Y-80562900D01*
X160948657Y-80553278D01*
X160954525Y-80542300D01*
X160958138Y-80530388D01*
X160959358Y-80518000D01*
X160958138Y-80505612D01*
X160954524Y-80493700D01*
X160948656Y-80482722D01*
X160940759Y-80473099D01*
X160931137Y-80465202D01*
X160920159Y-80459334D01*
X160908252Y-80455723D01*
X160828551Y-80439869D01*
X160804645Y-80429967D01*
X160699124Y-80386259D01*
X160582637Y-80308425D01*
X160483575Y-80209363D01*
X160435223Y-80136999D01*
X160405743Y-80092879D01*
X160405741Y-80092876D01*
X160352132Y-79963451D01*
X160352131Y-79963449D01*
X160336277Y-79883748D01*
X160332665Y-79871841D01*
X160326797Y-79860863D01*
X160318900Y-79851240D01*
X160309278Y-79843343D01*
X160298300Y-79837475D01*
X160286388Y-79833862D01*
X160274000Y-79832642D01*
X160261612Y-79833862D01*
X160249700Y-79837476D01*
X160238722Y-79843344D01*
X160229099Y-79851241D01*
X160221202Y-79860863D01*
X160215334Y-79871841D01*
X160211723Y-79883748D01*
X160195869Y-79963449D01*
X160195868Y-79963451D01*
X160142259Y-80092876D01*
X160142257Y-80092879D01*
X160112777Y-80136999D01*
X160064425Y-80209363D01*
X159965363Y-80308425D01*
X159848876Y-80386259D01*
X159743355Y-80429967D01*
X159719449Y-80439869D01*
X159639748Y-80455723D01*
X159627841Y-80459335D01*
X159616863Y-80465203D01*
X159607240Y-80473100D01*
X159599343Y-80482722D01*
X159593475Y-80493700D01*
X159589862Y-80505612D01*
X159588642Y-80518000D01*
X159435358Y-80518000D01*
X159434138Y-80505612D01*
X159430524Y-80493700D01*
X159424656Y-80482722D01*
X159416759Y-80473099D01*
X159407137Y-80465202D01*
X159396159Y-80459334D01*
X159384252Y-80455723D01*
X159304551Y-80439869D01*
X159280645Y-80429967D01*
X159175124Y-80386259D01*
X159058637Y-80308425D01*
X158959575Y-80209363D01*
X158911223Y-80136999D01*
X158881743Y-80092879D01*
X158881741Y-80092876D01*
X158828132Y-79963451D01*
X158828131Y-79963449D01*
X158800800Y-79826047D01*
X158800800Y-79685953D01*
X158828131Y-79548551D01*
X158876427Y-79431954D01*
X158881741Y-79419124D01*
X158959575Y-79302637D01*
X159058637Y-79203575D01*
X159175124Y-79125741D01*
X159304549Y-79072132D01*
X159304548Y-79072132D01*
X159304551Y-79072131D01*
X159384252Y-79056277D01*
X159396159Y-79052665D01*
X159407137Y-79046797D01*
X159416760Y-79038900D01*
X159424657Y-79029278D01*
X159430525Y-79018300D01*
X159434138Y-79006388D01*
X159435358Y-78994000D01*
X159588642Y-78994000D01*
X159589862Y-79006388D01*
X159593476Y-79018300D01*
X159599344Y-79029278D01*
X159607241Y-79038901D01*
X159616863Y-79046798D01*
X159627841Y-79052666D01*
X159639748Y-79056277D01*
X159719449Y-79072131D01*
X159719452Y-79072132D01*
X159719451Y-79072132D01*
X159848876Y-79125741D01*
X159965363Y-79203575D01*
X160064425Y-79302637D01*
X160142259Y-79419124D01*
X160147573Y-79431954D01*
X160195869Y-79548551D01*
X160211723Y-79628252D01*
X160215335Y-79640159D01*
X160221203Y-79651137D01*
X160229100Y-79660760D01*
X160238722Y-79668657D01*
X160249700Y-79674525D01*
X160261612Y-79678138D01*
X160274000Y-79679358D01*
X160286388Y-79678138D01*
X160298300Y-79674524D01*
X160309278Y-79668656D01*
X160318901Y-79660759D01*
X160326798Y-79651137D01*
X160332666Y-79640159D01*
X160336277Y-79628252D01*
X160352131Y-79548551D01*
X160400427Y-79431954D01*
X160405741Y-79419124D01*
X160483575Y-79302637D01*
X160582637Y-79203575D01*
X160699124Y-79125741D01*
X160828549Y-79072132D01*
X160828548Y-79072132D01*
X160828551Y-79072131D01*
X160908252Y-79056277D01*
X160920159Y-79052665D01*
X160931137Y-79046797D01*
X160940760Y-79038900D01*
X160948657Y-79029278D01*
X160954525Y-79018300D01*
X160958138Y-79006388D01*
X160959358Y-78994000D01*
X160958138Y-78981612D01*
X160954524Y-78969700D01*
X160948656Y-78958722D01*
X160940759Y-78949099D01*
X160931137Y-78941202D01*
X160920159Y-78935334D01*
X160908252Y-78931723D01*
X160828551Y-78915869D01*
X160795742Y-78902279D01*
X160699124Y-78862259D01*
X160627202Y-78814202D01*
X160582637Y-78784425D01*
X160483575Y-78685363D01*
X160405743Y-78568879D01*
X160405741Y-78568876D01*
X160352132Y-78439451D01*
X160352131Y-78439449D01*
X160336277Y-78359748D01*
X160332665Y-78347841D01*
X160326797Y-78336863D01*
X160318900Y-78327240D01*
X160309278Y-78319343D01*
X160298300Y-78313475D01*
X160286388Y-78309862D01*
X160274000Y-78308642D01*
X160261612Y-78309862D01*
X160249700Y-78313476D01*
X160238722Y-78319344D01*
X160229099Y-78327241D01*
X160221202Y-78336863D01*
X160215334Y-78347841D01*
X160211723Y-78359748D01*
X160195869Y-78439449D01*
X160195868Y-78439451D01*
X160142259Y-78568876D01*
X160142257Y-78568879D01*
X160064425Y-78685363D01*
X159965363Y-78784425D01*
X159920799Y-78814202D01*
X159848876Y-78862259D01*
X159752258Y-78902279D01*
X159719449Y-78915869D01*
X159639748Y-78931723D01*
X159627841Y-78935335D01*
X159616863Y-78941203D01*
X159607240Y-78949100D01*
X159599343Y-78958722D01*
X159593475Y-78969700D01*
X159589862Y-78981612D01*
X159588642Y-78994000D01*
X159435358Y-78994000D01*
X159434138Y-78981612D01*
X159430524Y-78969700D01*
X159424656Y-78958722D01*
X159416759Y-78949099D01*
X159407137Y-78941202D01*
X159396159Y-78935334D01*
X159384252Y-78931723D01*
X159304551Y-78915869D01*
X159271742Y-78902279D01*
X159175124Y-78862259D01*
X159103202Y-78814202D01*
X159058637Y-78784425D01*
X158959575Y-78685363D01*
X158881743Y-78568879D01*
X158881741Y-78568876D01*
X158828132Y-78439451D01*
X158828131Y-78439449D01*
X158800800Y-78302047D01*
X158800800Y-78161953D01*
X158828131Y-78024551D01*
X158838033Y-78000645D01*
X158881741Y-77895124D01*
X158959575Y-77778637D01*
X159058637Y-77679575D01*
X159175124Y-77601741D01*
X159304549Y-77548132D01*
X159304548Y-77548132D01*
X159304551Y-77548131D01*
X159441953Y-77520800D01*
X159582047Y-77520800D01*
X159719449Y-77548131D01*
G37*
G36*
X141939449Y-81612131D02*
G01*
X141963355Y-81622033D01*
X142068876Y-81665741D01*
X142185363Y-81743575D01*
X142284425Y-81842637D01*
X142362259Y-81959124D01*
X142391456Y-82029612D01*
X142415869Y-82088551D01*
X142443200Y-82225953D01*
X142443200Y-82366047D01*
X142415869Y-82503449D01*
X142415868Y-82503451D01*
X142362259Y-82632876D01*
X142362257Y-82632879D01*
X142335944Y-82672259D01*
X142284425Y-82749363D01*
X142185363Y-82848425D01*
X142068876Y-82926259D01*
X141963355Y-82969967D01*
X141939449Y-82979869D01*
X141802047Y-83007200D01*
X141661953Y-83007200D01*
X141524551Y-82979869D01*
X141500645Y-82969967D01*
X141395124Y-82926259D01*
X141278637Y-82848425D01*
X141179575Y-82749363D01*
X141128056Y-82672259D01*
X141101743Y-82632879D01*
X141101741Y-82632876D01*
X141048132Y-82503451D01*
X141048131Y-82503449D01*
X141020800Y-82366047D01*
X141020800Y-82225953D01*
X141048131Y-82088551D01*
X141072544Y-82029612D01*
X141101741Y-81959124D01*
X141179575Y-81842637D01*
X141278637Y-81743575D01*
X141395124Y-81665741D01*
X141500645Y-81622033D01*
X141524551Y-81612131D01*
X141661953Y-81584800D01*
X141802047Y-81584800D01*
X141939449Y-81612131D01*
G37*
G36*
X147019449Y-77548131D02*
G01*
X147019452Y-77548132D01*
X147019451Y-77548132D01*
X147148876Y-77601741D01*
X147265363Y-77679575D01*
X147364425Y-77778637D01*
X147442259Y-77895124D01*
X147485967Y-78000645D01*
X147495869Y-78024551D01*
X147511723Y-78104252D01*
X147515335Y-78116159D01*
X147521203Y-78127137D01*
X147529100Y-78136760D01*
X147538722Y-78144657D01*
X147549700Y-78150525D01*
X147561612Y-78154138D01*
X147574000Y-78155358D01*
X147586388Y-78154138D01*
X147598300Y-78150524D01*
X147609278Y-78144656D01*
X147618901Y-78136759D01*
X147626798Y-78127137D01*
X147632666Y-78116159D01*
X147636277Y-78104252D01*
X147652131Y-78024551D01*
X147662033Y-78000645D01*
X147705741Y-77895124D01*
X147783575Y-77778637D01*
X147882637Y-77679575D01*
X147999124Y-77601741D01*
X148128549Y-77548132D01*
X148128548Y-77548132D01*
X148128551Y-77548131D01*
X148265953Y-77520800D01*
X148406047Y-77520800D01*
X148543449Y-77548131D01*
X148543452Y-77548132D01*
X148543451Y-77548132D01*
X148672876Y-77601741D01*
X148789363Y-77679575D01*
X148888425Y-77778637D01*
X148966259Y-77895124D01*
X149009967Y-78000645D01*
X149019869Y-78024551D01*
X149047200Y-78161953D01*
X149047200Y-78302047D01*
X149019869Y-78439449D01*
X149019868Y-78439451D01*
X148966259Y-78568876D01*
X148966257Y-78568879D01*
X148888425Y-78685363D01*
X148789363Y-78784425D01*
X148744796Y-78814204D01*
X148735176Y-78822099D01*
X148727279Y-78831721D01*
X148721411Y-78842700D01*
X148717797Y-78854611D01*
X148716577Y-78866999D01*
X148717797Y-78879388D01*
X148721410Y-78891300D01*
X148727278Y-78902278D01*
X148735175Y-78911900D01*
X148744796Y-78919796D01*
X148789363Y-78949575D01*
X148888425Y-79048637D01*
X148939946Y-79125743D01*
X148966259Y-79165124D01*
X149009967Y-79270645D01*
X149019869Y-79294551D01*
X149047200Y-79431953D01*
X149047200Y-79572047D01*
X149019869Y-79709449D01*
X149019868Y-79709451D01*
X148966259Y-79838876D01*
X148966257Y-79838879D01*
X148888425Y-79955363D01*
X148789363Y-80054425D01*
X148744796Y-80084204D01*
X148735176Y-80092099D01*
X148727279Y-80101721D01*
X148721411Y-80112700D01*
X148717797Y-80124611D01*
X148716577Y-80136999D01*
X148717797Y-80149388D01*
X148721410Y-80161300D01*
X148727278Y-80172278D01*
X148735175Y-80181900D01*
X148744796Y-80189796D01*
X148779822Y-80213200D01*
X148789363Y-80219575D01*
X148888425Y-80318637D01*
X148966259Y-80435124D01*
X148995456Y-80505612D01*
X149019869Y-80564551D01*
X149047200Y-80701953D01*
X149047200Y-80842047D01*
X149019869Y-80979449D01*
X149019868Y-80979451D01*
X148966259Y-81108876D01*
X148966257Y-81108879D01*
X148888425Y-81225363D01*
X148789363Y-81324425D01*
X148744796Y-81354204D01*
X148735176Y-81362099D01*
X148727279Y-81371721D01*
X148721411Y-81382700D01*
X148717797Y-81394611D01*
X148716577Y-81406999D01*
X148717797Y-81419388D01*
X148721410Y-81431300D01*
X148727278Y-81442278D01*
X148735175Y-81451900D01*
X148744796Y-81459796D01*
X148789363Y-81489575D01*
X148888425Y-81588637D01*
X148939946Y-81665743D01*
X148966259Y-81705124D01*
X149009967Y-81810645D01*
X149019869Y-81834551D01*
X149047200Y-81971953D01*
X149047200Y-82112047D01*
X149019869Y-82249449D01*
X149019868Y-82249451D01*
X148966259Y-82378876D01*
X148888425Y-82495363D01*
X148789363Y-82594425D01*
X148672876Y-82672259D01*
X148584756Y-82708759D01*
X148543449Y-82725869D01*
X148406047Y-82753200D01*
X148265953Y-82753200D01*
X148128551Y-82725869D01*
X148087244Y-82708759D01*
X147999124Y-82672259D01*
X147882637Y-82594425D01*
X147783575Y-82495363D01*
X147705741Y-82378876D01*
X147652132Y-82249451D01*
X147652131Y-82249449D01*
X147636277Y-82169748D01*
X147632665Y-82157841D01*
X147626797Y-82146863D01*
X147618900Y-82137240D01*
X147609278Y-82129343D01*
X147598300Y-82123475D01*
X147586388Y-82119862D01*
X147574000Y-82118642D01*
X147561612Y-82119862D01*
X147549700Y-82123476D01*
X147538722Y-82129344D01*
X147529099Y-82137241D01*
X147521202Y-82146863D01*
X147515334Y-82157841D01*
X147511723Y-82169748D01*
X147495869Y-82249449D01*
X147495868Y-82249451D01*
X147442259Y-82378876D01*
X147364425Y-82495363D01*
X147265363Y-82594425D01*
X147148876Y-82672259D01*
X147060756Y-82708759D01*
X147019449Y-82725869D01*
X146882047Y-82753200D01*
X146741953Y-82753200D01*
X146604551Y-82725869D01*
X146563244Y-82708759D01*
X146475124Y-82672259D01*
X146358637Y-82594425D01*
X146259575Y-82495363D01*
X146181741Y-82378876D01*
X146128132Y-82249451D01*
X146128131Y-82249449D01*
X146100800Y-82112047D01*
X146100800Y-81971953D01*
X146128131Y-81834551D01*
X146138033Y-81810645D01*
X146181741Y-81705124D01*
X146208055Y-81665743D01*
X146259575Y-81588637D01*
X146358637Y-81489575D01*
X146403204Y-81459796D01*
X146412824Y-81451901D01*
X146420721Y-81442279D01*
X146426589Y-81431300D01*
X146430203Y-81419389D01*
X146431423Y-81407001D01*
X146431423Y-81406999D01*
X147192577Y-81406999D01*
X147193797Y-81419388D01*
X147197410Y-81431300D01*
X147203278Y-81442278D01*
X147211175Y-81451900D01*
X147220796Y-81459796D01*
X147265363Y-81489575D01*
X147364425Y-81588637D01*
X147415946Y-81665743D01*
X147442259Y-81705124D01*
X147485967Y-81810645D01*
X147495869Y-81834551D01*
X147511723Y-81914252D01*
X147515335Y-81926159D01*
X147521203Y-81937137D01*
X147529100Y-81946760D01*
X147538722Y-81954657D01*
X147549700Y-81960525D01*
X147561612Y-81964138D01*
X147574000Y-81965358D01*
X147586388Y-81964138D01*
X147598300Y-81960524D01*
X147609278Y-81954656D01*
X147618901Y-81946759D01*
X147626798Y-81937137D01*
X147632666Y-81926159D01*
X147636277Y-81914252D01*
X147652131Y-81834551D01*
X147662033Y-81810645D01*
X147705741Y-81705124D01*
X147732055Y-81665743D01*
X147783575Y-81588637D01*
X147882637Y-81489575D01*
X147927204Y-81459796D01*
X147936824Y-81451901D01*
X147944721Y-81442279D01*
X147950589Y-81431300D01*
X147954203Y-81419389D01*
X147955423Y-81407001D01*
X147954203Y-81394612D01*
X147950590Y-81382700D01*
X147944722Y-81371722D01*
X147936825Y-81362100D01*
X147927204Y-81354204D01*
X147882637Y-81324425D01*
X147783575Y-81225363D01*
X147705743Y-81108879D01*
X147705741Y-81108876D01*
X147652132Y-80979451D01*
X147652131Y-80979449D01*
X147636277Y-80899748D01*
X147632665Y-80887841D01*
X147626797Y-80876863D01*
X147618900Y-80867240D01*
X147609278Y-80859343D01*
X147598300Y-80853475D01*
X147586388Y-80849862D01*
X147574000Y-80848642D01*
X147561612Y-80849862D01*
X147549700Y-80853476D01*
X147538722Y-80859344D01*
X147529099Y-80867241D01*
X147521202Y-80876863D01*
X147515334Y-80887841D01*
X147511723Y-80899748D01*
X147495869Y-80979449D01*
X147495868Y-80979451D01*
X147442259Y-81108876D01*
X147442257Y-81108879D01*
X147364425Y-81225363D01*
X147265363Y-81324425D01*
X147220796Y-81354204D01*
X147211176Y-81362099D01*
X147203279Y-81371721D01*
X147197411Y-81382700D01*
X147193797Y-81394611D01*
X147192577Y-81406999D01*
X146431423Y-81406999D01*
X146430203Y-81394612D01*
X146426590Y-81382700D01*
X146420722Y-81371722D01*
X146412825Y-81362100D01*
X146403204Y-81354204D01*
X146358637Y-81324425D01*
X146259575Y-81225363D01*
X146181743Y-81108879D01*
X146181741Y-81108876D01*
X146128132Y-80979451D01*
X146128131Y-80979449D01*
X146100800Y-80842047D01*
X146100800Y-80701953D01*
X146128131Y-80564551D01*
X146152544Y-80505612D01*
X146181741Y-80435124D01*
X146259575Y-80318637D01*
X146358637Y-80219575D01*
X146368178Y-80213200D01*
X146403204Y-80189796D01*
X146412824Y-80181901D01*
X146420721Y-80172279D01*
X146426589Y-80161300D01*
X146430203Y-80149389D01*
X146431423Y-80137001D01*
X146431423Y-80136999D01*
X147192577Y-80136999D01*
X147193797Y-80149388D01*
X147197410Y-80161300D01*
X147203278Y-80172278D01*
X147211175Y-80181900D01*
X147220796Y-80189796D01*
X147255822Y-80213200D01*
X147265363Y-80219575D01*
X147364425Y-80318637D01*
X147442259Y-80435124D01*
X147471456Y-80505612D01*
X147495869Y-80564551D01*
X147511723Y-80644252D01*
X147515335Y-80656159D01*
X147521203Y-80667137D01*
X147529100Y-80676760D01*
X147538722Y-80684657D01*
X147549700Y-80690525D01*
X147561612Y-80694138D01*
X147574000Y-80695358D01*
X147586388Y-80694138D01*
X147598300Y-80690524D01*
X147609278Y-80684656D01*
X147618901Y-80676759D01*
X147626798Y-80667137D01*
X147632666Y-80656159D01*
X147636277Y-80644252D01*
X147652131Y-80564551D01*
X147676544Y-80505612D01*
X147705741Y-80435124D01*
X147783575Y-80318637D01*
X147882637Y-80219575D01*
X147892178Y-80213200D01*
X147927204Y-80189796D01*
X147936824Y-80181901D01*
X147944721Y-80172279D01*
X147950589Y-80161300D01*
X147954203Y-80149389D01*
X147955423Y-80137001D01*
X147954203Y-80124612D01*
X147950590Y-80112700D01*
X147944722Y-80101722D01*
X147936825Y-80092100D01*
X147927204Y-80084204D01*
X147882637Y-80054425D01*
X147783575Y-79955363D01*
X147705743Y-79838879D01*
X147705741Y-79838876D01*
X147652132Y-79709451D01*
X147652131Y-79709449D01*
X147636277Y-79629748D01*
X147632665Y-79617841D01*
X147626797Y-79606863D01*
X147618900Y-79597240D01*
X147609278Y-79589343D01*
X147598300Y-79583475D01*
X147586388Y-79579862D01*
X147574000Y-79578642D01*
X147561612Y-79579862D01*
X147549700Y-79583476D01*
X147538722Y-79589344D01*
X147529099Y-79597241D01*
X147521202Y-79606863D01*
X147515334Y-79617841D01*
X147511723Y-79629748D01*
X147495869Y-79709449D01*
X147495868Y-79709451D01*
X147442259Y-79838876D01*
X147442257Y-79838879D01*
X147364425Y-79955363D01*
X147265363Y-80054425D01*
X147220796Y-80084204D01*
X147211176Y-80092099D01*
X147203279Y-80101721D01*
X147197411Y-80112700D01*
X147193797Y-80124611D01*
X147192577Y-80136999D01*
X146431423Y-80136999D01*
X146430203Y-80124612D01*
X146426590Y-80112700D01*
X146420722Y-80101722D01*
X146412825Y-80092100D01*
X146403204Y-80084204D01*
X146358637Y-80054425D01*
X146259575Y-79955363D01*
X146181743Y-79838879D01*
X146181741Y-79838876D01*
X146128132Y-79709451D01*
X146128131Y-79709449D01*
X146100800Y-79572047D01*
X146100800Y-79431953D01*
X146128131Y-79294551D01*
X146138033Y-79270645D01*
X146181741Y-79165124D01*
X146208055Y-79125743D01*
X146259575Y-79048637D01*
X146358637Y-78949575D01*
X146403204Y-78919796D01*
X146412824Y-78911901D01*
X146420721Y-78902279D01*
X146426589Y-78891300D01*
X146430203Y-78879389D01*
X146431423Y-78867001D01*
X146431423Y-78866999D01*
X147192577Y-78866999D01*
X147193797Y-78879388D01*
X147197410Y-78891300D01*
X147203278Y-78902278D01*
X147211175Y-78911900D01*
X147220796Y-78919796D01*
X147265363Y-78949575D01*
X147364425Y-79048637D01*
X147415946Y-79125743D01*
X147442259Y-79165124D01*
X147485967Y-79270645D01*
X147495869Y-79294551D01*
X147511723Y-79374252D01*
X147515335Y-79386159D01*
X147521203Y-79397137D01*
X147529100Y-79406760D01*
X147538722Y-79414657D01*
X147549700Y-79420525D01*
X147561612Y-79424138D01*
X147574000Y-79425358D01*
X147586388Y-79424138D01*
X147598300Y-79420524D01*
X147609278Y-79414656D01*
X147618901Y-79406759D01*
X147626798Y-79397137D01*
X147632666Y-79386159D01*
X147636277Y-79374252D01*
X147652131Y-79294551D01*
X147662033Y-79270645D01*
X147705741Y-79165124D01*
X147732055Y-79125743D01*
X147783575Y-79048637D01*
X147882637Y-78949575D01*
X147927204Y-78919796D01*
X147936824Y-78911901D01*
X147944721Y-78902279D01*
X147950589Y-78891300D01*
X147954203Y-78879389D01*
X147955423Y-78867001D01*
X147954203Y-78854612D01*
X147950590Y-78842700D01*
X147944722Y-78831722D01*
X147936825Y-78822100D01*
X147927204Y-78814204D01*
X147882637Y-78784425D01*
X147783575Y-78685363D01*
X147705743Y-78568879D01*
X147705741Y-78568876D01*
X147652132Y-78439451D01*
X147652131Y-78439449D01*
X147636277Y-78359748D01*
X147632665Y-78347841D01*
X147626797Y-78336863D01*
X147618900Y-78327240D01*
X147609278Y-78319343D01*
X147598300Y-78313475D01*
X147586388Y-78309862D01*
X147574000Y-78308642D01*
X147561612Y-78309862D01*
X147549700Y-78313476D01*
X147538722Y-78319344D01*
X147529099Y-78327241D01*
X147521202Y-78336863D01*
X147515334Y-78347841D01*
X147511723Y-78359748D01*
X147495869Y-78439449D01*
X147495868Y-78439451D01*
X147442259Y-78568876D01*
X147442257Y-78568879D01*
X147364425Y-78685363D01*
X147265363Y-78784425D01*
X147220796Y-78814204D01*
X147211176Y-78822099D01*
X147203279Y-78831721D01*
X147197411Y-78842700D01*
X147193797Y-78854611D01*
X147192577Y-78866999D01*
X146431423Y-78866999D01*
X146430203Y-78854612D01*
X146426590Y-78842700D01*
X146420722Y-78831722D01*
X146412825Y-78822100D01*
X146403204Y-78814204D01*
X146358637Y-78784425D01*
X146259575Y-78685363D01*
X146181743Y-78568879D01*
X146181741Y-78568876D01*
X146128132Y-78439451D01*
X146128131Y-78439449D01*
X146100800Y-78302047D01*
X146100800Y-78161953D01*
X146128131Y-78024551D01*
X146138033Y-78000645D01*
X146181741Y-77895124D01*
X146259575Y-77778637D01*
X146358637Y-77679575D01*
X146475124Y-77601741D01*
X146604549Y-77548132D01*
X146604548Y-77548132D01*
X146604551Y-77548131D01*
X146741953Y-77520800D01*
X146882047Y-77520800D01*
X147019449Y-77548131D01*
G37*
G36*
X184005068Y-80865350D02*
G01*
X184166166Y-80897393D01*
X184334717Y-80967210D01*
X184486418Y-81068573D01*
X184615427Y-81197582D01*
X184716790Y-81349283D01*
X184786607Y-81517834D01*
X184822200Y-81696778D01*
X184822200Y-81879222D01*
X184786607Y-82058166D01*
X184716790Y-82226717D01*
X184615427Y-82378418D01*
X184486418Y-82507427D01*
X184334717Y-82608790D01*
X184166166Y-82678607D01*
X184005068Y-82710650D01*
X183987223Y-82714200D01*
X183804777Y-82714200D01*
X183786932Y-82710650D01*
X183625834Y-82678607D01*
X183457283Y-82608790D01*
X183305582Y-82507427D01*
X183176573Y-82378418D01*
X183075210Y-82226717D01*
X183005393Y-82058166D01*
X182969800Y-81879222D01*
X182969800Y-81696778D01*
X183005393Y-81517834D01*
X183075210Y-81349283D01*
X183176573Y-81197582D01*
X183305582Y-81068573D01*
X183457283Y-80967210D01*
X183625834Y-80897393D01*
X183786932Y-80865350D01*
X183804777Y-80861800D01*
X183987223Y-80861800D01*
X184005068Y-80865350D01*
G37*
G36*
X151375200Y-82326200D02*
G01*
X150122800Y-82326200D01*
X150122800Y-77573800D01*
X151375200Y-77573800D01*
X151375200Y-82326200D01*
G37*
G36*
X179207200Y-82326200D02*
G01*
X177954800Y-82326200D01*
X177954800Y-77573800D01*
X179207200Y-77573800D01*
X179207200Y-82326200D01*
G37*
G36*
X174127200Y-82326200D02*
G01*
X172874800Y-82326200D01*
X172874800Y-77573800D01*
X174127200Y-77573800D01*
X174127200Y-82326200D01*
G37*
G36*
X125937449Y-79580131D02*
G01*
X125937452Y-79580132D01*
X125937451Y-79580132D01*
X126066876Y-79633741D01*
X126183363Y-79711575D01*
X126282425Y-79810637D01*
X126360259Y-79927124D01*
X126403967Y-80032645D01*
X126413869Y-80056551D01*
X126441200Y-80193953D01*
X126441200Y-80334047D01*
X126413869Y-80471449D01*
X126404652Y-80493700D01*
X126360259Y-80600876D01*
X126282425Y-80717363D01*
X126183363Y-80816425D01*
X126066876Y-80894259D01*
X125961355Y-80937967D01*
X125937449Y-80947869D01*
X125800047Y-80975200D01*
X125659953Y-80975200D01*
X125522551Y-80947869D01*
X125498645Y-80937967D01*
X125393124Y-80894259D01*
X125276637Y-80816425D01*
X125177575Y-80717363D01*
X125099741Y-80600876D01*
X125055348Y-80493700D01*
X125046131Y-80471449D01*
X125018800Y-80334047D01*
X125018800Y-80193953D01*
X125046131Y-80056551D01*
X125056033Y-80032645D01*
X125099741Y-79927124D01*
X125177575Y-79810637D01*
X125276637Y-79711575D01*
X125393124Y-79633741D01*
X125522549Y-79580132D01*
X125522548Y-79580132D01*
X125522551Y-79580131D01*
X125659953Y-79552800D01*
X125800047Y-79552800D01*
X125937449Y-79580131D01*
G37*
G36*
X184005068Y-78325350D02*
G01*
X184166166Y-78357393D01*
X184334717Y-78427210D01*
X184486418Y-78528573D01*
X184615427Y-78657582D01*
X184716790Y-78809283D01*
X184786607Y-78977834D01*
X184822200Y-79156778D01*
X184822200Y-79339222D01*
X184786607Y-79518166D01*
X184716790Y-79686717D01*
X184615427Y-79838418D01*
X184486418Y-79967427D01*
X184334717Y-80068790D01*
X184166166Y-80138607D01*
X184005068Y-80170650D01*
X183987223Y-80174200D01*
X183804777Y-80174200D01*
X183786932Y-80170650D01*
X183625834Y-80138607D01*
X183457283Y-80068790D01*
X183305582Y-79967427D01*
X183176573Y-79838418D01*
X183075210Y-79686717D01*
X183005393Y-79518166D01*
X182969800Y-79339222D01*
X182969800Y-79156778D01*
X183005393Y-78977834D01*
X183075210Y-78809283D01*
X183176573Y-78657582D01*
X183305582Y-78528573D01*
X183457283Y-78427210D01*
X183625834Y-78357393D01*
X183786932Y-78325350D01*
X183804777Y-78321800D01*
X183987223Y-78321800D01*
X184005068Y-78325350D01*
G37*
G36*
X184005068Y-75785350D02*
G01*
X184166166Y-75817393D01*
X184334717Y-75887210D01*
X184486418Y-75988573D01*
X184615427Y-76117582D01*
X184716790Y-76269283D01*
X184786607Y-76437834D01*
X184822200Y-76616778D01*
X184822200Y-76799222D01*
X184786607Y-76978166D01*
X184716790Y-77146717D01*
X184615427Y-77298418D01*
X184486418Y-77427427D01*
X184334717Y-77528790D01*
X184166166Y-77598607D01*
X184005068Y-77630650D01*
X183987223Y-77634200D01*
X183804777Y-77634200D01*
X183786932Y-77630650D01*
X183625834Y-77598607D01*
X183457283Y-77528790D01*
X183305582Y-77427427D01*
X183176573Y-77298418D01*
X183075210Y-77146717D01*
X183005393Y-76978166D01*
X182969800Y-76799222D01*
X182969800Y-76616778D01*
X183005393Y-76437834D01*
X183075210Y-76269283D01*
X183176573Y-76117582D01*
X183305582Y-75988573D01*
X183457283Y-75887210D01*
X183625834Y-75817393D01*
X183786932Y-75785350D01*
X183804777Y-75781800D01*
X183987223Y-75781800D01*
X184005068Y-75785350D01*
G37*
G36*
X141218043Y-76017758D02*
G01*
X141263459Y-76031535D01*
X141305310Y-76053905D01*
X141341992Y-76084008D01*
X141372095Y-76120690D01*
X141394465Y-76162541D01*
X141408242Y-76207957D01*
X141413200Y-76258297D01*
X141413200Y-77169703D01*
X141408242Y-77220043D01*
X141394465Y-77265459D01*
X141372095Y-77307310D01*
X141341992Y-77343992D01*
X141305310Y-77374095D01*
X141263459Y-77396465D01*
X141218043Y-77410242D01*
X141167703Y-77415200D01*
X139756297Y-77415200D01*
X139705957Y-77410242D01*
X139660541Y-77396465D01*
X139618690Y-77374095D01*
X139582008Y-77343992D01*
X139551905Y-77307310D01*
X139529535Y-77265459D01*
X139515758Y-77220043D01*
X139510800Y-77169703D01*
X139510800Y-76258297D01*
X139515758Y-76207957D01*
X139529535Y-76162541D01*
X139551905Y-76120690D01*
X139582008Y-76084008D01*
X139618690Y-76053905D01*
X139660541Y-76031535D01*
X139705957Y-76017758D01*
X139756297Y-76012800D01*
X141167703Y-76012800D01*
X141218043Y-76017758D01*
G37*
G36*
X124272831Y-76070907D02*
G01*
X124319690Y-76085121D01*
X124362877Y-76108205D01*
X124400730Y-76139270D01*
X124431795Y-76177123D01*
X124454879Y-76220310D01*
X124469093Y-76267169D01*
X124474200Y-76319017D01*
X124474200Y-76939983D01*
X124469093Y-76991831D01*
X124454879Y-77038690D01*
X124431795Y-77081877D01*
X124400730Y-77119730D01*
X124362877Y-77150795D01*
X124319690Y-77173879D01*
X124272831Y-77188093D01*
X124220983Y-77193200D01*
X123175017Y-77193200D01*
X123123169Y-77188093D01*
X123076310Y-77173879D01*
X123033123Y-77150795D01*
X122995270Y-77119730D01*
X122964205Y-77081877D01*
X122941121Y-77038690D01*
X122926907Y-76991831D01*
X122921800Y-76939983D01*
X122921800Y-76319017D01*
X122926907Y-76267169D01*
X122941121Y-76220310D01*
X122964205Y-76177123D01*
X122995270Y-76139270D01*
X123033123Y-76108205D01*
X123076310Y-76085121D01*
X123123169Y-76070907D01*
X123175017Y-76065800D01*
X124220983Y-76065800D01*
X124272831Y-76070907D01*
G37*
G36*
X129286000Y-76997601D02*
G01*
X127812800Y-76997601D01*
X127812800Y-76286401D01*
X129286000Y-76286401D01*
X129286000Y-76997601D01*
G37*
G36*
X126695200Y-76997601D02*
G01*
X125222000Y-76997601D01*
X125222000Y-76286401D01*
X126695200Y-76286401D01*
X126695200Y-76997601D01*
G37*
G36*
X143489598Y-76860400D02*
G01*
X142778398Y-76860400D01*
X142778398Y-75234800D01*
X143489598Y-75234800D01*
X143489598Y-76860400D01*
G37*
G36*
X145389600Y-76860400D02*
G01*
X144678400Y-76860400D01*
X144678400Y-75234800D01*
X145389600Y-75234800D01*
X145389600Y-76860400D01*
G37*
G36*
X134501870Y-75018432D02*
G01*
X134665879Y-75086366D01*
X134813482Y-75184992D01*
X134939008Y-75310518D01*
X135037634Y-75458121D01*
X135105568Y-75622130D01*
X135140200Y-75796240D01*
X135140200Y-75973760D01*
X135105568Y-76147870D01*
X135037634Y-76311879D01*
X134939008Y-76459482D01*
X134813482Y-76585008D01*
X134665879Y-76683634D01*
X134501870Y-76751568D01*
X134327760Y-76786200D01*
X134150240Y-76786200D01*
X133976130Y-76751568D01*
X133812121Y-76683634D01*
X133664518Y-76585008D01*
X133538992Y-76459482D01*
X133440366Y-76311879D01*
X133372432Y-76147870D01*
X133337800Y-75973760D01*
X133337800Y-75796240D01*
X133372432Y-75622130D01*
X133440366Y-75458121D01*
X133538992Y-75310518D01*
X133664518Y-75184992D01*
X133812121Y-75086366D01*
X133976130Y-75018432D01*
X134150240Y-74983800D01*
X134327760Y-74983800D01*
X134501870Y-75018432D01*
G37*
G36*
X155703578Y-74595471D02*
G01*
X155703580Y-74595472D01*
X155703581Y-74595472D01*
X155863037Y-74661521D01*
X156006540Y-74757407D01*
X156006542Y-74757409D01*
X156006545Y-74757411D01*
X156128589Y-74879455D01*
X156128591Y-74879458D01*
X156128593Y-74879460D01*
X156224479Y-75022963D01*
X156237287Y-75053883D01*
X156290529Y-75182422D01*
X156324200Y-75351702D01*
X156324200Y-75524298D01*
X156304741Y-75622130D01*
X156290528Y-75693581D01*
X156224479Y-75853037D01*
X156128593Y-75996540D01*
X156128591Y-75996542D01*
X156128589Y-75996545D01*
X156006545Y-76118589D01*
X156006542Y-76118591D01*
X156006540Y-76118593D01*
X155863037Y-76214479D01*
X155703581Y-76280528D01*
X155703580Y-76280528D01*
X155703578Y-76280529D01*
X155534298Y-76314200D01*
X155361702Y-76314200D01*
X155192422Y-76280529D01*
X155192420Y-76280528D01*
X155192419Y-76280528D01*
X155032963Y-76214479D01*
X154889460Y-76118593D01*
X154889458Y-76118591D01*
X154889455Y-76118589D01*
X154767411Y-75996545D01*
X154767409Y-75996542D01*
X154767407Y-75996540D01*
X154671521Y-75853037D01*
X154605472Y-75693581D01*
X154591260Y-75622130D01*
X154571800Y-75524298D01*
X154571800Y-75351702D01*
X154605471Y-75182422D01*
X154658714Y-75053883D01*
X154671521Y-75022963D01*
X154767407Y-74879460D01*
X154767409Y-74879458D01*
X154767411Y-74879455D01*
X154889455Y-74757411D01*
X154889458Y-74757409D01*
X154889460Y-74757407D01*
X155032963Y-74661521D01*
X155192419Y-74595472D01*
X155192420Y-74595472D01*
X155192422Y-74595471D01*
X155361702Y-74561800D01*
X155534298Y-74561800D01*
X155703578Y-74595471D01*
G37*
G36*
X173088200Y-76314200D02*
G01*
X171335800Y-76314200D01*
X171335800Y-74561800D01*
X173088200Y-74561800D01*
X173088200Y-76314200D01*
G37*
G36*
X180087578Y-74595471D02*
G01*
X180087580Y-74595472D01*
X180087581Y-74595472D01*
X180247037Y-74661521D01*
X180390540Y-74757407D01*
X180390542Y-74757409D01*
X180390545Y-74757411D01*
X180512589Y-74879455D01*
X180512591Y-74879458D01*
X180512593Y-74879460D01*
X180608479Y-75022963D01*
X180621287Y-75053883D01*
X180674529Y-75182422D01*
X180708200Y-75351702D01*
X180708200Y-75524298D01*
X180688741Y-75622130D01*
X180674528Y-75693581D01*
X180608479Y-75853037D01*
X180512593Y-75996540D01*
X180512591Y-75996542D01*
X180512589Y-75996545D01*
X180390545Y-76118589D01*
X180390542Y-76118591D01*
X180390540Y-76118593D01*
X180247037Y-76214479D01*
X180087581Y-76280528D01*
X180087580Y-76280528D01*
X180087578Y-76280529D01*
X179918298Y-76314200D01*
X179745702Y-76314200D01*
X179576422Y-76280529D01*
X179576420Y-76280528D01*
X179576419Y-76280528D01*
X179416963Y-76214479D01*
X179273460Y-76118593D01*
X179273458Y-76118591D01*
X179273455Y-76118589D01*
X179151411Y-75996545D01*
X179151409Y-75996542D01*
X179151407Y-75996540D01*
X179055521Y-75853037D01*
X178989472Y-75693581D01*
X178975260Y-75622130D01*
X178955800Y-75524298D01*
X178955800Y-75351702D01*
X178989471Y-75182422D01*
X179042714Y-75053883D01*
X179055521Y-75022963D01*
X179151407Y-74879460D01*
X179151409Y-74879458D01*
X179151411Y-74879455D01*
X179273455Y-74757411D01*
X179273458Y-74757409D01*
X179273460Y-74757407D01*
X179416963Y-74661521D01*
X179576419Y-74595472D01*
X179576420Y-74595472D01*
X179576422Y-74595471D01*
X179745702Y-74561800D01*
X179918298Y-74561800D01*
X180087578Y-74595471D01*
G37*
G36*
X148704200Y-76314200D02*
G01*
X146951800Y-76314200D01*
X146951800Y-74561800D01*
X148704200Y-74561800D01*
X148704200Y-76314200D01*
G37*
G36*
X129286000Y-76047600D02*
G01*
X127812800Y-76047600D01*
X127812800Y-75336400D01*
X129286000Y-75336400D01*
X129286000Y-76047600D01*
G37*
G36*
X163968749Y-73089466D02*
G01*
X164102165Y-73129937D01*
X164225123Y-73195659D01*
X164332895Y-73284106D01*
X164421342Y-73391878D01*
X164487064Y-73514836D01*
X164527535Y-73648252D01*
X164541201Y-73787000D01*
X164541201Y-75057000D01*
X164527535Y-75195748D01*
X164487064Y-75329164D01*
X164421342Y-75452122D01*
X164332895Y-75559894D01*
X164225123Y-75648341D01*
X164102165Y-75714063D01*
X163968749Y-75754534D01*
X163830001Y-75768200D01*
X163829999Y-75768200D01*
X163691251Y-75754534D01*
X163557835Y-75714063D01*
X163434877Y-75648341D01*
X163327105Y-75559894D01*
X163238658Y-75452122D01*
X163172936Y-75329164D01*
X163132465Y-75195748D01*
X163118799Y-75057000D01*
X163118799Y-73787000D01*
X163132465Y-73648252D01*
X163172936Y-73514836D01*
X163238658Y-73391878D01*
X163327105Y-73284106D01*
X163434877Y-73195659D01*
X163557835Y-73129937D01*
X163691251Y-73089466D01*
X163829999Y-73075800D01*
X163830001Y-73075800D01*
X163968749Y-73089466D01*
G37*
G36*
X166508749Y-73089466D02*
G01*
X166642165Y-73129937D01*
X166765123Y-73195659D01*
X166872895Y-73284106D01*
X166961342Y-73391878D01*
X167027064Y-73514836D01*
X167067535Y-73648252D01*
X167081201Y-73787000D01*
X167081201Y-75057000D01*
X167067535Y-75195748D01*
X167027064Y-75329164D01*
X166961342Y-75452122D01*
X166872895Y-75559894D01*
X166765123Y-75648341D01*
X166642165Y-75714063D01*
X166508749Y-75754534D01*
X166370001Y-75768200D01*
X166369999Y-75768200D01*
X166231251Y-75754534D01*
X166097835Y-75714063D01*
X165974877Y-75648341D01*
X165867105Y-75559894D01*
X165778658Y-75452122D01*
X165712936Y-75329164D01*
X165672465Y-75195748D01*
X165658799Y-75057000D01*
X165658799Y-73787000D01*
X165672465Y-73648252D01*
X165712936Y-73514836D01*
X165778658Y-73391878D01*
X165867105Y-73284106D01*
X165974877Y-73195659D01*
X166097835Y-73129937D01*
X166231251Y-73089466D01*
X166369999Y-73075800D01*
X166370001Y-73075800D01*
X166508749Y-73089466D01*
G37*
G36*
X161428749Y-73089466D02*
G01*
X161562165Y-73129937D01*
X161685123Y-73195659D01*
X161792895Y-73284106D01*
X161881342Y-73391878D01*
X161947064Y-73514836D01*
X161987535Y-73648252D01*
X162001201Y-73787000D01*
X162001201Y-75057000D01*
X161987535Y-75195748D01*
X161947064Y-75329164D01*
X161881342Y-75452122D01*
X161792895Y-75559894D01*
X161685123Y-75648341D01*
X161562165Y-75714063D01*
X161428749Y-75754534D01*
X161290001Y-75768200D01*
X161289999Y-75768200D01*
X161151251Y-75754534D01*
X161017835Y-75714063D01*
X160894877Y-75648341D01*
X160787105Y-75559894D01*
X160698658Y-75452122D01*
X160632936Y-75329164D01*
X160592465Y-75195748D01*
X160578799Y-75057000D01*
X160578799Y-73787000D01*
X160592465Y-73648252D01*
X160632936Y-73514836D01*
X160698658Y-73391878D01*
X160787105Y-73284106D01*
X160894877Y-73195659D01*
X161017835Y-73129937D01*
X161151251Y-73089466D01*
X161289999Y-73075800D01*
X161290001Y-73075800D01*
X161428749Y-73089466D01*
G37*
G36*
X123905449Y-72722131D02*
G01*
X123929355Y-72732033D01*
X124034876Y-72775741D01*
X124151363Y-72853575D01*
X124250425Y-72952637D01*
X124328259Y-73069124D01*
X124353448Y-73129937D01*
X124381869Y-73198551D01*
X124409200Y-73335953D01*
X124409200Y-73476047D01*
X124381869Y-73613449D01*
X124381868Y-73613451D01*
X124328259Y-73742876D01*
X124250425Y-73859363D01*
X124151363Y-73958425D01*
X124034876Y-74036259D01*
X123956710Y-74068636D01*
X123945732Y-74074504D01*
X123936109Y-74082400D01*
X123928213Y-74092023D01*
X123922345Y-74103001D01*
X123918731Y-74114913D01*
X123917511Y-74127301D01*
X123918731Y-74139689D01*
X123922345Y-74151601D01*
X123928213Y-74162579D01*
X123936109Y-74172202D01*
X123945732Y-74180098D01*
X123956710Y-74185966D01*
X123968622Y-74189580D01*
X123981010Y-74190800D01*
X124220983Y-74190800D01*
X124272831Y-74195907D01*
X124319690Y-74210121D01*
X124362877Y-74233205D01*
X124400730Y-74264270D01*
X124431795Y-74302123D01*
X124454879Y-74345310D01*
X124469093Y-74392169D01*
X124474200Y-74444017D01*
X124474200Y-75064983D01*
X124469093Y-75116831D01*
X124454879Y-75163690D01*
X124431795Y-75206877D01*
X124400730Y-75244730D01*
X124362877Y-75275795D01*
X124319690Y-75298879D01*
X124272831Y-75313093D01*
X124220983Y-75318200D01*
X123175017Y-75318200D01*
X123123169Y-75313093D01*
X123076310Y-75298879D01*
X123033123Y-75275795D01*
X122995270Y-75244730D01*
X122964205Y-75206877D01*
X122941121Y-75163690D01*
X122926907Y-75116831D01*
X122921800Y-75064983D01*
X122921800Y-74444017D01*
X122926907Y-74392169D01*
X122941121Y-74345310D01*
X122964205Y-74302123D01*
X122995270Y-74264270D01*
X123033123Y-74233205D01*
X123076310Y-74210121D01*
X123123169Y-74195907D01*
X123175017Y-74190800D01*
X123414990Y-74190800D01*
X123427378Y-74189580D01*
X123439290Y-74185966D01*
X123450268Y-74180098D01*
X123459891Y-74172202D01*
X123467787Y-74162579D01*
X123473655Y-74151601D01*
X123477269Y-74139689D01*
X123478489Y-74127301D01*
X123477269Y-74114913D01*
X123473655Y-74103001D01*
X123467787Y-74092023D01*
X123459891Y-74082400D01*
X123450268Y-74074504D01*
X123439290Y-74068636D01*
X123361124Y-74036259D01*
X123244637Y-73958425D01*
X123145575Y-73859363D01*
X123067741Y-73742876D01*
X123014132Y-73613451D01*
X123014131Y-73613449D01*
X122986800Y-73476047D01*
X122986800Y-73335953D01*
X123014131Y-73198551D01*
X123042552Y-73129937D01*
X123067741Y-73069124D01*
X123145575Y-72952637D01*
X123244637Y-72853575D01*
X123361124Y-72775741D01*
X123466645Y-72732033D01*
X123490551Y-72722131D01*
X123627953Y-72694800D01*
X123768047Y-72694800D01*
X123905449Y-72722131D01*
G37*
G36*
X129286000Y-75097599D02*
G01*
X127812800Y-75097599D01*
X127812800Y-74386399D01*
X129286000Y-74386399D01*
X129286000Y-75097599D01*
G37*
G36*
X126695200Y-75097599D02*
G01*
X125222000Y-75097599D01*
X125222000Y-74386399D01*
X126695200Y-74386399D01*
X126695200Y-75097599D01*
G37*
G36*
X144439599Y-74625200D02*
G01*
X143728399Y-74625200D01*
X143728399Y-72999600D01*
X144439599Y-72999600D01*
X144439599Y-74625200D01*
G37*
G36*
X145389600Y-74625200D02*
G01*
X144678400Y-74625200D01*
X144678400Y-72999600D01*
X145389600Y-72999600D01*
X145389600Y-74625200D01*
G37*
G36*
X143489598Y-74625200D02*
G01*
X142778398Y-74625200D01*
X142778398Y-72999600D01*
X143489598Y-72999600D01*
X143489598Y-74625200D01*
G37*
G36*
X130509449Y-73230131D02*
G01*
X130533355Y-73240033D01*
X130638876Y-73283741D01*
X130755363Y-73361575D01*
X130854425Y-73460637D01*
X130932259Y-73577124D01*
X130961721Y-73648252D01*
X130985869Y-73706551D01*
X131013200Y-73843953D01*
X131013200Y-73984047D01*
X130985869Y-74121449D01*
X130985868Y-74121451D01*
X130932259Y-74250876D01*
X130854425Y-74367363D01*
X130755363Y-74466425D01*
X130638876Y-74544259D01*
X130533355Y-74587967D01*
X130509449Y-74597869D01*
X130372047Y-74625200D01*
X130231953Y-74625200D01*
X130094551Y-74597869D01*
X130070645Y-74587967D01*
X129965124Y-74544259D01*
X129848637Y-74466425D01*
X129749575Y-74367363D01*
X129671741Y-74250876D01*
X129618132Y-74121451D01*
X129618131Y-74121449D01*
X129590800Y-73984047D01*
X129590800Y-73843953D01*
X129618131Y-73706551D01*
X129642279Y-73648252D01*
X129671741Y-73577124D01*
X129749575Y-73460637D01*
X129848637Y-73361575D01*
X129965124Y-73283741D01*
X130070645Y-73240033D01*
X130094551Y-73230131D01*
X130231953Y-73202800D01*
X130372047Y-73202800D01*
X130509449Y-73230131D01*
G37*
G36*
X140669449Y-71706131D02*
G01*
X140693355Y-71716033D01*
X140798876Y-71759741D01*
X140915363Y-71837575D01*
X141014425Y-71936637D01*
X141092259Y-72053124D01*
X141094224Y-72057869D01*
X141145869Y-72182551D01*
X141173200Y-72319953D01*
X141173200Y-72460047D01*
X141145869Y-72597449D01*
X141145868Y-72597451D01*
X141092259Y-72726876D01*
X141014425Y-72843363D01*
X140915363Y-72942425D01*
X140798876Y-73020259D01*
X140693355Y-73063967D01*
X140669449Y-73073869D01*
X140603317Y-73087023D01*
X140591410Y-73090636D01*
X140580432Y-73096504D01*
X140570809Y-73104401D01*
X140562912Y-73114023D01*
X140557044Y-73125001D01*
X140553431Y-73136913D01*
X140552211Y-73149301D01*
X140553431Y-73161689D01*
X140557045Y-73173601D01*
X140562913Y-73184579D01*
X140570810Y-73194202D01*
X140580432Y-73202099D01*
X140591410Y-73207967D01*
X140603322Y-73211580D01*
X140615710Y-73212800D01*
X141167703Y-73212800D01*
X141218043Y-73217758D01*
X141263459Y-73231535D01*
X141305310Y-73253905D01*
X141341992Y-73284008D01*
X141372095Y-73320690D01*
X141394465Y-73362541D01*
X141408242Y-73407957D01*
X141413200Y-73458297D01*
X141413200Y-74369703D01*
X141408242Y-74420043D01*
X141394465Y-74465459D01*
X141372095Y-74507310D01*
X141341992Y-74543992D01*
X141305310Y-74574095D01*
X141263459Y-74596465D01*
X141218043Y-74610242D01*
X141167703Y-74615200D01*
X139756297Y-74615200D01*
X139705957Y-74610242D01*
X139660541Y-74596465D01*
X139618690Y-74574095D01*
X139582008Y-74543992D01*
X139551905Y-74507310D01*
X139529535Y-74465459D01*
X139515758Y-74420043D01*
X139510800Y-74369703D01*
X139510800Y-73458297D01*
X139515758Y-73407957D01*
X139529535Y-73362541D01*
X139551905Y-73320690D01*
X139582008Y-73284008D01*
X139618690Y-73253905D01*
X139660541Y-73231535D01*
X139705957Y-73217758D01*
X139756297Y-73212800D01*
X140308290Y-73212800D01*
X140320678Y-73211580D01*
X140332590Y-73207966D01*
X140343568Y-73202098D01*
X140353191Y-73194202D01*
X140361087Y-73184579D01*
X140366955Y-73173601D01*
X140370569Y-73161689D01*
X140371789Y-73149301D01*
X140370569Y-73136913D01*
X140366955Y-73125001D01*
X140361087Y-73114023D01*
X140353191Y-73104400D01*
X140343568Y-73096504D01*
X140332590Y-73090636D01*
X140320683Y-73087023D01*
X140254551Y-73073869D01*
X140230645Y-73063967D01*
X140125124Y-73020259D01*
X140008637Y-72942425D01*
X139909575Y-72843363D01*
X139831741Y-72726876D01*
X139778132Y-72597451D01*
X139778131Y-72597449D01*
X139750800Y-72460047D01*
X139750800Y-72319953D01*
X139778131Y-72182551D01*
X139829776Y-72057869D01*
X139831741Y-72053124D01*
X139909575Y-71936637D01*
X140008637Y-71837575D01*
X140125124Y-71759741D01*
X140230645Y-71716033D01*
X140254551Y-71706131D01*
X140391953Y-71678800D01*
X140532047Y-71678800D01*
X140669449Y-71706131D01*
G37*
G36*
X154385449Y-72722131D02*
G01*
X154409355Y-72732033D01*
X154514876Y-72775741D01*
X154631363Y-72853575D01*
X154730425Y-72952637D01*
X154808259Y-73069124D01*
X154833448Y-73129937D01*
X154861869Y-73198551D01*
X154889200Y-73335953D01*
X154889200Y-73476047D01*
X154861869Y-73613449D01*
X154861868Y-73613451D01*
X154808259Y-73742876D01*
X154730425Y-73859363D01*
X154631363Y-73958425D01*
X154514876Y-74036259D01*
X154436710Y-74068636D01*
X154385449Y-74089869D01*
X154248047Y-74117200D01*
X154107953Y-74117200D01*
X153970551Y-74089869D01*
X153919290Y-74068636D01*
X153841124Y-74036259D01*
X153724637Y-73958425D01*
X153625575Y-73859363D01*
X153547741Y-73742876D01*
X153494132Y-73613451D01*
X153494131Y-73613449D01*
X153466800Y-73476047D01*
X153466800Y-73335953D01*
X153494131Y-73198551D01*
X153522552Y-73129937D01*
X153547741Y-73069124D01*
X153625575Y-72952637D01*
X153724637Y-72853575D01*
X153841124Y-72775741D01*
X153946645Y-72732033D01*
X153970551Y-72722131D01*
X154107953Y-72694800D01*
X154248047Y-72694800D01*
X154385449Y-72722131D01*
G37*
G36*
X147019449Y-70690131D02*
G01*
X147019452Y-70690132D01*
X147019451Y-70690132D01*
X147148876Y-70743741D01*
X147265363Y-70821575D01*
X147364425Y-70920637D01*
X147442259Y-71037124D01*
X147485967Y-71142645D01*
X147495869Y-71166551D01*
X147523200Y-71303953D01*
X147523200Y-71444047D01*
X147495869Y-71581449D01*
X147495868Y-71581451D01*
X147442259Y-71710876D01*
X147364425Y-71827363D01*
X147265363Y-71926425D01*
X147148876Y-72004259D01*
X147043355Y-72047967D01*
X147019449Y-72057869D01*
X146882047Y-72085200D01*
X146741953Y-72085200D01*
X146604551Y-72057869D01*
X146580645Y-72047967D01*
X146475124Y-72004259D01*
X146358637Y-71926425D01*
X146259575Y-71827363D01*
X146181741Y-71710876D01*
X146128132Y-71581451D01*
X146128131Y-71581449D01*
X146100800Y-71444047D01*
X146100800Y-71303953D01*
X146128131Y-71166551D01*
X146138033Y-71142645D01*
X146181741Y-71037124D01*
X146259575Y-70920637D01*
X146358637Y-70821575D01*
X146475124Y-70743741D01*
X146604549Y-70690132D01*
X146604548Y-70690132D01*
X146604551Y-70690131D01*
X146741953Y-70662800D01*
X146882047Y-70662800D01*
X147019449Y-70690131D01*
G37*
G36*
X149051449Y-70690131D02*
G01*
X149051452Y-70690132D01*
X149051451Y-70690132D01*
X149180876Y-70743741D01*
X149297363Y-70821575D01*
X149396425Y-70920637D01*
X149474259Y-71037124D01*
X149517967Y-71142645D01*
X149527869Y-71166551D01*
X149555200Y-71303953D01*
X149555200Y-71444047D01*
X149527869Y-71581449D01*
X149527868Y-71581451D01*
X149474259Y-71710876D01*
X149396425Y-71827363D01*
X149297363Y-71926425D01*
X149180876Y-72004259D01*
X149075355Y-72047967D01*
X149051449Y-72057869D01*
X148914047Y-72085200D01*
X148773953Y-72085200D01*
X148636551Y-72057869D01*
X148612645Y-72047967D01*
X148507124Y-72004259D01*
X148390637Y-71926425D01*
X148291575Y-71827363D01*
X148213741Y-71710876D01*
X148160132Y-71581451D01*
X148160131Y-71581449D01*
X148132800Y-71444047D01*
X148132800Y-71303953D01*
X148160131Y-71166551D01*
X148170033Y-71142645D01*
X148213741Y-71037124D01*
X148291575Y-70920637D01*
X148390637Y-70821575D01*
X148507124Y-70743741D01*
X148636549Y-70690132D01*
X148636548Y-70690132D01*
X148636551Y-70690131D01*
X148773953Y-70662800D01*
X148914047Y-70662800D01*
X149051449Y-70690131D01*
G37*
G36*
X144987449Y-70690131D02*
G01*
X144987452Y-70690132D01*
X144987451Y-70690132D01*
X145116876Y-70743741D01*
X145233363Y-70821575D01*
X145332425Y-70920637D01*
X145410259Y-71037124D01*
X145453967Y-71142645D01*
X145463869Y-71166551D01*
X145491200Y-71303953D01*
X145491200Y-71444047D01*
X145463869Y-71581449D01*
X145463868Y-71581451D01*
X145410259Y-71710876D01*
X145332425Y-71827363D01*
X145233363Y-71926425D01*
X145116876Y-72004259D01*
X145011355Y-72047967D01*
X144987449Y-72057869D01*
X144850047Y-72085200D01*
X144709953Y-72085200D01*
X144572551Y-72057869D01*
X144548645Y-72047967D01*
X144443124Y-72004259D01*
X144326637Y-71926425D01*
X144227575Y-71827363D01*
X144149741Y-71710876D01*
X144096132Y-71581451D01*
X144096131Y-71581449D01*
X144068800Y-71444047D01*
X144068800Y-71303953D01*
X144096131Y-71166551D01*
X144106033Y-71142645D01*
X144149741Y-71037124D01*
X144227575Y-70920637D01*
X144326637Y-70821575D01*
X144443124Y-70743741D01*
X144572549Y-70690132D01*
X144572548Y-70690132D01*
X144572551Y-70690131D01*
X144709953Y-70662800D01*
X144850047Y-70662800D01*
X144987449Y-70690131D01*
G37*
G36*
X165633068Y-67387350D02*
G01*
X165794166Y-67419393D01*
X165962717Y-67489210D01*
X166114418Y-67590573D01*
X166243427Y-67719582D01*
X166344790Y-67871283D01*
X166414607Y-68039834D01*
X166450200Y-68218778D01*
X166450200Y-68401222D01*
X166414607Y-68580166D01*
X166344790Y-68748717D01*
X166243427Y-68900418D01*
X166114418Y-69029427D01*
X165962717Y-69130790D01*
X165794166Y-69200607D01*
X165633068Y-69232650D01*
X165615223Y-69236200D01*
X165432777Y-69236200D01*
X165414932Y-69232650D01*
X165253834Y-69200607D01*
X165085283Y-69130790D01*
X164933582Y-69029427D01*
X164804573Y-68900418D01*
X164703210Y-68748717D01*
X164633393Y-68580166D01*
X164597800Y-68401222D01*
X164597800Y-68218778D01*
X164633393Y-68039834D01*
X164703210Y-67871283D01*
X164804573Y-67719582D01*
X164933582Y-67590573D01*
X165085283Y-67489210D01*
X165253834Y-67419393D01*
X165414932Y-67387350D01*
X165432777Y-67383800D01*
X165615223Y-67383800D01*
X165633068Y-67387350D01*
G37*
G36*
X163093068Y-67387350D02*
G01*
X163254166Y-67419393D01*
X163422717Y-67489210D01*
X163574418Y-67590573D01*
X163703427Y-67719582D01*
X163804790Y-67871283D01*
X163874607Y-68039834D01*
X163910200Y-68218778D01*
X163910200Y-68401222D01*
X163874607Y-68580166D01*
X163804790Y-68748717D01*
X163703427Y-68900418D01*
X163574418Y-69029427D01*
X163422717Y-69130790D01*
X163254166Y-69200607D01*
X163093068Y-69232650D01*
X163075223Y-69236200D01*
X162892777Y-69236200D01*
X162874932Y-69232650D01*
X162713834Y-69200607D01*
X162545283Y-69130790D01*
X162393582Y-69029427D01*
X162264573Y-68900418D01*
X162163210Y-68748717D01*
X162093393Y-68580166D01*
X162057800Y-68401222D01*
X162057800Y-68218778D01*
X162093393Y-68039834D01*
X162163210Y-67871283D01*
X162264573Y-67719582D01*
X162393582Y-67590573D01*
X162545283Y-67489210D01*
X162713834Y-67419393D01*
X162874932Y-67387350D01*
X162892777Y-67383800D01*
X163075223Y-67383800D01*
X163093068Y-67387350D01*
G37*
G36*
X160553068Y-67387350D02*
G01*
X160714166Y-67419393D01*
X160882717Y-67489210D01*
X161034418Y-67590573D01*
X161163427Y-67719582D01*
X161264790Y-67871283D01*
X161334607Y-68039834D01*
X161370200Y-68218778D01*
X161370200Y-68401222D01*
X161334607Y-68580166D01*
X161264790Y-68748717D01*
X161163427Y-68900418D01*
X161034418Y-69029427D01*
X160882717Y-69130790D01*
X160714166Y-69200607D01*
X160553068Y-69232650D01*
X160535223Y-69236200D01*
X160352777Y-69236200D01*
X160334932Y-69232650D01*
X160173834Y-69200607D01*
X160005283Y-69130790D01*
X159853582Y-69029427D01*
X159724573Y-68900418D01*
X159623210Y-68748717D01*
X159553393Y-68580166D01*
X159517800Y-68401222D01*
X159517800Y-68218778D01*
X159553393Y-68039834D01*
X159623210Y-67871283D01*
X159724573Y-67719582D01*
X159853582Y-67590573D01*
X160005283Y-67489210D01*
X160173834Y-67419393D01*
X160334932Y-67387350D01*
X160352777Y-67383800D01*
X160535223Y-67383800D01*
X160553068Y-67387350D01*
G37*
G36*
X158013068Y-67387350D02*
G01*
X158174166Y-67419393D01*
X158342717Y-67489210D01*
X158494418Y-67590573D01*
X158623427Y-67719582D01*
X158724790Y-67871283D01*
X158794607Y-68039834D01*
X158830200Y-68218778D01*
X158830200Y-68401222D01*
X158794607Y-68580166D01*
X158724790Y-68748717D01*
X158623427Y-68900418D01*
X158494418Y-69029427D01*
X158342717Y-69130790D01*
X158174166Y-69200607D01*
X158013068Y-69232650D01*
X157995223Y-69236200D01*
X157812777Y-69236200D01*
X157794932Y-69232650D01*
X157633834Y-69200607D01*
X157465283Y-69130790D01*
X157313582Y-69029427D01*
X157184573Y-68900418D01*
X157083210Y-68748717D01*
X157013393Y-68580166D01*
X156977800Y-68401222D01*
X156977800Y-68218778D01*
X157013393Y-68039834D01*
X157083210Y-67871283D01*
X157184573Y-67719582D01*
X157313582Y-67590573D01*
X157465283Y-67489210D01*
X157633834Y-67419393D01*
X157794932Y-67387350D01*
X157812777Y-67383800D01*
X157995223Y-67383800D01*
X158013068Y-67387350D01*
G37*
G36*
X130890200Y-69236200D02*
G01*
X129037800Y-69236200D01*
X129037800Y-67383800D01*
X130890200Y-67383800D01*
X130890200Y-69236200D01*
G37*
G36*
X155473068Y-67387350D02*
G01*
X155634166Y-67419393D01*
X155802717Y-67489210D01*
X155954418Y-67590573D01*
X156083427Y-67719582D01*
X156184790Y-67871283D01*
X156254607Y-68039834D01*
X156290200Y-68218778D01*
X156290200Y-68401222D01*
X156254607Y-68580166D01*
X156184790Y-68748717D01*
X156083427Y-68900418D01*
X155954418Y-69029427D01*
X155802717Y-69130790D01*
X155634166Y-69200607D01*
X155473068Y-69232650D01*
X155455223Y-69236200D01*
X155272777Y-69236200D01*
X155254932Y-69232650D01*
X155093834Y-69200607D01*
X154925283Y-69130790D01*
X154773582Y-69029427D01*
X154644573Y-68900418D01*
X154543210Y-68748717D01*
X154473393Y-68580166D01*
X154437800Y-68401222D01*
X154437800Y-68218778D01*
X154473393Y-68039834D01*
X154543210Y-67871283D01*
X154644573Y-67719582D01*
X154773582Y-67590573D01*
X154925283Y-67489210D01*
X155093834Y-67419393D01*
X155254932Y-67387350D01*
X155272777Y-67383800D01*
X155455223Y-67383800D01*
X155473068Y-67387350D01*
G37*
G36*
X152933068Y-67387350D02*
G01*
X153094166Y-67419393D01*
X153262717Y-67489210D01*
X153414418Y-67590573D01*
X153543427Y-67719582D01*
X153644790Y-67871283D01*
X153714607Y-68039834D01*
X153750200Y-68218778D01*
X153750200Y-68401222D01*
X153714607Y-68580166D01*
X153644790Y-68748717D01*
X153543427Y-68900418D01*
X153414418Y-69029427D01*
X153262717Y-69130790D01*
X153094166Y-69200607D01*
X152933068Y-69232650D01*
X152915223Y-69236200D01*
X152732777Y-69236200D01*
X152714932Y-69232650D01*
X152553834Y-69200607D01*
X152385283Y-69130790D01*
X152233582Y-69029427D01*
X152104573Y-68900418D01*
X152003210Y-68748717D01*
X151933393Y-68580166D01*
X151897800Y-68401222D01*
X151897800Y-68218778D01*
X151933393Y-68039834D01*
X152003210Y-67871283D01*
X152104573Y-67719582D01*
X152233582Y-67590573D01*
X152385283Y-67489210D01*
X152553834Y-67419393D01*
X152714932Y-67387350D01*
X152732777Y-67383800D01*
X152915223Y-67383800D01*
X152933068Y-67387350D01*
G37*
G36*
X175793068Y-67387350D02*
G01*
X175954166Y-67419393D01*
X176122717Y-67489210D01*
X176274418Y-67590573D01*
X176403427Y-67719582D01*
X176504790Y-67871283D01*
X176574607Y-68039834D01*
X176610200Y-68218778D01*
X176610200Y-68401222D01*
X176574607Y-68580166D01*
X176504790Y-68748717D01*
X176403427Y-68900418D01*
X176274418Y-69029427D01*
X176122717Y-69130790D01*
X175954166Y-69200607D01*
X175793068Y-69232650D01*
X175775223Y-69236200D01*
X175592777Y-69236200D01*
X175574932Y-69232650D01*
X175413834Y-69200607D01*
X175245283Y-69130790D01*
X175093582Y-69029427D01*
X174964573Y-68900418D01*
X174863210Y-68748717D01*
X174793393Y-68580166D01*
X174757800Y-68401222D01*
X174757800Y-68218778D01*
X174793393Y-68039834D01*
X174863210Y-67871283D01*
X174964573Y-67719582D01*
X175093582Y-67590573D01*
X175245283Y-67489210D01*
X175413834Y-67419393D01*
X175574932Y-67387350D01*
X175592777Y-67383800D01*
X175775223Y-67383800D01*
X175793068Y-67387350D01*
G37*
G36*
X173253068Y-67387350D02*
G01*
X173414166Y-67419393D01*
X173582717Y-67489210D01*
X173734418Y-67590573D01*
X173863427Y-67719582D01*
X173964790Y-67871283D01*
X174034607Y-68039834D01*
X174070200Y-68218778D01*
X174070200Y-68401222D01*
X174034607Y-68580166D01*
X173964790Y-68748717D01*
X173863427Y-68900418D01*
X173734418Y-69029427D01*
X173582717Y-69130790D01*
X173414166Y-69200607D01*
X173253068Y-69232650D01*
X173235223Y-69236200D01*
X173052777Y-69236200D01*
X173034932Y-69232650D01*
X172873834Y-69200607D01*
X172705283Y-69130790D01*
X172553582Y-69029427D01*
X172424573Y-68900418D01*
X172323210Y-68748717D01*
X172253393Y-68580166D01*
X172217800Y-68401222D01*
X172217800Y-68218778D01*
X172253393Y-68039834D01*
X172323210Y-67871283D01*
X172424573Y-67719582D01*
X172553582Y-67590573D01*
X172705283Y-67489210D01*
X172873834Y-67419393D01*
X173034932Y-67387350D01*
X173052777Y-67383800D01*
X173235223Y-67383800D01*
X173253068Y-67387350D01*
G37*
G36*
X178333068Y-67387350D02*
G01*
X178494166Y-67419393D01*
X178662717Y-67489210D01*
X178814418Y-67590573D01*
X178943427Y-67719582D01*
X179044790Y-67871283D01*
X179114607Y-68039834D01*
X179150200Y-68218778D01*
X179150200Y-68401222D01*
X179114607Y-68580166D01*
X179044790Y-68748717D01*
X178943427Y-68900418D01*
X178814418Y-69029427D01*
X178662717Y-69130790D01*
X178494166Y-69200607D01*
X178333068Y-69232650D01*
X178315223Y-69236200D01*
X178132777Y-69236200D01*
X178114932Y-69232650D01*
X177953834Y-69200607D01*
X177785283Y-69130790D01*
X177633582Y-69029427D01*
X177504573Y-68900418D01*
X177403210Y-68748717D01*
X177333393Y-68580166D01*
X177297800Y-68401222D01*
X177297800Y-68218778D01*
X177333393Y-68039834D01*
X177403210Y-67871283D01*
X177504573Y-67719582D01*
X177633582Y-67590573D01*
X177785283Y-67489210D01*
X177953834Y-67419393D01*
X178114932Y-67387350D01*
X178132777Y-67383800D01*
X178315223Y-67383800D01*
X178333068Y-67387350D01*
G37*
G36*
X170713068Y-67387350D02*
G01*
X170874166Y-67419393D01*
X171042717Y-67489210D01*
X171194418Y-67590573D01*
X171323427Y-67719582D01*
X171424790Y-67871283D01*
X171494607Y-68039834D01*
X171530200Y-68218778D01*
X171530200Y-68401222D01*
X171494607Y-68580166D01*
X171424790Y-68748717D01*
X171323427Y-68900418D01*
X171194418Y-69029427D01*
X171042717Y-69130790D01*
X170874166Y-69200607D01*
X170713068Y-69232650D01*
X170695223Y-69236200D01*
X170512777Y-69236200D01*
X170494932Y-69232650D01*
X170333834Y-69200607D01*
X170165283Y-69130790D01*
X170013582Y-69029427D01*
X169884573Y-68900418D01*
X169783210Y-68748717D01*
X169713393Y-68580166D01*
X169677800Y-68401222D01*
X169677800Y-68218778D01*
X169713393Y-68039834D01*
X169783210Y-67871283D01*
X169884573Y-67719582D01*
X170013582Y-67590573D01*
X170165283Y-67489210D01*
X170333834Y-67419393D01*
X170494932Y-67387350D01*
X170512777Y-67383800D01*
X170695223Y-67383800D01*
X170713068Y-67387350D01*
G37*
G36*
X150393068Y-67387350D02*
G01*
X150554166Y-67419393D01*
X150722717Y-67489210D01*
X150874418Y-67590573D01*
X151003427Y-67719582D01*
X151104790Y-67871283D01*
X151174607Y-68039834D01*
X151210200Y-68218778D01*
X151210200Y-68401222D01*
X151174607Y-68580166D01*
X151104790Y-68748717D01*
X151003427Y-68900418D01*
X150874418Y-69029427D01*
X150722717Y-69130790D01*
X150554166Y-69200607D01*
X150393068Y-69232650D01*
X150375223Y-69236200D01*
X150192777Y-69236200D01*
X150174932Y-69232650D01*
X150013834Y-69200607D01*
X149845283Y-69130790D01*
X149693582Y-69029427D01*
X149564573Y-68900418D01*
X149463210Y-68748717D01*
X149393393Y-68580166D01*
X149357800Y-68401222D01*
X149357800Y-68218778D01*
X149393393Y-68039834D01*
X149463210Y-67871283D01*
X149564573Y-67719582D01*
X149693582Y-67590573D01*
X149845283Y-67489210D01*
X150013834Y-67419393D01*
X150174932Y-67387350D01*
X150192777Y-67383800D01*
X150375223Y-67383800D01*
X150393068Y-67387350D01*
G37*
G36*
X147853068Y-67387350D02*
G01*
X148014166Y-67419393D01*
X148182717Y-67489210D01*
X148334418Y-67590573D01*
X148463427Y-67719582D01*
X148564790Y-67871283D01*
X148634607Y-68039834D01*
X148670200Y-68218778D01*
X148670200Y-68401222D01*
X148634607Y-68580166D01*
X148564790Y-68748717D01*
X148463427Y-68900418D01*
X148334418Y-69029427D01*
X148182717Y-69130790D01*
X148014166Y-69200607D01*
X147853068Y-69232650D01*
X147835223Y-69236200D01*
X147652777Y-69236200D01*
X147634932Y-69232650D01*
X147473834Y-69200607D01*
X147305283Y-69130790D01*
X147153582Y-69029427D01*
X147024573Y-68900418D01*
X146923210Y-68748717D01*
X146853393Y-68580166D01*
X146817800Y-68401222D01*
X146817800Y-68218778D01*
X146853393Y-68039834D01*
X146923210Y-67871283D01*
X147024573Y-67719582D01*
X147153582Y-67590573D01*
X147305283Y-67489210D01*
X147473834Y-67419393D01*
X147634932Y-67387350D01*
X147652777Y-67383800D01*
X147835223Y-67383800D01*
X147853068Y-67387350D01*
G37*
G36*
X132613068Y-67387350D02*
G01*
X132774166Y-67419393D01*
X132942717Y-67489210D01*
X133094418Y-67590573D01*
X133223427Y-67719582D01*
X133324790Y-67871283D01*
X133394607Y-68039834D01*
X133430200Y-68218778D01*
X133430200Y-68401222D01*
X133394607Y-68580166D01*
X133324790Y-68748717D01*
X133223427Y-68900418D01*
X133094418Y-69029427D01*
X132942717Y-69130790D01*
X132774166Y-69200607D01*
X132613068Y-69232650D01*
X132595223Y-69236200D01*
X132412777Y-69236200D01*
X132394932Y-69232650D01*
X132233834Y-69200607D01*
X132065283Y-69130790D01*
X131913582Y-69029427D01*
X131784573Y-68900418D01*
X131683210Y-68748717D01*
X131613393Y-68580166D01*
X131577800Y-68401222D01*
X131577800Y-68218778D01*
X131613393Y-68039834D01*
X131683210Y-67871283D01*
X131784573Y-67719582D01*
X131913582Y-67590573D01*
X132065283Y-67489210D01*
X132233834Y-67419393D01*
X132394932Y-67387350D01*
X132412777Y-67383800D01*
X132595223Y-67383800D01*
X132613068Y-67387350D01*
G37*
G36*
X145313068Y-67387350D02*
G01*
X145474166Y-67419393D01*
X145642717Y-67489210D01*
X145794418Y-67590573D01*
X145923427Y-67719582D01*
X146024790Y-67871283D01*
X146094607Y-68039834D01*
X146130200Y-68218778D01*
X146130200Y-68401222D01*
X146094607Y-68580166D01*
X146024790Y-68748717D01*
X145923427Y-68900418D01*
X145794418Y-69029427D01*
X145642717Y-69130790D01*
X145474166Y-69200607D01*
X145313068Y-69232650D01*
X145295223Y-69236200D01*
X145112777Y-69236200D01*
X145094932Y-69232650D01*
X144933834Y-69200607D01*
X144765283Y-69130790D01*
X144613582Y-69029427D01*
X144484573Y-68900418D01*
X144383210Y-68748717D01*
X144313393Y-68580166D01*
X144277800Y-68401222D01*
X144277800Y-68218778D01*
X144313393Y-68039834D01*
X144383210Y-67871283D01*
X144484573Y-67719582D01*
X144613582Y-67590573D01*
X144765283Y-67489210D01*
X144933834Y-67419393D01*
X145094932Y-67387350D01*
X145112777Y-67383800D01*
X145295223Y-67383800D01*
X145313068Y-67387350D01*
G37*
G36*
X135153068Y-67387350D02*
G01*
X135314166Y-67419393D01*
X135482717Y-67489210D01*
X135634418Y-67590573D01*
X135763427Y-67719582D01*
X135864790Y-67871283D01*
X135934607Y-68039834D01*
X135970200Y-68218778D01*
X135970200Y-68401222D01*
X135934607Y-68580166D01*
X135864790Y-68748717D01*
X135763427Y-68900418D01*
X135634418Y-69029427D01*
X135482717Y-69130790D01*
X135314166Y-69200607D01*
X135153068Y-69232650D01*
X135135223Y-69236200D01*
X134952777Y-69236200D01*
X134934932Y-69232650D01*
X134773834Y-69200607D01*
X134605283Y-69130790D01*
X134453582Y-69029427D01*
X134324573Y-68900418D01*
X134223210Y-68748717D01*
X134153393Y-68580166D01*
X134117800Y-68401222D01*
X134117800Y-68218778D01*
X134153393Y-68039834D01*
X134223210Y-67871283D01*
X134324573Y-67719582D01*
X134453582Y-67590573D01*
X134605283Y-67489210D01*
X134773834Y-67419393D01*
X134934932Y-67387350D01*
X134952777Y-67383800D01*
X135135223Y-67383800D01*
X135153068Y-67387350D01*
G37*
G36*
X137693068Y-67387350D02*
G01*
X137854166Y-67419393D01*
X138022717Y-67489210D01*
X138174418Y-67590573D01*
X138303427Y-67719582D01*
X138404790Y-67871283D01*
X138474607Y-68039834D01*
X138510200Y-68218778D01*
X138510200Y-68401222D01*
X138474607Y-68580166D01*
X138404790Y-68748717D01*
X138303427Y-68900418D01*
X138174418Y-69029427D01*
X138022717Y-69130790D01*
X137854166Y-69200607D01*
X137693068Y-69232650D01*
X137675223Y-69236200D01*
X137492777Y-69236200D01*
X137474932Y-69232650D01*
X137313834Y-69200607D01*
X137145283Y-69130790D01*
X136993582Y-69029427D01*
X136864573Y-68900418D01*
X136763210Y-68748717D01*
X136693393Y-68580166D01*
X136657800Y-68401222D01*
X136657800Y-68218778D01*
X136693393Y-68039834D01*
X136763210Y-67871283D01*
X136864573Y-67719582D01*
X136993582Y-67590573D01*
X137145283Y-67489210D01*
X137313834Y-67419393D01*
X137474932Y-67387350D01*
X137492777Y-67383800D01*
X137675223Y-67383800D01*
X137693068Y-67387350D01*
G37*
G36*
X142773068Y-67387350D02*
G01*
X142934166Y-67419393D01*
X143102717Y-67489210D01*
X143254418Y-67590573D01*
X143383427Y-67719582D01*
X143484790Y-67871283D01*
X143554607Y-68039834D01*
X143590200Y-68218778D01*
X143590200Y-68401222D01*
X143554607Y-68580166D01*
X143484790Y-68748717D01*
X143383427Y-68900418D01*
X143254418Y-69029427D01*
X143102717Y-69130790D01*
X142934166Y-69200607D01*
X142773068Y-69232650D01*
X142755223Y-69236200D01*
X142572777Y-69236200D01*
X142554932Y-69232650D01*
X142393834Y-69200607D01*
X142225283Y-69130790D01*
X142073582Y-69029427D01*
X141944573Y-68900418D01*
X141843210Y-68748717D01*
X141773393Y-68580166D01*
X141737800Y-68401222D01*
X141737800Y-68218778D01*
X141773393Y-68039834D01*
X141843210Y-67871283D01*
X141944573Y-67719582D01*
X142073582Y-67590573D01*
X142225283Y-67489210D01*
X142393834Y-67419393D01*
X142554932Y-67387350D01*
X142572777Y-67383800D01*
X142755223Y-67383800D01*
X142773068Y-67387350D01*
G37*
G36*
X140233068Y-67387350D02*
G01*
X140394166Y-67419393D01*
X140562717Y-67489210D01*
X140714418Y-67590573D01*
X140843427Y-67719582D01*
X140944790Y-67871283D01*
X141014607Y-68039834D01*
X141050200Y-68218778D01*
X141050200Y-68401222D01*
X141014607Y-68580166D01*
X140944790Y-68748717D01*
X140843427Y-68900418D01*
X140714418Y-69029427D01*
X140562717Y-69130790D01*
X140394166Y-69200607D01*
X140233068Y-69232650D01*
X140215223Y-69236200D01*
X140032777Y-69236200D01*
X140014932Y-69232650D01*
X139853834Y-69200607D01*
X139685283Y-69130790D01*
X139533582Y-69029427D01*
X139404573Y-68900418D01*
X139303210Y-68748717D01*
X139233393Y-68580166D01*
X139197800Y-68401222D01*
X139197800Y-68218778D01*
X139233393Y-68039834D01*
X139303210Y-67871283D01*
X139404573Y-67719582D01*
X139533582Y-67590573D01*
X139685283Y-67489210D01*
X139853834Y-67419393D01*
X140014932Y-67387350D01*
X140032777Y-67383800D01*
X140215223Y-67383800D01*
X140233068Y-67387350D01*
G37*
G36*
X168173068Y-67387350D02*
G01*
X168334166Y-67419393D01*
X168502717Y-67489210D01*
X168654418Y-67590573D01*
X168783427Y-67719582D01*
X168884790Y-67871283D01*
X168954607Y-68039834D01*
X168990200Y-68218778D01*
X168990200Y-68401222D01*
X168954607Y-68580166D01*
X168884790Y-68748717D01*
X168783427Y-68900418D01*
X168654418Y-69029427D01*
X168502717Y-69130790D01*
X168334166Y-69200607D01*
X168173068Y-69232650D01*
X168155223Y-69236200D01*
X167972777Y-69236200D01*
X167954932Y-69232650D01*
X167793834Y-69200607D01*
X167625283Y-69130790D01*
X167473582Y-69029427D01*
X167344573Y-68900418D01*
X167243210Y-68748717D01*
X167173393Y-68580166D01*
X167137800Y-68401222D01*
X167137800Y-68218778D01*
X167173393Y-68039834D01*
X167243210Y-67871283D01*
X167344573Y-67719582D01*
X167473582Y-67590573D01*
X167625283Y-67489210D01*
X167793834Y-67419393D01*
X167954932Y-67387350D01*
X167972777Y-67383800D01*
X168155223Y-67383800D01*
X168173068Y-67387350D01*
G37*
G36*
X183553761Y-65524372D02*
G01*
X183553763Y-65524373D01*
X183553764Y-65524373D01*
X183840612Y-65643189D01*
X184098764Y-65815681D01*
X184098766Y-65815683D01*
X184098769Y-65815685D01*
X184318315Y-66035231D01*
X184318316Y-66035233D01*
X184318319Y-66035236D01*
X184490811Y-66293388D01*
X184609627Y-66580236D01*
X184609628Y-66580239D01*
X184670200Y-66884758D01*
X184670200Y-67195242D01*
X184611727Y-67489210D01*
X184609627Y-67499764D01*
X184490811Y-67786612D01*
X184318319Y-68044764D01*
X184318317Y-68044766D01*
X184318315Y-68044769D01*
X184098769Y-68264315D01*
X184098766Y-68264317D01*
X184098764Y-68264319D01*
X183840612Y-68436811D01*
X183553764Y-68555627D01*
X183553763Y-68555627D01*
X183553761Y-68555628D01*
X183249242Y-68616200D01*
X182938758Y-68616200D01*
X182634239Y-68555628D01*
X182634237Y-68555627D01*
X182634236Y-68555627D01*
X182347388Y-68436811D01*
X182089236Y-68264319D01*
X182089234Y-68264317D01*
X182089231Y-68264315D01*
X181869685Y-68044769D01*
X181869683Y-68044766D01*
X181869681Y-68044764D01*
X181697189Y-67786612D01*
X181578373Y-67499764D01*
X181576274Y-67489210D01*
X181517800Y-67195242D01*
X181517800Y-66884758D01*
X181578372Y-66580239D01*
X181578373Y-66580236D01*
X181697189Y-66293388D01*
X181869681Y-66035236D01*
X181869684Y-66035233D01*
X181869685Y-66035231D01*
X182089231Y-65815685D01*
X182089234Y-65815683D01*
X182089236Y-65815681D01*
X182347388Y-65643189D01*
X182634236Y-65524373D01*
X182634237Y-65524373D01*
X182634239Y-65524372D01*
X182938758Y-65463800D01*
X183249242Y-65463800D01*
X183553761Y-65524372D01*
G37*
G36*
X125325371Y-65478944D02*
G01*
X125553763Y-65524373D01*
X125840607Y-65643188D01*
X125840608Y-65643189D01*
X125840610Y-65643190D01*
X126098769Y-65815686D01*
X126318314Y-66035231D01*
X126321611Y-66040166D01*
X126490812Y-66293393D01*
X126609627Y-66580237D01*
X126670199Y-66884759D01*
X126670199Y-67195241D01*
X126609627Y-67499763D01*
X126490812Y-67786607D01*
X126490810Y-67786610D01*
X126318314Y-68044769D01*
X126098769Y-68264314D01*
X125893871Y-68401222D01*
X125840607Y-68436812D01*
X125553763Y-68555627D01*
X125325372Y-68601056D01*
X125249242Y-68616199D01*
X124938758Y-68616199D01*
X124862628Y-68601056D01*
X124634237Y-68555627D01*
X124347393Y-68436812D01*
X124294129Y-68401222D01*
X124089231Y-68264314D01*
X123869686Y-68044769D01*
X123697190Y-67786610D01*
X123697188Y-67786607D01*
X123578373Y-67499763D01*
X123517801Y-67195241D01*
X123517801Y-66884759D01*
X123578373Y-66580237D01*
X123697188Y-66293393D01*
X123866389Y-66040166D01*
X123869686Y-66035231D01*
X124089231Y-65815686D01*
X124347390Y-65643190D01*
X124347392Y-65643189D01*
X124347393Y-65643188D01*
X124634237Y-65524373D01*
X124862629Y-65478944D01*
X124938758Y-65463801D01*
X125249242Y-65463801D01*
X125325371Y-65478944D01*
G37*
G36*
X150393068Y-64847350D02*
G01*
X150554166Y-64879393D01*
X150722717Y-64949210D01*
X150874418Y-65050573D01*
X151003427Y-65179582D01*
X151104790Y-65331283D01*
X151174607Y-65499834D01*
X151210200Y-65678778D01*
X151210200Y-65861222D01*
X151174607Y-66040166D01*
X151104790Y-66208717D01*
X151003427Y-66360418D01*
X150874418Y-66489427D01*
X150722717Y-66590790D01*
X150554166Y-66660607D01*
X150393068Y-66692650D01*
X150375223Y-66696200D01*
X150192777Y-66696200D01*
X150174932Y-66692650D01*
X150013834Y-66660607D01*
X149845283Y-66590790D01*
X149693582Y-66489427D01*
X149564573Y-66360418D01*
X149463210Y-66208717D01*
X149393393Y-66040166D01*
X149357800Y-65861222D01*
X149357800Y-65678778D01*
X149393393Y-65499834D01*
X149463210Y-65331283D01*
X149564573Y-65179582D01*
X149693582Y-65050573D01*
X149845283Y-64949210D01*
X150013834Y-64879393D01*
X150174932Y-64847350D01*
X150192777Y-64843800D01*
X150375223Y-64843800D01*
X150393068Y-64847350D01*
G37*
G36*
X147853068Y-64847350D02*
G01*
X148014166Y-64879393D01*
X148182717Y-64949210D01*
X148334418Y-65050573D01*
X148463427Y-65179582D01*
X148564790Y-65331283D01*
X148634607Y-65499834D01*
X148670200Y-65678778D01*
X148670200Y-65861222D01*
X148634607Y-66040166D01*
X148564790Y-66208717D01*
X148463427Y-66360418D01*
X148334418Y-66489427D01*
X148182717Y-66590790D01*
X148014166Y-66660607D01*
X147853068Y-66692650D01*
X147835223Y-66696200D01*
X147652777Y-66696200D01*
X147634932Y-66692650D01*
X147473834Y-66660607D01*
X147305283Y-66590790D01*
X147153582Y-66489427D01*
X147024573Y-66360418D01*
X146923210Y-66208717D01*
X146853393Y-66040166D01*
X146817800Y-65861222D01*
X146817800Y-65678778D01*
X146853393Y-65499834D01*
X146923210Y-65331283D01*
X147024573Y-65179582D01*
X147153582Y-65050573D01*
X147305283Y-64949210D01*
X147473834Y-64879393D01*
X147634932Y-64847350D01*
X147652777Y-64843800D01*
X147835223Y-64843800D01*
X147853068Y-64847350D01*
G37*
G36*
X145313068Y-64847350D02*
G01*
X145474166Y-64879393D01*
X145642717Y-64949210D01*
X145794418Y-65050573D01*
X145923427Y-65179582D01*
X146024790Y-65331283D01*
X146094607Y-65499834D01*
X146130200Y-65678778D01*
X146130200Y-65861222D01*
X146094607Y-66040166D01*
X146024790Y-66208717D01*
X145923427Y-66360418D01*
X145794418Y-66489427D01*
X145642717Y-66590790D01*
X145474166Y-66660607D01*
X145313068Y-66692650D01*
X145295223Y-66696200D01*
X145112777Y-66696200D01*
X145094932Y-66692650D01*
X144933834Y-66660607D01*
X144765283Y-66590790D01*
X144613582Y-66489427D01*
X144484573Y-66360418D01*
X144383210Y-66208717D01*
X144313393Y-66040166D01*
X144277800Y-65861222D01*
X144277800Y-65678778D01*
X144313393Y-65499834D01*
X144383210Y-65331283D01*
X144484573Y-65179582D01*
X144613582Y-65050573D01*
X144765283Y-64949210D01*
X144933834Y-64879393D01*
X145094932Y-64847350D01*
X145112777Y-64843800D01*
X145295223Y-64843800D01*
X145313068Y-64847350D01*
G37*
G36*
X142773068Y-64847350D02*
G01*
X142934166Y-64879393D01*
X143102717Y-64949210D01*
X143254418Y-65050573D01*
X143383427Y-65179582D01*
X143484790Y-65331283D01*
X143554607Y-65499834D01*
X143590200Y-65678778D01*
X143590200Y-65861222D01*
X143554607Y-66040166D01*
X143484790Y-66208717D01*
X143383427Y-66360418D01*
X143254418Y-66489427D01*
X143102717Y-66590790D01*
X142934166Y-66660607D01*
X142773068Y-66692650D01*
X142755223Y-66696200D01*
X142572777Y-66696200D01*
X142554932Y-66692650D01*
X142393834Y-66660607D01*
X142225283Y-66590790D01*
X142073582Y-66489427D01*
X141944573Y-66360418D01*
X141843210Y-66208717D01*
X141773393Y-66040166D01*
X141737800Y-65861222D01*
X141737800Y-65678778D01*
X141773393Y-65499834D01*
X141843210Y-65331283D01*
X141944573Y-65179582D01*
X142073582Y-65050573D01*
X142225283Y-64949210D01*
X142393834Y-64879393D01*
X142554932Y-64847350D01*
X142572777Y-64843800D01*
X142755223Y-64843800D01*
X142773068Y-64847350D01*
G37*
G36*
X140233068Y-64847350D02*
G01*
X140394166Y-64879393D01*
X140562717Y-64949210D01*
X140714418Y-65050573D01*
X140843427Y-65179582D01*
X140944790Y-65331283D01*
X141014607Y-65499834D01*
X141050200Y-65678778D01*
X141050200Y-65861222D01*
X141014607Y-66040166D01*
X140944790Y-66208717D01*
X140843427Y-66360418D01*
X140714418Y-66489427D01*
X140562717Y-66590790D01*
X140394166Y-66660607D01*
X140233068Y-66692650D01*
X140215223Y-66696200D01*
X140032777Y-66696200D01*
X140014932Y-66692650D01*
X139853834Y-66660607D01*
X139685283Y-66590790D01*
X139533582Y-66489427D01*
X139404573Y-66360418D01*
X139303210Y-66208717D01*
X139233393Y-66040166D01*
X139197800Y-65861222D01*
X139197800Y-65678778D01*
X139233393Y-65499834D01*
X139303210Y-65331283D01*
X139404573Y-65179582D01*
X139533582Y-65050573D01*
X139685283Y-64949210D01*
X139853834Y-64879393D01*
X140014932Y-64847350D01*
X140032777Y-64843800D01*
X140215223Y-64843800D01*
X140233068Y-64847350D01*
G37*
G36*
X137693068Y-64847350D02*
G01*
X137854166Y-64879393D01*
X138022717Y-64949210D01*
X138174418Y-65050573D01*
X138303427Y-65179582D01*
X138404790Y-65331283D01*
X138474607Y-65499834D01*
X138510200Y-65678778D01*
X138510200Y-65861222D01*
X138474607Y-66040166D01*
X138404790Y-66208717D01*
X138303427Y-66360418D01*
X138174418Y-66489427D01*
X138022717Y-66590790D01*
X137854166Y-66660607D01*
X137693068Y-66692650D01*
X137675223Y-66696200D01*
X137492777Y-66696200D01*
X137474932Y-66692650D01*
X137313834Y-66660607D01*
X137145283Y-66590790D01*
X136993582Y-66489427D01*
X136864573Y-66360418D01*
X136763210Y-66208717D01*
X136693393Y-66040166D01*
X136657800Y-65861222D01*
X136657800Y-65678778D01*
X136693393Y-65499834D01*
X136763210Y-65331283D01*
X136864573Y-65179582D01*
X136993582Y-65050573D01*
X137145283Y-64949210D01*
X137313834Y-64879393D01*
X137474932Y-64847350D01*
X137492777Y-64843800D01*
X137675223Y-64843800D01*
X137693068Y-64847350D01*
G37*
G36*
X135153068Y-64847350D02*
G01*
X135314166Y-64879393D01*
X135482717Y-64949210D01*
X135634418Y-65050573D01*
X135763427Y-65179582D01*
X135864790Y-65331283D01*
X135934607Y-65499834D01*
X135970200Y-65678778D01*
X135970200Y-65861222D01*
X135934607Y-66040166D01*
X135864790Y-66208717D01*
X135763427Y-66360418D01*
X135634418Y-66489427D01*
X135482717Y-66590790D01*
X135314166Y-66660607D01*
X135153068Y-66692650D01*
X135135223Y-66696200D01*
X134952777Y-66696200D01*
X134934932Y-66692650D01*
X134773834Y-66660607D01*
X134605283Y-66590790D01*
X134453582Y-66489427D01*
X134324573Y-66360418D01*
X134223210Y-66208717D01*
X134153393Y-66040166D01*
X134117800Y-65861222D01*
X134117800Y-65678778D01*
X134153393Y-65499834D01*
X134223210Y-65331283D01*
X134324573Y-65179582D01*
X134453582Y-65050573D01*
X134605283Y-64949210D01*
X134773834Y-64879393D01*
X134934932Y-64847350D01*
X134952777Y-64843800D01*
X135135223Y-64843800D01*
X135153068Y-64847350D01*
G37*
G36*
X132613068Y-64847350D02*
G01*
X132774166Y-64879393D01*
X132942717Y-64949210D01*
X133094418Y-65050573D01*
X133223427Y-65179582D01*
X133324790Y-65331283D01*
X133394607Y-65499834D01*
X133430200Y-65678778D01*
X133430200Y-65861222D01*
X133394607Y-66040166D01*
X133324790Y-66208717D01*
X133223427Y-66360418D01*
X133094418Y-66489427D01*
X132942717Y-66590790D01*
X132774166Y-66660607D01*
X132613068Y-66692650D01*
X132595223Y-66696200D01*
X132412777Y-66696200D01*
X132394932Y-66692650D01*
X132233834Y-66660607D01*
X132065283Y-66590790D01*
X131913582Y-66489427D01*
X131784573Y-66360418D01*
X131683210Y-66208717D01*
X131613393Y-66040166D01*
X131577800Y-65861222D01*
X131577800Y-65678778D01*
X131613393Y-65499834D01*
X131683210Y-65331283D01*
X131784573Y-65179582D01*
X131913582Y-65050573D01*
X132065283Y-64949210D01*
X132233834Y-64879393D01*
X132394932Y-64847350D01*
X132412777Y-64843800D01*
X132595223Y-64843800D01*
X132613068Y-64847350D01*
G37*
G36*
X130073068Y-64847350D02*
G01*
X130234166Y-64879393D01*
X130402717Y-64949210D01*
X130554418Y-65050573D01*
X130683427Y-65179582D01*
X130784790Y-65331283D01*
X130854607Y-65499834D01*
X130890200Y-65678778D01*
X130890200Y-65861222D01*
X130854607Y-66040166D01*
X130784790Y-66208717D01*
X130683427Y-66360418D01*
X130554418Y-66489427D01*
X130402717Y-66590790D01*
X130234166Y-66660607D01*
X130073068Y-66692650D01*
X130055223Y-66696200D01*
X129872777Y-66696200D01*
X129854932Y-66692650D01*
X129693834Y-66660607D01*
X129525283Y-66590790D01*
X129373582Y-66489427D01*
X129244573Y-66360418D01*
X129143210Y-66208717D01*
X129073393Y-66040166D01*
X129037800Y-65861222D01*
X129037800Y-65678778D01*
X129073393Y-65499834D01*
X129143210Y-65331283D01*
X129244573Y-65179582D01*
X129373582Y-65050573D01*
X129525283Y-64949210D01*
X129693834Y-64879393D01*
X129854932Y-64847350D01*
X129872777Y-64843800D01*
X130055223Y-64843800D01*
X130073068Y-64847350D01*
G37*
G36*
X152933068Y-64847350D02*
G01*
X153094166Y-64879393D01*
X153262717Y-64949210D01*
X153414418Y-65050573D01*
X153543427Y-65179582D01*
X153644790Y-65331283D01*
X153714607Y-65499834D01*
X153750200Y-65678778D01*
X153750200Y-65861222D01*
X153714607Y-66040166D01*
X153644790Y-66208717D01*
X153543427Y-66360418D01*
X153414418Y-66489427D01*
X153262717Y-66590790D01*
X153094166Y-66660607D01*
X152933068Y-66692650D01*
X152915223Y-66696200D01*
X152732777Y-66696200D01*
X152714932Y-66692650D01*
X152553834Y-66660607D01*
X152385283Y-66590790D01*
X152233582Y-66489427D01*
X152104573Y-66360418D01*
X152003210Y-66208717D01*
X151933393Y-66040166D01*
X151897800Y-65861222D01*
X151897800Y-65678778D01*
X151933393Y-65499834D01*
X152003210Y-65331283D01*
X152104573Y-65179582D01*
X152233582Y-65050573D01*
X152385283Y-64949210D01*
X152553834Y-64879393D01*
X152714932Y-64847350D01*
X152732777Y-64843800D01*
X152915223Y-64843800D01*
X152933068Y-64847350D01*
G37*
G36*
X158013068Y-64847350D02*
G01*
X158174166Y-64879393D01*
X158342717Y-64949210D01*
X158494418Y-65050573D01*
X158623427Y-65179582D01*
X158724790Y-65331283D01*
X158794607Y-65499834D01*
X158830200Y-65678778D01*
X158830200Y-65861222D01*
X158794607Y-66040166D01*
X158724790Y-66208717D01*
X158623427Y-66360418D01*
X158494418Y-66489427D01*
X158342717Y-66590790D01*
X158174166Y-66660607D01*
X158013068Y-66692650D01*
X157995223Y-66696200D01*
X157812777Y-66696200D01*
X157794932Y-66692650D01*
X157633834Y-66660607D01*
X157465283Y-66590790D01*
X157313582Y-66489427D01*
X157184573Y-66360418D01*
X157083210Y-66208717D01*
X157013393Y-66040166D01*
X156977800Y-65861222D01*
X156977800Y-65678778D01*
X157013393Y-65499834D01*
X157083210Y-65331283D01*
X157184573Y-65179582D01*
X157313582Y-65050573D01*
X157465283Y-64949210D01*
X157633834Y-64879393D01*
X157794932Y-64847350D01*
X157812777Y-64843800D01*
X157995223Y-64843800D01*
X158013068Y-64847350D01*
G37*
G36*
X160553068Y-64847350D02*
G01*
X160714166Y-64879393D01*
X160882717Y-64949210D01*
X161034418Y-65050573D01*
X161163427Y-65179582D01*
X161264790Y-65331283D01*
X161334607Y-65499834D01*
X161370200Y-65678778D01*
X161370200Y-65861222D01*
X161334607Y-66040166D01*
X161264790Y-66208717D01*
X161163427Y-66360418D01*
X161034418Y-66489427D01*
X160882717Y-66590790D01*
X160714166Y-66660607D01*
X160553068Y-66692650D01*
X160535223Y-66696200D01*
X160352777Y-66696200D01*
X160334932Y-66692650D01*
X160173834Y-66660607D01*
X160005283Y-66590790D01*
X159853582Y-66489427D01*
X159724573Y-66360418D01*
X159623210Y-66208717D01*
X159553393Y-66040166D01*
X159517800Y-65861222D01*
X159517800Y-65678778D01*
X159553393Y-65499834D01*
X159623210Y-65331283D01*
X159724573Y-65179582D01*
X159853582Y-65050573D01*
X160005283Y-64949210D01*
X160173834Y-64879393D01*
X160334932Y-64847350D01*
X160352777Y-64843800D01*
X160535223Y-64843800D01*
X160553068Y-64847350D01*
G37*
G36*
X163093068Y-64847350D02*
G01*
X163254166Y-64879393D01*
X163422717Y-64949210D01*
X163574418Y-65050573D01*
X163703427Y-65179582D01*
X163804790Y-65331283D01*
X163874607Y-65499834D01*
X163910200Y-65678778D01*
X163910200Y-65861222D01*
X163874607Y-66040166D01*
X163804790Y-66208717D01*
X163703427Y-66360418D01*
X163574418Y-66489427D01*
X163422717Y-66590790D01*
X163254166Y-66660607D01*
X163093068Y-66692650D01*
X163075223Y-66696200D01*
X162892777Y-66696200D01*
X162874932Y-66692650D01*
X162713834Y-66660607D01*
X162545283Y-66590790D01*
X162393582Y-66489427D01*
X162264573Y-66360418D01*
X162163210Y-66208717D01*
X162093393Y-66040166D01*
X162057800Y-65861222D01*
X162057800Y-65678778D01*
X162093393Y-65499834D01*
X162163210Y-65331283D01*
X162264573Y-65179582D01*
X162393582Y-65050573D01*
X162545283Y-64949210D01*
X162713834Y-64879393D01*
X162874932Y-64847350D01*
X162892777Y-64843800D01*
X163075223Y-64843800D01*
X163093068Y-64847350D01*
G37*
G36*
X165633068Y-64847350D02*
G01*
X165794166Y-64879393D01*
X165962717Y-64949210D01*
X166114418Y-65050573D01*
X166243427Y-65179582D01*
X166344790Y-65331283D01*
X166414607Y-65499834D01*
X166450200Y-65678778D01*
X166450200Y-65861222D01*
X166414607Y-66040166D01*
X166344790Y-66208717D01*
X166243427Y-66360418D01*
X166114418Y-66489427D01*
X165962717Y-66590790D01*
X165794166Y-66660607D01*
X165633068Y-66692650D01*
X165615223Y-66696200D01*
X165432777Y-66696200D01*
X165414932Y-66692650D01*
X165253834Y-66660607D01*
X165085283Y-66590790D01*
X164933582Y-66489427D01*
X164804573Y-66360418D01*
X164703210Y-66208717D01*
X164633393Y-66040166D01*
X164597800Y-65861222D01*
X164597800Y-65678778D01*
X164633393Y-65499834D01*
X164703210Y-65331283D01*
X164804573Y-65179582D01*
X164933582Y-65050573D01*
X165085283Y-64949210D01*
X165253834Y-64879393D01*
X165414932Y-64847350D01*
X165432777Y-64843800D01*
X165615223Y-64843800D01*
X165633068Y-64847350D01*
G37*
G36*
X168173068Y-64847350D02*
G01*
X168334166Y-64879393D01*
X168502717Y-64949210D01*
X168654418Y-65050573D01*
X168783427Y-65179582D01*
X168884790Y-65331283D01*
X168954607Y-65499834D01*
X168990200Y-65678778D01*
X168990200Y-65861222D01*
X168954607Y-66040166D01*
X168884790Y-66208717D01*
X168783427Y-66360418D01*
X168654418Y-66489427D01*
X168502717Y-66590790D01*
X168334166Y-66660607D01*
X168173068Y-66692650D01*
X168155223Y-66696200D01*
X167972777Y-66696200D01*
X167954932Y-66692650D01*
X167793834Y-66660607D01*
X167625283Y-66590790D01*
X167473582Y-66489427D01*
X167344573Y-66360418D01*
X167243210Y-66208717D01*
X167173393Y-66040166D01*
X167137800Y-65861222D01*
X167137800Y-65678778D01*
X167173393Y-65499834D01*
X167243210Y-65331283D01*
X167344573Y-65179582D01*
X167473582Y-65050573D01*
X167625283Y-64949210D01*
X167793834Y-64879393D01*
X167954932Y-64847350D01*
X167972777Y-64843800D01*
X168155223Y-64843800D01*
X168173068Y-64847350D01*
G37*
G36*
X173253068Y-64847350D02*
G01*
X173414166Y-64879393D01*
X173582717Y-64949210D01*
X173734418Y-65050573D01*
X173863427Y-65179582D01*
X173964790Y-65331283D01*
X174034607Y-65499834D01*
X174070200Y-65678778D01*
X174070200Y-65861222D01*
X174034607Y-66040166D01*
X173964790Y-66208717D01*
X173863427Y-66360418D01*
X173734418Y-66489427D01*
X173582717Y-66590790D01*
X173414166Y-66660607D01*
X173253068Y-66692650D01*
X173235223Y-66696200D01*
X173052777Y-66696200D01*
X173034932Y-66692650D01*
X172873834Y-66660607D01*
X172705283Y-66590790D01*
X172553582Y-66489427D01*
X172424573Y-66360418D01*
X172323210Y-66208717D01*
X172253393Y-66040166D01*
X172217800Y-65861222D01*
X172217800Y-65678778D01*
X172253393Y-65499834D01*
X172323210Y-65331283D01*
X172424573Y-65179582D01*
X172553582Y-65050573D01*
X172705283Y-64949210D01*
X172873834Y-64879393D01*
X173034932Y-64847350D01*
X173052777Y-64843800D01*
X173235223Y-64843800D01*
X173253068Y-64847350D01*
G37*
G36*
X175793068Y-64847350D02*
G01*
X175954166Y-64879393D01*
X176122717Y-64949210D01*
X176274418Y-65050573D01*
X176403427Y-65179582D01*
X176504790Y-65331283D01*
X176574607Y-65499834D01*
X176610200Y-65678778D01*
X176610200Y-65861222D01*
X176574607Y-66040166D01*
X176504790Y-66208717D01*
X176403427Y-66360418D01*
X176274418Y-66489427D01*
X176122717Y-66590790D01*
X175954166Y-66660607D01*
X175793068Y-66692650D01*
X175775223Y-66696200D01*
X175592777Y-66696200D01*
X175574932Y-66692650D01*
X175413834Y-66660607D01*
X175245283Y-66590790D01*
X175093582Y-66489427D01*
X174964573Y-66360418D01*
X174863210Y-66208717D01*
X174793393Y-66040166D01*
X174757800Y-65861222D01*
X174757800Y-65678778D01*
X174793393Y-65499834D01*
X174863210Y-65331283D01*
X174964573Y-65179582D01*
X175093582Y-65050573D01*
X175245283Y-64949210D01*
X175413834Y-64879393D01*
X175574932Y-64847350D01*
X175592777Y-64843800D01*
X175775223Y-64843800D01*
X175793068Y-64847350D01*
G37*
G36*
X178333068Y-64847350D02*
G01*
X178494166Y-64879393D01*
X178662717Y-64949210D01*
X178814418Y-65050573D01*
X178943427Y-65179582D01*
X179044790Y-65331283D01*
X179114607Y-65499834D01*
X179150200Y-65678778D01*
X179150200Y-65861222D01*
X179114607Y-66040166D01*
X179044790Y-66208717D01*
X178943427Y-66360418D01*
X178814418Y-66489427D01*
X178662717Y-66590790D01*
X178494166Y-66660607D01*
X178333068Y-66692650D01*
X178315223Y-66696200D01*
X178132777Y-66696200D01*
X178114932Y-66692650D01*
X177953834Y-66660607D01*
X177785283Y-66590790D01*
X177633582Y-66489427D01*
X177504573Y-66360418D01*
X177403210Y-66208717D01*
X177333393Y-66040166D01*
X177297800Y-65861222D01*
X177297800Y-65678778D01*
X177333393Y-65499834D01*
X177403210Y-65331283D01*
X177504573Y-65179582D01*
X177633582Y-65050573D01*
X177785283Y-64949210D01*
X177953834Y-64879393D01*
X178114932Y-64847350D01*
X178132777Y-64843800D01*
X178315223Y-64843800D01*
X178333068Y-64847350D01*
G37*
G36*
X155473068Y-64847350D02*
G01*
X155634166Y-64879393D01*
X155802717Y-64949210D01*
X155954418Y-65050573D01*
X156083427Y-65179582D01*
X156184790Y-65331283D01*
X156254607Y-65499834D01*
X156290200Y-65678778D01*
X156290200Y-65861222D01*
X156254607Y-66040166D01*
X156184790Y-66208717D01*
X156083427Y-66360418D01*
X155954418Y-66489427D01*
X155802717Y-66590790D01*
X155634166Y-66660607D01*
X155473068Y-66692650D01*
X155455223Y-66696200D01*
X155272777Y-66696200D01*
X155254932Y-66692650D01*
X155093834Y-66660607D01*
X154925283Y-66590790D01*
X154773582Y-66489427D01*
X154644573Y-66360418D01*
X154543210Y-66208717D01*
X154473393Y-66040166D01*
X154437800Y-65861222D01*
X154437800Y-65678778D01*
X154473393Y-65499834D01*
X154543210Y-65331283D01*
X154644573Y-65179582D01*
X154773582Y-65050573D01*
X154925283Y-64949210D01*
X155093834Y-64879393D01*
X155254932Y-64847350D01*
X155272777Y-64843800D01*
X155455223Y-64843800D01*
X155473068Y-64847350D01*
G37*
G36*
X170713068Y-64847350D02*
G01*
X170874166Y-64879393D01*
X171042717Y-64949210D01*
X171194418Y-65050573D01*
X171323427Y-65179582D01*
X171424790Y-65331283D01*
X171494607Y-65499834D01*
X171530200Y-65678778D01*
X171530200Y-65861222D01*
X171494607Y-66040166D01*
X171424790Y-66208717D01*
X171323427Y-66360418D01*
X171194418Y-66489427D01*
X171042717Y-66590790D01*
X170874166Y-66660607D01*
X170713068Y-66692650D01*
X170695223Y-66696200D01*
X170512777Y-66696200D01*
X170494932Y-66692650D01*
X170333834Y-66660607D01*
X170165283Y-66590790D01*
X170013582Y-66489427D01*
X169884573Y-66360418D01*
X169783210Y-66208717D01*
X169713393Y-66040166D01*
X169677800Y-65861222D01*
X169677800Y-65678778D01*
X169713393Y-65499834D01*
X169783210Y-65331283D01*
X169884573Y-65179582D01*
X170013582Y-65050573D01*
X170165283Y-64949210D01*
X170333834Y-64879393D01*
X170494932Y-64847350D01*
X170512777Y-64843800D01*
X170695223Y-64843800D01*
X170713068Y-64847350D01*
G37*
M02*
